<?xml version="1.0" encoding="UTF-8"?>
<svg id="DESIGNED_BY_FREEPIK" xmlns="http://www.w3.org/2000/svg" version="1.1" viewBox="0 0 100 100">
  <!-- Generator: Adobe Illustrator 30.3.0, SVG Export Plug-In . SVG Version: 2.1.3 Build 182)  -->
  <defs>
    <style>
      .st0 {
        fill: #2793c0;
      }

      .st1 {
        fill: #3497c7;
      }

      .st2 {
        fill: #59b7dd;
      }

      .st3 {
        fill: #2fa6d7;
      }

      .st4 {
        fill: #6db7e4;
      }

      .st5 {
        fill: #2fa7d8;
      }

      .st6 {
        fill: #94c2ea;
      }

      .st7 {
        fill: #3797d4;
      }

      .st8 {
        fill: #42a5e5;
      }

      .st9 {
        fill: #52ade4;
      }

      .st10 {
        fill: #3995d9;
      }

      .st11 {
        fill: #2eabd9;
      }

      .st12 {
        fill: #62afd6;
      }

      .st13 {
        fill: #2ea1d7;
      }

      .st14 {
        fill: #42b2e7;
      }

      .st15 {
        fill: #2e91ba;
      }

      .st16 {
        fill: #5bb3dc;
      }

      .st17 {
        fill: #64b2e7;
      }

      .st18 {
        fill: #3d9cc1;
      }

      .st19 {
        fill: #62bce1;
      }

      .st20 {
        fill: #41b5e7;
      }

      .st21 {
        fill: #2a9ac9;
      }

      .st22 {
        fill: #3c9adc;
      }

      .st23 {
        fill: #2b9cca;
      }

      .st24 {
        fill: #2995c6;
      }

      .st25 {
        fill: #61b4e4;
      }

      .st26 {
        fill: #6bb6e6;
      }

      .st27 {
        fill: #2faeda;
      }

      .st28 {
        fill: #3595c1;
      }

      .st29 {
        fill: #43b5e8;
      }

      .st30 {
        fill: #3897d6;
      }

      .st31 {
        fill: #2c9ed2;
      }

      .st32 {
        fill: #44b3e8;
      }

      .st33 {
        fill: #2e93c9;
      }

      .st34 {
        fill: #369bd7;
      }

      .st35 {
        fill: #2999c7;
      }

      .st36 {
        fill: #3783bb;
      }

      .st37 {
        fill: #51b0db;
      }

      .st38 {
        fill: #2ea6d8;
      }

      .st39 {
        fill: #268ebe;
      }

      .st40 {
        fill: #44b4e9;
      }

      .st41 {
        fill: #59b7df;
      }

      .st42 {
        fill: #3cace2;
      }

      .st43 {
        fill: #69ace7;
      }

      .st44 {
        fill: #49aad6;
      }

      .st45 {
        fill: #369fd6;
      }

      .st46 {
        fill: #368fd5;
      }

      .st47 {
        fill: #8da3d4;
      }

      .st48 {
        fill: #358fd3;
      }

      .st49 {
        fill: #2c9ed0;
      }

      .st50 {
        fill: #3db0e2;
      }

      .st51 {
        fill: #5db8e8;
      }

      .st52 {
        fill: #4e8ecb;
      }

      .st53 {
        fill: #4ea1d6;
      }

      .st54 {
        fill: #498dcf;
      }

      .st55 {
        fill: #42ace0;
      }

      .st56 {
        fill: #2ca9d0;
      }

      .st57 {
        fill: #258fbc;
      }

      .st58 {
        fill: #289ac7;
      }

      .st59 {
        fill: #5baee6;
      }

      .st60 {
        fill: #3ca3dd;
      }

      .st61 {
        fill: #258ebb;
      }

      .st62 {
        fill: #63b0e6;
      }

      .st63 {
        fill: #30a5d9;
      }

      .st64 {
        fill: #3799d6;
      }

      .st65 {
        fill: #3e87ba;
      }

      .st66 {
        fill: #5baadb;
      }

      .st67 {
        fill: #6bace4;
      }

      .st68 {
        fill: #58b6dd;
      }

      .st69 {
        fill: #53a5de;
      }

      .st70 {
        fill: #3a9ada;
      }

      .st71 {
        fill: #399bd7;
      }

      .st72 {
        fill: #2793bf;
      }

      .st73 {
        fill: #63b5e4;
      }

      .st74 {
        fill: #50a1d5;
      }

      .st75 {
        fill: #38aedf;
      }

      .st76 {
        fill: #44a6e7;
      }

      .st77 {
        fill: #65b7e6;
      }

      .st78 {
        fill: #2b95c7;
      }

      .st79 {
        fill: #43b4e8;
      }

      .st80 {
        fill: #3698d5;
      }

      .st81 {
        fill: #54c1df;
      }

      .st82 {
        fill: #3da7d2;
      }

      .st83 {
        fill: #3c98dc;
      }

      .st84 {
        fill: #1d7ca3;
      }

      .st85 {
        fill: #2898c5;
      }

      .st86 {
        fill: #2c92c3;
      }

      .st87 {
        fill: #5ca9e5;
      }

      .st88 {
        fill: #46a6e2;
      }

      .st89 {
        fill: #3e7db5;
      }

      .st90 {
        fill: #4eb1d7;
      }

      .st91 {
        fill: #2691be;
      }

      .st92 {
        fill: #5cb3df;
      }

      .st93 {
        fill: #2ea5d6;
      }

      .st94 {
        fill: #1c7a95;
      }

      .st95 {
        fill: #5c94d3;
      }

      .st96 {
        fill: #187291;
      }

      .st97 {
        fill: #57b6e7;
      }

      .st98 {
        fill: #2c7ec5;
      }

      .st99 {
        fill: #399bd9;
      }

      .st100 {
        fill: #47afdb;
      }

      .st101 {
        fill: #3ea8e2;
      }

      .st102 {
        fill: #68b8e1;
      }

      .st103 {
        fill: #3392d2;
      }

      .st104 {
        fill: #1d769f;
      }

      .st105 {
        fill: #2999c8;
      }

      .st106 {
        fill: #43afe7;
      }

      .st107 {
        fill: #30a6d7;
      }

      .st108 {
        fill: #2897c4;
      }

      .st109 {
        fill: #46a4cc;
      }

      .st110 {
        fill: #45adde;
      }

      .st111 {
        fill: #56b8df;
      }

      .st112 {
        fill: #197692;
      }

      .st113 {
        fill: #3b96da;
      }

      .st114 {
        fill: #3d96dd;
      }

      .st115 {
        fill: #2fb4da;
      }

      .st116 {
        fill: #5ec5e3;
      }

      .st117 {
        fill: #238cb7;
      }

      .st118 {
        fill: #66a7df;
      }

      .st119 {
        fill: #39a3db;
      }

      .st120 {
        fill: #2fa1d7;
      }

      .st121 {
        fill: #60a7d7;
      }

      .st122 {
        fill: #2794c1;
      }

      .st123 {
        fill: #43b2e8;
      }

      .st124 {
        fill: #44b3e9;
      }

      .st125 {
        fill: #44abe7;
      }

      .st126 {
        fill: #63ade5;
      }

      .st127 {
        fill: #64b5e5;
      }

      .st128 {
        fill: #4cadd5;
      }

      .st129 {
        fill: #248cbb;
      }

      .st130 {
        fill: #48aad6;
      }

      .st131 {
        fill: #3ab8e2;
      }

      .st132 {
        fill: #2796c1;
      }

      .st133 {
        fill: #3b9fd7;
      }

      .st134 {
        fill: #3c91da;
      }

      .st135 {
        fill: #59a8df;
      }

      .st136 {
        fill: #2da3d6;
      }

      .st137 {
        fill: #2fb4db;
      }

      .st138 {
        fill: #2fa6d8;
      }

      .st139 {
        fill: #2592bd;
      }

      .st140 {
        fill: #2ea0d6;
      }

      .st141 {
        fill: #54c0e0;
      }

      .st142 {
        fill: #2fa7d7;
      }

      .st143 {
        fill: #2ea4d7;
      }

      .st144 {
        fill: #42a9e6;
      }

      .st145 {
        fill: #3091cb;
      }

      .st146 {
        fill: #43a5e6;
      }

      .st147 {
        fill: #299dc7;
      }

      .st148 {
        fill: #29a7cb;
      }

      .st149 {
        fill: #3498d4;
      }

      .st150 {
        fill: #69aadf;
      }

      .st151 {
        fill: #3ea4d4;
      }

      .st152 {
        fill: #359ed8;
      }

      .st153 {
        fill: #59bbe6;
      }

      .st154 {
        fill: #2478ba;
      }

      .st155 {
        fill: #5c9ed1;
      }

      .st156 {
        fill: #2ea7d7;
      }

      .st157 {
        fill: #57abe5;
      }

      .st158 {
        fill: #3eabda;
      }

      .st159 {
        fill: #2692c0;
      }

      .st160 {
        fill: #2b99cc;
      }

      .st161 {
        fill: #2ea6d7;
      }

      .st162 {
        fill: #43abe7;
      }

      .st163 {
        fill: #299bca;
      }

      .st164 {
        fill: #248bb9;
      }

      .st165 {
        fill: #4badda;
      }

      .st166 {
        fill: #6cbbe5;
      }

      .st167 {
        fill: #65b5e7;
      }

      .st168 {
        fill: #88a9d9;
      }

      .st169 {
        fill: #d2e5ef;
      }

      .st170 {
        fill: #58b6e6;
      }

      .st171 {
        fill: #50b4de;
      }

      .st172 {
        fill: #2391b9;
      }

      .st173 {
        fill: #8dc1ec;
      }

      .st174 {
        fill: #3b8dba;
      }

      .st175 {
        fill: #2679bd;
      }

      .st176 {
        fill: #268dbc;
      }

      .st177 {
        fill: #4cb0d9;
      }

      .st178 {
        fill: #4bafd3;
      }

      .st179 {
        fill: #51a8e6;
      }

      .st180 {
        fill: #44a8e7;
      }

      .st181 {
        fill: #388dd7;
      }

      .st182 {
        fill: #58bfe6;
      }

      .st183 {
        fill: #30a2d5;
      }

      .st184 {
        fill: #3aa8df;
      }

      .st185 {
        fill: #2ba1ca;
      }

      .st186 {
        fill: #2270b4;
      }

      .st187 {
        fill: #6abfe4;
      }

      .st188 {
        fill: #2ea5d7;
      }

      .st189 {
        fill: #33a0bd;
      }

      .st190 {
        fill: #2fb2da;
      }

      .st191 {
        fill: #5ebce4;
      }

      .st192 {
        fill: #cfe5f1;
      }

      .st193 {
        fill: #258bba;
      }

      .st194 {
        fill: #4bbede;
      }

      .st195 {
        fill: #2aa0cc;
      }

      .st196 {
        fill: #248bba;
      }

      .st197 {
        fill: #57b3db;
      }

      .st198 {
        fill: #30a7d8;
      }

      .st199 {
        fill: #54addb;
      }

      .st200 {
        fill: #44b2e8;
      }

      .st201 {
        fill: #2a94c5;
      }

      .st202 {
        fill: #5ac4e1;
      }

      .st203 {
        fill: #57b7de;
      }

      .st204 {
        fill: #45afe7;
      }

      .st205 {
        fill: #3789a2;
      }

      .st206 {
        fill: #3798d7;
      }

      .st207 {
        fill: #287d9a;
      }

      .st208 {
        fill: #3599d5;
      }

      .st209 {
        fill: #2080a9;
      }

      .st210 {
        fill: #2da1d4;
      }

      .st211 {
        fill: #6cb4e7;
      }

      .st212 {
        fill: #227bb7;
      }

      .st213 {
        fill: #6fb3e3;
      }
    </style>
  </defs>
  <path class="st25" d="M39.35,40.89c.02-.08,0-.15-.04-.22-.13-.17-.11-.38-.1-.57.05-.27.17-.49.43-.62.87-.23,1.1.35,1.23,1,.41,1.99,1.26,3.89.85,6.06-.12.62.23,1.52.25,2.3-.09.38,0,.75.06,1.12.06.48.06.96.04,1.44-.03.3-.09.58-.3.81-1.15-.04-.76-1.11-1.11-1.67-.65-1.21-.08-2.5-.24-3.75,0-.16-.01-.33-.02-.49-.15-.17-.13-.38-.13-.58-.06-.53.13-1.08-.13-1.6.03-.08.02-.16-.02-.24-.27-.32.02-.77-.24-1.09v.02c-.26-.22-.06-.6-.26-.85.02-.07.01-.14-.02-.21-.23-.24-.05-.61-.24-.86Z"/>
  <path class="st87" d="M52.47,40.87c.03-.07.03-.13-.01-.19-.17-.15-.21-.34-.16-.56.03-1,.11-2-.1-3-.01-.15-.03-.31-.04-.46-.23-.48-.06-.99-.11-1.48-.09-.34.15-.64.07-1-.25-1.15.37-1.35,1.32-1.14.42.71.69,1.45.57,2.3-.06.27-.29.32-.5.37.05.22.25,0,.33.1.27.15.4.39.48.67.15.73.23,1.46-.07,2.18-.7.3.07.62-.02.93,0,.12-.01.24-.04.35-.18.78-.97.72-1.47,1.07-.14.04-.21-.02-.24-.15Z"/>
  <path class="st26" d="M44.12,24.19c-.01.07,0,.12.05.17.11.18.17.38.31.54.11.3.32.54.45.82v-.02c.18.13.14.38.27.55h0c.26.37.3.85.57,1.23.15.18.09.45.26.62h0c.16.15.12.39.25.56v-.02c.24.52.25,1.11.54,1.62h0c.22.18.13.45.15.69-.3.62-.7.64-1.18.19-.08-.09-.16-.18-.23-.28-.07-.09-.13-.2-.19-.3-.05-.11-.09-.22-.13-.33-.06-.23-.13-.45-.12-.69.36-.94-.92-1.06-.91-1.83-.08-.22-.17-.43-.31-.62-.45-.5-.62-1.14-.91-1.72-.06-.1-.1-.21-.15-.32-.08-.16-.14-.32-.2-.49-.03-.11-.05-.23-.05-.34-.47-.67-.91-1.36-1.26-2.1,0-.18.05-.35.11-.52.06-.17.14-.32.26-.45.1-.07.2-.07.3,0v-.02c.1.08.2.16.26.29h-.02c.25.21.38.52.56.79h0c.12.06.21.15.28.27l-.02-.02c.2.12.14.38.3.52h0c.09.09.19.18.25.3l-.02-.02c.2.12.15.38.3.53h0c.12.09.22.2.25.35Z"/>
  <path class="st127" d="M66.64,27.24c.04-.07.04-.14,0-.21-.29-.27-.3-.61-.2-.96.11-.46.03-.94.06-1.4,0-.14.04-.26.12-.37.61-.05.96.33,1.31.74.15.22.25.47.3.73.06.33.07.66.07.99,0,.26,0,.52,0,.78,0,.32-.02.63-.13.93-.06.24-.4.37-.25.68.1.13.18.27.24.42.1.28.11.57.09.87-.07.41-.11.82-.11,1.24-.07.38-.14.77-.47,1.03-.55.06-.93-.18-1.16-.67,0-.34-.13-.69.13-1h0c.21-1.08.2-2.17,0-3.26.03-.06.03-.12,0-.18.1-.12.09-.25,0-.37Z"/>
  <path class="st47" d="M42.01,81.34l-.1-.03h-.11c-.09-.05-.12-.11-.11-.19.01-.08.03-.12.05-.12.81-.55,1.65-.88,2.56-.21.19.1.38.2.59.27.18.06.37.11.55,0,.22-.23.46-.44.77-.55.45-.47.98-.55,1.58-.32,1.44.55,2.95.93,4.35,1.57.07.08.09.15.07.23-.02.08-.05.11-.07.11h.03c-1.42.3-2.85.19-4.27.01h0c-.84-.28-1.7-.05-2.55-.12-.15.01-.28-.03-.39-.14h0c-.4-.25-.85-.07-1.27-.13-.13,0-.24-.05-.32-.15h0c-.41-.28-.94.06-1.35-.24Z"/>
  <path class="st97" d="M36.42,33.09c.02-.06.01-.12-.03-.17-.16-.15-.12-.39-.24-.56v.02c-.18-.14-.14-.38-.26-.56h.02c-.09-.04-.15-.11-.17-.21,0-.2-.05-.38-.2-.53-.09-.12-.15-.25-.18-.39,0-.07-.02-.13-.07-.18-.08-.11-.18-.21-.2-.36.02-.07,0-.13-.05-.17-.09-.11-.11-.25-.19-.36-.07-.06-.13-.13-.18-.21-.03-.09-.07-.17-.12-.25h.02c-.08-.03-.14-.1-.16-.18,0-.13-.08-.24-.12-.36h.02c-.11-.06-.17-.17-.18-.3-.02-.13-.05-.25-.08-.38-.07-.43.09-.77.4-1.05.55-.38.9-.1,1.12.39.23.51.58.96.71,1.51.16.42-.64.77-.09,1.22.27-.12.51-.09.71.14.79.56.13,1.41.42,2.07.09.06.19.11.29.15.11.04.21.08.31.13.1.06.18.15.23.25.13.34-.04.66-.07.99.02.1.03.2.05.3,0,.1,0,.2-.04.3-.08.18-.18.35-.33.49-.09.05-.18.07-.28.06-.12-.07-.22-.17-.32-.28-.09-.11-.14-.24-.21-.36h0c-.18-.15-.15-.4-.26-.59.01-.08,0-.14-.06-.2-.09-.11-.18-.21-.21-.36Z"/>
  <path class="st118" d="M66.64,32.12c.35.18.69.36,1.04.54.1.09.18.19.23.32.07.26.07.52.02.78-.1.37-.26.71-.62.9-.25.08-.32.23-.24.49.39,1.4.04,2.69-.59,3.94-.5.33-.84-.14-1.25-.25-.11-.14-.16-.31-.16-.49,0-.12.02-.23.05-.35.09-.28.15-.56.19-.84.02-.12.05-.23.08-.34.11-.33.14-.71.46-.94.04-.06.04-.12,0-.18.18-.27,0-.64.25-.89.04-.06.05-.12,0-.19.18-.35.09-.73.11-1.09,0-.13.05-.24.15-.32.04-.06.04-.13,0-.2.21-.25-.02-.64.27-.87Z"/>
  <path class="st62" d="M53.51,33.19c-1.14.08-1.52.34-1.23.79.36.54-.2.76-.13,1.13-.12.06-.19.02-.22-.1-.02-.25-.04-.5-.06-.75-.24-.42.07-.93-.23-1.34h0c-.25-.21-.05-.58-.26-.81h.01c-.09-.06-.15-.15-.16-.26-.03-.27.07-.56-.14-.79h0c-.2-.2-.12-.46-.14-.7-.12-.53.12-.88.63-.91.57-.04.41.4.37.73.09.09-.19.24,0,.28.16.03-.04.07,0-.1.07-.29.19-.5.53-.29.07.09.12.19.16.3.08.34.12.69.28,1,.14.63.94,1.06.56,1.84Z"/>
  <path class="st211" d="M39.6,39.61c-.1.2-.2.39-.3.59-.11.04-.19,0-.22-.11.02-.07.01-.15-.03-.21-.25-.28,0-.7-.26-.98-.15-.18-.09-.45-.27-.62h0c-.15-.15-.12-.39-.25-.56h.01c-.08-.05-.13-.13-.15-.23,0-.2,0-.4-.13-.56h0c-.08-.06-.12-.14-.14-.24,0-.19,0-.39-.14-.55h0c-.13-.12-.14-.28-.12-.45.04-.11.08-.21.14-.31.14-.19.31-.35.53-.44.12-.03.24-.04.36-.03.12.03.23.09.33.16.38.36.37.91.64,1.33.26.46.31.95.3,1.46-.02.54-.05,1.09-.28,1.59-.01.06-.03.12-.05.17Z"/>
  <path class="st213" d="M51.9,30.51s-.02-.09-.05-.12c-.26-.21.2-.7-.2-.75-.37-.05-.57.31-.61.69l-.13.02-.09-.09h0c-.22-.24-.03-.6-.24-.83h0c-.08-.05-.13-.14-.15-.24,0-.2,0-.4-.13-.56h0c-.18-.15-.16-.4-.25-.6.02-.06.02-.12-.02-.18-.16-.17-.15-.37-.06-.57.93-.11,1.68.21,2.29.9.1.17.16.36.22.54.1.37.25.73.08,1.12-.04.05-.09.09-.13.14-.18.18-.36.35-.54.53h0Z"/>
  <path class="st211" d="M37.42,34.83c.19-.19.38-.38.57-.57.18.05.29.17.35.33.02.11-.01.22-.09.31-.2.19-.36.42-.5.66l-.05.06c-.12.08-.19.05-.22-.09.01-.07,0-.14-.05-.2-.13-.16-.13-.33-.02-.49Z"/>
  <path class="st4" d="M66.38,24.29c-.01-.24-.02-.49-.03-.73-.17-.38-.24-.76.06-1.12.84.54.64,1.21.25,1.91l-.07.04c-.11.07-.18.03-.21-.1Z"/>
  <path class="st8" d="M39.61,37.99c.01-.55.04-1.1-.28-1.59-.19-.3-.16-.53.23-.62,1.76.96,3.52.2,5.28-.04.64-.09,1.22-.55,1.92-.3.54.55.63,1.18.32,1.88-1.41,1.03-3.11,1.03-4.57,1.33,1.43.01,2.89-.73,4.47-.83.22.05.39.23.6.25.94.11.87.69.4,1.15-.57.56-.53,1.03-.14,1.62.35.52.42,1.05-.05,1.56-.09.09-.19.16-.31.21.14.05.15-.15.28-.14.86.38.59.95.24,1.5-.19.3-.57.65-.38.94,1.24,1.86-.79,3.05-.9,4.62-1.74.47-3.45.77-4.97-.58-.18-.76.32-1.67-.5-2.3-.19-.15-.1-.3.11-.37.17-.06.38-.16.29-.37-.51-1.13.06-2.42-.58-3.58-.29-.53-.45-1.24-.47-1.93-.02-.56-.38-.87-.99-.81h0c.03-.54.45-1.07,0-1.62Z"/>
  <path class="st138" d="M41.74,52.17c0-.26,0-.53,0-.79.3-.93.97-.73,1.4-.27.63.65,1.32.78,2.14.76.67-.01,1.23.11,1.11,1.05-.1.78.4,1.41.81,2.04.03.12.02.25-.02.37-.5,1.09-.95,2.2-.21,3.36.27.43-.01.64-.18.92-.23.3-.21.74-.57.96-1.43-.03-2.89.08-3.99-1.12-.08-.12-.13-.24-.18-.37-.11-.46-.15-.94-.41-1.36-.41-.97-.23-1.99-.27-2.99.09-.7-.11-1.4-.06-2.1.06-.23.23-.35.43-.44Z"/>
  <path class="st55" d="M47.1,55.12c-.96-.71-1.23-1.67-.97-2.79-.35-.24-.71-.14-1.06-.15-.76-.03-1.54.15-2.02-.78-.27-.52-.86-.55-1.31-.03,0-.54,0-1.08,0-1.61.21-.19.47-.27.73-.19,1.33.38,2.68.33,4.03.26.66.23.2,1.31,1.05,1.4.09.08.15.17.17.29-.11.29-.06.58.01.86-.66.62-.33,1.4-.34,2.12,0,.26.27.66-.31.63Z"/>
  <path class="st109" d="M41.74,52.17c-.09.1-.17.19-.26.29-1.33.63-1.36.62-2.07-.66-.12-.21-.23-.42-.3-.65-.08-.3-.15-.59-.19-.9,0-.13,0-.26.02-.38.19-.41.05-1.15.91-.89.18.24.32.49.31.8.15.14.09.38.24.53.05.06.07.13.06.21.1.15.14.33.25.46.07-.14.11-.3.23-.41h0c.3.19.28.51.28.8,0,.39.18.65.53.8Z"/>
  <path class="st7" d="M46.82,50.04c-1.72.45-3.4.05-5.08-.28-.07-.27-.43-.53-.01-.8,1.66.63,3.36.8,5.08.28,1.05-.32,1.14-.27,1.04.61-.26.18-.55.22-.86.21-.06,0-.12-.01-.18-.02Z"/>
  <path class="st146" d="M54.05,39.88c0-.09,0-.18.01-.27.6-.26,1.14.06,1.68.2,2.28.6,4.54.8,6.81-.01.34.04.71.64,1.02-.05.21-.02.39.03.49.24-.01.42.11.85-.1,1.25h0c-1.86.18-.74,1.47-.86,2.3,0,.14,0,.28-.05.41-.14.35-.42.55-.75.7-2.47.87-4.88.62-7.01-.35-.4-.16-.31.13-.29-.05,0-.04.05-.04.13,0,2.26,1.07,4.61,1.16,7.02.6q.3.57-.07,1.26c.26-.13.38-.47.71-.41.19.08.26.24.29.42.01.12,0,.23-.02.34-.08.27-.18.52-.25.79-.03.11-.06.21-.1.32-.08.28-.08.57-.1.86-.04.41-.2.77-.48,1.07-.65.69-1.47.95-2.39.89-2.08-.15-4.1-.51-5.73-1.98-.79-1.25-.27-2.64-.43-3.96.29-.25.04-.31-.15-.39.39-1.37.54-2.77.61-4.18Z"/>
  <path class="st162" d="M53.51,33.19c-.05-.72-.8-1.13-.81-1.87.07-.02.13-.05.2-.07,1.3.25,2.57.67,3.9.8,2.35.22,4.47-.38,6.44-1.61.66.22.33,1.34,1.23,1.34.57.88-.55,1.16-.63,1.81,0,.12,0,.24,0,.36-.32.99.13,2.15-.66,3.03-3.35,1-6.48.53-9.4-1.39-.04-.47.13-.99-.23-1.4-.3-.34-.02-.67-.04-1Z"/>
  <path class="st9" d="M54.05,39.88c.34.56.32,1.18.23,1.78-.06.42-.28.8-.07,1.26.15.34-.17.53-.43.71-.23.16-.22.35,0,.52,0,.31,0,.62.22.88.12.14.26.34.14.47-.78.87.16,1.79-.1,2.66,0,.18.04.36.05.54,0,.43,0,.85-.09,1.28-.17.67.07,1.42-.35,2.05-.3.44-.34.9-.16,1.17-.2,1.42-.49,2.81-1.24,4.05-.25.42-.19.71.12,1.02.15.81-.11,1.56-.28,2.33-.07.11-.16.19-.28.23-.15.07-.72-.42-.4.29.18.39.48.75.11,1.18-.08.07-.17.12-.27.16-.15.05-.22.16-.23.32,0,.11-.01.22-.04.32-.18.46-.3.92-.24,1.41-.04.32-.15.6-.4.82-.12.04-.24.03-.35-.05.01-.8.03-1.6.04-2.4.04-.07.04-.14.01-.21.69-1.38.72-2.92.97-4.39.43-2.57,1.01-5.12,1.23-7.72.16-1.86.24-3.71.22-5.57.35-1.32.16-2.68.22-4.02.11-.25-.19-.9.52-.56.58.28.47-.48.82-.53Z"/>
  <path class="st146" d="M54.05,38.8c.07-.8.07-1.61,0-2.41.23-.2.48-.16.74-.06,2.63,1.06,5.35,1.4,8.15,1.01.48.61.92,1.26,1.12,2.03-.01.13-.06.24-.17.33-.2.04-.4.03-.6.05-.14,0-.28-.02-.42-.06-2.49.77-4.97.75-7.46.02-.54-.16-1.15-.24-1.37-.91Z"/>
  <path class="st46" d="M63.14,37.47c-1.01.27-2.01.35-3.08.34-2.14-.02-4.06-.72-6.01-1.42-.12-.24-.28-.43-.54-.53-.09.09-.17.08-.25,0-.03-.47.24-.39.52-.27,1.18.36,2.3.87,3.51,1.15,2.05.49,4.07.54,6.1-.06.18.35.03.59-.24.8Z"/>
  <path class="st181" d="M54.05,38.8c2.44,1.14,4.98,1.36,7.62.85.46-.09.97-.61,1.47-.05,0,0-.02.1-.02.1-.04.06-.08.11-.14.15,0,0-.1.02-.1.02-2.11,1.24-4.34.88-6.55.44-.77-.16-1.55-.32-2.26-.71.08-.27-.85-.52-.01-.8Z"/>
  <path class="st162" d="M53.25,35.86c.08,0,.17,0,.25,0-.09.16-.17.16-.25,0Z"/>
  <path class="st125" d="M37.19,32.65c-.33-.3-.7-.68-.33-1.07.55-.6-.02-.91-.2-1.33.25-.29.6-.42.94-.43,2.28-.12,4.23-1.13,6.18-2.18.2-.11.41-.16.63-.06.28.43.33,1.11,1.13.99.19-.03.23.24.15.39-.13.26-.31.5-.47.75-.83,1.17-2.19,1.41-3.4,1.88-1.49.58-3.11.57-4.62,1.06Z"/>
  <path class="st125" d="M38.26,34.52c-.09-.09-.18-.18-.27-.27,0-.09,0-.18,0-.27-.23-.06-.6-.1-.33-.44.23-.28.35-.55.32-.9-.04-.6.5-.46.74-.47,2.12-.08,4.03-.82,5.87-1.8.27-.14.55-.29.87-.13,0,.09,0,.18.01.26.09.09.17.19.26.27h0c.17.44.35.83.8,1.1.52.31.25.62-.15.85-2.22,1.35-4.62,2.01-7.21,1.91-.11.02-.23.02-.34.03-.16,0-.3-.09-.44-.16-.05,0-.1,0-.15.01Z"/>
  <path class="st29" d="M41.46,21.95c.35.44.96.75.78,1.48-.02.09.11.25.27.14.14-.1.27-.27.43-.09.14.15,0,.32-.06.48-.04.12-.05.26-.08.38-1.36,1.38-3.09,1.91-4.93,2.2-.43.04-.87-.04-1.27.19-.29.16-.6.14-.91.1-.31-.03-.6-.16-.9-.23-.28-.2-.39-.48-.37-.82.14-.32.47-.37.73-.51.05-.03.11-.05.16-.08.11-.06.22-.11.33-.16,2.05-.64,3.96-1.53,5.45-3.15.13-.04.24-.02.35.05Z"/>
  <path class="st50" d="M35.59,25.43c-.09,0-.18,0-.27,0-.19.32-.51.26-.81.27-1.01-.12-1.5-.76-1.64-2.13.92-.58,2.04-.44,3.02-.86.85-.37,1.74-.64,2.54-1.12.1-.07.2-.14.29-.22.04-.04.09-.08.13-.12.08-.09.16-.17.24-.25.12-.13.25-.24.4-.33.35-.26.63-.71,1.18-.44.35.24.37.68.62.98.16.15.28.32.44.47-.09.09-.18.18-.27.27-.08,0-.17,0-.25,0-1.68,1.47-3.76,2.3-5.62,3.47Z"/>
  <path class="st79" d="M43.09,25.16c.55.51.51,1.35,1.04,1.88-1.64,1.58-3.55,2.53-5.89,2.47-.42-.6-.05-1.05.27-1.52.47-.59,1.19-.74,1.83-1.02,1.02-.45,1.89-1.14,2.75-1.82Z"/>
  <path class="st119" d="M43.09,25.16c-.03.5-.35.78-.73,1.03-.8.54-1.64,1.03-2.55,1.36-.37.13-.76.22-1.02.56-.41.29-.89.38-1.37.43-.38.04-.91.2-1.01-.31-.08-.44.4-.63.78-.78,1.1-.42,2.33-.39,3.28-1.02-.67.29-1.42.71-2.27.61-.4-.05-1.17-.06-.47-.82,1.43-.22,2.81-.55,4.01-1.43.31-.23.66-.42,1.07-.45,0,.09.01.18.02.27.07.09.15.18.24.26,0,.09.02.18.02.27Z"/>
  <path class="st59" d="M46.29,32.38c.11-.05.42-.15.22-.21-.8-.22-.76-.79-.75-1.39.31.37.65.64,1.12.23.07.02.13.04.2.05,0,.22.05.42.23.56,0,.08.02.16.06.23-.03.31-.01.6.23.82.18,1.42.35,2.84.53,4.26-.03.03-.06.07-.09.1-.1,0-.17-.02-.23-.1,0,0-.03-.12-.03-.12,0,0-.05.11-.05.11-.03.09-.08.16-.14.22-.07.06-.15.11-.24.14-.1,0-.18-.03-.25-.09-.09-.54-.19-1.07-.28-1.61-.16-.18-.35-.34-.4-.59-.11-.71-.09-1.43-.24-2.13-.03-.18,0-.35.13-.49Z"/>
  <path class="st60" d="M38.26,29.44c2.16-.3,4.04-1.3,5.87-2.4.23.11.28.31.28.53-2.35,1.58-4.88,2.6-7.75,2.67-.18-.3-.36-.02-.54,0-.64-.53-.15-.67.29-.83.62,0,1.24-.35,1.85.03Z"/>
  <path class="st22" d="M45.48,30.25c-1.5.81-3,1.61-4.69,1.98-.53.11-1.04.13-1.56.16-.42.03-.89-.15-1.23.26-.09,0-.18,0-.26,0-.09-.1-.18-.1-.27,0h-.13s-.13,0-.13,0c.04-.49.39-.48.76-.54,2.55-.39,5.02-1.07,7.26-2.4.22.12.26.31.26.54Z"/>
  <path class="st45" d="M41.73,21.68c-.22,0-.41-.05-.53-.26,0-.44.2-.45.51-.26,0,0,.02.02.02.02,0,.17,0,.34,0,.5Z"/>
  <path class="st29" d="M43.07,24.89c-.08-.09-.16-.18-.24-.26.08.09.16.18.24.26Z"/>
  <path class="st59" d="M45.75,30.78c-.09-.09-.17-.18-.26-.27.09.09.17.18.26.27Z"/>
  <path class="st124" d="M67.97,26.78c0-.36-.01-.72-.02-1.08.48-.2.84.12,1.23.3,1.55.68,3.15,1.17,4.85,1.3.52.04,1.06.14,1.49.51.33.59.28,1.13-.16,1.64-.49.35-1.02.21-1.53.09-1.64-.38-3.25-.86-4.74-1.68-.48-.26-.89-.57-1.13-1.07Z"/>
  <path class="st200" d="M67.69,32.93c0-.09,0-.18-.01-.28-.03-.39.09-.74.27-1.08.39-.31.76-.1,1.09.08,1.38.77,2.86,1.28,4.4,1.61.26.46,1.2.43.94,1.27h0c-.43.18-.41.7-.74.97-2.18-.41-4.4-.72-5.95-2.58Z"/>
  <path class="st200" d="M67.97,30.52c0-.36,0-.72-.01-1.08.06-.02.13-.04.19-.06,1.88,1.25,4.11,1.47,6.2,2.1.25.42.87.57.84,1.18l-.03-.02c-.26.26-.6.41-.95.4-2.38-.1-4.59-.63-6.24-2.52Z"/>
  <path class="st32" d="M67.95,28.65l.02-1.08c.7-.14,1.14.38,1.66.67,1.73.94,3.63,1.29,5.53,1.67.22.55-.17.79-.53,1.04-2.03.46-3.8-.38-5.59-1.12-.35-.14-.62-.54-1.07-.39h-.01c-.09-.08-.18-.17-.26-.26-.18-.31.11-.38.26-.52Z"/>
  <path class="st208" d="M75.45,27.84c-2.63-.25-5.2-.7-7.5-2.14-.08-.17-.17-.35-.25-.52.07-.22.2-.38.45-.39,2.5,1.12,5.15,1.71,7.86,2.06.29.19.69.35.44.8-.24.43-.6.47-1,.18Z"/>
  <path class="st64" d="M75.17,29.99c-2.71.12-5.03-.93-7.2-2.42,0-.26,0-.53,0-.79,2.17,1.5,4.63,2.23,7.19,2.66.28.03.58.11.53.44-.04.26-.31.24-.52.1Z"/>
  <path class="st71" d="M67.97,30.52c1.73,1.09,3.51,2.02,5.62,2.19.54.04,1.05-.15,1.57-.07-.01.09-.02.19-.03.28-.06.1-.12.21-.18.31h0c-.39.44-.85.53-1.37.24-1.64.05-3.03-.68-4.44-1.38-.39-.19-.73-.47-1.19-.52-.28-.35,0-.7.01-1.05Z"/>
  <path class="st66" d="M67.95,24.89c-.08.1-.17.19-.25.29-.35-.28-.7-.55-1.06-.83-.13-.61.18-1.28-.26-1.85,0-.09,0-.18,0-.27.35-.33.74-.34,1.17-.19.19.1.28.26.31.46,0,.35-.02.71,0,1.07-.14.45.29.87.09,1.32Z"/>
  <path class="st71" d="M67.95,28.65c-.09.17-.17.35-.26.52-.15-.02-.39-.02-.34-.22.06-.29.36-.29.6-.3Z"/>
  <path class="st183" d="M39.64,80.75c-.24-.22-.53-.22-.83-.23-.01-.06-.03-.12-.05-.19-.07-.11-.1-.23-.08-.36.04-.12.11-.23.18-.33.65-.62,1.08-1.39,1.53-2.15.64-1.06,1.4-1.1,1.95.01.37.74,1.83.74,1.33,2.01-.02.05.14-.03.17-.02,1.25.36,1.29.47.56,1.58-.89-.64-1.77-.1-2.65,0-.27-.01-.54-.02-.81-.03-.39-.29-.86-.27-1.31-.31Z"/>
  <path class="st28" d="M44.41,81.08s.01-.09.01-.13c0-.4.52-.8-.02-1.2-.56-.42-.62.54-1.09.38-.13-.29.1-.49.17-.72.13-.4-.15-.93-.34-.88-.94.26-.83-.48-1.02-.94-.14-.35-.38-.64-.76-.64-.34,0-.53.3-.66.58-.46.96-.93,1.91-1.91,2.47-.35-.38-.23-.78.05-1.08.73-.8,1.07-1.84,1.73-2.68.47-.2.9.06,1.35.1.13.04.24.11.34.19h0c.26.2.56.32.8.55h0c.27.17.58.31.81.54v-.02c.1.06.19.16.28.26h0c.35.35.83.37,1.26.52.15.08.28.18.43.27.1.05.19.11.29.18.14.1.26.22.38.35.12.14.2.29.22.47-.03.42-.32.74-.43,1.13-.56-.07-.41.63-.8.73-.16-.12-.27-.35-.53-.21-.22.01-.42,0-.55-.22Z"/>
  <path class="st174" d="M46.29,80.78c-.08-.45.22-.83.27-1.25.04-.05.08-.09.12-.14.06-.01.12-.02.18-.03.36.02.72.07,1.09.1.42.06.83.19,1.23.34.34.15.67.42,1.06.1.65.6,1.74.72,1.98,1.77,0,.08-.03.14-.1.19-1.01.09-1.84-.51-2.77-.74-.55-.14-1.07-.4-1.61-.59-.83-.28-.83-.27-1.45.26Z"/>
  <path class="st183" d="M44.96,81.31c.34-.35.45-.11.53.21-.18-.07-.35-.14-.53-.21Z"/>
  <path class="st20" d="M38.26,29.44c-.61.17-1.23.34-1.87.27-.31-.19-.09-.56-.26-.8-.31-.51-.72-.95-.83-1.57-.09-.46-.4-.5-.77-.31-.14-.29-.2-.54.26-.53.36,0,.72,0,1.07,0,.09.19.2.39.44.34.21-.04.23-.18.09-.34.37-.45.89-.2,1.34-.27-.03.19-.23.48.13.51.57.06,1.15.05,1.7-.2.44-.2.9-.34,1.39-.44-1.13,1.35-3.01,1.21-4.39,2.09.77.04,1.49-.2,2.24-.1-.23.42-.66.77-.53,1.34Z"/>
  <path class="st153" d="M34.78,26.5c-.21.11-.26.31-.26.53-.18.33-.31.68-.27,1.07-.07-.01-.14-.03-.21-.05,0-.08-.03-.15-.09-.21,0-.14-.06-.25-.18-.31-.03-.21-.1-.4-.3-.51-.07-.1-.15-.2-.22-.3,0-.08-.04-.15-.09-.21,0-.37-.17-.64-.48-.83-.02-.22-.08-.41-.29-.52-.08-.1-.16-.2-.23-.3,0-.6,0-1.2,0-1.8.07-.02.13-.03.2-.05.09.03.16.08.23.14.1.09.19.19.28.29.02.04.04.08.06.12.49.74.63,1.76,1.59,2.15.12.26.29.49.27.8Z"/>
  <path class="st79" d="M36.13,28.91c.31.19.25.51.26.8-.47,0-.41.24-.27.53-.04.2-.13.54-.35.24-.43-.6-.17-1.14.35-1.57Z"/>
  <path class="st125" d="M37.46,32.65c.09-.15.18-.15.27,0-.09,0-.18,0-.27,0Z"/>
  <path class="st211" d="M37.19,34.79c0-.09.01-.17.03-.26.07.1.14.2.21.3-.08,0-.16-.01-.24-.04Z"/>
  <path class="st113" d="M66.34,39.07c.42-.94.28-2.01.66-2.97.19-.48-.34-.77-.37-1.21-.04-.46.15-.54.53-.36,1.24.68,2.33,1.66,3.78,1.93q1.25.43.6,1.1c-.12.04-.25.06-.38.06-.92-.09-1.83-.25-2.92-.67.13,1.7,1.61,1.85,2.45,2.59.11.17.13.35.09.54-.34.73-1.01.5-1.6.44.01.8.62,1.03.99,1.44.04.12.03.24-.03.36-.77.5-1.5,1.03-1.35,2.12h.01c-.11.09-.23.12-.35.13-.13-.02-.24-.08-.34-.16-.77-1.14-2.07-1.79-2.72-3.04-.02-.91.32-1.67.96-2.31Z"/>
  <path class="st204" d="M70.89,36.67c-1.54-.2-2.8-.88-3.74-2.13.3-.2.37-.53.53-.82,1.46.16,2.58,1.22,4.01,1.51.71.14,1.47.22,2.11.63-.1.34-.19.68-.29,1.03-.07.02-.14.03-.21.05-.07,0-.14.01-.2.02-.76.11-1.47-.17-2.2-.28Z"/>
  <path class="st95" d="M66.34,39.07c-.14.85-.7,1.55-.78,2.42-.11,1.31-.54,2.5-1.36,3.54-.62.15-.47-.77-1.01-.74-.17-.08-.21-.26-.31-.39,0-.09,0-.18,0-.27.25-.56-.09-1.59,1.11-1.39h.02c-.03.11-.01.15.06.13.07-.01.1-.06.09-.15,0-.08.04-.16.1-.22.14-.14.08-.36.21-.51v-.02c.2-.14.15-.38.24-.56.02-.25.04-.49.06-.74h0c.09-.12.14-.27.22-.41.11-.17.2-.35.17-.56.01-.15-.01-.32.17-.38.45-.36.62.38,1.02.26Z"/>
  <path class="st30" d="M73.8,35.85c-2.29,0-4.24-.96-6.12-2.14,0-.26,0-.52,0-.78,1.85,1.29,3.96,1.93,6.13,2.39.16.17.17.35,0,.52h-.03Z"/>
  <path class="st106" d="M52.7,31.32c-.38-.29-.23-.7-.25-1.07.35-.31.74-.18,1.14-.14,3.11.3,6.13.14,8.82-1.73.31-.21.66-.5,1.1-.23.32.49.28,1.01.1,1.54-1.91,2.42-4.54,2.62-7.3,2.33-1.21-.13-2.4-.45-3.59-.7h-.01Z"/>
  <path class="st99" d="M63.4,28.11c-1.66,1.26-3.48,2.19-5.56,2.37-1.8.16-3.61.27-5.39-.23,0-.09,0-.17,0-.26h.02c.35-.7.94-.48,1.52-.48,2.41.03,4.8-.04,7.04-1.1.69-.33,1.29-.79,1.96-1.15.69.01,1.05.19.42.85Z"/>
  <path class="st213" d="M51.9,30.51s-.05.11-.06.11c-.09-.02-.07-.06.06-.11h0Z"/>
  <path class="st76" d="M46.29,32.92l.26.05c-.15.69.19,1.38.01,2.08-2.04,1.24-4.33,1.12-6.58,1.17-.17,0-.28-.2-.38-.35-.22.12-.26.32-.28.54-.42-.35-.18-.97-.53-1.34-.09-.13-.08-.25.04-.36.37-.24.77-.13,1.16-.13,1.84,0,3.6-.28,5.2-1.28.31-.2.64-.51,1.09-.37Z"/>
  <path class="st25" d="M39.61,37.99c.54.78.54.95,0,1.61-.44-.54.2-1.08,0-1.61Z"/>
  <path class="st97" d="M37.76,35.55c-.03-.38.17-.61.5-.76.07.06.1.12.07.18-.02.06-.05.09-.07.09-.1.24-.24.42-.5.49Z"/>
  <path class="st125" d="M38.26,35.07c0-.09,0-.18,0-.28,0-.09,0-.18,0-.26h0c.09-.07.17-.07.26,0h0c.09.07.14.15.13.26,0,.11-.05.2-.13.27-.09,0-.18,0-.26,0Z"/>
  <path class="st97" d="M38.53,35.06c0-.09,0-.18,0-.27.09-.11.18-.1.26,0,0,.09,0,.18,0,.26-.09,0-.18,0-.27,0Z"/>
  <path class="st126" d="M63.14,37.47c.08-.27.16-.54.24-.8-.18-1.01,0-1.99.29-2.95h0c-.43-.38-.27-.67.16-.87.43-.2.7-.47.63-.98-.47-1.38-.89-2.75.05-4.11.07.04.14.08.21.12,0,.16.02.33.02.49,0,1.19-.03,2.39-.01,3.58.03,2.57-.23,5.11-.54,7.66-.08.11-.17.1-.26,0-.04-.21-.05-.58-.12-.59-1.03-.18-.66-.94-.68-1.54Z"/>
  <path class="st67" d="M63.98,42.23c-.31.06-.52.21-.61.55-.08.32-.21.64-.51.84-.44-.77-.23-1.59-.24-2.45.49.02.91.04,1.33.06,0,.33.02.67.02,1Z"/>
  <path class="st67" d="M63.94,39.61c.09,0,.17,0,.26,0,.02.55.11,1.12-.24,1.62,0-.45-.01-.9-.02-1.35-.09-.06-.12-.12-.09-.18.03-.06.06-.09.09-.09h0Z"/>
  <path class="st67" d="M64.15,42.21c0,.12.03.25,0,.37-.03.16-.13.37-.31.29-.22-.1-.03-.28.03-.42.03-.08.08-.14.13-.22.05-.02.1-.03.15-.03Z"/>
  <path class="st67" d="M64.7,40.9c.04.23,0,.44-.23.56,0-.22.04-.42.23-.56Z"/>
  <path class="st67" d="M64.46,41.48c.02.21,0,.4-.21.51-.04-.22,0-.4.21-.51Z"/>
  <path class="st200" d="M49.81,27.25c-.01-.17-.03-.34-.04-.51-.08-.06-.16-.18-.12-.21.81-.6.56-1.53.75-2.33,2.88-.48,5.66-1.26,8.32-2.53,1.2-.57,2.08-1.63,3.39-1.99.7.36.67,1.03.7,1.68-.71,1.44-2.09,2.18-3.35,2.95-2.1,1.28-4.37,2.19-6.89,2.26,3.09-.13,5.84-1.2,8.32-3.03.43-.32.9-1.02,1.46-.43.5.51-.05,1.07-.34,1.55-.4.66-.91,1.25-1.58,1.6-2.58,1.38-5.27,2.35-8.27,2.11-.55-.68-1.49-.58-2.14-1.06-.07-.02-.13-.04-.2-.06Z"/>
  <path class="st123" d="M63.14,27.31c-.35.69-1.01,1.02-1.64,1.29-1.51.64-3.02,1.21-4.74,1.16-1.13-.04-2.26.43-3.41-.01-.31-.12-.6.1-.88.23.02-.39-.12-.73-.28-1.07.51-.43,1.14-.48,1.75-.51,1.84-.07,3.52-.75,5.22-1.34,1.59-.56,2.59-1.74,3.5-3.05.84-.08,1.22.13,1,1.13-.16.73.3,1.59-.51,2.17Z"/>
  <path class="st80" d="M62.86,24.09c-.95,2.36-3.1,3.15-5.22,3.92-1.76.64-3.62.73-5.47.89,0-.18-.01-.35-.02-.53.26-.33.64-.26.99-.27,2.35-.08,4.52-.87,6.63-1.82,1.09-.49,1.77-1.45,2.38-2.44.12-.2.24-.43.07-.61-.27-.29-.47,0-.66.17-1.87,1.67-4.08,2.68-6.49,3.21-1.04.23-2.14.66-3.25.17-.12-.05-.22-.13-.53-.32,1.5-.4,2.92-.29,4.23-.71,1.31-.43,2.57-.99,3.74-1.69,1.21-.73,2.35-1.6,3.33-2.63.11-.1.23-.11.36-.03.38.31.27.74.27,1.14-.05.54.08,1.12-.37,1.57Z"/>
  <path class="st157" d="M47.89,36.94c.08,0,.16,0,.24,0,.14.35-.04.78.27,1.09.05,3.46.15,6.93,0,10.39-.37.95-.31,1.98-.5,2.97-.09.13-.18.13-.27,0-1.19-.1-1.23-.15-.8-1.34h0c.22-.24.59-.01.8-.27.27-.23.25-.42-.11-.51-.23-.06-.47.24-.7-.02.06-.56.12-1.13.18-1.69.07-.65.25-1.22,1.13-1.15-.11-.22-.14-.36-.22-.43-.97-.79-1.02-1.2-.11-2.16.5-.53.42-.91-.17-1.25.25-.69.26-1.27-.33-1.88-.47-.48-.28-1.07.35-1.45.26-.16.44-.38.41-.59-.07-.43-.41-.03-.63-.12-.25-.1-.3-.29-.33-.51-.06-.6.6-.66.8-1.06Z"/>
  <path class="st2" d="M46.28,60.47c.05-.37-.11-.79.27-1.07.26-.2.46-.12.64.12.07.31-.16.56-.22,1.18.13-.56.22-.81.32-1.04.11-.08.21-.08.32,0,.13.54-.11,1.13.24,1.63-.15,1.09.02,2.15.26,3.21,0,.44,0,.88,0,1.31-.59.16-1.18.43-1.72-.11.37-.86-.1-1.64-.22-2.46-.13-.93-.52-1.87.09-2.78Z"/>
  <path class="st55" d="M47.61,59.67c-.09,0-.18,0-.27,0-.08.13-.17.12-.26,0-.12-.22-.32-.26-.54-.27,0-.21.6-.35.16-.55-.65-.3-.52-.68-.46-1.25.07-.62.55-1.27-.01-1.93-.19-.22.03-.34.84-.28.6.03.37.46.34.76-.12,1.1-.17,2.19.19,3.25,0,.09,0,.18,0,.27Z"/>
  <path class="st2" d="M47.62,59.4c-.71-.99-.63-2.08-.39-3.18.07-.32.18-.6-.14-.84,0-.09,0-.18,0-.27.08-.63.44-1.29-.19-1.84-.23-.2-.06-.27.12-.31.4-.1.57-.38.57-.77-.12-.19-.13-.37.02-.55,0-.09,0-.17,0-.26.09,0,.18,0,.27,0-.29,2.67-.32,5.34-.27,8.02Z"/>
  <path class="st13" d="M76.54,73.62c-.01.07-.03.14-.05.21-1.69.1-3.28.71-4.95.95-.48.07-.96.19-1.45.15-.24-.15-.33-.38-.34-.64.54-.7,1.16-1.2,2.12-.97.08.06.16.13.22.21.08.09.15.2.31.14-.62-3.08-.22-6.02,1.11-8.84.05-.11.11-.2.19-.29.22-.22-.13-.16-.14-.27q.05-1.06,1.34-.51c-.19-.14-.35-.64-.27-.85.06-.05.13-.06.21-.05.89-.04,1.35.55,1.78,1.19.06,1.1-.51,2.04-.78,3.06-.6,2.21-.3,4.29.67,6.31,0,.07.02.14.03.21Z"/>
  <path class="st140" d="M69.83,74.38c.21.12.26.33.26.55-.85.44-1.88.23-2.7.75-.43.03-.87.06-1.3.09-.33-.32-.65-.65-.53-1.18.18-.25.4-.46.41-.81.05-3.16,1.06-5.91,3.43-8.08.26-.4.63-.46,1.05-.33.12.06.2.15.25.28-.58,1.04-1.08,2.11-1.42,3.25-.44,1.32-.64,2.67-.33,4.05.11.5.15,1.07.7,1.36.06.02.12.04.17.05Z"/>
  <path class="st207" d="M82.06,62.68c.03.14.12.23.26.26.9,2.37.84,4.67-.46,6.89-.18.14-.1.4-.27.54h0c-.57.45-1.07.47-1.42-.26.17-.53.37-1.03.49-1.59.19-.86.26-1.83,1.13-2.42.3-.2.24-.53.15-.84-.05-.11-.11-.21-.16-.32-.33-.85-1.04-1.24-1.84-1.52-.09-.3.06-.52.26-.71.43-.33.9-.33,1.39-.16.15.04.31.08.46.12Z"/>
  <path class="st205" d="M81.6,70.37c0-.23.04-.43.27-.54-.01.17-.02.34-.04.5-.08.02-.15.03-.23.04Z"/>
  <path class="st112" d="M19.08,59.74c.14-.04.22-.14.23-.28h-.01c.05-.14.14-.25.28-.31l-.02.02c.06-.14.16-.23.29-.29l-.02.02c.06-.13.16-.22.29-.29h0c.84-.45,1.74-.77,2.64-1.08.37-.02.73-.04,1.1-.06.6-.16,1.11-.06,1.48.49.29,1.58-.68,2.71-1.48,3.86-1.15,1.67-2.67,2.98-4.43,3.99-.58.33-1.16.69-1.88.45-.31-.12-.23-.45-.36-.68-.29-1.1.02-2.16.23-3.23h0c.14-.15.09-.41.28-.54,0,0,0,.01,0,.01.21-.12.27-.31.28-.53.27-.21.46-.47.53-.8.28-.19.48-.44.59-.75Z"/>
  <path class="st190" d="M17.18,65.59c.22.1.2.31.22.49.32.48.71.34,1.16.19,1.34-.46,2.58-1.09,3.76-1.87.85-.46,1.67-1.01,2.67-1.11.22-.02.46-.07.62.12.22.27,0,.5-.16.7-.33.41-.68.82-.86,1.33-.36.71-.95,1.22-1.55,1.7-.04.04-.09.07-.14.11-.09.07-.19.13-.29.18-.2.12-.38.25-.56.39-.1.07-.2.13-.3.19-.86.18-1.01.88-1.18,1.57-.69-.06-1.39-.05-1.68-.9-.21-.59-1.01-.16-1.3-.67-.55-.73-.59-1.55-.41-2.4Z"/>
  <path class="st141" d="M17.59,67.99c.43.22.85-.05,1.28-.02.21.01.61.05.52.22-.56,1.08.62.76.89,1.16.07.1.21.14.32.21.02.06.04.12.06.18-.1.42-.42.6-.79.72-.13.02-.24-.02-.34-.11h0c-.09-.08-.18-.18-.27-.26h0c-.08-.1-.18-.19-.25-.29h0c-.1-.07-.19-.16-.28-.26h0c-.1-.08-.18-.17-.27-.26h0c-.09-.09-.19-.18-.26-.29h0c-.12-.04-.2-.15-.27-.26h.01c-.07-.11-.15-.21-.22-.31-.05-.15-.09-.29-.14-.44Z"/>
  <path class="st88" d="M74.04,59.61c-.07.1-.15.21-.22.31-.2.12-.27.31-.27.54-.18.12-.27.29-.32.49-.15.13-.3.25-.44.38-.41-.5-.09-1.08-.16-1.62.05-.25.16-.47.33-.66.74-.42.18-1.39.8-1.87.59-.36.32-.59-.12-.8-1.62-.79-2.98-1.94-4.27-3.17-.08-.08-.14-.17-.18-.27-.05-.02.17-.19-.06-.1-.08.03-.15.08-.24.09-.48-.03-.94-.08-.69-.76h0c.19-.13.11-.39.27-.54h0c.56-.45,1.35-.38,1.91-.83.82,1.55,1.63,3.1,3.18,4.07.26.16.46.43.8.18.12-.03.23-.01.33.05.2.43.49.75.99.83.08.32-.22.51-.25.8-.26.19-.3.47-.32.76-.56.61-.86,1.35-1.08,2.13Z"/>
  <path class="st89" d="M74.62,55.14c-.08,0-.16,0-.24,0-.1-.07-.18-.16-.24-.27-.38-.7-.39-1.47-.39-2.24-.03-.11-.05-.22-.07-.32-.73-.03-1.17-.48-1.57-1.01-.29-.38-.64-.71-1.12-.84-.12-.05-.22-.12-.31-.21-.26-.34-.35-.68-.07-1.06.32-.24.69-.16,1.05-.15.63.43,1.26.86,1.9,1.29h0c.12.06.22.16.27.29h-.02c.01.37.31.53.5.76.98,1.15,1.57,2.45,1.41,4.01-.46.36-.79.14-1.08-.25Z"/>
  <path class="st1" d="M74.62,55.14c.35.14.69.29,1.08.25,0,.18,0,.36,0,.54-.98.37-.98.36-1.07-.79Z"/>
  <path class="st65" d="M32.98,21.75c.14-.04.23-.12.26-.26.45-.14.76-.47,1.07-.79.21-.03.4-.09.53-.28.21-.03.4-.08.54-.26.21-.03.4-.1.51-.3.54-.13.94-.64,1.54-.62.37-.1.73-.16,1.08.05h.02c.07.13.06.25-.03.36-.97.28-1.93.59-2.78,1.16-.05.31-1.02.09-.44.83.15.19-.29.48-.59.61-.56.24-1.13.19-1.7.07-.05-.04-.09-.08-.14-.12.04-.15.08-.29.11-.44Z"/>
  <path class="st121" d="M38.51,19.55c0-.09,0-.17.02-.26.66-.12,1.29-.08,1.88.26.11.26.43.46.25.81-.56-.26-.6.56-1.06.51-.15-.09-.33-.14-.43-.31-.17-.37-.46-.67-.66-1.02Z"/>
  <path class="st77" d="M40.66,20.37c-.09-.27-.28-.51-.25-.81.51.04.4.65.76.83.09.09.19.17.28.26.09.09.17.18.26.27.01.08.01.16,0,.25-.21.02-.41.05-.51.26-.26-.04-.53-.08-.43-.45.06-.23-.02-.41-.1-.6Z"/>
  <path class="st121" d="M38.51,19.28c-.36-.02-.72-.03-1.08-.05.37-.22.73-.27,1.08.05Z"/>
  <path class="st171" d="M39.83,48.97c-.29.04-.49.18-.5.5,0,.23-.07.43-.27.57-.89-.37-.82-1.25-1.04-1.97-.13-.26-.34-.45-.52-.67-.37-.46-.56-1-.73-1.55-.04-.16-.05-.33.02-.48.09-.1.16-.23.29-.3-.1,0-.15.05-.17.16-.09.08-.18.1-.29.06-.1-.06-.18-.14-.25-.23-.31-.57-1.11-.95-.72-1.8.53.18,1.08.29,1.55.62.08.01.15.02.23.03.15.51.32,1.01.77,1.36.03.21.1.4.31.51,0,0,0,0,0,0,.2.12.13.39.28.53h0c.18.14.14.38.26.55v-.02c.18.13.14.39.27.55h-.01c.22.1.14.38.3.52h0c.18.13.13.38.26.55h-.02c0,.17,0,.34,0,.51Z"/>
  <path class="st25" d="M40.93,50.56c0,.29.1.6-.12.89-.52-.17-.38-.58-.36-.94.16.02.32.04.48.05Z"/>
  <path class="st25" d="M40.38,50.3c-.21-.12-.26-.31-.24-.53.19.13.26.31.24.53Z"/>
  <path class="st94" d="M21.22,33.27c.25-.15.5-.3.75-.45.08-.01.14-.05.19-.12l.1-.06c1.04.22,1.03,1.11,1.08,1.86.13,1.84-.34,3.57-1.08,5.24-.28,1.1-1.39,1.48-2.08,2.16-.93.91-.86-.5-1.2-.94-.06-.03-.12-.06-.19-.07-.02-1.71.36-3.37.77-5.01.28-.3.47-.65.57-1.04.48-.44.71-1.06,1.09-1.57Z"/>
  <path class="st74" d="M74.33,20.4c.1.08.2.16.29.24.04.14.14.22.28.25h0c.08.1.18.18.26.27h0c.1.08.18.17.27.26h0c.09.09.18.18.27.27h0c.09.09.19.18.26.28h0c.11.07.2.17.27.28h-.02c.08.34.24.62.56.78h0c.1.08.21.15.25.28h-.03c.25.1.15.39.29.54,0,0-.02,0-.02,0-.02.06-.03.12-.02.19-.35.31-.12.74-.23,1.11-.19.21-.44.27-.71.24-.12-.03-.24-.08-.34-.16-.19-.37.15-.59.26-.88.06-.17-.04-.27-.06-.1,0,.01-.07.02-.12.03-.22.04-.41,0-.59-.12.04-.77-.56-1.08-1.05-1.48-1.26-1.65-3.21-2.08-5-2.78-.39-.15-.78.06-1.13.27-.34.14-.64.12-.94-.14-.32-.28-.14.07-.17.16.09.14.2.26.29.4.1.25.13.48-.17.63-.69-.1-1.21-.34-.98-1.19.02-.16.05-.31.07-.47.4-.46.9-.62,1.51-.64,1.28-.04,2.53.12,3.77.38.31.28.7.19,1.06.28.14.18.33.25.55.24h0c.15.14.4.07.55.24,0,0,.01,0,.01,0,.11.17.28.27.48.32Z"/>
  <path class="st177" d="M50,65.28c.1,0,.2,0,.3,0,.77.27.96.79.67,1.52-.06.09-.14.15-.24.18-.09-.03-.16,0-.18.1-.01.05.03.09.09.09.3.21.43.49.44.84-.02.49-.2.96-.19,1.45,0,.12,0,.24-.01.36-.32.81.4,1.77-.33,2.53-.32.31-.64.62-.67,1.1,0,.17.02.34.02.51,0,.12-.04.24-.09.35-.23.44-.59.64-1.08.52-.5-.12-.77-.59-.69-.98.16-.77-.44-1.18-.62-1.78-.02-.12-.01-.25.02-.37,1.03.08.71-1.39,1.64-1.42.14.03.18.17.27.26-.34-.97.15-1.9.17-2.85v.02c.31-.36.24-.8.25-1.22,0-.42-.09-.86.23-1.22Z"/>
  <path class="st53" d="M57.29,17.72c.08.02.16,0,.23-.04,1.26.05,2.51-.15,3.78.03.51.07.91.23,1.29.52,0,.09-.01.17-.03.26-.12.13-.27.24-.43.31-.48.14-.97.69-1.44-.03-.12.11-.14.31-.34.36-1.24-.06-2.41.21-3.59.58-.58.18-1.21.62-1.82,0-.15-.35-.08-.67.15-.97h0c.85.28,1.44-.07,1.89-.77.1-.08.2-.16.3-.23Z"/>
  <path class="st100" d="M36.41,64.2c-.02-.14-.04-.28-.06-.42-.04-.14-.12-.25-.21-.37h0c-.19-.13-.1-.4-.28-.53h0c-.06-.6.43-.53.77-.65.3,0,.52.18.62.43.57,1.47,1.51,2.77,1.94,4.3.11.38.13.71.46,1.02.59.54.08.71-.4.81-.06,0-.12,0-.19-.01-.25-.29-.49-.57-.74-.86-.46-1.33-.99-2.62-1.91-3.71Z"/>
  <path class="st183" d="M40.67,76.27c-.28.96-.68,1.87-1.4,2.58-.33.33-.52.68-.47,1.15h0c-1.24.12-2.14-.63-3.06-1.25-.68-.46-1.27-.79-2.19-.57-.97.23-1.84-.43-2.72-.8-.85-.36-1.62-.88-2.5-1.17-.57-.41-1.22-.67-1.86-.94-.22-.16-.38-.34-.28-.64,2.74-.94,5-2.56,6.84-4.77.1-.08.22-.12.35-.12.06.02.12.03.18.05.89.5,1.48,1.48,2.58,1.65h0c.16,1.27,1.27,1.6,2.17,2.13.14.03.28.05.43.08v-.03c.15.06.25.15.3.29l-.02-.02c.14.05.23.16.3.29h-.02c.11.17.21.32.32.48.18.69.94.66,1.34,1.08h0c.13.3-.07.43-.27.55Z"/>
  <path class="st16" d="M33.45,69.84c-.09,0-.17,0-.26,0-.16-.11-.22-.28-.25-.46,0-.12,0-.24.02-.36.08-.29.2-.57.47-.73.07,0,.14.01.21.03.06.19.13.37.32.48h0c.1.08.21.16.27.28l-.02-.02c.12.07.21.17.28.29,0,0-.03.01-.03.01.33.74.85,1.28,1.58,1.63.03.15.06.3.09.45-.56-.4-.62.12-.85.59-.34-1.05-1.39-1.34-1.85-2.18h0Z"/>
  <path class="st16" d="M38.31,73.55c-.45.03-.85-.18-1.25-.33-.95-.35-1.1-.67-.92-1.8.74.69,1.55,1.31,2.17,2.13Z"/>
  <path class="st100" d="M39.11,69.26c-.02-.16-.04-.33-.06-.49l.08-.04c1.72.68,2.43,2.29,3.33,3.7.33.52.03.91-.47,1.16-.45-.28-.5-.91-1-1.14-.58-1.09-1.14-2.2-1.88-3.2Z"/>
  <path class="st110" d="M60.17,61.53c0-.08.02-.16.03-.25.14-.03.23-.12.27-.26.14-.04.23-.13.26-.27.14-.03.24-.11.28-.26.14-.05.21-.15.25-.29.09-.09.18-.18.27-.27.1-.08.19-.16.29-.25.15-.04.22-.14.26-.28.14-.04.24-.11.28-.26.14-.04.23-.12.27-.26.14-.04.23-.13.26-.27.81-.81,1.62-1.61,2.43-2.42.17-.15.38-.25.56-.4.11-.03.22-.02.33.02.17-.1.05.53.36.14.22-.28.52-.28.82-.11.13.16.09.32.03.49-.26.86.72,1.28.74,2.04-.57,1.21-1.61.53-2.58.79-.07.17.22.49.17.83-.1.61-.39.75-.92.43-.36-.22-.61-.91-1.18-.29-.05.17-.11.33-.23.47-.65.67-1.69.89-2.07,1.9-.12.32-.58.65-1,.44-.7-.35-.11-.94-.18-1.42Z"/>
  <path class="st135" d="M65.82,55.96c-.12.18-.3.23-.5.24-.01-.08-.01-.16,0-.24.08,0,.16-.02.23-.03.11-.11.2-.1.27.03Z"/>
  <path class="st161" d="M42,73.6c.49-.61.27-1.22-.12-1.72-.86-1.09-1.64-2.26-2.74-3.14.08-.27.38-.18.54-.34.02-.33-.21-.28-.43-.3-.29-.03-.6-.27-.51-.5.44-1.1-.3-1.78-.82-2.54-.2-.3-.25-.64-.34-.98-.17-.63-.41-1.26-.93-1.72-1.03-.07-.97-1.38-1.84-1.63-.19-.34-.38-.69-.57-1.03,0-.76-.26-1.48-.37-2.23.02-.13.08-.25.17-.34,1.59-.86,3.42-1.24,4.87-2.41.35-.28.73-.22,1.02.21.56.82.29,2.42-.53,3.01-.69.5-2.05,1.07-3.04,1.28.38-.08.77-.1,1.14-.27.36-.17.71-.36,1.07-.53.5-.23,1-.75,1.59-.34.63.43.58,1.15.58,1.82,0,.59-.25,1.02-.77,1.3-.54.3-1.18.3-1.73.54.55-.21,1.17-.21,1.7-.51,1.28-.36,1.39.96,2.08,1.45.83,2.35,1.13,4.85,2.06,7.17.58,1.45,1.25,2.85,1.92,4.25.57,1.56,1.51,2.9,2.52,4.2.04.13.04.25,0,.38-.25.28-.44.66-.92.48-.38-.83-.95-1.41-1.81-1.81-.89-.4-1.36-1.35-2.05-2.02-.49-.48-1.01-.96-1.5-1.46-.07-.09-.15-.18-.22-.27Z"/>
  <path class="st111" d="M33.98,57.51c.48.68.75,1.39.25,2.19-.08,0-.16-.02-.23-.04-.04-.36-.23-.62-.51-.82-.03-.21-.09-.41-.29-.52-.08-.1-.15-.2-.23-.3-.1-.62-.29-1.19-.83-1.58-.07-.34-.21-.63-.51-.82-.04-.21-.12-.39-.32-.49-.08-.1-.15-.2-.23-.3-.19-.49-.35-1-.78-1.35-.04-.15-.08-.3-.12-.45.67-.62,1.09-1.08,1.57.33.22.64.94,1.38,1.44,2.07.32.44.48.93.42,1.48.01.1.03.21.05.31.06.15.18.24.31.31Z"/>
  <path class="st19" d="M34.8,60.73c.26-.07.59-.41.75.06.21.64.75,1.03,1.09,1.57-.15.34-.64.19-.79.53-.07-.01-.15-.03-.22-.05,0-.81-.65-1.37-.83-2.11Z"/>
  <path class="st178" d="M28.36,75.99c.9-.06,1.44.73,2.22.98.75.24,1.46.62,2.19.95.21.09.43.22.62.07.93-.75,1.75-.13,2.36.37.93.75,1.95,1.24,3.04,1.65-.01.11-.02.22-.03.33-.34-.04-.67-.07-1.01-.11-1.13-.44-2.25-.9-3.46-1.09-.38-.36-.85-.47-1.35-.51-.39-.3-.81-.54-1.33-.55-.21-.23-.5-.26-.78-.29-.28-.35-.67-.47-1.1-.5-.13-.18-.32-.25-.52-.27,0-.07-.03-.13-.05-.19-.16-.37-.86-.24-.79-.83Z"/>
  <path class="st73" d="M76.25,25.16c.26,0,.52,0,.78,0,.12.91-.29,1.75-.3,2.64-.38.67-.5,1.4-.52,2.15-.27.21-.26.51-.25.81-.26.22-.24.52-.24.82-.05.07-.07.14-.07.23-.22.22-.24.51-.26.8-.07.02-.13.04-.2.06-.3-.34-1-.38-.82-1.08.04-.03.08-.07.12-.1.11-.16.47.26.44-.2-.07-.19-.21-.33-.29-.51.18-.26.35-.52.53-.78.92-.19-.18-.36,0-.54.34-.49.28-1.05.29-1.6.08,0,.17,0,.25-.01.26,0,.56-.04.62-.31.03-.13-.23-.31-.35-.47-.21-.41.44-.88-.14-1.3-.14-.1.18-.44.42-.57Z"/>
  <path class="st167" d="M50.3,24.36c.24.61.49,1.21.8,1.99-.6-.23-1.25-.57-1.32.4-.08,0-.15-.02-.22-.03-.09-.47-.03-1.02-.57-1.3-.03-.12-.03-.28-.11-.36-.64-.62-.44-1.2.08-1.76h.01c.1-.1.21-.1.32-.03-.12.79.46.94,1.01,1.1Z"/>
  <path class="st68" d="M42.22,73.87c.65.24,1.39.37,1.53,1.24,1.18.5,1.49,2.04,2.91,2.35.71.16,1.07.9.98,1.71-.04.04-.08.09-.13.13-.12.04-.24.05-.36.03-.36-.13-.64-.36-.83-.69h-.02c-.13-.04-.2-.16-.28-.26-.19-.28-.43-.48-.76-.58-.21-.5-.55-.88-1.07-1.07-.55-.7-.89-1.56-1.66-2.08h0c-.11-.07-.2-.16-.27-.27,0,0,.02,0,.02,0-.03-.16-.05-.33-.08-.49Z"/>
  <path class="st3" d="M80.29,62.9c-.09.18-.18.35-.27.53-.02.16-.1.31-.17.45-.09.21-.14.43-.19.66-.03.13-.07.25-.11.37-.87,2.1-.49,4.26-.24,6.4.05.42.19.85-.09,1.25-.65.32-1.3.64-1.94.96-.24.03-.48.07-.72.11l-.06-.09c-1.18-3.35-1.15-6.6.74-9.72.17-.2.39-.35.61-.5.1-.08.2-.15.31-.22.7-.16,1.35-.98,2.14-.19Z"/>
  <path class="st18" d="M79.21,72.55c-.09-.37-.18-.75-.28-1.12.24-.34.36-.81.87-.87.52.21.54.73.72,1.15-.09.18-.18.36-.26.53h0c-.09.1-.17.19-.28.26h0c-.26.02-.51.04-.77.06Z"/>
  <path class="st130" d="M70.63,65.55c-.36.05-.78-.12-1.06.27-.12.18-.29.44-.5.24-.38-.37-.01-.7.26-1.1-.48.47-.76,1-1.41,1-.66-.37-.26-.69.04-1.01.22-.19.45-.38.64-.61.33-.5.87-.75,1.29-1.13.09-.08.19-.14.3-.18.34-.06.55.11.69.39.11.27.23.52.58.29.08,0,.17-.01.25-.04.17-.13.4-.09.57-.21.21-.01.4-.08.53-.25.38,0,.74-.04,1.06-.28.26,0,.52-.02.78-.02-.05.19-.24.42.1.52.33.09.62.2.93.55-.66.21-1.01-.24-1.44-.33-.56-.12-.82.01-.4.58.06.06.07.12.06.18-.02.06-.04.09-.06.09h0c-.14.13-.3.24-.49.29-.92.21-1.73.79-2.72.77Z"/>
  <path class="st197" d="M72.44,61.79c.01.08.02.17.01.25-.35.2-.58.51-.74.87-.06.02-.12.05-.18.07-.06,0-.13-.02-.19-.03-.94-.54-.46-1.02.06-1.5.41-.09.75.05,1.04.33Z"/>
  <path class="st192" d="M71.45,63.7c-.24.31-.51.34-.8.06.03-.11.11-.19.22-.22.12,0,.21.05.28.14.1,0,.19.01.29.02Z"/>
  <path class="st130" d="M71.51,63.16c-.11.09-.22.18-.34.26-.04-.05-.07-.09-.11-.14-.02-.25-.03-.49.35-.41l.11.06c.01.07.01.15-.01.22Z"/>
  <path class="st192" d="M72.27,63.44c-.15.18-.34.26-.57.21.14-.21.34-.26.57-.21Z"/>
  <path class="st130" d="M71.16,63.68c-.09-.02-.17-.03-.26-.04-.08-.22.04-.27.22-.26l.05.04c-.02.09-.02.17-.02.26Z"/>
  <path class="st192" d="M71.51,63.16c-.02-.07-.02-.15,0-.22.06-.02.13-.03.2-.02-.07.08-.14.16-.21.24Z"/>
  <path class="st44" d="M65.55,74.65c.32.31.63.62.54,1.13-.46.23-.92.47-1.38.7-.23,0-.41.08-.54.27-.79.07-1.52.28-2.12.83-.17,0-.35.02-.52.03-.77-1.12-.66-1.39.69-1.87.28-.02.57.12.84-.07.26-.25.55-.46.92-.5.27-.04.49-.17.67-.37.21-.19.44-.34.75-.25.04.04.09.07.13.11Z"/>
  <path class="st69" d="M68.22,44.41c.09,0,.17,0,.26,0,.13.29,0,.57-.2.68-.84.47-1.15,1.34-1.64,2.06-.02.14-.05.28-.07.43-.42.24-.64.63-.82,1.05-.08.09-.17.19-.25.28-.19.12-.26.31-.3.51-.07.1-.14.21-.22.31h.01c-.06.12-.16.2-.25.29h0c-.51.2-.67.76-1.08,1.07-.1.1-.21.1-.33.03-.42-.66-.28-1.03.33-1.63.68-.67,1.04-1.74,1.38-2.66.31-.83.8-1.29,1.45-1.72.39-.31.65-.78,1.19-.89.2-.01.38.05.53.19Z"/>
  <path class="st155" d="M63.38,51.1c.09,0,.19,0,.28.01-.1.25-.21.51-.31.76-.25.22-.5.44-.52.81,0,0,.01,0,.01,0-.18.27-.29.59-.55.81h0c-.25.2-.25.49-.29.77-.07.02-.14.03-.22.05-.3-.25-.58-.53-.86-.79-.09-.32.03-.59.17-.86.78-.37.61-1.58,1.58-1.8.27-.03.5.04.7.22Z"/>
  <path class="st90" d="M25.17,58.05c-.33-.44-.85-.44-1.32-.57.48-.37,1.04-.13,1.55-.2.3.29.7.23,1.06.27.11.19.3.27.51.3.09.09.17.18.26.26.26.54.27,1.2.83,1.58,0,0,0-.02,0-.02.18.13.16.31.14.5-.35.64-.71,1.04-1.31.19-.25-.35-.85-.24-1.07-.68-.27-.52-.23-1.17-.65-1.64Z"/>
  <path class="st133" d="M61,53.52c.6-.06.85.22.8.8-.02.16-.04.32-.07.48-.13.12-.25.24-.38.37-.39.38-.91.39-1.39.49-2.41-.02-4.53-.85-6.44-2.28-.37-.96-.05-1.2.82-.75,1.19.6,2.37,1.2,3.69,1.48,1.08.23,2.12.36,2.96-.59Z"/>
  <path class="st92" d="M60.19,55.39c.32-.43.81.03,1.16-.22-.13.63-.67,1.11-.66,1.8-.2.13-.26.32-.26.54-.25.21-.28.5-.28.79-.16.15-.22.35-.23.56-.27.19-.28.49-.3.78-.25.21-.26.5-.26.8-.07.02-.13.03-.2.04q-.61,0-.77-1.09c-.5-1.11.41-1.83.75-2.72.54-.27.51-1.01,1.05-1.28Z"/>
  <path class="st130" d="M80.29,62.9c-.59-.09-1.43.11-2.17.52-.18-.17-.32-.39-.53-.52.2.14.35.35.53.52-.11.21-.31.26-.53.27-.19.1-.4.13-.6.21-.1.03-.21.06-.31.07-.05,0-.11,0-.16,0-.67-.2-1.06-.82-1.67-1.11.02-.07.05-.14.07-.21.54-.03,1.11.05,1.6-.26.64-.06,1.31.05,1.92-.26.06.04.13.04.19,0,.79.22,1.59-.12,2.38.01.2.14.39.29.59.43-.44.11-.88.22-1.32.34Z"/>
  <path class="st17" d="M70.62,40.15c0-.18,0-.36,0-.54-.09-.11-.09-.22,0-.34.39-.24.74-.17,1.04.17.02.06.04.12.06.18-.02.16-.04.32-.05.49,0,0,.02,0,.02,0-.15.15-.07.42-.27.54h0c-.2.11-.27.3-.29.52-.18.13-.24.32-.26.54-.29.19-.45.47-.53.8-.07.01-.15.03-.22.05-.08-.05-.12-.11-.1-.18.02-.07.04-.11.06-.11.01-.08.02-.17.02-.25-.71-.88.21-1.29.54-1.87Z"/>
  <path class="st17" d="M73.02,37.46c-.1.26-.2.51-.3.77-.5.35-.53,1.03-1.01,1.39l-.07-.08c-.06-.46-.96-.16-.78-.86.2-.78.7-1.2,1.47-1.32.12-.04.24-.06.36-.06.12.02.23.08.31.17Z"/>
  <path class="st170" d="M62.86,24.09c0-.62,0-1.25,0-1.87.26-.12.45-.46.81-.27.08.1.15.19.23.29.05.54-.05,1.1.29,1.59.02.46-.07.94.24,1.35.03.86.05,1.72.08,2.57-.36,1.36.12,2.74-.05,4.11-.99.27-1,.27-1.06-.57-.02-.26,0-.52,0-.78-.24-.26-.18-.53-.01-.8,0-.54,0-1.07,0-1.61.21-.37.18-.65-.26-.8.1-.42.11-1.51.05-1.88-.03-.17-.05-.36,0-.52.14-.53.15-.53-.32-.82Z"/>
  <path class="st135" d="M70.35,50.84c-.19.14-.25.34-.26.57-.04.44-.28.5-.62.31-.32-.17-.64-.28-.99-.08.03-.16.06-.31.09-.47.18-.14.24-.34.25-.55.44-.46.38-1.35,1.26-1.42.4.37-.06.95.34,1.31.04.12.02.23-.06.33Z"/>
  <path class="st88" d="M70.35,50.57c-.48-.07-.89-.19-.44-.78.14-.18.17-.38.16-.6.02-.06.04-.12.05-.18.15.06.31.12.46.18.01.39.1.76.27,1.1-.11.2-.28.28-.5.28Z"/>
  <path class="st4" d="M66.32,20.04c.03.7.62.85,1.09,1.12.23.12.35.33.43.57.03.19,0,.36-.16.49-.43,0-.86,0-1.29,0-.07-.2-.08-.42-.27-.56,0-.09,0-.17-.05-.25.11-.45-.2-.99.26-1.37Z"/>
  <path class="st151" d="M58.85,79.19c-.09,0-.17,0-.26.01-.66.09-.94-.34-1.16-.84.44-.97,1.21-1.09,2.14-.87.18.43.06.82-.17,1.19-.02.07-.04.14-.05.21-.21.02-.4.1-.5.3Z"/>
  <path class="st102" d="M59.4,78.68c0-.45,0-.9,0-1.35.8-.92,1.1-.82,1.6.54-.01.07-.03.14-.05.21-.59,0-1.04.39-1.55.6Z"/>
  <path class="st191" d="M33.66,39.12c.1.08.19.16.29.25.1.08.19.17.29.25.08.1.16.19.24.29.11.23.22.47.33.7.2.42.13.79-.18,1.12-.59.27-.91-.18-1.2-.53-.48-.57-1.02-1.08-1.52-1.62-.43-.6-.81-1.19.02-1.77.06-.02.12-.05.17-.07.08.01.16.02.23.03.05.32.23.49.55.52.09.09.18.18.27.26.08.1.17.19.25.29.08.1.17.19.25.29Z"/>
  <path class="st166" d="M34.5,41.76c.1-.38.21-.77.31-1.15.24.21.49.42.73.64.03.15.07.29.1.44-.02.06-.04.13-.06.19-.24.34-.56.56-.98.42-.24-.08-.24-.32-.1-.53Z"/>
  <path class="st165" d="M28.39,60.72c.08,0,.15.02.22.04.13.6.41,1.13.81,1.6.03.36.21.63.48.85.05.36.21.63.54.8.09.32.27.59.52.81.04.21.13.39.33.48.06.34.21.63.52.82,0,0,0,0,0,0,.12.06.22.15.25.29,0,0-.02.02-.02.02.08.34.26.6.58.76h0c.11.06.21.14.27.26h-.01c.11.07.2.17.28.28h-.01c.07.1.15.2.22.3.02.09.03.17.06.25.02.29-.16.51-.26.76-.83.32-1.35-.03-1.65-.8-.11-.29-.17-.6-.43-.81-.1-.08-.18-.16-.27-.25-.78-.91-1.24-1.99-1.67-3.09-.13-.85-.67-1.54-.96-2.32-.1-.32-.11-.63.06-.93.05-.04.1-.08.15-.12Z"/>
  <path class="st12" d="M40.94,75.71c-.58-.19-1.42-.06-1.34-1.08.37.15.57.6,1.03.59,0,0,.02-.03.02-.03.12.05.2.16.29.25h0c.01.09.02.17,0,.26Z"/>
  <path class="st204" d="M73.3,36.93c0,.15-.08.25-.21.32-.04-.05-.07-.1-.11-.15.04-.13.13-.19.27-.18h.04Z"/>
  <path class="st204" d="M73.02,37.46c-.08,0-.16,0-.25,0-.06-.23.03-.31.25-.27,0,0,.07.06.07.06,0,.08-.03.15-.08.21Z"/>
  <path class="st115" d="M21.94,39.87c.34-1.22.85-2.39,1-3.66.14-1.25.36-2.54-.67-3.58-.01-.07-.01-.13,0-.2.15-.03.29-.06.44-.09.11-.05.22-.11.31-.19.09,0,.18,0,.27,0,.57.4.91.98,1.27,1.56.06.27.07.56-.15.75-.61.55-.29.9.23,1.24,1.63,1.08,1.61,1.41-.11,2.48-.08.05-.12.13-.12.32,1.02.01,1.84-1.14,2.93-.55.28.49-.07.81-.29,1.18-1.01,1.67-2.45,2.96-3.8,4.33-.98-.21-1.93-.53-2.93-.63-.28-.07-.61.01-.81-.27,1.06-.67,1.89-1.55,2.43-2.69Z"/>
  <path class="st202" d="M20.31,42.83c1.09-.4,2.06-.14,2.96.54.19.03.31.14.37.32,0,.12-.04.22-.11.32-.21.3-.6.15-.86.32-.07.07-.15.12-.25.14-.15-.03-.29-.06-.44-.09-.09-.08-.19-.17-.28-.25,0,0,0,0,0,0-.11-.07-.2-.16-.28-.26,0,0,0,0,0,0-.26-.4-.57-.73-1.06-.81-.01-.08-.03-.16-.04-.24Z"/>
  <path class="st189" d="M21.94,39.87c-.13,1.07-.88,1.75-1.57,2.47-.24.25-.56.19-.86.22-.15-.11-.3-.21-.45-.32-.02-.43-.05-.86-.07-1.28.17.09.25.23.3.41.08.33.25.62.63.53.35-.08.47-.38.38-.74-.1-.42-.02-.52.35-.21.25.21.39-.05.53-.19.27-.28.35-.73.77-.89Z"/>
  <path class="st182" d="M24.36,33.72c-.63-.34-.81-.98-1.07-1.57.17,0,.35,0,.52,0,.14.17.32.26.54.25.2.26.49.27.78.3.14.19.34.24.56.24.13.19.31.28.53.27.13.18.31.26.52.28.12.19.3.27.51.3.13.18.32.24.53.27.11.07.21.14.32.2.11.19.28.29.49.32.12.18.32.23.52.28.02.08.04.16.05.23.1.13.09.24-.03.35-.98.55-1.87.41-2.67-.35-.62-.59-1.56-.67-2.1-1.37Z"/>
  <path class="st182" d="M23.01,32.15c-.06.13-.16.2-.31.19.06-.13.16-.21.31-.19Z"/>
  <path class="st166" d="M37.21,43.88c-.6.02-1.09-.33-1.62-.53-.08-.07-.14-.16-.17-.26-.01-.1-.02-.2,0-.3-.78-.43-.02-.66.13-.98.04-.04.07-.08.11-.13.23.21.47.43.7.64.09.09.18.18.27.26.04.2.1.4.3.5.08.1.15.2.23.3.02.16.04.33.06.49Z"/>
  <path class="st191" d="M29.16,35.34c0-.08,0-.17,0-.25.08,0,.16.01.24.02.1.07.2.15.3.22.24.4.55.72,1.02.86.09.09.17.18.26.27.09.09.18.17.28.26.09.09.18.18.27.27.09.09.19.17.28.26.09.08.19.16.28.25.01.08.02.16.03.24l-.06.08c-1.46.62-2.51,0-2.77-1.64-.05-.11-.09-.22-.13-.33-.06-.17-.1-.34,0-.51Z"/>
  <path class="st184" d="M67.15,56.19c.09-.09.18-.18.27-.27.04-.51.17-.95.72-1.14.12.05.21.12.27.23.72,1.64,2.11,2.65,3.47,3.69.34.26.98.29.89.96.47.55.03,1.11.02,1.66-.03.14-.1.23-.24.27-1.91-.86-3.34-2.31-4.57-3.93-.32-.42-1.15-.66-.83-1.48Z"/>
  <path class="st86" d="M67.15,56.19c1.12,1.5,2.3,2.93,3.82,4.04.57.41,1.13.82,1.58,1.36,0,.08-.04.15-.11.19-.36.05-.68-.07-1-.23-1.87-.32-2.67-1.78-3.49-3.23-.3-.44-.6-.88-.89-1.32-.19-.29-.24-.57.09-.81Z"/>
  <path class="st41" d="M20.38,71.14c-.01-.08-.02-.16-.03-.24.24-.37.6-.48,1.02-.42,1.06.17,1.12,1.39,1.92,1.83.93.65,1.85,1.33,2.73,2.05.09.09.15.19.19.3.1.17.21.33.31.5-.06.1-.15.15-.27.15-.12,0-.21-.04-.29-.14h0c-.1-.21-.29-.27-.5-.31-.1-.07-.2-.15-.31-.22-.11-.21-.3-.27-.52-.29-.2-.28-.46-.49-.82-.51-.11-.19-.29-.26-.49-.31-.1-.08-.2-.15-.3-.23-.16-.32-.45-.48-.78-.57-.1-.08-.2-.16-.29-.23-.25-.39-.61-.65-1.02-.85-.1-.27-.28-.44-.57-.5Z"/>
  <path class="st105" d="M46.57,65.81c.52-.06,1.04-.27,1.56.01.02.09.03.17.05.26-.26.35-.66.42-1.04.53-1.16.1-2.33.16-3.21,1.09-1.07-1.63-1.47-3.42-1.18-5.35.95.4,1.88.83,2.96.77.29-.02.65.13.67.51.02.47-.39.53-.73.61-.3.07-.62.05-.92.08-.36.04-.75.08-.73.57.02.49.33.69.8.67.61-.02,1.24-.24,1.78.24Z"/>
  <path class="st2" d="M47.09,66.36c.34-.18.69-.31,1.09-.27.08,0,.15,0,.22.03.01.54-.12,1.11.28,1.59-.1.82.13,1.61.27,2.4-.06.08-.14.12-.24.12-.14,0-.29-.01-.43,0-.1.02-.19.03-.29.04-.21-.02-.38-.1-.42-.34.04-.07.1-.11.18-.13-.08-.01-.14.03-.18.12-.05,0-.1,0-.15,0-.04-.03-.08-.06-.13-.08-.05-.09-.09-.18-.1-.28,0-.1.02-.2.04-.29.04-.13.09-.27.13-.4.02-.09.05-.17.08-.25.03-.08.08-.15.14-.2-.07-.2-.22.04-.31-.05-.48-.63-1.09-1.25-.18-2Z"/>
  <path class="st81" d="M25.98,47.84c-.07,0-.15,0-.22-.02-.13-.41-.38-.69-.8-.81-.1-.08-.19-.16-.29-.24-.1-.08-.19-.16-.29-.24-.09-.09-.18-.18-.27-.27-.18-.17-.37-.34-.55-.51,0,0,0,0,0,0-.1-.08-.2-.16-.26-.28h0c-.1-.08-.19-.17-.27-.27h0c-.1-.07-.18-.18-.28-.26h0c-.11-.16-.22-.32-.33-.48l.1-.09c.38-.28.88-.08,1.26-.32.94.19,1.21,1.35,2.17,1.53.28.14.5.36.7.6.29.39.68.72.8,1.22,0,.51-.24.8-.71.46-.31-.22-.5-.23-.76-.03Z"/>
  <path class="st199" d="M57.52,78.39c.36.27.72.54,1.08.81-.01.07-.03.15-.04.22-.21.03-.39.1-.49.31-.1.08-.19.16-.29.25-.21.02-.4.09-.53.28-.22,0-.41.07-.53.28-.1.08-.2.15-.3.23-.21.03-.4.09-.51.3h0c-.08.1-.17.2-.28.26h0c-.1.06-.2.14-.3.22-.33.09-.58.3-.75.59-.21.01-.41.07-.55.24-.35-.08-.69-.17-1.04-.25h0c-.1-.07-.2-.14-.3-.21l-.03-.03c0-.07,0-.13,0-.2.02-.11.08-.21.17-.28.29-.19.44-.5.64-.77,1.43-.61,2.41-2.02,4.05-2.24Z"/>
  <path class="st51" d="M73.83,35.85c0-.17,0-.35,0-.52-.49-.75.24-.62.56-.79-.01.17-.02.34-.03.51-.25.2-.24.5-.29.77-.07.02-.15.03-.23.03Z"/>
  <path class="st170" d="M62.87,21.41c-.09,0-.18,0-.27,0-.2-.53-.16-1.14-.53-1.61-.09-.09-.12-.2-.09-.33.15-.33.31-.66.66-.82.08.02.15.04.23.08,0,.22.05.42.24.56-.01.3,0,.6.28.8h0c.2.14.14.4.26.59-.02.07-.01.14.03.2,0,.27-.01.54-.02.8-.17.11-.28.02-.39-.1-.05-.07-.11-.15-.16-.21,0,0-.12,0-.12,0l-.12.03Z"/>
  <path class="st200" d="M62.87,21.41c0-.22.05-.41.26-.52.16.14.1.39.26.53.09.09.18.18.27.27,0,.09.01.18.02.27-.26.11-.5.29-.81.27.16-.27.16-.54,0-.81Z"/>
  <path class="st115" d="M22.16,32.7c-.02.11-.09.15-.19.12-.03-.05-.03-.1-.02-.16.07,0,.14.01.2.04Z"/>
  <path class="st52" d="M50.85,21.43c.14-.03.24-.12.27-.26.08,0,.15-.01.23-.03.09-.09.18-.18.3-.22h.02c.09-.22.39-.13.47-.35.02-.07.03-.14.04-.21.15-.02.24-.11.28-.25.26-.1.51-.2.77-.31.57-.29.87.05,1.14.47-1.09.74-2.15,1.52-2.97,2.57-.19.24-.46.42-.77.52-.41-.08-.82-.15-1.19-.36.04-.15.09-.29.13-.44.33-.1.58-.29.74-.6.15-.02.24-.1.29-.25.08-.1.17-.19.25-.29Z"/>
  <path class="st179" d="M70.06,42.28c.01.1.03.19.04.29-.1.25-.21.5-.31.76-.07,0-.14.02-.21.05-.31.19-.37.54-.52.83-.05.13-.13.23-.28.24-.04-.17-.09-.33-.13-.5-.27-1.03-.21-1.13.82-1.42.2-.06.39-.17.59-.25Z"/>
  <path class="st121" d="M54.33,20.37c-.38-.17-.63-.58-1.1-.57.01-.08.02-.15.04-.23.22-.02.4-.1.5-.3.1-.07.21-.14.31-.21.21-.02.4-.09.52-.29.17-.02.33-.03.5-.05,0,.37.02.74.03,1.1-.02.55-.36.61-.8.54Z"/>
  <path class="st205" d="M80.53,71.71c-.34-.02-.53-.19-.54-.54,0-.22-.08-.4-.26-.53-.05-.06-.08-.12-.08-.19,0-.07,0-.11.02-.11.16-.17.35-.25.58-.24.39.35.84.46,1.34.27-.11.25-.21.5-.32.75,0,0,.02.01.02.01-.05.13-.13.23-.26.29h.01c-.06.12-.16.2-.27.27v-.02c-.09,0-.17.01-.25.03Z"/>
  <path class="st12" d="M40.67,76.27c.09-.18.18-.37.27-.55.25.11.5.22.75.33.09.08.19.16.28.24.01.08.03.15.04.23-.47.05-.92-.03-1.34-.25Z"/>
  <path class="st150" d="M68.69,44.9c-.08.09-.17.19-.25.28-.08.09-.17.19-.25.28-.08.1-.17.19-.25.29-.31.17-.51.42-.58.77-.09.17-.19.34-.28.51-.15.04-.3.09-.45.13.16-.89.5-1.66,1.35-2.14.21-.12.33-.4.5-.61.1.01.21.02.31.04-.03.15-.07.3-.1.45Z"/>
  <path class="st173" d="M69.06,44.2c-.04-.41-.07-.82.52-.83-.02.16-.04.33-.05.49-.08.1-.16.2-.23.3-.08.02-.16.03-.24.04Z"/>
  <path class="st158" d="M52.21,81.65c-.14-.16-.25-.41-.42-.47-.58-.18-1.1-.38-1.29-1.05-.02-.08-.31-.09-.47-.14-.02-.06-.03-.12-.05-.17.03-.12.08-.23.14-.33.31-.68.53-1.36.31-2.12-.09-.33-.15-.7.28-.88.95,1.26,2.12,2.39,2.33,4.08,0,.36-.04.71-.31.98-.03.04-.05.09-.07.13-.15,0-.3-.02-.45-.02Z"/>
  <path class="st194" d="M25.98,47.84c.27-.75.26-.73.86-.18.38.34.38-.07.45-.29.71,0,.74.81,1.26,1.04.1.07.18.16.27.24.45.63.76,1.28.28,2.05-.26.1-.5.06-.71-.13-.07-.02-.15-.04-.22-.06-.06-.19-.15-.35-.34-.44v-.02c-.09-.1-.18-.18-.25-.29h0c-.08-.1-.16-.19-.25-.29-.08-.09-.17-.19-.25-.28-.08-.28-.26-.46-.53-.55-.08-.09-.17-.18-.25-.27-.02-.09-.05-.17-.07-.26-.11-.03-.18-.11-.22-.22l-.04-.05Z"/>
  <path class="st51" d="M73.58,33.47c.43-.25.95.02,1.37-.25-.03.24-.06.49-.09.73-.18.14-.24.33-.25.54-.07.02-.15.04-.22.05-.03-.16-.06-.4-.24-.37-.63.1-.56-.32-.56-.7Z"/>
  <path class="st51" d="M74.94,33.23c-.01-.15.05-.24.18-.31.02.09.04.18.06.27-.08.03-.15.04-.23.04Z"/>
  <path class="st121" d="M56.99,17.95c-.3.31.15.86-.41,1.14-.64.31-1.08.15-1.47-.36,0-.08.02-.15.04-.23.22,0,.42-.05.56-.23.28-.05.57-.07.76-.32.18,0,.35,0,.53,0Z"/>
  <path class="st168" d="M52.14,20.57c-.05.26-.24.33-.47.34,0-.08,0-.16.02-.24.15-.03.3-.07.46-.1Z"/>
  <path class="st200" d="M62.65,18.66c-.05.39-.18.72-.57.89-.33-.36-.27-.71,0-1.07.16,0,.32,0,.49,0,.06.05.09.11.09.18Z"/>
  <path class="st11" d="M29.17,50.57c-.12-.64-.14-1.3-.54-1.86,1.07-.95,2.55-1.21,3.64-2.17.73-.64,1.27-1.49,2.17-1.93.79,0,1.65-.22,2.22.61h0c.19.13.08.41.27.54.27.54.53,1.07.8,1.61.35.52-.08.82-.35,1.13-1.22,1.41-2.6,2.62-3.57,3.08.84-.46,2.27-1.44,3.4-2.83.27-.33.44-.9,1.06-.85.21.74.39,1.48.81,2.14,0,.09,0,.18,0,.28.02.94-.8,1.31-1.31,1.86-.99,1.07-2.12,1.98-3.52,2.49,1.59-.55,2.78-1.66,3.99-2.76.33-.3.49-.89,1.1-.8.09.18.18.36.27.54.18,2.78.08,2.96-2.46,4.21-1.03.51-2.17.78-3.15,1.4,0,.08,0,.17,0,.25-.28.14-.55.24-.53-.25.1-1.15-.9-1.89-1.13-2.92-.03-.11-.16-.28-.25-.28-1.02-.03-.55-.91-.79-1.42-.36.19-.68.42-1.08.37-.07-.02-.14-.03-.21-.04,0-.09,0-.17,0-.26-.02-.81.19-1.7-.79-2.15Z"/>
  <path class="st135" d="M66.35,55.12c.02-.09.02-.17.01-.26.18-.12.26-.3.31-.5.08-.09.16-.19.24-.28.14-.05.23-.14.25-.29.21-.12.25-.32.26-.54.18-.11.28-.28.32-.49.19-.12.27-.31.27-.52.07-.02.13-.04.2-.06.1.7.65.51,1.08.54h0c0,.09,0,.18,0,.27.15.23.07.47.01.71-.2.54-.47,1.01-1.09,1.16-.27.36-.53.72-.8,1.08-.66-.12-.84.28-.82.83-.57-.1-.2-.66-.52-.84-.13-.34.12-.55.27-.8Z"/>
  <path class="st116" d="M29.17,50.57c1.26.25,1.39.44,1.05,1.54-.06.21-.17.41-.26.61-.08,0-.16-.02-.23-.04-.02-.22-.09-.4-.3-.51-.07-.1-.15-.2-.22-.31-.04-.2-.11-.38-.32-.47l-.02-.02c-.08-.1-.16-.19-.24-.27h0c-.02-.15-.1-.25-.23-.3,0-.08,0-.17,0-.25.26,0,.52,0,.78,0Z"/>
  <path class="st135" d="M68.48,51.63c.01.23-.03.43-.27.54.02-.16.03-.33.05-.49.07-.02.14-.03.22-.05Z"/>
  <path class="st19" d="M35.85,62.88c.22.1.28.29.28.52-.07-.01-.14-.03-.21-.05-.02-.16-.05-.31-.07-.47Z"/>
  <path class="st19" d="M36.14,63.41c.14.08.21.2.21.37-.08-.03-.15-.06-.23-.09,0-.09.02-.19.02-.28Z"/>
  <path class="st187" d="M26.23,75.18c.1,0,.19-.02.29-.02.66.17,1.3.4,1.84.83.2.34.72.38.79.83-.16-.03-.32-.06-.48-.09-.17-.09-.35-.18-.52-.28-.11-.07-.21-.14-.32-.21-.12-.21-.32-.25-.54-.27-.12-.2-.31-.26-.53-.28-.11-.2-.29-.27-.51-.3,0,0-.01.02-.01.02-.08-.05-.11-.11-.09-.16.02-.06.05-.09.08-.09Z"/>
  <path class="st160" d="M57.52,78.39c-.71.47-1.64.66-1.94,1.62-.03.08-.23.18-.31.16-.78-.3-1.13.52-1.75.65-.49-.6.02-.98.32-1.38.86-1.14,1.89-2.12,2.94-3.08,1.17-.96,2.15-2.19,3.69-2.63.78.59-.06,1.26.1,1.9.21-.8.39-1.59.48-2.4.15-.33.37-.56.76-.57,1,.94.81,2.16.79,3.34-1.1.18-1.56.03-1.07,1.62-.03.06-.06.12-.07.19-.15.02-.31.05-.46.07-.11-.13-.25-.24-.32-.38-.36-.7-.79-.62-1.28-.15-.56.48-1.45.37-1.89,1.05Z"/>
  <path class="st34" d="M62.07,18.48c0,.36,0,.71,0,1.07,0,.09,0,.18,0,.26-2.98,2.55-6.56,3.73-10.31,4.51-.47.1-.97.03-1.46.04-.09,0-.17-.01-.26,0q-1.12.2-.83-.84c.02-.08,0-.17-.01-.26.02-.08.03-.16.02-.24.07,0,.14-.01.21-.02.42-.06.83-.13,1.13.28,2.64-.02,5.08-.86,7.48-1.86,1.15-.48,2.09-1.14,2.41-2.42.04-.12.08-.23.12-.35.57.58.99-.14,1.49-.18Z"/>
  <path class="st65" d="M32.41,23.28c-.02-.09-.04-.18-.06-.27.04-.09.09-.19.13-.28.06,0,.13-.01.19-.02.05.04.11.07.16.11.13.16.19.33.1.53-.19.08-.37.11-.52-.07Z"/>
  <path class="st50" d="M32.63,22.74h-.07s-.07-.01-.07-.01c-.02-.06-.04-.11-.04-.18.06,0,.12,0,.17-.02l.09.1-.08.11Z"/>
  <path class="st65" d="M32.63,22.74c0-.07,0-.14-.01-.21.01-.1.03-.2.04-.3.07-.02.14-.03.21-.05l.1.07c.19.13.33.28.16.51-.13.17-.3.1-.45.01l-.05-.04Z"/>
  <path class="st81" d="M26.01,47.89c.07.07.14.15.22.22,0,0-.11,0-.11,0,0,0-.11,0-.11,0,0-.07-.01-.14,0-.21Z"/>
  <path class="st6" d="M66.35,55.12c.03.31-.16.54-.27.8-.09,0-.17.01-.25.04-.09-.01-.18-.02-.27-.03,0-.08.01-.17.02-.25.08-.09.16-.19.24-.29.09-.09.18-.18.27-.26.09,0,.17,0,.26,0Z"/>
  <path class="st168" d="M51.65,20.92c-.05.14-.15.21-.3.22,0-.08.02-.16.03-.24.09,0,.18.01.27.02Z"/>
  <path class="st114" d="M39.6,35.86c1.21.15,2.43.04,3.62-.11,1.12-.15,2.22-.46,3.33-.7.21.12.26.32.24.54-.68,0-1.27.35-1.91.52-1.49.39-3.02.44-4.56.47-.55.01-.69-.27-.73-.72Z"/>
  <path class="st134" d="M47.89,36.94c.06.6-.54.7-.8,1.06-1.36.32-2.73.64-4.09.98-.51.13-.95.1-1.43-.44,1.91-.38,3.8-.54,5.52-1.34.09,0,.18,0,.27,0,.09-.09.18-.17.26-.26h0c.09-.12.17-.12.25,0h.01Z"/>
  <path class="st157" d="M47.33,43.31c-.05-.16-.09-.23-.09-.31.01-.19-.23-.39.02-.56.05-.03.17.02.24.06.27.2.08.44.03.67,0,.03-.07.05-.2.14Z"/>
  <path class="st58" d="M33.98,57.26c0-.39.28-.48.59-.59,1.37-.48,2.63-1.2,3.88-1.91.99-.56,1.12-.78.92-1.98-.07-.42.04-.78.22-1.13.09.14.22.26.26.41.19.59.49.77,1.02.34.2-.17.4,0,.59.06.23.69.31,1.41.26,2.13-.1.19-.5-.42-.47.21.09,2.08.18,4.15.62,6.19.12.56.33,1.13-.16,1.63-.26-.37-.81-.43-.94-.99-.09-.39-.57-.35-.92-.35h0c.55-.71.64-1.53.49-2.37-.13-.76-.46-.95-1.11-.5-1.05.73-2.3.9-3.43,1.41-.23.11-.46.07-.57-.16-.13-.28.11-.41.32-.47.98-.28,1.95-.57,2.86-1.06,1.6-.86,1.87-1.62,1.01-3.43-1.63,1.27-3.45,2.13-5.46,2.57Z"/>
  <path class="st93" d="M46.57,65.81c-.57.05-1.15-.06-1.71.17-.39.16-.86.19-1.07-.23-.23-.46-.39-.99-.34-1.52.03-.27.32-.27.54-.28.49-.01.98,0,1.47-.01.25,0,.51.01.76-.29-.53-.39-1.08-.27-1.56-.22-.93.11-1.49-.28-1.84-1.09-.89-.95-1.03-2.03-.54-3.21.71.87,1.74.95,2.74,1.05.44.04.88.05,1.27.28-.23,1.35.35,2.63.37,3.97,0,.56.1.55-.04.86-.07.15-.03.34-.04.52Z"/>
  <path class="st84" d="M42.27,59.14c0,1.1.25,2.16.54,3.21.25,1.83.42,3.69,1.33,5.35.05.04.09.08.14.12.35,1.04.63,2.11,1.05,3.13.06.11.1.23.15.35.25.93.88,1.72.97,2.71-.09.39-.24.66-.69.37-1.85-3.32-2.98-6.89-3.75-10.59-.08-.39-.19-.78-.28-1.16,0-.22.07-.47,0-.66-.58-1.51-.47-3.12-.71-4.68-.17-1.16-.26-2.37.19-3.55.42.19.16.71.53.86.08,1.07-.22,2.18.27,3.21.3.4-.06.94.26,1.34h0Z"/>
  <path class="st93" d="M42.27,59.14c-.41-.38-.2-.89-.26-1.34.44.38.2.89.26,1.34Z"/>
  <path class="st157" d="M47.62,51.64c0,.18-.01.37-.02.55-.25-.19-.25-.38.02-.55Z"/>
  <path class="st132" d="M39.33,51.11c-1.02,1.37-2.37,2.37-3.76,3.33-.64.44-1.4.47-2.15.58.46-.73,1.37-.76,1.98-1.25.66-.53,1.38-.96,1.95-1.6.56-.63,1.26-1.13,1.72-1.85.32.19.25.5.26.79Z"/>
  <path class="st55" d="M47.62,49.77c-.19.32-.51.26-.8.27.19-.31.51-.26.8-.27Z"/>
  <path class="st70" d="M53.78,48.43c.09-.09.17-.18.26-.27,1.58,1.17,3.39,1.67,5.31,1.88,1.02.11,1.94-.11,2.72-.8.55.92.14,1.69-.37,2.46-.25,0-.35-.19-.45-.38-.29-.59-.82-.43-1.29-.37-1.8.21-3.41-.35-5-1.14-.62-.3-.91-.81-1.18-1.37Z"/>
  <path class="st10" d="M62.32,44.95c-2.8,1.03-5.42.64-8.12-1.03,1.03-.22,1.63.33,2.28.53,1.98.6,3.91.37,5.85-.04.14.18.14.36-.01.54Z"/>
  <path class="st98" d="M61.54,51.65c.33-.77.55-1.57.53-2.41.19-.33.3-.68.28-1.07.25-.21.02-.58.27-.8h0c.24-.22.03-.58.25-.81,0-.09,0-.18,0-.27.27-.21.55-.24.85-.05.37.49.21,1.01.06,1.52-.34,1.13-.55,2.31-1.18,3.34-.13.11-.37.21-.37.32,0,.68-.44,1.02-.96,1.31-.31-.46-.11-.79.27-1.08Z"/>
  <path class="st54" d="M63.67,46.29c-.27,0-.53,0-.8,0,0-.18,0-.35,0-.53-.42-.63-.16-1.13.29-1.6.25-.07.5-.14.83-.23.13.34-.44.71-.04,1.03.72.61.11.94-.27,1.32Z"/>
  <path class="st67" d="M63.16,44.16c-.1.53-.2,1.06-.29,1.6-.42.17-.61.58-.98.92-.18-.71.49-1.13.44-1.73,0-.18,0-.36.01-.54.18-.18.36-.35.53-.53.1.09.19.18.29.28Z"/>
  <path class="st43" d="M63.13,39.6c.09,0,.18,0,.27,0,.09.06.12.12.09.18-.03.06-.06.09-.09.09.02.13.02.26.07.38.08.22.12.45-.16.52-.27.07-.36-.18-.41-.39-.04-.16-.02-.34-.03-.51h0c.09-.09.19-.16.26-.27h0Z"/>
  <path class="st54" d="M62.61,47.37c-.01.29.04.6-.27.8,0-.29-.05-.61.27-.8Z"/>
  <path class="st54" d="M62.86,46.56c0,.3.06.61-.25.81,0-.3-.05-.61.25-.81Z"/>
  <path class="st126" d="M63.41,39.88c0-.09,0-.18,0-.27.18,0,.36,0,.53,0,0,.09,0,.18,0,.27-.18,0-.36,0-.53,0Z"/>
  <polygon class="st9" points="53.78 44.15 53.84 44.04 53.89 44.09 53.78 44.15"/>
  <path class="st206" d="M63.39,29.72c0,.27,0,.53.01.8-2.35,2.03-5.09,2.21-7.97,1.65-.93-.18-1.94-.17-2.73-.85.32-.42.65-.04.96,0,.87.09,1.76.17,2.61.36,1.95.44,3.75,0,5.53-.75.64-.27.98-.89,1.58-1.2Z"/>
  <path class="st198" d="M59.37,56.73c.06.51-.38.78-.57,1.16-.24.49-.42.97-.21,1.51-.08.28-.3.43-.57.5-1.68.24-3.23-.26-4.71-.78,1.44.67,3.06.82,4.68.96.11.08.18.18.21.31.03.28-.08.52-.2.76-.37.52-.25,1.36-1.06,1.59-1.89-.16-3.72-.46-5.05-2.02-.15-.91.33-1.75.28-2.65-.05-1.25.66-1.35,1.57-1.01.11-.15.12-.23.1-.32-.11-.41-.67-.78-.35-1.2.39-.5.87.03,1.32.11,1.25.22,2.42.83,3.74.77.31-.01.62.05.84.32Z"/>
  <path class="st101" d="M61.54,51.65c-.09.36-.18.72-.27,1.08-.09.26-.18.53-.27.79-.27.22-.08.58-.28.84-.2.27-.37.43-.75.39-2.13-.21-4.14-.8-5.96-1.96-.11-.07-.23-.12-.33-.18-.22.18-.14.42-.16.63-.09.09-.18.09-.27,0-.04-.12-.07-.34-.13-.35-.93-.13-.68-.74-.62-1.3.55-.04.35.57.67.71.64-.68.23-1.58.61-2.27.58-.04.98.35,1.42.63,1.21.78,2.6,1.05,3.96,1.41,1.11.3,1.6-.61,2.38-.97,0,.18,0,.36,0,.54Z"/>
  <path class="st42" d="M53.24,53.25c.09,0,.18,0,.27,0,.31,0,.61,0,.88.23,1.68,1.39,3.71,1.74,5.8,1.91-.09.1-.18.19-.26.29-.24.32.61.62.11.77-.24.07-.52-.03-.67.29-2.02.17-3.87-.52-5.75-1.18-.02.55.42.71.65,1,.31.38.08.68-.14.95-.29.35-.51.15-.73-.14-.35-.46-.67-.33-.93.11-.11.19-.21.39-.31.59-.48.23-.81-.09-.56-.42.43-.58.66-1.21.89-1.87.02-.07.17-.08.21-.15.22-.39-.76-.55-.28-.74.38-.16.58-.14.57-.61,0-.34.16-.68.24-1.03Z"/>
  <path class="st198" d="M50.84,66.9c-.04-.51.23-1.16-.63-1.26.03-.12.06-.24.1-.36-.01-.3.15-.54.27-.8.16-.45.29-.93.9-.96,1.47.78,2.93,1.59,4.55,2.04.16.36.11.66-.21.91-1.38.35-2.62-.12-3.72-.56.67.46,1.61.53,2.52.69.35.06.72.02.94.38.18.44.18.87-.11,1.28-2.11.79-3.95.24-4.62-1.38Z"/>
  <path class="st144" d="M61.53,51.11c-.71,1.37-1.18,1.62-2.68,1.28-1.86-.41-3.64-1.01-5.07-2.35,0-.54,0-1.07,0-1.61,1.98,1.9,4.35,2.52,7,2.06.67-.12.78.06.75.62Z"/>
  <path class="st198" d="M51.1,62.35c.53-.23.46-.6.15-.93-.26-.27-.5-.51-.28-.9.1-.18.13-.49.4-.44.36.06.22.4.27.64,1.06,1.01,2.34,1.59,3.76,1.87.52.1,1.06.17,1.54.43.75,1.11.14,1.68-.83,2.12-1.69.12-3.01-.75-4.32-1.63-.39-.27-.79-.58-.68-1.16Z"/>
  <path class="st122" d="M51.1,62.35c1.24,1.29,2.6,2.36,4.51,2.4.23,0,.43.07.58.26.17.31.17.54-.27.55-1.28.16-2.32-.42-3.34-1.07-.41-.26-.81-.54-1.21-.81-.07-.06-.14-.12-.21-.19-.06-.07-.11-.15-.16-.24-.06-.13-.08-.27-.16-.39,0-.08,0-.17-.01-.25-.09-.27,0-.34.26-.26h0Z"/>
  <path class="st72" d="M56.98,63.14c-1.84-.1-3.54-.6-5.02-1.73-.2-.15-.64-.27-.32-.69.08,0,.17,0,.25,0,1.51.8,3,1.65,4.79,1.68.11,0,.21.14.32.22.15.18.13.36-.02.53Z"/>
  <path class="st177" d="M50.84,62.87c.09.09.18.19.26.28.09.09.16.19.26.27,0,.09,0,.17,0,.26-.33.2-.38.69-.8.81-.46-.63.06-1.1.27-1.63Z"/>
  <path class="st198" d="M51.09,62.35c-.09.09-.18.17-.26.26-.15-.1-.27-.24-.12-.39.15-.15.29-.03.38.13Z"/>
  <path class="st146" d="M63.13,39.61c-.09.09-.17.18-.26.27.09-.09.17-.18.26-.27Z"/>
  <path class="st83" d="M38.79,34.8c-.09,0-.17,0-.26,0,0-.09,0-.17,0-.26.28-.12.55-.29.88-.27,2.51.17,4.76-.6,6.88-1.88,0,.18,0,.36,0,.54-2.23,1.68-4.77,2.15-7.5,1.88Z"/>
  <path class="st97" d="M38.52,34.52c-.09,0-.17,0-.26,0,.09-.15.17-.16.26,0Z"/>
  <polygon class="st97" points="37.99 33.99 38.06 33.88 38.11 33.93 37.99 33.99"/>
  <path class="st45" d="M35.59,25.43c.01-.39.2-.63.58-.79,1.57-.67,3.08-1.45,4.33-2.65.25-.24.47-.13.72-.04-.94,1.59-2.52,2.31-4.15,2.9-.5.18-.99.36-1.47.58Z"/>
  <path class="st119" d="M36.39,26.5c.24.04.61-.1.64.27.03.3-.32.28-.51.25-.3-.04-.95.29-.66-.52.18.02.35.3.53,0Z"/>
  <path class="st212" d="M32.67,22.78c.42,0,.38-.25.29-.53.22-.15.42-.29.73-.19.55.18,1-.1,1.45-.35-.24-.65-.72.16-1.02-.31.49-.27.97-.53,1.46-.8,1.25-.08,2.5-.97,3.76,0,.09.09.17.18.26.27-.09.09-.19.18-.28.28-.08.09-.17.17-.25.26h0c-.09.09-.17.18-.26.27-1.78,1.18-3.7,1.93-5.88,1.87h0c-.1-.06-.13-.11-.1-.17.03-.06.06-.09.09-.09-.08-.17-.16-.34-.23-.51Z"/>
  <polygon class="st45" points="35.32 25.43 35.21 25.37 35.26 25.32 35.32 25.43"/>
  <path class="st36" d="M38.8,21.68c.09-.09.17-.17.26-.26-.09.09-.17.17-.26.26Z"/>
  <path class="st36" d="M39.07,21.41c.08-.09.17-.17.25-.26-.08.09-.17.17-.25.26Z"/>
  <path class="st8" d="M47.88,36.93c-.08,0-.17,0-.25,0-.02-.14-.22-.36-.02-.41.28-.07.25.22.28.41Z"/>
  <path class="st8" d="M47.62,36.93c-.09.09-.18.18-.26.26.09-.09.18-.17.26-.26Z"/>
  <path class="st71" d="M74.65,30.77c.27.09.91-.17.53.55-.21.27-.6,0-.81.26h0c-2.3-.24-4.58-.52-6.41-2.15.49-.55.89-.04,1.3.13,1.72.74,3.47,1.36,5.39,1.2Z"/>
  <path class="st40" d="M76.25,25.16c-.09.23-.37.52-.22.69.38.46,0,.8-.07,1.19-2.84-.08-5.53-.71-8.01-2.15-.18-.43-.59-.82-.26-1.35.28-.22.6-.2.88-.08,2.2.86,4.5,1.18,6.83,1.41.22.02.42.13.57.3.09,0,.18,0,.27,0Z"/>
  <path class="st149" d="M75.98,25.16c-2.88.07-5.61-.64-8.29-1.62-.09-.26-.43-.52,0-.78.47-.35.94-.12,1.38.06,2.19.89,4.52,1.05,6.82,1.41.14.02.25-.06.36-.13.04-.11.06-.29.14-.33.13-.06.24.07.24.19,0,.51-.29.88-.65,1.2Z"/>
  <path class="st14" d="M76.25,24.09c-.86.55-1.82.31-2.7.19-1.83-.25-3.64-.65-5.35-1.4-.16-.07-.34-.09-.51-.13,0-.18-.01-.36-.02-.53,0-.18,0-.35,0-.53.37-.18.7-.02,1.02.12,1.75.81,3.62,1.21,5.48,1.65.48.11.97.17,1.28.62.27,0,.53,0,.8,0Z"/>
  <path class="st169" d="M46.33,78.63c.43.05.69.42,1.05.58-.01.46-.27.42-.57.27h0c-.13-.19-.38-.13-.54-.25-.1-.08-.2-.17-.3-.25.12-.12.25-.23.37-.35Z"/>
  <path class="st47" d="M46.26,79.23c.24-.04.42.03.54.25-.08.01-.17.03-.25.04-.1-.1-.19-.2-.29-.29Z"/>
  <path class="st169" d="M45.48,78.67c.14,0,.23.08.28.21-.15,0-.22-.08-.28-.21Z"/>
  <path class="st68" d="M47.65,79.16c.27-.14.38-.55.78-.5.54.1.97.37,1.21.89-.01.26,0,.56-.41.45-.44-.09-.87-.18-1.31-.28-.16-.13-.43-.21-.3-.52l.04-.05Z"/>
  <path class="st158" d="M49.22,80.01c.21-.11.27-.3.26-.52.51-.18.37.34.55.51h0c.03.19.33.54-.2.42-.23-.05-.47-.18-.61-.41Z"/>
  <path class="st47" d="M47.61,79.21c.1.17.2.34.3.52-.39,0-.79.11-1.1-.25.22-.04.46-.02.57-.27.08,0,.15,0,.22,0Z"/>
  <path class="st50" d="M32.91,23.29c0,.09.01.17,0,.26-.22,0-.42-.03-.51-.27.17,0,.33,0,.5.01Z"/>
  <path class="st48" d="M63.67,46.29c-.1-.48.67-.78.27-1.32.24-.12.49-.3.5-.57.04-1.1.73-1.95,1.11-2.92.85.76,1.71,1.52,2.53,2.31.13.12.09.41.13.62-.18,0-.36,0-.54,0-.58-.07-1.07-.36-1.59-.66-.22.69.5.95.53,1.47-.03.13-.04.36-.09.37-.9.19-1.01.95-1.21,1.65-.1.35-.38.59-.63.84-.29.29-.56.53-.17.99.29.35-.24.69-.38.68-1.12-.02-.75.76-.77,1.34-.26,0-.52,0-.79,0,.18-1.16.48-2.29.83-3.4.14-.46.28-.91.24-1.4Z"/>
  <path class="st180" d="M70.63,39.34c0,.09,0,.18,0,.27-1.02-.01-1.67-.77-2.39-1.3-.51-.38-.22-1.15-.54-1.82.78.02,1.3.39,1.84.59.54.2,1.18-.13,1.63.38-.12.31-.75.27-.53.8.05.1.09.19.11.3-.04.26.04.54-.11.78Z"/>
  <path class="st179" d="M70.62,40.15c.07.2.28.55.16.57-.87.13-.41.91-.7,1.3-1.03-.05-1.16-.93-1.41-1.63-.12-.34.2-.44.49-.29.49.25.96.43,1.46.06Z"/>
  <path class="st204" d="M70.63,38.54c-.27-.15-.68-.34-.58-.62.16-.46.68-.45,1.12-.45.09,0,.17,0,.26,0,.36-.17.72-.29,1.08,0-.1.2-.23.35-.46.41-.81.21-.99.83-.43,1.42.05.05.03.17.04.25-.33-.12-.65-.25-1.02-.2-.17-.27-.17-.54,0-.81Z"/>
  <path class="st180" d="M72.5,37.47c-.36,0-.72,0-1.08,0,.08-.21.73-.53-.11-.55-.18,0-.32-.1-.42-.25.78.12,1.62-.26,2.36.25-.08.09-.15.18-.23.27-.08.09-.17.18-.25.27-.09,0-.18.01-.27.01Z"/>
  <path class="st118" d="M65.02,39.87c0-.17,0-.34,0-.51.07-.02.14-.03.2-.03.36.35-.01.41-.21.54Z"/>
  <path class="st162" d="M63.67,33.72c.02-.16.01-.34.19-.42.03-.01.15.07.15.1-.04.18-.19.26-.34.32h0Z"/>
  <path class="st55" d="M47.36,50.57s-.11-.05-.11-.06c.02-.09.06-.07.11.06h0Z"/>
  <path class="st55" d="M47.36,50.58s.11.05.11.06c-.02.09-.06.07-.11-.06h0Z"/>
  <path class="st82" d="M47.09,59.67c.09,0,.17,0,.26,0-.03.46.12.96-.21,1.39q-.56-.74-.05-1.39Z"/>
  <path class="st128" d="M56.98,63.14c0-.18.01-.36.02-.53.47-.44.31-1.17.78-1.61.24-.1.47-.21.28-.53,0-.09,0-.18,0-.27-.15-.18-.15-.35,0-.53.18-.09.36-.18.54-.27.34.06.6.14.26.55-.35.42,0,.47.3.53,0,.18-.02.35-.03.53-.24.21-.28.49-.3.78-.35.4-.35.91-.52,1.4.51.04.52-.46.84-.56.06.02.11.04.17.06.3.19.68.29.68.75-.18.71-.97.98-1.19,1.67-.2.29-.36.62-.54.92-.23.32-.49.55-.92.45-.56-.29-.5.23-.66.49-.37.61-.19,1.51-1.01,1.87-.25-.13-.43-.3-.29-.61,0-.44,0-.88,0-1.32-.03-.24.11-.4.27-.55.3-.19.25-.51.26-.79.21-.12.25-.33.27-.55.08-.1.16-.2.24-.31.19-.27.54-1.28.55-1.57Z"/>
  <path class="st128" d="M59.16,62.38c.08-.09.17-.18.25-.28.08-.01.16-.02.25-.02.21.48.04.67-.47.6l-.05-.05c0-.08.01-.17.02-.25Z"/>
  <path class="st38" d="M59.19,62.67c.29-.09.48-.27.47-.6.02-.08.03-.16.04-.24.14-.04.22-.14.24-.28.08,0,.15-.02.23-.03.58.06.34.33.16.61-.13.19-.2.44.02.6.23.16.46-.01.56-.19.19-.36,1.02-.43.54-1.12-.02-.04.08-.21.08-.21.83.27,1.15-.75,1.88-.74.35-.09.45.18.58.4.9,1.6,1.97,3.02,3.8,3.67.21.08.36.24.43.47-.04.29-.79.35-.26.82.12.14.07.28,0,.41-.05.09-.11.16-.18.24-.06.07-.13.14-.2.22-.03.04-.06.08-.09.12-.11.17-.19.36-.33.51-.16.16-.35.26-.58.26-.11-.01-.21-.06-.3-.13-.09-.15-.11-.3-.04-.46.18-.18.29-.43.52-.56.11-.14.05.11.1-.06-.06,0-.07.07-.13.08-.26.12-.34.41-.55.58-.29.29-.63.36-1.02.26-1.67-.86-2.35-2.41-2.85-3.87.13,1.06.92,2,1.59,3.01.27.41.88.83.41,1.38-.51.59-1.22.52-1.81.1-1.11-.78-2-1.75-2.11-3.21,0-.28,0-.57-.09-.85-.06-.14-.15-.26-.28-.34-.04-.03-.07-.07-.11-.1-.13-.36-.83-.15-.73-.74Z"/>
  <path class="st140" d="M70.63,65.55c.8-.6,1.74-.83,2.69-1.06.28.33.16.65-.02.99-1.17,2.23-1.61,4.58-1.21,7.08.05.34.15.71-.12,1.02-.2-.06-.45-.31-.6-.14-.42.49-1.16.4-1.53.94h0c-.53.3-.57-.1-.64-.45-.37-1.65-.4-3.29.1-4.92.29-1.21.94-2.28,1.35-3.45h0Z"/>
  <path class="st164" d="M76.78,63.69c.27-.17.54-.18.8,0-.93,1.55-1.33,3.27-1.59,5.03-.15.98.08,1.94.34,2.89.17.63.37,1.26.14,1.92-.76-.27-.84-.99-1-1.61-.65-2.54-.21-4.98.84-7.33.09-.2.13-.42.19-.63h0c.09-.09.18-.18.27-.27Z"/>
  <path class="st193" d="M71.96,73.58c-.84-2.57-.26-5.03.57-7.47.19-.57.91-.89.78-1.62.17,0,.35-.01.52-.02.08.66-.34,1.17-.54,1.74-.83,2.32-1.16,4.66-.54,7.09.06.25.15.54.07.76-.11.31-.38.32-.6.04-.09-.08-.17-.19-.26-.27,0-.09,0-.17,0-.26Z"/>
  <path class="st140" d="M71.97,73.84c.09.09.17.18.26.27-.09-.09-.17-.18-.26-.27Z"/>
  <path class="st193" d="M73.83,64.49c0-.09,0-.18,0-.27.19.09.19.18,0,.27Z"/>
  <path class="st176" d="M67.69,66.36c.09-.18.17-.36.26-.54.69-.32.99-1.25,1.96-1.33-.07.62-.74.77-.79,1.22-.05.44.28.09.43.1.31.43-.14.56-.33.71-2.12,1.68-2.63,4.06-2.88,6.56-.03.31-.02.62,0,.93.01.56-.35.64-.79.63h0c-.64-1-.32-2.04-.13-3.08.15-.83.53-1.59.74-2.4.08-.6.43-1.05.85-1.46.38-.37.78-.73.69-1.34Z"/>
  <path class="st193" d="M69.56,68.76c-.08,1.13-.35,2.25-.29,3.4.04.73.26,1.43.31,2.15,0,.03.16.05.24.07-.65.55-.86-.01-.99-.46-.37-1.28-.55-2.58-.18-3.9.12-.42.12-.88.37-1.26.18-.16.35-.14.53,0Z"/>
  <path class="st39" d="M69.56,68.76c-.18,0-.35,0-.53,0,.33-1.17.67-2.34,1.6-3.21.06.11.21.25.18.32-.4.97-.83,1.93-1.25,2.89Z"/>
  <path class="st96" d="M80.26,70.1c-.11.21-.3.27-.52.27-1-1.38-.66-2.96-.61-4.48.02-.45.13-.96.32-1.4,0-.09.01-.17.02-.26.16-.15.09-.4.26-.54.09-.09.19-.18.28-.26.26,0,.52,0,.78,0,.44-.02.78.09.81.6.03.41.55.56.53,1-.04.06-.09.1-.16.1,0,0,0,.08,0,.08,0,0,.03.08.04.07,0,0,.02-.09.02-.09,0-.08.03-.13.1-.16q.38,1-.39,1.47c-.11.07-.29.17-.29.23.08.78-.73,1.41-.54,2.09.22.79-.2.99-.66,1.29Z"/>
  <path class="st139" d="M25.17,58.05c.86.24.77.96.79,1.61,0,1.85-1.05,3.1-2.42,4.15-.38.29-.87.44-1.07.93-1.32.85-2.76,1.44-4.22,1.99-.71.27-.88-.03-.84-.65.66.09,1.22-.17,1.76-.49,2.45-1.46,4.43-3.37,5.63-6,.23-.5.38-.99.36-1.54Z"/>
  <path class="st142" d="M21.41,70.64c-.35.09-.7.17-1.06.26v-.03c-.11-.05-.19-.13-.25-.24v-.02c-.2-.53.93-.4.5-1.04,0,0,0,0,0,0,0-.23-.06-.44-.22-.61-.3-.35-.12-.56.21-.72.44-.2.84-.52,1.35-.54h0c.1-.26.28-.43.53-.53.09.09.18.09.27,0h0c1.78-1.01,3.1-2.49,4.32-4.08.37-.49.61-1.11,1.3-1.26.65.56.87,1.34,1.05,2.14-.09.08-.18.15-.29.21-1.43,1.96-3.15,3.6-5.16,4.96-.78.52-1.73.75-2.39,1.44-.06.03-.11.05-.17.08Z"/>
  <path class="st107" d="M22.47,64.75c.02-.26-.04-.57.23-.71,1.72-.88,2.59-2.39,3.08-4.18.02-.07.12-.13.18-.19.28.12.53.34.87.22.25-.08.35-.09.38.27.04.41.25.41.64.08.06-.05.17-.03.26-.05.07.02.14.04.21.05.02.16.05.32.07.47,0,0-.09.07-.09.07-.54,1.68-1.73,2.92-2.86,4.19-.27.31-.53.75-1.08.57-.06-.9.63-1.37,1.25-2-1.28.02-2.22.57-3.13,1.2Z"/>
  <path class="st23" d="M24.35,65.55c1.46-1.09,2.43-2.57,3.3-4.13.15-.27.36-.5.65-.63.02.34.04.68.07,1.02-1.03,1.43-2.06,2.85-3.36,4.06-.52.48-1.15.81-1.64,1.32-.19.2-.41.03-.61-.04.4-.67,1.1-1.04,1.61-1.61Z"/>
  <path class="st23" d="M22.75,67.16c-.09.18-.18.19-.27,0,.09,0,.18,0,.27,0Z"/>
  <path class="st190" d="M20.6,69.57c.61.59.62.59-.09.8-.17.05-.32.1-.42.24-.08,0-.16-.01-.25-.02,0-.08-.01-.16-.04-.23.21-.32.68-.38.8-.79Z"/>
  <path class="st184" d="M68.22,54.85c.2-.49.83-.72.82-1.34.29-.1.53.03.72.21,1.11,1.07,2.39,1.93,3.65,2.81.24.17.54.33.43.73-.01.42-.27.79-.09,1.27.22.59-.3.59-.7.6-1.19-.65-2.28-1.45-3.32-2.32-.66-.56-1.12-1.21-1.5-1.95h0Z"/>
  <path class="st103" d="M70.35,50.57c.11-.2.29-.26.5-.28,0,0,.04.01.04.01,1.26,1.44,2.03,3.25,3.47,4.56,0,.09,0,.18,0,.27-.01.17-.02.35-.03.53-1.74-.79-3.77-2.87-3.99-4.83,0-.09,0-.18,0-.27Z"/>
  <path class="st145" d="M73.84,57.26c-1.63-1.21-3.35-2.31-4.8-3.75.09-.18.17-.35.26-.53.51,0,.79.37,1.08.69.98,1.12,2.27,1.79,3.54,2.5.15.09.34.11.48.21.21.15.48.32.39.62-.09.34-.43.22-.67.25-.09.01-.18,0-.26,0Z"/>
  <path class="st33" d="M68.22,54.86c.84.57,1.3,1.51,2.17,2.09.72.49,1.31,1.16,2.18,1.45.33.11.45.4.47.73-.02.22-.06.42-.28.54-1.49-.88-2.77-2.02-3.96-3.27-.43-.46-.66-.92-.58-1.54Z"/>
  <path class="st135" d="M69.29,52.71s.05-.11.06-.11c.09.02.07.06-.06.11h0Z"/>
  <path class="st186" d="M74.37,54.87c-.27-.02-.51-.12-.7-.32-1.14-1.27-2.15-2.62-2.77-4.24.25-.11.48-.2.72.05.49.51,1.04.96,1.34,1.59.46.15.3-.74.81-.43.45.27.21.6.07.92h0c.13.11.38.29.36.32-.43.75.08,1.41.17,2.1Z"/>
  <path class="st169" d="M46.04,78.37c.09.09.19.17.28.26-.15-.03-.24-.11-.28-.26Z"/>
  <path class="st36" d="M39.34,20.61c-.88-.01-1.77-.26-2.64.21-.37.2-.73-.21-1.12-.2.86-.68,1.75-1.27,2.92-1.06.69.03.86.47.83,1.06Z"/>
  <path class="st195" d="M38.26,47.9c-1.51,2.16-3.47,3.73-6.04,4.67-.01-.49.32-.59.61-.75,1.72-.94,3.17-2.22,4.5-3.65.22-.23.41-.47.4-.81.26.1.44.28.53.54Z"/>
  <path class="st75" d="M36.66,45.22c-.36,0-.65-.2-.96-.34-.26-.11-.42-.13-.64.15-.33.41-.38.37-.54-.34.01-.75.24-1.37,1.05-1.6,0,.09.02.18.02.27.17.73.98,1.09,1.07,1.87Z"/>
  <path class="st75" d="M36.92,45.23c.03-.12.07-.23.1-.35.25.2,0,.25-.1.35h0Z"/>
  <path class="st75" d="M36.93,45.76c-.22-.11-.26-.31-.27-.53.09,0,.18,0,.26,0h0c0,.18,0,.35,0,.53Z"/>
  <path class="st175" d="M68.21,20.08c.44-.55,1.07-.67,1.78-.43,1.31.45,2.39,1.4,3.79,1.67.23.04.48.27.45.58-.03.33.15.48.41.59.36.7,0,1.14-.64,1-1.94-.43-3.86-.98-5.44-2.28-.33-.27-.68-.62-.36-1.13Z"/>
  <path class="st152" d="M68.21,20.08c.02.5.36.77.73,1.03,1.46,1.03,3.15,1.54,4.82,2.1.62.21.92-.08.89-.72.38.16.59.53.91.77.49.36.09.57-.11.83-1.71-.38-3.42-.77-5.11-1.26-.95-.28-1.77-.78-2.66-1.14-.21-.12-.26-.31-.27-.53,0-.22-.04-.42-.25-.54-.04-.06-.08-.11-.13-.17,0,0,.04-.09.04-.09,0,0-.09-.04-.09-.04,0,0-.1.03-.1.03-.51-.55.21-.78.38-.85.42-.19.09.39.32.46.2.07.42.08.63.12Z"/>
  <path class="st4" d="M67.14,20.36c0,.09,0,.17.01.26-.09-.09-.18-.18-.27-.26h0c.09-.08.17-.07.26,0Z"/>
  <path class="st156" d="M50.3,72.26c.36-.27.48-.78.33-1.04-.31-.5.03-.94-.05-1.39,1.25.54,2.76.55,3.68,1.78,0,.13-.02.26-.05.39-.07.19-.17.36-.3.51-.09.09-.2.16-.32.2-.59.21-1.11-.23-1.61-.22.45.45,1.86-.19,1.53,1.31-.07.18-.18.34-.33.46-.15.12-.32.22-.51.28-.19.05-.39.04-.58,0-.5-.16-1.02-.28-1.47-.57-.42-.51-.65-1.06-.32-1.71Z"/>
  <path class="st15" d="M50.3,72.26c.19.52.12,1.14.53,1.59,1.01.99.68,2.48,1.39,3.48,0-.36.02-.86.27-1.31.19-.34.41-.46.68-.05.33,1.15.11,2.33.24,3.5.04.4-.05.98-.7,1.06-.03-.3.09-.66-.13-.89-.87-.92-1.3-2.11-2.02-3.12-.04-.04-.09-.07-.13-.11-.22-.33-.29-.71-.43-1.07-.05-.1-.1-.2-.15-.3-.03-.05-.05-.1-.08-.15-.12-.26-.22-.53-.02-.8,0-.09,0-.17,0-.26-.08-.09-.16-.19-.24-.28.08-.55.23-1.05.79-1.31Z"/>
  <path class="st161" d="M48.69,70.1c.08,0,.17,0,.25,0,.05.07.06.15.04.24.06.36-1.02.58-.14,1.07.09.05-.07.2-.18.27-.35.22-.7,0-1.04.03-.97.6-1.77.39-2.41-.53h0q-.52-2.14,1.72-2.27c.22.05.36.18.41.4,0,.09,0,.17,0,.26-.06.06-.09.12-.06.19.02.06.04.09.07.09h0c.22.24.4.6.8.26h0c.18-.14.36-.15.54,0Z"/>
  <path class="st156" d="M50.58,69.57c-.1-.57.16-1.08.27-1.62.1-.09.27-.19.36-.12,1.22.93,2.63.88,4.05.81.11.08.19.18.23.31,0,.27-.08.52-.16.77-.15.39-.36.73-.73.95-1.58.51-2.78-.36-4.02-1.1Z"/>
  <path class="st161" d="M49.75,74.11c.09.27.19.54.28.81-.39.76-1.12.34-1.69.5-1.05-.19-2.47-2.14-2.16-3.03.26-.72.86-.61,1.44-.41.11.19.17.5.33.56.51.2.91.29.38.96-.23.29.01.83.32,1.05.49.35.79-.13,1.1-.42Z"/>
  <path class="st105" d="M47.62,71.97c-.27.01-.55-.02-.8.05-.39.12-.64.4-.32.8.29.37.41.8.51,1.22.23.92.8,1.22,1.67,1.14.15.51-.2.79-.51,1.08-.36.13-.56-.11-.76-.33-.26-.37-.66-.62-.9-1.01-.06-.09-.1-.2-.13-.3-.05-.25.14-.54-.11-.76-.38-.88-1.02-1.66-1.07-2.68.74.47,1.55.62,2.41.53,0,.09,0,.18,0,.27Z"/>
  <path class="st108" d="M55.38,69.03c-.16-.21-.35-.18-.59-.12-1.27.29-2.45.16-3.45-.78-.12-.11-.33-.12-.49-.17.02-.41-.39-.51-.56-.79-.1-.27.02-.33.26-.27.09,0,.18,0,.28.01.66.94,1.58,1.33,2.7,1.33.61,0,1.23,0,1.84,0,.09.18.18.35.27.53.08.26-.03.33-.27.28Z"/>
  <path class="st163" d="M50.58,69.57c1.02.09,1.84.81,2.87.94.43.06.77.03,1.14-.14.35.71.32,1.3-.55,1.6.02-.44-.08-.76-.62-.82-1.08-.13-2-.66-2.85-1.32,0-.09,0-.17,0-.26Z"/>
  <path class="st198" d="M50.56,66.89c-.09.09-.17.18-.26.27-.21-.14-.35-.39-.17-.54.25-.21.33.11.44.28Z"/>
  <path class="st161" d="M49.51,73.57c.08.09.16.19.24.28-.08-.09-.16-.19-.24-.28Z"/>
  <path class="st154" d="M60.46,19.01c.38.56.09,1-.25,1.44-.48.63-1.2.9-1.88,1.23-1.69.8-3.49,1.28-5.28,1.8-.83.24-1.67.08-2.49-.19.57-.85,1.5-1.4,1.99-2.32.19-.36.6-.33.92-.45.27-.11.62.23.84-.14.27-.18.53-.36.8-.54,1.36-.26,2.61-.89,4.02-1.04.53-.06.89.06,1.32.22Z"/>
  <path class="st201" d="M26.21,74.66c-.08-.01-.16-.02-.25-.03-.1-.67.44-.83.87-.98,2.06-.75,3.65-2.13,5.12-3.68.32-.34.61-.79,1.2-.66,0,.17.02.35.03.52-.21,1-1.08,1.46-1.72,2.09-.97.95-2.17,1.63-3.35,2.29-.57.32-1.22.5-1.9.45Z"/>
  <path class="st183" d="M33.16,69.31c-.9.58-1.47,1.49-2.27,2.17-1.18,1-2.38,1.93-3.88,2.41-.41.13-.85.28-1.04.74-.91-.69-1.92-1.24-2.68-2.12.04-.05.09-.09.13-.14,3.18-.9,5.9-2.51,7.89-5.21.13.11.37.23.36.33-.04,1.06.59,1.43,1.5,1.55,0,.09,0,.18-.01.27Z"/>
  <path class="st183" d="M33.45,69.84s.05-.11.06-.11c.09.02.07.06-.06.1h0Z"/>
  <path class="st63" d="M67.95,58.33c.68.72,1.36,1.44,2.03,2.17.42.46.9.81,1.46,1.06-.24.43-.6.86-.03,1.31-.19.11-.24.31-.29.5-.07.09-.15.17-.22.26-.08.04-.16.08-.24.12-.02-.35-.16-.6-.56-.61-1.57-.09-2.12-1.56-3.29-2.36.93,1.18,1.97,2.06,3.27,2.63-.38.43-1.01.54-1.32,1.06-1.06.28-1.82-.28-2.57-.9-1.2-1-1.93-2.37-2.79-3.64-.21-.17-.1-.37.07-.4.58-.08,1.23-.27,1.43.61.03.15.24.28.44.19.18-.09.21-.27.15-.45-.12-.38-.26-.75-.38-1.13-.06-.18,0-.36.15-.47.18-.14.36-.04.44.12.31.65.68.75,1.2.21.21-.22.39.03.58.11.39.16.44-.11.49-.39Z"/>
  <path class="st57" d="M63.41,59.94c.51.29.86.73,1.17,1.22.39.63.87,1.2,1.38,1.75.78.84,1.67,1.41,2.81,1.57-.11.25-.29.43-.55.53-2.43-.63-3.77-2.43-4.8-4.54,0-.18,0-.36,0-.54Z"/>
  <path class="st117" d="M46.55,74.65c.27.45.86.57,1.07,1.07-.09.77.84.86.99,1.47.11.14.22.3.3.46.13.32.36.67.03.97-.23.21-.38-.06-.52-.21-1.33-1.05-2-2.54-2.66-4.03.35,0,.51-.18.52-.52.33.19.27.5.28.8h0Z"/>
  <path class="st35" d="M48.42,78.41c.29.08.64.25.39-.33-.06-.15-.08-.32-.12-.48.15-.16.34-.2.55-.18.36.09.54.37.72.67.2.53.64,1.01.35,1.65-.09.09-.18.18-.28.27-.18-.17-.36-.34-.55-.51-.38-.24-.86-.34-1.06-.82,0-.09,0-.17,0-.26Z"/>
  <path class="st58" d="M39.87,61.27c-.71.59-1.51.86-2.67.74.92-.71,1.75-.88,2.67-.74h0Z"/>
  <path class="st190" d="M20.1,70.63c.08.08.16.16.24.24h-.12s-.12,0-.12,0c0-.08,0-.16,0-.24Z"/>
  <path class="st200" d="M74.37,31.58c.19-.32.51-.26.81-.26.09,1.17-.58.05-.81.26Z"/>
  <path class="st172" d="M79.45,64.48c-.18,1.97,0,3.93.29,5.88,0,.09,0,.18,0,.27-.18.35-.44.62-.8.79-.08-1.32-.36-2.61-.3-3.94.05-1.08.25-2.08.82-3Z"/>
  <path class="st172" d="M79.73,63.69c0,.22-.06.42-.26.54,0-.23.04-.43.26-.54Z"/>
  <path class="st61" d="M70.08,63.42c-.5.02-.94-.06-1.37-.39-1.04-.8-2.08-1.59-2.48-2.95,1.46.81,2.36,2.32,3.86,3.06,0,.09-.01.19-.02.28Z"/>
  <path class="st31" d="M64.21,75.43c-.49-.08-.77.27-1.07.56-.9-1.36-.75-2.78-.22-4.22.28-.42.63-.69,1.16-.67.91,1.42.53,2.87.13,4.33Z"/>
  <path class="st140" d="M66.34,69.02c.21.16.23.34.12.58-.8,1.59-1.02,3.29-.91,5.05-.3-.01-.54.16-.8.27-.58-1.55-.24-3.07.18-4.58.12-.5.41-.88.84-1.16.12-.07.24-.12.38-.15.07,0,.14,0,.2,0Z"/>
  <path class="st129" d="M65.27,70.1c-.33,1.59-.68,3.18-.53,4.82-.03.33-.17.54-.54.51,0-1,.01-2.01,0-3.01,0-.42.15-.9-.26-1.24.13-.75.61-1.06,1.33-1.08Z"/>
  <path class="st39" d="M63.14,71.71c-.37,1.42-.37,2.85,0,4.27-.18.31-.36.03-.53,0-.19-.83-.61-1.62-.48-2.52.03-.23-.05-.53-.32-.68.13-.75.6-1.08,1.34-1.07Z"/>
  <path class="st140" d="M65.65,75.59s-.07.05-.11.05c-.03,0-.06-.04-.09-.07.08-.08.14-.07.2.02Z"/>
  <path class="st113" d="M66.62,45.23q-1.19-.95-.66-2c.58.4,1.15.79,1.72,1.18-.46.13-.49.82-1.06.81Z"/>
  <path class="st3" d="M78.12,63.41c-.49-.01-.79-.33-1.15-.73.69-.13,1.21-.16,1.15.73h0Z"/>
  <path class="st13" d="M76.78,63.69c-.09.09-.18.18-.27.27l.27-.27Z"/>
  <path class="st131" d="M29.16,35.34c.09.17.18.35.27.52h0c.08.11.21.2.22.31.1,1.29.16,1.35,1.49,1.38.33,0,.44.72.9.26q-.41.82.05,1.53c-.46.56-.27,1.62-1.33,1.71-.46-.27-.67-.69-.71-1.2.01-.11.05-.22.11-.32.1-.12.21-.23.32-.35.05-.07.1-.14.15-.21.05-.06.05-.13,0-.19-.68.58-.91,1.71-2.1,1.63q-.7-1.06-.28-3.45c-.19.29-.24.63-.46.87-.14.14-.29.26-.5.16-.74.09-1.5.15-2.08.72-.12.11-.31.18-.48.2-.38.05-.7-.02-.81-.47-.1-.4.12-.62.45-.68.45-.08.85-.16,1.08-.64.19-.4.17-.65-.26-.85-.36-.16-.75-.23-1.08-.5-.64-.51-.76-.86-.12-1.34.34-.25.32-.46.36-.74.89.32,1.82.54,2.5,1.29.39.43.89.67,1.52.38.22-.1.51-.03.77-.04Z"/>
  <path class="st75" d="M30.77,40.94c.63-.07.47-.71.74-1.05.18-.22.21-.55.59-.56.91.7,1.43,1.79,2.41,2.42.02.32.16.43.47.29.18-.09.37-.16.56-.24-.11.3-.09.66.04,1.01-.82.41-.88,1.56-1.8,1.87-.88.14-1.52-.53-2.32-.69-.5-.1-.31-.73-.32-1.16.18-.76.74-1.26,1.17-1.85-.25.2-.49.45-.86.47-.33-.04-.71,0-.68-.51Z"/>
  <path class="st120" d="M29.17,63.95c.08,0,.17,0,.25,0,.38,1.15,1.05,2.15,1.62,3.2-.61,1.73-2.18,2.49-3.54,3.43-1.28.89-2.78,1.33-4.2,1.91h-.01c-.34-.01-.72.04-.81-.44-.13-.64-.58-1.04-1.06-1.42h.01c1.15-.77,2.36-1.41,3.5-2.18,1.77-1.19,3.13-2.72,4.25-4.51Z"/>
  <path class="st78" d="M23.29,72.5c0-.4.29-.48.6-.58,1.9-.62,3.6-1.61,5.21-2.81.76-.57,1.22-1.37,1.94-1.95.09,0,.18,0,.27,0-.07.56-.36.98-.72,1.39-1.67,1.86-3.81,2.98-6.1,3.87-.39.15-.79.08-1.19.07Z"/>
  <path class="st148" d="M27.29,38c.09-.09.18-.18.27-.27.79.18.51.74.3,1.1-1.12,1.88-2.41,3.62-4.32,4.8-.09-.09-.18-.18-.27-.26,0-.55.42-.86.77-1.17,1.24-1.07,2.13-2.42,3.1-3.71.1-.13.1-.33.15-.49Z"/>
  <path class="st137" d="M23.54,43.63c.32-.6.85-1.02,1.34-1.46,1.06-.96,1.79-2.18,2.69-3.27.31-.37.42-.78,0-1.17.26-.56.51-1.11.81-1.75.36.26.34.63.22.83-.4.66.11,1.44-.39,2.13-.18.25.27.96.43,1.46.4.6-.15.87-.43,1.22-.74.89-1.86,1.36-2.36,2.08,1.52-1.01,2.81-2.71,4.4-4.1.02.51.36.89.54,1.34.19.32.51.26.8.27.01.04.05.1.04.12-1.25,2.29-3.19,3.69-5.66,4.42-.89.16-1.16-.62-1.62-1.08-.17-.17-.27-.42-.52-.52,0,0-.1-.02-.1-.02-.06-.04-.11-.08-.14-.14,0,0-.02-.1-.02-.1,0-.08,0-.17,0-.25Z"/>
  <path class="st137" d="M23.82,44.15c-.37.44-.86.23-1.3.24-.15-.65-.11-.72.3-.52.29.15.49.13.73.01h0c.09.09.17.19.27.27h0Z"/>
  <path class="st147" d="M33.72,44.43c.46-.22.73-.62.93-1.07.18-.43.5-.59.94-.54,0,.09-.01.18-.02.27-.35.53-.7,1.07-1.05,1.6-1.38,1.87-3.25,3.09-5.36,3.97-.16.06-.35.04-.53.06-.09,0-.18-.01-.26-.02-.32-.71.31-.87.69-1.02,1.82-.72,3.19-2.05,4.66-3.25Z"/>
  <path class="st5" d="M47.09,66.36c-.45.81-.1,1.39.54,1.89.08.06.11.11.08.17-.03.05-.06.08-.09.08h0c-.49.33-1.04.46-1.62.52-.99.09-1.57-.41-1.87-1.32h0c.04-.71.25-1.12,1.12-1.18.6-.04,1.21-.15,1.83-.17Z"/>
  <path class="st105" d="M44.14,67.7c.12.04.29.04.35.12.59.87.98,1.1,1.86.87.43-.11.84-.21,1.28-.19,0,.09,0,.18,0,.26-.15.14-.21.44-.52.28-.32.14-.64.28-1.01.26-.3-.02-.6,0-1.03,0,.43.68.09,1.28.15,1.88-.61-1.08-1.09-2.2-1.07-3.48Z"/>
  <path class="st177" d="M48.15,70.1c-.44.45-.69.31-.8-.26.09,0,.18,0,.27,0,.11.21.31.26.53.26Z"/>
  <path class="st177" d="M47.1,69.04c.17-.09.34-.19.52-.28,0,.22-.05.42-.27.54-.08-.09-.17-.17-.25-.26Z"/>
  <path class="st177" d="M48.69,70.1c-.18,0-.36,0-.54,0,.18-.27.36-.27.54,0Z"/>
  <path class="st105" d="M47.62,68.5c0-.08,0-.17,0-.25.13,0,.27-.02.35.12-.12.04-.23.09-.35.13Z"/>
  <path class="st177" d="M47.35,69.84c-.18-.09-.17-.18,0-.28,0,.09,0,.18,0,.28Z"/>
  <polygon class="st177" points="47.62 69.83 47.69 69.72 47.73 69.77 47.62 69.83"/>
  <path class="st27" d="M33.72,44.43c-.86,1.5-2.26,2.36-3.72,3.16-.58.32-1.36.35-1.64,1.11-.49-.34-.72-.88-1.07-1.33-.27-.35-.76-.55-.8-1.08-.09-.26.06-.42.25-.54,1.41-.82,2.77-1.7,3.96-2.82.16-.15.37-.22.6-.12.22.15.23.34.14.57-.12.35.09.52.39.48.67-.08,1.19.16,1.64.62.03.03.16-.04.24-.07Z"/>
  <path class="st185" d="M31.3,42.82c-1.42,1.41-3.11,2.45-4.81,3.48-.25-.1-.43-.28-.53-.53,2.13-1.2,4.2-2.47,5.62-4.55.43-.16.62-.6,1.02-.92.1,1.18-.84,1.73-1.3,2.52Z"/>
  <path class="st209" d="M54.04,71.97c.37-.47.52-1.01.55-1.6.28-.2.37-.53.53-.81.16-.14.11-.39.26-.54h0c.09-.09.18-.19.27-.28.36-.69.6-1.43.8-2.17.07-.26.17-.49.36-.69.13-.13.26-.27.45-.14.25.17.07.39.04.59.49.78,0,1.41-.31,2.06-.09.17-.2.32-.3.48-.27.53-.6,1.05-.74,1.64-.11.43-.23.85-.38,1.27-.92,2.2-1.72,4.43-1.75,6.68.66-1.17,1.54-2.28,2.94-2.9.59.19.22.62.23.95-1.02,1.13-2.19,2.12-3.1,3.36-.22.3-.4.56-.36.93.02.54-.14.9-.79.74,0-.34-.01-.68-.02-1.01.34-.47.43-.94.35-1.56-.14-1.07-.07-2.17-.09-3.25,0-.06-.02-.12-.03-.19-.16-.68.26-1.2.49-1.77.25-.38,0-.9.34-1.25h0c.16-.15.11-.39.27-.54h0Z"/>
  <path class="st80" d="M63.4,21.42c-.21-.11-.25-.31-.26-.53.22.11.25.31.26.53Z"/>
  <path class="st203" d="M50.31,79.73c-.18-.53-.36-1.07-.54-1.6-.29-.81-.15-1.41.8-1.6h0c-.03.36.1.68.23,1.01.19.46-.11,1.67-.49,2.2Z"/>
  <polygon class="st111" points="33.45 57.26 33.51 57.15 33.56 57.2 33.45 57.26"/>
  <path class="st104" d="M56.99,76.52c-.43-.27-.07-.54,0-.81-.17-.48.25-.68.46-.98.07-.08.15-.15.23-.22.08-.07.16-.13.25-.19.09-.06.18-.11.27-.15.13-.08.26-.16.38-.26.12-.11.25-.2.38-.29.33-.21.61-.48.89-.77.64-.53,1.3-1.05,1.96-1.56.1-.07.2-.13.3-.19.1-.06.2-.12.3-.18.5-.28.93-.66,1.33-1.07.08-.08.17-.16.26-.23.34-.22.62-.49.83-.84.1-.15.21-.28.33-.41.12-.13.24-.26.37-.38.27-.37.73-.38,1.11-.57.17-.1.35-.19.52-.29.19-.12.13-.38.29-.51h0c.08-.1.17-.19.26-.27,0,0,0,0,0,0,.4.05.55.18.32.61-.44.79-1.27,1.24-1.67,2.05,0,0,0,0,0,0-.09.09-.18.18-.27.26-.35.18-.62.45-.8.81-.44.36-.89.72-1.33,1.08-.19.29-.53.36-.8.54-.45.36-.89.71-1.34,1.07-.25.11-.43.28-.54.53-.21.27-.5.41-.81.52-1.24.79-2.34,1.76-3.47,2.69Z"/>
  <path class="st196" d="M60.46,73.83c.16-.34.43-.52.81-.52.12.99-.37,1.88-.43,2.84,0,.09-.16.21-.27.24-.22.06-.32-.1-.34-.29-.04-.39-.03-.78.09-1.17.1-.35.42-.7.15-1.1Z"/>
  <path class="st21" d="M58.05,59.67c0,.18,0,.35,0,.53-2.02.11-3.97-.03-5.51-1.54,1.8.54,3.57,1.18,5.51,1.01Z"/>
  <path class="st92" d="M58.06,60.47c.22.13.27.31.12.51-.11.16-.25.21-.4.02.09-.18.19-.36.28-.53Z"/>
  <path class="st85" d="M55.66,66.36c-.01.22-.07.42-.27.55-1.34.04-2.63-.1-3.73-.97-.14-.11-.26-.24-.37-.37-.05-.06-.06-.16-.14-.38,1.47.77,2.95,1.16,4.51,1.17Z"/>
  <path class="st198" d="M51.36,63.42c-.09-.09-.17-.18-.26-.27.09.09.17.18.26.27Z"/>
  <path class="st180" d="M70.79,38.09c.08.05.13.09.18.12-.08.09-.15.19-.24.27-.11.1-.16.07-.1-.07.04-.11.1-.21.15-.32Z"/>
  <path class="st210" d="M62.07,71.44c-.72.52-1.35,1.17-2.14,1.61-.09.11-.2.12-.32.04-1.3-1.32-2.25-2.86-2.9-4.6.14-.73.68-1.35.59-2.15.38,0,.62-.2.77-.53.67.03.6.65.83,1.03.84,1.44,1.51,2.96,3.48,3.29,1.03.17.36.69-.03,1.04h0c-.1.08-.19.16-.27.26Z"/>
  <path class="st188" d="M65.28,68.5c-.08.09-.17.19-.25.28-.31.41-.65.78-1.08,1.06h0c-.89.55-1.79.36-2.64-.05-1.51-.74-2.89-3.23-2.72-4.76.16-.77.8-1.15,1.34-1.61h0c.14.16.41.06.53.27.32.19.26.51.27.81-.6,1.86,1.44,3.96,3.49,3.6.38.06.78.08,1.06.41Z"/>
  <path class="st91" d="M58.59,65.02c.27,1.62,1.19,2.89,2.26,4.06.85.92,2,.77,3.09.76-.3.72-.89,1.11-1.6,1.34.12-.23.23-.45.39-.77-2.48.13-3.18-1.79-4.14-3.4-.22-.37-.19-.87-.53-1.19.14-.28.22-.61.52-.79Z"/>
  <path class="st0" d="M64.22,68.23c-1.31.43-2.22.14-3.05-1.09-.61-.91-.96-1.94-1.13-3.03.43-.13.45.31.69.37-.02,1.57,1,2.47,2.14,3.29.52.37.99.14,1.45-.19-1.92-2.82-2.44-3.58-2.1-5.25.66,2.01,1.46,3.7,3.09,4.83.3.31.77-.12,1.05.26.09,0,.18,0,.27,0-.35.27-.7.54-1.05.82-.45-.31-.9.11-1.35,0Z"/>
  <path class="st130" d="M66.35,67.42c-.36-.03-.78.14-1.05-.26.35-.09.7-.18,1.05-.27h0v.53Z"/>
  <path class="st130" d="M66.88,66.36c-.1.25-.28.43-.53.54h0c0-.35.19-.53.53-.53h0Z"/>
  <path class="st0" d="M60.46,63.68c-.22,0-.42-.05-.53-.26.29-.15.54-.2.53.26Z"/>
  <path class="st176" d="M67.43,66.64c0,.22-.06.41-.29.51.02-.21.07-.41.29-.51Z"/>
  <path class="st130" d="M66.88,66.36s.05-.11.06-.11c.09.02.07.06-.06.11h0Z"/>
  <path class="st176" d="M67.69,66.36c-.09.09-.17.18-.26.27.09-.09.17-.18.26-.27Z"/>
  <path class="st207" d="M81.86,65.55v-.54c.09,0,.18,0,.27,0h0c0,.22-.05.42-.27.53h0Z"/>
  <path class="st207" d="M81.86,65.55c-.03.12-.07.23-.1.35-.25-.2,0-.25.1-.35h0Z"/>
  <polygon class="st207" points="81.86 65.02 81.75 64.96 81.8 64.91 81.86 65.02"/>
  <path class="st24" d="M29.17,63.95c-.43,1.5-1.37,2.62-2.57,3.59-1.21.98-2.55,1.76-3.82,2.64-.41.28-.84.5-1.36.45-.02-.63.51-.77.93-1,2.51-1.38,4.83-2.96,6.24-5.56.15-.28.32-.44.58-.12Z"/>
  <path class="st23" d="M21.94,67.69s.11.05.11.06c-.02.09-.06.07-.11-.06h0Z"/>
  <path class="st89" d="M73.84,52.45c-.03.12-.07.23-.1.35-.25-.2,0-.25.1-.35h0Z"/>
  <path class="st74" d="M67.14,20.36c-.09,0-.17,0-.26,0,.09-.19.18-.18.26,0Z"/>
  <path class="st93" d="M52.98,75.72c-.59.62-.32,1.5-.67,2.26-.71-.97-1.02-2.02-1.19-3.12-.05-.36-.12-.69-.28-1.01.48.1.96.18,1.34.53.17.4.35.14.53,0,.09-.09.18-.18.27-.27.2.53.19,1.07,0,1.6h0Z"/>
  <path class="st163" d="M53.78,72.51c-.07.45.15.96-.27,1.34-.09.12-.18.12-.27,0-.01-.34.3-.72-.41-.86-.63-.13-1.43-.05-1.97-.85,1.07-.07,1.96.43,2.91.38Z"/>
  <path class="st15" d="M52.71,74.38c-.03.36-.22.54-.59.51-.18-.01-.37-.07-.35-.28.02-.19.23-.21.4-.24.18,0,.36,0,.53,0Z"/>
  <path class="st15" d="M53.24,73.85c.09,0,.18,0,.27,0-.3.59-.1,1.32-.54,1.87,0-.53,0-1.07,0-1.6.09-.09.18-.18.27-.27Z"/>
  <path class="st163" d="M54.04,71.97c0,.22-.05.42-.27.54,0-.22.05-.42.27-.54Z"/>
  <path class="st158" d="M50.56,76.52c-.4.47-.87.9-.8,1.6-.18-.18-.36-.36-.53-.54-.14-.13-.33-.19-.48-.3-.07-.06-.13-.13-.18-.21-.05-.08-.09-.16-.12-.24-.04-.08-.09-.15-.13-.23-.05-.07-.09-.15-.13-.23,0,0-.02-.13-.02-.13-.04-.47.38-.7.53-1.07.49.15.86-.36,1.34-.27h0c.09.09.17.18.26.26.04.46.35.87.27,1.35Z"/>
  <path class="st161" d="M50.29,75.18c-.09-.09-.17-.17-.26-.26.09.09.17.17.26.26Z"/>
  <path class="st108" d="M55.38,69.03c0,.22-.05.42-.26.54,0-.22.05-.42.26-.54Z"/>
  <path class="st35" d="M48.43,77.32c-.3-.36-.61-.71-.9-1.07-.16-.2-.12-.39.1-.54.1.26.28.43.54.53h0c.08.1.18.18.27.27h0c.15.15.1.4.27.53h0c.06.24.01.37-.27.27Z"/>
  <path class="st105" d="M48.43,77.32c.09-.09.18-.18.27-.27.25.1.43.28.53.54-.18,0-.36,0-.54,0-.09-.09-.18-.18-.26-.27Z"/>
  <path class="st84" d="M46.55,74.65s-.05.11-.06.1c-.09-.02-.06-.06.06-.1h0Z"/>
  <path class="st176" d="M66.07,69.29c.09-.09.18-.17.27-.26-.09.09-.18.17-.27.26Z"/>
  <path class="st56" d="M30.24,39.61c-.34.84-1,1.43-1.64,2.03-.93.88-1.89,1.73-2.86,2.56-.25.22-.54.46-1.07.31.69-.73,1.35-1.39,2.08-1.97.75-.59,1.59-1.13,1.88-2.13.79-.52,1.37-1.23,1.89-2,.11-.17.29-.39.54-.2.24.18.04.39-.02.59-.1.08-.18.18-.26.27h0c-.16.14-.11.39-.27.53-.09,0-.18,0-.27,0Z"/>
  <path class="st191" d="M29.44,35.86c-.03.2-.03.42-.32.4-.03,0-.08-.05-.08-.08-.02-.3.2-.29.4-.33h0Z"/>
  <path class="st137" d="M30.5,39.61c0-.22.05-.42.27-.53,0,.22-.05.42-.27.53Z"/>
  <path class="st137" d="M30.77,39.07c.09-.09.17-.18.26-.27-.09.09-.17.18-.26.27Z"/>
  <path class="st81" d="M23.82,44.16c-.09-.09-.18-.18-.27-.27.09.09.18.18.27.27Z"/>
  <path class="st49" d="M57.79,74.65c-.27.35-.54.7-.81,1.06-1.07.43-1.69,1.36-2.4,2.18-.29.33-.53.67-1.07,1,0-2.69.67-5,1.87-7.19.88.92,1.73,1.87,2.42,2.95Z"/>
  <path class="st136" d="M57.79,74.65c-1.07-.76-1.92-1.71-2.42-2.95-.08-.48.24-.87.28-1.33.27-.44.62-.39.8,0,.55,1.24,1.44,2.19,2.4,3.1.09.09.06.25,0,.37-.09.09-.19.17-.28.26-.08.09-.17.17-.26.26-.08.02-.16.02-.24.02-.11.08-.21.15-.29.26h0Z"/>
  <path class="st143" d="M56.71,68.49c.29.03.44.17.56.45.59,1.31,1.07,2.7,2.41,3.5.23.14.05.4-.02.6-.27.47-.61.36-1,.16-1.32-.7-2.43-2.89-2.21-4.43.09-.09.17-.18.26-.27Z"/>
  <path class="st159" d="M56.45,68.76c.14,1.61,1,2.86,2.05,4,.31.34.69.55,1.16.28.09,0,.18,0,.27,0-.24.43-.53.77-1.07.8-.15-.42-.58-.5-.87-.75-.72-.64-1.32-1.36-1.62-2.31-.1-.32-.23-.71-.72-.42.12-.61.49-1.09.79-1.61Z"/>
  <path class="st37" d="M64.22,68.23c.18-.12.35-.26.53-.37.45-.28.73-.15.82.38-.1.09-.19.17-.29.25-.37-.04-.79.14-1.06-.26Z"/>
  <path class="st91" d="M63.94,69.84c.26-.46.6-.83,1.08-1.06-.11.61-.45.99-1.08,1.06Z"/>
  <path class="st91" d="M62.07,71.44c.09-.09.18-.17.27-.26-.09.09-.18.17-.27.26Z"/>
  <path class="st49" d="M58.32,74.37c.09-.09.17-.17.26-.26-.09.09-.17.17-.26.26Z"/>
  <path class="st49" d="M57.79,74.65c.1-.09.2-.17.29-.26-.1.09-.2.17-.29.26Z"/>
  <path class="st105" d="M48.7,77.05c-.22-.11-.26-.31-.27-.53.22.11.26.31.27.53Z"/>
  <path class="st105" d="M48.43,76.52c-.09-.09-.18-.18-.27-.27.09.09.18.18.27.27Z"/>
</svg>