<?xml version="1.0" encoding="UTF-8"?>
<svg id="DESIGNED_BY_FREEPIK" xmlns="http://www.w3.org/2000/svg" version="1.1" viewBox="0 0 100 100">
  <!-- Generator: Adobe Illustrator 30.3.0, SVG Export Plug-In . SVG Version: 2.1.3 Build 182)  -->
  <defs>
    <style>
      .st0 {
        fill: #ff92de;
      }

      .st1 {
        fill: #ff9dd8;
      }

      .st2 {
        fill: #aac585;
      }

      .st3 {
        fill: #a5ad8e;
      }

      .st4 {
        fill: #ff7ddb;
      }

      .st5 {
        fill: #ff81db;
      }

      .st6 {
        fill: #ffa0db;
      }

      .st7 {
        fill: #ff76da;
      }

      .st8 {
        fill: #aea48e;
      }

      .st9 {
        fill: #ff7ed3;
      }

      .st10 {
        fill: #ffdab4;
      }

      .st11 {
        fill: #cd89a2;
      }

      .st12 {
        fill: #ffe1bf;
      }

      .st13 {
        fill: #ffe6cb;
      }

      .st14 {
        fill: #ffa5db;
      }

      .st15 {
        fill: #ffd4d3;
      }

      .st16 {
        fill: #ff8adf;
      }

      .st17 {
        fill: #ff86dd;
      }

      .st18 {
        fill: #b69f9b;
      }

      .st19 {
        fill: #ff9ee4;
      }

      .st20 {
        fill: #ff99de;
      }

      .st21 {
        fill: #c3cda1;
      }

      .st22 {
        fill: #ff95e1;
      }

      .st23 {
        fill: #ff8fd7;
      }

      .st24 {
        fill: #ffc3d9;
      }

      .st25 {
        fill: #cbc4ad;
      }

      .st26 {
        fill: #ffa9de;
      }

      .st27 {
        fill: #c2cda0;
      }

      .st28 {
        fill: #ff96bd;
      }

      .st29 {
        fill: #b5b19f;
      }

      .st30 {
        fill: #ff76d3;
      }

      .st31 {
        fill: #ffa9e0;
      }

      .st32 {
        fill: #ff7edf;
      }

      .st33 {
        fill: #ffcfd6;
      }

      .st34 {
        fill: #ffc6d7;
      }

      .st35 {
        fill: #ffe5c1;
      }

      .st36 {
        fill: #ffdeba;
      }

      .st37 {
        fill: #cbc1b9;
      }

      .st38 {
        fill: #ff94e4;
      }

      .st39 {
        fill: #ff96db;
      }

      .st40 {
        fill: #ff6dd9;
      }

      .st41 {
        fill: #8ea174;
      }

      .st42 {
        fill: #ff71cf;
      }

      .st43 {
        fill: #ffd5d2;
      }

      .st44 {
        fill: #a6b390;
      }

      .st45 {
        fill: #ffd0bd;
      }

      .st46 {
        fill: #ffded2;
      }

      .st47 {
        fill: #ff80db;
      }

      .st48 {
        fill: #ffafe1;
      }

      .st49 {
        fill: #ffdad2;
      }

      .st50 {
        fill: #ff5cca;
      }

      .st51 {
        fill: #ff7ed6;
      }

      .st52 {
        fill: #ffcac7;
      }

      .st53 {
        fill: #ffe3af;
      }

      .st54 {
        fill: #9aa17d;
      }

      .st55 {
        fill: #ffced1;
      }

      .st56 {
        fill: #ae988c;
      }

      .st57 {
        fill: #ffb5ba;
      }

      .st58 {
        fill: #c0b7ac;
      }

      .st59 {
        fill: #afc885;
      }

      .st60 {
        fill: #ffc4c2;
      }

      .st61 {
        fill: #ff73db;
      }

      .st62 {
        fill: #ff7fdb;
      }

      .st63 {
        fill: #aaa089;
      }

      .st64 {
        fill: #ffbac7;
      }

      .st65 {
        fill: #c1cf9e;
      }

      .st66 {
        fill: #ffe7c2;
      }

      .st67 {
        fill: #ff6bcd;
      }

      .st68 {
        fill: #c5c2a3;
      }

      .st69 {
        fill: #bdcb9b;
      }

      .st70 {
        fill: #ffabe1;
      }

      .st71 {
        fill: #ffc8d7;
      }

      .st72 {
        fill: #9fa382;
      }

      .st73 {
        fill: #ff82d4;
      }

      .st74 {
        fill: #b3c28c;
      }

      .st75 {
        fill: #ffb5ea;
      }

      .st76 {
        fill: #95a67c;
      }

      .st77 {
        fill: #ffe0ce;
      }

      .st78 {
        fill: #ff90d1;
      }

      .st79 {
        fill: #ffb0e0;
      }

      .st80 {
        fill: #9ca983;
      }

      .st81 {
        fill: #ffbfdb;
      }

      .st82 {
        fill: #ffd2bc;
      }

      .st83 {
        fill: #ff84dd;
      }

      .st84 {
        fill: #ff8fe0;
      }

      .st85 {
        fill: #ff6cd5;
      }

      .st86 {
        fill: #b9a9a2;
      }

      .st87 {
        fill: #ffcbd9;
      }

      .st88 {
        fill: #ffb8db;
      }

      .st89 {
        fill: #ff8ce0;
      }

      .st90 {
        fill: #ffcbd7;
      }

      .st91 {
        fill: #ffb5d1;
      }

      .st92 {
        fill: #ff8bde;
      }

      .st93 {
        fill: #ffbcdc;
      }

      .st94 {
        fill: #ffdab3;
      }

      .st95 {
        fill: #ffa1d7;
      }

      .st96 {
        fill: #ff82d9;
      }

      .st97 {
        fill: #ffa9df;
      }

      .st98 {
        fill: #ffe5b2;
      }

      .st99 {
        fill: #ff5fd7;
      }

      .st100 {
        fill: #ffb4dd;
      }

      .st101 {
        fill: #ff9fbf;
      }

      .st102 {
        fill: #acae94;
      }

      .st103 {
        fill: #ff81d5;
      }

      .st104 {
        fill: #bca2a4;
      }

      .st105 {
        fill: #ff63cb;
      }

      .st106 {
        fill: #ffabd4;
      }

      .st107 {
        fill: #ff81d7;
      }

      .st108 {
        fill: #b0b29b;
      }

      .st109 {
        fill: #ffe1cb;
      }

      .st110 {
        fill: #ff6dd0;
      }

      .st111 {
        fill: #b8a395;
      }

      .st112 {
        fill: #ff9ede;
      }

      .st113 {
        fill: #b2be89;
      }

      .st114 {
        fill: #ffbadc;
      }

      .st115 {
        fill: #ff73d8;
      }
    </style>
  </defs>
  <path class="st90" d="M58.9,35.93c0,.09,0,.17,0,.26.3,1.25,0,2.54.17,3.8.09.29.13.59,0,.88-.07.13-.18.21-.32.23-.9-1.33-.93-1.4-2.48-.65-1.43.7-2.88.29-4.32.26-.84-.02-.9-.54-.2-1.3-.41.06-.71.37-1.1.42-.32.04-.62.07-.88-.17-.41-.38-.23-.88-.25-1.33-.77.17-.77-.37-.8-.88.13-1.18.69-2.25.77-3.44.01-.13.04-.25.08-.37.09-.29.18-.58.19-.88,0-.12,0-.24,0-.36,0-.25,0-.5.03-.74,0-.13.03-.26.07-.38.11-.31.23-.62.56-.78,2.57.36,4.74,1.87,7.19,2.58.27.08.41.32.38.62-.02.13-.07.25-.16.36h0c-.08.09-.18.18-.27.27h0c-.1.12-.15.26-.24.39-.06.07-.12.14-.17.22.35.63,1.06.12,1.49.48h0c.17.13.11.39.27.53Z"/>
  <path class="st108" d="M65.78,91.79h-.1s-.09.03-.09.03c-.23.23-.59.02-.81.25h0c-.21.2-.47.13-.72.12-.35-.94.79-.87.98-1.52-.18-.44-1.07-.19-1.06-.88,0-.18.21-.26.37-.3.04-.02.13.01.1-.1-.02.07-.08.09-.17.07-.54-.28-.88-.82-1.45-1.04-.3-.38-.69-.48-1.17-.41-.53.07-.94-.17-1.18-.65-.08-.1.1-.25,0-.28-.11-.03-.07.19-.17.26-.3.18-.64.47-.91.06-.24-.36.07-.66.33-.9.2-.18.45-.27.72-.3.18.02-.02-.08.13,0,1.12.57,1.82.14,2.54-.8.38-.49.49-.86.38-1.41-.19-.88-.04-1.69.65-2.32.61-.56,1.02-.41,1.18.39.02.09.02.18.02.26.03.77-.35,1.59.69,2.16.42.23.86,1.08.01,1.67-.28.2-.19.56-.07.86.28.44.5.92.96,1.21.23.15.51.26.69,0,.25-.33,0-.57-.28-.73-.37-.23-.86-.12-1.23-.38,0-1.21.65-1.78,1.78-1.54.09.06.19.13.27.19.46-.14.66-.84,1.3-.62.43.05.85.34,1.27.15,1.23-.54,1.31.22,1.29,1.1.07.66-.41,1.12-.63,1.67-.04.11-.08.21-.11.32-.09.2-.23.36-.34.55-.04.1-.09.19-.16.27-.06.08-.13.16-.2.23-.03.04-.07.07-.11.11-.07.07-.15.14-.23.2-.08.06-.17.12-.26.17-.19.08-.34.22-.5.35-.08.07-.17.12-.27.16-.25.07-.5.14-.72.31h0c-.14.17-.39.12-.54.27h0c-.22.22-.57.09-.79.32-.25.16-.59,0-.82.21h0c-.17.17-.41.14-.61.25Z"/>
  <path class="st48" d="M80.57,46.88c-.01.08-.02.16,0,.24-.23.23-.02.6-.26.83-.02.08-.02.16-.01.24-.13.17-.12.37-.13.57-.02.1-.06.19-.13.26h0c-.15.15-.13.35-.14.54-.02.1-.06.18-.12.26h0c-.25.21-.03.58-.27.8h0c-.16.14-.1.39-.26.53-.02.08-.03.16-.02.24-.14.17-.1.41-.26.57h0c-.09.09-.2.13-.33.12-.12-.04-.22-.11-.29-.22-.03-.06-.05-.11-.08-.17-.11-.37-.47-.66-.36-1.11-.73.2-1.31.6-1.89,1.08-.99.82-1.74.54-2.13-.65.86-2.82,1.88-5.59,2.52-8.48.57-.5,1.18-.55,1.83-.17.46.27.87.28.98-.36.09-.51.2-1.05.81-1.04.68.02.52.7.68,1.12.1.25.13.52.21.77.05.19.04.39-.01.58-.1.53-.11,1.06-.22,1.59,0,.48,0,.97,0,1.45.01.15-.03.27-.13.38Z"/>
  <path class="st93" d="M67.19,46.08c.01-.08.02-.16.02-.24.08-.12.13-.25.13-.39.01-.09.04-.18.08-.27.04-.09.09-.17.14-.24.03-.04.05-.08.08-.12.08-.12.11-.26.18-.39.05-.08.12-.15.19-.21h0c.09-.09.19-.15.31-.19,1.43-.86,3.28-.45,4.67-1.72.57-.53,1.85-.61,2.79-.05.09.1.14.21.18.34.03.2,0,.39-.07.57-.43.6-1.05.79-1.75.75-.93-.06-1.35.38-1.18,1.29.11.59-.19,1.11.01,1.8.28.91-.73,1.5-1.55,1.88-.65.3-1.38.31-2.1.21.04.4.83,1.17-.19,1.06-1.34-.15-2.14.77-3.2,1.14-.36.12-.65.46-1.06.52-.13.01-.25,0-.37-.05-.14-.15-.12-.34-.12-.53,0-.13.05-.24.14-.33h0c.15-.14.1-.39.27-.53h0c.08-.09.17-.18.26-.27h0c.16-.14.11-.39.28-.53h0c.15-.14.11-.39.27-.54h0c.15-.14.11-.39.27-.53h0c.08-.09.18-.18.26-.27.16-.14.11-.39.28-.53h0c.07-.07.11-.16.13-.27.02-.1.07-.19.14-.27h0c.15-.15.11-.39.26-.54h0c.16-.14.1-.39.26-.53Z"/>
  <path class="st46" d="M46.06,27.89c0-.09,0-.18,0-.26.25-.22.03-.59.26-.81,0-.09,0-.17,0-.26.25-2.96.16-5.93.05-8.89-.18-.17-.22-.38-.19-.61.03-.48.02-.96-.18-1.42-.18-.36.06-.79-.22-1.13h0c-.25-.39-.08-.83-.13-1.24-.01-.15.03-.28.12-.4.15-.03.28,0,.41.1,2.4,3.93,3.4,8.26,3.72,12.79.09,1.25.21,2.48-.16,3.7-.27.72-.81.85-1.48.67-.84-.23-1.68-.47-2.28-1.17-.06-.36-.15-.73.07-1.07Z"/>
  <path class="st87" d="M46.07,28.96c.88.13,1.57.74,2.47.91.52.09.71-.13,1-.37.53.6.11,1.25.11,1.88-.02.36-.04.72-.12,1.07-.31,1.72-.52,3.46-1.35,5.04-.47.38-1.03.27-1.54.19-.5-.08-.98-.46-1.4.17-.08.13-.44.14-.48,0-.32-.88-.76.18-1.1-.09-.14-.17-.14-.34.01-.51h0c.16-.14.1-.39.26-.54,0-.08.01-.17,0-.25.15-.15.1-.4.26-.55h0c.15-.15.13-.35.14-.55.02-.1.06-.18.13-.26h0c.16-.14.1-.39.26-.54,0-.08.01-.17,0-.25.15-.16.13-.36.13-.56.02-.1.06-.19.13-.26h0c.25-.21.02-.58.26-.8,0-.08.01-.17,0-.25.16-.15.1-.4.26-.55,0-.17,0-.35.01-.52.24-.23.02-.59.26-.82,0-.18,0-.35,0-.53.3-.31-.03-.77.27-1.08Z"/>
  <path class="st58" d="M58.9,74.19c.07.02.15.02.22,0,.52.24,1.07.07,1.61.11.21-.02.41-.02.57.16h0c.24.18.53.09.79.12.11.01.21.06.28.15h0c.17.13.38.12.58.12.1,0,.2.01.3.03.2.05.39.11.58.17.1.03.2.07.29.11.15.06.29.13.43.21.1.05.19.11.28.17.31.23.66.39,1.02.52.1.04.2.09.3.14.09.06.18.12.27.18.04.04.08.07.12.11.08.08.15.16.21.24.03.04.06.09.09.13.06.09.12.18.18.26.19.27.45.46.73.62.1.07.19.14.27.23.79.86,1.75,1.55,2.41,2.53.24.31.28.72.54,1.03.13.17.22.37.35.54.07.08.13.17.19.26.06.09.11.19.16.29.08.21.08.44.16.65.03.11.05.23.04.35-.07.34.19.72-.1,1.04-1-.27-1.17-1.56-2.21-1.79-1.79-2.71-4.59-4.03-7.38-5.37-.45-.22-.94-.22-1.43-.29-.46-.1-.98-.15-.92-.83.39-.58.22-.91-.46-.94-1.24-.06-2.46-.33-3.71-.25-.3.02-.72.06-.76-.34-.04-.42.35-.59.71-.64.48-.07.98.05,1.45-.12.34-.05.7,0,1.03-.14.31-.05.57.04.79.26Z"/>
  <path class="st49" d="M57.83,33.76c-.04-.23-.1-.44-.36-.48-1.12-.18-2.17-.57-3.12-1.16-1.25-.77-2.78-.75-3.99-1.56-.16-.16-.2-.36-.19-.57.1-.47.1-.95.08-1.43.02-.69-.07-1.38.14-2.05.74-.85,1.32-.4,1.56.36.25.78.67,1.02,1.36.87.9-.2,1.42.24,1.88.9.5.72,1.14,1.1,2.05.77.13-.02.24.02.34.11h0c.24.22.02.59.27.8,0,.09,0,.18,0,.26.16.15.09.4.26.54,0,.09,0,.18,0,.26.16.15.1.4.26.54,0,.18,0,.35,0,.53.16.16.12.37.12.57,0,.1-.02.2-.06.29-.04.09-.09.18-.14.26-.06.08-.13.15-.21.21h0c-.09.09-.18.09-.27,0Z"/>
  <path class="st77" d="M66.39,24.68c.09,0,.17.01.26.01.11.1.24.13.38.09.14-.03.28-.02.4.05.11.08.21.18.33.25.08.04.16.08.23.14h0c.14.16.39.11.54.27h0c.14.16.39.1.53.26.09,0,.17.01.26.01.08.07.17.11.27.13.1.02.19.06.27.13h0c.14.16.39.11.54.26.08,0,.17.01.25,0,.09.09.19.16.28.25.09,0,.17.01.26.01.1.09.21.14.35.14.09,0,.17.02.25.05.12.05.24.1.36.16.08.04.15.09.22.15.06.06.13.12.19.18,0,0,.09.09.09.09.06.06.13.12.21.16.08.03.16.08.22.15h0c.1.08.19.17.27.26h0c.08.06.16.11.26.15.04.02.09.05.13.07.09.05.17.11.24.18.04.03.07.07.11.1.08.07.15.14.22.21.03.04.07.08.1.12.11.25.35.36.54.52h0c.14.21.32.39.54.53h0c.16.17.16.36.1.57-.69,1.13-1.49,2-2.98,1.29-1.84-1.75-3.88-3.27-5.82-4.92-.38-.84-1.27-1.14-1.85-1.77-.06-.2-.03-.38.12-.53h0c.15-.14.35-.13.53-.13.19,0,.38-.02.53.14h0c.09.08.19.16.27.25Z"/>
  <path class="st34" d="M80.82,42.87c-.55-.43-.44-1.11-.6-1.68-.54.03-.76.24-.64.77.12.5-.09.88-.52,1.09-.39.19-.69-.07-.91-.35-.5-.62-1.05-.14-1.58-.1-.25-.2-.3-.48-.33-.76-.02-.14-.02-.28-.02-.42,0-.49,0-.97,0-1.46.13-1.25-.61-2.36-.6-3.59.8-.55,1.45.3,2.19.26.12,0,.12.21.26.23-.05-.08-.09-.15-.14-.23-.16-.23-.56-.47-.17-.75.37-.26.77-.04,1.11.18.38.24.47.76.9.95.1.07.2.14.3.2.11.21.2.43.34.62.04.4,0,.83.27,1.18.03.12.04.23,0,.35,0,.47-.06.94.15,1.39,0,.08,0,.17,0,.25.1.11.14.25.13.4-.07.49.16,1.01-.15,1.48Z"/>
  <path class="st71" d="M75.75,42.33c-.85-.2-1.68.23-2.53.05-.13-.03-.28.06-.29.2-.09,1.33-1.2.95-1.87.95-.52,0-.94-.04-1.27.38-.43.54-.95.55-1.52.3-.15-.18-.14-.35,0-.53.01-.08.02-.16.01-.25.15-.16.09-.41.25-.56,0-.08.01-.17,0-.25.24-.22.03-.59.26-.82h0c.23-.25.1-.57.14-.86.01-.13.06-.24.14-.34.1-.08.2-.14.32-.19.94-.31,1.86-.29,2.85-.11.9.16,1.73-.45,2.36-1.03.56-.51.19-1.16-.18-1.78-.42-.71-.47-1.48.55-1.85,1.26,2.12,1.53,4.34.76,6.69Z"/>
  <path class="st66" d="M31.08,14.53c0,.09,0,.17,0,.26.2.22.08.57.31.78.1.26.19.53.29.79.12.24,0,.54.21.76.13.22.16.48.3.71.05.09.1.18.14.27.08.18.08.38.14.57.04.09.06.18.08.28,0,.15.03.29.14.4h0c.14.14.13.32.14.5.05.66.23,1.27.71,1.76.07.1.11.22.12.34-.68.86-.76,1.67,0,2.59.56.69.18,1.14-.98,1.31-1.21-.83-.59-2.26-1.07-3.33-.09-.2.01-.51-.07-.77-.17-1.17-.78-2.18-1.47-3.06-.78-.99-.93-2.02-.84-3.18.07-.89-.43-1.71-.33-2.61.01-.46.05-.91.35-1.3.5-.42,1.08-.55,1.72-.45.02.19.1.37.14.57.18.63-.19,1.21-.13,1.83.04.33-.1.68.13.98Z"/>
  <path class="st33" d="M37.25,30.57c.08,0,.16,0,.24,0,.15.16.4.11.55.26h0c.09.09.18.19.26.28,0,.17,0,.35.01.52.25.46.07.95.12,1.42-.08.35-.31.61-.65.47-1.13-.46-2.39-.71-3.31-1.57-.64-.59-1.03-1.32-.67-2.25.41-.6.74-1.19.14-1.9-.2-.24-.14-.59.1-.84.91-.46,1.81-.96,2.85-1.12.13.03.25.09.35.18h0c.1.08.19.17.27.27h0c.17.14.12.39.27.53h0c.21.22.11.51.14.77,0,.11-.01.22-.03.33-.05.1-.1.2-.17.29-.03.04-.07.09-.1.13-.12.12-.24.23-.37.35h0c-.08.1-.17.19-.27.28-.06.06-.13.11-.2.16-.06.06-.13.11-.19.17,0,0-.09.09-.09.09-.06.06-.12.12-.18.18,0,0-.09.09-.09.09-.06.06-.12.12-.18.18,0,0-.09.09-.09.09-.05.05-.11.11-.16.15-.05.04-.1.09-.12.15.1.09.22.06.34.07.15.02.3.06.43.13.24.25.5.39.83.14Z"/>
  <path class="st24" d="M34.03,29.77c-.31,1.02.22,1.79.97,2.24.95.57,2.04.9,3.07,1.32.06.02.16-.06.24-.09.16.02.17.19.26.28,0,.08,0,.17,0,.25-.06.06-.09.13-.06.19.02.06.04.09.06.09h0c.23.24.25.52.15.81-.03.44-.01.87-.01,1.31.06.43.22.85,0,1.28-.46.38-.1.98-.4,1.4-.01.08-.01.16,0,.24-.1.1-.21.1-.33.03-.43-.69-.43-1.39-.13-2.15.24-.61.29-1.25-.64-1.39-.79-.12-.36-1.18-1.07-1.41-.16-.05-.08-.45-.51-.4-2.35.32-2.36.3-3.27-1.92-.56-.06-.7.84-1.34.62-.65-.7-1.3-1.4-.99-2.48,1.35.14,2.66-.37,4.01-.25Z"/>
  <path class="st25" d="M57.03,74.2c-.32.36-.74.21-1.13.24-.3.03-.64-.05-.89.52,1.26-.48,2.37.11,3.52,0,.69-.06,1.31.22,1.96.32.22.03.43.17.44.43,0,.31-.28.28-.47.36-.16.07-.32.15-.48.22-.53.94-1.39.28-2.08.44-.13.01-.25,0-.37,0-.56-.15-1.09-.02-1.63.11-.44.07-.88.04-1.32.1-.19.04-.37.07-.55.11-.38.08-.75.1-1.12-.04-.52-.66-.9-.1-1.32.15-.11.06-.23.09-.35.11-.94-.3-.84-.74-.14-1.21.58-.38,1.26-.65,1.29-1.5.03-.12.1-.22.21-.27.25-.03.5.01.74,0,.44-.05.9.11,1.32-.12.17,0,.33-.01.5-.02.25-.22.52-.24.82-.14.35.08.74-.12,1.05.17Z"/>
  <path class="st51" d="M46.86,75.78c.03-.08.03-.17.02-.25.16-.19.14-.39,0-.59,0-.42,0-.84,0-1.26.12-.79.27-1.56.42-2.34.23-.26.17-.64.38-.91h0c.23-.42.3-.91.54-1.34h0c.16-.16.11-.41.24-.59.22-.2.07-.55.31-.74h0c.14-.15.09-.4.28-.54h0c.14-.15.09-.4.28-.54h0c.07-.11.13-.24.23-.34.14-.13.16-.34.31-.46h-.01c.05-.07.1-.16.13-.24.03-.04.06-.07.09-.11.16-.11.17-.33.33-.45h-.01c.05-.07.09-.15.13-.24.03-.04.06-.07.09-.11.1-.1.18-.21.19-.35.02-.09.07-.17.13-.25.07-.07.13-.14.2-.21.03-.03.07-.07.1-.1.1-.11.12-.26.24-.35h0c.17-.27.32-.56.54-.81h0c.1-.09.21-.17.34-.23.35-.09.68-.07.98.17.23.31.17.69-.12.81-.86.35-.84,1.16-1.11,1.83-.09.09-.2.14-.32.16-.12,0-.35-.02-.34.04.07.84-.4,1.35-.99,1.83-.18.14-.18.38-.15.6,0,.06,0,.12.01.18,0,.13-.02.25-.05.37-.97,1.72-1.16,3.77-2.25,5.4.84-.25,1.16.14,1.36,1.74-.66.62-1.48.8-2.34.86-.14-.05-.22-.15-.24-.29-.02-.14.02-.27.11-.38Z"/>
  <path class="st35" d="M19.61,20.95c0-.09-.02-.18-.03-.28.25-.31.08-.68.14-1.02,0-.12.05-.23.14-.32h0c.24-.22.03-.58.26-.81h0c.22-.22.12-.49.14-.74-.02-.1-.02-.2,0-.31.03-.09.08-.18.14-.27.03-.04.06-.08.08-.12.11-.16.18-.34.24-.52.04-.09.08-.17.12-.26.07-.13.13-.26.2-.39.05-.09.12-.16.19-.23.11-.11.13-.27.24-.38h0c.16-.14.11-.39.27-.53h0c.05-.07.09-.15.12-.23.02-.04.04-.08.05-.12.05-.08.1-.14.17-.21,0,0,.09-.1.08-.1.08-.11.14-.22.21-.34.04-.08.09-.16.14-.24.05-.08.11-.15.17-.22.03-.04.06-.07.09-.11.1-.1.19-.21.31-.29h0c.08-.1.17-.19.27-.27h0c.08-.1.17-.18.27-.27h0c.08-.09.17-.18.27-.27h0c.08-.09.17-.18.27-.27h0c.08-.09.18-.18.27-.27h0c.09-.09.18-.18.27-.27h0c.13-.13.28-.16.45-.12.1.05.17.13.21.23.02.05.03.1.05.15.09.26.38.39.48.65.05.27-.06.46-.28.61-.22.13-.45.21-.69.27-.54.13-1.43-.07-.88,1.03.14.28-.09.61-.29.85-.6.77-.95,1.67-1.44,2.5-.09.1-.21-.1-.25-.02-.05.12.14.17.16.29.13.57-.11,1.07-.25,1.59-.45.87-.32,1.95-.96,2.75-.18.09-.37.11-.57.07-.68-.14-.65-.74-.8-1.22Z"/>
  <path class="st45" d="M30.81,11.04c-.22.71-.79.6-1.32.54-.28-.25-.29-.55-.16-.87.11-.14-.05.04.07-.1.1-.12.23-.23.32-.36-.07.06-.11.14-.18.21-.08.1-.17.14-.29.13-.28-.11-.43-.34-.57-.59-.06-.09-.11-.19-.17-.28-.3-.26-.67-.04-.99-.14-.11-.04-.2-.11-.26-.21,0-.06,0-.11,0-.17.04-.11.09-.21.15-.31.04-.04.07-.09.11-.13.08-.08.17-.15.26-.22.09-.06.2-.1.3-.13.31-.07.64-.07.94-.17.1-.03.2-.05.31-.06.16.03.31.04.43-.09.09-.09.18-.18.28-.26h0c.08-.09.17-.19.28-.26h0c.53-.23,1.06-.21,1.6,0h0c.2.35.21.71,0,1.06h0c-.15.14-.1.39-.27.54h0c-.1.12-.13.26-.14.41-.03.1-.07.19-.14.26-.11.11-.13.28-.23.39,0,.17-.02.34-.03.51-.08.11-.1.27-.26.29Z"/>
  <path class="st92" d="M32.22,59.48c.07.01.14,0,.21-.02.08-.08.18-.12.29-.13.24-.05.4-.15.27-.43h0c-.23-.23-.36-.53-.55-.8h0c-.11-.09-.15-.21-.14-.36.02-.48-.05-.96.05-1.43.32-.31.09-.8.37-1.13h0c.22-.22.02-.58.26-.81h0c.16-.15.12-.38.22-.55.14-.15.18-.36.33-.51h0c.12-.04.24-.02.34.06.33.46.54.99.68,1.53.08.95-.81,1.82-.22,2.81.05.1.1.21.14.31.07.15.14.31.21.46.06.1.1.2.15.3.12.31.27.61.1.95-.11.12-.26.16-.42.16-.13-.01-.27-.06-.41-.03-.08.03-.17.06-.25.1-.13.06-.25.11-.39.15-.1.01-.19,0-.29-.01-.14-.04-.29-.07-.43-.1-.21-.04-.41-.09-.57-.25-.07-.11-.05-.19.06-.26Z"/>
  <path class="st55" d="M19.61,20.95c.25.36.4.79.77,1.06.07.02.11.06.11.13-.03.04-.04.06-.04.06.06.03.12.03.19.02.25.07.44.22.59.42.07.1.12.2.16.31.2.93.3,1.87.26,2.82-.03.12-.08.22-.15.32-.09.08-.18.15-.28.21-.68.29.12,1.13-.53,1.43-.12.01-.23-.03-.31-.12h0c-.16-.14-.11-.39-.27-.54h0c-.08-.08-.13-.17-.13-.29-.03-.26.08-.55-.14-.79,0-.09,0-.17,0-.26-.34-.59.09-1.29-.26-1.88,0-.97.02-1.95.03-2.92Z"/>
  <path class="st109" d="M33.5,21.73c-.87-.36-.85-1.11-.81-1.86.09-.13.18-.12.26.02,0,.08,0,.17.01.25.16.15.1.39.26.54h0c.16.14.11.39.27.54h0c.15.17.17.34.01.52Z"/>
  <path class="st34" d="M80.83,44.99c-.09.01-.17.02-.26.01.07-.53-.2-1.11.24-1.59,0,.44.01.88.02,1.33,0,.08,0,.17,0,.25Z"/>
  <path class="st93" d="M64.5,53.06c-.08,0-.16-.02-.25-.04,0-.09,0-.17-.01-.26-.18-.22-.11-.48-.12-.72,0-.13.05-.24.13-.34h0c.07-.12.16-.12.25-.02l.02.02c.1.1.18.22.23.36.07.37.07.72-.25.99Z"/>
  <path class="st88" d="M37.77,41c-.01.08-.01.16,0,.24-.12.11-.24.11-.35,0-.25-.47-.28-.92.13-1.32.15-.06.26-.02.34.11,0,.33.12.67-.11.98Z"/>
  <path class="st48" d="M78.71,52.5c-.02.08-.03.16-.02.25-.09.1-.2.18-.32.23-.4.02-.85.08-.62-.58.28-.21.6-.28.94-.22.08.07.11.14.09.21-.02.08-.05.11-.07.11Z"/>
  <path class="st81" d="M58.64,42.07c-.01.09-.02.17-.02.26-.21.12-.25.32-.26.54-.21.12-.26.32-.27.54h0c-.16.14-.11.39-.27.54h0c-.3.19-.26.5-.28.79-.21.12-.26.32-.26.54-.3.19-.26.5-.28.79-.21.12-.25.32-.26.54-.09,0-.17,0-.26,0-.48.05-.88-.18-1.25-.41-1.02-.64-2.01-1.22-3.32-1.11-.74.06-1.33-.5-1.58-1.23-.2-.59.3-.75.8-.98-1.25-.45-1.9-1.51-2.75-2.34-.43-.43-.27-.9-.15-1.37.08-.25.13-.5.15-.76.1-.36,0-.87.61-.88.11.22-.25.94.49.46.21-.13.41-.19.59.01.21.24.05.4-.14.53-.46.29-.17.64-.03.92.15.3.45.18.7.08.37-.14.75-.23,1.07-.49.3-.25.68-.07.81.17.19.38-.18.54-.49.57-.26.02-.57-.1-.53.33.04.35.35.35.61.35.49,0,.97-.01,1.46-.04.17,0,.42-.17.5-.11.89.73,1.58-.05,2.29-.33.71-.28,1.42-.34,2.13-.48.28.53.12,1.02.17,1.5,0,.36,0,.71,0,1.07Z"/>
  <path class="st1" d="M47.93,14.8c-.01.3.17.53.29.79,1.17,2.35,2.11,4.78,2.36,7.43.1,1.09.41,2.18.05,3.27,0,.8,0,1.6-.01,2.41-.32.4.04.94-.26,1.34,0,.18,0,.35,0,.53-.09.27-.19.54-.28.81-.26.21-.51.22-.78,0-.07-.65.36-1.23.24-1.89.32-2.24.02-4.48-.3-6.68-.41-2.84-1.1-5.63-2.55-8.16-.31-.54-.5-1.13-.63-1.74h0c.27-.17.54-.18.81,0h0c.28.19.48.43.58.75.06.2.12.4.28.56.1.18.03.42.2.58h0Z"/>
  <path class="st1" d="M49,37.52c-.38.28-.23.7-.27,1.07-.08.09-.18.11-.3.06-.23-.25-.38-.56-.58-.83-.04-.12-.01-.21.08-.3.41-1.53,1.04-3.01,1.1-4.63,0-.15.15-.3.23-.46.47.33.24.94.54,1.34.1,1.33-.62,2.48-.8,3.75Z"/>
  <path class="st5" d="M49.8,33.77c-.63-.26-.51-.83-.54-1.34,0-.35.02-.7.03-1.05.26,0,.52,0,.78,0,0,.09,0,.18,0,.26-.2.27-.19.54,0,.8,0,.09,0,.17,0,.26-.25.22-.12.55-.24.81,0,.09,0,.17-.02.26Z"/>
  <path class="st1" d="M49.82,33.52c-.22-.36-.17-.64.24-.81,0,.3.05.61-.24.81Z"/>
  <path class="st1" d="M50.07,32.44c-.33-.27-.33-.54,0-.8,0,.27,0,.54,0,.8Z"/>
  <path class="st8" d="M56.51,92.32c-.51.16-1,.25-1.55.13-.55-.11-1.16-.16-1.71-.05-1.99.39-3.95-.08-5.92-.09-.26,0-.53,0-.74-.21-.09-.1-.12-.21-.09-.33.45-2.28.45-2.3,2.84-1.97.91.12,1.78.22,2.44-.6.1-.34.96.23.7-.63-.13-.45.04-1.06.55-1.23.58-.19.42.68.88.81.49-.17.29-.83.68-1.04.55-.3.67.43,1.09.52.28-.65-.86-1.74.6-2.03.56.21.56-.48.93-.58.62,0,1.01.55,1.59.64.1.05.2.11.3.17.3.26.66.15,1,.17.24.07.5.12.4.47-.54.03-.82.33-1.02.83.46.11.7-.2,1.02-.3.33.57.7.95,1.46.64.59-.24.88.12.94.7-.09.08-.19.14-.3.18-.37.14-.69.51-1.08.48-1.19-.09-1.55.58-1.61,1.59-.74,1.36-2.14,1.4-3.41,1.72Z"/>
  <path class="st29" d="M60.51,86.47c-.12-.22-.31-.26-.53-.27-.07-.06-.15-.09-.22-.15-.61-.55-1.4-1.2-1.19-1.99.18-.71,1.18-.05,1.75-.35.23.04.4.18.56.33.51.48,1.08.59,1.71.28.36-.18.53-.49.45-.88-.14-.72-.44-1.37-1.13-1.71-.37-.18-.68-.02-.94.29-.22.26-.23.7-.67.77-.45-.25-.46-.66-.46-1.12,0-1.71.18-3.37,1.2-4.82,1.7.44,3.31,1.09,4.71,2.18.35.28.72.51,1.1.73,1.22.7,2.33,1.51,2.74,2.96-.07.07-.15.12-.25.13-.2.03-.36.12-.48.29-.46.89.69,1.43.47,2.26-.21.09-.7-.2-.55.35.07.27.22.49-.12.62-.38.14-.53-.16-.67-.43-.35-.18-.67-.58-1.05-.02-.26.37-.77.55-.82,1.09-.09.09-.17.1-.26,0-.37-.26-.31-.7-.46-1.05.24-.23.65.04.82-.31.18-.37-.09-.42-.33-.55-.35-.19.14-.6-.21-.84-.09.02-.21.05-.33.07-.24.05-.48.35-.72.07-.19-.22-.19-.58,0-.74.68-.6.32-1.32.39-2.03-.99.37-1.3.83-1.32,1.71-.01.45.11.91.22,1.28.17.55.08.71-.41.81-.71.14-.58,1.04-1.2,1.34-.29.14-.38.34-.69.05-.29-.28-.7-.37-1.12-.33Z"/>
  <path class="st3" d="M62.65,88.35h.27c.46-.02.86.06,1.07.54.11.24.29.43.54.53-.32.42-.31.59.08.62.45.03.7.37,1.1.45-.4.8-1.24.99-1.71,1.58-.19.09-.39.18-.58.26,0,0-.11-.01-.11-.01l-.11.03c-.39-.02-.77-.04-1.1.23h-.12s-.12,0-.12,0c-1.18,0-2.35-.01-3.53,0-.62,0-1.23-.05-1.82-.27.65-.33,1.26-.74,2.01-.88.52-.09.95-.45,1.19-.96.1-.14.28-.37.4-.27.37.31.56.62,1.13.14.49-.41,1.13-.97,1.11-1.58,0-.18.15-.31.29-.43Z"/>
  <path class="st65" d="M69.34,85.4c-.27-.45-.52-.91-.81-1.34-.36-.55-.24-.97.28-1.33.18-.15.35-.16.53,0,.09,0,.18,0,.26,0,.73-.07,1.13.41,1.51.91.23.31.27.76.67.96.07.01.14.03.21.05-.01.08,0,.15.01.22,0,.53-.01,1.05-.02,1.58-.08.02-.16.02-.24.02,0-.34,0-.69,0-1.2-.85.49-1.64.63-2.41.13Z"/>
  <path class="st69" d="M65.86,87.01c.09,0,.17,0,.26,0,.4,0,.8-.01,1.2.03.59.07.75.58.88,1.04.09.31-.15.47-.39.61-.47.29-.83.12-1.18-.23-.4-.41-.89-.77-.78-1.45Z"/>
  <path class="st29" d="M64.97,85.29c.05.11.02.17-.09.19-.02,0-.06-.06-.07-.1-.02-.08-.02-.16-.03-.25.06.05.13.1.18.15Z"/>
  <path class="st3" d="M64.68,89.23c.11-.05.17-.02.19.08,0,.02-.06.06-.1.07-.08.02-.16.02-.25.03.05-.06.1-.13.15-.18Z"/>
  <polygon class="st8" points="60.51 87.01 60.57 86.9 60.62 86.95 60.51 87.01"/>
  <polygon class="st29" points="64.79 85.14 64.68 85.07 64.73 85.02 64.79 85.14"/>
  <path class="st20" d="M76.8,55.96c-.08.1-.16.19-.24.29,0,0-.13,0-.13,0h-.13c-.26-.93-1.59-1.72-2.55-1.51-1.04.23-1.11.11-.91-1.41.02-.13.05-.25.09-.38.43-.58.2-1.62,1.22-1.79.02.33.15.74.47.69.53-.09,1.29-.05,1.45-.68.13-.49.33-.55.71-.55.61,0,1.13-.48,1.82-.4-.15.38-.94.68-.07,1.05.18.08.07.31-.1.42h0c.1.09.19.18.29.28,0,.09-.02.17-.04.26-.25.12-.49.28-.78.27-.15-.13-.37-.12-.47-.02-.17.18.09.25.18.36.16.18.7-.09.55.46h0c-.34.4-.48.93-.79,1.35h0c-.14.15-.25.32-.26.53-.1.26-.2.52-.31.78Z"/>
  <path class="st17" d="M74.15,51.16c-.64.46-.43,1.41-1.07,1.87-.06-.02-.13-.04-.19-.05-.18-.1-.32-.25-.42-.43-.04-.13-.05-.27-.02-.4,1.07-2.52,2.06-5.06,2.64-7.74.11-.5.39-.88.67-1.27,0-.18,0-.35.01-.53.31-.22-.15-1.19.78-.8,0,.26,0,.53.01.79-.32,2.99-1.52,5.73-2.41,8.56Z"/>
  <path class="st79" d="M75.76,43.14c-.44,2.54-1.41,4.92-2.18,7.36-.22.7-.69,1.33-1.04,2-1.09-.07-2.15.49-3.3-.05-.96-.45-2.08-.19-3.13-.08-.58.06-1.15.14-1.57-.39,0-.09,0-.18,0-.27,1.05-.4,1.81-1.39,3.04-1.44.41-.02.32-.58.61-.78.42.12.71.55,1.18.5.2-.58-.42-.57-.6-.87.35-.32.75-.38,1.23-.31,1.17.18,1.96-.53,2.69-1.28.23-.24.16-.58.1-.88-.32-.32-.5.33-.8.1,0-.07-.02-.18.02-.22.46-.43,1.13-.72.47-1.58-.33-.43.71-1.61,1.29-1.41.81.28,1.37-.1,2-.4Z"/>
  <path class="st95" d="M76.55,41.81c-.59-.05-.44.61-.78.8,0-.09-.01-.18-.02-.27,0-1.16.03-2.31,0-3.47-.04-1.17-.36-2.26-1.07-3.21-.85-.58-1.31-1.38-1.43-2.39.08-.19.22-.32.42-.38,1.28.73,1.77,1.95,2.08,3.3.28,1.25.9,2.42.8,3.75-.59.53-.26,1.07,0,1.6,0,.09,0,.18,0,.28Z"/>
  <path class="st114" d="M47.93,37.52c0,.09.01.19.02.28.08.09.12.2.11.32-.03.23-.09.47-.14.7-.25.63-.48,1.26-.96,1.76-.35.23-.79.41-1.1.1-1.03-1.03-2.09-.59-3.17-.15-.12.05-.26.01-.38-.06,0-.17.02-.35.03-.52.08-.09.17-.19.25-.28.21-.12.26-.31.27-.53.21-.12.26-.31.26-.54.01-.08.02-.17.02-.25.08,0,.17,0,.25-.01.17-.14.1-.4.27-.53h0c.37-.09.61-1.05,1.16-.15.15.24.52.03.55-.29.02-.27-.07-.64.36-.39.69.42,1.47.4,2.21.56Z"/>
  <path class="st86" d="M60.24,83.8c-.43.57-.93.55-1.59.05.1,1.11,1.07,1.54,1.32,2.35-.45.28-.83.3-1.07-.27h0c-.68.02-1.15-.37-1.6-.8-.09-.09-.15-.2-.17-.33.03-.81.49-1.39,1.07-1.9.38-.34.73-.74.46-1.26-.81-1.61-.92-3.32-.83-5.07.22-.31.51-.28.8-.13.48.24.91.1,1.35-.13.09.72.65.48,1.07.54.02.31.02.62.08.92.05.24.05.54-.15.58-1.5.31-.3,1.5-.7,2.2-.12.21.17.76-.16,1.16-.26.32.17.66.12,1.01.11.15.04.3,0,.45-.04.16-.02.31,0,.47,0,.05,0,.11,0,.16Z"/>
  <path class="st37" d="M67.74,77.89c.17,0,.35.01.52.02.07.02.14.03.21.02.13.06.23.15.32.26h0c.1.08.19.17.28.26h0c.09.09.18.18.27.27h0c.09.08.19.17.27.28h0c.11.07.2.16.27.27h-.01c.2.12.12.39.28.53h0c.19.19.3.43.36.7-.04.04-.07.08-.11.12-.04,0-.11,0-.13-.03-.77-.96-1.97-1.52-2.51-2.69Z"/>
  <path class="st37" d="M67.45,77.39c.1.17.2.33.3.5-.56.01-.85-.35-1.09-.79.18-.15.35-.16.52.02h0c.11.07.19.17.28.27h0Z"/>
  <path class="st37" d="M70.93,81.67c-.68-.1-.47-.65-.54-1.06l.03-.03c.09-.12.18-.12.25.02h0c.17.14.12.38.27.54h0c.14.11.15.27.12.43-.04.04-.08.07-.12.11Z"/>
  <path class="st37" d="M71.21,81.66c0,.18,0,.36.01.53-.22-.11-.27-.3-.29-.52,0,0,.05-.05.05-.05.09-.08.17-.07.23.04h0Z"/>
  <path class="st13" d="M50.62,26.29c-.51-1.18-.27-2.45-.47-3.68-.34-2.08-.96-4.05-1.7-5.99-.13-.34-.26-.66-.23-1.03.08,0,.17,0,.25,0,0,.22.06.42.27.53,0,.38.19.65.53.8,0,.22.05.42.27.54h0c.08.09.18.17.27.27h0c.18.13.1.39.28.52h0c.1.08.19.17.26.28h0c.11.07.19.17.26.28,0,.08,0,.17.01.25.09.09.17.18.26.27h0c.18.13.09.4.28.52h0c.09.09.17.19.26.28,0,.22.06.42.27.53h0c.08.1.18.18.26.27h0c.09.09.18.18.27.27h0c.09.09.17.19.26.27h0c.09.09.18.18.26.27.01.22.06.41.28.53.08.1.18.18.27.27h0c.09.09.18.18.27.27h0c.18.13.1.39.28.53h0c.09.09.17.19.26.27h0c.09.09.17.18.26.27,0,.09,0,.17.02.26.11.07.17.18.26.27h0c.09.09.17.18.26.27.01.22.06.42.28.53.09.09.17.18.26.27,0,.22.06.42.27.53,0,.22.05.42.26.54,0,.09.01.18.02.27.08.09.17.18.26.26h0c.09.09.17.19.26.27,0,0,0,0,0,0,0,.22.06.42.27.53,0,.22.05.42.27.53,0,.22.06.42.27.53,0,.17,0,.35,0,.52-.66.6-1.24.57-1.94-.13-.16-.16-.32-.32-.43-.51-.41-.74-.87-1.06-1.81-.75-.82.28-1.2-.18-1.38-1.15-.11-.6-.62-.67-1.13-.67Z"/>
  <path class="st90" d="M50.35,30.03c.05-.45-.17-.96.26-1.34-.06.45.18.96-.26,1.34Z"/>
  <path class="st15" d="M75.76,36.18c-.53-.89-1.07-1.78-1.59-2.67-.14-.23-.29-.43-.53-.56-.75-.27-1.23-.71-1.08-1.59.13,0,.29-.03.39.02.89.45,1.51.16,1.93-.68.13-.26.33-.4.62-.42.09,0,.17,0,.26,0,.08.1.17.18.27.27,0,0,0,0,0,0,.09.09.18.18.26.27.09.09.17.18.26.27.01.22.06.42.28.53h0c.1.08.19.17.27.27h0c.09.09.17.18.26.27.01.22.07.41.28.52h0c.08.1.17.19.26.28,0,0,0,0,0,0,.09.09.17.18.26.27,0,.09,0,.17.02.26.08.09.17.18.25.27.01.22.06.41.27.53,0,.22.06.42.27.53h0c.17.14.1.4.27.54h0c.16.14.1.39.27.54h0c0,.22.05.42.27.53,0,.26.01.53.02.79-.23-.05-.62.14-.65-.25-.06-.78-.66-.84-1.43-1.09.48.61.73,1.13.46,2.01-.2-.91-.66-1.22-1.37-1.19-.44.02-.68-.39-1.04-.55Z"/>
  <path class="st23" d="M72.55,31.37c.19.65.73,1.05,1.08,1.59-.1.1-.21.2-.31.31-1.01-.02-1.13-1.07-1.77-1.52-.95-1.28-2.2-2.24-3.39-3.27-.58-.51-1.35-.84-1.63-1.65.05-.21.14-.36.39-.27,1.32,1.03,2.67,2.04,3.96,3.11.61.5,1.11,1.14,1.66,1.71Z"/>
  <path class="st106" d="M66.93,26.55c-.09.09-.18.18-.27.28-.75,0-.88-.83-1.45-1.07-.1-.06-.18-.14-.26-.23-.07-.09-.14-.18-.21-.27-.05-.11-.03-.22.06-.3h0c.09,0,.17,0,.25,0,.86.26,1.6.67,1.88,1.61Z"/>
  <path class="st17" d="M76.56,41.53c-.29-.03-.5-.17-.51-.49-.01-.47,0-.93,0-1.49.24.18.38.28.51.38,0,.53,0,1.07,0,1.6Z"/>
  <path class="st43" d="M71.77,31.61c.71.37.84,1.29,1.56,1.65.45.8.9,1.6,1.36,2.4.01.31-.07.6-.17.9-.13.37-.26.74.42.83.33.04.47,1.64.22,1.93-.39.45-.85.82-1.45.85-.6.04-.83.41-.98.88-1.09-1.02-2.25-.54-3.39-.32-.06-.06-.08-.12-.06-.18.02-.06.04-.09.06-.09h0c.25-.11.43-.28.53-.54h0c.08-.1.17-.19.29-.26.22,0,.41-.06.52-.27.1-.08.18-.18.27-.27h0c.09-.09.19-.18.28-.26.08,0,.17,0,.25-.02.07-.06.09-.11.07-.17-.02-.06-.04-.08-.07-.08-.08-.01-.17-.02-.25-.01-.09-.08-.19-.17-.28-.25-.09,0-.18-.02-.27-.02-.12-.21-.32-.26-.54-.27-.09-.09-.18-.18-.27-.27,0-.36,0-.71.01-1.07.19-1.22.88-2.34.62-3.67-.17-.86.51-1.24,1.26-1.45Z"/>
  <path class="st98" d="M29.21,12.91c-.02.58.02,1.14.24,1.68.16.4.09.82.09,1.25,0,.78-.05,1.57.62,2.35.59.69,1.21,1.56,1.42,2.54.07.35.14.69.31,1-.26.42-.75.64-.69,1.33.09,1.19-1.81,2.16-2.94,1.58-.09-.18-.14-.37-.16-.57-.04-.55-.01-1.1-.2-1.63-.07-.29-.1-.59-.11-.89-.05-2.47-.15-4.94.55-7.35.15-.52.12-1.18.88-1.29Z"/>
  <path class="st109" d="M33.76,21.74c.09.09.17.18.26.27,0,.22.06.42.27.53h0c.16.14.1.4.27.53h0c.09.09.17.18.26.27,0,.22.06.42.27.53.09.09.18.18.26.27.04.49.31.76.8.81.09.09.18.18.27.26.09.09.18.18.27.27.09.09.18.18.26.27,0,.09,0,.18,0,.26-.97.36-1.83,1.05-2.93,1.07-.23.21-.49.24-.77.12-.38-.41-.69-.85-.57-1.45.27,0,.51-.1.7-.31.25-.28.47-.49-.06-.79-.76-.42-.4-1.35-.74-1.99-.08-.16.22-.34.45-.38.32-.06.43-.27.46-.55.09,0,.17,0,.26,0Z"/>
  <path class="st36" d="M32.69,25.75c.24.42.65.77.53,1.34-.15.15-.33.18-.53.16-.56-.14-.98-.54-1.46-.83-.62-.37-1.27-.99-1.93-.01-.11.16-.41.09-.62,0-.54-.51-.67-1.08-.26-1.73.2.08.39.18.62.04.45-.28.9-.61,1.4-.75.53-.15.57-.41.51-.86-.14-.92-.12-.92.93-1.36.18.3.13.58-.02.88-.11.21-.17.45.08.59.51.28.51.66.28,1.12-.32.63.44.91.47,1.43Z"/>
  <path class="st57" d="M29.21,12.91c-.75,1.43-.91,3.02-1.04,4.59-.12,1.41-.04,2.84-.05,4.25-.14.08-.26.05-.36-.06-.28-.54-.26-1.2-.65-1.7-.22-.85-.17-1.71-.06-2.57.04-.28.16-.54.17-.83.04-.35.07-.7.15-1.04.43-1.28.38-2.69,1.01-3.92.21-.42.3-.93.83-1.12.09,0,.18,0,.26,0h0c0,.36,0,.71,0,1.07-.26.41-.3.86-.27,1.33Z"/>
  <path class="st52" d="M32.69,27.09c.18,0,.36,0,.54,0h.8c.04.21,0,.46.12.62.71,1,.72.99-.12,2.06-.18.01-.4-.04-.52.05-1.12.89-2.3.6-3.49.22-.06-.01-.12-.02-.18-.04-.11-.06-.2-.13-.29-.22-.16-.2-.26-.41-.21-.68.04-.12.12-.21.24-.27.62.05,1.1.09,1.44-.71.23-.54,1-.87,1.67-1.03Z"/>
  <path class="st88" d="M38.05,39.66c-.01.09-.02.17-.01.26-.08,0-.16.01-.25.02,0,0-.02-.02-.02-.02-.3-.13-.22-.76-.73-.6-.69.21-1.01-.24-1.19-.73-.28-.75.57-.6.84-.93-1.48-.94-2.92-1.95-4.65-2.39-.14-.14-.25-.3-.34-.48-.15-.8-1.03-1.42-.6-2.37.37-.14.47-.51.68-.78.15-.2.3-.49.63-.36.25.1.43.31.48.59.01.08-.05.18-.02.26.18.55.25,1.48.73,1.51.7.04,1.65.55,2.22-.42.05-.09.22-.11.32-.16.39.13.33.44.27.67-.11.38-.01.64.36.69.97.13-.04.57.19.88.35.17.95-.29,1.25.26.22.41.26.97.06,1.28-.49.76-.19,1.52-.21,2.27,0,.18,0,.36,0,.54Z"/>
  <path class="st78" d="M31.1,32.44c.07.87.86,1.49.8,2.41-.04.04-.08.08-.11.11-.16.06-.32.06-.47,0-.15-.08-.26-.2-.36-.34-.06-.09-.12-.19-.17-.29-.09-.15-.17-.3-.25-.46-.44-1.2-1.07-2.3-1.52-3.5-.12-.3-.26-.59-.27-.92.11-.54.31-.77.74-.22.1.18.19.36.29.54.07.09.16.18.24.26h0c.16.89.72,1.61,1.08,2.41Z"/>
  <path class="st104" d="M57.83,76.57c.69.27.38.76.28,1.22-.06.3-.55.73.23.86.25.04.1.37.07.58-.1.76-.1,1.46.5,2.1.47.49.34,1.15-.29,1.61-.69.5-1.09,1.14-1.33,1.92-.67.33-.88-.43-1.34-.56-.05-.06-.04-.13.03-.18,0,0-.07-.06-.07-.06-.03.09-.09.14-.19.14-.22-.03-.36-.15-.42-.35-.03-.09,0-.16.08-.2,0,0-.05-.1-.05-.1,0,0-.05.1-.05.11-.09.04-.18.06-.28.06-.35-.03-.61-.21-.72-.52-.44-1.18-1.41-1.36-2.49-1.38-1.22-.02-2.44.26-3.68,0-.5-.1-.82.45-1.22.71-1.29.82-2.6,1.53-4.21.94-.1-.08-.16-.18-.2-.3-.01-.19.07-.35.18-.5.22-.26.48-.47.77-.64.13-.08.26-.15.39-.21.08-.04.17-.05.25-.06,0,0,.11.03.11.03,0,0-.08-.09-.09-.09-.06-.07-.11-.13-.16-.2-.1-.11-.2-.2-.29-.31-.06-.09-.06-.19-.03-.3.09-.14.23-.23.39-.28.43-.06.69-.3.8-.72.21-.42.59-.67.95-.93,1.73-1.09,3.58-1.85,5.66-1.86.41-.27.86-.36,1.34-.27.45,0,.89,0,1.34-.01.09-.08.18-.17.27-.25.53,0,1.07,0,1.6,0,.54.14,1.07-.39,1.61,0,.09,0,.17,0,.26,0Z"/>
  <path class="st68" d="M51.41,77.11c-.39.47-.99.3-1.48.42-1.47.37-2.8,1.03-4.14,1.71-.52-.02-.81-.32-.84-.81-.03-.44.41-.32.65-.44.45-.23.57-.71.7-1.16,0-.08.02-.16.03-.23.23-.02.42-.11.57-.29.78-.27,1.56-.54,2.34-.81.09-.17.18-.35.36-.45.6-.26,1.21-.49,1.86-.6.33.02.66.09.96.23.18.06.57.05.3.34-.45.49-.76,1.18-1.54,1.3-.22.03-.46.14-.42.41.05.33.36.34.62.37Z"/>
  <path class="st68" d="M52.75,76.84c-.37.44-.89.2-1.34.27.13-.41.58-.5.81-.81.15-.2.36-.24.55-.05.2.2.03.4-.03.59Z"/>
  <path class="st86" d="M57.57,76.57c-.36.04-.74-.08-1.07.25-.29.29-.41-.05-.54-.25.54-.23,1.07-.51,1.61,0Z"/>
  <path class="st68" d="M54.36,76.58c-.09.08-.18.17-.27.25.09-.08.18-.17.27-.25Z"/>
  <path class="st40" d="M51.68,65.34c.08-.1.22-.21.22-.31-.02-.86.02-1.64,1.14-1.8.19-.03.22-.35.25-.57.02-.06.04-.12.06-.18.38-1.62,1.07-1.99,2.76-1.48.55.17,1.12.34,1.59.65,1.58,1.07,3.15,1.47,4.88.29.57-.39,1.09-.05,1.48.45-.12,1.05-1.04,1.46-1.75,1.86-2.83,1.58-5.53,3.38-8.33,5.01-.19.11-.4.2-.62.21-.79-.36-.19-1.09-.42-1.63-.25-.59-.32-.79-1.09-.48-.63.26-.74,1.56-1.77.91,0-.09,0-.18,0-.27-.58-.64,0-.95.4-1.25.46-.33.92-.54.39-1.23-.25-.33.19-.56.45-.63.28-.08.33.21.36.43h0Z"/>
  <path class="st110" d="M50.08,68.28c.17-.02.35-.04.52-.05.57-.04-.44-1.16.6-.87.63.18.66-.44.96-.7.39-.34.66-.13.81.24.31.78.49,1.59.33,2.45.12.82-.64,1.09-1.03,1.58-.33.41-.78.72-1.03,1.21-.16.36-.35.7-.74.85-.02.03-.12,0-.09.1.08-.1.18-.11.3-.11.42,1,.13,1.59-1.15,2.31-.1.07-.19.14-.29.21-.18-.59-.78-.97-.69-1.63-.55-.09-.31.37-.5.51-.18.14-.34.35-.56.14-.19-.18-.38-.49-.12-.7,1.56-1.27,1.24-3.4,2.26-4.92.13-.2.34-.38.43-.62Z"/>
  <path class="st19" d="M52.25,62.16c.08-.1.16-.19.24-.29.17-.1.34-.19.51-.29.38.29.58.62.28,1.09h0c-.36,0-.72,0-1.07,0,.01-.17.03-.34.04-.5Z"/>
  <path class="st53" d="M27.61,15.59c0,.36,0,.71-.01,1.07-.16.15-.1.39-.25.54,0,.98,0,1.96,0,2.94.21.24.25.53.25.84-.01.79.16,1.57.1,2.36-.03.77-.06,1.6-1.03,1.77-.94.16-1.43-.75-2.18-1.1-.26-.12-.08-.48-.02-.73.46-2.04.45-2.03-1.64-2.68-.61-.19-1.14-.5-1.11-1.26-.04-.64.38-1.22.27-1.87h0c.08-.04.19-.07.22-.13.21-.42.15-.88.49-1.34.32-.43.69-.89.93-1.39.11-.24.71-.77-.27-.55-.15.03-.18-.23-.09-.42.42-.85.61-.94,1.65-.72.15-.14.34-.13.52-.13.74-.2,1.17.23,1.52.78.1.15.2.43.11.49-1.44,1.07.15,1.09.52,1.53Z"/>
  <path class="st10" d="M21.72,19.33c.47.9,1.38,1.06,2.23,1.24.89.18,1.11.31,1.08,1.14-.03.74-.02,1.51-.58,2.28.7.02,1.25-.01,1.53.7.17.44,1.04.23,1.28-.3.1-.22.06-.52.08-.78.14-.08.27-.06.38.06.39.92.4,1.91.51,2.89,0,.27.03.53.05.8,0,.13-.05.25-.12.36-.88.77-1.68.1-2.28-.34-1.31-.97-2.63-1.96-3.79-3.13-.42-.42-.65-.93-.9-1.43h0c-.12-.26-.43-.45-.26-.81.34-.87.2-1.88.8-2.68Z"/>
  <path class="st94" d="M27.61,15.59c-.33-.03-.71.32-.98-.07-.29-.42-.56-.87-.78-1.34-.06-.14.14-.34.34-.29.2.05.38.18.61.29-.29-.95-.38-1.03-1.33-1.28-.09-.06-.12-.12-.09-.18.03-.06.06-.09.09-.09.22-.11.26-.31.27-.54-.11-.25-.71,0-.54-.53h0c.17-.14.12-.39.26-.54h0c.63-.33,1.8-.03,1.6-1.35.09-.09.17-.17.26-.26.42-.07.84-.19,1.26-.18.43,0,.09.29.1.45h0c.3.19.38.53.54.8-.7,1.43-1.09,2.95-1.33,4.51-.04.22-.08.43-.27.57Z"/>
  <path class="st60" d="M20.92,22.01c.11.26.29.5.26.8-.27-.18-.53-.36-.8-.53h0c0-.09,0-.18,0-.26.18,0,.36,0,.53,0Z"/>
  <path class="st12" d="M25.2,11.58c.18.18.36.36.54.53-.27-.09-.9.19-.54-.53Z"/>
  <path class="st12" d="M25.46,11.03c0,.22-.04.43-.26.54,0-.1,0-.2-.01-.3.09-.08.18-.17.27-.25Z"/>
  <path class="st12" d="M25.47,12.65v.27c-.18,0-.36,0-.53,0,.12-.22.31-.26.53-.27Z"/>
  <path class="st53" d="M21.99,17.46s-.11-.05-.11-.06c.02-.09.06-.07.11.06h0Z"/>
  <path class="st57" d="M29.48,10.51c.03-.53.33-.82,1.09-1.13-.43.58-.49,1.09-1.09,1.12h0Z"/>
  <path class="st67" d="M33.02,68.5c0-.08-.04-.15-.08-.22.01-.22-.02-.42-.21-.57,0-.22-.06-.41-.25-.55-.05-.28-.03-.58-.28-.79,0-.08-.01-.16-.05-.24,0-.26,0-.53,0-.79.25-.84-.21-1.57-.45-2.29-.34-1-.16-1.71.57-2.37,0-.11.25-.06.16-.23-.02.09-.07.15-.17.18-.73-.24-.38-.57-.08-.9v-.02c.26,0,.53,0,.8.01.09.08.18.17.27.25.09,0,.18,0,.26,0,.09-.09.18-.17.27-.26.09,0,.18,0,.27,0,.09-.09.18-.09.28,0,.18,0,.35,0,.53,0,.12.39-.11.54-.35.61.86-.18.9-.59.08-1.68h0c-.16-.15-.1-.4-.27-.53h0c.16-.75.66-1.13,1.26-.61.61.53.75.27,1.06-.22.78-1.22,1.55-1.19,2.37.02,0,1.88-.59,3.68-.75,5.54-.28,3.09-.14,6.11,1.01,8.61-.83-2.26-1.37-4.95-.89-7.79.26-1.56.01-3.2.69-4.71.33-.26.58.25.97.05.63-.33,1.25-.48,1.49.55.2.89.4,1.72-.76,2-1.03.25-.95.7-.49,1.48.55.93,1.17,1.82,1.24,3.02.06,1.01.96-.05,1.39.3.41.67.18,1.68,1.18,2.04.26.1.18.44-.16.58-.24.1-.47.24-.71.34-.12.05-.31.17-.25.24.13.17.25-.12.4-.08.2.1.36.14.3-.19.26-.28.57-.42.66.06.09.46.09.95-.31,1.36-1.05,1.07-1.42,2.33-1.24,3.86.08.67.68,1.58-.33,2.15-.13.02-.25.02-.38-.01-.56-.29-1.09-.62-1.7-.78-1.5-.63-2.82-1.64-4.39-2.11-.25-.08-.47-.24-.56-.52,0-.28-.01-.57-.29-.74-.13-.52-.3-1.03-.77-1.36-.02-.21-.08-.41-.27-.53,0-.22-.05-.42-.25-.55-.03-.21-.1-.39-.27-.53-.01-.22-.08-.4-.27-.54-.01-.21-.07-.41-.25-.55Z"/>
  <path class="st85" d="M38.84,57.05c-.29-.1-.57-.21-.86-.31-.5-.18-.85-.02-1.02.49-.04.12-.08.25-.13.37-.15.34-.15.77-.72.78-.66.01-.53-.57-.76-.95-.43.11-.76.37-1.05.68-.68-.73-.75-1.51-.21-2.34.18-.27.21-.56.21-.86.19-.25-.05-.6.2-.83.1-.07.21-.12.33-.15.8-.34,1.61-.33,2.45-.11,1.79.46,1.79.45,2.77-1.24.05-.1.11-.2.17-.29.08-.13.16-.27.24-.4.04-.09.1-.17.16-.25.09-.12.19-.22.28-.33.09-.11.18-.21.25-.34.06-.13.1-.27.14-.4.03-.1.07-.19.12-.28.05-.09.11-.17.17-.25.03-.04.06-.08.09-.13.06-.09.12-.18.18-.26.07-.09.15-.15.25-.2.32-.07.53.03.63.35.01.11,0,.21-.02.32-.03.1-.06.2-.09.3-.02.1-.06.19-.09.29-.03.1-.07.19-.12.27-.05.08-.11.16-.17.23-.03.04-.06.07-.09.1-.06.07-.12.14-.19.2-.08.1-.16.21-.23.33-.04.08-.08.15-.13.23-.06.12-.1.24-.13.37-.03.13-.06.26-.11.39-.05.13-.1.26-.13.4-.03.14-.08.29-.14.42-.06.14-.13.28-.19.42-.11.24-.22.48-.22.75.61.85,1.57,1.02,2.47,1.31,1.32.43,2.7.75,3.78,1.7.06.11.1.22.12.34,0,.12-.02.24-.06.35,0,.09-.14.06-.14.16.11-.04.23-.06.33.02.23.72.62,1.52-.76,1.31-.38-.06-.49.28-.66.52-.19.3-.37.61-.55.91-.32.61-.6,1.24-.92,1.85-.05.1-.11.19-.17.28-.15.22-.22.47-.34.7-.21.13-.12.28-.03.43-.02.23-.12.43-.2.64-.22.36,0,1.02-.7,1.07-.24.12-.47.24-.71.36-.22.12-.4.42-.69.21-.3-.21-.53-.48-.42-.9.23-.91-.1-1.58-.76-2.21-.44-.42-.29-1.23-.91-1.61-.14-.09-.05-.31.11-.44.35-.27.72-.44,1.18-.55.84-.19.94-.39.64-1.18-.13-.34-.1-.68-.18-1.09-.44.02-.85.15-1.22.37-.73.45-.41-.23-.5-.46-.69-1.09.16-2.14.06-3.18-.24.38-.17.96-.6,1.31Z"/>
  <path class="st47" d="M34.56,54.11c-.01.29.05.61-.26.8-.24-.52-.6-.99-.54-1.61h0c.77-.62,1.67-1.08,2.31-1.89.53-.67,2.22-.61,3.32.06.37.23.75.46,1.07.77-.04.79-.69,1.29-.93,2.01-.17.5-.78.54-1.14.34-1.14-.64-2.32-.71-3.55-.48-.09-.12-.18-.21-.27,0Z"/>
  <path class="st85" d="M34.57,58.65c.43.17,1,.05.73.97-.24.83-.01.9-1.12.9-.13,0-.26-.02-.58-.05.52-.28,1.09-.22,1.24-.75-.09-.36-.18-.71-.26-1.07Z"/>
  <path class="st85" d="M34.3,58.12c.22.11.26.31.27.53-.22-.11-.26-.31-.27-.53Z"/>
  <path class="st85" d="M34.3,59.72c-.09,0-.18,0-.28,0,.09-.18.18-.18.28,0Z"/>
  <path class="st85" d="M33.76,59.73l-.27.26.27-.26Z"/>
  <path class="st85" d="M33.23,59.99c-.09-.08-.18-.17-.27-.25.09.08.18.17.27.25Z"/>
  <path class="st91" d="M29.21,30.31c.61,1.21,1.32,2.39,1.61,3.74.09.09.16.19.26.28,0,.09,0,.17,0,.26-.02.38.14.88-.34,1.04-.38.13-.6-.29-.88-.49-.34-.24-.51-.6-.7-.96-.16-.31-.39-.3-.64-.06-1.53,1.47-1.71,1.43-2.55-.56-.05-.12-.08-.25-.12-.4-.07.33-.07.68-.38.89-.08,0-.16-.02-.24-.02,0-.08-.02-.16-.04-.25-.08-.09-.16-.19-.24-.28-.02-.22-.07-.41-.28-.52h0c-.07-.11-.18-.19-.26-.28h0c-.1-.08-.19-.18-.26-.3,0-.08,0-.15-.03-.23-.08-.09-.16-.19-.24-.28-.01-.22-.07-.41-.28-.53h0c-.08-.1-.18-.18-.27-.27h0c-.09-.09-.18-.18-.27-.28,0,0,0,0,0,0-.09-.09-.18-.18-.26-.27-.09-.09-.18-.17-.27-.26-.09-.61-.47-.95-1.05-1.09-.06-.51-.41-.81-.81-1.06,0-.17-.02-.35-.02-.52.24-.19.08-.39-.01-.56-.34-.64-.14-.97.56-1.04.09.09.18.09.26,0h0c.92-.73.75.36,1.08.64.17.37.38.7.81.82.74.22.91.77.86,1.45-.1.28.16.31.3.42.59,1.42,1.02,1.65,2.38,1.21.76-.24,1.55-.21,2.33-.27Z"/>
  <path class="st60" d="M22.26,26.82c-.09-.2-.21-.39-.25-.59-.07-.42-.31-.3-.56-.21-.09-1.07-.18-2.14-.27-3.21.5-.07.33.41.51.61,1.27,1.41,2.85,2.48,4.3,3.68.5.42,1.29.92,2.14.51.1.06.19.14.25.23.1.15.16.32.18.5-.01.12-.05.24-.12.34,0,.24-.98.01-.28.6.22.18.64.33.45.7-.19.36-.61.28-.96.24-1.54-.14-2.54-1.19-3.53-2.2-.54-.56-1.11-1.01-1.86-1.22Z"/>
  <path class="st60" d="M20.39,22.28c-.04.2-.04.46-.35.41-.14-.02-.19-.19-.15-.31.09-.35.32-.12.5-.09h0Z"/>
  <path class="st60" d="M21.45,26.02c-.09.16-.17.16-.26,0h.26Z"/>
  <path class="st102" d="M46.6,91.82c0,.09,0,.19,0,.28-.61-.02-1.22-.04-1.83-.06-.4-.32-.88-.22-1.34-.26-.31-.3-.7-.24-1.07-.25,0,0,0,0,0,0-.04-.05-.08-.1-.11-.15.03-.06.06-.11.08-.17.1-.08.21-.13.34-.17.18-.04.37-.06.56-.07,1.07.09,2.18-.13,3.17.46.16.09.3.16.22.38Z"/>
  <path class="st41" d="M21.52,87.47c-.09-.08-.18-.17-.27-.25-.21-.33-.41-.65-.62-.98-.08-.31-.04-.66-.34-.88-.02-.12,0-.23.06-.33.28-.47.9-.53,1.18-.99.61-1.17,2.06-1.5,2.65-2.69.03-.06.19-.11.24-.07,1.06.71,1.92-.19,2.87-.32,1.06-.15,2.03-.06,3.05.55.97.59,2.06,1.25,3.34,1.04.13-.02.29-.02.39.05,1.53,1.05,2.69,2.42,3.58,4.03-.86,1.26.23,2.03.74,2.95.09.16.06.35,0,.52-.6.69-1.41.32-2.13.42-.16.02-.35-.03-.53-.05.06.12.19.13.29.18.15.09.08.53.44.27.07-.05.15-.09.23-.13.61-.34.91-.05,1.05.53.16.68-.3.73-.78.75-1.37.07-2.74-.03-4.1-.23-.7-.1-1.41-.09-2.1-.28-1.82-.38-3.51-1.14-5.28-1.67-.65-.49-1.39-.77-2.13-1.07,0,0-.02.03-.02.03-.12-.06-.21-.15-.28-.26h0c-.17-.31-.43-.51-.78-.56-.19-.28-.45-.46-.77-.57Z"/>
  <path class="st80" d="M30.79,91.57c1.75-.1,3.48.29,5.23.25.48-.01.97,0,1.49,0-.09-.35-.18-.66-.26-.97-.47-.06-.49.76-1.13.48-.33-.14-.03-.85-.68-.6-.29.11-.7.11-1.03-.22.34-.46.81-.24,1.21-.29.9-.13,1.85.28,2.7-.27.05-.07.15-.17.13-.23-.55-1.17-.48-2.64-1.07-3.65-1.21-2.1-2.98-3.69-5.31-4.83-2.7-1.32-5.52-1.55-8.36-1.95-.32-.04-.61-.14-.84-.37-.25-.26-.53-.53-.26-.92.22-.33.51-.51.89-.21.34.27.67.21.96-.06.45-.4,1.28-.75.2-1.4-.2-.12-.16-.39-.04-.6h.01c1.51,0,3.05-.47,4.54.17.2.09.43.1.66.08.66-.05,1.33-.02,2.3-.33-.81-.08-1.33-.18-1.54-.73-.28-.33-.62-.65-.45-1.16.06-.11.15-.19.28-.21.19.16.36.13.5-.07.41-.14.81-.33,1.24-.08,1.08-.03,2.16-.06,3.24-.09,1.85.49,3.45,1.49,5.08,2.44.23.25.64.33.75.66.22.69.58-.01.85.12.08.03.17.04.26.04.6.13,1.13.44,1.7.63.79.26.93.71.45,1.39-.31.45-.75.74-1.16,1.08-1.95,1.58-3.79,3.24-3.95,6-.08.34-.2.67-.11,1.03.02.12.01.24,0,.36-.16.33-.28.66.11.93,1.35.92.39,2.09.25,3.11-.13.96-1.14.94-1.89,1.12-.33.08-.71-.11-1.02.14-2-.04-4-.11-5.92-.78Z"/>
  <path class="st102" d="M36.71,92.36c.44-.48,1.09-.36,1.61-.44.69-.11.98-.6,1.08-.99.18-.65.12-1.36.41-2.02.11-.26-.23-.42-.45-.57-.84-.58-.86-.71-.25-1.6.68-.01.66.74,1.23,1.05-.65-2.33.25-4.16,1.67-5.81.42-.49.83-1.07,1.64-.86.09,0,.18,0,.28,0,.09.09.17.18.26.26,0,.09,0,.18,0,.27.09.06.12.12.09.18-.03.06-.06.09-.09.09-.09,0-.18,0-.27,0-.09.09-.18.17-.26.26-.27.18-.54.36-.81.54-.09.09-.18.17-.26.26v.27c.17.7-.52.9-.78,1.36.21.27.6.31.78.61.07.11.09.22.08.35-.37.8-.81,1.56-1.14,2.38.02.43.2.77.52,1.05.44.39.34.77-.01,1.15-.21.3-.54.4-.86.49.43-.11.85-.17,1.17.25.06.12.06.24,0,.36l-.05.06c-.27.13-.53.19-.77-.05h.01c-.19-.11-.38-.14-.57.02h0c-.22,0-.41.05-.54.25-.21.02-.41.08-.53.27-.22.02-.41.09-.52.29-.88.15-1.76.38-2.67.27Z"/>
  <path class="st44" d="M24.62,75.73c.1.79.76.68,1.4.74-.52.88-1.18,1.42-1.91,1.91-.43.28-.64.2-.76-.25-.08-.29-.2-.37-.44-.17-.18.16-.3.33-.06.54.23.2.38.51.74.49.06.07.09.15.08.23,0,.08-.02.13-.04.13-.08.11-.17.19-.29.26-.06.01-.13.03-.19.04-.73-.03-.95.4-1.32,1-.86,1.41-1,2.99-1.45,4.5,0,.08,0,.17,0,.25.11.12.1.23-.04.32-.86-1.54-.47-3.06.13-4.55.18-.45.48-.85.44-1.36h0c.19-.26.32-.57.55-.81h0c.18-.26.31-.56.55-.8h-.01c.13-.15.09-.41.28-.54l-.02.02c.07-.12.16-.21.28-.28h-.01c.07-.1.17-.19.26-.28h0c.08-.09.17-.18.27-.27h0c.09-.09.18-.19.29-.26h-.01c.07-.1.17-.19.29-.26,0,0,.01.02.01.02.09-.08.19-.17.28-.25.09-.09.17-.18.26-.27.15-.03.3-.07.44-.1Z"/>
  <path class="st80" d="M20.36,85.71c.01-.11.03-.21.04-.32.44.19.44.49.22.85-.08-.02-.15-.03-.23-.05-.01-.16-.02-.32-.04-.48Z"/>
  <path class="st30" d="M43.96,77.46c-.65-.1-1.18-.43-1.63-.89.25-.13.49-.28.34-.61-.31-.66-.17-1.37-.27-2.05-.12-.79-.17-1.67.64-2.28.18-.14.28-.44.2-.74-.08-.29.06-.38.35-.38.79,0,.7-.66.57-1.03-.17-.49-.34,0-.49.14-.53-.05-.58.64-1.13.75.04-.48.08-.9.11-1.33.52.01.95-.16,1.51-.37-.45-.39-1.26-.02-1.27-.8,0-.49-.01-.98-.02-1.47.51-.31.03-1.02.53-1.34.48-.37.97-.66,1.53-.15.03.05.07.11.1.16-.23,1.41-.39,2.83-.32,4.27-.02.07-.01.14,0,.22-.42.56-.16,1.21-.2,1.81-.13,2-.13,3.99.32,5.96-.26.25-.57.15-.86.11Z"/>
  <path class="st74" d="M43.96,77.46c.29-.04.57-.08.86-.11.19,0,.38-.03.49-.21.08,0,.15-.02.22-.06.08-.06.17-.09.27-.09.19,0,.39.02.52-.15,0,0,0,0,0,0,.12.04.34.08.34.14.07.57-.72.76-.63,1.4.02.11-.45-.09-.71-.1-.04,0-.07.03-.11.06-.11.5.4.6.59.92-.2.34-.69.38-.81.81-.24.42-.63.64-1.06.8-.09.09-.19.18-.28.27-2.32,1.26-3.54,3.83-3,6.33.06.3.11.61-.02.95-.88-.22-1.08-1.05-1.52-1.66h0c-.18-.27-.18-.53,0-.8-.29-2.3,1.18-3.79,2.53-5.29.51-.57,1.06-1.17,1.84-1.46.43-.16.58-.64.87-.97.56-.64-.23-.53-.38-.77Z"/>
  <path class="st9" d="M30.58,73.73c-.1,0-.2,0-.3,0-.49.3-1.06.31-1.59.45-.61.02-1.22.43-1.84.01-.19-.3-.44-.54-.81-.61-.1-.08-.19-.16-.29-.24-.08-.1-.16-.19-.25-.29-.09-.1-.18-.21-.27-.31-.01-.08-.05-.15-.09-.21-.05-.1-.12-.17-.21-.23l-.02-.02c-.02-.14-.11-.23-.25-.27-.09-.09-.18-.18-.27-.27-.09-.09-.17-.19-.26-.28-.08-.1-.16-.19-.24-.29-.08-.09-.17-.18-.25-.28-.08-.34-.27-.6-.58-.76-.12-.62-.34-1.17-1.02-1.39-.04-.2-.11-.39-.31-.49-.08-.1-.16-.2-.24-.29-.02-.16-.05-.31-.07-.46.4-.77.79-.02,1.18,0,.98,1.65,2.69,2.51,4.08,3.72.74.71,1.27,1.72,2.62,1.79-.34-.61-.68-1.14-.93-1.71-1-2.61-2.26-5.15-1.83-8.08.01-.09,0-.18,0-.27.03-.39-.02-.85.51-.96.74-.15.51.54.75.94.09-.54.2-.98-.51-.97-.45,0-.74-.22-.56-.65.45-1.08.07-2.22.32-3.33.26-1.14.96-2.1,1.13-3.26.73-1.3.96-1.39,2.11-.78.1.13.1.26,0,.39-.12.35-.33.67-.29,1.06-.45.44-.55,1-.54,1.6-.35.3-.23.7-.26,1.08-.32.26-.29.64-.32.98-.22,2.27-.47,4.55.06,6.82,0,.68.04,1.34.52,1.89.03.29.03.59.29.78,0,.29,0,.59.29.78,0,0,0,0,0,0,.15.15.09.4.25.54h0c.16.14.1.39.27.54h0c0,.22.09.4.28.53.08.1.15.2.23.3.08.1.16.19.24.29.06.2.14.38.33.48.08.1.15.2.23.3.02.21.07.41.26.54.01.18.02.35.03.53-.42.26-.91.21-1.36.33h-.1s-.1,0-.1,0Z"/>
  <path class="st30" d="M46.28,62.63c-.19.14-.24.34-.23.56-.08.01-.16.02-.24.03-.06-.03-.13-.06-.19-.08-.35-1.16-.17-1.46.95-1.53-.08.35-.32.65-.29,1.03Z"/>
  <path class="st30" d="M45.81,63.21c-.07.41-.19.8-.53,1.08-.05-.05-.1-.1-.14-.14-.13-.54-.05-.95.63-.96l.04.02Z"/>
  <path class="st30" d="M45.29,64.29c-.03.29,0,.59-.27.8l-.04-.03c-.49-.47-.38-.72.27-.8l.04.03Z"/>
  <path class="st77" d="M71.77,31.61c-.14.16-.25.39-.43.48-.65.32-.73.73-.44,1.39.27.63-.04,1.31-.27,1.88-.25.65-.36.6.19,1.12-.24.38-.62.19-.94.25-.06-.37.1-.79-.28-1.08,0-.18,0-.35,0-.53-.02-.37.12-.79-.26-1.07,0-.29.05-.61-.26-.8,0-.3.04-.61-.27-.8,0-.22-.05-.42-.26-.54,0-.29.04-.61-.28-.8h0c-.08-.1-.18-.18-.26-.27h0c-.19-.13-.11-.4-.27-.54-.09-.17-.18-.35-.27-.52-.16-.14-.1-.4-.27-.54-.15-.15-.11-.39-.27-.54h0c-.09-.09-.18-.19-.26-.28,0-.08,0-.17-.01-.25-.09-.08-.16-.19-.26-.27h0c-.03-.53-.39-.82-.81-1.06h0c-.09-.09-.19-.17-.26-.28h0c-.16-.14-.11-.39-.28-.53h0c-.14-.18-.15-.36,0-.54.86.07,1.08.88,1.6,1.34,1.38,1.17,2.77,2.33,4.15,3.51.41.35.71.79.96,1.27Z"/>
  <path class="st7" d="M50.34,73.1c.15-.37.57-.61.53-1.07.75-.55,1.39-1.22,2.08-1.82,1.27-1.1,2.61-2.07,4.18-2.76,2.61-1.14,4.94-2.75,7.02-4.69.55-.51,1.11-1.01,1.82-1.31.12-.01.24,0,.36.04.62.46,1.41-.66,1.99.21.04.28-.16.43-.33.6-.13.12-.25.25-.36.39-.07.1-.16.19-.25.27-1.55.79-2.93,1.91-4.6,2.48.13.03.22-.07.33-.08.39-.04.81-.79,1.1-.17.27.57-.26.93-.83,1.1-.47.14-.91.35-1.27.69h.01c-.72.36-1.46.66-2.15,1.07,0,.08-.02.15-.03.22-.22.01-.4.08-.53.28-.23,0-.42.08-.56.26,0,0-.12,0-.12,0l-.12.04c-.22-.02-.41.03-.54.23-.1.07-.2.15-.31.22-.21.03-.4.1-.51.3-.22.02-.41.07-.52.29-.1.08-.19.16-.29.24-.1.08-.19.16-.29.23-.43.05-.81.17-1,.61h-.01c-.11.08-.19.18-.29.25v-.02c-1.23.74-2.26,1.67-2.94,2.95-.24.12-.41.3-.48.57-.61.25-1.23.47-1.89.58.61-.41.82-1.11,1.17-1.7.21-.36-.1-.44-.38-.49Z"/>
  <path class="st39" d="M22.53,67.75c-.42.19-.63-.63-1.1-.23-.08-.02-.15-.03-.23-.04,0-.22-.04-.42-.24-.55-.04-.43-.13-.83-.57-1.05-.02-.29.02-.6-.27-.8,0-.3.02-.6-.27-.8,0-.22-.05-.42-.25-.54,0-.09-.01-.17-.04-.25,0-.39.12-.8-.23-1.11,0-.08,0-.15-.02-.23-.08-.72.2-1.48-.24-2.15-.02-1.24-.04-2.49-.06-3.73.11-.1.22-.21.32-.31.04.04.08.07.12.11.06.09.11.19.16.29.06.1.11.2.17.3.21.84-.05,1.78.57,2.53.23,2.55.48,5.1,1.86,7.36.06.11.12.23.17.35.03.06.06.12.09.17.06.11.11.23.15.36.03.13,0,.25-.09.35Z"/>
  <path class="st84" d="M26.03,41.03c.07-.01.15-.02.22-.03.3-.34.16-.74.17-1.13,0-.35-.19-.86.49-.86.07,0,.08-.06-.03-.12-.12-.06-.25-.09-.33-.21-.62-.96.4-1.67.42-2.57.02-.51.85-.54,1.48-.37.98.27,1.92.49,2.67,1.33.51.57.03,1.33.59,1.81.2.17.34.37.36.64,0,.13-.02.26-.05.39-.56,2.57-1.57,4.96-2.86,7.24-.08.11-.17.21-.27.29-.11.07-.23.12-.35.14-.13,0-.32-.01-.36-.11-.48-1.19-1.03-2.06-2.51-1.11-.31.2-.52-.37-.71-.65-.02-.06-.03-.12-.05-.18.12-.72.72-1.32.56-2.11.73-.67.49-1.56.56-2.38Z"/>
  <path class="st84" d="M24.67,45.56c.08-.01.16-.02.24-.04,0,0,.04.05.04.05.17.33.1.54-.3.56-.12-.2-.14-.39.03-.58h0Z"/>
  <path class="st44" d="M30.82,74.71c.3.02.09.83.79.38.56-.36.74.35.98.84-1.1.3-2.13.4-3.18.38-.04,0-.1.02-.13,0-.85-.61-1.71-.58-2.6-.08-.04.02-.11.03-.13.01-.52-.65-1.35-.1-1.93-.51.11-.15.22-.3.32-.45.22-.02.4-.1.51-.3h0c.1-.09.2-.19.33-.24.07.01.14,0,.21-.04.1-.09.21-.18.34-.22.07.01.13,0,.18-.06.08.01.16.02.24.02.54-.31,1.12.09,1.68-.09.74.44,1.39,1.39,2.36.37Z"/>
  <path class="st73" d="M20.12,55.44c.1-.07.2-.15.31-.22.08-.01.16-.04.24-.08.1-.08.19-.16.31-.23.08,0,.15,0,.23-.03.22-.14.47-.13.71-.1.11.08.17.18.17.31-.49,1.29-1.06,1.52-2.47.96-.07-.11-.08-.23,0-.35h0c.21-.01.41-.07.52-.28Z"/>
  <path class="st89" d="M54.1,60c.09-.09.18-.18.27-.26.09-.09.17-.18.26-.28.09-.09.18-.18.26-.27.53-.36.99-.79,1.33-1.34h0c.1-.08.19-.17.28-.26h0c.09-.08.19-.17.28-.25.09-.08.19-.17.28-.25.16-.02.33-.04.49-.06-.37,1.21-.25,2.68-1.76,3.29-.59.24-1.16.43-1.72-.07.01-.08.02-.17.02-.26Z"/>
  <path class="st16" d="M73.08,53.3c.06.41.18.83-.32,1.23.81.14,1.19-.24,1.64-.5.37-.22.77-.13.59.38-.19.52.01.52.38.48.17-.02.33-.1.5-.15.58-.16.72.15.65.63-.04.3-.15.59-.23.89-.02.16-.03.33-.05.49-.08.1-.16.19-.24.29-.08.1-.17.19-.25.29-.41.25-.74.55-.82,1.05-.48.35-.94.71-1.08,1.33-.09.09-.17.18-.26.27-.31.04-.49.22-.55.53-.09.09-.17.17-.26.26-.17.01-.33.02-.5.03-1.06-1.01-1.8-1.07-2.97-.2-.57.42-1.14.68-1.82.29-.2-.27-.08-.54.1-.72,2.1-2.01,3.52-4.52,5.13-6.89.12-.07.24-.06.36.03Z"/>
  <path class="st14" d="M31.62,39.13c-.28-.12-.56-.24-.85-.37-.13-.45.73-.43.44-.94-.28-.5-.63-.97-1.12-1.27-.68-.42-1.55-.26-2.26-.68-.24-.14-.6.39-.43.65.13.21.12.28-.12.34-.33.09-.42.44-.59.68-.25.35-.3.79.08,1.07.34.25.35-.51.74-.32.14.33.09.68.03,1.03-.03.19-.19.27-.38.31-.28.05-.2-.61-.54-.3-.2.18-.1.5-.03.76.11.39-.04.68-.37.9,0-.62,0-1.24.01-1.87,0-.36,0-.71-.01-1.07-.06-.72.24-1.48-.24-2.15,0-.09,0-.17-.01-.26,0-.22-.04-.42-.25-.55,0-.09,0-.17-.02-.26,0-.23-.05-.42-.26-.53,0-.09,0-.18,0-.27-.01-.5.26-1-.05-1.51.76.42,1.11,1.16,1.28,1.86.14.58.43.43.74.45.38.02.63-.02.59-.58-.06-.79.75-.66,1.31-1.07.05,1.07.54,1.74,1.38,2.19.25-.15,0-.65.37-.8.09.09.18.18.27.27.09.11.17.22.23.35-.1,1.21.63,2.36.28,3.59-.06.13-.14.24-.24.34Z"/>
  <path class="st115" d="M45.25,64.26c-.39.16-.47.43-.27.8-.53-.17-1.06-.15-1.58.02.09-.18.18-.36.27-.53.03-.09.03-.18,0-.27.01-.29-.05-.61.27-.8h0c.32-.73.59-1.49,1.07-2.14.43-.1.5-.44.53-.8.01-.27.14-.49.3-.71.46-.61.45-.61,1.1.13.27-.48.33-.88-.06-1.29h0v-.27c.12-.14.29-.13.45-.13-.16-.01-.33,0-.45-.13-.45-.42-1.01-.63-1.57-.88-1.54-.7-3.26-.92-4.74-1.8-.43-.25-.46-.48-.12-.8.5-.59.87-1.33,1.88-1.25.53.05.96.11,1.22.61.54,1.06,1.49,1.61,2.56,1.99,1.28.46,1.93,1.4,2.08,2.72-.12.23-.06.52-.25.72h-.03c-.06.12-.14.2-.23.28h0c-.1.1-.19.2-.25.33,0,.08-.04.15-.09.21-.32.17-.27.55-.46.79h0c-.1.1-.19.2-.24.34.01.07,0,.14-.05.2-.92.44-1.02.64-.8,1.59-.45.22-.54.62-.53,1.07Z"/>
  <path class="st30" d="M46.86,61.06c0-.35-.04-.73.46-.79.02.07.03.15.02.22-.18.13-.24.32-.26.53-.08.02-.15.03-.23.04Z"/>
  <path class="st30" d="M46.62,61.39c.02-.15.11-.26.24-.33-.08.11-.16.22-.24.33Z"/>
  <path class="st32" d="M54.08,60.25c.83.13,1.55-.12,2.23-.59.38-.26.8-.47.36-1.02-.21-.27-.07-.52.18-.67.37-.22.57-.55.7-.94,0,0,0,0,0,0,.57-.29.97-.99,1.77-.73.59.19.92.35,1.03,1.21.12.91.18,2,.66,2.76.28.45,1.32.66,2.12.47.52-.13,1.02-.36,1.55-.4.47-.04,1-.2,1.31.37.05.28-.06.5-.23.71-.55.39-.97,1.03-1.76.98-1.07-.68-1.89.04-2.65.59-.36.26-.51.19-.88.11-1.09-.22-2.08-.6-3.01-1.22-.5-.33-1.19-.39-1.7-.7-.59-.36-1.11.51-1.71,0-.15-.13-.42.22-.21.53.44.66.04.85-.53.95-.09-.36-.19-.72-.28-1.09h0c.12-.06.19-.17.27-.27.1-.25.2-.51.31-.76.08-.1.16-.19.24-.29.08,0,.17,0,.25-.01Z"/>
  <path class="st19" d="M53.28,61.31c-.04.14-.13.24-.27.28.09-.09.18-.19.27-.28Z"/>
  <path class="st17" d="M42.32,50.9c0-.09,0-.18,0-.26.09-.08.19-.15.31-.19.25-.08.56-.31.75-.18,1.97,1.3,4.17.63,6.27.75,1.28.07,2.27.82,2.6,2.02.09.34-.15.58-.28.85-.02.15-.05.3-.07.45-.08.1-.15.2-.23.29-.09.09-.17.19-.26.28-.34.15-.51.43-.56.78-.33.29-.66.58-.99.87-.05-.03-.11-.06-.16-.09q-.63-1.09-.2-3.14c-.45,1.04-1.09.77-1.84.52-.76-.26-1.53-.52-2.21-.92-1.16-.69-2.44-.54-3.68-.67-.07-.1-.11-.21-.1-.33.01-.18.12-.32.21-.47.05-.1.11-.2.18-.29h0c.09-.09.17-.18.26-.27Z"/>
  <path class="st17" d="M47.93,59.44c0-.26,0-.52.01-.79.43-.88.43-2.14,1.86-2.15,0,0,.06.05.06.05-.02.16-.04.32-.06.48-.09.09-.17.18-.26.27-.35.16-.52.42-.54.8-.08.09-.17.19-.25.28h0c-.18.13-.1.4-.28.53h0c-.19.11-.27.3-.3.5-.08.01-.16.02-.24.02Z"/>
  <path class="st96" d="M71.97,61.29c-.09.09-.18.17-.27.26-.36.05-.63.22-.78.56-.62.15-.99.6-1.34,1.08h0c-.08.11-.15.21-.28.27v-.02c-.11.21-.39.12-.51.3h0c-.09.09-.19.18-.29.26,0,0,0-.02,0-.02-.39,0-.63.22-.79.55-.1.08-.2.15-.3.23-.28.04-.59,0-.77.3-.6.13-1.14.4-1.6.82h0c-.14.18-.4.1-.55.26,0,0,0,0,0,0-.22,0-.41.08-.54.26-.3,0-.6,0-.79.28-.22,0-.41.07-.53.27-.17,0-.35.02-.52.03.19-.53.68-.67,1.14-.81.49-.14.75-.42.8-1.07-.68.43-1.34.66-2.09.57,2.01-.68,3.52-2.25,5.48-2.99.31-.34.81-.42,1.08-.81.13-.12.25-.25.39-.36.27-.14.48-.36.74-.48-.27.07-.46.32-.71.46-.15.1-.27.23-.4.36-.09.1-.19.1-.3.02-.59-.55-1.02-.17-1.44.24-.13.13-.28.23-.45.08-.22-.2-.03-.39.02-.59-.01-.76.43-.91,1.07-.8.8.1,1.46-.1,1.98-.76.41-.52.92-.85,1.57-.29.08.07.25.05.37.03.91-.19.91.4.89,1.02-.18.12-.28.3-.31.51Z"/>
  <path class="st112" d="M64.52,51.97c.87.33,1.74-.05,2.61-.03,1.05.03,2.13-.24,3.02.56.12.1.27.02.37.06.53.25.44-.75.91-.45.35.22.67.43,1.1.38h.02c.06.08.09.15.08.23,0,.08-.01.12-.03.12-.07.11-.15.2-.25.28-.1.07-.22.13-.33.18-1.06.71-2.23,1.08-3.51,1.12-.72.02-1.29.24-1.61.96-.21.47-.62.69-1.09.47-1.2-.56-2.44-.52-3.7-.34-.82.12-1.65.24-2.38-.33,0-.08,0-.17,0-.25.21-.03.39-.1.49-.31h0c.1-.08.19-.18.28-.26h0c.09-.08.19-.16.28-.24.21-.02.4-.08.5-.3.09-.09.19-.18.28-.26.71,0,1.42.01,2.12.02.17.22.43.43.66.3.33-.17.09-.55.14-.84,0-.36.01-.72.02-1.09Z"/>
  <path class="st12" d="M27.06,9.69c.05.17.08.35.15.51.11.23.44.42.24.69-.21.29-.55.45-.94.28-.34-.15-.7-.11-1.05-.13.09-.18.18-.35.27-.53,0,0,0,0,0,0,.09-.08.17-.17.25-.26.1-.09.19-.17.29-.26.3.01.54-.16.79-.29Z"/>
  <path class="st85" d="M32.42,60.53c-.03.21.02.53-.1.63-1.14.89-.54,1.84-.12,2.77.23.51.38.97-.07,1.43-.07,0-.14-.02-.21-.04-.01-.46.08-.94-.27-1.33-.03-.37.03-.77-.26-1.08,0-.08,0-.16-.04-.24-.01-.47.08-.97-.24-1.39.02-.07.03-.14.01-.21.18-.34-.07-.77.23-1.08h0c.08-.1.17-.19.29-.25,0,0,0,.02,0,.02.17,0,.35,0,.52-.01.08.26-.45.73.26.78h0Z"/>
  <path class="st107" d="M21.74,54.36c-.01-.08-.02-.17-.02-.25h0c-.09,0-.18,0-.27,0-.1-.21-.29-.28-.5-.31-.09-.09-.17-.17-.26-.26-.04-.2-.12-.38-.3-.5,0-.17,0-.35.01-.52.38-.35.51-.82.57-1.31.07-.1.15-.2.22-.3.34-.15.5-.43.56-.78.08-.1.16-.19.24-.29h0c.08-.1.17-.19.27-.27h0c.21-.09.28-.29.32-.49.08-.09.16-.19.24-.28.08-.1.16-.19.24-.29.33-.16.52-.43.54-.8.21-.11.26-.31.28-.52.43-.24.53-.63.52-1.08,0,0,0,0,0,0,.07-.13.15-.14.24-.02.23-.09.28-.29.31-.5.24,0,.42.08.5.33.09.29.21.26.46.09,1.18-.82,1.93-.55,2.22.81.07.35.16.59.54.61.08.16.1.33.05.51-.7,2.43-1.44,2.6-3.1,1.17-.84-.33-2.86.4-2.8,1.14.08.99-.54,1.14-1.09,1.5-.14.09-.24.26-.24.49.89.24,1.78.54,2.45,1.2.37.36,1.12.78.59,1.4-.58.67-1.09.12-1.49-.4-.05-.01.08-.21-.11-.1-.15.45-.3.91-.93.6,0,0-.06-.07-.06-.07.2-.28.25-.49-.2-.5Z"/>
  <path class="st46" d="M47.39,13.73c-.27-.21-.37-.53-.52-.82.17,0,.35,0,.52.01,0,.09,0,.17.01.26.13.13.13.28.1.45-.04.03-.08.07-.12.1Z"/>
  <path class="st46" d="M47.67,13.98c0,.09-.02.19-.03.28-.2-.12-.25-.32-.26-.54l.03-.03c.1-.11.18-.09.25.03,0,.08,0,.17.01.25Z"/>
  <path class="st111" d="M28.41,74.44c-.22.41-.47.67-.89.18-.19-.23-.48-.17-.74-.19.02-.08.04-.15.07-.23.62-.03,1.18-.41,1.83-.29.14.29-.06.41-.26.53Z"/>
  <path class="st92" d="M35.13,50.65c.08-.1.16-.2.23-.29.21-.11.28-.29.3-.51.08-.1.16-.19.24-.29.08,0,.16-.02.23-.03.1-.07.21-.13.33-.17.33-.07.77.19.99-.16.8-1.28,1.85-.7,2.8-.35.59.22,1.16.37,1.77.39.07.07.1.14.08.21-.02.07-.04.11-.06.11,0,.09,0,.17,0,.26-.09.09-.18.18-.26.27-.09.08-.17.18-.26.27,0,.09,0,.18,0,.26-.17.14-.1.4-.26.54-.09.09-.18.18-.27.27-.08.09-.18.17-.27.27h0c-.16.14-.12.39-.27.53h0c-.2.07-.47.25-.61.03-.63-.99-1.74-.73-2.62-1.05-.31-.11-.65-.06-.85.22-.21.28-.42.6-.51.93-.14.48-.67-.18-.78.34-.16.73-.79.58-1.31.6.01-.17.03-.34.04-.51.31-.19.49-.46.51-.82h0c.08-.09.16-.19.24-.28l.02-.02c.45-.19.59-.56.57-1.02Z"/>
  <path class="st83" d="M30.28,54.36c0-.09,0-.18,0-.27-.1-.14-.16-.34-.32-.42-.41-.2-1.02-.23-.65-.98.27-.54.52-1.05,1.28-.81.25.08.53-.06.78.1.12.17.16.34-.01.5,0,.09-.01.18-.01.26-.21.11-.26.31-.29.52-.19.13-.25.33-.26.54-.18.13-.24.32-.27.52-.08.01-.15.02-.23.03Z"/>
  <path class="st96" d="M59.99,68.04c.01-.21-.03-.61.1-.58.79.18,1.29-.67,2.05-.5,0,.08-.02.16-.03.24-.22,0-.42.06-.53.27h0c-.08.11-.19.2-.32.25h-.11s-.1.03-.1.03c-.15.16-.4.1-.54.26h0c-.17,0-.34.02-.51.04Z"/>
  <path class="st31" d="M32.16,35.11c.33.11.56.65,1.03.22.22-.2.39.11.58.14.54.09.86.8,1.52.54.15-.06.28.11.24.23-.28.83.33.68.79.78.46.1.94.23,1.11.81-.43.34-.95.26-1.45.46.05.48.46.68.75.94.37,0-.12-.74.49-.51.6.22.57.71.54,1.21-.43.39-.2.89-.25,1.35,0,.26-.02.52-.03.78-.2.12-.25.32-.27.53-.08,0-.17.01-.25.01-.76-.44-1.31-1.02-1.32-1.98,0-.65-.5-.78-1.01-.79-.41,0-.91-.17-1.08.46-.12.46-.25,1.08-.87.93-.63-.15-.56-.81-.56-1.34,0-.13.02-.26.03-.4-.16-1.06.16-2.13-.09-3.19.01-.4-.23-.82.1-1.19Z"/>
  <path class="st70" d="M78.16,53.3c-.59-.25-1.19-.49-1.44-1.32.44.18.87.15,1.17.51q-.02.27.54.27c0,.09.01.18.02.27-.02.08-.04.16-.04.25-.08,0-.17.01-.25.02Z"/>
  <path class="st89" d="M59.74,55.19c1.12-.03,2.26.26,3.35-.21.32-.14.6.1.89.15.28.05.55.25.87,0,.42-.34.73-.35.9.34.1.4.76.31.85-.16.17-.89.77-1.15,1.52-1.19,1.26-.06,2.51-.1,3.51-1.05.12-.11.43-.03.65-.03.09.16.12.35.04.51-1.48,2.76-3.23,5.3-5.83,7.15-.18.13-.39.21-.62.1-.53-.34-1.06-.19-1.6-.04-.55.16-1.11.29-1.66.47-.34.11-.56.15-.65-.32-.07-.32-.25-.15-.46.01-.51.4-.77.33-.88-.27-.14-.77-.16-1.56-.23-2.34-.26-.06-.45.37-.72.11-.31-.31-.09-.56.13-.79.15-.16.32-.31.35-.58-.84-.96-1.72-.31-2.59-.02.1-.17.19-.35.29-.52.09-.09.19-.17.28-.26.1-.08.19-.16.29-.24.21-.03.4-.1.5-.31.1-.08.19-.16.29-.24.09-.09.18-.17.27-.26.09,0,.18-.01.27-.02Z"/>
  <path class="st38" d="M32.41,39.66c.07.46-.15.98.33,1.48.19-.34.73-.39.44-1.02-.16-.36.04-.66.55-.62.39.04.78-.03,1.17,0,.67.04.97.35,1.02,1,.05.62.09,1.22.79,1.51.21.09.23.36.25.59,0,.18,0,.36-.01.53-.29.19-.27.5-.29.78-.19.13-.25.32-.26.54-.3.19-.49.46-.51.82-.21.11-.26.31-.28.53-.2.11-.26.31-.29.52-.08.1-.15.2-.23.3-.21.12-.26.31-.27.53-.34.16-.52.42-.54.8-.33.17-.52.43-.54.8-.2.12-.26.31-.28.52-.31.19-.5.44-.52.82-.2.12-.27.31-.27.53-.2.12-.25.32-.27.53-.21.11-.27.3-.29.51-.08.1-.15.2-.23.3-.08.01-.15.03-.23.03-.05-.04-.1-.07-.15-.11-.82-.79-.95-1.57-.19-2.54.66-.85.49-1.28-.53-1.63-.53-.18-1.04-.27-1.02-.97.38-1.47,1.12-2.81,1.61-4.24.32-.94.55-1.87.52-2.86h0c.17-.16.35-.16.53,0Z"/>
  <path class="st22" d="M42.05,49.29c-.56.34-1.02.48-1.64-.06-.43-.37-1.15-.39-1.74-.56-.45-.13-.74.19-.8.51-.18.87-.58.84-1.18.42-.06-.05-.17-.03-.26-.04-.13-.51.38-.69.54-1.05.27-.2.27-.5.29-.79.08-.1.16-.19.24-.29.21-.1.27-.29.31-.49.31-.06.49-.23.51-.55.08,0,.16-.02.24-.02.08-.1.18-.18.26-.28h0c.2-.19.35-.49.7-.35.09.02.13.08.11.16.05-.14-.14-.18-.13-.31.03-.26.19-.46.41-.44,1.29.11,2.64-.07,3.74.86.12.17.17.36.14.57-.59.91-.78,2.08-1.76,2.74Z"/>
  <path class="st75" d="M36.98,48.5c.03.46-.39.69-.54,1.05-.1,0-.2-.02-.3-.03.02-.16.03-.33.05-.49.09-.09.17-.18.26-.27.09-.09.18-.18.26-.27.09,0,.18,0,.27,0Z"/>
  <path class="st70" d="M77.11,55.18c-.32-.38.06-.41.26-.54,0,.17-.01.35-.02.52-.08,0-.16,0-.24.01Z"/>
  <path class="st30" d="M47.67,59.72c.08-.09.16-.18.23-.27,0,.08,0,.16,0,.24-.08,0-.16.02-.24.02Z"/>
  <path class="st30" d="M47.42,60.05c.08-.11.16-.22.25-.33-.08.11-.16.22-.25.33Z"/>
  <path class="st46" d="M46.87,12.91c-.27,0-.54,0-.81,0,.09-.09.18-.19.27-.28.18,0,.35.02.53.03,0,.09,0,.17,0,.26Z"/>
  <path class="st97" d="M39.64,45.81c-.27.09-.55.17-.82.26.01-.17.02-.34.04-.51.08-.09.17-.19.25-.28.2-.12.26-.32.27-.53.35-.15.54-.41.54-.8h0c.17-.13.08-.41.28-.53h0c.08-.1.16-.19.25-.28.02-.08.03-.15.02-.23.05-.13.15-.22.25-.31h0c.21-.11.28-.3.3-.51.08-.1.16-.19.24-.29.21-.12.26-.31.27-.53.2-.11.27-.3.28-.52.09-.09.17-.18.26-.28.08,0,.17,0,.25,0,.27-.14.53-.31.82-.42.88-.32,1.79-.82,2.56.19.34.45.76.29,1.18.23.24.88-.57,1.34-.83,2.02-.46,1.21-1.17,2.3-1.83,3.41-.1.08-.22.14-.35.18-.07,0-.13,0-.2,0-1.11-.54-2.37-.41-3.53-.75-.32-.1-.45.19-.48.48Z"/>
  <path class="st0" d="M51.97,53.88c0-.43.35-1-.45-1.13-.24-.04-.2-.23-.09-.4.15-.22.12-.43-.12-.55-1.03-.48-2.12-.55-3.23-.43-.35.04-3.67-.11-3.97-.23-.08-.03-.23-.05-.24-.09-.19-.87-.84-.32-1.28-.42-.08-.07-.13-.15-.12-.26.01-.1.05-.2.12-.27h0c.26-.98.29-2.06,1.25-2.72.84.38,1.58.82,2.17,1.63.59.81,1.76.72,2.65.78,1.48.1,2.85.62,4.29.86.64.11,1.02.37.62,1.07-.01.16-.03.33-.04.49-.08.1-.16.19-.24.29-.21.11-.27.3-.3.51-.08.09-.16.19-.25.28-.08.09-.17.19-.25.28-.09.09-.17.19-.26.28-.08.01-.17.02-.25.03Z"/>
  <path class="st70" d="M77.37,54.65c.07-.56.26-1.06.79-1.35,0,.09.01.18.02.27-.02.08-.04.17-.04.25-.21.12-.26.31-.28.53-.08.09-.16.19-.24.29-.09,0-.17,0-.26.01Z"/>
  <path class="st68" d="M45.76,77.1c.02-.08.04-.15.05-.23.17-.01.34-.02.51-.03-.11.24-.33.28-.56.26Z"/>
  <path class="st87" d="M43.66,37.79c0,.22-.05.42-.27.53,0-.18,0-.35,0-.53.09,0,.17,0,.26,0Z"/>
  <path class="st100" d="M55.69,48.49c-.21.12-.26.31-.27.54-.21.12-.26.31-.26.53-.02.08-.03.16-.04.25-.08.09-.16.19-.25.28-.21.11-.26.31-.28.52-.08.09-.16.19-.25.28-.08,0-.17.02-.25.03-.25-.14-.36-.36-.39-.63.65-.84.35-1.42-.54-1.79-1.77-.74-3.02-2.08-4.21-3.51-.06-.07-.18-.14-.17-.19.43-1.62-1.42-2.18-1.64-3.49.06-.78.51-1.4.83-2.07.08-.1.19-.16.32-.19.06.03.12.05.17.08.02.55-.4,1.24.59,1.46.23.05.32.6.54.86.63.7,1.4,1.19,2.44,1.23-.2.63-.76.39-1.11.57-.43.22-.51.47-.2.82.45.5.93.9,1.71.77.84-.14,1.6.02,2.26.71.48.5,1.29.56,1.8,1.08,0,.17-.01.35-.02.52-.21.12-.25.32-.26.54-.08.09-.17.19-.25.28-.21.12-.26.31-.27.53Z"/>
  <path class="st6" d="M53.82,50.36c.22.12.26.34.28.56-.02.16-.03.32-.05.48-.08.1-.16.19-.24.29-.09,0-.17.01-.26.02-.03-.4.01-.72-.61-.8-.88-.11-1.79-.19-2.62-.64-.32-.17-.78-.2-1.15-.14-.65.11-1.23-.03-1.79-.32-.28-.14-.5-.2-.85,0-.39.22-.93-.07-.89-.46.07-.75-.42-.89-.89-1.12-.37-.19-.66-.45-.84-.82,0-.05,0-.1,0-.15,0-.11.01-.21.03-.31.03-.16.08-.31.15-.46.14-.26.31-.48.61-.56.75-.36,1.2.06,1.61.6.07.13.08.26-.07.35,0,0,.12.04.12.04,0,0-.01-.13,0-.13.08-.06.17-.11.26-.16.94-.45,1.51.13,2.01.76.3.37.53.61,1.07.53,1.11-.17,1.95.32,2.52,1.28.09.08.17.16.25.24.32.49.88.64,1.35.92Z"/>
  <path class="st38" d="M31.35,52.49c0-.18,0-.35,0-.53.04-.03.08-.07.12-.1.04.03.09.06.13.09,0,0,.05.05.05.05-.02.16-.03.32-.05.49,0,0-.13,0-.13,0h-.13Z"/>
  <path class="st97" d="M38.83,46.06c-.09.09-.17.19-.26.28,0-.09,0-.18,0-.27.09,0,.17-.01.26-.01Z"/>
  <path class="st100" d="M48.47,38.59c.09,0,.18,0,.26,0,0,.22-.05.42-.26.54h0c-.08-.07-.13-.16-.15-.27.01-.11.07-.2.15-.27Z"/>
  <path class="st62" d="M48.47,38.59c0,.09,0,.17,0,.26-.08.1-.15.2-.25.28-.07.79-.64,1.39-.81,2.14-.79,1.66-1.2,3.54-2.67,4.82-.18.18-.35.36-.53.54-.15-.08-.24-.21-.29-.37-.02-.05-.04-.1-.05-.15-.03-.11,0-.21.08-.29.98-1.78,1.96-3.57,2.94-5.35.27-.62.54-1.25.81-1.87.17-.14.1-.39.26-.54,0-.08,0-.17.02-.25.55.02.52.42.52.79Z"/>
  <path class="st18" d="M41.25,87.81c-.05-.07-.1-.13-.16-.2.81-.53.69-1.68,1.49-2.21-.38-.2-.77-.39-1.19-.61.23-.68.93-.94,1.19-1.53,1.53.29,2.9.03,4.09-1.08.39-.37.96-.55,1.44-.82.45.73,1.02.1,1.51.16,1.17.15,2.34-.26,3.49.12.7.24,1.29.55,1.39,1.38.07.57.53.49.91.5,0,.35.19.53.53.53.56.08.83.64,1.34.8v.27c-.26.13-.18.35-.18.58,0,.21-.19.29-.36.31-.27.04-.24-.19-.27-.35-.02-.05-.04-.09-.05-.14-.08-.07-.18-.11-.28-.14-1.33-.33-2.63-.63-4.06-.48-.56.06-1.71.31-2.07-.77.03-.17-.05.05,0-.12.02-.08.04-.16.08-.23-.05.04-.07.1-.1.16,0,.99-.98.82-1.44,1.25-.07.07-.14.14-.2.22-.08.11-.18.22-.26.33-.09.16.14.21.13.34-.18.4-.54.34-.88.34-.71,0-1.41.07-2.12-.06-1.06-.18-1.87.41-2.64,1.03-.39.32-.71.88-1.34.41Z"/>
  <path class="st63" d="M41.25,87.81c.31,0,.57-.04.82-.31,1.03-1.11,2.22-1.91,3.83-1.31.52.2,1.01-.48,1.5,0,.35.18.39.76,1.13.51.5-.17,1.08.55,1.05,1.27-.04.82.33,1.05,1.06.87.58-.14,1.07-.09,1.31.56-.31.65-.84.87-1.54.8-.95-.09-1.92-.07-2.84-.28-.56-.13-.73.04-.58.44.16.43-.15.77-.04,1.17.06.22-.17.25-.35.27-.59.04-1.12-.69-1.46-.55-.73.3-1.36-.17-2.03,0-.16-.43.26-.72.3-1.13-.58,0-1.16.32-1.64-.19.02-.24.72-.47.15-.67-.84-.29-.68-.89-.69-1.47Z"/>
  <path class="st56" d="M51.95,89.42c-.43-.44-.92-.35-1.46-.21-.82.22-1.46-.17-1.25-.9.27-.91-.51-.96-.67-1.42-.57.02-.14.81-.66.69-.44-.1-.36-.52-.33-.88.01-.16-.12-.32-.19-.49.16-.12.58.27.53-.27-.06-.06-.08-.12-.06-.18.02-.06.04-.09.06-.09.09-.09.18-.18.27-.27.06-.22-.14-.62.25-.61.77,0,1.17-.52,1.63-.99h0c.25.35.26,1.01,1.01.63.37-.18.58.52,1.14.25.41-.2.96-.38,1.53-.16.44.17.95.13,1.42.3.45.17.93.26,1.39.4.07.02.13.12.19.18-.1.07-.18.18-.27.27-.48.28-1.17.42-.43,1.2.42.44-.19.84-.15,1.33-.58-.21-.78-.62-1.19-1.03-.06.38-.07.7-.18.99-.1.29-.3.58-.66.55-.33-.03-.56-.22-.59-.6-.02-.2.06-.44-.17-.6-.57.54-.28,1.25-.4,1.89-.25.13-.53-.45-.77.01Z"/>
  <path class="st72" d="M62.65,88.35c.05.25-.24.54.03.73.25.18.91.06.69.55-.19.42-.31.94-.85,1.25-.63.36-.87.29-.98-.4-.38.01-.35.36-.49.53-.2.24-.43.31-.7.25-.41-.1-.19-.38-.19-.63.01-.44-.28-.14-.44-.14,0-.31-.01-.63.02-.93.06-.44.42-.92.72-.83.83.25,1.46-.32,2.19-.37Z"/>
  <path class="st27" d="M59.98,83c.09-.09.18-.18.26-.27.15-.11.26-.25.26-.44,0-.6.35-.83.89-.96.57-.14.94.13,1.27.5.2.23.34.52.47.79.51,1.04.45,1.57-.21,1.97-.82.5-1.71.35-2.34-.39-.11-.13-.22-.26-.34-.4h0c-.12-.26-.42-.46-.26-.8Z"/>
  <path class="st21" d="M64.31,81.12c-.74.02-1.54-.71-1.56-1.47-.01-.46.4-.61.73-.57.55.08,1.15.21,1.46.78.16.29.46.58.21.96-.2.29-.52.29-.83.3Z"/>
  <path class="st58" d="M69.34,82.72c-.18,0-.36,0-.53,0,.17-.28.35-.28.53,0Z"/>
  <polygon class="st108" points="68 85.94 68.06 85.83 68.11 85.88 68 85.94"/>
  <path class="st17" d="M73.08,53.3c-.09,0-.18,0-.26,0-.06-.23,0-.34.26-.27h0c0,.09,0,.18,0,.27Z"/>
  <path class="st48" d="M77.36,51.16s-.11-.05-.11-.06c.02-.09.06-.07.11.06h0Z"/>
  <path class="st48" d="M78.43,51.7s-.11-.05-.11-.06c.02-.09.06-.07.11.06h0Z"/>
  <path class="st48" d="M77.36,51.16s.11.05.11.06c-.02.09-.06.07-.11-.06h0Z"/>
  <path class="st61" d="M73.08,53.03c-.09.09-.17.18-.26.27-1.02,2.22-2.37,4.22-4.02,6.02-.45.49-1.01.87-1.34,1.47-.39.22-.87.32-1.07.8-.09,0-.18,0-.27,0-.14-.16-.42-.05-.53-.27.09-.18.18-.35.27-.53,2.84-2.01,4.82-4.73,6.42-7.76,0,0,0,0,0,0,.1-.08.17-.18.26-.27,0-.09,0-.17.02-.26.25.1.42.28.52.53Z"/>
  <path class="st1" d="M47.93,38.05c0,.22-.04.42-.26.54,0-.22.05-.42.26-.54Z"/>
  <path class="st29" d="M59.98,83c.11.26.28.5.26.8-.28-.2-.75-.35-.26-.8Z"/>
  <path class="st8" d="M58.9,85.94s.05-.11.06-.11c.09.02.07.06-.06.11h0Z"/>
  <path class="st34" d="M76.83,35.92c0-.15-.25-.3,0-.45.03-.02.1,0,.12.03.16.19.05.32-.12.42h0Z"/>
  <path class="st34" d="M76.83,35.92s-.05.11-.06.11c-.09-.02-.07-.06.06-.11h0Z"/>
  <path class="st77" d="M65.06,25.48c-.09,0-.18,0-.27,0,0-.09.02-.18.02-.28.08.09.16.18.25.28Z"/>
  <path class="st101" d="M28.41,28.43c0-.09,0-.18,0-.27-.08-.09-.17-.18-.25-.27,0-.09,0-.18-.02-.26,0-.09,0-.17-.02-.26-.14-.16-.08-.4-.24-.55.12-1.08-.41-2.11-.29-3.19-.24-.58-.08-1.19-.09-1.79.09-.16.21-.19.37-.1.09,0,.17,0,.26,0,.01.27.02.54.03.8,0,.05-.02.09-.02.14.08.13.16.26.14.43.04.35-.1.72.13,1.04,0,.17.01.35.02.52.01.55.06,1.09.26,1.6.44.84.99,1.65.81,2.67,0,.09,0,.18,0,.27-.3-.14-.55-.21-.54.27-.83-.04-.3-.74-.53-1.07Z"/>
  <path class="st36" d="M28.4,24.16c-.44-.38-.19-.9-.27-1.35-.05-.06-.07-.12-.05-.18.02-.06.03-.09.05-.09h.02c.47.49.18,1.08.25,1.62Z"/>
  <path class="st82" d="M29.49,28.96c-.3-.88-.91-1.67-.81-2.67q.7-.18.81-.98c1.23.3,2.25.98,3.2,1.78-.48.22-.36,1.33-1.3.87-.21.44-.58.83-.35,1.42-.65.1-1.03-.44-1.55-.42Z"/>
  <path class="st28" d="M27.87,21.74c-.08,0-.17,0-.25,0-.26-.21-.01-.59-.27-.8,0-.26,0-.53,0-.79.36.03.52.23.52.58,0,.34,0,.68,0,1.02Z"/>
  <path class="st94" d="M27.35,17.2c0-.22.04-.42.25-.54,0,.22-.04.42-.25.54Z"/>
  <path class="st24" d="M30.02,30.03c-.08-.09-.16-.17-.24-.26.08.09.16.17.24.26Z"/>
  <path class="st84" d="M32.16,35.11c.09.36.17.71.26,1.07-.5.37-.12.9-.24,1.32-.13.47.32,1.2-.56,1.36.18-1.27-.46-2.48-.27-3.75.16-.11.41-.05.52-.26,0,0,.02-.02.02-.02.09.09.17.18.26.27Z"/>
  <path class="st64" d="M28.41,28.43c.43.23.1.84.53,1.07.12.26.28.5.27.8-.33.34-.78.51-1.18.42-.45-.11-.76.04-1.12.19-1.45.58-2.49-.05-2.67-1.6,0-.03-.07-.05-.1-.08h0c0-.22-.46-.2-.25-.6.19-.37-.05-.88-.48-.82-.84.1-.86-.55-1.14-.99.57-.36.98-.14,1.37.34.7.86,1.6,1.49,2.47,2.17.73.56,1.48.6,2.37.71-.45-.53-1.08-.75-1.23-1.4.33-.51.86.34,1.16-.21Z"/>
  <path class="st115" d="M31.88,34.86c.02.48-.25.38-.52.26,0-.09,0-.18,0-.26.17,0,.35,0,.52,0Z"/>
  <path class="st14" d="M31.08,34.32c-.09-.09-.17-.18-.26-.28.09.09.17.18.26.28Z"/>
  <path class="st18" d="M43.93,80.86c.34-.29.54-.76,1.06-.8.08.85-.49.82-1.06.8Z"/>
  <path class="st18" d="M56.43,83.38s.1.06.15.1c-.08.09-.15.19-.24.27-.11.1-.14.07-.1-.07.03-.12.05-.25.19-.3Z"/>
  <path class="st18" d="M55,82.39s.09.02.09.04c0,.04-.02.08-.03.11-.03-.01-.09-.02-.09-.04,0-.04.02-.08.03-.11Z"/>
  <path class="st18" d="M44.19,81.92c0-.09,0-.18,0-.26.13.01.33,0,.33.13,0,.14-.2.12-.33.13Z"/>
  <path class="st18" d="M55.08,83.16s.05-.1.06-.1c.08.02.16.04.22.09.11.1.09.14-.06.1-.08-.02-.15-.06-.22-.09Z"/>
  <path class="st18" d="M43.66,82.19c.09-.09.17-.18.26-.26-.09.09-.17.18-.26.26Z"/>
  <path class="st18" d="M44.19,81.39c-.09-.09-.17-.18-.26-.26.09.09.17.18.26.26Z"/>
  <path class="st18" d="M42.59,82.99c.09-.09.18-.18.26-.26-.09.09-.18.18-.26.26Z"/>
  <path class="st18" d="M55.43,83.53v-.27c.18.09.18.18,0,.27Z"/>
  <path class="st18" d="M56.23,83.8c-.09.09-.18.18-.27.27.09-.09.18-.18.27-.27Z"/>
  <path class="st99" d="M65.59,61.33c.22,0,.42.05.53.27-.99.67-1.79,1.59-2.74,2.29-2.12,1.56-4.19,3.26-6.75,4.13-1.37.46-2.31,1.56-3.45,2.35-.24.17-2,1.53-2.3,1.66.66-1.02,1.75-1.65,2.41-2.67,2.87-1.72,5.63-3.61,8.6-5.17.78-.41,1.57-.98,2.1-1.78.55-.34.97-.87,1.6-1.07Z"/>
  <polygon class="st51" points="50.08 68.02 50.14 67.9 50.19 67.95 50.08 68.02"/>
  <path class="st51" d="M51.68,65.34s-.05.11-.06.11c-.09-.02-.07-.06.06-.11h0Z"/>
  <path class="st7" d="M50.34,73.22c-.03.07-.06.21-.09.21-.1,0-.14-.08-.08-.17.04-.07.14-.17.18-.15.16.07,0-.06,0,.11Z"/>
  <path class="st57" d="M27.34,20.94c.31.19.25.51.27.8,0,.63-.01,1.26-.02,1.89-.08,0-.17-.02-.25-.02,0-.89,0-1.78,0-2.67Z"/>
  <path class="st60" d="M27.89,26.82c.21.12.25.32.24.55-.2-.13-.24-.33-.24-.55Z"/>
  <path class="st45" d="M28.68,9.7c-.02.08-.03.17-.06.25-.1.25-.3.29-.52.19-.05-.02-.1-.15-.09-.21.05-.2.24-.21.41-.22.09,0,.17,0,.26,0h0Z"/>
  <path class="st12" d="M26.16,11.9c-.16-.03-.19-.17-.24-.28-.05-.1-.02-.2.08-.21.16-.01.23.11.24.25,0,.08-.05.16-.08.24Z"/>
  <path class="st50" d="M38.84,57.05c0-.85.14-1.64.98-2.37.15,1.56-.52,2.87-.45,4.24-.52.73-.44,1.65-.46,2.41-.05,1.73-.43,3.43-.36,5.16.04.98.22,1.93.44,2.87.25,1.07.58,2.13.86,3.2.03.11-.04.24-.07.35-.42.12-.5-.22-.56-.43-.32-1.15-.75-2.26-1.12-3.39-.25-.74-.34-1.54-.35-2.35-.03-1.95,0-3.91.33-5.82.22-1.29.4-2.6.75-3.88Z"/>
  <path class="st103" d="M33.23,62.4c.34.22.37.62.44.94.66,2.8,1.86,5.4,2.98,8.03.05.12.11.24.17.36.08.17.11.36-.1.44-.19.07-.4-.09-.42-.24-.08-.69-.48-1.23-.82-1.79-.37-.64-.41-1.45-1.16-1.89-.33-.19.04-.65-.14-.99-.61-1.21-.64-2.61-1.19-3.84-.16-.35.07-.69.23-1.01h0Z"/>
  <path class="st11" d="M42.07,76.53c-.47.24,0,.65-.22,1.03-.68-.46-.95-1.21-1.39-1.82.64.05,1.21.23,1.6.78Z"/>
  <path class="st103" d="M33.23,62.4c-.31-.19-.38-.51-.5-.86.63.09.44.54.5.86h0Z"/>
  <path class="st85" d="M32.42,60.53c.09-.08.18-.18.28-.22.11-.05.25-.04.29.12,0,.01-.13.08-.2.09-.12.02-.25.01-.37.01h0Z"/>
  <path class="st30" d="M42.79,70.97l-.08.09s-.06-.07-.05-.11c0-.03.05-.06.07-.09.02.04.04.07.06.11Z"/>
  <polygon class="st30" points="43.66 69.62 43.77 69.68 43.72 69.73 43.66 69.62"/>
  <path class="st4" d="M49.8,56.51c-.97.42-1.17,1.49-1.86,2.15,0-.36,0-.69-.47-.83-.47-.14.39-.66-.19-.83-.55-.17-.95-.59-1.52-.78-1-.33-1.91-.86-2.42-1.91-.41-.85-1.79-.86-2.28-.01-.17.3-.21.57-.62.35-.02-.3.16-.54.27-.8.1-.08.17-.19.27-.27,0-.18,0-.36,0-.53.1-.08.17-.19.26-.27,0-.18,0-.36,0-.53.1-.08.18-.18.27-.27.09-.12.18-.12.27,0,.1.08.28.24.29.22.55-.51,1.12-.1,1.68-.1.66,0,1.14.24,1.7.48.78.34,1.45,1,2.42.83.4-.07.37.63.83.52.34-.18.27-.53.35-.82.08-.26.29-.32.52-.31.31,0,.35.19.28.45-.11.43.44.99-.38,1.31-.24.09.02.82.16,1.21.09.25.16.49.16.75Z"/>
  <path class="st115" d="M43.93,46.09c.22.12.26.32.27.54,0,.17,0,.35-.01.52-.09.09-.18.18-.26.27h0c-.45.89-.89,1.78-1.34,2.68,0-.34-.18-.53-.53-.53,0-.09,0-.18,0-.27.55-.88.74-1.98,1.6-2.68.18-.13.09-.4.28-.53Z"/>
  <path class="st30" d="M45.53,60.52c.12.02.35.07.3.15-.2.29-.2.69-.39.91-.33.39-.36-.05-.44-.26.16-.28.23-.61.53-.8Z"/>
  <path class="st92" d="M34.56,54.11c-.21-.15-.15-.32.05-.36.26-.05.18.21.22.35-.09,0-.18,0-.27,0Z"/>
  <path class="st30" d="M43.66,64.27c.18.09.19.18,0,.27-.18-.09-.18-.18,0-.27Z"/>
  <path class="st4" d="M46.87,58.12c.13.01.33,0,.33.13,0,.14-.2.12-.33.13v-.27Z"/>
  <path class="st115" d="M41.78,51.97c-.09,0-.18,0-.27,0,0-.22.05-.42.27-.54.04.04.07.09.11.13-.04.04-.07.09-.11.13v.27Z"/>
  <path class="st47" d="M40.45,52.23c0-.22.05-.42.27-.53,0,.22-.05.42-.27.53Z"/>
  <path class="st115" d="M41.25,51.16c0-.22.05-.42.26-.54,0,.22-.05.42-.26.54Z"/>
  <path class="st115" d="M41.78,50.09c.09-.09.18-.18.26-.27-.09.09-.18.18-.26.27Z"/>
  <path class="st4" d="M42.59,50.36v.27c-.09,0-.17,0-.26,0,0-.09,0-.18,0-.27.09-.08.18-.09.26,0Z"/>
  <path class="st115" d="M41.52,50.36c.09-.09.18-.18.26-.27-.09.09-.18.18-.26.27Z"/>
  <path class="st115" d="M42.59,50.36c-.09,0-.18,0-.26,0,.09-.09.18-.18.27-.27,0,.09,0,.18,0,.27Z"/>
  <path class="st30" d="M46.87,58.65s-.05.11-.06.11c-.09-.02-.07-.06.06-.11h0Z"/>
  <path class="st115" d="M41.52,51.97l-.27.27.27-.27Z"/>
  <path class="st115" d="M40.98,53.57c-.09.09-.18.18-.27.27.09-.09.18-.18.27-.27Z"/>
  <path class="st115" d="M41.25,52.77c-.09.09-.18.18-.26.27.09-.09.18-.18.26-.27Z"/>
  <path class="st4" d="M42.32,50.9c-.09.09-.18.18-.26.27.09-.09.18-.18.26-.27Z"/>
  <path class="st47" d="M40.71,51.7c.09-.09.18-.18.27-.27-.09.09-.18.18-.27.27Z"/>
  <path class="st115" d="M42.05,51.16v.27c-.09.08-.18.08-.27,0h0c.09-.09.18-.18.27-.27Z"/>
  <path class="st64" d="M24.13,29.23s-.05.11-.06.11c-.09-.02-.07-.06.06-.11h0Z"/>
  <path class="st64" d="M28.15,27.89c.08.09.17.18.25.27-.08-.09-.17-.18-.25-.27Z"/>
  <path class="st54" d="M41.78,89.95c.44-.02.88-.03,1.32-.06.2-.01.35-.49.62-.07.2.31.16.57-.1.83-.18.19-.34.41-.5.61-.18,0-.35,0-.53-.01-.1-.06-.19-.13-.27-.23-.54-.36-1.14-.29-1.97-.14.53-.54,1.28-.3,1.43-.93Z"/>
  <path class="st63" d="M42.32,91.02c.09.08.18.15.27.23,0,0-.12.01-.12.01,0,0-.12,0-.12,0-.02-.08-.03-.15-.03-.23Z"/>
  <path class="st76" d="M23.6,79.25c0-.09,0-.18,0-.27,2.16.09,4.28.49,6.39.93.04,0,.08.03.12.05,1.82.95,3.84,1.57,5.34,3.04.88.86,1.57,1.9,2.35,2.85.2.24.11.47.07.74-.14.86.04,1.62.74,2.24.65.57.59.68-.31,1.12-.26-.51-.49-1.02-1.06-1.32-.6-.31-.66-.92-.1-1.35.4-.31.39-.56.13-.87-.93-1.12-1.88-2.22-2.82-3.33-.31-.36-.84-.37-1.08-.18-.44.34-.69.25-1.01-.08-.39-.41-.94-.48-1.45-.61-.31-.08-.66-.08-.82-.36-.44-.77-1.23-.59-1.86-.63-.65-.04-1.34-.06-1.95.48-.69.61-.76.54-1.88-.26-.59.83-1.02,1.86-2.25,2.01-.33.04-.05.7-.44.88-.47-1.26-.4-2.46.59-3.44.42-.41.57-1,1.01-1.38h0c.09-.09.17-.19.26-.27Z"/>
  <path class="st80" d="M23.33,79.52c.04.52-.22.93-.44,1.37-.2.39-.99.35-.83.77.23.6-.28.89-.3,1.35-.02.44-.03.89-.04,1.33-.34.43-.89.52-1.32.81-.08-.98-.01-1.94.29-2.88.14-.43.12-1,.71-1.18.19-.06.29-.24.2-.42-.32-.62.21-.81.51-1.18.48-.58.82-.25,1.22.03Z"/>
  <path class="st80" d="M33.67,90.85c-.14-.03-.2-.02-.22-.04-.16-.22-.63-.17-.54-.6.02-.08.21-.19.31-.17.41.07.56.33.45.81Z"/>
  <path class="st59" d="M34.49,78.14c-.03.11-.04.21-.08.28-.47.68-1.23.83-1.96,1.01-.23.06-1.36-1-1.45-1.29-.14-.44.28-1.21.84-1.54.67-.4,1.19-.4,1.54.09.29.4.61.76.93,1.12.08.1.13.23.18.32Z"/>
  <path class="st113" d="M28.41,74.44c.09-.18.18-.35.26-.53.51-.28,1.05-.32,1.61-.17-.11.48.31.68.54.97-.52,1.06-1.12,1.2-1.83.43-.21-.22-.39-.47-.58-.7Z"/>
  <path class="st2" d="M27.46,78.35c-.09.26-.27.47-.55.48-.47.03-1.17-.68-1.13-1.12.03-.29.19-.5.5-.52.29-.02,1.18.87,1.18,1.15Z"/>
  <path class="st102" d="M39.1,85.94c0,.27,0,.53,0,.8-.34-.26-.34-.53,0-.8Z"/>
  <path class="st113" d="M30.58,73.73c.07-.05.14-.05.21,0-.07.09-.14.1-.21,0Z"/>
  <path class="st80" d="M23.6,79.25c-.09.09-.18.18-.26.27.09-.09.18-.18.26-.27Z"/>
  <path class="st42" d="M22,54.92c.35-.05.67-.11.68-.59,0-.22.22-.21.38-.23h0c.42.22.56,1.01,1.26.66.25-.12-.19-.9-.75-1.32-.91-.68-1.75-.88-2.51-.6.09-1.37.3-1.62,1.57-1.86,0-.3-.59-.36-.41-.58.37-.46.5-1.2,1.21-1.29.27-.03.51,0,.67-.27.5-.81,1.07-.54,1.65-.09-.4.89-.39.88.35,1.88.35.47.44,1.06.64,1.6-.02.91-.32,1.74-.69,2.56-1.49,3.33-1.59,6.78-1,10.31.3,1.76.82,3.45,1.43,5.13.15.4.4.82.07,1.26-.79-.44-1.25-1.28-2.27-1.51-.49-.11-.83-.96-1.22-1.48-.18-.24-.23-.58-.52-.75,0-.09,0-.18,0-.26-.09-.09-.17-.19-.26-.27-.09-.09-.17-.18-.26-.27-.54-1.03-1.06-2.07-1.34-3.21-.39-1.58-.63-3.17-.54-4.81-.27-.52-.37-1.1-.22-1.63.17-.6-.26-.62-.57-.79,0-.09,0-.17.01-.26.08-.1.16-.19.25-.29,0,0,0,0,0,0,1.06.23,2.01.21,2.43-1.04Z"/>
  <path class="st42" d="M28.41,54.91c.06.47-.12.88-.36,1.26-.68,1.07-.54,2.35-.95,3.48-.07.19-.05.54.07.63.44.33.82.55-.06.79-.14.04-.3.36-.19.59.12.24.36.19.58.13.33-.09.78-.02.7.31-.11.43.32.9-.13,1.24-.18.13-.51.21-.54-.06-.03-.31-.56-.42-.28-.81.07-.09.21-.22,0-.28-.19-.06-.38.06-.4.25-.03.39.06.79,0,1.18-.26,1.96.28,3.75,1.04,5.51.29.69.52,1.4.77,2.1-.36.74-.8.75-1.31.15-.14-.17-.26-.36-.35-.56-2.29-5.19-2.91-10.48-1.01-15.93.13-.38.3-.74.65-.98,1.45-.49,1.6-.41,1.76,1Z"/>
  <path class="st115" d="M28.41,54.91c-.08-.1-.21-.19-.22-.3-.05-.72-.37-.9-1.01-.57-.11.06-.25.05-.38.07-.45-.91.28-1.66.33-2.51-.12.24-.25.48-.59.37-.18-.02-.45-.07-.42-.22.19-1.09-.74-1.3-1.35-1.71-.34-.23-.32-.37-.07-.57.33-.26.88-.2,1.05-.71q1.75,1.35,2.6-.63c.1-.24.23-.47.34-.71h0c.1-.08.17-.18.26-.27.38-1.42,1.26-2.63,1.78-4,.43-1.15.57-2.4,1.17-3.49.39.81.34,1.6,0,2.43-.65,1.59-1.25,3.2-1.88,4.8-.24.24-.18.57-.27.86q-.7,2.4,1.57,3.67c.22.12.21.36.04.56h0c-.18.12-.45.39-.54.34-.91-.53-1.06.29-1.47.85.41.21,1.14.18.93.94q-1.2-.39-1.87.81Z"/>
  <path class="st105" d="M26.54,51.97c.47-.3.42-1,.96-1.23.04-.02.09,0,.28.03-.3,1.13-.79,2.2-.97,3.34-.72.71-.75,1.71-.95,2.58-.4,1.72-.82,3.47-.63,5.25.33,3.13.78,6.23,2.27,9.09.38.73.71.61,1.19.21.37.65.58,1.39,1.35,1.98-1.02.3-1.73.12-2.33-.45-.41-.39-.77-.84-1.15-1.27-.36-1.05-.74-2.09-1.09-3.14-.57-1.73-.96-3.5-1.07-5.31-.14-2.31.09-4.59.61-6.84.04-.17.12-.34.21-.49.67-1.17,1.06-2.43,1.33-3.74Z"/>
  <path class="st16" d="M68.53,61.86c.09.24.21.49-.21.56-.29.05-.58.16-.86.24,0-.09,0-.18,0-.27.1-.08.18-.18.27-.27.18-.09.36-.18.53-.27.09,0,.18,0,.27,0h0Z"/>
  <path class="st96" d="M67.73,62.13c-.09.09-.18.18-.27.27.09-.09.18-.18.27-.27Z"/>
  <path class="st73" d="M19.32,56.51c.6-.04,1.04,0,.83.83-.13.5-.03,1.05-.03,1.58-.64-.46-.7-1.11-.48-1.78.13-.39-.27-.4-.31-.64Z"/>
  <path class="st9" d="M22,66.94l.26.27-.26-.27Z"/>
  <path class="st9" d="M22.26,67.21c.09.09.18.18.26.27-.09-.09-.18-.18-.26-.27Z"/>
  <path class="st73" d="M19.58,55.96c-.08.1-.16.19-.25.29,0-.07-.01-.13-.02-.2.09-.03.18-.06.27-.09Z"/>
  <path class="st115" d="M31.63,38.86c.46-.76.29-1.56.14-2.35-.16-.89.34-.41.65-.33.25,1.16-.03,2.31,0,3.47-.18,0-.35,0-.53,0,0-.22-.05-.42-.26-.54,0-.09,0-.18,0-.26Z"/>
  <path class="st107" d="M28.94,47.15l-.26.27c.09-.09.18-.18.26-.27Z"/>
  <path class="st30" d="M43.92,63.47c.12.06.25.24.19.26-.31.13-.12-.17-.19-.26h0Z"/>
  <path class="st89" d="M58.1,57.85c-.03.19-.03.42-.32.4-.03,0-.08-.05-.08-.08-.02-.29.21-.29.4-.32h0Z"/>
  <path class="st89" d="M58.1,57.85s.05-.11.06-.11c.09.02.07.06-.06.11h0Z"/>
  <path class="st4" d="M41.78,51.43c.09,0,.18,0,.27,0-.09.09-.18.18-.27.27v-.27Z"/>
  <path class="st16" d="M68.8,61.6q.86-1.08,1.86-.71c-.71.27-1.28.49-1.86.71h0Z"/>
  <path class="st16" d="M68.8,61.6c-.09.09-.18.18-.27.27h0c.09-.09.18-.18.27-.27h0Z"/>
  <path class="st17" d="M72.54,52.76c-.09.09-.18.18-.26.27.09-.09.18-.18.26-.27Z"/>
  <path class="st42" d="M21.72,54.11c.07-.15.14-.31.33-.34.02,0,.11.12.1.15-.08.18-.26.17-.42.2h0Z"/>
  <path class="st42" d="M23.06,54.11c.04-.15-.05-.4.25-.34.04,0,.09.05.09.09.05.31-.2.21-.34.25h0Z"/>
  <path class="st83" d="M31.35,51.97s-.01-.09-.02-.13c-.06-.58-.89.2-.95-.59-.03-.39-.67-.51-1.1-.63-.46-.14-.7-.48-.57-.9.29-1,.51-2.05,1.3-2.82.03.18.08.46.23.44.97-.17,1.37.65,2.01,1.07-.16.29-.28.6-.47.83-.66.79-1.04,1.58-.18,2.48.04.05,0,.17,0,.26-.09,0-.17.01-.26.01Z"/>
  <path class="st97" d="M40.29,45.88c-.12.09-.19.17-.24.17-.11-.02-.23-.07-.33-.13-.12-.09-.1-.12.05-.1.15.03.31.04.52.07Z"/>
  <path class="st62" d="M43.93,46.09c-.01.22-.06.42-.28.53,0-.18,0-.35,0-.53h0c.09-.08.18-.08.27,0h0Z"/>
  <path class="st22" d="M43.92,46.08c-.09,0-.18,0-.27,0,.09-.09.18-.18.27-.27,0,.09,0,.18,0,.27Z"/>
  <path class="st17" d="M52.71,52.45c-.07.16-.18.25-.3.18-.21-.1-.3-.3-.24-.53.01-.05.15-.1.22-.09.26.04.35.21.32.43Z"/>
  <path class="st26" d="M44.73,46.09c.91-1.35,1.31-2.98,2.28-4.3.13-.17.26-.34.39-.52.39.66.7,1.39,1.41,1.8.51.3.69.62.23,1.12-.14.15-.23.51.04.55.81.12.74.95,1.16,1.32.72.63,1.37,1.44,2.29,1.74.74.24,1.19.9,1.95,1.06.33.07.28.38.14.65-.19.36-.68.43-.81.85-.83.32-1.18-.31-1.6-.8-.17-.13-.39-.23-.51-.4-.61-.82-1.3-1.14-2.22-.88-.49.14-.72.24-.92-.44-.24-.84-1.1-1.11-2.23-.96-.4-.53-.94-.79-1.6-.8Z"/>
  <path class="st81" d="M53.62,45.56c-.07.02-.14.04-.22.05.01-.07.02-.15.04-.22,0-.02.08-.04.12-.03.12.03.13.1.06.2Z"/>
  <path class="st1" d="M48.21,39.13c.08-.09.17-.19.25-.28,0,.09,0,.18,0,.27-.09,0-.17,0-.26,0Z"/>
  <path class="st26" d="M46.68,47.25s-.05.1-.06.1c-.08-.02-.16-.04-.22-.09-.11-.1-.09-.14.06-.1.08.02.15.06.22.09Z"/>
  <path class="st26" d="M46.33,46.88v.27c-.18-.09-.18-.18,0-.27Z"/>
  <path class="st0" d="M43.92,47.42c.09-.09.18-.18.26-.27-.09.09-.18.18-.26.27Z"/>
  <path class="st102" d="M42.69,85.06s.1.05.1.06c-.02.08-.04.16-.09.22-.1.11-.14.09-.1-.06.02-.08.06-.15.09-.22Z"/>
  <path class="st56" d="M50.08,83.8s.05-.11.06-.11c.09.02.07.06-.06.11h0Z"/>
  <path class="st63" d="M47.94,85.67v.27c-.19-.09-.18-.18,0-.27Z"/>
  <path class="st8" d="M56.5,85.67c.09-.09.18-.18.27-.27-.09.09-.18.18-.27.27Z"/>
  <path class="st18" d="M48.55,85.5s-.05.1-.06.1c-.08-.02-.16-.04-.22-.09-.11-.1-.09-.14.06-.1.08.02.15.06.22.09Z"/>
  <path class="st57" d="M28.13,22.54c0,.09,0,.18,0,.27-.03-.06-.08-.13-.1-.2,0-.01.06-.05.1-.08Z"/>
  <path class="st6" d="M52.37,49.38c.11-.05.17-.02.19.09,0,.02-.06.06-.1.07-.08.02-.16.02-.25.03.05-.06.1-.13.15-.18Z"/>
  <path class="st6" d="M49.34,47.85l-.11.03s-.04-.09-.03-.1c.1-.07.15-.05.14.06Z"/>
</svg>