<?xml version="1.0" encoding="UTF-8"?>
<svg id="DESIGNED_BY_FREEPIK" xmlns="http://www.w3.org/2000/svg" version="1.1" viewBox="0 0 100 100">
  <!-- Generator: Adobe Illustrator 30.3.0, SVG Export Plug-In . SVG Version: 2.1.3 Build 182)  -->
  <defs>
    <style>
      .st0 {
        fill: #fcfcfc;
      }

      .st0, .st1 {
        opacity: .15;
      }

      .st2 {
        fill: #f2bbd6;
      }

      .st3 {
        fill: #e595bc;
      }

      .st4 {
        fill: #edb2cb;
      }

      .st5 {
        fill: #e068ac;
      }

      .st6 {
        fill: #d64caf;
        opacity: .45;
      }

      .st7 {
        opacity: .25;
      }

      .st8 {
        fill: #f4c3d7;
      }

      .st9 {
        fill: #e57fb5;
      }

      .st10, .st11, .st1 {
        fill: #dd52a8;
      }

      .st11 {
        opacity: .35;
      }

      .st12 {
        fill: #dd3aa6;
      }
    </style>
  </defs>
  <path class="st12" d="M7.5,64.14l5.66-4.62s2.56,4.46-.23,5.82-5.43-1.2-5.43-1.2Z"/>
  <path class="st2" d="M47.94,22.76l11.49,9.25,10.07,27.69-6.75,10.36s-15.85-6.46-16.91-24.46c-1.06-18.01,2.11-22.84,2.11-22.84Z"/>
  <path class="st4" d="M64.22,30.84c-3.37.81-6.76.1-6.76.1,0,0-2.44,7.38.96,15.59,2.16,5.21,5.33,9.97,7.35,12.74,1,1.37,2.75,1.98,4.39,1.5,1.55-.45,3.64-.7,5.64.2,0,0-5-7.45-8.73-17.51-3.73-10.06-2.84-12.62-2.84-12.62Z"/>
  <path class="st3" d="M64.22,30.84l7.16,5.96,7.26,18.02-2.85,6.16s-6.37-5.02-9.32-14.73c-2.36-7.76-2.42-12.97-2.34-14.75.02-.45.09-.66.09-.66Z"/>
  <path class="st8" d="M7.49,64.14c2.85,2.03,5.95,2.05,6.14-1.27,0-.05,0-.09,0-.13,0-.04,0-.09,0-.13,0-.04,0-.09,0-.13,0-.04,0-.08-.01-.13h0c-.37-2.9-5.22-3.87-6.05-8.42-.88-4.81,1.94-6.72,3.93-7.07,1.99-.35,4.96-2.61,3.84-5.41-1.12-2.8,5.39-8.39,8.37-8.69,2.99-.29,4.07-.51,3.67-2.43-.4-1.92,20.57-7.59,20.57-7.59,0,0-.56,18.18,3.43,28.55,3.75,9.73,7.48,16.76,11.36,18.76-.15-.06-2.63-1.05-5.63-.62-3.1.44-8.33,1.27-12.8.06-4.47-1.21-16.87-5.17-25.76-3.54-.58.11-1.12.21-1.61.31-3.77.75-5.15,1.15-7.25.1-1.75-.88-2.19-2.22-2.19-2.22Z"/>
  <path class="st9" d="M70.07,35.93l5.27.5s1.65,11.61,5.36,16.94l-1.62,1.2c-1.17.87-2.84.53-3.57-.74-.93-1.62-2.15-4.23-3.27-8.21-2.24-7.91-2.16-9.69-2.16-9.69Z"/>
  <path class="st12" d="M84.37,46.46c-1.39-.02-2.72-3.2-1.42-4.93s6.11.15,6.34,1.31c.23,1.15-3.43,3.64-4.91,3.62Z"/>
  <path class="st5" d="M75.34,36.44l4.8,4.58,2.36,7.99-1.8,4.37s-3.55-2.79-4.85-8.26c-1.3-5.47-.51-8.68-.51-8.68Z"/>
  <path class="st10" d="M79.22,40.16l1.63.12c1.56.12,2.88,1.22,3.25,2.75l.41,1.66c.31,1.25-.07,2.57-.99,3.47l-1.11,1.09s-1.43-.8-2.54-4.05c-1.11-3.25-.66-5.04-.66-5.04Z"/>
  <g class="st7">
    <path class="st11" d="M9.69,66.37c2.1,1.05,3.47.64,7.25-.1.49-.1,1.03-.2,1.61-.31,1.13-.21,1.58-.3,2.65-.34.21,0,.35-.21.3-.41-.69-2.44-4.26-3.12-5.5-7.04-1.33-4.22,1.02-6.06,2.79-6.47,1.77-.41,4.22-2.57,2.89-5-1.33-2.42,1.49-6.51,4.17-6.92,2.68-.41,6.24-3.28,7.05-4.54.9-1.4,14.57-6.2,16.19-6.76.1-.03.21-.02.29.04l7.43,5.33s.04.02.06.03c1.62.71,5.15,1.48,7.25.93.09-.02.18-.01.25.04l6.06,3.76s.09.04.14.05l4.49.35c.06,0,.12.03.16.06l3.86,2.83s.09.05.14.06l1.86.27s.03,0,.04,0c.74.01,2.04.14,2.72.54.11.06.25.05.35-.03,1.12-.83,3.44.02,4.44.84.15.12.37.08.47-.08.15-.25.22-.48.18-.67-.21-1.06-4.26-2.72-5.94-1.66-.12.08-.28.07-.39-.02-.57-.5-1.3-.81-2.1-.87l-1.5-.11c-.07,0-.14-.04-.2-.09l-.93-.89-2.81-2.68c-.05-.05-.12-.08-.19-.09l-1.67-.16-1.6-.15-1.49-.14c-.06,0-.12-.03-.17-.07l-5.96-4.96c-.08-.06-.18-.09-.27-.06-1.13.26-2.26.35-3.26.35-.99,0-1.85-.07-2.45-.14-.06,0-.11-.03-.16-.07l-10.14-8.16c-.08-.06-.18-.09-.28-.06-1.91.52-20.79,5.72-20.41,7.54.4,1.92-.68,2.14-3.67,2.43-2.98.29-9.49,5.89-8.37,8.69,1.12,2.8-1.85,5.06-3.84,5.41-1.99.35-4.81,2.26-3.93,7.07.52,2.84,2.61,4.29,4.19,5.68.95.84,1.72,1.65,1.86,2.74.02.17.03.34.02.52-.16,2.85-2.47,3.23-4.93,2,0,0,0,0-.01,0-.32-.16-.63.24-.38.5.04.04.09.09.14.14.31.3.71.6,1.23.86Z"/>
  </g>
  <polygon class="st10" points="77.43 39.11 73.56 36.27 75.34 36.44 78.23 39.2 77.43 39.11"/>
  <path class="st1" d="M11.51,58.88c.07.26.15.51.24.74-1.58-1.39-3.67-2.84-4.19-5.68-.88-4.81,1.94-6.72,3.93-7.07,1.99-.35,4.96-2.61,3.84-5.41-1.12-2.8,5.39-8.39,8.37-8.69,2.99-.29,4.07-.51,3.67-2.43-.4-1.92,20.57-7.59,20.57-7.59l10.33,8.32c.6.08,1.5.16,2.54.15,1.04,0,2.22-.1,3.41-.39l6.15,5.12,1.59.15-3.33-.13-6.29-3.83c-2.18.75-5.96.06-7.62-.65l-7.61-5.45s-16.12,6.27-17.17,7.89c-.89,1.36-4.69,4.54-7.47,5.09-2.79.55-5.87,4.99-4.6,7.49,1.27,2.51-1.35,4.89-3.19,5.4-1.85.51-4.35,2.55-3.15,6.96Z"/>
  <path class="st1" d="M7.49,64.14c2.85,2.03,5.95,2.05,6.14-1.27,0-.05,0-.09,0-.13,0-.04,0-.09,0-.13,0-.04,0-.09,0-.13,0-.04,0-.09-.01-.13h0c1.43,1.4,3.01,2.23,3.32,3.91-3.77.75-5.15,1.15-7.25.1-1.75-.88-2.19-2.22-2.19-2.22Z"/>
  <path class="st0" d="M25.23,55.22c-4.17,1.53-3.23,8.77,1.91,9.38,5.14.61,15.6,4.27,21.36,4.38s11.22-.72,6.89-6.77c-4.32-6.05-18.25-11.36-30.16-6.99Z"/>
  <path class="st0" d="M25.56,59.01c-2.8.68-.56,5.13,3.42,5.81,3.98.67,12.59,3.51,16.92,3.91,4.33.4,8.24.22,3.72-3.7-4.52-3.93-16.08-7.97-24.06-6.01Z"/>
  <path class="st0" d="M23.95,61.08c-1.43.26-.16,2.47,1.91,2.89,2.07.42,6.58,2,8.83,2.3,2.24.3,4.26.31,1.83-1.7-2.43-2.01-8.49-4.24-12.57-3.49Z"/>
  <path class="st0" d="M60.87,56.18c3.7,2.34,5.89,5.26,5.32,7.29-.54,1.91-2.56,5.72-4.42,4.7-1.29-.71-5.98-6.79-5.58-9.14.4-2.34,2.41-4.29,4.69-2.85Z"/>
  <path class="st0" d="M59.86,58.84c2.65,1.38,4.3,3.23,4.03,4.64-.25,1.33-1.41,4.04-2.73,3.45-.92-.41-4.46-4.27-4.32-5.88.13-1.62,1.39-3.06,3.02-2.21Z"/>
  <path class="st0" d="M59.45,60.7c1.8.93,2.92,2.19,2.74,3.15-.17.9-.95,2.74-1.85,2.34-.62-.28-3.02-2.9-2.93-3.99.09-1.1.94-2.07,2.05-1.5Z"/>
  <path class="st0" d="M66.55,53.09c1.76.13,5.32,4.57,4.75,5.63s-2.57,2.1-3.49,1.56c-.92-.54-3.92-4.32-4.27-5.48-.35-1.16,2.03-1.79,3.02-1.71Z"/>
  <path class="st0" d="M66.48,55.11c1.12.08,3.38,2.9,3.02,3.58-.36.67-1.63,1.33-2.22.99-.59-.34-2.49-2.75-2.71-3.48-.23-.74,1.29-1.14,1.92-1.09Z"/>
  <path class="st6" d="M47.67,22.66s.01-.02.02-.02c.11-.12.31-.13.43-.02,1.19,1.09.79,2.66.36,4.31-.22.86-.45,1.75-.49,2.67-.07,1.35.26,2.4.61,3.5.34,1.08.69,2.19.72,3.67.03,1.36-.13,2.32-.28,3.26-.18,1.11-.35,2.15-.18,3.75.18,1.71,1.09,3.05,2.05,4.48.64.95,1.31,1.93,1.76,3.06.53,1.3.67,2.77.81,4.19.16,1.67.32,3.25,1.05,4.46.67,1.1,1.56,1.81,2.5,2.55,1.04.83,2.12,1.68,3.08,3.14,1.79,2.72,2.66,3.73,2.67,3.74.11.13.1.32-.03.43-.13.11-.32.1-.43-.03-.04-.04-.9-1.04-2.72-3.81-.91-1.38-1.95-2.21-2.95-3-.99-.78-1.92-1.52-2.65-2.71-.81-1.33-.98-3.05-1.14-4.72-.13-1.38-.27-2.81-.77-4.03-.43-1.07-1.08-2.02-1.71-2.95-.96-1.42-1.95-2.89-2.15-4.75-.18-1.67,0-2.76.18-3.91.15-.91.3-1.85.27-3.15-.03-1.39-.36-2.46-.69-3.5-.37-1.16-.71-2.26-.64-3.72.05-.98.28-1.9.51-2.79.41-1.6.73-2.86-.19-3.71-.12-.11-.13-.28-.04-.41Z"/>
  <path class="st6" d="M63.97,30.89s.07-.07.11-.09c.15-.07.33,0,.4.14.62,1.29.42,2.42.19,3.72-.2,1.1-.23,2.5.03,4.11.31,1.87.68,2.69,1.27,3.72.49.85,1,1.74,1.37,3.15.3,1.17.41,2.16.51,3.03.16,1.43.54,2.58,1.43,4.12.82,1.41,1.37,2.13,2.2,2.81.63.51,1.28,1.04,1.95,1.93,1.48,1.95,2.42,3.01,2.43,3.02.11.12.1.32-.02.43-.12.11-.32.1-.43-.02,0-.01-.96-1.08-2.46-3.05-.63-.83-1.22-1.31-1.85-1.82-.83-.68-1.7-1.38-2.58-2.89-.96-1.65-1.11-2.94-1.28-4.44-.1-.9-.2-1.82-.49-2.95-.34-1.33-.81-2.14-1.3-3-.59-1.03-1.21-2.09-1.53-4.07-.28-1.71-.05-3.01.16-4.16.22-1.25.4-2.24-.14-3.35-.05-.11-.03-.23.03-.31Z"/>
</svg>