<?xml version="1.0" encoding="UTF-8"?>
<svg id="DESIGNED_BY_FREEPIK" xmlns="http://www.w3.org/2000/svg" version="1.1" viewBox="0 0 100 100">
  <!-- Generator: Adobe Illustrator 30.3.0, SVG Export Plug-In . SVG Version: 2.1.3 Build 182)  -->
  <defs>
    <style>
      .st0 {
        fill: #eabaa7;
      }

      .st1 {
        fill: #820704;
      }

      .st1, .st2 {
        opacity: .05;
      }

      .st3 {
        fill: #edc4b0;
      }

      .st2, .st4, .st5, .st6 {
        fill: #fff;
      }

      .st4 {
        opacity: .25;
      }

      .st5 {
        opacity: .15;
      }

      .st6 {
        opacity: .2;
      }

      .st7 {
        fill: #e2a491;
      }

      .st8 {
        fill: #e5af9c;
      }

      .st9 {
        fill: #edab91;
      }

      .st10 {
        fill: #f9d2c2;
      }

      .st11 {
        fill: #f1d3c1;
      }

      .st12 {
        fill: #e29276;
      }

      .st13 {
        fill: #f4c3ab;
      }
    </style>
  </defs>
  <path class="st7" d="M83.6,47.29s.45.02,1.14.06c2.32.15,7.34.57,7.17,1.36-.11.53-.81,1.12-2.11,1.66-1.06.44-2.51.84-4.37,1.13-.31.05-.64.1-.98.14l-.69-3.52-.17-.84Z"/>
  <path class="st8" d="M78.5,46.36s.3,0,.83.04c.76.04,1.98.11,3.46.25.8.08,1.45.32,1.94.7.62.47.99,1.14,1.09,1.92.08.58,0,1.23-.25,1.9-.04.12-.09.23-.14.33-.87,1.77-3.17,2.18-5.95,1.89-.09,0-.17-.02-.26-.03-.24-.03-.49-.06-.73-.1v-5.64s0-1.27,0-1.27Z"/>
  <path class="st10" d="M7.27,58.31c-1.58-2.15.48-5.07.48-5.07,0,0-2.35-2.34.83-4.4,0,0-2.47-4.83,1.84-5.34,0,0-1.52-3.29,2.23-3.6,0,0,.28-3.5,3.56-3.61,0,0,1.08-3.58,5.33-2.94,0,0,2.25-2.36,5.01-1.12,0,0,1.25-2.14,6.22-.17,0,0,3.33-1.16,6.13,1.85,0,0,4.78-.71,5.89,2.35,0,0,4.05-.54,4.26,3.29.21,3.83-7.17,12.35-17.82,13.98-10.65,1.63-23.97,4.78-23.97,4.78Z"/>
  <path class="st13" d="M7.88,58.07c-1.58-2.05.51-5.13.51-5.13,0,0-2.44-2.17.71-4.11,0,0-2.36-4.62,1.91-5.08,0,0-1.44-3.01,2.28-3.29,0,0,.42-3.19,3.68-3.27,0,0,.71-3.35,4.93-2.72,0,0,2.22-2.23,4.96-1.04,0,0,1.23-2.02,6.16-.13,0,0,3.3-1.08,6.09,1.79,0,0,4.74-.65,5.85,2.26,0,0,4.01-.49,4.25,3.15s-7.04,11.67-17.59,13.16c-10.55,1.49-23.74,4.4-23.74,4.4Z"/>
  <path class="st0" d="M70.96,45.12s.49-.19,1.25-.36c1.46-.33,3.92-.61,5.97.59.48.28.85.63,1.15,1.05.53.75.79,1.69.85,2.68.08,1.24-.14,2.57-.5,3.74-.06.2-.12.39-.19.57-.2.56-.43,1.07-.67,1.5-1.28,2.3-5.29,3.86-8.37,2.76l-.09-.03c-.21-.08-.41-.17-.61-.27l1.14-11.36.09-.87Z"/>
  <path class="st3" d="M60.35,42.01s.39-.3,1.15-.62c.44-.18,1-.37,1.68-.5.89-.18,1.98-.26,3.26-.13,2.93.31,4.94,2.77,5.78,4,.28.42.43.69.43.69,0,0,.09,1.03.09,2.51,0,2.72-.26,6.97-1.86,9.11,0,0,0,0,0,0-.15.2-.29.39-.44.57-.65.83-1.29,1.52-1.97,2.1-.29.24-.58.47-.9.67-1.49.98-3.3,1.52-5.98,1.76-.1,0-.21.02-.32.03v-.16s-.93-20.05-.93-20.05Z"/>
  <path class="st1" d="M61.5,41.39c1.02-.42,2.69-.87,4.94-.63,2.93.31,4.94,2.77,5.78,4,1.46-.33,3.92-.61,5.97.59.48.28.85.63,1.15,1.05.76.04,1.98.11,3.46.25.8.08,1.45.32,1.94.7,2.32.15,7.34.57,7.17,1.36-.11.53-.81,1.12-2.11,1.66,1.02-1.65-3.91-1.02-3.91-1.02-.02-.03-.05-.06-.07-.08-.62-.73-1.35-1.05-2.06-1.14-1.79-.22-3.52,1.03-3.52,1.03-.02-.03-.05-.05-.07-.08-.56-.66-1.12-1.13-1.68-1.45-2.98-1.74-5.71.6-5.71.6-.01-.09-.03-.17-.06-.26-.21-.67-.93-1.36-1.86-1.97-2.33-1.53-5.99-2.56-6.44-1.59l-2.93-3.01Z"/>
  <path class="st9" d="M19.69,53.28c-2.89-.9-1.41-2.75-1.41-2.75,0,0-1.82-3.07,1.65-3.15,0,0-.06-2.93,4.09-1.51,0,0-.21-2.5,3.41-1.06,0,0,.57-3.73,3.85-2.42,0,0,1.16-1.44,3.73-.14,0,0,1.81-2.01,4.64-.35,0,0,3.08-1.93,3.76.37,0,0-2.64,7.44-6.59,8.53s-17.13,2.48-17.13,2.48Z"/>
  <path class="st1" d="M22.95,53.83c-2.25-.7-1.1-2.14-1.1-2.14,0,0-1.41-2.39,1.28-2.45,0,0-.05-2.28,3.18-1.17,0,0-.16-1.95,2.66-.83,0,0,.44-2.9,3-1.89,0,0,.9-1.12,2.91-.11,0,0,1.41-1.57,3.61-.27,0,0,2.4-1.5,2.93.29,0,0-2.06,5.8-5.13,6.64-3.07.84-13.34,1.93-13.34,1.93Z"/>
  <path class="st1" d="M24.85,56.4c-2.25-.7-1.1-2.14-1.1-2.14,0,0-1.41-2.39,1.28-2.45,0,0-.05-2.28,3.18-1.17,0,0-.16-1.95,2.66-.83,0,0,.44-2.9,3-1.89,0,0,.9-1.12,2.91-.11,0,0,1.41-1.57,3.61-.27,0,0,2.4-1.5,2.93.29,0,0-2.06,5.8-5.13,6.64-3.07.84-13.34,1.93-13.34,1.93Z"/>
  <path class="st11" d="M7.27,58.31c2.39-2.79,9.14-5.72,14.99-6.47,5.85-.75,10.79-.64,13.34-1.91,2.55-1.26,8.57-10.22,14.88-11.79,5.13-1.28,10.36-.56,12.7,2.74.54.75.92,1.64,1.11,2.67.05.27.1.55.14.84.26,1.86.3,4.2.28,6.56-.03,3.54-.9,6.94-2.43,9.96-.22.43-.45.85-.69,1.26-2.9,4.91-7.64,8.67-13.43,10.18-2.05.54-4.16.76-6.23.51-2.91-.35-5.49-1.34-7.76-2.64-3.28-1.88-5.91-4.4-7.94-6.61h0c-1.92-2.08-3.3-3.87-4.19-4.55-2.49-1.91-9.12-1.97-11.4-1.47-2.28.5-3.37.72-3.37.72Z"/>
  <path class="st9" d="M37.64,44.58c.65-1.72,7.58-8.13,7.56-8.38-.01-.26-.42-.65-.58-.27s-3.15,3.13-4.06,4.41c-.91,1.28-2.93,4.24-2.93,4.24Z"/>
  <path class="st9" d="M40,43.8c-.58-1.75-.61-9.87-.78-10.06-.17-.19-.74-.24-.62.16s.42,4.2.52,5.77c.1,1.57.88,4.13.88,4.13Z"/>
  <path class="st9" d="M30.94,45.7c.81-5.36,1.72-12.78,2.18-13.74,0,0-.39-.54-.74-.07-.35.48-.7,4.41-.97,7.2s-.47,6.61-.47,6.61Z"/>
  <path class="st9" d="M32.57,45.04c-1.58-3.85-5.59-12.01-5.62-13.07,0,0-.59-.31-.69.27-.09.58,2.02,3.78,3.13,6.35,1.17,2.7,3.17,6.45,3.17,6.45Z"/>
  <path class="st9" d="M24.72,48.32c-1.16-3.74-2.52-13.34-2.71-14.84-.03-.21-.23-.34-.44-.32-.13.01-.26.1-.32.33-.15.57.91,4.21,1.7,8.68.51,2.9,1.76,6.15,1.76,6.15Z"/>
  <path class="st9" d="M25.42,47.42c-2.78-2.75-7.95-10.24-8.82-11.48-.12-.17-.36-.19-.53-.07-.11.07-.18.21-.12.44.14.57,2.79,3.29,5.59,6.85,1.82,2.32,3.89,4.26,3.89,4.26Z"/>
  <path class="st9" d="M7.75,53.24l12.12-3.09s-8.78,1.66-10.62,2.05-2.23,1.01-1.49,1.04Z"/>
  <path class="st9" d="M8.58,48.91c.25.04,11.73,1.96,11.73,1.96,0,0-8.71-1.9-10.51-2.34-1.79-.44-1.46.35-1.22.38Z"/>
  <path class="st9" d="M10.57,43.73l11.17,4.55s-10.61-5.03-11.23-5.02c-.35,0-.33.14-.24.25.07.1.18.17.3.22Z"/>
  <path class="st9" d="M12.64,40.13c.49.53,8.87,8.87,8.87,8.87,0,0-8.16-8.82-8.56-9.15-.4-.33-.55.03-.31.28Z"/>
  <path class="st9" d="M65.22,54.71s0,.02,0,.02c0,0,0,0,0-.02Z"/>
  <path class="st1" d="M7.27,58.31c2.39-2.79,9.14-5.72,14.99-6.47,5.85-.75,10.79-.64,13.34-1.91,2.55-1.26,8.57-10.22,14.88-11.79,4.17-1.04,8.4-.76,11.09,1.15,1.38.98,2.36,2.39,2.72,4.26.05.27.1.55.14.84-1.05-1.92-2.83-3.65-5.78-4.74-10.08-3.72-15.86,11.91-23.4,14.16-7.24,2.16-10.93,5.6-9.03,9.8-1.6-1.74-2.83-3.28-3.72-4.13-.17-.17-.33-.31-.48-.42-1.19-.91-3.33-1.41-5.48-1.62-1.19-.11-2.38-.14-3.42-.11-1.02.03-1.9.12-2.49.25-2.28.5-3.37.72-3.37.72Z"/>
  <path class="st1" d="M7.27,58.31c2.39-2.79,9.14-5.72,14.99-6.47,5.85-.75,10.79-.64,13.34-1.91,2.55-1.26,8.57-10.22,14.88-11.79,4.17-1.04,8.4-.76,11.09,1.15-.8-.39-1.83-.76-3.16-1.07-5.97-1.37-8.29.9-14.67,5.5s-5.74,7.97-14.18,8.61c-6.55.5-13.1,2.65-16.44,5-1.02.03-1.9.12-2.49.25-2.28.5-3.37.72-3.37.72Z"/>
  <path class="st1" d="M16.56,57.46c2.46-3.11,15.7-5.03,15.57-4.35-.13.66-7.68,3.19-9.61,6.39-.17-.17-.33-.31-.48-.42-1.19-.91-3.33-1.41-5.48-1.62Z"/>
  <g>
    <path class="st12" d="M54.96,68.27c-1.67,2.36-4.55,2.87-5.58,2.08-1.03-.79,1.94-4.82,4.72-4.7,2.79.12,1.51,1.69.86,2.62Z"/>
    <path class="st12" d="M49.65,71.62c-.44.34-1.01.27-1.15.07s.63-.78,1.14-.6c.51.18.18.4,0,.53Z"/>
    <path class="st12" d="M43.85,70.74c-.44.34-1.01.27-1.15.07-.15-.21.63-.78,1.14-.6s.18.4,0,.53Z"/>
    <path class="st12" d="M43.69,72.15c-.13.1-.3.08-.35.02-.04-.06.19-.24.34-.18s.06.12,0,.16Z"/>
    <path class="st12" d="M45.78,65.89c-.44.34-1.01.27-1.15.07-.15-.21.63-.78,1.14-.6.51.18.18.4,0,.53Z"/>
    <path class="st12" d="M43.34,67.05c-.19.14-.43.11-.49.03-.06-.09.27-.33.48-.25s.08.17,0,.23Z"/>
    <path class="st12" d="M56.2,64.91c-.19.14-.43.11-.49.03-.06-.09.27-.33.48-.25.22.08.08.17,0,.23Z"/>
    <path class="st12" d="M56.31,67.56c-.19.14-.43.11-.49.03s.27-.33.48-.25c.22.08.08.17,0,.23Z"/>
    <path class="st12" d="M58.58,64.99c-.19.14-.43.11-.49.03s.27-.33.48-.25.08.17,0,.23Z"/>
    <path class="st12" d="M53.33,64.34c-.44.34-1.01.27-1.15.07s.63-.78,1.14-.6c.51.18.18.4,0,.53Z"/>
    <path class="st12" d="M57.7,66.34c-.44.34-1.01.27-1.15.07s.63-.78,1.14-.6.18.4,0,.53Z"/>
    <path class="st12" d="M50.65,66.45c-1.18.91-2.67.72-3.06.18s1.68-2.08,3.04-1.6c1.35.48.49,1.06.02,1.42Z"/>
    <path class="st12" d="M47.44,69.47c-1.8.77-3.65.04-3.96-.79s2.83-2.09,4.4-1.03c1.56,1.06.27,1.51-.44,1.81Z"/>
    <path class="st12" d="M47.45,71.66c-.98.95-2.37.93-2.78.47-.41-.46,1.32-2.07,2.61-1.77,1.28.3.55.92.17,1.29Z"/>
  </g>
  <path class="st4" d="M34.17,70.23s.05-.03.05-.03c14.52,3.49,24.08-4.98,27.06-8.15.65-.7.99-1.14.99-1.14,0,0,.02,0,.02,0,3.52.63,6.81-2.1,8.06-3.3.32-.3.5-.51.53-.54,0,0,0,0,0,0,4,.66,7.14-2.34,8.35-3.72.21-.24.36-.43.45-.54.06-.07.08-.11.08-.11,3.81.76,5.81-1.54,5.81-1.54-.04.12-.09.23-.14.33-.87,1.77-3.17,2.18-5.95,1.89-.2.56-.43,1.07-.67,1.5-1.28,2.3-5.29,3.86-8.37,2.76-.65.83-1.29,1.52-1.97,2.1-.29.24-.58.47-.9.67-1.49.98-3.3,1.52-5.98,1.76-2.9,4.91-7.64,8.67-13.43,10.18-2.05.54-4.16.76-6.23.51-2.91-.35-5.49-1.34-7.76-2.64Z"/>
  <path class="st2" d="M62.08,57.02c1.11-4.02,2.25-12.84-4.97-14.19-7.22-1.35-9.98,7.96-15.23,10.27-5.25,2.31-13.79,5.62-13.95,9.12-.15,3.5,7.48,8.6,12.73,9.52,5.25.92,17.82-1.7,21.41-14.72Z"/>
  <path class="st5" d="M59.9,61.21c1.45-2.59,1.81-7.1-2.13-6.76-5.46.47-6.34,4.58-10.24,6.2-3.9,1.62-11.55,2.52-11.65,5.01-.1,2.49,3.54,5.85,7.46,6.52,3.92.68,11.09-1.16,16.56-10.96Z"/>
  <path class="st5" d="M34.42,69.82c.67.24,1.74.14,1.5-.77-.33-1.26-1.33-1.31-1.87-2.16-.54-.85-1.05-2.61-1.64-2.54-.59.08-1.23,1.06-1.23,2.01,0,.95.71,2.56,3.24,3.45Z"/>
  <path class="st5" d="M51.6,71.02c2.19-1.07,4.4-3.98,1.33-5.67-4.25-2.35-6.66.02-10.25-.78-3.59-.81-9.51-2.45-11.19-.98-1.52,1.33-1.4,2.94,1.21,5.33,2.61,2.39,10.62,6.15,18.89,2.11Z"/>
  <path class="st6" d="M61.27,62.05c-4.76,5.69-10.8,11.84-21.55,9.83-10.75-2.01-9.07-8.06-4.18-9.94,4.9-1.87,12.57,1.8,16.91.75s12.39-4.92,8.81-.64Z"/>
  <path class="st6" d="M37.58,58.36c-2.76-3.28-10-1.25-10.89,2.58-.9,3.82,3.17,5.6,3.31,4.54s-.62-2.45,1.89-3.56c2.51-1.11,8.02-.8,5.7-3.56Z"/>
</svg>