<?xml version="1.0" encoding="UTF-8"?>
<svg id="DESIGNED_BY_FREEPIK" xmlns="http://www.w3.org/2000/svg" version="1.1" viewBox="0 0 100 100">
  <!-- Generator: Adobe Illustrator 30.3.0, SVG Export Plug-In . SVG Version: 2.1.3 Build 182)  -->
  <defs>
    <style>
      .st0 {
        fill: #60eace;
      }

      .st1 {
        fill: #33b9aa;
      }

      .st2 {
        fill: #3ac9b3;
      }

      .st3 {
        fill: #33cda6;
      }

      .st4 {
        fill: #61ead1;
      }

      .st5 {
        fill: #c59ee1;
      }

      .st6 {
        fill: #4fedb8;
      }

      .st7 {
        fill: #5fe7cd;
      }

      .st8 {
        fill: #3bdcb6;
      }

      .st9 {
        fill: #a098d3;
      }

      .st10 {
        fill: #ab88d2;
      }

      .st11 {
        fill: #bda3df;
      }

      .st12 {
        fill: #39c7ba;
      }

      .st13 {
        fill: #56ecce;
      }

      .st14 {
        fill: #b38dd6;
      }

      .st15 {
        fill: #4cefc5;
      }

      .st16 {
        fill: #a083cc;
      }

      .st17 {
        fill: #50edcb;
      }

      .st18 {
        fill: #3bd0bd;
      }

      .st19 {
        fill: #2eb09c;
      }

      .st20 {
        fill: #2fc69e;
      }

      .st21 {
        fill: #3fdec3;
      }

      .st22 {
        fill: #4fddc5;
      }

      .st23 {
        fill: #3ac4bc;
      }

      .st24 {
        fill: #ad86d3;
      }

      .st25 {
        fill: #40dec5;
      }

      .st26 {
        fill: #52e2cb;
      }

      .st27 {
        fill: #32b8ae;
      }

      .st28 {
        fill: #3ed4c0;
      }

      .st29 {
        fill: #6ae0c9;
      }

      .st30 {
        fill: #b68cd7;
      }

      .st31 {
        fill: #57eecb;
      }

      .st32 {
        fill: #5fefd0;
      }

      .st33 {
        fill: #3edec3;
      }

      .st34 {
        fill: #3df9bf;
      }

      .st35 {
        fill: #51e0cc;
      }

      .st36 {
        fill: #28af8e;
      }

      .st37 {
        fill: #40dbb0;
      }

      .st38 {
        fill: #d8cced;
      }

      .st39 {
        fill: #36d2b6;
      }

      .st40 {
        fill: #30bfa5;
      }

      .st41 {
        fill: #46c6ad;
      }

      .st42 {
        fill: #34c7a7;
      }

      .st43 {
        fill: #52f2cf;
      }

      .st44 {
        fill: #28ae8c;
      }

      .st45 {
        fill: #44f6cd;
      }

      .st46 {
        fill: #50eacc;
      }

      .st47 {
        fill: #40e8c7;
      }

      .st48 {
        fill: #43f6cd;
      }

      .st49 {
        fill: #44cea9;
      }

      .st50 {
        fill: #57e4c2;
      }

      .st51 {
        fill: #3ed5bc;
      }

      .st52 {
        fill: #5fe2ca;
      }

      .st53 {
        fill: #28b28d;
      }

      .st54 {
        fill: #34b7b3;
      }

      .st55 {
        fill: #50e1c6;
      }

      .st56 {
        fill: #39d9b7;
      }

      .st57 {
        fill: #867fc1;
      }

      .st58 {
        fill: #30f8b3;
      }

      .st59 {
        fill: #a182cd;
      }

      .st60 {
        fill: #29b690;
      }

      .st61 {
        fill: #c097de;
      }

      .st62 {
        fill: #2cdda5;
      }

      .st63 {
        fill: #887dc1;
      }

      .st64 {
        fill: #31b3a4;
      }

      .st65 {
        fill: #3cd9c0;
      }

      .st66 {
        fill: #37d3b9;
      }

      .st67 {
        fill: #34b8b3;
      }

      .st68 {
        fill: #2fc49d;
      }

      .st69 {
        fill: #53efb9;
      }

      .st70 {
        fill: #41f2c8;
      }

      .st71 {
        fill: #38dabc;
      }

      .st72 {
        fill: #70eacb;
      }

      .st73 {
        fill: #2acc9a;
      }

      .st74 {
        fill: #35d6ac;
      }

      .st75 {
        fill: #34b5b3;
      }

      .st76 {
        fill: #36c3ac;
      }

      .st77 {
        fill: #3cd0bb;
      }

      .st78 {
        fill: #46e0c6;
      }

      .st79 {
        fill: #37c3b6;
      }

      .st80 {
        fill: #947fc6;
      }

      .st81 {
        fill: #3ad1be;
      }

      .st82 {
        fill: #4bf5c8;
      }

      .st83 {
        fill: #948ccc;
      }

      .st84 {
        fill: #30c69f;
      }

      .st85 {
        fill: #42e7cb;
      }

      .st86 {
        fill: #50e0c1;
      }

      .st87 {
        fill: #3ad4bf;
      }

      .st88 {
        fill: #23b383;
      }

      .st89 {
        fill: #3ff8b7;
      }

      .st90 {
        fill: #3edbc1;
      }

      .st91 {
        fill: #34bfad;
      }

      .st92 {
        fill: #36c5b5;
      }

      .st93 {
        fill: #41f3ca;
      }

      .st94 {
        fill: #31b6a3;
      }

      .st95 {
        fill: #2febac;
      }

      .st96 {
        fill: #55edcd;
      }

      .st97 {
        fill: #43e4ca;
      }

      .st98 {
        fill: #34c1b0;
      }

      .st99 {
        fill: #4edecb;
      }

      .st100 {
        fill: #7b78ba;
      }

      .st101 {
        fill: #32bdb0;
      }

      .st102 {
        fill: #4befce;
      }

      .st103 {
        fill: #b38fd7;
      }

      .st104 {
        fill: #937dc6;
      }

      .st105 {
        fill: #38d2ba;
      }

      .st106 {
        fill: #3ae0be;
      }

      .st107 {
        fill: #2feab0;
      }

      .st108 {
        fill: #3ddbbe;
      }

      .st109 {
        fill: #2fc79e;
      }

      .st110 {
        fill: #63f0d0;
      }

      .st111 {
        fill: #44f7cf;
      }

      .st112 {
        fill: #43f2cd;
      }

      .st113 {
        fill: #5ff5d2;
      }

      .st114 {
        fill: #39cdb4;
      }

      .st115 {
        fill: #38d3bb;
      }

      .st116 {
        fill: #3fd7c2;
      }

      .st117 {
        fill: #3ecdba;
      }

      .st118 {
        fill: #34b9ae;
      }

      .st119 {
        fill: #41f8cc;
      }

      .st120 {
        fill: #a282cd;
      }

      .st121 {
        fill: #37d2b1;
      }

      .st122 {
        fill: #3ce5b1;
      }

      .st123 {
        fill: #34bbad;
      }

      .st124 {
        fill: #47e3b8;
      }

      .st125 {
        fill: #4fdcbd;
      }

      .st126 {
        fill: #46ecca;
      }

      .st127 {
        fill: #38f1ba;
      }

      .st128 {
        fill: #27b08a;
      }

      .st129 {
        fill: #37c2b7;
      }

      .st130 {
        fill: #4be0cc;
      }

      .st131 {
        fill: #3dd4be;
      }

      .st132 {
        fill: #36bbb0;
      }

      .st133 {
        fill: #38c8ac;
      }

      .st134 {
        fill: #3ed5bb;
      }

      .st135 {
        fill: #36c8ab;
      }

      .st136 {
        fill: #52f7cf;
      }

      .st137 {
        fill: #2eafa1;
      }

      .st138 {
        fill: #3dd6c2;
      }

      .st139 {
        fill: #42e8cc;
      }

      .st140 {
        fill: #39dcbd;
      }

      .st141 {
        fill: #39c5b9;
      }

      .st142 {
        fill: #26c48e;
      }

      .st143 {
        fill: #57e3be;
      }

      .st144 {
        fill: #38f8bc;
      }

      .st145 {
        fill: #3fe6b4;
      }

      .st146 {
        fill: #3adebf;
      }

      .st147 {
        fill: #5be2cd;
      }

      .st148 {
        fill: #39d9bd;
      }

      .st149 {
        fill: #56dfbe;
      }

      .st150 {
        fill: #38c5b9;
      }

      .st151 {
        fill: #3ddac1;
      }
    </style>
  </defs>
  <path class="st52" d="M57.29,14.78c.07.03.14.03.2-.01.1-.1.23-.15.38-.14,1.23-.05,2.45,0,3.66.27.12,0,.25,0,.37,0,.22.06.45.13.68.15.1.02.21.05.31.1.18.09.37.16.57.21.09.04.18.09.25.15.1.11.21.2.37.21.1.03.18.08.26.15.08.07.15.15.22.23.03.04.07.08.1.12.15.19.24.38-.03.55-.43.13-.74-.22-1.13-.27-.55-.23-.91.24-1.37.36-.97-.12-1.91-.37-2.89-.47-1.09-.1-2.12-.09-3.14.31-.3.04-.6.11-.88.22-.58.23-1.58-.04-1.31,1.17.03.14-.31.27-.51.36-.12.05-.24.09-.36.12-.25.05-.5.12-.72-.08-.05-.25-.06-.51.03-.76.18-.86.78-1.44,1.36-2.03.71-.27,1.47-.43,2.2-.65h-.01c.42-.34.97.02,1.4-.26Z"/>
  <path class="st69" d="M22.7,62.88c.03-.07.01-.13-.04-.18-.23-.22-.01-.59-.26-.8h0c-.16-.18-.14-.42-.24-.62.02-.07.01-.13-.04-.18-.16-.16-.12-.39-.24-.57v.02c-.28-.2-.05-.59-.28-.82v.02c-.27-.2-.04-.59-.28-.81h0c-.25-.21-.03-.58-.27-.8h0c-.16-.15-.13-.39-.25-.56v.02c-.3-.18-.04-.59-.3-.79h0c-.25-.44-.06-.94-.19-1.39.13-.56.39-1.09,1.06-.85.61.22.49.77.22,1.23-.19.33.08.48.18.7.7,1.53,1.35,3.1,1.79,4.7.21.77.69,1.3.92,2,.03.11.06.23.08.34.04.16.08.32.14.48.09.2.19.4.29.59.15.3.28.61.32.95.02.23.01.45-.03.67-.02.11-.06.22-.11.32-.14.25-.27.49-.56.59-.11.02-.22,0-.32-.04-.14-.1-.2-.25-.27-.4v.02c-.29-.2-.05-.59-.28-.81h0c-.27-.2-.05-.58-.28-.8h0c-.27-.19-.04-.58-.29-.79h0c-.25-.21-.03-.58-.27-.8h0c-.16-.18-.15-.42-.24-.62Z"/>
  <path class="st149" d="M24.32,66.99c.08,0,.15,0,.23,0,1.47-.47,1.46.74,1.79,1.57.37,1.21,1.5,2.17,1.3,3.56-.06.4.16.29.3.38.45.29.87.86.64,1.2-.49.72.42.19.33.45.39.58,1.01,1.07.79,1.9-1.28.42-1.89-.48-2.56-1.28-.07-.1-.14-.21-.19-.33-.04-.11-.08-.23-.1-.35-.02-.43-.24-.78-.42-1.14-.14-.19-.09-.45-.25-.63h0c-.18-.13-.14-.38-.26-.55h.01c-.09-.04-.14-.12-.16-.22,0-.2,0-.4-.12-.58v.02c-.19-.16-.16-.41-.26-.62.02-.07,0-.13-.04-.18-.16-.23-.21-.5-.32-.75-.08-.2-.06-.43-.2-.61v.02c-.27-.2-.04-.59-.28-.81h0c-.17-.17-.16-.41-.24-.62.02-.07,0-.12-.04-.17-.08-.08-.1-.14-.06-.19.04-.05.07-.07.11-.07Z"/>
  <path class="st125" d="M75.7,59.49s-.06.1-.03.17c0,.13-.07.19-.2.18-.2-.11-.3-.31-.41-.5-.49-.18-.41.57-.83.51-.13-.03-.23-.1-.29-.22-.04-.81-.07-1.61.22-2.39.78-.32,1.31-.03,1.65.7,0,.52.15,1.05-.11,1.56Z"/>
  <path class="st27" d="M55.86,16.37c1.19-.68,2.46-.33,3.71-.31.97.01,1.82.36,2.72.59,1.26.53.69,1.6.62,2.43-.07.84-.74,1.28-1.58,1.35-1.35.12-2.64-.27-3.93-.57-.28-.08-.55-.18-.83-.27-.14-.04-.28-.1-.41-.17-1.14-1.01-1.23-1.91-.31-3.05Z"/>
  <path class="st70" d="M57.23,19.57c.81-.03,1.57.23,2.33.41.62.14,1.23.11,1.84.13.55.02,1.04-.27,1.11-.76.14-.89.54-1.86-.22-2.69.23-.16-.07-1.15.74-.47.11.09.41-.05.61-.08.02.72.4,1.31,1.06,1.39,1.49.19,1.11,1.28,1.1,2.14,0,.37-.25.74,0,1.12.05.12.06.24.03.37-.22.31-.52.33-.85.27-.12-.04-.23-.1-.33-.17-.38-.34-.74-.06-1.11.03-2.39.64-4.71.48-6.96-.55-.16-.08-.32-.17-.48-.26-.11-.05-.22-.11-.32-.17-.16-.09-.31-.19-.44-.33-.07-.11-.08-.23-.05-.36.28-.5.68-.51,1.13-.27.09,0,.17,0,.26.01.14.17.39.1.54.25Z"/>
  <path class="st17" d="M64.99,21.19c.29-.01.61.05.89-.39.16-.28.17-.64.38-.92-.27.29-.24.72-.38.92-.91-.09-.63-.62-.45-1.12.06-.16.51-.29.13-.47-.55-.25.85-1.42-.67-1.22-.65.09-.99-1.01-1.81-.9-.1-.61.76-.47.56-.99.38.15.63.61,1.12.51.15.02.3.05.45.07.19.18.36.39.57.54.64.45.89,1.03.86,1.81-.06,1.27-.07,2.55-.09,3.82,0,.21-.16.57.32.51.09.02.18,0,.26-.04.71,0,1.43-.01,2.14-.02.53.25,1.06.83,1.61.02.18,0,.36.02.54.03.37.15.83.25.4.79-.25.31-.59.52-.95.69-.38.15-.78.16-1.16.07-1.15-.3-2.12.22-3.11.63-.62-.62-1.09-1.33-1.06-2.25,0-.36-.22-.53-.44-.73-.48-.43-.5-.89-.1-1.38Z"/>
  <path class="st92" d="M55.89,20.1c.09,0,.18.01.26.01.09.09.18.17.27.25,1.49.74,3.13.91,4.73.95,1.2.03,2.44-.23,3.5-.9.31.27,0,.52.06.76-.03.06-.07.12-.1.19-.13.17-.3.31-.47.43-2.23,1.26-4.52.91-6.83.24-.18-.05-.36-.12-.53-.21-.1-.04-.21-.1-.31-.15-.14-.07-.28-.16-.42-.23-.09-.04-.18-.09-.26-.14-.13-.07-.26-.14-.39-.2-.09-.04-.18-.08-.27-.13-.09-.04-.18-.08-.27-.13-.1-.04-.19-.09-.29-.14-.3-.16-.59-.34-.85-.57-.44-.56-1.32-.92-.81-1.88.09,0,.18,0,.28,0,.77.45,1.59.85,2.14,1.59h0c.14.17.39.11.54.26Z"/>
  <path class="st130" d="M55.35,19.85c-.81-.4-1.68-.73-2.14-1.59q.4-.28.21-.63c-.21-.39.25-1.25.49-1.06.77.61,1.31-.2,1.96-.19-.38,1.09-.59,2.14.56,2.93-.46-.01-.88.04-1.08.54Z"/>
  <path class="st130" d="M52.93,18.26c-.13.91.79,1.2,1.08,1.86-.38.26-.81.44-1.09.86-.26.39-.64.58-1.08.2.02-.43.05-.87.07-1.3.35-.39.16-.98.52-1.37.17-.08.34-.17.51-.25Z"/>
  <path class="st95" d="M22.72,49.9c.09-.09.17-.18.26-.27.46-.15.76-.47,1.02-.85h0c.1-.08.19-.18.3-.25v.02c.27-.1.53-.19.8-.29.38-.24.83-.21,1.25-.28.61-.1.77.25.58.8-.84.92-2.07,1.28-3.01,2.05-.33.28-.64.59-.95.89-.73.76-.51,1.54-.04,2.32.46.76,1.14.7,1.88.53,1.28-.29,2.44-.79,3.43-1.69.81-.74,1.3-.59,1.64.43.35,1.08.23,1.97-.8,2.69-1.72,1.2-3.44,2.32-5.1,2.17,1.31.06,2.96-.43,4.46-1.62,1.62-1.28,1.85-1.16,2.49.81.27.85.56,1.7.47,2.61-.07.19-.2.33-.37.44-.47.18-.85-.06-1.24-.27-1.51-.82-3.09.03-3.75,1.56-.58,1.33-.44,2.53-.23,3.81.04.26.04.6-.27.67-.38.09-.25-.38-.44-.52-.09-.36-.18-.71-.28-1.07-.16-.14-.1-.39-.26-.53-.09-.09-.18-.18-.26-.27.07-.06.09-.12.07-.18-.02-.06-.05-.09-.07-.09-.05-.6-.3-1-.97-.96-.2.01-.36-.02-.34-.27,0-.08.09-.21.12-.21.68.12.5-.33.36-.61-.73-1.5-1.26-3.08-1.81-4.65-.08-.23-.16-.34-.42-.42-.38-.11-.55-.42-.09-.62.5-.23.62-.6.31-.92-.46-.47-.62.24-.93.38h0c-.07-.12-.16-.29-.1-.37.77-1,.39-2.41,1.19-3.4.29-.43.58-.85.88-1.28.14-.05.22-.14.24-.29Z"/>
  <path class="st122" d="M25.09,65.65c.13.1.26.21.62.49-.47-.99-.12-1.92-.73-2.64-.13-.15-.13-.37,0-.49.57-.52.94-1.1.8-1.92-.02-.14.11-.36.24-.45.7-.51,1.41-1.01,2.23-1.28.55-.18,1.1-.11,1.54.41.29.33.72.51,1.18.54.93,1.75,1.09,3.47-.11,5.19-.33.47-.78.7-1.25.95-.15.1-.3.2-.47.22-1.32.15-2.67.25-2.99,1.94-.2.06-.37.24-.61.14-.11-.12-.04-.23.02-.35.48-.97.43-1.06-.71-1.2-.11-.01-.21-.13-.31-.19.18-.18.35-.36.53-.54h0c0-.27,0-.54,0-.8Z"/>
  <path class="st122" d="M24.55,64.04c.22.12.26.31.26.53-.22-.12-.26-.32-.26-.53Z"/>
  <path class="st122" d="M24.28,63.51c.1.04.14.11.1.19-.02.03-.07.05-.1.08,0-.09,0-.18,0-.27Z"/>
  <path class="st51" d="M29.63,76.1c-.05-.72-.81-1.14-.8-1.88-.2-.8.03-1.39.82-1.71,1.16-.52.16-1.33.27-1.99.18-1.12.65-1.59,1.99-1.44,1.13.12,1.17-.35.97-1.15-.14-.55-.03-.94.46-1.23.12-.05.24-.05.36,0,.29.24.49.55.73.83.63.93.72,2.06,1.11,3.08.29.76-.35,1.45-1.08,1.88-.1.07-.21.13-.32.18-.48.26-1.01.23-1.54.27-.97.08-1.66.38-1.61,1.59.03.76-.28,1.47-1.2,1.64-.06-.02-.12-.05-.17-.07Z"/>
  <path class="st8" d="M29.63,72.61c.05.47-.5.44-.6.7-.11.27.2.66-.2.9-.3.02-.61.04-.91.07-.16-.45.59-.23.45-.61-.15-.41-.23-.93-.74-1.02-.43-.08-.55-.15-.23-.53.09-.11.09-.35.05-.51-.15-.63-.42-1.18-1.11-1.38.6-.62.18-1.12-.19-1.63-.03-.31.18-.57.12-.9-.1-.62-.47-1.57.83-.84.66-.54,1.56-.28,2.26-.66.74.03.38.53.31.83-.2.81-.55,1.56-.93,2.3-.33.66-.26,1.16.47,1.47.21.6.53,1.17.42,1.83Z"/>
  <path class="st11" d="M25.88,75.26c.09-.08.18-.15.27-.23.22-.01.41-.07.53-.28h0c.17-.15.36-.22.58-.22.56.86,1.38,1.33,2.36,1.57h.01c.08.09.1.21.07.33-.08.17-.19.31-.33.44-1.03.4-1.33,1.7-2.45,2-.49.33-.99.66-1.59.75-.09-.01-.17-.02-.26-.04,0-.08-.01-.16-.02-.24-.14-.16-.06-.42-.24-.56h0c-.17-.14-.09-.4-.26-.54.01-.43.02-.87.04-1.3.18-.13.24-.32.27-.53.07-.1.15-.2.22-.3.19-.11.27-.29.32-.49.08-.09.17-.18.25-.26.08-.02.16-.04.23-.08Z"/>
  <path class="st103" d="M63.67,82.19c-1.5.1-2.99.03-4.49-.09-2.06-.17-4.14-.11-6.21-.14,0,0,0,.01,0,.01-.43-.25-.9-.07-1.35-.12-.26,0-.52.02-.77-.04-.21-.36.05-.5.3-.56,1.16-.28,2.54.18,3.44-1.01,1.27.34,2.51-.37,3.79-.07.67.16,1.33.11,1.77-.58.3-.47.71-.46,1.16-.19.3.18.56.46.95.43.54-.03,1.07,0,1.51.37.89,1.1.88,1.25-.09,1.99Z"/>
  <path class="st9" d="M63.67,82.19q.61-.87-.02-1.81c.26-.55.68-.76,1.27-.61.08.07.14.15.18.25.05.09.11.17.2.23.3.09.6-.01.9-.01,1.03,0,1.17.31.65,1.35,0,.04.01.09.02.14-.3,0-.59,0-.81.25h-.13s-.13.03-.13.03c-.46,0-.95-.12-1.36.22-.26-.01-.51-.03-.77-.04Z"/>
  <path class="st76" d="M75.37,60.23c-.07.01-.14.03-.2.06-.35.32-.76.49-1.23.56-1.17.17-2.33.16-3.29-.67-.79-.69-1.02.37-1.56.45-.36-.12-.67-.32-.93-.58.07-1.03.95-1.57,1.43-2.36.58-.71.93-1.62,1.84-2.02.57-.26,1.14-.56,1.64.11.03.13,0,.24-.1.34-.98.5-1.99.97-2.01,2.31.11,1.05,1.09.9,1.72,1.19.43.2.95.02,1.42.13.09,0,.18,0,.27,0,.25-.22.31-.71.81-.55.22.12.24.34.26.55-.02.16-.05.31-.07.47Z"/>
  <path class="st56" d="M74.1,59.76c-.65.46-1.32.33-1.99.07-.49-.19-.97-.41-1.45-.62-.2-.08-.46-.15-.4-.43.06-.32.36-.33.62-.37,1.77.01,2.18-.24,2.18-1.38,0-.34-.24-.67-.06-1.02h.03c.77-.33.9.34,1.19.76.05.21.03.4-.12.57.58.81,0,1.61,0,2.41Z"/>
  <path class="st29" d="M74.1,57.34c0-.18,0-.35,0-.53-.08-.48-.39-.89-.42-1.39.02-.12.08-.23.18-.31.19-.04.37-.05.5.13l-.02-.02c.12.07.21.16.28.28h-.01c.62.24.75.86,1.08,1.34,0,0-.02.01-.02.01,0,.34.01.69.02,1.03-.46-.38-.96-.64-1.58-.54Z"/>
  <path class="st56" d="M75.18,59.21c-.27.18-.54.36-.81.55,0-.33.17-.59.31-.87.1-.19.23-.43.5-.26.26.16.06.39,0,.59Z"/>
  <path class="st43" d="M49.68,26.04c0,.53.01,1.05.02,1.58.55.92.14,2.02.54,2.97.23.94-.21,1.78-.39,2.67-.15.67-.28,1.34-.44,2-.05.13-.12.25-.22.35-.1.1-.22.16-.36.19-.55.01-.66-.37-.74-.79-.02-.13-.03-.26-.03-.39,0-.31-.06-.62-.1-.93-.12-1.46.06-2.93-.19-4.4-.15-.87.32-1.33,1.55-1.26-.52-.15-.3-.17-.33-.17-1.56-.1-1.37-1.26-1.37-2.28,0-.63.31-.9.82-.71-1.28-.22-.52-1.37-.75-2.11-.02-.13-.07-.29,0-.39.6-.93.85-1.86.3-2.92-.14-.26.09-.59.4-.75.18-.07.55.24.51-.29-.03-.44-.05-.9.27-1.27.14-.06.23-.03.27.12,0,.15.02.3.03.45,0,2.3,0,4.61.02,6.91,0,.48-.09.98.21,1.42Z"/>
  <path class="st99" d="M49.2,17.17v1.88c-.44.1-.57-.23-.82-.27-.22-.07-.37-.23-.45-.44q-.67-1.67-2.38-1.56c-2.53-1.15-4.82.15-7.18.73-.77.19-.87,1.07-1.34,1.58-.17.2-.38.35-.65.39-.13,0-.25-.02-.37-.07-.34-.29-.51-.59-.11-.98.43-.4.61-.95.81-1.48.03-.12.08-.22.18-.31,0,0,0,.01,0,.01.1-.08.2-.15.3-.23.21-.03.4-.1.5-.3.21-.03.41-.08.53-.27h-.01c.14-.18.39-.13.55-.27h0c.26-.03.54-.04.77-.14,1.57-.66,3.19-1.04,4.9-.99.26,0,.53.01.75-.18.57.06,1.14.17,1.71.18.97.03,1.72.36,2.13,1.31.06.15.25.24.37.36v-.02c.25.26.24.52.01.78v-.02c-.03.13-.12.22-.22.3Z"/>
  <path class="st0" d="M70.88,23.33c-.01.3.03.62-.3.8-.3.17-.6.44-.67-.21-.04-.32-.74-.06-.63-.61.1-.07.21-.15.31-.22.06.03.11.03.17,0,.33.3.76.13,1.13.24Z"/>
  <path class="st82" d="M27.29,28.21c.07-.1.15-.2.22-.3.09-.09.18-.18.26-.27.14-.04.23-.13.26-.27.09-.09.18-.17.27-.26.1-.08.19-.16.29-.24.45-.14.76-.48,1.05-.82,0,0-.02,0-.02,0,.08-.11.17-.21.29-.27,0,0,.02.03.02.03,1.15-.63,2.3-1.26,3.45-1.89.17,0,.33-.02.5-.02.04.22,0,.39.4.3.56-.14,1.2-.27,1.6.4-.65,1.16-1.76,1.25-2.91,1.25-.14,0-.26-.38-.38-.08-.57,1.44-2.39,1.63-2.97,3.04-.5.85-1.32,1.43-1.94,2.18-.44.49-.67,1.15-1.22,1.55-.12.04-.23.03-.35,0-.26-.23-.45-.53-.72-.74-.03-.05-.06-.1-.08-.15.02-.16.03-.32.05-.48.19-.13.26-.32.26-.54h-.01c.14-.16.09-.41.27-.55h0c.19-.25.31-.57.57-.79h-.02c.06-.11.17-.19.27-.28h0c.3-.16.49-.43.59-.75Z"/>
  <path class="st89" d="M25.65,40.45c.02-.09.01-.17-.03-.24,0-.51-.02-1.03-.03-1.54-.12-.17-.1-.37-.11-.56.02-.09.04-.18.04-.27,0,0-.12-.05-.12-.05-.03-.16-.05-.32-.08-.47-.07-.07-.09-.14-.06-.23.02-.07.04-.11.06-.1,0,0,.11-.01.11-.01,0,0-.04-.11-.05-.11-.1,0-.17-.05-.2-.14,0-.1-.01-.19-.02-.29.05-.08.04-.16-.01-.24,0-.19,0-.37-.01-.56.05-.1.04-.18-.04-.25,0-.17-.02-.33-.03-.5-.08-.07-.11-.15-.09-.26-.11-.2,0-.37.08-.54-.06-.09-.11-.18-.14-.28-.29-.74.21-1.41.2-2.13.07-.02.14-.04.21-.07l.04.07c.29.31.43.67.41,1.1-.02.1-.06.2-.11.28-.06.13-.08.26,0,.39.18.18.41.3.54.53.08.22,0,.43-.05.63-.02.21.06.41.09.62,0,.15,0,.3,0,.45,0,.18.18.2.26.31.14.19.19.41.22.64.2,1.79.25,3.6.91,5.32.19.49.17,1.05-.14,1.53-.62.27-.77-.32-1.09-.6-.08-.09-.17-.18-.25-.27-.03-.46.08-.94-.27-1.34.02-.3-.01-.59-.24-.82Z"/>
  <path class="st34" d="M24.98,34.63c.03.09.06.17.09.26-.08-.01-.15-.04-.22-.06.03-.08.08-.14.14-.19Z"/>
  <path class="st34" d="M24.93,33.8c.05.09.09.19.14.28-.12-.06-.18-.15-.14-.28Z"/>
  <path class="st0" d="M70.88,24.67c.11-.24.27-.42.52-.52.59-.24.36-.51.03-.78.26,0,.51,0,.77,0,.3.29.7.24,1.07.28.22.23.51.25.79.28.15.17.35.22.57.22h0c.15.15.39.09.54.24.06.04.13.06.2.04.13.05.24.14.34.23h.02c.13.19.37.14.52.26h.02c.11.21.29.28.49.31.1.08.19.16.29.24.16.31.41.51.75.6.09.08.18.16.28.25.16.6.66.93,1.05,1.35.04.21.1.4.28.53.31.58.36,1.2.32,1.83-.04.07-.06.14-.06.22-.17.15-.22.35-.23.56-.07.02-.15.05-.22.07-.1-.08-.18-.18-.22-.3-.04-.19-.04-.37,0-.56-.43-1.22-1.47-1.94-2.3-2.84-1.04-.86-2.3-1.26-3.53-1.72-.1-.05-.19-.11-.28-.17-.04-.03-.08-.06-.13-.09-.17-.11-.35-.15-.56-.13-.1,0-.2,0-.3-.02-.15-.03-.3-.07-.45-.1-.21-.05-.42-.1-.55-.29Z"/>
  <path class="st6" d="M26.41,42.88c.48-.05.61.58,1.08.53.62.65.7,1.52.93,2.33.22.7.28,1.41.14,2.14-.22.74-.79.99-1.5,1.06-.15-.01-.28-.07-.38-.18.13-.34.29-.74-.33-.61-.42.09-.84.08-1.26.1.01-.07.03-.14.05-.21.08,0,.14-.03.2-.08.33-.08.66-.18.99-.25,1.08-.22,1.08-.21.66-1.38-.01-.37-.04-.75-.29-1.05-.06-.45.05-.94-.27-1.34,0-.35-.02-.71-.02-1.06Z"/>
  <path class="st5" d="M25.34,79.62c.04-.21.07-.55.32-.48.63.19.68-.44,1.03-.63.65.76,1.42,1.16,2.47.9.52-.13,1.34-.02,1.47.38.5,1.54,2.18,1.66,3.06,2.75.63.77,1.76,1.24,2.77,1.02,1.5-.33,2.33.41,3.14,1.41-.01.08-.03.16-.05.23-.3,0-.6-.01-.81.26-.54.06-1.12-.13-1.61.25-1.07,0-2.13.01-3.2.02,0,0-.12-.01-.12-.01,0,0-.12.01-.12.01-.3-.32-.71-.24-1.08-.29-.21-.26-.51-.24-.79-.28-.1-.08-.2-.15-.3-.23h0c-.13-.17-.41-.09-.53-.28h0c-.12-.06-.19-.16-.28-.26h0c-.25-.46-.65-.78-1.05-1.09-.02-.22-.09-.4-.28-.52-.07-.57-.04-1.19-.79-1.36-.76-.39-1.56-.66-2.4-.81-.1-.08-.2-.16-.29-.24-.18-.25-.37-.51-.55-.76Z"/>
  <path class="st69" d="M21.6,51.46c-.06.71-.85,1.35-.22,2.15.09.11-.13.4-.33.51-.46.23-.52.66-.54,1.1-.39-.39-.2-.87-.2-1.32.32-.49.4-1.05.54-1.6.18-.13.24-.32.29-.52.07-.1.14-.2.22-.3.08-.02.16-.02.25-.02Z"/>
  <path class="st119" d="M29.37,28.69c.54-.91,1.23-1.65,2.22-2.08.28-.12.67-.24.63-.6-.08-.69.5-.73.82-1.03.34.22-.06.38.03.64.98-.11,1.89-.42,2.73-.96,1.17-.8,2.3.09,3.45.11.33,0,.76.11.92.21-1.5-.18-3.05-.96-4.76-1.09-.26-.02-.52-.09-.69-.33.2-.56-.19-1.02-.3-1.52-.08-.12-.08-.24,0-.36.96-.14,1.52.99,2.5.78.45.01.87.17,1.31.22,1.08.25,2.3-.31,3.3.54.1.09.27,0,.36-.08.72-.77,1.67-.46,2.51-.48.93-.02,1.87.39,2.78-.21.21-.14.49.13.68.32.3.16.54.32.24.71-.39.51-.27.92.33,1.13.43.15.63.42.67.86-.3.12-.38-.15-.55-.26-.15-.1-.27-.25-.47-.17-.27.11-.23.36-.2.57.04.34.25.65.07,1.03-.1.22.66.99.91.93.12-.03.07-.33.29-.38,0,.84,0,.83-.74,1.12-.46.19-.47.62-.36.98.43,1.35.07,2.74.22,4.1.01.11-.1.24-.15.36.15.17.15.34.04.53-.06.04-.13.06-.19.07-.03,0-.04.02-.04,0,.05-.17.27.08.1.03.14.02.27.05.36.18,0,.09,0,.18,0,.27-.4.65-1.18.74-1.75,1.16-.47.35-1.03-.08-1.23-.49-.45-.96-1.3-1.54-1.91-2.33-.05-.11-.07-.23-.07-.36.07-.23.04-.45-.13-.64-.84-1.3-.28-2.77-.51-4.15-.01.03-.03.06-.04.09-.81,2.82.79,5.53.36,8.33,0,.66-.04,1.32.07,1.97.01.13,0,.26-.04.39-.25.56-.75.22-1.14.28.51,1.24.29,1.92-.94,2.75-.33.22-.64.43-.92.72-.61.63-1.3,1.17-1.05,2.21.05.22-.2.37-.41.46-1.02.04-1.96.31-2.79.92-1.22-.9-1.45-2.13-1.18-3.53-.23-.47-.04-1.21-1.12-.99-.93.19-1.65-.94-1.79-1.52-.34-1.45-1.44-1.35-2.37-1.6-1.18-.31-1.25-.35-.64-1.43.28-.48.34-1.13.95-1.39,1.57-.3,3.19,0,4.76-.48,1.54-.47,3.09-.87,4.33-1.65-1.55.86-3.37,1.46-5.27,1.74-1.89.29-3.81.35-5.7-.07-.35-.6.09-.83.52-.84.8-.03,1.4-.45,2.03-.84,1.21-.47,2.49-.67,3.72-1.06,1.64-.52,3.07-1.42,4.41-2.45.72-.55,1.22-1.23.84-2.3-.38-1.07-1.15-1.28-2.09-1.22-2.23.15-4.38.65-6.36,1.74-.47.26-.91.79-1.57.4Z"/>
  <path class="st108" d="M34.71,23.58c.71.02,1.55-.21,2.09.11,1.22.71,2.67.6,3.86,1.29.22.13.4.32.57.58-1.79-.5-3.58-.91-5.44-.89-.71-.54-1.46-.17-2.19-.08-.08-.34.27-.45.3-.71.27-.1.54-.2.81-.3Z"/>
  <path class="st110" d="M34.49,21.74c-.03.11-.05.21-.08.32-.07-.02-.15-.05-.22-.07.08-.47-.03-.9-.25-1.32h-.01c.23-.23.02-.59.25-.82h0c.26-.19.25-.49.32-.76.08-.1.16-.19.24-.29,0,0-.02,0-.02,0,.08-.1.16-.2.26-.29h0c.09-.08.16-.18.22-.28,0,0,.03-.04.03-.04.19-.08.28-.24.34-.42.32-.11.58-.28.71-.61,0,0,.02-.02.02-.02.1-.07.19-.15.27-.24h0c.09-.08.17-.08.26-.01-.02.71-.21,1.34-.85,1.76-.35.23.03.44.06.66-.05.82-.63,1.41-.94,2.11-.15.22-.44.17-.64.31Z"/>
  <path class="st34" d="M25.18,36.72c.19.01.35.08.44.26h0c-.1.12-.2.22-.29.33-.08-.02-.15-.04-.23-.07.03-.18.06-.35.09-.53Z"/>
  <path class="st34" d="M25.09,35.39c.04.06.09.11.12.17,0,.01-.05.05-.07.08-.06-.08-.07-.16-.04-.25Z"/>
  <path class="st34" d="M25.15,36.2c.03.05.06.11.08.16,0,.02-.04.05-.07.07-.05-.08-.05-.16-.01-.24Z"/>
  <path class="st83" d="M66.85,81.59c0-.09.02-.17.03-.26.1-.88.1-.88-.7-.76-.5.07-1.02.25-1.45-.19.1-.08.17-.19.27-.27h0c.12-.32.2-.68.62-.69-.04.01-.06.02-.1.02-1.33.41-1.04-.6-1.13-1.28,0-.13.04-.24.14-.32,1-.28,2.02-.07,3.03-.04,1.86.06,3.05-.87,3.14-2.69.05-.92-.63-1.51-1.39-1.95-.34-.2-.8-.13-1.11-.42-.1-.07-.19-.16-.26-.25-.07-.1-.1-.22-.09-.34.05-.11.12-.2.22-.27.15-.1.3-.16.48-.19.11,0,.21.05.3.12.04.43.49.34.7.55,0,0,0,0,0,0,.53.36,1.06.72,1.59,1.08.04.21.11.39.31.5.07.11.13.22.2.33.05.69.43,1.32.38,2.03-.2.95-.61,1.68-1.5,2.25-1.19.75-2.14,1.83-3.09,2.87-.1.08-.21.15-.31.23-.08-.01-.16-.03-.24-.07Z"/>
  <path class="st9" d="M67.4,81.43c.11-.59.37-1.05.91-1.39.89-.56,1.3-1.78,2.55-1.88.05,0,.14-.11.15-.17,0-.75.72-1.09,1-1.68.07.02.15.05.22.06,0,.63-.05,1.25-.28,1.85-.39.27-.75.56-.8,1.08h0c-.07.11-.15.2-.25.29h0c-.09.09-.18.18-.27.26h0c-.1.08-.2.15-.3.23-.21.03-.41.08-.52.28-.1.08-.19.16-.29.24-.2.04-.39.11-.51.29-.39.1-.77.25-1.07.54-.17,0-.35,0-.52,0Z"/>
  <path class="st61" d="M51.59,81.72c0,.08-.01.15-.03.23-.71.12-1.48-.16-2.15.28,0,0-.11,0-.11,0l-.11.03c-.26,0-.52.02-.78.02-.02-.07-.05-.13-.07-.2.55-.72,1.31-.72,2.1-.61.14.05.25.13.35.23.27,0,.53.01.8.02Z"/>
  <path class="st32" d="M77.36,35.96c.07.08.14.15.21.23.09.09.17.18.26.27.11.63.63.96,1.03,1.37.03.21.09.4.27.53.01.17.03.33.04.5-.93-.04-1.6-.63-2.26-1.15-.54-.42-.54-.98-.09-1.52.09-.16.2-.3.39-.34.05.03.1.07.15.1Z"/>
  <path class="st61" d="M39.59,84.96c-.28-.03-.46-.25-.68-.37-.78-.43-1.47-1.35-2.53-.6-1.22-.37-2.67-.27-3.33-1.73-.18-.4-.61-.53-1.02-.52-.64,0-.93-.28-1.13-.89-.37-1.12-.85-1.31-2.08-.99-.67.17-1.2-.21-1.76-.41-.39-.14-.36-.57-.36-.93.42.01.86-.01,1.02-.46.29-.81.99-1.09,1.66-1.42,1.34,1.01,2.95,1.52,4.28,2.66,1.02.87,2.38,1.64,3.85,1.93.87.17,1.71.44,2.49.88,2.48-.12,4.99.55,7.42-.38.13,0,.25.03.37.07.24.09.44.24.59.44,0,0,.04.05.04.05-.02.07-.03.15-.05.22-.29,0-.59,0-.81.25-.08,0-.16.02-.24.05-.22,0-.42.04-.55.23-.29.02-.6,0-.81.26-.29.01-.6,0-.81.26-.08,0-.16,0-.24.03-.3,0-.6,0-.82.26-.61-.04-1.15.11-1.62.52-.68,0-1.31.19-1.9.54,0,0-.11,0-.11,0l-.11.02c-.25,0-.51.02-.76.03Z"/>
  <path class="st72" d="M74.31,62.66c-.08.1-.16.19-.24.29-.2.11-.27.31-.29.52-.47.44-.73.98-.78,1.63-.18.13-.24.32-.27.53-.32.18-.5.45-.52.82-.08.02-.15.03-.23.05-.98-.49-1.37-1.14-.59-2.12.1-.14.2-.29.29-.44.06-.1.13-.2.2-.29.08-.09.17-.17.26-.24.1-.06.21-.12.32-.16.71-.47,1.19-1.12,1.55-1.89.17-.37.3-.91.92-.51-.01.17-.03.34-.04.51-.37.36-.49.83-.57,1.31Z"/>
  <path class="st38" d="M24.55,78.24c.21.12.27.32.26.54-.09,0-.17,0-.26,0,0-.18,0-.36,0-.54Z"/>
  <path class="st34" d="M25.63,37.81c-.01.29-.02.57-.04.86-.07-.03-.15-.06-.22-.09,0-.26.01-.52.02-.78.07,0,.14,0,.21,0l.02.02Z"/>
  <path class="st102" d="M51.84,21.18c.52.09.87-.15,1.01-.63.21-.68.68-.55,1.16-.44.28.16.62.24.8.54.45,1,.35,1.24-.61,1.06-.72-.14-.73.23-.79.69,0,.31.11.71-.08.92-.83.91-.48,1.62.17,2.45.4.51.06.97-.62.88-.63-.08-.87.11-.62.71.27.63-.26,1.09-.37,1.62-.14.67-.65.32-.98-.03-.29-.83-.25-1.65.04-2.47.15-.42.28-.85.08-1.3.02-.52.04-1.04.06-1.57.26-.32.24-.71.25-1.08.35-.39.2-.89.26-1.34.07-.02.14-.03.21-.03Z"/>
  <path class="st55" d="M51.05,25.2c.46.05.68.34.43.71-.63.96-.46,2-.42,3.04.39,1.66.28,3.28-.4,4.85-.11.07-.23.12-.36.14-.07,0-.13,0-.2-.01-.06-.02-.12-.05-.18-.07-.23-.15-.29-.42-.46-.62.15-.91.7-1.74.51-2.71-.06-.92.28-1.79.43-2.68.07-.43.19-.84.18-1.28.31-.4.24-.88.26-1.33.07-.02.14-.04.21-.05Z"/>
  <path class="st32" d="M79.41,42.58c-.07.02-.14.05-.21.07-.14-.06-.25-.14-.35-.25-1.23-1.38-1.05-2.34.48-2.68.14.05.26.13.36.24h-.01c0,.52,0,1.04.01,1.57-.32.29-.23.69-.29,1.05Z"/>
  <path class="st26" d="M73.8,54.97c.02.07.04.15.06.22l-.08.04c-.98.55-1.12-.06-1.15-.83-.54-.91-.49-1.64.56-2.18.63-.33.88-.96.81-1.68-.01-.1,0-.21.02-.3.04-.1-.04-.15-.1-.05-.31.5-.4,1.4-1.16,1.2-.82-.21-.22-1.08-.41-1.71-.61.4-.99.39-1.16-.48-.19-1-2.57-2.46-3.81-2.58.9,1.01-.29,1.52-.64,2.22-.85-.12-.4-1.19-1.07-1.45-.09-.07-.16-.15-.21-.24,0-.21.04-.41,0-.62.02-.17.12-.3.23-.43.11-.13.23-.26.35-.39,1.61-1.12,3.32-1.38,5.13-.54.29.14.59.31.87.26,1.5-.27,2.01.96,2.87,1.85.17-1.06,1.04-1.69,1.45-2.61.2-.46.64-.49.98-.12.22.23.45.42.69.61.04.05.07.1.1.16-.1.26-.2.52-.3.78-.21.11-.28.29-.3.51-.21.12-.25.32-.27.54-.36.26-.54.61-.57,1.05-.19.13-.25.33-.26.54-.18.13-.25.32-.26.54-.26.23-.47.48-.48.85-.18.13-.26.31-.29.52-.21.11-.28.3-.3.51-.18.14-.23.34-.24.56-.19.13-.24.33-.26.54-.3.19-.47.46-.53.81-.22.12-.27.31-.27.54-.19.13-.25.33-.25.55-.37.41-.44.73.24.83Z"/>
  <path class="st143" d="M71.96,63.78c0,.09,0,.18,0,.27-.1.08-.17.19-.26.27-.1.19-.18.4-.29.58-.31.49-.31.83.35,1.01.2.05.19.37.23.58,0,.16-.02.33-.03.49-.19.11-.27.29-.33.49-.3.21-.47.49-.48.85-.2.11-.27.3-.3.51-.19.12-.25.31-.29.51-.07.02-.15.03-.22.03-.71-1.42-.34-2.85-.02-4.28.43-.9.81-1.83,1.5-2.57.32-.34.64-.74,1.2-.68.45.89-.42,1.16-.79,1.66-.1.08-.18.18-.27.27Z"/>
  <path class="st49" d="M70.62,64.85c-.28,1.5-.3,3.01-.28,4.52,0,.1,0,.19,0,.29-.2.1-.28.29-.31.5-.32.18-.46.48-.51.83-.19.11-.27.29-.31.49-.08.09-.16.18-.25.28-.08,0-.16.03-.23.07-.1.01-.19.03-.29.04-.09.05-.17.12-.25.19-.09,0-.18.02-.27.03-.06.03-.11.05-.17.08-.06-.02-.12-.04-.18-.06-.41-1.26.24-2.3,1.66-2.48-.65-.53-.45-1.09-.15-1.64.27-.38.44-.79.31-1.25-.23-.8.11-1.37.69-1.86.05-.03.11-.06.16-.1.06-.01.12-.02.19-.03.06.03.11.06.17.09Z"/>
  <path class="st26" d="M78.65,44.49c-.26.2-.29.49-.29.78-.07.02-.14.03-.22.05l-.06-.05c-.32-.3-.65-.59-.64-1.09.2-.51.63-.59,1.1-.57.05.04.1.08.16.11-.02.26-.04.51-.05.77Z"/>
  <path class="st48" d="M79.44,39.67c.04.08.05.17.04.26-.5,0-1,.05-1.07.69-.05.5-.18,1.06.53,1.27.19.06.19.27.22.44-.11.19-.25.5-.44.45-.86-.26-.42.6-.72.8-.7.28-1.34.11-1.95-.26-.2-.19-.16-.4-.02-.58.21-.26.48-.41-.14-.56-.46-.1-.22-.57-.06-.88.21-.23.51-.33.74-.54.59-1.16.49-1.99-.42-2.85-.45-.42-.92-.83-1.44-1.17-.1-.06-.2-.14-.3-.21-.85-.87-2.02-1.02-3.09-1.41-.42-.09-.9-.35-1.17.2-.22.45-.25.96.05,1.4.4.6.97,1.02,1.52,1.47,1.04.86,2.41,1.34,3.08,2.64-.07.77-.4,1.32-1.22,1.47-2.38-.57-5.79-4.22-6.14-6.54-.17-1.17.35-2.08,1.6-2.78.71-.17,1.4,0,2.09.16,2.13.7,4.25,1.43,5.91,3.05.03.08.11.19.09.25-.38.85-.15,1.32.79,1.46.27.04.4.1.47.33.12.39.49.47.79.65.04.06.06.12.05.19.12.19.04.44.21.61Z"/>
  <path class="st32" d="M79.44,39.67c-.24-.15-.26-.37-.21-.61.08.03.15.05.23.08,0,.18,0,.36-.01.53Z"/>
  <path class="st7" d="M78.11,43.4c-.12-.19-.23-.37-.4-.65.46-.28,1.08-.01,1.46-.43.01.11.02.21.04.32-.02.15-.05.31-.07.46-.2.14-.24.33-.24.56-.07.02-.13.03-.2.05l-.11-.04c-.14-.12-.39-.05-.48-.27Z"/>
  <path class="st32" d="M77.56,35.9c-.07.02-.14.04-.2.06,0,0-.08-.07-.08-.07-.1-.1-.17-.22-.2-.36.03-.72.06-1.45,1.06-1.48-.02.17-.03.34-.05.51-.27.2-.28.49-.3.78-.18.15-.22.35-.22.57Z"/>
  <path class="st96" d="M78.13,34.05c-.66.34-.81.95-.84,1.61-.63.13-1.01-.16-1.21-.74.2-.93.35-1.88,1.27-2.45.2-.13.06-.41.11-.62.28-.64.87-.97,1.39-1.37.12-.04.23-.01.33.07.01.11.02.22.03.32,0,.25-.02.5-.03.75-.27.19-.29.48-.31.77-.26.21-.25.51-.28.79-.25.22-.23.52-.25.81-.07.02-.14.03-.21.04Z"/>
  <path class="st50" d="M72.22,63.51c-.04-.69.85-.92.8-1.61-.26-.77.17-1.11.81-1.33.45-.04.85-.35,1.33-.28-.01.17-.02.34-.04.5-.07.01-.14.03-.2.05-.18.02-.41.01-.46.2-.24.77-.76,1.34-1.2,1.99-.34.51-.64.44-1.04.48Z"/>
  <path class="st38" d="M24.81,78.78c.23.12.27.33.24.56-.08,0-.16-.02-.24-.02,0-.18,0-.36,0-.54Z"/>
  <path class="st130" d="M57.23,19.57c-.22,0-.42-.04-.54-.25.22,0,.42.05.54.25Z"/>
  <path class="st45" d="M53.2,22.26c-.35-.3.16-.42.14-.66-.04-.68.28-.62.72-.36.23.14.36.6.74.28.31-.27-.05-.57,0-.86.09,0,.18.01.28.02.09.08.17.16.25.24h0c.14.16.39.11.53.27h0c.14.17.39.1.53.27.09,0,.18.01.28.02.09.08.18.16.27.24.64-.1,1.22.19,1.82.33,1.88.42,3.68.3,5.41-.59.13-.17.4-.09.53-.28,0,0,0,0,0,0,.09,0,.19,0,.28,0,.05.49-.27,1.16.61,1.25,0,0-.01.16,0,.25.1,1.01.72,1.84,1,2.79.09.07.15.16.2.26.05.15.07.31.09.47.03.25.09.5.21.72.08.13.18.24.3.34.32.23.69.36,1.05.52,1.17.51,2.42.77,3.6,1.23.73.17,1.46.34,2.21.38,1.61.08,2.11-1.07,2.53-2.3.51.01.77.36,1.02.73.33.5.59,1.04,1.25,1.27.42.15.53.57.12.94-.06.03-.12.06-.18.09-.73,1.01-1.76,1.52-2.95,1.58-2.74.14-5.49.24-8.15-.65-3.32-1.47-3.39-1.64-2.15-5.15.01-.11,0-.21-.01-.32-.07-.16-.21-.19-.36-.2-.15,0-.29-.04-.4-.12,0,0-.1.06-.1.06,0,0,.1.05.11.06.24.15.58.16.64.51-.1.4-.03.91-.64.98-1.88-.57-3.61-1.74-5.7-1.52-.18.02.05-.02-.13,0-.48-.11-.99.09-1.46-.15-.2-.45.11-.63.42-.82.7-.43.31-.92.03-1.34-.34-.53-.75-.36-1.08.03-.49.57-1.09.58-1.68.28-.73-.37-1.68-.28-2.19-1.09Z"/>
  <path class="st130" d="M55.89,20.1c-.22,0-.42-.04-.54-.26.22,0,.41.05.54.26Z"/>
  <path class="st130" d="M56.42,20.37c-.09-.08-.18-.17-.27-.25.09.08.18.17.27.25Z"/>
  <path class="st129" d="M66.6,25.74c0-.09,0-.18,0-.27.83-.99,1.94-1.02,3.09-.89.39.05.79.05,1.19.08.26,0,.53,0,.79,0,.09.08.18.16.27.23.09,0,.19,0,.28.01.18-.13.36-.13.53.03h0c.09.08.17.16.27.24,1.29.11,2.29,1.01,3.52,1.32.21.05.22.36.25.58,0,.09,0,.18,0,.27-.02,1.67-.7,2.36-2.42,2.4-.84.02-1.64-.19-2.41-.52.03-.06.05-.11.08-.17,1.1-1.12,1.48-1.14,2.61-.17.09.1-.07.28.02.29.12.02.04-.18.12-.25.13-.19.31-.32.51-.42.3-.16.75-.23.62-.72-.1-.38-.55-.7-.8-.59-.8.36-1.38-.21-2.02-.39-1.22-.35-2.5-.53-3.69-.97-.49-.18-1.01-.29-1.37.11-.34.37-.07.85.09,1.26.07.17.14.33.16.51-.02.06-.04.12-.07.18-.43-.05-.8-.2-1.08-.54-.08-.09-.16-.17-.25-.26-.09-.27-.18-.54-.27-.81.17-.18.16-.36,0-.53Z"/>
  <path class="st70" d="M65.8,21.02c-.05-.6.16-1.04.45-1.65.09.72.05,1.2-.45,1.65Z"/>
  <path class="st102" d="M55.88,21.19c-.22,0-.42-.05-.53-.26.22,0,.42.05.53.26Z"/>
  <path class="st102" d="M56.42,21.46c-.22,0-.42-.05-.53-.26.22,0,.42.05.53.26Z"/>
  <path class="st70" d="M64.72,21.18c-.11.22-.31.27-.53.28.11-.22.31-.27.53-.28Z"/>
  <path class="st102" d="M56.97,21.72c-.09-.08-.18-.16-.27-.24.09.08.18.16.27.24Z"/>
  <path class="st102" d="M55.34,20.92c-.08-.08-.17-.16-.25-.24.08.08.17.16.25.24Z"/>
  <path class="st73" d="M26.69,48.76c.09,0,.18.01.27.02,1.42.1,1.9,1.45,2.86,2.16.88,1.98,1.51,4.04,2.18,6.09.25.75.43,1.52.62,2.29.33,1.34.75,2.63,1.9,3.54.42.33.61.84.41,1.31-.32.75-.43,1.5-.44,2.3-.01.59-.36.8-.83.25h0c-1-1.2-1.35-2.7-1.77-4.13-.25-.83-.72-1.64-.64-2.56-.3-1.39-.59-2.77-1.2-4.12-.75.39-1.42.87-2.09,1.38-1.51,1.15-3.17,1.41-4.98.75.68-.23,1.4-.16,2.09-.34,1.64-.43,2.99-1.32,4.28-2.36.48-.38.44-2.04-.01-2.55-.25-.28-.5-.16-.67.06-1.09,1.37-2.65,1.74-4.25,2.14-.78.2-1.18-.1-1.62-.54-.95-.94-.87-2.3.13-3.01.03.04.06.08.1.12,0,.05.02.1.03.15,0,.21.01.42.04.63,0,.12,0,.23,0,.34.18,1.49.63,1.67,2.42.94.43-.61,1.12-.81,1.73-1.14.52-.28,1.25-.38.93-1.28-.29-.8-1.17-1.33-1.99-1.1-.72.2-1.34.68-2.11.7-.13-.02-.24-.08-.33-.17.83-.55,1.49-1.39,2.57-1.55.14-.02.26-.22.38-.34Z"/>
  <path class="st74" d="M31.24,60.03c.08.1.21.19.24.3.55,2.19,1.55,4.23,2.17,6.39-.87.6-.34,1.42-.27,2.11.07.73.1.83-.63.58-.79-.27-1.49.12-2.23.17-.42.02-.34.55-.35.89-.3.33-.67.34-1.07.27-.96.21-1.21.01-.91-.83.36-1.03.81-2.03,1.24-3.03.11-.26.24-.49-.05-.7.85-.15,1.13-.98,1.71-1.46.18-.15.19-.41.16-.62-.08-.45.07-.82.21-1.24.12-.36.4-.98-.4-1.14-.21-.04-.14-.24-.04-.42.19-.33-.11-.68-.02-1.02.09-.09.18-.18.27-.27Z"/>
  <path class="st142" d="M23.74,50.65c.09,0,.18,0,.27,0,.22.94-.15,1.28-1.07,1.07,0-.09,0-.18,0-.27.18-.36.45-.62.8-.8Z"/>
  <path class="st69" d="M25.08,66.45s.11.05.11.06c-.02.09-.06.07-.11-.06h0Z"/>
  <path class="st117" d="M29.64,76.36c0-.09,0-.18,0-.27.8-.41,1.25-.92.99-1.94-.17-.66.79-1.49,1.63-1.54.65-.04,1.32.1,1.93-.27.41.37-.11.98.43,1.41.16-.61-.02-1.04-.43-1.41.59-.22.74-.84,1.14-1.22.17-.16.14-.32.02-.45-.77-.91-.6-2.17-1.17-3.16.79-1.09,1.56-.32,2.34.03,1.33.28,2.33,1.22,3.51,1.79.21,1.44-.97,2.33-1.4,3.51-.18.4-.43.8-.07,1.24.08.09.14.18.21.28.41.72,1.01,1.22,1.76,1.58.29.14.89.17.56.79-.3.18-.62.19-.95.14-.58-.12-1.13-.34-1.68-.55-.56-.21-1.1-.26-1.62.13-1.47,1.23-3.18,1.16-4.93.95-.81-.24-1.7-.32-2.26-1.07Z"/>
  <path class="st74" d="M36.33,67.79c-.66-.49-1.37-.64-2.15-.27-.35-.15-.54-.42-.53-.8.27.07.85.22.59-.19-.4-.64.4-1.21-.12-1.75-.1-.1.17-.15.24-.24.49-.57.53-1.07,0-1.44-1.29-.88-1.64-2.25-2.04-3.61.62-.11.75.41,1,.78,1.03,1.9,2.28,3.55,4.48,4.19.12.04.18.18.2.32-.76.64-1.87,1.1-1.07,2.47.18.31.08.88-.59.55Z"/>
  <path class="st40" d="M29.09,70.74c.28-.39.7-.23,1.07-.27.33.45.24,1,.36,1.5.22.92.15.96-.89.64-.49-.53-.62-1.17-.54-1.87Z"/>
  <path class="st91" d="M32.74,70.68c-.02.25-.2.28-.37.3-.36.03-.59-.15-.65-.5-.04-.27.19-.26.35-.26.33,0,.6.1.67.46Z"/>
  <path class="st30" d="M29.64,76.36c.71.26,1.43.52,2.14.78.41.43.9.19,1.38.17.82-.03,1.67.18,2.2.76.92,1,1.91,1.77,3.3,1.9.25.03.47-.07.7-.14,1.21.14.7,1.17.93,1.82-.05.29-.19.51-.48.6-1.05-.24-2.01-.82-3.13-.82-.17,0-.42-.04-.48-.15-.58-.99-1.7-.99-2.57-1.43-.15-.08-.41-.06-.44-.24-.23-1.42-1.66-1.16-2.48-1.75-.5-.37-.99-.71-1.34-1.22.09-.09.18-.18.27-.27Z"/>
  <path class="st10" d="M50.79,81.71c-.09,0-.18,0-.27,0-.32-.18-.66-.29-1.01-.18-.44.14-1.03.15-1.29,0-1.07-.62-1.79-.32-2.52.52-.23.27-.67.17-.88-.23-.23-.43-.71-.67-.85-1.16-.1-.33-.01-.63.18-.9,1.19-.6,2.44-.09,3.65-.18,1.13.44,2.07-.25,3.06-.55,1.1-.33,1.36-.25,1.16.86-.19,1.06.39.3.62.36.12,0,.21.08.3.15.02-.1-.14-.08-.12-.18-.55-1.34-.54-1.37.46-1.68,1.19.31,2.38.23,3.44-.33.57-.3,1.01-.42,1.61-.22,1.08.37,2.2.19,3.31.11.56-.04,1.09-.09,1.27.63-.03.63-.5.97-.87,1.39-.17.23-.3.22-.5,0-.65-.73-.73-.76-1.28-.05-.58.74-1.38.56-2.04.46-.61-.09-1.23.1-1.83-.11-.15-.05-.63-.28-.49.4.05.26-.51.33-.79-.07-.37-.5-.64-.55-.55.21.03.22-.08.2-.21.22-.81.1-1.58.42-2.43.31-.38-.05-.81-.12-1.12.24Z"/>
  <path class="st59" d="M62.04,80.12c0-.6.43-.96.8-1.34.03-.05.06-.1.09-.16.2-.21.44-.38.66-.57.09-.07.18-.12.28-.16.16-.02.29,0,.39.14.13.05-.14.21.07.23,0,0,.12-.03.12-.03.82.13,0,.64.29,1,.26.18.67.02,1.05.07h0c-.27.27-.53.54-.8.8-.57-.51-.89.21-1.34.27-.5-.32-1.05-.28-1.61-.27Z"/>
  <path class="st59" d="M64.99,80.11c-.09.09-.18.18-.27.27.09-.09.18-.18.27-.27Z"/>
  <path class="st77" d="M69.81,57.88c-.53.72-1.07,1.43-1.6,2.15.1,1.07-.63,1.66-1.31,2.28-.34.14-.82.24-.99-.06-.57-1-1.39-.65-2.21-.55-1.11.13-2.15-.02-3.01-.86-.4-.39-1.03-.26-1.41-.54-.62.25.38,1.33-.67,1.11-.47-.1-1.54-.13-.95-1.23.2-.38-.35-.32-.38-.58-.27-.7-.12-1.39.05-2.08.42-1.75.72-3.53,1.15-5.28.26-.37.26-.91.75-1.13.7.08,1.18.3,1.02,1.18-.13.71.46,1.32.44,2.04.42-.27.42-1.16,1.15-1.01.83.17.97,1.01,1.16,1.65.26.88.41,1.75,1.57,1.81.12.03.24.09.34.15.1.08.17.18.21.3.04.44.31.56.71.59.91.05,1.82.1,2.73-.04.41-.06.85-.28,1.23.1Z"/>
  <path class="st22" d="M69.81,57.88c-.79.07-1.59.17-2.34.35-.7.17-1.28-.3-1.98-.03-.44.17-.67-.38-.5-1.12.65-.15,1.3.05,1.95-.03.54-.06,1.23.05.73-.94-.2-.39.2-1.05.66-.87,1.38.52,2.33-.44,3.45-.8.41-.13.76-.46,1.24-.31,0,.09.02.18,0,.26-.27.77.16.87.77.83.04.54.87.93.31,1.59-.47-.12-.49-.83-1.06-.81-.24-.29-.52-.49-.91-.34-.67.26-1.32.59-1.65,1.26-.18.37-.39.67-.66.95Z"/>
  <path class="st121" d="M73.84,60.57c-.48.32-.59.86-.81,1.33-.72.55-1.42,1.1-1.72,2.03-.11.35-.45.62-.68.93h0c-.15-.19-.37-.27-.53-.44-.07-.1-.09-.22-.07-.34.29-.67,1.01-1.14.93-2.06-.87.01-.52,1.4-1.42,1.26-.66-.1-1.5.15-1.74-.84.16-.79.39-1.54,1.24-1.87.11-.14.23-.26.32-.41.55-.9.57-.94,1.39-.26.94.78,2.01.77,3.11.68Z"/>
  <path class="st94" d="M69.01,60.56c-.43.58-.77,1.22-1.07,1.87-.5,1.63-1.65,2.87-2.53,4.27-.1.08-.21.12-.33.15-.51-.19-1.01.42-1.52,0-.15-.82.52-1.27.9-1.8.73-1.01,1.3-2.18,2.4-2.89.45-.71.9-1.43,1.35-2.14.39,0,.78,0,.8.54Z"/>
  <path class="st137" d="M73.01,56.01c.17.43.55.76.44,1.32-.29,1.43-1.08,1.78-2.56,1.08-.07-.2-.46-.31-.33-.51.4-.58.85-1.12,1.32-1.65.3-.34.74-.24,1.13-.24Z"/>
  <path class="st139" d="M34.49,21.74c.08-.24.29-.27.5-.28.94-.16,1.86.53,2.86.03-.42-.81-2.6-.39-1.53-2.17.17-.09.34-.18.51-.27.78.9,1.73,1.14,2.88.87,1.08-.25,2.2-.19,3.29-.53,2.2-.69,2.21-.65,2.43-2.76.75-.54,1.5-.23,2.26,0,.37.12.43.41.42.73-.02.49,0,.97.27,1.41-.41.81.02,1.46.46,2.05.36.48.37.65-.28.73-.72.09-.5.8-.71,1.23-.57-.28-1,.05-1.45.32-.25.15-.52.55-.8.25-.81-.87-1.84-.05-2.74-.42-.32-.13-.59.73-1.19.71-.25,0-.28.08-.47-.38-.06-.15-.1-.19-.23-.19-.92,0-1.84-.02-2.76-.03.11-.74.71-.5,1.13-.52,3.4-.23,4.96-.67,7.06-2.05-2.7,1.54-5.64,2.1-8.71,2.07-.3,0-.63-.13-.82.24-1.02.17-1.62-.62-2.37-1.06Z"/>
  <path class="st93" d="M43.57,32.97c.4.33.77.74,1.22.96.41.2.57.3.5.84-.08.58.64.73,1.01,1.07.04.04.23.01.24-.02.32-.89,1.26-.6,1.84-.97,0,.39,0,.78.54.8.56.68.08,1.34-.06,2-.11.56-.33,1.1-.38,1.67-.04.41-.13.81-.36,1.16-.38.65-.86.68-1.39.19-.55-.52-1.32-.69-1.94-.56-.9.19-1.09-.23-1.27-.88-.15-1.63-.03-3.28-.31-4.9-.08-.47-.05-.98.35-1.36Z"/>
  <path class="st134" d="M48.12,39.4c.05-.8.31-1.56.55-2.32.15-.47.29-.93.25-1.43h0c.09-.08.18-.17.26-.27-.12-.74.27-1.42.28-2.14.25.1.43.28.53.53.09,0,.18,0,.27,0,.58.67.15,1.37.07,2.05-.02.14-.06.27-.1.41-.48,1.1-.25,2.44-1.12,3.41-.43.33-.59-.45-.99-.24Z"/>
  <path class="st93" d="M47.85,34.31c.22-.12.26-.32.27-.54.31.19.26.51.26.8-.22,0-.42-.05-.53-.27h0Z"/>
  <path class="st93" d="M49.18,35.38c-.09.09-.17.18-.26.27.09-.09.17-.18.26-.27Z"/>
  <path class="st75" d="M45.44,16.63c.01.09.02.18.04.26.1.41.69.69.4,1.18-.31.54-.73,1.05-1.35,1.21-1.27.32-2.49.93-3.86.84-.79-.05-1.54.37-2.36.26-.95-.13-1.23-.34-1.48-1.34.39-1.3,1.23-1.96,2.61-2.18.93-.15,1.87-.44,2.78-.73,1.22-.39,2.22-.14,3.21.5Z"/>
  <path class="st119" d="M36.33,19.32c-.24.73-.02,1.19.75,1.36.26.06.5.22.76.22.55,0,.51.39.52.72.02.39-.31.36-.56.37-.97.03-1.95.09-2.8-.53.03-.88.54-1.51,1.07-2.14.09,0,.17,0,.26,0Z"/>
  <path class="st71" d="M29.37,28.69c.56-.03.98-.42,1.42-.67,2.35-1.36,4.87-1.86,7.55-1.75.52.02.79.29,1.02.71.86,1.53.66,2.45-.75,3.51-1.99,1.49-4.21,2.45-6.62,2.99-.52.12-1.04.21-1.56.31-.88.45-1.77.6-2.56-.16-.85-.81-.85-1.78-.39-2.79.63-.71,1.25-1.42,1.88-2.14Z"/>
  <path class="st144" d="M27.49,30.83c0,.09,0,.17,0,.26.01,2.43.56,2.92,2.95,2.69-.57.6-1.15,1.17-2.11.88-.28-.08-.44.21-.56.45-.83.52-1.34-.05-1.87-.54.09-.18.18-.35.26-.53-.59-.65.54-1.01.27-1.61.27-.59.62-1.13,1.07-1.6Z"/>
  <path class="st34" d="M26.42,32.44c.1.28.46.19.64.48-.27.39-1.12.36-.91,1.13-.28-.16-.62-.23-.8-.53.02-.18-.16-.36,0-.53.09,0,.18,0,.27,0,.18-.18.22-.49.54-.54.09,0,.18,0,.27,0Z"/>
  <path class="st144" d="M26.15,32.44c-.1.26-.28.44-.54.54,0-.44-.36-.82-.24-1.29.64-.14.81.2.78.75Z"/>
  <path class="st58" d="M28.04,45.83c.02-.85-.57-1.56-.54-2.41-.12-1.21-.2-2.43-.9-3.49-.07-.1-.11-.27-.07-.37.38-1.05-.12-2.07-.1-3.1.45-.3.93-.2,1.42-.12.76.12,1.25.26.75,1.25-.49.98.03,1.6,1.16,1.48.82-.09,1.53-.29,1.41.99-.05.56.69.44.99.74.34.35.78.58,1.19.84.1.08.16.17.17.3-.04.35-.28.62-.39.95-.04.1-.09.19-.16.27-.07.06-.15.12-.23.16,1.44.39,1.47.49.5,1.71-.22.27-.31.64-.61.85-1.53-.02-3.05-.17-4.58-.05Z"/>
  <path class="st34" d="M32.58,43.15h.27c.07-.06.09-.12.07-.18-.02-.06-.05-.09-.07-.09,0-.39.18-.65.53-.81.07-.06.09-.12.07-.18-.02-.06-.04-.09-.07-.09-.94-.36-1.68-1.18-2.72-1.15-.2-.3-.03-.47.09-.65.16-.23.31-.48.08-.72-.25-.26-.45-.04-.68.11-.49.33-1.02-.35-1.53.02-.29-.51-.56-1.02-.35-1.63.11-.32.24-.64.38-1.01-.77-.12-1.5-.23-2.23-.34,0-.22-.05-.42-.27-.54h0c-.02-.18-.3-.36,0-.54,1.21-.15,2.37.07,3.48.54-.3.53-.26,1.21-.79,1.64-.15.12-.29.37-.13.59.16.23.41.16.59.03.3-.2.53-.35.67.15.05.2.25.21.44.22,1.24.06,1.24.06,1.4,1.15.04.25.11.44.37.47.43.04.52.22.59.67.09.51.62.7,1.16.56.34-.09.68-.21,1.17-.37-.19.57-.57,1.09-.1,1.58-.5.51-1.14.76-1.82.91-.26.06-.65.15-.59-.37Z"/>
  <path class="st140" d="M29.63,35.92c-1.22.2-2.33-.3-3.48-.54,0-.3-.59-.4-.27-.81.66.05,1.16.65,1.87.54,1.42,0,2.84.03,4.26,0,2.39-.06,4.6-.8,6.72-1.86.35-.17.66-.44,1.09-.45-.6,1.03-1.22,1.44-2.86,2.06-2.37.9-4.82,1.22-7.33,1.06Z"/>
  <path class="st144" d="M25.35,32.97c.02.18.3.36,0,.53-.27-.18-.28-.36,0-.53Z"/>
  <path class="st34" d="M25.61,37.78c.07-.11.24-.25.27-.18.14.3-.17.13-.25.21l-.02-.02Z"/>
  <path class="st34" d="M26.15,35.92s-.05.11-.06.11c-.09-.02-.07-.06.06-.11h0Z"/>
  <path class="st34" d="M25.62,36.99s.11.05.1.07c-.02.09-.06.07-.11-.06h0Z"/>
  <path class="st17" d="M72.75,24.94c-.18,0-.35-.02-.53-.03.19-.26.36-.25.53.03Z"/>
  <path class="st45" d="M79.18,30.56c-.09,0-.17,0-.26,0-.16-.3-.23-.56.26-.54h0c0,.18,0,.35-.01.53Z"/>
  <path class="st17" d="M71.95,24.9c-.09-.08-.18-.15-.27-.23.09.08.18.15.27.23Z"/>
  <path class="st17" d="M73.02,25.18c-.09-.08-.18-.16-.27-.24.09.08.18.16.27.24Z"/>
  <path class="st107" d="M28.04,45.83c.55-.74,1.29-.49,1.98-.34.46.1.87.28,1.35-.07.51-.37.87.09,1.22.42.26-.26.57-.42.94-.41.31.01.62.35.46.46-.72.49-.29,1.42-.84,1.94-.66.63-.78,1.46-.75,2.33,0,.34-.03.68-.11,1.01-.04.21-.11.41-.12.63-.08,1.4-.37,2.79-.06,4.2.08.38,0,.79-.33,1.09-.62-1.12-.89-2.36-1.29-3.55-.3-.86-.83-1.66-.85-2.61-.66-.88-1.04-1.89-1.32-2.94-.07-.72.12-1.47-.28-2.15Z"/>
  <path class="st62" d="M28.31,47.98c.83.81,1.03,1.9,1.32,2.94-.5-.24-1.03-.36-1.24-1.03-.2-.62-1.04-.62-1.43-1.11.43-.31,1.1-.2,1.35-.8Z"/>
  <path class="st15" d="M35.8,46.1c.69-1.16,1.81-1.13,2.95-1.07,1.41-.26,2.02.81,2.77,1.65.39.44.63.97.95,1.45.48.76.79,1.55.58,2.47-.42.35-.66.05-.82-.28-.35-.75-1.11-1.21-1.31-2.13-.17-.77-3.26-1.83-4.03-1.56-.61.22-.55.65-.28,1.07.68,1.04,1.28,2.07.45,3.31-.1.15-.05.36.11.48.77.57-.05.86-.21,1.27.02.11.01.21-.01.32-.12.21-.29.33-.53.35-.2-.13-.38-.07-.57.04-.6-.69-1-1.5-1.54-2.29-.27.23-.6.71-1.14.89-.12.04-.24.04-.37.02-.12-.04-.23-.09-.33-.16-.15-.12-.25-.26-.23-.46.09-.2.23-.39.33-.59.04-.1.1-.19.15-.28.08-.14.13-.29.14-.46.37-1.79,1.25-3.22,2.95-4.04Z"/>
  <path class="st47" d="M42.22,48.24c-.42-.29-.46-.83-.79-1.18-.78-.83-1.39-1.88-2.69-2.03.14-.08.16-.19.12-.34-.22-.83-.29-1.61.79-1.9.29-1.04,1.47-1.16,2.02-1.98.51-.76.61-.7-.08-1.44-.15-.16-.4-.27-.3-.53.12-.32.44-.2.68-.24.39-.05.59.6,1.05.26.76.69.3,1.63.5,2.43.07.3.17.6.19.91-.14.68.07,1.38-.12,2.05-1.57.6-1.88,1.25-1.3,2.74.16.43.32.84-.07,1.24Z"/>
  <path class="st127" d="M35.8,46.1c-.17.38-.49.62-.82.84-.97.65-1.15,1.87-1.94,2.65-.26.26.47.48.08.8-.08.09-.18.17-.27.27h0c-.08.09-.19.14-.31.14-.4-.05-.28-.48-.49-.67-.05-1.15.16-2.2,1.24-2.85q-.72-.93.59-1.46c-.49-.25-.89.15-1.29.03.18-.51.09-1.17.82-1.38.2-.06.44-.19.32-.47-.1-.22-.33-.3-.56-.25-.26.05-.5.15-.75.22-.35-.24-.18-.61-.17-.85.01-.28.23-.09.34.06.28.37.58.27.89.04.45-.35.93-.61,1.53-.58.26.16.64.37.21.66-.56.38-.48.69-.16,1.18.32.5.51,1.09.76,1.64Z"/>
  <path class="st106" d="M43.56,44.22c-.38-.71-.38-1.43,0-2.14,0-.3-.06-.58-.27-.8-.09-.8-.18-1.61-.27-2.41,0-.09,0-.17,0-.26-.35-.68.1-1.46-.26-2.15-.09-1.32.2-2.67-.21-3.98-.05-.17-.01-.45-.11-.51-.95-.52-.45-1.2-.28-1.89.24-.97.65-1.96.09-3.02,1.01.32,1.1,1.33.97,1.87-.29,1.26.19,2.35.35,3.51.06.06.08.12.06.18-.02.06-.04.09-.06.09,0,.09,0,.18,0,.27.07,2.23.41,4.46.27,6.7.35.81.51,1.65.55,2.52-.01.12-.04.24-.08.35-.32.44-.37.94-.33,1.46-.08.18-.19.29-.4.22Z"/>
  <path class="st81" d="M36.87,22.79c-.1-.14-.2-.27-.38-.54,3.93.13,7.58-.53,10.91-2.6-.72,1.11-1.65,1.91-2.87,2.31-1.77.58-3.58,1.02-5.47.84-.31-.03-.63-.03-.85.26-.46-.03-.86-.34-1.34-.27Z"/>
  <path class="st66" d="M37.57,39.87c0,.14-.09.25-.22.28-.26.07-.53.06-.74-.14-.26-.24-.46-.53-.44-.9,0-.13.13-.21.28-.22.33-.01,1.1.65,1.12.97Z"/>
  <path class="st115" d="M36.88,36.98c.4.04.89-.02.84.45-.05.43-.54.35-.88.35-.3,0-.71.04-.71-.38,0-.52.49-.36.74-.43Z"/>
  <path class="st148" d="M47.03,27.81c-.01.37-.12.58-.45.55-.35-.03-.54-.26-.55-.6,0-.25.18-.37.42-.39.36-.02.57.13.59.44Z"/>
  <path class="st39" d="M33.17,39.14c.28.02.58.09.62.49.02.24-.2.27-.37.28-.34.03-.66-.07-.73-.42-.06-.27.19-.35.48-.35Z"/>
  <path class="st47" d="M42.76,36.45c.53.66.15,1.43.26,2.15-.53-.66-.15-1.43-.26-2.15Z"/>
  <path class="st93" d="M43.57,32.7c0-.09,0-.18,0-.27.1.04.14.11.1.19-.02.03-.07.05-.1.08Z"/>
  <path class="st93" d="M47.85,34.31s-.11-.05-.11-.06c.02-.09.06-.07.11.06h0Z"/>
  <path class="st57" d="M68.2,72.36c.24.08.31.39.66.36.56-.05,1.11.23,1.38.66.34.56,1.19,1.13.96,1.65-.37.85-.49,1.88-1.25,2.52-.63.53-1.46.64-2.25.63-1.08,0-2.16-.14-3.24-.21-.18-.03-.36-.17-.53,0h0c-.77.2-.67-.82-1.25-.89-.12-.02-.22-.06-.32-.13-.4.08.23-.91-.51-.49-.1.06-.27-.03-.36-.12-.4-.41-.47-1.04-.93-1.41-.42.59-.97.52-1.56.32-.11-.05-.22-.12-.31-.21-.17-.84-.76-.68-1.15-.34-.32.27-1.45.06-.81,1.09.25.39.02.69-.35.84-.49.2-.97.22-1.27-.33-.27-.51-.5-1.04-.94-1.44-.08-.09-.14-.19-.18-.3-.1-.23-.1.03-.11.04-.09.15.01-.05-.08.11-.46.23-.83.08-1.18-.24-.04-.52.25-.87.6-1.18.12-.06.25-.1.39-.11.67.05,1.32.21,2,.15,1.72.27,3.09-.53,4.43-1.42.13-.03.27-.03.4-.02.86.33,1.79.5,2.47,1.2.05.25-.1.41-.25.57-.54.58-.44,1.03.29,1.31.59.23,1.03.58,1.47,1.06.58.64,1.44.57,2.13.09.54-.37,1.01-.86,1.45-1.35.4-.44.76-.88.14-1.46-.28-.26-.21-.65.07-.96Z"/>
  <path class="st100" d="M68.2,72.36c.08.3-.2.77.3.87.72.14.57.58.34.96-.23.37-.43.77-.78,1.06-.44.36-.89.71-1.26,1.16-.32.4-.77.6-1.3.35-.34-.16-.68-.14-1.03,0-.15.06-.4.13-.35-.16.15-.95-.63-1.18-1.2-1.25-.69-.08-.94-.43-1.03-.97-.1-.57.25-.89.77-1.05.07-.02.13-.12.19-.18,1.52-.75,3.14-1.02,4.81-1.12v.1c.11.04.2.11.27.2.09,0,.18,0,.27.01Z"/>
  <path class="st59" d="M65.79,79.31c-.03-.08-.07-.15-.1-.23-.06-.15-.16-.31.03-.43.05-.03.19,0,.21.04.05.1.1.24.08.34-.03.11-.14.19-.21.29h0Z"/>
  <path class="st104" d="M63.92,77.97c.18-.28.36-.28.53,0v.27h0c-.09.07-.18.07-.27,0-.09-.09-.18-.18-.27-.27Z"/>
  <path class="st57" d="M68.2,72.07c.04-.12.12-.19.25-.19-.08.06-.16.13-.25.19Z"/>
  <path class="st57" d="M67.94,72.34c-.09-.07-.18-.14-.27-.21.09-.01.18-.03.27-.04,0,.08,0,.16,0,.24Z"/>
  <path class="st14" d="M44.1,80.65c.34.3.89.57.96.92.14.75.47.37.68.18.29-.26.51-.6.75-.92.4-.52.7-.58.96-.06.24.5.43.48.96.47.68-.01,1.55-.27,2.12.46-.76-.01-1.51.05-2.15.53-.22,0-.41-.04-.52-.25h0c-.5-.03-.95.07-1.41.29-1.35.66-2.77.26-4.14.17-.59-.04-1.1-.14-1.63.17-.41.23-.78.24-.85-.36.09-.18.18-.36.27-.54,1.3-.29,2.51-.91,3.87-.98.05-.03.1-.06.15-.09Z"/>
  <path class="st21" d="M76.24,34.85c.19.48.69.56,1.06.81,0,.08,0,.15-.02.23-.08.1-.16.2-.24.29-1.5-.76-2.95-1.61-4.51-2.26-.45-.19-.86-.47-1.38-.42-.22-.17-.5-.33-.19-.65,2.06-.12,3.78.64,5.27,2Z"/>
  <path class="st50" d="M71.96,63.78c.09-.09.18-.18.27-.27-.09.09-.18.18-.27.27Z"/>
  <path class="st50" d="M71.69,64.31c.09-.09.18-.18.26-.27-.09.09-.18.18-.26.27Z"/>
  <path class="st111" d="M49.99,36.19c0-.09,0-.18,0-.27.5-.63.43-1.41.53-2.15.16-.48.44-.91.28-1.48-.17-.58.02-1.19.16-1.76.13-.53.07-1.05.11-1.58.44.11.49.11.5-.31,0-.25.17-.27.28-.38.25-.24.42-.56.13-.81-.49-.42-.14-.79-.02-1.24.39-.08.75.1,1.12.21.13.04.28-.02.32-.15.03-.11.03-.33-.03-.36-.5-.3-.9-.64-.78-1.31-.16-.02-.33-.05-.68-.1.97-.54,1.37-1.29,1.31-2.26.79.28,1.6.52,2.38.84.57.23.92.23,1.35-.35.61-.83,1.17-.7,1.64.23.12.24.2.5.32.73.24.46.13.79-.38.91-.35.09-.73.08-.75.57.45.57.9.5,1.34,0,1.08-.54,2.09-.55,2.96.42.34.38.71.33,1.18.23.88-.19,1.54.23,1.74.96.37.44.05.87-.06,1.26-1.11,3.8-2.37,7.56-3.15,11.45-.14.68-.27,1.51-1.09,1.86-1.07-.6-.36-1.72-.76-2.52-.49-3.11-2.17-4.25-5.32-3.54-.6.14-1.26-.02-1.81.36-.72.49-1.61.78-1.72,1.87-.03.35-.37.59-.79.58-.55-.58-.38-1.27-.31-1.95Z"/>
  <path class="st126" d="M50.52,33.77c.23.82.29,1.59-.53,2.15,0-.73.4-1.4.26-2.14.09,0,.18,0,.27,0Z"/>
  <path class="st147" d="M73.03,54.13c-.93.74-2.19.84-3.09,1.67-.26.24-.84-.29-1.4-.06-.4.16-.48-.05-.66.4.26.25.73.01.94.41.05.14-.04.22-.16.29-.35.2-1.08-.19-1,.67.01.14-.18.23-.27.13-.67-.72-1.71.14-2.38-.57h0c-.12-.12-.29-.17-.43-.26-.19-.14-.34-.33-.48-.51-.04-1.72-.14-3.5.5-5.09.37-.93,1.13-1.8,2.02-2.43.37-.52.32-1.27.99-1.57-.34-.46-1-.17-1.14-.77,1.04-.66,1.95.13,2.9.32.29.06.5.59.72.92.15.22.29.56.57.47.98-.29.84.48.96.97.04.18-.17.4.02.6.48-.05.46-.68,1.02-.71.46.67-.24,1.52.11,2.32.53-.36.74-.81.9-1.32.09-.28.2-.62.58-.64.11,0,.28.09.31.18.17.43-.11.65-.44.84.02.22.46.23.29.49-.31.49-.17,1.23-.85,1.52-.12.05-.22.13-.32.2-1.08.71-.88.77-.2,1.53Z"/>
  <path class="st85" d="M77.57,44.21c.13.37.58.58.51,1.05-.39-.03-.96.28-.95-.51,0-.18-.13-.24-.26-.2-.11.03-.28.13-.29.21-.16,1.2-1.48,1.79-1.58,3.03-.01.14-.19.16-.32.13-.15-.03-.26-.15-.22-.28.18-.51.03-.73-.52-.77-.8-.07-.43-.78-.51-1.17-.29-.08-.42.05-.56.16-.26.23-.5.59-.73-.06-.09-.27-.36-.14-.55,0-.11.07-.21.14-.35.06-1.42-.82-1.71-.99-2.15-.88-1.05.26-2.24.16-3.03,1.12-.1.08-.18.17-.27.27-.09.09-.18.18-.27.27,0,0-.02.11-.02.11,0,0-.11.03-.11.03,0,0,.11.03.11.03,0,0,.02.11.02.11,0,.09,0,.18,0,.27-.21.22-.46.23-.73.11-.27-.42-.22-1.34-1.17-.64-.53.39-1,.01-1.32-.48-.06-.12-.03-.23.03-.34-.08-.01-.11.08-.18.09-.43-.02-.83-.1-1.05-.52-.03-.12-.03-.24-.01-.36.04-.18.12-.35.2-.52.62-1.06,1.2-2.15,1.84-3.2.09-.16.19-.32.31-.47.08-.1.18-.17.3-.2.12,0,.23.05.31.15.16.46.36.83.92.41.16.05.35.28.43.19.11-.13-.15-.23-.21-.37-.06-.86.49-1.1,1.2-1.2.13,0,.25.05.36.12.57.22.26,1.28.82,1.2,1.2-.17,2.27.86,3.47.3.41.05.75.28,1.07.51,1.31.98,2.74,1.62,4.37,1.84.39.05.8.1,1.1.42Z"/>
  <path class="st35" d="M64.72,47.17h.8c.65,0,1.19.09.9.99-.06.17.11.41.18.62-.46.73-.75,1.53-1.5,2.09-.67.5-.55,1.17-.38,2.56.08.62-.24,1.34-.52,1.95-.21.46.04.64.25.9-.73.48-1.13-.03-1.33-.57-1.11-3.03-.28-5.81,1.23-8.47.07-.11.23-.1.36-.07Z"/>
  <path class="st147" d="M65.53,46.63c.18.09.18.18,0,.27h0c-.07-.09-.07-.18,0-.27h0Z"/>
  <path class="st35" d="M65.8,46.37c.09-.09.18-.18.27-.27-.09.09-.18.18-.27.27Z"/>
  <path class="st68" d="M67.66,72.04c-1.53.68-3.16.95-4.81,1.12-.82-.35-1.73-.49-2.45-1.06,1.48-1.35,2.61-2.97,3.72-4.62.22-.33.43-.68.87-.75.09,0,.18,0,.27,0q.45.47.24,1.21c.64-.74.65-.74,1.4-.02.16.15.27.39.53.25.23-.13.22-.38.12-.59-.69-1.33-.31-2.43.6-3.52.87-1.04,1.35-1.01,1.93.26.09,0,.18,0,.27,0,.15.18.17.36,0,.53h0c-1.35.74-1.06,2.03-1.07,3.21.08.43-.74,1.04.31,1.31.14.04-.35.7-.66.84-.88.4-.9.35-1.08.71-.17.35-.46.68-.18,1.11Z"/>
  <path class="st135" d="M69.28,68.06c-.51-.49-.44-1.02-.15-1.59.08-.15.16-.35.13-.5-.24-.99.34-1.13,1.1-1.12-.43.69-1,1.31-.56,2.25.17.37-.08.77-.51.96Z"/>
  <path class="st135" d="M70.35,64.85v-.53c.22.11.26.31.26.53-.09,0-.18,0-.26,0Z"/>
  <path class="st141" d="M77.57,44.21c-1.83-.06-3.55-.46-5.05-1.58-.53-.39-1.09-.73-1.64-1.09-2.01-1.33-3.61-2.96-4.07-5.44-.03-.49-.04-.97.04-1.46.26-.86.67-1.59,1.61-1.86.29.03.6.03.55.46-1.37,1.08-1.57,1.88-.96,3.46.64,1.65,1.87,2.82,3.18,3.89.71.58,1.37,1.28,2.33,1.5.86.22,1.76.37,2.42,1.06.72.02,1.39.43,2.13.26.2.02.4.03.48.27-.27.3-.77.19-1.02.54Z"/>
  <path class="st54" d="M74.64,40.73c-1.18-.85-2.35-1.72-3.53-2.56-.59-.42-.96-1.03-1.43-1.55-.19-.21.04-1.74.25-1.88.52-.36,1.01-.14,1.5.09.94.79,2.26.84,3.22,1.6h0c.65.59,1.16,1.3,1.86,1.87.9.73.58,1.75.29,2.7-.2.3-.52.24-.81.26-.6.21-.98-.15-1.33-.54Z"/>
  <path class="st97" d="M74.64,40.73c.5.04.89.36,1.33.54.05.25-.25.64,0,.71,1.17.31.42.68.07,1.05-.03.03-.05.07-.07.11-.87-.2-1.73-.44-2.42-1.06.7-.18.83-.81,1.08-1.35Z"/>
  <path class="st150" d="M76.78,41.02c0-.36-.04-.72,0-1.07.08-.78-.08-1.36-.9-1.69-.76-.31-.98-1.1-1.24-1.81,1.01.47,1.9,1.07,2.4,2.12.41.86.47,1.7-.25,2.45Z"/>
  <path class="st150" d="M74.64,36.45c-1.14-.39-2.47-.41-3.22-1.6.71.23,1.43.44,2.14.68.47.17.86.46,1.08.92Z"/>
  <path class="st33" d="M69.01,33.24c-.12-.22-.32-.26-.54-.27.76-.87,1.46-.87,2.41,0,.09.18.18.35.27.53-.7-.22-1.41-.31-2.14-.26Z"/>
  <path class="st32" d="M78.2,38.95c.16.04.3.14.3.33,0,.14-.12.26-.25.22-.09-.03-.16-.19-.21-.3-.06-.13-.03-.24.16-.25Z"/>
  <path class="st48" d="M70.88,32.97c-.8-.35-1.61-.47-2.41,0-.67.35-1.03.96-1.34,1.61-1.6,1.75-2.67,3.88-4,5.82-.05.13-.12.24-.19.36-.28.34-.54.8-1.07.42-.39-.28-.33-.68-.18-1.09,1.04-2.89,1.62-5.91,2.49-8.84.53-1.77.65-1.85,2.2-.91.49.3,1.04.49,1.55.77,2.85.75,5.71,1.28,8.65.62.36-.08.7-.1,1,.17.31.24-.02.71.48.98-.82-.34-1.05.09-1.25.63-.17.45-.38.89-.56,1.34-.64-.15-1.17-.54-1.75-.83-1.14-.57-2.33-.94-3.6-1.05Z"/>
  <path class="st18" d="M77.58,31.9c-1.27.16-2.48.69-3.79.54-2.06-.24-4.15-.29-6.11-1.08-.13-.28.02-.43.26-.53,2.37.57,4.78.66,7.2.62,1.36-.03,2.75-.18,3.62-1.51.11-.17.31-.08.43.09-.21.12-.26.32-.26.54-.28.61-.89.9-1.34,1.34Z"/>
  <path class="st151" d="M67.94,30.83c-.09.18-.18.35-.26.53-.78-.33-1.5-.78-2.19-1.26-.44-.32-.65-.14-.75.3-.63,2.89-1.71,5.67-2.19,8.6-.07.45-.31.82-.59,1.18-.21.28-.27.62.01.84.41.32.48-.16.67-.37.06-.07.13-.12.2-.18.07.06.15.13.15.21,0,1.19-1.65,3.09-2.85,3.32-.27-.38-.09-.75,0-1.12.13-.36.22-.73.27-1.1.04-.19.14-.36.28-.49.58-1.14,1-2.33,1.09-3.62.02-.35.15-.69.25-1.03.98-3.27,1.83-6.58,2.95-9.81.37-.26.28-.75.53-1.07-.16-.18-.16-.36,0-.54.18-.27.36-.27.54,0-.07.06-.09.12-.07.18.02.06.05.09.07.09,0,.69-.3,1.29-.55,1.91-.53,1.31-.35,1.74.81,2.56.51.36,1.22.33,1.61.89Z"/>
  <path class="st129" d="M71.95,29.23c-1.27-.39-2.63-.54-3.74-1.34,0,0,0-.01,0-.01,1.44-.52,2.6.24,3.77.87.15.08.08.32-.02.47h-.01Z"/>
  <path class="st138" d="M59.1,25.21c-.05.16-.05.36-.14.49-.43.58-.63.58-1.06,0-.09-.13-.09-.32-.14-.49.45-.2.9-.5,1.34,0Z"/>
  <path class="st17" d="M65.52,25.2c0,.18,0,.36,0,.54-.39,0-.78,0-.8-.54-.06-.06-.08-.12-.06-.18.02-.06.04-.09.06-.09.26.11.5.28.8.27Z"/>
  <path class="st17" d="M66.6,25.74c.27.18.27.36,0,.53,0-.18,0-.36,0-.53Z"/>
  <path class="st17" d="M66.06,25.47c-.19-.09-.18-.18,0-.27,0,.09,0,.18,0,.27Z"/>
  <path class="st111" d="M64.72,24.94c0,.09,0,.18,0,.27-.18-.09-.18-.18,0-.27Z"/>
  <path class="st17" d="M66.87,27.09c.08.09.17.17.25.26-.08-.09-.17-.17-.25-.26Z"/>
  <path class="st67" d="M71.96,29.21c-.04-.12-.06-.33-.14-.35-1.21-.32-2.33-.97-3.61-.99-.58-.49-.65-1.2-.76-1.88-.07-.41.09-.72.6-.6.57.14,1.32-.52,1.74.39.06.13.26.07.36-.02.66-.57.79.26,1.16.44.47.22,1.01-.53,1.36.03.53.84.81.12,1.16-.18.2.39.16.73-.02,1.19.54-.14.7-.93,1.31-.47.43.33,1.12.29,1.24,1.05.07.44,0,.76-.42.81-.52.06-.91.34-1.32.6h0c-.22-.21-.4-.53-.66-.6-.45-.12-1.01-.44-1.34.26-.12.25-.39.32-.67.33Z"/>
  <path class="st67" d="M74.63,29.22s-.05.11-.06.11c-.09-.02-.07-.06.06-.11h0Z"/>
  <path class="st145" d="M32.05,50.12l.53.54c.29.39,0,.59-.27.8.09.09.18.18.27.27.08.1.18.18.27.27h0c.67,1.37,1.45,2.67,1.58,4.27.12,1.49.61,2.92,1.44,4.21.04.21-.03.37-.22.48-.12.04-.24.05-.37.03-.64-.48-1.42-.5-2.15-.68-.33-.2-.38-.69-.8-.8-.16-.81-.49-1.58-.54-2.41-.03-.7.06-1.4-.19-2.09-.17-.45-.17-.99,0-1.44.26-.69.16-1.39.2-2.09.1-.08.18-.18.27-.27,0-.36,0-.71,0-1.07Z"/>
  <path class="st88" d="M22.94,51.72c.64-.08.99-.43,1.07-1.07.65-.28,1.29-.56,1.94-.83,1.24-.51,2.91.76,2.79,2.1-.02.21-.14.33-.31.38-.61.21-1.09.79-1.75.77-.64-.02-.45.9-1.07.79-.21.12-.43-.04-.63.01-1.2.32-1.76-.3-2.04-1.35,0-.09,0-.18,0-.27-.16-.18-.15-.36,0-.54h0Z"/>
  <path class="st142" d="M22.94,52.53c.39.02.49.27.55.61.09.47.46.77.85.46.6-.46.87.1,1.27.26-.57.7-1.38.49-2.08.47-.62-.01-.81-.74-.59-1.81Z"/>
  <path class="st142" d="M22.94,51.72v.54c-.27-.18-.28-.36,0-.54Z"/>
  <path class="st3" d="M36.33,67.79c.63-.03.37-.68.29-.68-.86,0-.49-.47-.35-.85.29-.78.63-1.5,1.66-1.42,1.56-.48,3.24-.66,4.34-2.12.46-.61.81-1.28,1.3-1.86.07-.1.16-.19.26-.27.1-.08.21-.13.33-.16.6-.05.99.11.79.82-.1.36,0,.7.04,1.06-.02.12-.07.23-.16.33-1.22.65-2.14,1.73-3.33,2.42-.91.53-.61,1.39-.73,2.14-.26.67-.38,1.39-.6,2.07-.03.05-.07.1-.1.15-.53-.02-1.17.2-1.33-.61l-2.08-.62c-.18-.07-.27-.21-.34-.38Z"/>
  <path class="st133" d="M38.47,74.22c-.6-.44-.6-.76,0-1.34.53.68,1.2.62,1.91.36.93-.39,1.89-.28,2.85-.23.33.02.64.09.8.38.21.36-.15.55-.32.78-.08.1-.21.18-.27.29-.22.4-1.06.7-.69,1.1.46.5,1.14.01,1.67-.32.19-.12.38-.31.38-.52-.02-1.29.85-1.57,1.87-1.7.5.3,1.51-.46,1.58.75-.03.11-.09.2-.19.27-.21.07-.43.09-.62.21-.1.06-.2.11-.31.14-1.05.03-.96,1.07-1.43,1.61-1.43.89-2.9,1.44-4.55.59-.47-.22-.96-.41-1.39-.68-.63-.4-1.2-.87-1.29-1.7h0Z"/>
  <path class="st63" d="M47.83,73.9c.09.01.19.03.28.04.56-.14.73.25.91.64.01.5.57.9.28,1.46-.08.1-.17.16-.3.19-.29.02-.49-.16-.72-.29-.44-.23-.76-.01-1.04.3-.28.32-.09.55.17.77.34.28.23.62.11.96-.02.11-.24.1-.19.21.05.1.23-.02.33.07.3.27.27.54-.01.79-.26.23-.64.29-.86.06-.62-.66-1.31-.43-2.08-.38-1.05.06-2.09-.24-3.02-.8-.37-.23-.64-.62-1.11-.71-.19-.04-.36-.11-.51-.23-.08-.11-.09-.22-.01-.34.36-.01.72-.03,1.08-.04,1.32.18,2.6,0,3.84-.49.29-.12.56-.23.72-.52.51-.47.9-1.08,1.56-1.38.03-.06.05-.13.05-.21.12-.22.3-.19.5-.11Z"/>
  <path class="st120" d="M40.08,76.9c.18,0,.36,0,.53,0,.78.94,1.44,2.03,2.9,2.06.47,0,.77.39.85.88-.11.26-.28.5-.27.81-1.33.05-2.76.73-3.79-.82-.36-.54-.76-.09-1.03.29-.11.22-.31.26-.53.27-.37-.48.37-1.33-.54-1.63-.09-.21.09-.3.19-.43.05-.07.13-.12.22-.14-.09,0-.16.05-.21.14-.13.1-.22.28-.43.19.06-.98-.72-1.6-1.05-2.41.52-.41,1.04-.39,1.57-.02.46.41,1.05.58,1.6.82Z"/>
  <path class="st24" d="M36.91,76.1c.46-.08.28.46.56.58.77.34,1.04.87.57,1.65-.01.02.11.12.16.18.23.49.74.01,1.09.34-.27.47-.41,1-.56,1.53-.13-.03-.3,0-.39-.08-.6-.49-1.16-.71-1.71.38.25-.94.13-1.42-.72-1.47-.14,0-.3-.19-.41-.32-.98-1.17-1.42-1.37-2.91-1.22-.43.04-.67-.15-.83-.51.09,0,.18,0,.26,0,1.72.1,3.44.18,4.87-1.05Z"/>
  <path class="st3" d="M40.35,73.42c-1.26.62-1.6.52-1.88-.54-.03-.17-.16-.41-.09-.49.78-.88,1.19-1.96,1.7-2.99h0c.9-.3.99.23.89.89-.15.97-.77,1.66-1.41,2.32,0,.56.96.12.79.8Z"/>
  <path class="st132" d="M34.19,72.35c.3.03.71-.05.74.35.04.47.33.93.15,1.39-.14.36-.69.26-.97-.12-.43-.58.05-1.09.08-1.63h0Z"/>
  <path class="st80" d="M40.08,76.9c-.81.28-1.18-.32-1.6-.82.53.19,1.07.38,1.6.57,0,.08,0,.17,0,.25Z"/>
  <path class="st37" d="M43.83,60.83c-.55,1.5-1.58,2.69-2.89,3.45-.83.48-1.9.93-3,.57-.06-.06-.12-.16-.19-.17-2.46-.42-3.61-2.26-4.62-4.25-.02-.04,0-.09,0-.13.84-.34,1.59-.3,2.14.54.09.09.18.09.27,0,.09-.09.18-.18.27-.27.87.24.72.97.72,1.59,0,.53.05.92.62,1.17.54.23.78-.13,1.15-.37,1.13-.74,2.05-1.84,3.49-2.04.33-.05.36-.35.47-.58.22-.66.17-1.6,1.33-1.32.21.11.42.23.58.41.18.39.15.77-.05,1.15h0c-.09.08-.17.18-.27.27Z"/>
  <path class="st10" d="M39.28,80.11c.01-.22.06-.43.22-.6.49-.54,1.1-.53,1.18.11.13,1.04.83.9,1.4.86.7-.06,1.35.11,2.02.17-.05.49.12,1.18-.82.62-.39-.23-1.01-.38-1.29.34-.16.41-.53.44-.89.32-.34-.11-.66-.23-1.02-.21-.04-.47-.32-.88-.28-1.38.03-.45-.28-.29-.52-.23Z"/>
  <path class="st80" d="M44.37,79.84c-.31-.39-.73-.7-1.2-.7-1.53-.01-2.13-1.01-2.55-2.24.17.01.45-.04.51.05.67,1.13,1.97,1,2.96,1.49.3.15.72.13,1.03-.06.74-.47,1.28-.37,1.73.42.19.33.56.29.78.01.25-.32-.08-.44-.3-.58-.08-.42.41-1.07-.51-1.14-.26-.02-.32-.32-.22-.52.23-.48.6-.9,1.07-1.11.49-.22.9.07,1.18.52.05.08.24.08.36.11.25-.52-.49-.84-.28-1.35.08-.09.18-.12.29-.11.17.02.33.06.5.1.23.04.46.1.65.24.25.27.47.56.58.91.22.05-.32.54.15.33.59-.25.92-.17,1.12.43.2.61-.12.78-.65,1.04-1.28.63-2.55,1.3-3.71,2.16-.1.07-.24.24-.3.21-1.04-.45-2.12-.2-3.19-.21Z"/>
  <path class="st59" d="M62.58,76.9c.09,0,.18,0,.27,0,.07.62.94,1.25,0,1.87,0,0,0,0,0,0-.57-.78-1.37-.27-2.03-.29-.99-.04-1.99.18-2.93-.31-.35-.19-.62-.08-.78.22-.31.56-.97.32-1.37.65-.17.14-.31.1-.43-.09-.31-.48-.49-.2-.79.06-.65.57-1.05.38-1.31-.5.03-.05.06-.1.09-.15.46-.37,1.01-.64,1.31-1.18.08-.1.17-.18.27-.25.24-.17.54,0,.76-.1.57-.28,1.57.2,1.68-1.03.03-.29.84-.83,1.52-.77.36.76,1,1.22,1.7,1.64.1.06.18.14.25.23.6.5,1.2.1,1.8.01Z"/>
  <path class="st16" d="M47.85,79.85c.23-.81.78-1.21,1.61-1.2.18,0,.33.06.46-.11.91-1.19,1.04-1.26,2.08-1.28.06-.37-.11-.67-.28-.96-.31,0-.51.15-.69.36-.2.24-.47.32-.67.06-.24-.32.02-.43.29-.54.08-.03.09-.23.13-.35-.09-.08-.12-.18-.09-.3.08-.15.19-.28.33-.38.18-.14.34-.29.51-.44.34-.23.66-.53,1.11-.25.37-.09.73.3,1.1.03.09-.07.18-.07.27,0h0c.46.85.03,1.47-.52,2.07-.06.1-.13.2-.2.29-.5.53.09,1.11-.09,1.66h0c-.53.28-.71.66-.29,1.16.22.26.12.48.03.72-.44.21-.89.42-1.41.67-.11-.78.77-1.46,0-2.17-.14.43-.46.7-1,.55-.86-.24-.76.93-1.51.87-.24-.3-.5-.83-1.16-.46Z"/>
  <path class="st59" d="M57.69,78.82s-.09.04-.1.02c-.02-.03-.03-.07-.04-.11.03,0,.09-.04.1-.02.02.03.03.07.04.11Z"/>
  <polygon class="st16" points="52.94 80.38 53.05 80.44 53 80.49 52.94 80.38"/>
  <path class="st104" d="M62.85,78.77c.11-.36.57-.71-.14-1.04-.24-.11.2-.52.14-.84.37-.28.45.08.5.28.09.36.22.64.57.79-.24.43-.53.78-1.07.8Z"/>
  <path class="st83" d="M64.19,78.24c.09,0,.18,0,.27,0-.09.18-.18.18-.27,0Z"/>
  <path class="st2" d="M66.86,62.17c-.91,1.3-1.83,2.59-2.74,3.89-.2.29-.48.54-.47.93-.06.02-.12.03-.18.05-1.08-.45-2.35-.58-3.04-1.74-.12-.21-.26-.06-.43-.02-1.48.4-3.02-.44-3.64-1.96-.1-1.25.04-2.44.73-3.53.12-.12.25-.13.39-.04.28-.09.52-.36.88-.17-.07.47-.44.74-.66,1.13.37.19.85.11,1.07.6.27-.54-.32-.66-.27-1.09.44-.18.86-.59,1.32.06.17.23.4.07.6,0,.2-.07.41-.3.6-.14.27.22-.15.36-.13.53.03.15.27.39.33.37.91-.36,1.62.81,2.56.32.3-.16.68-.23,1.02-.24.48-.02.96-.02,1.07.66.1.61.63.29.97.38Z"/>
  <path class="st116" d="M64.72,47.17c-.28.19-.46.48-.45.77.01.38,0,.68-.38.88-.31.17-.4.58-.33.82.19.66-.12,1.12-.46,1.57-.45.59.02,1.21-.12,1.78-.2.82.18,1.56.25,2.33.05.61.5,1.03,1.22.94.09.18.18.35.27.53.07.06.09.12.06.18-.02.06-.05.09-.07.09-1.27-.1-1.66-.48-1.91-1.93-.03-.18-.06-.36-.22-.46-.42-.28-.13-1.1-.77-1.13-.48-.02-.5.64-.86.87-.18.12-.34.28-.57.32,0-.65-.2-1.26-.42-1.86-.06-.16-.26-.31-.12-.47.64-.74-.32-.83-.49-1.24-.28-.28-.32-.64-.19-.98.41-1.13.46-2.32.69-3.48.15-.76.39-1.46,1.38-1.44.26.37.75.29,1.07.54h0c.81.75.82.77,1.65.22.29-.19.56-.28.84-.09.25.18.21.47.13.72-.05.17-.14.32-.21.48Z"/>
  <path class="st12" d="M61.24,45.29c-.74.43-1.08,1.02-1.1,1.93-.03.9-.29,1.81-.55,2.68-.13.43-.23.84-.22,1.28-.44.23-.1.84-.54,1.07-.28-.24-.78.42-.97-.24.14-1.68.78-3.24,1.15-4.86.12-.51.26-1.02.33-1.54.18-.6.25-1.26.83-1.66,1.3-.61,1.78-1.96,2.62-2.98.09-.11.03-.34.04-.51,0-.09,0-.17.01-.25.44-.08.82-.08.8.53,0,.09,0,.18,0,.26-.09.08-.17.19-.26.27-.48,1.24-1.28,2.31-1.88,3.48-.1.08-.17.19-.26.27,0,.09,0,.18,0,.26Z"/>
  <path class="st123" d="M58.03,52.26c.27-.07.53-.43.8,0-.34,1.58-.66,3.16-1.01,4.74-.2.91-.42,1.82-.33,2.76-.09,0-.18,0-.27,0-.42.12-.81.61-1.26.07-.19-1.03.31-1.95.48-2.92.08-.26.16-.52.2-.79.34-1.33.43-2.75,1.39-3.86Z"/>
  <path class="st1" d="M60.91,58.99c.24.04.46.16.42.41-.06.31-.36.36-.63.35-.24,0-.47-.08-.4-.37.07-.29.32-.4.62-.39Z"/>
  <path class="st22" d="M64.72,57.08c0-.09,0-.18,0-.27.09.09.18.18.26.27h-.27Z"/>
  <path class="st135" d="M70.08,64.31c-.11.14-.33.32-.34.05-.02-.4-.04-.73-.47-.8-.5-.09-.7.25-.82.68-.04.16-.13.35-.25.45-.99.8-.81,1.73-.33,2.71.33.68.2,1.01-.45,1.22-.28.09-.46.08-.65-.22-.7-1.07-.71-1.06-1.43-.1-.36-.51.57-1.08-.08-1.58.65-1.58,1.71-2.9,2.68-4.28.36.91,1.25.26,1.81.61.08.05.2-.14.2-.28,0-.17-.07-.36-.01-.51.2-.49.97-1.01,1.22-.82.5.39.15.9.04,1.31-.18.62-.68,1.08-1.11,1.56Z"/>
  <path class="st44" d="M64.99,66.72c-1.15,1.58-2.03,3.35-3.48,4.69-.33.3-.6.67-1.11.68,0,0-.11,0-.11,0l-.11-.02c.3-2.28,1.75-3.78,3.47-5.09h0c.44-.12.75-.91,1.34-.26Z"/>
  <path class="st114" d="M56.69,56.81c.07,1.11-.61,2.1-.54,3.21.49,1.05-.27,1.8-.64,2.64-1.12.18-2.29-.38-2.51-1.31-.16-.7-.54-1.21-1.03-1.67-.09-.12-.12-.26-.1-.4,0,0-.12.04-.12.04,0,0-.13-.03-.12-.03-.03.14-.04.28-.14.4-.7.58-1.07-.31-1.61-.43-1.39-.3-2.43.37-3.56.85-.12-.03-.24-.08-.34-.16-.09-.09-.17-.18-.23-.28-.02-.03-.05-.06-.06-.1-.04-.13-.14-.16-.16-.06-.07.48.15.94.16,1.42.02.63.1,1.33-.79,1.5-.55-.52-.55-1.07.01-1.62-.34-.11-.58-.18-.81-.25-.28-.36,0-.71,0-1.07.72-1.43.22-2.8-.19-4.18-.04-.12-.07-.24-.09-.37.05-1.2.04-1.21,1.25-2.09.13-.09.12-.15.13-.26.05-1.88,1-3.61.97-5.5.65-2.18.81-4.49,1.68-6.62.18-.33.3-.68.27-1.07.54-.72.52.21.8.27.59.84.07,1.7.02,2.53-.05.83-.34,1.62-.54,2.43-.24.72-.38,1.46-.57,2.2-.34,2.35-1.11,4.64-1.02,7.06.02.51-.45.87-.48,1.36-.05.7-.62,1.43.12,2.08,1.11.84,1.8-.3,2.55-.67.64-.32,1.12-.66,1.79-.22.59.38.86-.64,1.42-.32.1.01.13.21.2.17.08-.04-.08-.15-.03-.25.66-.44,1.16-.16,1.6.35.4.47.8.92,1.41,1.14q.27-1.98,1.22-1.7c.08.09.14.19.17.3-.02.17-.07.33-.08.5,0,.06,0,.11,0,.17Z"/>
  <path class="st47" d="M47.85,40.47c-.19,1.12-.31,2.25-.55,3.38-.24,1.11-.69,2.18-.79,3.32-.36.52-.72.38-1.08,0,0-.23-.2-.16-.33-.22-1.19-.35-.88-1.39-1.01-2.23-.1-.79.17-1.59,0-2.38-.09-.89-.18-1.79-.27-2.68.13.11.3.33.4.3.3-.07.48-.75.8-.43.59.58,1.59.25,2.03,1,.35.59.54.08.79-.07Z"/>
  <path class="st126" d="M48.11,44.76c.23-1.35.44-2.7.69-4.04.07-.35.11-.7.11-1.05.49-.91.52-1.94.79-2.91.06-.21.08-.43.28-.57.09.02.17.03.26.05-.27.61.09,1.22.02,1.82.17.77.1,1.55.2,2.33-.29,1.34.13,2.67.07,4.01-.27.95-1.18,1.38-1.89,1.59-.66.19-.63-.67-.52-1.23Z"/>
  <path class="st55" d="M49.98,33.9c-.03.07-.06.21-.09.21-.1,0-.14-.08-.08-.17.04-.07.14-.17.18-.15.16.07,0-.06,0,.11Z"/>
  <path class="st101" d="M30.03,33.14c-.47-.33-1.25.07-1.6-.83-.46-1.16-.55-1.12.31-2.06.83-.92,1.86-1.47,2.98-1.94,1.68-.7,3.35-1.38,5.19-1.55,1.66-.15,2.62.97,2.18,2.53-.05.16-.12.21-.23.27-1.35.77-2.35,2.04-3.88,2.59-.64.23-1.29.24-1.92.42-.97.28-1.99.39-3.02.57Z"/>
  <path class="st127" d="M32.85,42.88c.18.09.18.18,0,.27,0-.09,0-.18,0-.27Z"/>
  <path class="st127" d="M33.38,41.81c.19.09.18.18,0,.26,0-.09,0-.18,0-.26Z"/>
  <path class="st127" d="M32.04,51.18c-.09.09-.18.18-.27.27.09-.09.18-.18.27-.27Z"/>
  <path class="st124" d="M42.49,60.29c0,.58-.05,1.06-.88.97-.47-.05-.97.1-1.26.59-.19.33-.55.44-.86.6-.52.26-1.04.51-1.31,1.08-.27.56-.63.43-1.1.21-.77-.36-1.11-.94-.92-1.73.14-.6-.08-1.02-.38-1.46-.7-.71-.98-1.34-1.22-2.21-.31-1.14-.65-2.27-.67-3.47,0-.41-.18-.81-.48-1.07-.58-.51-.61-1.14-.57-1.82.47-.32,1-.57,1.24-1.14.18-.44.49-.49.83-.22.43.35-.12.48-.2.72-.03.08-.05.16-.08.24.26.4.69.29,1.05.34.18.46-.53,1.15.38,1.39.09.03.18.03.27,0,.18-.09.36-.18.53-.27.05,1.56,1.58,2.09,2.27,3.22.51.83,1,1.73,2.2,1.9.61.08.82.95.63,1.3-.44.8.31.59.52.81Z"/>
  <path class="st86" d="M42.49,60.29c-.37-.07-.66.11-.95.31-.2-.24-.03-.42.04-.63.37-1.09,0-1.74-1.11-1.69-.47.02-.41-.35-.48-.38-.71-.29-.5-1.47-1.47-1.47-.24,0-.1-.27-.08-.43.08-.58-.07-.78-.61-.39-.11.08-.36,0-.33-.08.27-.71-.48-.71-.71-1.06-.32-.48.21-.93.08-1.41v-.27c1.98.67,3.75.45,5.17-1.23.24-.28.55-.44.91-.51.13-.01.26,0,.38.05.21.16.33.38.43.62.19.72.46,1.45.01,2.18-.33.54.18.87.34,1.29h0c.07,1.2.51,2.38.17,3.59-.1.36-.2.73-.7.43-.65-.27-.79.18-.87.65-.03.18-.04.33-.21.42Z"/>
  <path class="st31" d="M43.03,51.19c-.7.34-1.11,1.03-1.75,1.46-.67.45-1.16,1.25-2.13.63-.05-.03-.18,0-.24.05-.89.64-1.46.04-2.04-.53-.25-.02-.53.04-.71-.3.28-.39.79-.11,1.07-.37.08-.23-.04-.33-.23-.38-.17-.04-.35-.02-.48-.22.03-.11.02-.26.1-.36.97-1.2.54-2.3-.3-3.31-.33-.4-.37-.68-.19-1.17.24-.63.76-.43,1.11-.43.95-.01,1.93.03,2.59.9.26.35.66.19.97.31.4.14.92.27.52.9-.04.06-.05.2-.01.25.56.68,1.14,1.36,1.71,2.03.04.04.07.08.11.11.06.16.04.31-.11.42Z"/>
  <path class="st25" d="M43.56,51.72c-.22-.12-.26-.32-.27-.54-.18-.13-.08-.4-.27-.53h0c-.37-.77-.26-1.7-.8-2.41.02-.49-.07-.91-.36-1.35-.64-1-.6-1.03.3-1.91.06-.05.13-.14.12-.2-.14-1.49.82-.44,1.27-.55.09-.09.18-.18.27-.27.13-.44-.11-.95.27-1.34v-.27c.25.12.46.28.37.6-.18.6-.06,1.21-.1,1.81-.74,1.66-.83,3.37-.25,5.08.27.8.03,1.37-.56,1.88Z"/>
  <path class="st124" d="M32.31,51.45c.11-.26.28-.5.27-.8.09,0,.18,0,.27,0,0,.39.01.78-.53.8Z"/>
  <path class="st31" d="M36.33,53.33c-.09.18-.18.18-.27,0,.09-.18.18-.18.27,0Z"/>
  <path class="st124" d="M32.85,51.99c-.09-.09-.18-.18-.27-.27.09.09.18.18.27.27Z"/>
  <path class="st124" d="M32.85,50.65c.09-.09.18-.18.27-.27-.09.09-.18.18-.27.27Z"/>
  <path class="st98" d="M40.9,43.67c-.38.03-.58-.19-.63-.52-.06-.42.26-.5.57-.52.37-.01.56.18.55.56,0,.32-.19.46-.49.48Z"/>
  <path class="st28" d="M43.29,41.28c.29.2.75.34.27.8-.32-.19-.26-.51-.27-.8Z"/>
  <path class="st28" d="M44.1,42.62c-.07.45.18.96-.27,1.34-.3-.52-.43-1.01.27-1.34Z"/>
  <path class="st20" d="M44.9,62.43c.55-.5.67-1.12.43-1.79-.23-.65-.13-1.29-.15-2.03.71.14.8.61.79,1.14.09.09.18.17.27.26,1.45-.38,2.73-.13,3.78.99.13.14.28.18.47.19,1.93.14,2.53.83,2.56,2.67.02,1.17.05,2.44,1.58,2.82.36,1.14-.28,2.15-.42,3.22-.13.96-.42,1.89-.37,2.87.04.28-.06.48-.35.57-.09.03-.18.06-.27.1-1.85.9-3.65,1.17-5.31-.42-.17-.12-.34-.24-.57-.14-.18.1-.35.24-.56.25-.55-.15-.75.88-1.42.43-.07-.05-.17.26-.13.44.13.61.03,1.16-.52,1.51-.64.4-1.33.74-2.13.55-.56-.13-.72-.59-.25-.95.59-.46.94-1.15,1.65-1.54-.18-.12-.32-.28-.39-.25-.67.26-1.27.16-1.85-.25-.18-.12-.37,0-.45.16-.24.49-.61.17-.92.19-.28-.4-.61-.2-.94-.09-.18.06-.35-.02-.46-.18-.12-.19.01-.33.13-.46.26-.3.47-.67.79-.87.7-.43.6-1.23.9-1.84.18-.35-.31-.55-.69-.58-.28-.83.09-1.49.53-2.14.09.02.21.05.22.12.17.82.52,1.53,1.13,2.14.2.19.22.56.09.87.04,0,.09,0,.13,0,.04-.01.07-.05.11-.08.26-.12.54-.14.82-.18.12-.02.24-.03.37-.04.13,0,.24.04.35.1.24.22.23.58.44.8.43.45.91.52,1.01-.22.11-.81.51-1.16,1.28-1.21.45.14.47.5.45.88-.02.11-.06.21-.12.3,0,.15-.29-.09-.22.16.13.11.31.04.44.12.4-1.4-.15-2.73-.27-4.09-.14-1.63-.45-3.25-.77-4.87-.12.44.04.97-.43,1.29-.63,0-1-.2-.73-.91h0Z"/>
  <path class="st84" d="M63.65,66.99c-.37.72-1.03,1.2-1.51,1.83-.78,1.02-1.47,2.07-1.96,3.26-1.28,1.2-2.77,1.81-4.55,1.61-.48-.25-1.12-.29-1.28-.96.04-1.48.34-2.91.8-4.32.24-.72.35-1.48.47-2.22.07-.31.18-.61.24-.93.02-.12.06-.23.09-.35.05-.17.11-.34.14-.51.04-.24.07-.47.16-.7.1-.16.22-.29.44-.2.68.96,1.65,1.48,2.76,1.77.2.05.28-.07.39-.24.36-.54.88-.58.94-.09.11.91.79,1,1.4,1.26.51.22,1.05.39,1.47.78Z"/>
  <path class="st104" d="M53.2,78.51c-.72-1.1-.72-1.13,0-1.88h0c.28-.71.92-1.28.8-2.14.74.21,1.05.84,1.24,1.46.22.71.62.62,1.1.42.1-.04.21-.18.23-.29.03-.19-.11-.38-.29-.36-.92.07-.38-.6-.24-.64.75-.23,1.3-.81,2.11-.98.86-.18.77.12.58.68-.02.07.06.16.09.25-.5.31-.76.96-1.43.9-.08.56.45.19.52.52-.93.69-2.04.62-3.11.73h0c-.14.92-.85,1.15-1.61,1.34Z"/>
  <path class="st41" d="M47.85,72.62c.13.11.27.22.4.33,1.24,1.04,2.59,1.19,4.06.52.28-.13.6-.5.91-.02,0,.45-.41.66-.57,1.01-.4.11-.78.25-1.05.58-.44.15-.88.32-1.33.04-.27-.03-.53-.05-.8-.08-.08-.07-.16-.13-.25-.19-.1-.02-.2-.05-.3-.07-.16-.38-.47-.59-.8-.81-.1-.58-.3-.95-.96-.51-.31.21-.35-.06-.38-.28.11-.25.29-.43.55-.53.18-.15.35-.14.53,0Z"/>
  <path class="st104" d="M62.58,76.9c-.45.83-1.22.51-1.88.46-.14,0-.04-.3,0-.47h0c-1.46-.29-1.84-.68-1.87-1.87.04,0,.09,0,.13,0q1.14.13,1.7-.93c.18.62.48,1.07.78,1.52.44.66.4.69,1.08.07.4.39-.53.84.06,1.21Z"/>
  <path class="st41" d="M54.54,72.88c.36.27.72.54,1.09.81-.73.03-1.47.05-2.14-.33.08-.15.17-.31.25-.46.26-.24.52-.22.79-.02Z"/>
  <path class="st104" d="M54.01,74.49h-.13s-.13,0-.13,0c.09-.18.18-.18.27,0Z"/>
  <path class="st10" d="M46.98,80.96s-.09.04-.1.02c-.02-.03-.03-.07-.04-.11.03,0,.09-.04.1-.02.02.03.03.07.04.11Z"/>
  <path class="st61" d="M47.85,81.99s.05-.11.06-.11c.09.02.07.06-.06.11h0Z"/>
  <path class="st136" d="M50.26,40.2c-.21-.71-.46-1.43,0-2.14.33-.21.68-.37.64-.9-.06-.72.33-1.16,1.04-1.31.17-.04.37-.12.47-.25.38-.46.69-.65,1.4-.48.61.15,1.39-.19,2.03-.46.4-.17.65-.22.91.12.32.4.82.29,1.23.45,1.08.42,1.98.98,2.08,2.31.03.35.1.7.11,1.05-.26.73.47,1.95-1.03,2.06-.53-.15-.5-.56-.44-.97.21-1.5-.18-2.81-1.59-3.46-1.37-.63-3.51.22-4.41,1.52-.05.07-.11.14-.17.2-.65.51-1.37.93-1.57,1.84-.06.28-.3.54-.69.41Z"/>
  <path class="st46" d="M59.1,40.47c.8-.09.92-.6.7-1.24-.14-.4-.04-.59.37-.63.29.46.27.97.28,1.48,0,.41-.14.87.26,1.2,0,.18,0,.36,0,.54-.09.36-.42.66-.26,1.07-.09.36-.18.72-.26,1.07-.18.53-.36,1.07-.54,1.6-.91,1.06-1.42,2.51-2.92,3-.12.03-.25.05-.37.06-.13.02-.25.02-.38.01-.3-.09-.63-.15-.7-.54.04-.18.12-.39.28-.43,2.01-.49,2.3-2.16,2.53-3.79.12-.89.3-1.75.53-2.61.11-.3.24-.59.5-.8Z"/>
  <path class="st87" d="M54.94,26.84c.37.04.64.42.88.85.02.03.01.08,0,.13-.03.21-.18.29-.36.3-.51.01-1.17-.5-1.14-.89.02-.25.19-.38.63-.38Z"/>
  <path class="st105" d="M55.84,33.1c-.05.34-.3.42-.57.38-.47-.07-.65-.44-.62-.85.02-.28.29-.43.58-.42.29.01.65.55.62.89Z"/>
  <path class="st146" d="M53.9,33.41c-.57.51-.99.47-1.36,0-.04-.05-.05-.22-.01-.25.5-.39.9-.09,1.37.25Z"/>
  <polygon class="st26" points="74.1 50.38 73.99 50.32 74.04 50.27 74.1 50.38"/>
  <path class="st112" d="M67.12,36.2c.35,1.35.97,2.55,2.02,3.51.62.57,1.26,1.13,1.73,1.84-.24.86-.94.28-1.4.45-.41-.81-1.13-.42-1.74-.45-.22-.01-.44,0-.66-.02-.26-.02-.5-.22-.33-.41.45-.5-.18-.78-.15-1.18-.54.24-1.16.38-1.34,1.06-.03.15-.12.24-.27.28-.39.19-.14.74-.57,1.01-.32-.5-.51-.98-.5-1.55-.09-.07-.13-.15-.11-.26.04-.15.11-.3.17-.44.04-.1.09-.2.14-.3.08-.16.16-.31.25-.45.62-.75.93-1.69,1.56-2.43.3-.35.49-1.02,1.2-.66Z"/>
  <path class="st151" d="M64.19,39.94c0,.09,0,.18,0,.27-.1.08-.17.18-.26.27,0,.09,0,.18,0,.27-.09,0-.18,0-.26,0-.18-.3-.52-.38-.8-.53.78-1.18,1.56-2.35,2.34-3.53.07-.11.16-.25.27-.29.62-.24-.96-1.2.33-1.11.7.05.85-.57,1.34-.71,0,.54,0,1.08,0,1.62-.73.24-1.07.88-1.38,1.49-.37.71-.81,1.36-1.29,1.99-.1.08-.17.18-.26.27Z"/>
  <path class="st79" d="M69.29,43.69c.27.03.64-.05.64.3,0,.47-.42.49-.77.5-.26,0-.59.02-.61-.33-.03-.55.43-.41.73-.46Z"/>
  <path class="st23" d="M64.99,41.28c.09-.09.18-.18.27-.28.21.04.46.01.61.13.27.21.27.54.04.79-.21.22-.47.12-.68-.06-.17-.15-.21-.36-.23-.58Z"/>
  <path class="st116" d="M62.31,45.83s.05-.11.06-.11c.09.02.07.06-.06.11h0Z"/>
  <path class="st116" d="M61.24,45.03l.26-.27c-.09.09-.18.18-.26.27Z"/>
  <path class="st151" d="M63.39,41.28c.09-.09.17-.18.26-.27-.09.09-.17.18-.26.27Z"/>
  <path class="st35" d="M65.53,46.63c0,.09,0,.18,0,.27-.18-.09-.18-.18,0-.27Z"/>
  <path class="st65" d="M65.78,32.95c-.24,0-.45-.09-.47-.36-.02-.26.15-.41.41-.38.28.04.52.18.47.51-.03.21-.24.22-.42.23Z"/>
  <path class="st111" d="M60.44,42.88c-.45-.49,0-.76.26-1.07.05.39-.08.74-.26,1.07Z"/>
  <path class="st124" d="M35.53,60.83c-.09.18-.18.18-.27,0h.27Z"/>
  <path class="st109" d="M42.22,70.47c-.04.28-.13.6-.47.48-.35-.13,0-.33.05-.51.13-.51-.06-1.24-.36-1.29-.86-.14-.74-.58-.6-1.14.07-.28-.15-.5-.24-.75-.02-.13-.03-.27-.07-.39-.31-1.03-.02-1.75.99-2.22.56-.26,1.02-.66,1.43-1.16.48-.59,1.24-.79,1.94-1.05.02.51.29.78.8.8.81,2.07,1.21,4.2.81,6.43-.45.33-1.17.45-.84,1.33.13.34-.13.69-.56.76-.43.08-1.17-.33-1.26-.72-.07-.29.02-.63-.29-.84-.55-.44-.97-.24-1.34.26Z"/>
  <path class="st114" d="M43.83,60.83c.09-.09.18-.18.27-.27-.09.09-.18.18-.27.27Z"/>
  <path class="st41" d="M47.28,74.22c-.4.6-.83,1.16-1.56,1.38.04-.21.06-.42.12-.62.22-.69.56-.86,1.44-.76Z"/>
  <path class="st41" d="M47.83,73.9c-.17.04-.33.08-.5.11.1-.3.27-.36.5-.11Z"/>
  <path class="st117" d="M38.47,74.22c.06-.12.24-.25.26-.19.13.31-.17.12-.26.19h0Z"/>
  <polygon class="st80" points="47.31 78.24 47.25 78.35 47.2 78.3 47.31 78.24"/>
  <path class="st24" d="M38.47,78.24c-.09.09-.18.18-.27.27.09-.09.18-.18.27-.27Z"/>
  <polygon class="st24" points="38.47 78.24 38.53 78.13 38.59 78.18 38.47 78.24"/>
  <path class="st28" d="M43.56,59.22c.69,0,.15-.66.48-.9.41-.3.17-.58-.11-.87-.23-.23-.33-.52-.07-.83.35-.42.19-.94.23-1.41.72,1.14.66,2.43.71,3.69.02.45-.34.55-.71.59-.22,0-.42-.05-.54-.27Z"/>
  <path class="st63" d="M50.26,75.08c.44-.01.89-.03,1.33-.04-.11.21-.31.25-.52.26-.09.08-.18.17-.27.26,0,.09,0,.18,0,.26-.33-.14-.52-.38-.53-.74Z"/>
  <polygon class="st63" points="49.19 76.1 49.3 76.16 49.25 76.21 49.19 76.1"/>
  <path class="st63" d="M49.2,74.82c.08.06.17.13.25.19-.08-.06-.17-.13-.25-.19Z"/>
  <path class="st80" d="M50.8,75.56c.09-.09.18-.17.27-.26-.09.09-.18.17-.27.26Z"/>
  <path class="st19" d="M56.69,63.51c-.09.09-.18.18-.27.27-.37.44-.67,1.03-1.4.55-.26-.62-.05-1.14.33-1.63.09-.95.8-1.71.81-2.68.3-.31.6-.63,1.07-.27-.2,1.25-.75,2.44-.54,3.75Z"/>
  <path class="st64" d="M61.66,64.72c.3-.6.88-.76,1.19-1.27.17-.28.53-.29.77.05.22.3.19.58-.11.8-.55.42-1.22.3-1.85.42Z"/>
  <path class="st131" d="M56.42,48.24c.57.04,1-.07,1.3-.67.42-.85,1.15-1.46,1.92-2.01-.01,1.49-.66,2.83-.94,4.26-.16.82-.44,1.63-.67,2.44-.28,1.36-.9,2.63-1.08,4.02-.09.09-.18.09-.26,0-.18-.28-.47-.38-.89-.52.34.82-.33,1.42-.16,2.23-.87-.44-1.61-.73-2.02-1.57-.19-.4-.76-.47-1.22-.14-.72-.15-.86.48-1.16.89-.59,0-.66-1.08-1.45-.64-.22.13-.54.09-.51.46.03.3-.24.5-.38.41-.69-.42-.76.09-.97.53-.24.52-.6.71-.9.03-.17-.38-.48-.33-.79-.35-.15-.76.01-1.49.16-2.22.08-.42.33-.74.77-.82.44-.08.55.22.73.57.27.54,1.75.35,1.98-.29.24-.64.53-.98,1.25-.86.39.07.71-.09.8-.51.31-1.42,1.57-1.88,2.59-2.58.2.16.31.42.55.55-.03-.33-.4-.32-.54-.54-.25-.22-.43-.47-.31-.82.78-.36,1.46-.84,1.93-1.58h0c.09-.09.18-.18.27-.27Z"/>
  <path class="st114" d="M56.69,56.28c.09,0,.18,0,.26,0,0,.22-.05.42-.26.54h0c-.15-.18-.15-.36,0-.54h0Z"/>
  <path class="st90" d="M54.55,50.92c-.36.37-.42.96-1.16,1.08-.66.11-.98.85-1.17,1.5-.27.93-.28.96-1.16.85-.21-.03-.4-.19-.64-.06-.15.12-.13.31-.16.48-.21,1.06-.27,1.11-1.36.82-.56-.15-.23.3-.43.57-.19-.47-1.09-.27-.8-1.15.05-.16-.19-.29-.37-.27-.29.03-.61.3-.57.47.16.67-.5,1.23-.18,1.89.14.28-.27.29-.3.51-.29.24-.39,0-.47-.2-.15-.35.06-.7.06-1.04,0-.86.1-1.67.72-2.33-.46-.76-.13-1.49.04-2.26.3-1.38.49-2.78.71-4.17.04-.26.02-.54.27-.71.22-.01.45.05.66-.02.81-.25,1.26-.08,1.53.83.33,1.12.88,2.03,2.41,1.82.66-.09,1.35.52,2.1.58.11.26.28.5.27.81h0Z"/>
  <path class="st42" d="M55.35,62.7c.1.57-.19,1.07-.26,1.61.36.93.03,1.7-.54,2.41-.49.02-.97.02-1.34-.4-.26-.3-.6-.54-.36-1.03.14-.29.18-.64-.07-.87-.37-.33-.22-.57-.02-.91.28-.47.36-.95-.39-1.08-.33-.06-.32-.29-.42-.54-.25-.58-.61-.62-1.21-.22-.57.38-1.04-.31-1.04-.41.02-.56-.27-.51-.64-.53-.2-.01-.43-.14-.59-.29-.54-.5-1.09-.5-1.7-.15-.3.18-.5.11-.52-.27.4-.27.82-.52,1.21-.81.49-.37.98-.59,1.58-.27.42.22.86.03,1.3.02.25,0,.56-.07.64.3.04.19-.1.52.3.35.14-.06.22-.26.33-.39h.27c.72.62,1.62,1.11,1.43,2.3-.03.19.09.33.29.36.67.1,1.08.75,1.76.82Z"/>
  <path class="st78" d="M54.28,50.12c-.51.17-1.02.78-1.52-.11-.12-.22-.64-.21-.97-.31-.52-.16-.35.57-.74.57-.84-.97-1.63-1.96-1.87-3.26-.51-.14-1.11.81-1.6-.1-.01-.76.16-1.48.54-2.14.11.38.22.76.32,1.12.5.25.18-1.21.92-.4.02.02.1.01.12-.01.25-.22-.29-.64.17-.77.2-.06.58.47.61-.2.72.08.56.68.58,1.1.06,1.23.6,2,1.86,2.19.12.03.23.09.33.16.4.57.95.63,1.56.43.23-.16.45-.41.75-.12.3-.01.54.16.8.27-.23,1.24-.56,1.52-1.87,1.6Z"/>
  <path class="st28" d="M43.56,51.72c.06-.21.09-.44.19-.63.34-.63.43-1.18-.36-1.53-.35-.16-.32-.38-.13-.62.35-.42.31-.89.21-1.38-.19-.92.24-1.8.22-2.72,0-.33.41-.17.66-.08.06.16.23.36.18.47-.41.95.27,1.29.89,1.67h0c.28.38.63.51,1.07.27.02,1.63-.66,3.13-.92,4.71-.08.49,0,1.06-.85,1.32-.71.22-.68,1.24-.64,2.01-.31-.12-.42-.43-.64-.63-.32-.29-.33-.36.02-.72.58-.6,0-1.41.08-2.13Z"/>
  <path class="st131" d="M52.57,56.46c.03.22-.11.31-.3.31-.06,0-.13-.07-.19-.1.11-.13.21-.27.32-.4.06.06.11.13.17.19Z"/>
  <path class="st131" d="M56.69,56.28c0,.18,0,.36,0,.53-.28-.18-.27-.36,0-.53Z"/>
  <polygon class="st42" points="51.6 59.22 51.49 59.16 51.54 59.11 51.6 59.22"/>
  <polygon class="st42" points="51.87 59.22 51.93 59.11 51.98 59.16 51.87 59.22"/>
  <path class="st28" d="M45.44,46.9c.03-.19.03-.42.32-.41.03,0,.08.05.08.08.02.3-.21.29-.41.32h0Z"/>
  <path class="st13" d="M52.94,47.97c-.66.34-1.11-.07-1.63-.4-.61-.39-.67-.98-.78-1.58-.09-.5.19-1.07-.27-1.5-.05-1.43-.58-2.86,0-4.29.21-.1.46-.24.45-.45-.03-1.18.86-1.54,1.69-1.96.76.42.34,1.04.26,1.6-.21.9-.5,1.77-.81,2.64-.51,1.43-.04,2.77.68,4.01.36.62.75,1.19.4,1.94Z"/>
  <path class="st37" d="M41.15,60.24c-.41.65-.73.99-1.4,1.37.34-.72.66-1.06,1.4-1.37Z"/>
  <path class="st86" d="M37.5,56.34s-.02-.08-.03-.12c.03,0,.09-.04.1-.03.07.1.05.15-.06.14Z"/>
  <path class="st15" d="M43.03,50.65c.22.11.26.31.27.53h-.13s-.13,0-.13,0c0-.18,0-.35,0-.53Z"/>
  <path class="st36" d="M54.54,66.72c.05-.83.38-1.6.54-2.41.59.19.83-.52,1.33-.53,0,.27,0,.53,0,.8-.1.08-.17.19-.26.27,0,.09,0,.18,0,.27-.26.21-.02.59-.27.8.07,1.03-.19,2-.53,2.97-.45,1.29-.51,2.67-.81,3.99-.27,0-.53.01-.79.02-.23-.03-.4-.09-.34-.41.27-1.68.59-3.35,1.02-4.99.07-.25.08-.52.12-.78Z"/>
  <path class="st60" d="M46.51,69.67c-.24-1.74-.49-3.49-.72-5.23-.05-.39-.06-.79-.09-1.19.05-.74-.09-1.49.1-2.21.49-.07.41.28.46.51.52,2.14.81,4.32,1.07,6.5.13,1.05.19,2.1.35,3.14.04.27.18.58-.13.69-.46.16-.43-.29-.54-.55-.05-.11-.15-.21-.23-.31-.08-.06-.11-.12-.09-.18.03-.06.05-.09.08-.09-.04-.37.12-.79-.27-1.07Z"/>
  <path class="st53" d="M49.11,63.65c.3.1.61.2.57.6-.04.35-.28.56-.62.55-.4,0-.67-.24-.62-.67.04-.37.36-.44.67-.48Z"/>
  <path class="st128" d="M42.22,70.47c0-.47.02-.95.61-1.02.5-.06.7.3.73.75h0c-.1.08-.19.17-.27.27-.36,0-.71,0-1.07,0Z"/>
  <path class="st60" d="M45.97,59.76c0,.08,0,.17,0,.25-.02.15.04.36-.22.36-.03,0-.08-.04-.1-.07-.13-.18-.03-.31.1-.42.06-.05.14-.08.22-.13,0,0,0,0,0,0Z"/>
  <path class="st60" d="M47.85,72.62c-.18,0-.35,0-.53,0,.18-.28.36-.27.53,0Z"/>
  <path class="st109" d="M46.78,70.74c0,.09,0,.18,0,.26-.4.23-.2-.15-.27-.26h.27Z"/>
  <polygon class="st109" points="46.51 70.74 46.4 70.68 46.45 70.63 46.51 70.74"/>
  <path class="st109" d="M43.29,70.47c.09-.09.18-.18.27-.27-.09.09-.18.18-.27.27Z"/>
  <path class="st19" d="M55.88,65.92c0-.29-.05-.61.27-.8,0,.29.05.61-.27.8Z"/>
  <path class="st19" d="M56.15,64.85c.09-.09.17-.18.26-.27-.09.09-.17.18-.26.27Z"/>
  <path class="st59" d="M54.81,77.17c-.12-.06-.25-.24-.19-.26.31-.12.12.17.19.27h0Z"/>
  <path class="st16" d="M53.2,76.63s.11.05.11.06c-.02.09-.06.07-.11-.06h0Z"/>
  <path class="st59" d="M60.7,76.9s.05-.11.06-.11c.09.02.07.06-.06.1h0Z"/>
  <path class="st113" d="M52.4,39.4c-.09-.54.43-1.07,0-1.61.33-.52.37-1.31,1-1.52,1.03-.34,2.1-.62,3.2-.51.26.02.5.17.77.08.33-.11.53.05.6.34.08.35.05.72.61.66.19-.02.22.24.24.42.12.96.52,1.9.09,2.88-.03.07.12.21.18.32-.01.29.05.61-.27.8-.96-.53-2.4.33-3.07-1.08-.16-.33-.3-.55.17-.66.07-.08.16-.09.25-.03-.14-.22-.23.11-.35.03-.87.77-1.9,0-2.83.3-.27.09-.48-.17-.6-.43Z"/>
  <path class="st4" d="M56.15,39.4c-.13.27-.82.61.09.73.16.02.42-.07.4.16-.09,1.26.36.5.8.27.42-.22,1.07-.57.96.48-.02.18.25.21.42.23-.3,1.19-.19,2.46-.72,3.6.5,1.11-.75,1.55-.92,2.41-.08.4-.42.41-.73.41-.46,0-.89.04-1.11.54-.35.01-.53.19-.54.54-.59-.34-1.33-.34-1.87-.8h0c-.28-.74-.09-1.75-1.18-2.02-.05-.01-.12-.16-.1-.22.26-.86-.42-1.58-.35-2.44.08-.96.31-1.81.77-2.65.2-.36-.09-.9.33-1.24.39.11.9.68,1-.3.03-.34.35-.24.48-.07.2.28.27.65.67.76.13.03.26.11.37-.01.1-.11.02-.23-.05-.34-.25-.45.03-.61.35-.4.31.2.56.4.94.36Z"/>
  <path class="st78" d="M56.42,48.24c-.09.09-.18.18-.27.26.09-.09.18-.18.27-.26Z"/>
  <path class="st85" d="M66.75,39.75c.11-.05.18-.02.19.09,0,.02-.06.06-.1.07-.08.02-.16.02-.25.03.05-.06.1-.13.15-.18Z"/>
  <path class="st85" d="M64.19,39.94c.09-.09.18-.18.26-.27-.09.09-.18.18-.26.27Z"/>
  <path class="st85" d="M63.93,40.47c.09-.09.17-.18.26-.27-.09.09-.17.18-.26.27Z"/>
  <path class="st118" d="M54.55,50.92c.22,0,.45,0,.67.03.37.06.53.34.48.68-.03.24-.28.32-.51.34-.37.03-.6-.11-.62-.51,0-.18,0-.36,0-.53,0,0,0,0,0,0Z"/>
  <path class="st13" d="M52.94,47.97c.7.1,1.49-.03,1.87.8-1.27.19-1.57.06-1.87-.8Z"/>
  <path class="st114" d="M44.7,51.37c.41.25.32.58.31.88,0,.3-.24.37-.46.35-.25-.02-.18-.26-.18-.42,0-.32.19-.55.33-.8Z"/>
  <polygon class="st4" points="56.15 39.4 56.21 39.29 56.26 39.34 56.15 39.4"/>
</svg>