<?xml version="1.0" encoding="UTF-8"?>
<svg id="DESIGNED_BY_FREEPIK" xmlns="http://www.w3.org/2000/svg" version="1.1" viewBox="0 0 136.26 250">
  <!-- Generator: Adobe Illustrator 30.3.0, SVG Export Plug-In . SVG Version: 2.1.3 Build 182)  -->
  <defs>
    <style>
      .st0 {
        fill: #785a4a;
      }

      .st1 {
        fill: #634a3d;
      }

      .st2 {
        opacity: .2;
      }

      .st2, .st3 {
        fill: #fff;
      }

      .st4 {
        fill: #fafbfd;
      }
    </style>
  </defs>
  <path class="st3" d="M108.72,216.2c-13.46-1.08-26.95-1.55-40.46-1.43-6.59.06-13.17.24-19.75.57-5.61.27-11.77-.11-16.98,2.22-.35.16-.23.7.1.79,5.65,1.57,12.07.31,17.87.11,6.58-.23,13.17-.32,19.75-.26,13.18.12,26.34.81,39.47,1.92,2.51.21,2.5-3.71,0-3.91Z"/>
  <path class="st2" d="M28.05,113.43c-.26,5.93,1.96,53.01,2.56,64.48.6,11.47,0,36.4,1.29,38.77,1.29,2.37,15.99,5.54,36.13,4.35,20.15-1.19,36.37-4.75,38.74-7.52,2.37-2.77,0-41.88,0-50.61s0-42.08-.79-44.59c-.79-2.51-24.88-.44-40.43,0-15.55.44-37.35-8.28-37.5-4.88Z"/>
  <path class="st3" d="M115.43,113.32c-.79-7.12-16.09-14.51-17.93-15.56-1.85-1.06-1.58-21.36-1.58-21.36,0,0,7.38-1.58,8.18-2.11.79-.53,2.12-9.8,0-10.29-9.23-2.11-76.48-1.32-77.8,0-1.32,1.32-2.11,8.44,0,10.81,1.28,1.44,6.59,2.64,6.59,2.64,0,0,2.9,16.35,0,18.99-2.9,2.64-11.34,5.8-12.66,11.34-1.32,5.54,1.85,109.19,2.37,116.31.53,7.12,25.32,7.38,41.93,7.12,16.62-.26,49.32-3.69,50.9-11.34,1.58-7.65.79-99.43,0-106.55ZM112.01,218.02c-1.71,3.56-7.06,8.21-43.88,9.63-36.82,1.42-41.57-3.96-41.84-8.57-.26-4.62-4.09-106.68-1.71-111.43,2.37-4.75,10.15-7.91,12.13-10.15,1.98-2.24-1.05-21.23-1.05-21.23,0,0-4.88-1.45-7.12-2.64s-1.58-6.07,0-7.52c1.94-1.78,73.19-1.05,73.85-.66.66.4.4,5.67-.4,6.73-.79,1.05-8.57,1.71-8.84,2.77-.26,1.05.26,23.87,2.24,25.05,1.98,1.19,15.56,10.55,16.62,14.11,1.05,3.56,1.71,100.35,0,103.91Z"/>
  <path class="st4" d="M80.5,71.2c-5.44-2.17-12.53-1.2-18.29-1.2-5.91,0-12.14.47-18-.02-1.61-.13-2.17,2.27-.81,3.01,5.21,2.82,12.1,2.24,17.86,2.28,6.03.04,14.01.57,19.45-2.48.72-.4.45-1.34-.21-1.6Z"/>
  <path class="st4" d="M89.36,70.3c-.64.68-.64,1.72,0,2.4,1.58,1.67,7.4,2.09,7.4-1.2s-5.82-2.87-7.4-1.2Z"/>
  <path class="st4" d="M107.64,183.41c-.66-.51-1.73-.23-2.29.3-3.1,2.97-2.46,8.47-2.7,12.45-.26,4.23-2.27,9.84,1.13,13.08.95.91,2.3,1.04,3.45.44,4.46-2.32,3.71-9.15,3.8-13.52.09-4.38.38-9.86-3.39-12.74Z"/>
  <path class="st4" d="M109.96,168.09c-.2-1.09-.5-2.1-1.33-2.89-.68-.64-2.08-1.1-2.94-.49-1.61,1.16-1.5,2.64-1.44,4.42.05,1.64-.33,3.46.16,5.03.73,2.33,3.55,2.47,4.88.64,1.28-1.77,1.05-4.67.66-6.71Z"/>
  <path class="st4" d="M104.07,111.29c-12.56.38-24.97,2.56-37.61,2.59-6.13.01-12.26-.19-18.37-.63-6.26-.45-12.98-1.98-19.22-1.38-.84.08-1.48,1.39-.49,1.81,5.14,2.21,11.29,2.52,16.82,3.08,6.74.68,13.52,1.04,20.3,1.12,12.67.15,26.74.24,39.04-3.17,1.87-.52,1.54-3.49-.46-3.43Z"/>
  <path class="st0" d="M96.01,83.35c-10.6,1.03-20.64,3.5-31.43,4.04-10.2.51-20-.51-30.12-.77-.84-.02-1.01.87-.23,1.04,10.08,2.25,21.77,2.08,32.24,1.47,9.77-.57,21.24-1.47,30.01-4.92.69-.27.21-.91-.46-.85Z"/>
  <path class="st1" d="M95.62,85.81c-10.44,1.13-20.34,3.42-30.97,4.15-9.99.69-19.81.24-29.81.34-.76,0-.96.79-.18.91,10.32,1.61,21.66,1.29,32.11.49,9.74-.75,20.75-1.74,29.53-4.81.96-.34.24-1.19-.69-1.09Z"/>
  <path class="st0" d="M96.13,90.93c-10.55-1.01-20.74-1.18-31.35-2.83-10.48-1.63-21.05-4.57-31.52-5.75-.65-.07-.94.52-.26.74,10.18,3.25,22.01,5.04,32.64,6.63,9.81,1.47,21.28,3.11,30.69,1.95.53-.07.36-.69-.2-.74Z"/>
  <path class="st2" d="M36.12,204.99c3.4,11.02,20.22,9.51,28.98,8.56,5.99-.65,13.15-.66,16.85-6.32,3.33-5.09,2.64-11.04,2.67-16.85.05-9.78.1-19.57.15-29.35.05-10.19.08-20.52-2.49-30.37-.76-2.89-1.85-5.9-4.22-7.72-1.93-1.48-4.42-1.96-6.83-2.3-8.6-1.2-19.27-2.91-27.71-.03-7.68,2.61-8.09,10.7-8.18,18.16-.15,12.69-.23,25.4.57,38.08.5,8.05-1.59,16.09-.59,24.17.19,1.54.46,2.85.81,3.98Z"/>
</svg>