<?xml version="1.0" encoding="UTF-8"?>
<svg id="DESIGNED_BY_FREEPIK" xmlns="http://www.w3.org/2000/svg" version="1.1" viewBox="0 0 100 100">
  <!-- Generator: Adobe Illustrator 30.3.0, SVG Export Plug-In . SVG Version: 2.1.3 Build 182)  -->
  <defs>
    <style>
      .st0 {
        fill: #b34ff5;
      }

      .st1 {
        fill: #cb6efc;
      }

      .st2 {
        fill: #d57dfc;
      }

      .st3 {
        fill: #de7eff;
      }

      .st4 {
        fill: #d474fb;
      }

      .st5 {
        fill: #d657f9;
      }

      .st6 {
        fill: #d56cfc;
      }

      .st7 {
        fill: #d558f8;
      }

      .st8 {
        fill: #d872fc;
      }

      .st9 {
        fill: #e286fd;
      }

      .st10 {
        fill: #d983fc;
      }

      .st11 {
        fill: #e69aff;
      }

      .st12 {
        fill: #d16afb;
      }

      .st13 {
        fill: #d678ff;
      }

      .st14 {
        fill: #e293ff;
      }

      .st15 {
        fill: #bd50f4;
      }

      .st16 {
        fill: #da97ff;
      }

      .st17 {
        fill: #e08cff;
      }

      .st18 {
        fill: #d15ef9;
      }

      .st19 {
        fill: #d989fc;
      }

      .st20 {
        fill: #bd4ef5;
      }

      .st21 {
        fill: #d972fd;
      }

      .st22 {
        fill: #e387fe;
      }

      .st23 {
        fill: #db6bfc;
      }

      .st24 {
        fill: #d58cff;
      }

      .st25 {
        fill: #d153f7;
      }

      .st26 {
        fill: #d457f7;
      }

      .st27 {
        fill: #df6efc;
      }

      .st28 {
        fill: #d57ffb;
      }

      .st29 {
        fill: #cf53ee;
      }

      .st30 {
        fill: #dc71fd;
      }

      .st31 {
        fill: #c87af9;
      }

      .st32 {
        fill: #ea9bff;
      }

      .st33 {
        fill: #c452f7;
      }

      .st34 {
        fill: #b343e1;
      }

      .st35 {
        fill: #c572f2;
      }

      .st36 {
        fill: #e794ff;
      }

      .st37 {
        fill: #c144e5;
      }

      .st38 {
        fill: #d65ff7;
      }

      .st39 {
        fill: #dc97ff;
      }

      .st40 {
        fill: #da6afb;
      }

      .st41 {
        fill: #e692fd;
      }

      .st42 {
        fill: #bc57f5;
      }

      .st43 {
        fill: #d051f6;
      }

      .st44 {
        fill: #a642dd;
      }

      .st45 {
        fill: #ce72fb;
      }

      .st46 {
        fill: #ce7eff;
      }

      .st47 {
        fill: #db74fb;
      }

      .st48 {
        fill: #c754f6;
      }

      .st49 {
        fill: #de6efc;
      }

      .st50 {
        fill: #e48cfd;
      }

      .st51 {
        fill: #eab0ff;
      }

      .st52 {
        fill: #bf62f8;
      }

      .st53 {
        fill: #e17dfc;
      }

      .st54 {
        fill: #e797ff;
      }

      .st55 {
        fill: #db70fc;
      }

      .st56 {
        fill: #a044dc;
      }

      .st57 {
        fill: #d66bfc;
      }

      .st58 {
        fill: #be51f4;
      }

      .st59 {
        fill: #df76fc;
      }

      .st60 {
        fill: #e17cff;
      }

      .st61 {
        fill: #d583fd;
      }

      .st62 {
        fill: #df7bff;
      }

      .st63 {
        fill: #e8a2fe;
      }

      .st64 {
        fill: #e489ff;
      }

      .st65 {
        fill: #d870fd;
      }

      .st66 {
        fill: #da91ff;
      }

      .st67 {
        fill: #c54ff4;
      }

      .st68 {
        fill: #cc4beb;
      }

      .st69 {
        fill: #e287ff;
      }

      .st70 {
        fill: #d052f7;
      }

      .st71 {
        fill: #ba56f5;
      }

      .st72 {
        fill: #c66df9;
      }

      .st73 {
        fill: #e1a4ff;
      }

      .st74 {
        fill: #d68bfe;
      }

      .st75 {
        fill: #c552f4;
      }

      .st76 {
        fill: #be5ff7;
      }

      .st77 {
        fill: #e9affe;
      }

      .st78 {
        fill: #f1b5fe;
      }

      .st79 {
        fill: #c871f9;
      }

      .st80 {
        fill: #ca4ff4;
      }

      .st81 {
        fill: #c871ff;
      }

      .st82 {
        fill: #d357f8;
      }

      .st83 {
        fill: #cb67fb;
      }

      .st84 {
        fill: #c854f6;
      }

      .st85 {
        fill: #d459f8;
      }

      .st86 {
        fill: #d27bfd;
      }

      .st87 {
        fill: #df97ff;
      }

      .st88 {
        fill: #c554f6;
      }

      .st89 {
        fill: #db91ff;
      }

      .st90 {
        fill: #d685ff;
      }
    </style>
  </defs>
  <path class="st60" d="M52.73,29.74c0,.06,0,.12.03.18.14.17.09.37.1.56-.15.31.02.67-.14.97-.04.09-.08.18-.12.26-.15.77.38,1.51.12,2.29-.04.1-.1.18-.19.25-.11.02-.21,0-.29-.06-.07-.05-.15-.25-.23-.13-2.88,4.01-6.78,6.13-11.72,6.32-.91.07-1.81-.07-2.7-.21-2.03-.32-4.05.08-6.07.02-.56-.02-1.13.04-1.68-.15-.52-.32-1.13-.58-.92-1.38.2-.39.59-.42.96-.48,1.52-.28,3.04-.28,4.58-.01,1.84.32,3.69.66,5.56.14,3.58-.55,6.69-1.96,9.26-4.61.91-.94,1.83-1.72,1.58-3.18.03.53-.28.99-.28,1.52,0,.23-.03.47-.25.59-1.43.75-2.26,2.16-3.5,3.12-.4.31-.81.65-1.3.3-.52-.37-.11-.8.02-1.2,1.04-.73,2.15-1.37,3.09-2.26,1.04-.98,1.09-1.72.16-2.82-.56-.67-1.31-.98-2.14-1.17-3.1-.71-6.2-.58-9.28.14-2.77.65-5.53,1.01-8.38.67-1.29-.15-2.53.23-3.73.72-.41.17-.8.45-1.28.35-.22-.24-.44-.45-.77-.56-.46-.16-.73-.5-.63-1.04,1.34-2.25,2.89-3.02,5.41-2.56.84.15,1.73-.04,2.53.36.84.42,1.75.14,2.61.23.11,0,.22.01.33.03,1.95.09,3.86-.22,5.74-.71.09-.05.19-.07.3-.08,1.44-.1,2.88.09,4.34-.06,1.89-.19,3.73.31,5.39,1.23,1.02.56,2,1.2,3.06,1.7.07.07.15.15.21.23h0c.16.11.12.33.22.48Z"/>
  <path class="st78" d="M39.43,26.3c-.07,0-.15,0-.22,0-.76.47-1.65.45-2.47.51-1.07.09-2.11.37-3.18.38h-.11s-.11,0-.11,0c-.96-.32-1.98.1-2.94-.23-1.67-.28-3.34-.69-5.05-.25-.65.16-1.17.46-1.54,1.01-.31.47-.83.76-1.09,1.27-1.38,2.17-3.21,3.87-5.57,4.82-1.47.6-2.72,1.37-3.78,2.52-.24.19-.38.42-.48.71-.22.65-.68.79-1.29.53-.05-.16-.06-.32.07-.45h0c.13-.12.09-.33.22-.45h0c.22-.18.03-.5.23-.68h0c.13-.12.09-.33.23-.45h0c.07-.07.15-.15.22-.23h0c.15-.12.1-.33.24-.45h0c.13-.12.09-.33.23-.45h0c.07-.08.15-.15.23-.23h0c.07-.08.15-.15.22-.23h0c.06-.06.1-.14.12-.22.02-.09.06-.16.12-.22h0c.07-.08.14-.16.23-.23h0c.07-.08.15-.16.23-.23h0c.07-.08.15-.16.23-.23h0c.12-.14.33-.09.45-.23h0c.08-.07.15-.15.23-.22h0c.12-.14.34-.1.47-.22.07,0,.14,0,.21-.01.12-.13.33-.08.45-.22h0c.12-.13.33-.09.45-.23h0c.12-.13.33-.09.45-.23h0c.08-.08.16-.15.25-.22.07,0,.13,0,.2,0,.12-.13.33-.08.45-.23h0c.08-.07.15-.15.23-.22h0c.07-.08.15-.16.23-.22h0c.05-.05.11-.1.18-.12.06-.04.12-.09.15-.15.03-.07.07-.13.13-.18h0c.06-.06.13-.1.22-.12.09-.02.16-.05.22-.12h0c.08-.07.15-.15.23-.22h0c.08-.07.15-.15.23-.23h0c.08-.07.15-.15.23-.23h0c.08-.07.15-.15.22-.23h0c.05-.06.1-.13.13-.2.02-.03.05-.06.07-.1.05-.06.11-.12.17-.18.03-.03.06-.06.09-.09.06-.06.12-.11.17-.17.03-.03.06-.06.09-.08.09-.09.1-.22.2-.31h0c.07-.08.15-.16.23-.23h0c.07-.08.15-.16.23-.22h0c.05-.05.12-.09.19-.13.06-.04.13-.09.19-.14.03-.02.06-.05.09-.07.07-.03.14-.07.19-.13h0c.08-.07.15-.15.23-.22h0c.21-.17.47-.28.67-.45h0c.08-.07.15-.15.23-.22h0c.12-.13.33-.09.46-.23h0c.12-.13.33-.09.45-.23h0c1.05-.18,2.11-.18,3.16,0h0c.18.21.5.02.68.23h0c.38.18.76.17,1.15,0,.07,0,.13,0,.2,0,.41.23.86.06,1.29.11.11,0,.21.03.3.11.07,0,.15.01.22,0,.23.16.46.16.7,0,.22,0,.45,0,.67-.01.19-.19.5,0,.68-.21.15,0,.3-.01.46-.02.2-.17.49,0,.68-.2.15,0,.3-.01.45-.02.19-.18.5,0,.68-.21.22,0,.45-.01.67-.02.07-.06.16-.09.25-.1.22-.02.46.06.66-.11.3,0,.59-.01.89-.02.13-.12.34-.08.46-.21.15,0,.29,0,.44-.01.81-.29,1.68.09,2.49-.21.14,0,.28,0,.43,0,.94.24,1.9.05,2.84.11.19,0,.39-.03.55.1h.44c.27.25.65,0,.92.23.07,0,.15.01.22,0,.13.13.3.11.46.12.08.01.16.05.22.1h0c.12.14.33.09.45.22.07.01.14.02.22.01.04.13,0,.23-.1.32-1.04.37-2.05-.11-3.07-.18-1.4-.09-2.75.12-4.1.35-.51.09-1.02.12-1.52.18Z"/>
  <path class="st51" d="M60.89,30.15c.07,0,.14,0,.22,0,.08-.07.17-.1.27-.1.29-.04.6.09.86-.11h0c.17-.15.38-.11.59-.12,1.16.05,2.32-.11,3.47.1.22,0,.44.01.66.02.08.06.16.13.24.2.22.01.44.02.66.03.08.06.16.13.25.2.07.01.15.02.22.02.07.07.15.13.23.19.07.02.14.03.22.04.08.07.17.14.24.21.07.01.14.02.21.02.13.12.35.08.47.23h0c.08.06.15.14.24.2h0c.06.09.13.16.22.22l.02.02c.06.08.13.16.21.22h0c.12.13.08.34.22.45h0c.13.14.09.34.21.48,0,.07,0,.14.01.21.16.45.19.94.44,1.36h0c.06.06.1.13.12.22.02.09.05.16.11.23h0c.08.07.16.14.22.23h0c.06.04.1.1.13.17.04.07.08.12.15.17.03.02.06.05.09.07.06.05.11.1.16.17.02.03.04.06.07.1.05.06.11.12.16.17.03.03.06.06.08.09.09.08.22.1.3.19h0c.13.12.34.08.46.22h0c.78.2,1.55.18,2.32-.08,1.42-.01,2.85-.2,4.23.31h0c.26.24.65-.02.91.22h0c.29.15.61.22.89.38.14.12.33.17.47.3h0c.08.05.16.1.24.14.04.03.07.06.11.1.16.18.38.28.56.44h0c.09.06.16.15.23.24,0,.07.01.13.03.2.07.13.04.22-.08.29-.67.06-1.28-.28-1.95-.26-1.17-.31-2.37-.13-3.55-.16-.74,0-1.47.02-2.21-.05-.11-.01-.23-.04-.34-.07-.36-.14-.75-.14-1.13-.2-1.22-.36-2.32-.88-2.85-2.15-.47-.66-.92-1.33-1.59-1.81-.7-1.02-1.74-1.57-2.86-1.98-2.51-.79-5.01-.64-7.5.11-1.07.18-2.15.45-3.24.07-.11-.1-.11-.2,0-.31.07,0,.13,0,.2-.02.08-.07.16-.15.25-.21.07,0,.14,0,.2-.02.08-.07.15-.14.23-.21h0c.07-.07.16-.11.26-.12.25-.05.44-.2.65-.34h0c.12-.14.33-.09.46-.23.07,0,.15,0,.22-.02.13-.12.33-.08.45-.21h0c.26-.24.65.02.91-.22.07,0,.15,0,.22,0,.27-.23.65.03.91-.22Z"/>
  <path class="st63" d="M14.61,50.68c.02-.07.02-.14.01-.21.2-.27.07-.58.11-.88,0-.1.04-.19.11-.27h0c.23-.37.06-.77.11-1.16-.02-.73.04-1.46,0-2.19-.02-.54.05-1.09-.04-1.63-.06-.08-.12-.17-.17-.26-.06-.13.21-.2.06-.35-.05-.09-.08-.18-.08-.28.03-.25-.1-.51.09-.74.36-.16.59,0,.74.32-.03.17-.02.32.21.35.29.11.63.28.55.62-.45,1.75.44,3.51-.06,5.27-.67,2.4-.54,4.94-1.34,7.32-.18.53-.1,1.03-.06,1.55,0,.28-.11.57.03.84.03.1.02.19-.02.28-.24.29-.53.44-.91.29-.29-.23-.09-.69-.43-.89-.09-.07-.14-.15-.15-.26.02-.11.06-.21.12-.31.31-.72-.09-1.51.23-2.22h0c.28-.41-.05-.93.22-1.35.01-.07.02-.14.01-.21.26-.35-.05-.8.22-1.15h0c.23-.41.06-.85.11-1.28,0-.11.04-.21.12-.3h0c.24-.26-.02-.64.21-.9Z"/>
  <path class="st10" d="M77.75,72.77c-.06,0-.12,0-.18.04-.08.07-.16.14-.24.2h.01c-.17.22-.5.03-.68.23h0c-.12.14-.33.1-.46.22h0c-.12.14-.33.11-.47.22h0c-.05.06-.12.1-.2.12-.16,0-.33-.01-.46.12h0c-.13.13-.33.1-.47.21h.01c-.12.13-.26.12-.42.09-.06-.05-.08-.1-.08-.16,0-.06.01-.1.02-.09.04-.08.13-.15.08-.26-.04.1-.02.23-.14.3-.74-.03-1.44-.1-1.52-1.06,1.35-.69,2.84-1.06,4.16-1.83.5-.33,1.06-.32,1.62-.3.09-.02.19-.05.28-.07.3-.79.8-1.24,1.7-.98,0,0-.04-.11-.04-.11,0,0-.11-.02-.11-.03-.35-.45-.04-.6.31-.73.17.06.25,0,.23-.18.1-.11.24-.17.39-.2.62-.04.92.18.69.84-.1.28-.12.57-.26.84-.08.16-.23.24-.36.35h-.01c-.09.07-.16.15-.24.21h0c-.07.08-.15.16-.24.22h.01c-.11.14-.33.09-.44.24h0c-.08.07-.15.16-.24.22h0c-.08.09-.2.11-.3.18-.06.06-.11.11-.18.16-.07.03-.14.07-.21.11h0c-.08.09-.2.11-.3.18-.06.06-.11.11-.18.16-.07.03-.14.06-.21.11h0c-.12.16-.33.09-.49.17-.07.06-.14.12-.21.17-.08.03-.17.07-.25.1Z"/>
  <path class="st73" d="M87.95,52.27c0,.07,0,.14.02.22.09.1.08.2,0,.3-1.44.74-1.53.71-2.11-.73-.56-1.4-1.86-2.2-2.69-3.39-.3-.43-.7-.78-.6-1.37.03-.15.08-.3.14-.44.03-.09.07-.18.11-.27.11-.31.09-.68.38-.92.1-.04.18-.01.24.07,0,.07,0,.14.02.21.12.13.07.33.21.45h0c.08.08.1.19.15.28.05.05.1.1.15.15.07.08.15.15.23.22.07.08.15.15.24.21.06.04.12.09.17.14,0,0,.08.08.08.08.05.05.1.1.14.17,0,0,.06.09.06.09.04.06.09.11.15.16,0,0,.08.08.08.08.05.05.1.1.16.15,0,0,.09.07.09.07.06.04.12.09.17.15.03.03.05.05.08.08.05.05.1.12.14.18.02.03.03.07.05.1.03.07.06.14.11.2h0c.09.06.16.14.24.22h0c.08.07.16.14.23.23h0c.14.11.1.32.24.44h0c.07.08.15.15.22.23h0c.14.11.09.33.24.44h0c.12.13.08.34.22.45h0c.07.09.15.17.21.27,0,.07,0,.13.02.19.13.12.08.33.22.45.13.13.09.34.22.47Z"/>
  <path class="st16" d="M81.41,38.27c.66-.06,1.23.24,1.83.43.08-.06.14-.05.2.03h0c.14.1.09.32.24.43h0c.12.14.09.34.21.47h0c.22.18.04.5.22.7-.01.06,0,.13,0,.19.18.75.2,1.5,0,2.26h0c-.19.18-.01.49-.22.68h0c-.2.18-.02.5-.23.68h0c-.09.07-.18.07-.28,0-.1-.12-.17-.27-.22-.42-1-1.05-.91-2.35-.8-3.65.05-.09.19-.18.17-.22-.06-.13-.09.13-.18.04-.48-.44-1.08-.81-.95-1.62Z"/>
  <path class="st73" d="M88.4,54.31c0,.07,0,.14,0,.2.25,1.44.05,2.9.11,4.35,0,.14-.03.27-.11.39-.01.07-.02.13,0,.2-.09.06-.18.06-.27,0-.27-.36-.69-.56-.95-.92-.07-.08-.12-.17-.17-.26-.26-1.01-.3-2.06-.29-3.08,0-.56-.04-1.29.79-1.53.32-.09.18-.54.41-.75.11-.07.19-.04.26.06.01.14.02.28.03.42.2.28-.03.65.2.92Z"/>
  <path class="st77" d="M13.7,58.58c.57.17.23.58.24.9.7.02,1.08.3,1.15,1.08.05.6.02,1.02-.64,1.15-.08.04-.17.08-.26.11-.1.02-.18,0-.24-.09h0c-.27-.34.04-.79-.23-1.14,0-.07,0-.14,0-.21-.18-.6-.16-1.2-.01-1.8Z"/>
  <path class="st3" d="M52.53,31.5c.06-.31.06-.63.24-.91.09-.1.16-.09.2.05,0,.13,0,.27.01.4.12.82-.13,2.54-.44,2.96-.1-.58.18-1.21-.34-1.75-.28-.29.01-.59.33-.76Z"/>
  <path class="st77" d="M14.18,62.83c0-.06,0-.13,0-.19-.18-.29-.15-.59-.02-.89l.03-.03c.28-.16.56-.14.91.02-.04.45-.41.74-.61,1.11-.1.09-.2.09-.29-.01Z"/>
  <path class="st5" d="M23.87,30.37c.58-.06,1.01-.48,1.55-.64,1.43-.43,2.82-.73,4.38-.55,2.46.29,4.94,0,7.32-.72,1.05-.32,2.14-.42,3.2-.52,2.26-.21,4.54-.17,6.77.43,1.16.31,2,.98,2.53,2.05.37.76.29,1.31-.31,1.93-1.1,1.14-2.39,2.01-3.77,2.76-.03.04-.06.08-.08.12-.15.13-.32.24-.51.33-.31.12-.62.25-.89-.07-.61-1.03-1.67-1.24-2.71-1.4-3.5-.55-6.96-.18-10.4.56-2.31.5-4.43,1.43-6.49,2.54-1.33.72-2.72,1.29-4.19,1.62-.77.18-.73.45-.22.89-1,.88-2.63.93-4.04.13-.92-1.68-.78-2.53.45-3.93,1.72-1.96,3.67-3.65,5.87-5.03.46-.29.92-.7,1.55-.5Z"/>
  <path class="st32" d="M15.98,39.61c1.35.63,2.7.67,4.05,0,.03-.04.06-.07.1-.11.3-.16.66-.12.97-.26.09-.04.19-.06.29-.08.37-.05.72-.14,1.02-.36,1.99-.88,3.96-1.75,6.16-2.08,1.55-.23,3.07-.72,4.67-.59.49.04.98,0,1.42.26,1.3.59,2.54,1.43,4.09.7.5-.23,1.12-.02,1.64.14.61.19.57.65-.04,1.25-1.11.33-2.19.42-3.38.33-1.78-.14-3.51-.74-5.31-.55-.87.09-1.76.1-2.59.45-1.11.52-2.39.51-3.46,1.13-.47.28-1.2.35-.59,1.25.32.46-.3.73-.66.98-.99.49-2.03.85-3.08,1.19-1.86-.03-3.72.55-5.58.05-.06-.03-.11-.06-.17-.09-.13-.31-.36-.46-.7-.44-.14,0-.28,0-.43-.01-.17-.24-.42-.22-.67-.24-.1-.17-.27-.22-.46-.22-.1-.17-.27-.22-.45-.23-.09-.17-.26-.22-.43-.25-.08-.07-.16-.14-.24-.21,0,0,0,0,0,0-.08-.07-.17-.14-.23-.23h0c-.09-.06-.16-.15-.23-.23h0c-.01-.18-.06-.34-.22-.45,0-.82,0-1.65-.01-2.47,0-.07.01-.14,0-.22.17-.11.19-.28.23-.45.53-.1,1.03-.19,1.03-.92,0-.24.23-.44.53-.44.34.38.16.78-.03,1.13-.23.42-.24.85-.21,1.29.05.68.36,1.03,1.14,1.03.61,0,1.2-.47,1.82-.06Z"/>
  <path class="st36" d="M15.98,39.61c-.64,0-1.18.5-1.89.32-.26-.07-.66.26-.9-.1-.26-.39-.63-.78-.5-1.3.11-.45.02-.93.33-1.34.19-.25.27-.61.23-.96.87-1.17,1.95-2.01,3.38-2.47,1.58-.51,2.91-1.46,4.03-2.73.64-.71,1.45-1.28,2.07-2.02,0,.52.39.63.79.75.29.08.57.22.34.61-1.86.78-3.32,2.11-4.86,3.35-.97.78-1.68,1.79-2.59,2.61-.62.56-.9,1.15-.69,1.97.11.43.17.88.25,1.31Z"/>
  <path class="st38" d="M40.57,40.07c.95.06,1.87-.07,2.77-.36.89-.29,1.82-.46,2.64-.92.84-.47,1.71-.9,2.5-1.49.76-.57,1.3-1.39,2.09-1.87.87-.53,1-1.5,1.56-2.26.28.38.14.72.18,1.03.09.62.63,1.14.45,1.83-.97.36-1.88.73-2.49,1.73-.34.56-1.24.75-1.65,1.42-.05.08-.27-.05-.37-.17-.08-.08.04-.24-.04-.27-.1-.03-.06.15-.14.19-.89.31-1.39,1.41-2.54,1.2.09.95.74.82,1.32.74.48-.07.93-.29,1.43-.17.51.13,1.07.24.83,1.01-1.61.71-3.31.59-4.97.38-.76-.1-1.51-.25-2.28-.21-.47-.21-.95-.42-1.48-.42-.12-.02-.23-.05-.34-.08-.29-.15-.69-.21-.64-.67.09-.74.8-.35,1.16-.62Z"/>
  <path class="st41" d="M40.34,38.49c.1-.29.51-.5.21-.89-.23-.3-.52-.14-.81-.18-.61-.08-1.16,0-1.7.29-.06.04-.15.08-.21.07-1.08-.26-2.23-.33-3.14-1.09.16-.18.38-.26.61-.22,2.56.39,5.04,0,7.48-.79.18-.06.36-.08.54-.12.17-.05.35-.08.53-.1.12-.01.23.02.32.11.3-.08.6-.15.9-.23.12-.13.34-.08.46-.22h0s.06.04.09.07c.3.25-.47.5-.01.73.41.21.74-.03.99-.31.85-.93,1.89-1.68,2.65-2.7.04-.06.12-.1.15-.16.19-.37,1.38.08.77-.94.31-.48.52-.98.35-1.58-.05-.16-.03-.4.23-.43.23-.02.33.16.38.34.27.93-.19,2.53-.94,3.1-.82.63-1.56,1.37-2.3,2.09-.46.45-1,.8-1.55,1.1-1.89,1-3.84,1.83-6,2.06Z"/>
  <path class="st23" d="M40.57,40.07c-.09.12-.2.21-.35.21-.32.01-.59.13-.61.47-.02.32.44.18.51.45-.62.66-1.23.1-1.84-.03-2.64-.46-5.29-.07-7.93-.01-1.24.3-2.47.66-3.67,1.11-.52.18-1.06.28-1.58.46-.25.1-.5.2-.75.29-.78.22-1.5.58-2.26.84-.32.08-.64.24-.97.05-.2-.39.03-.65.28-.9.94-.47,1.95-.76,2.94-1.13,1.34-.79,2.7-1.53,4.23-1.89.39-.09.76-.34,1.18-.14.71,0,1.43.01,2.14,0,.93-.02,1.86-.08,2.79-.16,1.29-.11,2.61.04,3.9.24.67.11,1.34.11,2.01.15Z"/>
  <path class="st3" d="M52.75,36.01c-.24-.58-.8-1.08-.45-1.81h.22c.12.2.29.24.46.08.24-.23.46-.49.7-.73.31-.03.53-.19.66-.47.08-.07.16-.13.25-.2.29-.05.52-.2.68-.45.18-.02.34-.08.44-.24.08,0,.15,0,.23,0,1.05-.02,2.1-.05,3.14-.24.31.93-.55,1.03-1.02,1.32-.66.43-1.34.75-1.73,1.53-.22.44-.34.7.1,1.03.35.26.24.59.06.91-.23.31-.57.47-.91.61-.85.5-1.61.45-2.23-.38-.08-.05-.16-.12-.23-.18-.17-.17-.3-.37-.36-.62,0-.05,0-.1,0-.14Z"/>
  <path class="st22" d="M51.84,28.13c.07.08.13.16.2.24.03.17.08.33.24.43.01.14.02.29.04.43-.38.02-.64-.83-1.1-.15-.12-.09-.24-.17-.35-.27-.84-.81-1.77-1.48-2.96-1.68-.07-.01-.14-.05-.2-.09-.39-.28-.88-.32-1.28-.64-.29-.22-.84.25-1.3.12-1.27-.37-2.57.19-3.86-.15-.55-.15-1.22.35-1.82-.08,2.11-.72,4.26-1.04,6.5-.74.77.1,1.52.37,2.31.29h0c.88.35,1.71.8,2.48,1.36.07.01.14.02.21.02h0c.09.05.17.13.24.21h0c.09.21.24.36.45.46.07.08.15.16.22.23Z"/>
  <path class="st64" d="M29.74,39.85c-.98.34-1.96.67-2.94,1.02-.48.17-.98.28-1.35.72-.27.32-.73.29-1.13.29.17-.14.36-.27.5-.44.13-.16.18-.34-.12-.4-.73-.14-.36-.58-.21-.89.09-.18.33-.32.53-.4,1.31-.49,2.57-1.17,4.04-1.04,0,.31,0,.6.39.7.21.05.26.24.29.43Z"/>
  <path class="st22" d="M33.56,27.2c.38-.39.94-.35,1.36-.36,1.45-.05,2.86-.41,4.29-.53.03.16.19.39-.11.44-.73.1-1.46.21-2.19.23-.68.01-1.33.1-1.96.34-.47.18-.94.05-1.39-.1Z"/>
  <path class="st22" d="M30.41,26.98c.71,0,1.41,0,2.12,0,.29,0,.6-.05.82.22-.71,0-1.41,0-2.12,0-.29,0-.61.06-.82-.23Z"/>
  <path class="st74" d="M81.41,38.27c.25.62.71,1.08,1.13,1.58-.11.93.18,1.83.17,2.75,0,.21,0,.52.43.49.4-.02.27.36.3.59-.32-.19-.36.11-.48.28-.9.51-1,1.36-.95,2.27.02.11.02.22,0,.33-.46,1.39-.54,2.87-1,4.26-.37,1.12-.9,2.14-2.01,2.71-.98-.32-1.46-.98-1.24-2.39.15-.93-.02-1.67-.38-2.45-.11-.24-.1-.51-.11-.78.07-1.57,1.25-2.67,1.74-4.07.25-.71.53-1.38.52-2.14.02-.34.09-.67.32-.93.21-.24.55-.4.14-.8-.24-.24-.09-.56.23-.73.19-.1.47-.16.33-.46-.11-.22-.37-.22-.6-.23-.52-.03-1.05.02-1.57-.04-.33-.04-.8.1-.83-.48,1.28.05,2.58-.17,3.84.22Z"/>
  <path class="st13" d="M56.36,36.68c.2-.48-.01-.73-.46-.92-.45-.19-.54-.52-.08-.82.3-.19.42-.38.48-.77.09-.53.71-.66,1.15-.86.44-.21.82-.5,1.24-.73.25-.14.37-.36.37-.64,2.29-.87,4.64-.86,7.01-.4.31.06.67.1.89.4-.3.36-.64.61-.68,1.2-.04.55-.42,1.13-1.19,1.04-.09-.03-.06-.22-.16-.19-.07.02.09.14.02.23-.15.3-.43.39-.74.44-.21.03-.41.03-.62.04-.27,0-.52.07-.76.18-1.32.38-2.66.68-3.98,1.07-.5.1-.95.32-1.39.55-.09.05-.18.08-.27.11-.28.06-.55.21-.85.05Z"/>
  <path class="st81" d="M64.26,34.43c.32,0,.55-.15.68-.45h0c.54,0,1.3-.52,1.16-.92-.33-.93.3-.97.87-1.11.17.07.33.16.51.21,1.02.26,1.73.9,2.2,1.82.38.73,1.03,1.22,1.59,1.8.03.02.07.03.1.05q1.07,1.23,2.6,1.98c.34.28.79-.03,1.13.22h0c.14.17.13.35,0,.52-1.82.41-3.68.54-5.53.34-.95-.1-1.46-.84-1.63-1.77-.05-.15-.1-.31-.15-.46-.04-.09-.08-.18-.12-.28-.05-.09-.09-.18-.14-.26-.05-.08-.11-.17-.16-.25-.35-.57-.93-.71-1.52-.85-.51-.26-1.31.25-1.59-.6Z"/>
  <path class="st46" d="M75.09,38.5c0-.15,0-.31,0-.46.83,0,1.65,0,2.48.01.29.34.69.2,1.05.22.59.02,1.19-.02,1.79.04.26.02.66.07.6.49-.05.3.08.83-.58.65-.2-.06-.36.1-.33.33.03.26.22.21.41.21.47.01.39.27.15.49-.37.34-.95.51-.83,1.19-.77-.39-.82-1.42-1.6-1.82-.65-.36-1.41-.38-2.08-.65-.4-.16-.87-.2-1.06-.69Z"/>
  <path class="st24" d="M71.27,35.78c-.12-.08-.24-.21-.37-.23-.94-.12-1.09-.84-1.22-1.57.82.34,1.22,1.06,1.59,1.8Z"/>
  <path class="st46" d="M75.1,38.04c-.38-.05-.82.16-1.13-.22.38.05.81-.14,1.13.22Z"/>
  <path class="st11" d="M14.85,64.21c-.01-.18-.06-.35-.24-.44,0-.18-.04-.35-.21-.46,0-.15,0-.3-.01-.45,0-.41-.07-.84.42-1.1-.21-.01-.43-.02-.64-.03,0-.04,0-.08,0-.11.09-.41.74.08.74-.44,0-.45-.25-.84-.27-1.3-.02-.3-.58-.06-.72-.39.36-.04.67-.16.9-.45.54-.69,1.29-.49,1.99-.46.39.02.77.25,1.16-.01.07-.07.13-.14.18-.22.13-.47-.39-.68-.43-1.09-.02-.27-.03-.52.19-.71.22-.18.55-.26.72-.07.6.68,1.18.3,1.79.08.52-.19,1.09-.18,1.64-.23.15-.04.33-.11.44-.01,1.04,1.03,2.38,1.66,3.42,2.71.7.71,1.17,1.65,2.22,2.06.61.24,1.23.65,1.44,1.46.12.44.73.65,1.15.82.78.32.91.83.68,1.52-.19.57-.27,1.06.27,1.51.29.24.35.66.27,1.05-.1.48-.45.72-.78.32-1.04-1.24-2.32-1.21-3.77-1.05-.53.06-.41.12-.34.43.05.22.05.45-.19.59-.15.06-.3.06-.46.01-.18-.08-.3-.24-.43-.38-.07-.08-.13-.17-.15-.27,0,.01-.01-.06-.01-.06,0,0-.08.03-.09.04-.11.04-.22.05-.34.05-.62.07-1.21.07-1.6-.53-.35-.54-.3-.9.24-.94-.18.1-.49.05-.74-.26-.23-.28-.14-.54.01-.83.15-.28.71-.56.12-.89-.49-.28-.55.3-.83.48-.86.57-1.26,1.85-2.6,1.7-.49-.06-.98-.05-1.08-.72-.1-.66-.85-.65-1.22-1.06-.18-.2-.34.18-.46.34-.51.74-.38,1.53-.17,2.32-.22-.01-.43-.03-.65-.04h0c-.08-.06-.17-.13-.24-.21h0c-.09-.06-.16-.15-.23-.23,0,0,.01,0,.01,0-.01-.18-.06-.35-.23-.45.01-.38-.08-.71-.46-.9-.02-.31-.17-.54-.45-.68Z"/>
  <path class="st54" d="M22.06,56.55c-.76.18-1.59.06-2.28.61-.28.23-.71.3-.92-.22-.05-.13-.18-.24-.31-.31-.17-.11-.36-.07-.52.05-.14.1-.13.24-.1.4.05.37.33.55.55.8.29.32.25.62-.26.7-.16.7-.68.49-1.06.35-.81-.31-1.56-.09-2.32.11h0c-.23-.17,0-.5-.22-.68-.36-.95.02-1.84.26-2.73.18-.67.45-1.33.28-2.04-.09-.38.35-.55.29-.93-.07-.47.41-.98-.13-1.43-.24-.2.02-.3.14-.42.38-.36.53-.81.51-1.32-.01-.41,0-.82.16-1.22.11-.28.12-.59-.07-.87-.04-.06-.15-.14-.14-.17.29-.72.29-1.38-.3-1.99-.13-.14.2-.37.28-.57.28-.69.27-.75-.39-1.21.06-.03.11-.07.17-.1,1.81.35,3.7-.06,5.49.54.28-.15.57-.24.89-.21.39-.15.79-.29,1.07.2.32.55.15,1.11-.62,1.98.43.04.98.2.83.65-.33.98.38,1.26.93,1.67.34.26.65.64.31.9-.8.61-.24,1.18-.1,1.77,0,.11-.01.21-.05.31-.19.38-.51.64-.87.85-.42.25-.72.51-.53,1.07.16.49-.11.69-.59.66-.38-.02-.8-.1-.84.45-.04.49-.61,1.02.12,1.48.26.17.48.48.35.87Z"/>
  <path class="st11" d="M14.62,58.35c.26.16.22.43.22.68-.6-.05-.14-.45-.22-.68Z"/>
  <path class="st32" d="M15.52,43.46c-.15-.07-.15-.15,0-.23h0c.08.05.1.1.08.15-.02.05-.05.08-.07.08h0Z"/>
  <path class="st45" d="M76.9,71.21c-.19.51-.72.46-1.09.65-1.01.53-2.08.91-3.19,1.15-.29-.1-.49-.34-.75-.48-1.4-.8-1.43-.86-1.05-2.36.26-1,.08-1.27-.9-1.65-.47-.18-1.08-.04-1.4-.57-.03-.32.3-.49.34-.76-.76.58-1.24.11-1.69-.46,1.27-1.74.17-3.07-.76-4.42-.01-.4-.28-.58-.61-.7-.23-.15-.42-.34-.53-.59-.07-.22-.07-.43.05-.63.3-.36.86-.17,1.18-.57-.16-.35-.5-.12-.73-.22-.1-.04-.18-.11-.23-.2.16-.61-.05-1.54,1.11-1.28.04,0,.05,0,.04-.01-.61-.66-.05-.82.43-.94.68-.18.92-.82,1.37-1.24.17-.08.34-.11.52-.13,2.71-.06,5.44.13,8.1-.56.12.03.22.09.3.17,0,0-.48,2.48-.48,2.48-.14,1.66.57,3.22.6,4.86,0,.35.35.56.6.78.32.28.6.57.45,1.05.02.09-.1.16-.06.22.03.05.11-.01.12-.11.06-.46.32-.71.77-.58.49.14.26.51.19.83-.15.74-.39,1.43-.78,2.08-.79,1.32-1.69,2.6-1.9,4.19Z"/>
  <path class="st66" d="M81.86,70.08c-.08.07-.16.14-.24.2,0,0-.1,0-.1,0h-.1c-.02-.51-.02-1,.32-1.41-.26-.22-.53-.12-.77-.15-.07-.65.53-.74.86-1.05,1.3-1.28,2.07-2.91,2.93-4.47.32-.59-.14-.98-.34-1.44-.02-.09-.03-.18-.02-.28.02-.16.08-.32.06-.48-.02-.07-.05-.13-.1-.18-.06-.04-.12-.06-.19-.06-.07.01-.15.02-.22.04-.12.04-.23.08-.34.13-.08.05-.15.09-.23.13-.09.04-.18.06-.27.06-.05-.01-.09-.03-.14-.04-.54-.33-1.18-.6-.93-1.44.05-.08.1-.15.17-.22.1-.08.22-.14.33-.2.07-.04.14-.07.21-.1.1-.04.2-.08.28-.14.05-.04.08-.1.09-.16-.02-.07-.06-.12-.13-.15-.26-.1-.53-.05-.79-.08-1-.55-2.09-.9-3.02-1.58-.24-.18-.56-.32-.47-.68.08-.33.39-.49.7-.44.97.14,1.24-.56,1.22-1.22-.01-.61.55-1.14.16-1.75.06-.33.17-.63.54-.73.62.33,1.17.74,1.56,1.33.4.18.85.24,1.23.47.06.08.08.18.07.28-.71.69.16.65.41.9-.76,1.04-.66,1.09.33,2.08.77.78,2.05,1.16,2.17,2.51.15.64-.35,1.12-.4,1.71-.06.14.03-.03-.03.11-.04.09-.12.17-.12.28.04-.1.06-.21.13-.29.05-.2-.03-.51.28-.52.23,0,.45.21.39.44-.1.38-.16.78-.3,1.15-.04.55-.52.97-.5,1.54-.07.08-.14.16-.21.24-.07.08-.14.16-.21.24-.18.09-.22.26-.25.44-.07.08-.13.16-.2.25-.18.1-.22.26-.23.45-.17.1-.23.26-.24.44-.4.27-.55.69-.69,1.11-.07.08-.13.17-.2.25,0,0,0,0,0,0-.08.07-.15.15-.21.23,0,0,0,0,0,0-.17.07-.23.23-.28.39-.25.06-.4.21-.44.47-.07.07-.15.14-.22.22-.29.06-.51.22-.64.49h0c-.08.07-.15.15-.22.23h0c-.08.07-.15.15-.22.23h0c-.08.08-.15.15-.23.22Z"/>
  <path class="st86" d="M81.87,67.83c-.15.46-.76.45-.91.9-.07.07-.15.15-.22.22h0c-.16.2-1,.17-.22.68h0c.02.18.04.35.07.69-.36-.34-.66-.57-1.1-.32-.26.15-.31.13-.21.49.18.69-.46.41-.79.49-.5.27-1.09-.09-1.58.23.04-.85-.13-1.77.47-2.47.56-.66.82-1.5,1.34-2.12.56-.67.18-1.55.77-2.13.02-.02-.02-.17-.06-.19-.1-.04-.22-.06-.32-.03-.27.07-.26.27-.25.52.01.37-.24.1-.38.1-.03-.53-.21-.94-.68-1.28-.44-.31-1.08-.69-.51-1.42.03-.04-.01-.15-.05-.21-.44-.86-.27-1.84-.55-2.74-.11-.34-.24-.68-.07-1.09.15-.38.07-.76-.29-1.12-.46-.46-.31-.94.27-1.16.24-.09.5-.15.75-.22.49.69.25,1.44.15,2.16-.19,1.32,1.19,3.16,2.5,3.28.84.08,1.52.24,1.21,1.35-.14.5.17.84.53,1.15.4.34.86.68.41,1.3-.07.09-.1.23-.04.32.68.95.12,1.78-.26,2.62Z"/>
  <path class="st8" d="M68.55,67.83c.67.26,1.36.44,2.06.54.15.02.33-.02.36.14.12.6.43,1.18.12,1.83-.52,1.09-.41,1.33.73,1.84.38.17.78.31.79.83.48.39.89.88,1.58.9h0c0,.07,0,.14,0,.2-.08.07-.16.15-.24.22-.31.02-.65-.06-.9.23-.37.07-.8-.08-1.12.24-.25,0-.5,0-.69.21-.52.01-1.03.03-1.55.04-.42-.28-.99-.04-1.38-.41.49-1.21-.32-2.49.24-3.72.19-.42-.07-.93-.57-1.05-.91-.21-1.03-.73-.72-1.49.15-.27.5-.22.7-.41.1-.09.21-.17.34-.22.05,0,.09,0,.14,0,.04.02.08.05.12.07Z"/>
  <path class="st8" d="M74.19,73.92c.06-.15-.64-.34.03-.45.14-.02.29.01.45.02-.04.31-.31.31-.47.43h0Z"/>
  <path class="st66" d="M80.74,68.96c.1.03.2.06.29.09-.17.21-.21,0-.3-.08,0,0,0,0,0,0Z"/>
  <path class="st66" d="M80.51,69.63s.04-.09.05-.09c.08.02.06.05-.05.09h0Z"/>
  <path class="st39" d="M86.83,59.71c0-.26.05-.61-.21-.72-.72-.31-1.08-1.05-1.69-1.42-.81-.49-1.15-1.18-1.39-1.99.3-.3.79,0,1.03-.39-.22-.27-.23-.64-.45-.91,0-.07,0-.14,0-.22-.23-.81-.83-.53-1.35-.46-.02.14-.03.32-.2.34-.24.04-.37-.24-.33-.34.27-.62-.05-.69-.55-.73-.34-.03-.26-.38-.28-.62-.23-.26-.16-.57-.06-.84.53-1.31.65-2.73.99-4.08.09-.17.19-.32.42-.26-.06.52.13.91.49,1.3.73.79,1.41,1.63,2.16,2.4.38.39.66.86.78,1.45.16.8.3.82,1.18.53.17-.06.37-.02.55-.03.02.07.03.14.03.22-.03.48.16,1.04-.67,1.07-.34.01-.17.43-.22.69-.23,1.25.06,2.45.21,3.66.24.42,1.02.42.91,1.13h0c-.09.07-.22.17-.29.12-.4-.28-.74-.27-1.07.11Z"/>
  <path class="st31" d="M82.77,47.07l-.23.22c-.64.01-.51-.54-.66-.89,0-.08,0-.16,0-.23.38-.75.53-1.62,1.12-2.27-.01-.4.2-.34.45-.23,0,.16,0,.31.01.47.02.53-.3,1-.22,1.54-.08.31-.16.62-.24.93-.08.02-.12.08-.11.16,0,.04.04.05.09.05-.07.08-.14.16-.21.25Z"/>
  <path class="st42" d="M82.98,46.83c-.11,0-.22.02-.27-.11.1-.03.2-.07.3-.1,0,.07,0,.14-.02.21Z"/>
  <polygon class="st74" points="82.54 39.85 82.6 39.75 82.64 39.79 82.54 39.85"/>
  <polygon class="st60" points="52.53 31.5 52.62 31.55 52.58 31.59 52.53 31.5"/>
  <path class="st53" d="M68.33,74.6c.5.02,1,.05,1.37.47-.01.06-.02.13-.04.19-1.35,0-2.69.01-4.04.02-.71-.44-1.5-.12-2.25-.24-.33-.29-.75-.16-1.13-.22-.18-.23-.44-.2-.69-.21-.16-.25-.41-.25-.67-.23-.02-.06-.03-.13-.05-.19.43-.61,1-.42,1.5-.2.52.22,1.04.37,1.6.42-.16-.22-.47-.36-.39-.71.08-.08.17-.13.27-.16,1,0,2.01-.15,3.01.1.49.12,1.24-.07,1,.9-.02.09.34-.02.5.08Z"/>
  <path class="st89" d="M39.87,73.22c-.07,0-.14,0-.2.02-.31.03-.65-.06-.91.22-.39.03-.8-.11-1.13.22-.61.09-1.25-.14-1.82.23,0,0-.1,0-.1,0,0,0-.1.01-.1.01-.91,0-1.81,0-2.72-.01-1.09-.14-1.3-.85-1.19-1.78,0-.21.02-.42,0-.63-.09-.68.25-1.38-.15-2.07-.17-.3.16-.51.5-.57,1.32-.23,1.55-.55,1.23-1.83-.09-.37-.23-.71.05-1.05.37-.17.61.04.82.29.16.36.75.37.73.88-.08.5.03.96.26,1.41.37,1.59-.02,3.42-.76,3.72,1.1-.12,2.21-.05,3.3-.31,1.09-.36,1.59.5,2.23,1.07,0,.07-.02.13-.03.2Z"/>
  <path class="st14" d="M31.99,72.12c-.28.88.15,1.41.89,1.78-.37,0-.75.01-1.12.02h-.11s-.11-.01-.11-.01c-.57-.38-1.21-.16-1.81-.21-.15,0-.29-.01-.44-.02-.11-.16-.29-.19-.46-.22,1.04-.39,1.99-.96,2.97-1.45.04-.02.12.06.18.11Z"/>
  <path class="st73" d="M86.83,59.71c.31-.94.9-.21,1.36-.22,0,.22,0,.45,0,.67-.27.58-.67,1.12-.68,1.8-.24.17-.21.43-.23.67-.07,0-.14.01-.21.02-.11-.47.21-.93.13-1.43-.46,0-.31.47-.58.52h0c-.06-.69.34-1.33.23-2.03Z"/>
  <path class="st55" d="M63.59,73.7c.2.29.59.43.68.86-.7.06-1.34.11-1.97-.35-.42-.31-.96-.18-1.46-.04-.54-.07-.95-.52-1.52-.51-.18-.21-.43-.21-.68-.23-.11-.16-.27-.21-.46-.21-.26-.24-.56-.38-.91-.44-.09-.17-.26-.22-.44-.24-.01-.06-.03-.13-.04-.19.55-.78,1.66-.8,2.48-.06.12-.15.2-.37.12-.51-.47-.86.05-1.4.57-1.95.9-.94,1.01-.91,1.47.37-.03.42.19.66.55.79.41.2.43.55.38.95-.04.36-.18.74.16,1.03.34.24,1.09-.09,1.04.72Z"/>
  <path class="st89" d="M31.99,72.12c-.34,0-.67,0-.84.37-.35.76-.85,1.14-1.72.78-.2-.08-.44-.03-.59.18-.23,0-.45,0-.68,0-.25-.3-.59-.2-.91-.22-.25-.29-.59-.21-.91-.21-.07-.02-.14-.03-.21-.03-.18-.24-.44-.2-.69-.21-.11-.17-.28-.2-.46-.2-.06-.03-.12-.04-.19-.03-.12-.16-.3-.21-.49-.21-.16-.24-.42-.23-.66-.25-.1-.16-.27-.21-.44-.24-.29-.39-.69-.57-1.15-.64l-.08-.02h-.09c-.1-.05-.15-.13-.16-.24.02-.54.28-.94.77-1.13.99-.38,1.59-1.47,2.85-1.4.34.02.54-.68.99-.83.15,0,.3,0,.45,0,.37.14.49.62.95.68.31.04.47.22.29.63-.17.39.25.43.51.53.1,0,.2.02.3.03.4.06.75.34,1.17.32.5-.02.76.27.87.7.15.59.57.82,1.1.96v.68Z"/>
  <path class="st2" d="M39.9,73.03c-.38-.04-.86.12-.92-.51-.03-.28-.21-.32-.47-.31-.29.02-.58-.06-.87-.09-.5-.47-.58-.53-.22-1,.39-.51.23-.79-.09-1.25-.41-.57-.89-1.11-1.23-1.7-.56-.96-.77-2.16-.44-3.22.16-.53-.45-1.24.36-1.59.34-.25.7-.34,1.1-.18.84.95.85,3.27-.09,4,1.6.63,1.75,2.08,1.92,3.44.1.85.47.83,1.1.77,1.55-.15,2.96-.8,4.42-1.25,1.25-.39,2.51-.72,3.71-1.29,1.39-.65,1.41-.61,2.35.57,0,.06-.02.13-.04.19-.37,0-.7.11-.89.46-.25.02-.5,0-.67.24,0,0,0,0,0,0-.11.17-.33.1-.46.23h0c-.24.01-.5,0-.66.24h0c-.12.14-.34.08-.46.22h0c-.2-.02-.38.03-.5.2-.06,0-.12,0-.17.03-.19.21-.5.01-.69.21h0c-.25,0-.5,0-.67.22-.25,0-.5,0-.69.21-.24.02-.5,0-.68.23-.3.07-.65-.03-.89.25-.25.02-.5,0-.69.21-.25,0-.5,0-.68.21-.07,0-.13.02-.2.05-.32.01-.65-.07-.91.22-.22,0-.44,0-.66.01Z"/>
  <path class="st87" d="M21.85,70.97c-.08,0-.15,0-.23,0-.14-.28-.37-.43-.68-.45-.14-.27-.36-.43-.66-.47-.08-.07-.16-.14-.23-.21,0,0,0,0,0,0-.09-.06-.17-.13-.23-.23h0c-.05-.41-.29-.62-.68-.69-.07-.08-.15-.15-.22-.23-.05-.3-.19-.53-.48-.65h0c-.08-.07-.16-.14-.23-.22h0c-.07-.07-.14-.14-.22-.2-.06-.03-.13-.05-.2-.07-.08-.07-.15-.14-.23-.21-.08-.07-.16-.14-.24-.21h0c-.08-.07-.15-.15-.23-.22h0c0-.07,0-.13,0-.2-.56-.53-.67-1.03-.33-1.82.25-.58.56-1.05,1.06-1.71.09.79.54,1.08,1.04,1.29.29.12.59.17.33.58-.08.14-.02.3.1.4.19.17,1.52.14,1.71-.05.43-.43.54-1.18,1.35-1.23.15,0,.14-.32.17-.5.09-.47.33-.65.8-.42.29.15.6.27.95.43-.11.5-.56.71-.81,1.05-.2.26,0,.73.33.74.31,0,.04-.36.18-.4.32-.09.41.25.59.41.15.13.21.31.07.5-.12.17-.25.11-.36-.02-.11-.12-.24-.17-.4-.12.2,1,.3,1.06,1.57,1.08.22.1.37.4.68.23.18.1.22.27.23.45-.15.59-.69.87-1.02,1.31-.07.09-.2.18-.27.04-.41-.79-.59-.18-.8.13-.2.29-.42.52-.83.4-.08-.02-.24.06-.28.14-.32.57-1.24.55-1.3,1.36Z"/>
  <path class="st83" d="M62.46,73.25c-.76-.26-.45-.83-.35-1.3.08-.37.18-.67-.33-.74.36-.56.29-.9-.45-.9-.15-.3-.3-.6-.48-.94-.44.48-.86.95-1.3,1.39-.16.16-.25.35-.07.46.65.41-.02.92.12,1.36.03.1-.09.29-.26.32-.19.04-.27-.12-.31-.25-.2-.62-.44-.97-1.18-.52-.26.16-.77-.25-1.05.22-.13-.02-.26-.04-.39-.07-.09-.06-.18-.12-.27-.17h0c-.11-.15-.34-.08-.45-.23h0c-.09-.17-.25-.23-.43-.26-.09-.17-.26-.22-.43-.25-.09-.06-.17-.12-.26-.18-.14-.26-.37-.4-.64-.49-.08-.07-.16-.14-.24-.21-.08-.07-.16-.15-.23-.22-.07-.08-.14-.16-.22-.24-.08-.07-.17-.13-.25-.2h0c-.09-.06-.18-.12-.23-.22h0c-.09-.06-.16-.15-.23-.23h0c0-.06-.01-.13-.02-.19.04-.63-.43-.31-.69-.37-.11,0-.22,0-.33,0-.82,0-.84-.37-.37-.87.33-.35.8-.55,1.24-.75.11-.03.21-.05.32-.06.68.25,1.19.05,1.67-.5.67-.76,1.55-1.28,2.25-2.02.18-.19.41-.34.7-.26.33.2.39.52.31.92.92-.78,2.63-1.13,3.52-.77,0-1.36.34-1.6,1.51-1.08.15.07.29.03.43-.01.5,0,.95-.27,1.46-.21.56.28,1,.3.83-.51-.08-.4-.02-.65.33-.81.35-.16.64-.12.83.27,1.03.68,1.06,1.95,1.69,2.87.06.08,0,.3-.08.41-.28.43-.46.95-.94,1.23-.05-.02-.1-.04-.15-.06-.51-.43-.99-.89-1.43-1.54.26,1.04-.07,1.93-.25,2.83-.16.82-.7.99-1.88.68.06.39.1.76.23,1.08.55,1.38-.57,2.3-.89,3.44-.04.13-.2.21-.37.12Z"/>
  <path class="st4" d="M52.53,67.38c-.37.23-.75.46-1.12.68-.19.11-.43.22-.34.49.09.25.37.16.58.19.07.05.08.1.06.15-.03.04-.05.06-.08.06h0c-.22.07-.45.15-.67.23-.11.16-.34.07-.44.23h0q-.7-.14-.9-.9c-1.55.78-3.18,1.31-4.82,1.81-1.82.56-3.58,1.34-5.52,1.44-.57.03-.7-.03-.59-.56.08-.4.12-.74-.18-1.05-.19-.2-.08-.42-.07-.64.03-.73-.22-1.31-.91-1.66-.19-.1-.33-.31-.52-.42-.23-.12-.53-.18-.44-.54.13-.46.48-.38.82-.3.03,0,.07-.02.18-.05,0-.38-.31-.82-.1-1.16.32-.52-.64-.81-.23-1.15.5-.42-.41-.63-.04-.94-.24-.31-.92-.36-.62-1.01.28-.28.5-.6.61-.99.03-.1.08-.2.13-.3.95-1.1,1.36-1.12,2.27-.07.15.91.75,1.6,1.15,2.38.24.48.85-.13,1.12.44.18.4-.19.93.36,1.2.21.1.41.18.63.2.4.04.69.22.49.65-.25.55.14.83.4,1.18.07.09.16.16.23.24.04-.16-.17-.23-.13-.4.01-.11.04-.21.1-.3.98-.77,1.55-.62,2.3.6-.11.08-.07-.1-.07.05,0,.1.07.11.15.05.6.19,1.19-.13,1.78.02.65.52,1.31.26,1.97,0,.56-.2,1.16-.21,1.74-.36.36-.09.78-.15.74.46Z"/>
  <path class="st2" d="M50.5,69.41c.09-.19.26-.23.44-.23,0,.07,0,.13-.02.2-.14.01-.28.02-.42.03Z"/>
  <path class="st78" d="M50.72,27.21c-.93-.26-1.68-.85-2.48-1.36.23,0,.45,0,.68,0,.1.17.27.22.45.23.1.18.26.22.45.23.1.18.26.22.45.23.08.07.16.14.23.22.08.07.15.15.23.22,0,.08,0,.15,0,.23Z"/>
  <path class="st4" d="M51.83,68.74c.32.03.57-.3.92-.18-.08.22-.16.43-.24.64-.14-.02-.28-.03-.42-.05-.08-.07-.16-.14-.24-.21,0,0,0,0,0,0-.06-.04-.08-.09-.07-.14.01-.05.03-.08.04-.08Z"/>
  <path class="st68" d="M43.73,35.77c-1.23.31-2.45.64-3.69.93-1.59.36-3.19.31-4.78.01-.18-.03-.37-.01-.56-.02-1.24-.44-2.55-.33-3.78-.15-1.24.18-2.49.47-3.72.77-1.7.42-3.34,1.1-4.92,1.85-.33.28-.79-.05-1.12.23h0c-.34.26-.79-.06-1.13.23h0c-.37-.09-.96.23-1.06-.32-.11-.62.56-.64.95-.72,1.54-.33,3-.87,4.36-1.66,2.89-1.67,6.02-2.67,9.3-3.09,2.2-.28,4.44-.56,6.7-.13.91.17,1.85.2,2.73.52.43.16.8.4,1.12.73.21.21.13.4.04.61-.07,0-.14.01-.21.01-.08.06-.16.13-.24.2Z"/>
  <path class="st60" d="M45.53,35.11c-.1.18-.27.22-.46.22.1-.18.27-.22.46-.22Z"/>
  <path class="st9" d="M15.52,43.45c0-.07,0-.15,0-.22.31-.16.6-.25.96-.11.57.22,1.22.2,1.78.07,1.04-.26,2.09-.14,3.13-.19-.07.3-.14.59-.21.89-.97,0-1.95,0-2.92.02-.53,0-1.05,0-1.52-.29-.38-.23-.8-.15-1.21-.16Z"/>
  <path class="st5" d="M20.03,39.62c.31-.38.75-.18,1.13-.23-.32.37-.75.18-1.13.23Z"/>
  <path class="st5" d="M21.16,39.4c.31-.38.74-.18,1.12-.23-.31.37-.74.19-1.12.23Z"/>
  <path class="st59" d="M39.44,61.06c-.08-.08-.15-.15-.24-.22-.69-.58-.86-.58-1.46.02-.13.13-.22.29-.33.43-.17.08-.11.15,0,.23-.19.33-.27.74-.68.9-.25-.23-.55-.39-.83-.58-.12-.12-.17-.25-.12-.42.04-.11.13-.2.15-.3.09-.48,1.01-.15.85-.98-.1-.52.27-1.06.71-1.46.11-.1.05-.3-.04-.42-.52-.64-.54-1.49-.82-2.14-.43-.99.44-1.44.35-2.19-.03-.28.42-.2.66-.1.51.22,1.01.26,1.69-.03-1.54-1.18-.52-2.49-.22-3.73.21-.86.32-1.7.28-2.56-.07-1.34-.07-2.62,1.15-3.52.06-.04.13-.12.13-.18-.09-1.27.84-1.46,1.8-1.62-1.05.02-2.05-.09-3.03-.31-.48-.11-.96-.25-.9-.92.51.2,1.02.38,1.58.22.07,0,.15,0,.22,0,.38.35.97.11,1.35.45.44-.01.88-.16,1.27-.19.32-.02.83.33,1.24.35,1.66.09,3.34.23,4.94-.39.53-.65,1.38-.72,2.08-1.04.71-.32,1.44-.61,2.17-.92.62-.17.98.18,1.27.66.6.99,1.26,1.94,1.83,2.94.13.18.23.37.29.59.06.31.05.64-.15.86-.45.49-.56.87.13,1.26.23.13.27.52,0,.67-.47.25-1.05.76-1.52.25-.49-.53-.79-.5-1.26-.08-.17.16-.57.16-.6-.02-.13-1.1-1.76-1.43-1.41-2.75-.04-.12-.08-.25-.13-.37-.07-.1-.17-.17-.29-.2-.23-.03-.45,0-.66.09-1.25.11-1.83.87-2.02,2.03-.01.08-.18.12-.29.15-.11-.01-.2-.06-.27-.14-.1-.13-.17-.26-.23-.41-.71-.75-1.32-1.68-2.58-1.48-.81-.38-1.53-.33-2.1.42-.21.28-.5.44-.78.64-.4.28-.46.6-.19,1.06.73,1.23.69,1.32-.47,2.18-1,.74-.29,1.73-.31,2.59-.01.45.23.94.44,1.39.25.55.26,1-.1,1.57-.38.61-.31,1.43-.75,2.07-.14.2.09.41.29.53.32.19.46.41.36.83-.19.86.39.92,1.02.85.26-.03.49-.18.75-.23.29-.06.51.07.69.29.18.22.28.57.05.71-.8.51-.48,1.24-.46,1.91.07.85-.52,1.36-1.6,1.47-.86.09-.83-.4-.74-1.01-.12.39-.17.77-.34,1.11-.22.44-.56.73-1.07.64-.53-.09-.49-.53-.4-.89.09-.37-.16-.45-.35-.6Z"/>
  <path class="st29" d="M53.43,39.62c-1.28.95-2.82,1.3-4.29,1.81-.54-.62-1.27-.74-1.91-.36-.68.39-1.28-.13-1.91.04-.16.04-.23-.22-.11-.32.44-.39-.18-.53-.17-.82.17-.22.42-.14.61-.11.43.07.67-.04,1-.39.39-.41.99-.66,1.6-.76h0c.12.13.25.52.42.12.13-.31.12-.64.51-.78.47-.17,1.19-.12.97-.98.59-.37,1.19-.73,1.76-1.13.32-.22.56.11.85.06h0c-.06.36.16.55.45.68h0c1.01.9,1.1,2.03.23,2.93Z"/>
  <path class="st23" d="M41.7,41.65c-.49-.04-1.06.17-1.35-.45.49.04,1.06-.18,1.35.45Z"/>
  <path class="st29" d="M48.24,38.72s.04-.09.05-.09c.08.02.06.05-.05.09h0Z"/>
  <path class="st5" d="M43.73,35.77c.08-.07.16-.13.24-.2-.08.07-.16.13-.24.2Z"/>
  <path class="st69" d="M34.02,66.48c-.13-.3-.35-.45-.68-.45-.87-.89-1.29-2.04-1.8-3.14-.07-.21-.03-.52-.2-.63-1.57-1.07-1.28-2.7-1.32-4.23-.01-.53-.1-.97-.68-1.14-.3.25.02,1.09-.75.84-.55-.18-.66-.66-.54-1.2.06-.29.18-.61.05-.89-.54-1.15-.15-2.04.61-2.96.54-.65.88-1.47,1.28-2.23.49-.93.65-1.88-.06-2.85-.37-.5-.71-1.06-.94-1.66-.26-.67-.17-1.73-1.44-1.27-.07.02-.16-.13-.22-.24-.05-.16-.05-.31-.01-.47.3-.52.3-.95-.3-1.27-.22-.12-.41-.31-.45-.59,1.12-.63,2.35-.93,3.61-1.13.36-.21.72-.11,1.08,0,.33.11.47.36.46.69,0,.32-.14.55-.48.67-1.03.38-1.13.97-.57,1.86,1.18,1.86,2.75,3.4,4.03,5.18.72,1.01,1.72,1.77,2.57,2.67.42.44.64.81-.16,1.01-.28.07-.39.18-.38.45.04.92-.43,1.3-1.33,1.23.47,1.04.91,2.03,1.58,2.91.21.28.09.58-.1.83-.24.3-.51.23-.79.05-.3-.19-.65-.36-.88.04-.21.36.17.52.39.7.38.3.45.6,0,.89-.61.4-.54.82-.1,1.29.05.15.06.31.01.46-.34.23-.38.46,0,.68.06.14.1.29.14.44.04.15.07.3.09.45-.17.86-1.06,1.45-.85,2.49.07.34-.37.69-.88.53Z"/>
  <path class="st62" d="M35.38,61.51c-.86-.61-.74-1.26.33-1.76,0-.27-.24-.23-.38-.32-.58-.38-.78-.86-.49-1.18.33-.36,1-.32,1.46.08.05.05.12.08.19.13.32-.06.44-.34.39-.57-.09-.4-.32-.85-.67-.99-.55-.22-.68-.54-.57-1.04.15-.7-.63-.64-.83-1.1.08-.33.33-.34.66-.33.91.04,1.1-.16,1.02-.97-.02-.25-.29-.49-.05-.74.29-.31.45.13.68.14.1,0,.23-.03.3-.1.14-.15,0-.23-.11-.34-1.14-1.18-2.49-2.17-3.32-3.63-.14-.25-.4-.33-.6-.49-.17-.13-.42-.27-.34-.53.13-.45.07-.65-.46-.51-.18.05-.45-.07-.43-.26.06-.58-.09-.86-.73-.74-.11.02-.22-.13-.17-.23.51-.87-.38-1.28-.75-1.59-.61-.52-.55-1-.38-1.57.1-.34.37-.61.47-.99.06-.23.34-.21.49.08.2.38.34.14.41-.08.1-.32,0-.57-.32-.75-.32-.17-.65-.15-.99-.16.29-.34.69-.2,1.05-.22,1.23-.06,2.45-.03,3.69-.17,1.18-.14,2.43.04,3.61.39.24.49.66.59,1.17.71,1.11.25,2.24.13,3.37.22-.55.71-.93.87-2.04.86.15.83.06,1.57-.89,1.87-.21.07-.25.27-.24.46.02.43-.08.82-.29,1.18-.12.21-.03.41,0,.63.1,1.02.19,2.03-.19,3.05-.23.62-.27,1.3-.6,1.92-.21.41-.12.96.33,1.33.14.12.28.26.4.4.33.38.26.58-.22.67-.75.13-1.5.2-2.24-.53.01.62.45,1.21-.36,1.42-.26.07-.12.34.07.53.29.28.8.56.09.98-.25.15,0,.42.11.59.24.33.52.64.8.93.36.37.23.86-.09.93-.53.1-.6.37-.53.75.05.28-.69.52-.03.79-.12.43-.58.03-.77.31-.14.22-.28.45-.55.55-.15.14-.3.13-.45,0Z"/>
  <path class="st14" d="M27.48,43.91v.45c-.05.06-.1.1-.17.13.39.87-.23,1.33-.74,1.83-.24.23-.24.52-.28.81-.04.32-.16.58-.57.44-.39-.54-.44-1.33-1.17-1.62-.11-.13.1-.38-.17-.46,0,.19.11.32.19.47.23.65.64,1.17,1.16,1.61-.02,1.17-.39,2.28-.57,3.42-.06.39-.59.33-.85-.09-.19-.32-.42-.63-.56-.97-.15-.35-.29-.76.36-.74.24,0,.35-.14.38-.33.04-.2-.05-.42-.27-.41-.73.02-.72-1.04-1.48-.98-.06,0-.17-.26,0-.37.15-.1.36-.11.41-.34.03-.19.03-.38-.08-.54-.17-.24-.31-.08-.45.05-.03.03-.06.05-.1.06-.35.1-.47-.15-.57-.4-.12-.29.03-.42.3-.45.19-.02.33-.11.47-.26.34-.34.31-.71.22-1.14-.13-.56-.56-.37-.9-.42.7-.42,1.46-.71,2.26-.9.05.57.14,1.15.89,1.08.45-.05.3-.72.69-.9.46.43,1.37.11,1.58.95Z"/>
  <path class="st17" d="M27.48,43.91c-.16-.25-.64.15-.68-.34,0-.05-.08-.1-.12-.15-.83.95-.37-.55-.77-.41-.33-.1-.67-.18-.91-.46.49-.27,1.02-.43,1.58-.45.28.18.57.36.85.54.67.43.67.56.05,1.27Z"/>
  <path class="st54" d="M24.99,42.55c.35.05.83-.15.91.46-.05.18-.09.36-.15.54-.09.27.23.75-.36.75-.62,0-1.4-.51-1.38-.92.01-.2.2-.39.31-.58.22-.08.45-.16.67-.23Z"/>
  <path class="st25" d="M56.59,43.68c-.08-.15-.15-.3-.23-.45-.19-1.24-1.21-2.02-1.73-3.07-.85-1.72-.81-2.01.83-3.02.3-.15.6-.3.9-.45.28-.14.57-.26.9-.23.85.34.64,1.12.66,1.75.04,1.47.55,2.76,1.3,3.99.42.46.44,1.17,1.45,1.22.73.04-.03.78-.15,1.21-.94.7-1.79,1.45-1.93,2.71-.38-.04-.45-.36-.57-.62-.46-1.02-.89-2.05-1.43-3.04Z"/>
  <path class="st40" d="M55.46,37.14c-.09.12-.16.25-.28.34-.95.73-1.06,1.16-.55,2.25.4.84.99,1.55,1.53,2.29.27.37.52.74.2,1.21-.64-.98-1.31-1.94-1.91-2.94-.25-.42-.49-.73-1.02-.67.35-1.01.55-2.01-.23-2.94.11.02.27,0,.32.07.52.81,1.2.75,1.94.38Z"/>
  <path class="st38" d="M53.2,36.69c-.07,0-.14,0-.21,0-.61-.11-.64-.18-.24-.67.26.16.32.44.45.68Z"/>
  <path class="st56" d="M78.47,39.62c.66.54,1.07,1.24,1.36,2.03.05.88-.19,1.65-.61,2.45-.47.88-.79,1.83-1.38,2.66-.24.34-.31.76-.28,1.18-.17.53-.37,1.04-.75,1.47-.06.08-.13.16-.2.23-.04.04-.07.07-.11.11-.63.6-1.4.94-2.2,1.25-.13.06-.27.09-.41.11-.18.03-.36.05-.53.1-.04,0-.09.02-.13.02-.09,0-.18,0-.27,0-.19-.01-.38,0-.57,0-.31-.05-.61-.1-.82-.37-.19-.55-.21-1.21-.97-1.36-.25-.05-.37-.3-.24-.53.37-.64.19-1.31.16-1.97-.03-.78-.07-1.59,1.21-1.59-1.08-.68-1.81-1.52-3.19-1.14-1.26.35-2.08-.54-1.68-1.54.14-.09.3-.13.46-.15.59.01,1.18-.04,1.75-.22.22-.06.44-.08.67-.09,1.29-.17,2.59.43,3.88,0,1.17-.05,2.28.31,3.41.5,1.07.18,1.35-.15,1.08-1.21-.08-.33-.25-.62-.39-.92-.47-.99-.42-1.06.73-1Z"/>
  <path class="st42" d="M81.88,46.41c.22.3.44.59.66.89-.05,1.27-.33,2.49-.72,3.69-.13.42-.27.85-.41,1.27-.25.16-.32.44-.45.68-.49,1.35-2.3,2.6-3.61,2.49-.66-.05-1.22.32-1.84.46-1.38.31-2.76.19-4.14.21-.86.01-1.73,0-2.59,0-.59-.48-.12-.75.22-1.01.27-.2.63-.18.96-.2,2.24-.01,4.49.13,6.67-.55.76-.32,1.47-.79,2.3-.95.93-.77,1.58-1.69,1.88-2.91.24-.97.43-1.95.6-2.94.07-.42.28-.76.47-1.13Z"/>
  <path class="st28" d="M78.93,53.38c-.59.53-1.35.75-2.03,1.13-1.26.19-1.3.17-1.32-1-.02-1.17-.01-1.15-1.18-.78-.74.24-1.5.44-2.25.01.12-.76.77-.92,1.33-1.12.4-.14.85-.15,1.15-.29-.36-.02-.82.4-1.32.09-.09-.09-.1-.2-.03-.3h0c.13-.12.33-.08.46-.21.14,0,.29-.02.43-.03.86-.28,1.8-.42,2.26-1.35h0c.09-.06.16-.15.23-.22.23-.5.53-.95.89-1.37-.15.7.41,1.18.57,1.78.09.35.28.58-.05.99-.38.47,0,1.15.07,1.71.04.3.2.9.77.96Z"/>
  <path class="st16" d="M82.99,43.91c-.13.69-.38,1.34-.69,1.97-.1.19-.24.27-.43.3-.22-.14-.55-.31-.31-.59.42-.48.51-1.08.69-1.63.25-.77.48-.23.74-.05Z"/>
  <path class="st33" d="M59.07,42.33c-.49-.46-.8-1-.85-1.7-.03-.43-.06-.91-.65-1.03-.19-.04-.11-.19-.06-.35.34-.96.17-1.89-.25-2.79h0c.45-.23,1.05-.16,1.36-.67,1.4-.49,2.84-.84,4.29-1.14.19-.19.49,0,.68-.21.22,0,.45,0,.67,0,.24.31.59.2.9.22.31.03.66-.09.9.22-.45.56-1.07.94-1.04,1.86.02.55-.44,1.18-1.01,1.55-.34.22-.62.28-1.02.03-1.06-.68-2.9.31-2.9,1.52,0,.19.09.47-.05.53-.91.38-.72,1.27-.98,1.95Z"/>
  <path class="st25" d="M58.62,35.79c.02.42-.12.7-.6.67-.25-.01-.5,0-.75,0,.38-.37.84-.59,1.36-.67Z"/>
  <path class="st81" d="M63.59,34.43c-.17.26-.43.21-.68.21.17-.26.43-.21.68-.21Z"/>
  <path class="st81" d="M64.94,33.98s-.09-.04-.09-.05c.02-.08.05-.06.09.05h0Z"/>
  <path class="st0" d="M78.47,39.62c-.28.06-.55.12-.86.19.24.43.46.81.66,1.2.23.44.32.91.27,1.39-.07.76-.27.91-.99.78-.76-.14-1.54-.25-2.28-.47-.52-.15-1.02-.15-1.54-.16-1.35-.07-2.71-.25-4.06,0-.23,0-.45,0-.68,0-.5.23-1.07.01-1.58.22-.15,0-.3,0-.45,0-.52.34-1.08.55-1.71.42-.11-.03-.21-.06-.32-.11-1.67-.71-1.7-.84-.38-2.15.13-.13.34-.27.32-.44-.17-1.22.78-2.27.54-3.5-.13-.65.04-1.2.69-1.5.67-.31,1.15-.04,1.54.51h0c.07.08.15.15.22.22,0,.08,0,.15,0,.23.07.08.15.15.22.23.07.17.16.34.21.52.27,1.02.75,1.47,1.77,1.5.67.02,1.33.04,2.01-.13.98-.25,2.01.08,3.01-.08.93.4,1.91.65,2.89.89.19.05.37.06.48.24Z"/>
  <path class="st20" d="M67.65,36.01c-.2-.1-.4-.22-.61-.29-.86-.32-1.62.24-1.37,1.1.21.76.14,1.36-.25,2.02-.2.34-.3.74-.17,1.19.15.49-.17,1.18-.62,1.31-.52.15-.65.52-.85.98.51.2,1.05.26,1.39.69-.03.04-.06.09-.08.13-.11.11-.25.19-.39.25-.1.04-.2.07-.3.1-1.06.18-2.03.64-3.03,1-.09.02-.18.03-.27.02-.12.02-.24-.28-.36,0-.09.1-.18.15-.31.08.03-.18.04-.37.1-.54.07-.17.43-.31.13-.52-.23-.15-.39.08-.52.27-.06.08-.16.13-.27.21-.27-.58-.53-1.13-.79-1.68,0-.27-.06-.51-.14-.76-.16-.5.07-1.03.46-1.13.59-.14.68-.23.34-.75-.24-.37.16-.81.67-1.22.71-.57,1.63-.52,2.38-.95.19.3.26.88.66.78.36-.09.86-.31.96-.82.1-.51.93-.93.22-1.56-.08-.07-.04-.25.09-.25.58-.04.68-.89,1.34-.78.76.05,1.39.27,1.58,1.13Z"/>
  <path class="st20" d="M68.09,36.68c-.07-.08-.15-.15-.22-.23.07.08.15.15.22.23Z"/>
  <path class="st20" d="M67.87,36.23c-.07-.07-.15-.15-.22-.22.07.07.15.15.22.22Z"/>
  <path class="st14" d="M31.77,62.86c.28.52.56,1.05.81,1.59.24.52.63.98.77,1.57.01.22.02.45.03.67.02.33.57.74.42.76-.64.11-.14.36-.15.56-.03.42-.23.76-.53,1.08-.37.38-.64.21-.97-.03-.13-.1-.29-.05-.4.08-.12.14-.08.28.04.39.44.38.53.77.15,1.27-.1.13.03.42.06.64-.72.22-1.09.07-1.3-.68-.14-.53-.14-.9-.89-.63-.28.1-.71-.48-1.19-.5-.64.25-.75-.5-1.21-.53.08-.37.38-.31.62-.5-.54-.2-1.15-.31-1.21-1,.21-.35-.05-.63-.13-.94-.07-.26-.16-.5.04-.73.21-.06.27.08.31.22.12.46.4.52.75.28.39-.26.74-.6,1.08.04.02.03.05.06.08.07q1.86.43,2.59,1.16c.32-.77.3-1.11-.33-1.43-.56-.28-.49-.48-.19-.91.2-.29.26-.7.28-1.07.02-.27.12-.8-.51-.48-.18.09-.27-.09-.33-.21-.16-.34-.42-.49-.79-.53-.39-.04-.63-.24-.48-.69.11-.32-.05-.54-.32-.6-.44-.09-.7-.41-1-.68-.18-.16-.32-.19-.59-.08-.54.22-.72.07-.52-.41.15-.36.2-.56-.21-.66-.44-.11-.65-.41-.88-.78-.37-.6-.99-.99-1.59-1.35-.55-.33-1.09-.63-1.42-1.21-.16-.27-.38-.15-.59-.07-.17-.25-.29-.58-.52-.72-.57-.36-1.08-.66-.24-1.26.02-.02.03-.07.04-.1.03-.36-.36-.84.27-1.04.4-.12.8.03,1.15.13.21-.28.04-.42-.06-.56-.28-.4-.19-.74.23-.92.53-.23.92-.63,1.39-.94.6.78.7,1.75,1.03,2.64.06.15.01.35.28.23.1.02.18.07.26.13.22.25.26.54.18.84-.06.24-.13.43.24.44.65,0,.84.24.56.91-.21.49,0,.94.58,1.13.43.14.71.45.64.93-.2,1.44.56,2.32,1.72,2.95.74.4,1.56.7,1.96,1.54Z"/>
  <path class="st87" d="M24.02,62.53c.04.28-.1.48-.35.46-.36-.03-.28-.4-.34-.63-.05-.2.12-.34.33-.37.47-.06.23.36.36.53Z"/>
  <path class="st14" d="M26.09,66.36c.14-.02.2.06.22.18.02.16-.03.29-.2.33-.05.01-.21.19-.21-.05,0-.17-.03-.37.19-.46Z"/>
  <path class="st14" d="M26.12,67.15c-.39.41-.51.02-.68-.23h.45c.08.08.15.15.23.23Z"/>
  <path class="st14" d="M26.34,65.52s-.05-.04-.08-.06c.03-.02.06-.05.09-.05.03,0,.05.04.08.06-.03.02-.06.03-.09.05Z"/>
  <path class="st17" d="M25.71,54.03c-.2.01-.31.53-.47.13-.41-.97-.79-1.96-.92-3.03,0-.08,0-.15,0-.23.78.18.93.11.75-.48-.2-.63.34-1.16.09-1.77-.08-.2.18-.31.34-.37.45-.18.14-.51.18-.77.24-.03.52-.15.4-.4-.3-.64.01-.87.52-1.17.32-.19.48-.63.71-.95-.05-.06-.07-.14-.12-.16-.25-.1-.75.11-.72-.28.04-.56.52-.15.8-.2.07-.01.15,0,.22,0,.26.32.51.24.76,0,.17-.17.19-.5.56-.56.32.4.02.89.2,1.35.43,1.09,1.01,2.09,1.65,3.05.14.21.2.38.13.61-.27.91-.47,1.8-1.05,2.65-.55.81-.99,1.72-1.62,2.5-.16.19-.1.39,0,.62.31.7.45,1.41.18,2.19-.15.44-.1.46.62.78.02-.03.06-.06.07-.09.05-.35-.48-.84.15-1.04.36-.12,1.12.59,1.16,1.05.04.47.03.95-.04,1.42-.05.35-.02.66.13.98.19.42.57.8.14,1.33-.16.2.12.52.31.46.77-.24.75.36.9.77.05.13.03.3.04.45-.29-.21-.83-.13-.8-.73,0-.19-.29-.21-.46-.23-.69-.11-1.18-.59-1.76-.9-.3-.16-.56-.4-.58-.77-.02-.32-.16-.57-.38-.78-.25-.24-.26-.44-.09-.78.34-.67.28-.83-.45-1-.54-.12-.63-.39-.73-.88-.1-.47-.06-.78.36-1.02-.25-.21-.48-.13-.69-.13-.21,0-.43.03-.74.06.17-.58.72-1.07.26-1.68.29-.25.37-.54.49-.81-.31.21-.28.6-.49.81Z"/>
  <polygon class="st11" points="18.23 58.58 18.13 58.52 18.17 58.48 18.23 58.58"/>
  <path class="st61" d="M77.36,55.42c1.42-.52,2.7-1.24,3.61-2.49.14.34.39.69-.09.98.53.64-.14,1.15-.2,1.73-.05.5-.37.83-.96.52-.09-.05-.22-.06-.33-.06-.24,0-.49.04-.53.3-.04.21.18.36.36.33.62-.09.6.82,1.27.73.55-.07.94.36,1.3.77.1.11.35.08.53.12-.03.37-.28.74-.01,1.12-.26.47-.21.89.31,1.1.26.11.38.35.6.48.33.51.94.17,1.35.44.77,1.23.71,1.2-.02,2.7-.3.62-.68,1.21-1,1.81-.3.57-.86,1.06-1.16,1.7-.07.16-.34.1-.52.11-.1-.23-.22-.43-.07-.73.58-1.1.56-1.18-.25-2.09.03-.17.15-.27.29-.3.4-.08.37-.29.18-.55-.06-.09-.17-.14-.26-.21-1.1-.92-1.12-.97-.66-2.22-.36-.2-.65-.45-1.18-.34-.54.11-1.14-.06-1.46-.74-.23-.48-.49-.96-1.07-1.24-.54-.26-.34-.91-.24-1.32.2-.82.18-1.63.19-2.45,0-.07,0-.15,0-.22Z"/>
  <path class="st21" d="M68.32,56.1c-.04.68-.27,1.23-1.68,1.48-.14.53.51.47.62.81-.05.04-.11.12-.14.11q-.97-.36-1.5.98c-.17.56-.49,1.06-.49,1.7,0,.55-.46.79-.96.53-.67-.35-1.28-.48-2.02-.15-.37.16-.79-.12-1.13-.36-.07-.03-.1-.14-.14-.15-.12-.03-.11-.02,0,.03.14.05-.05,0,.08.08.47.7-.04.82-.54.89-.35.05-.62-.18-.86-.41-.06-.08-.1-.17-.12-.27.01-.15.06-.29.12-.43.03-.09.07-.18.11-.27.05-.15.09-.3.13-.45.6-1.34.75-2.85,1.61-4.09,2.31-.94,4.61-.98,6.92-.02Z"/>
  <path class="st6" d="M60.88,61.06c.31-.02.59.06.86.2.2.1.42.22.61,0,.54-.62,1.05-.27,1.57.01.1.05.18.14.28.19.49.24.7.15.73-.4.03-.45.11-.88.26-1.3.07-.21.24-.26.43-.3h0c.17.37,0,.64-.23.9,0,.23,0,.45,0,.68-.18.48.35.25.45.45q.88.02.68.68c-.2-.07-.38-.24-.62-.13-.35.16-.6.33-.17.69.1.09.14.25.27.47-.5.02-.67.53-1.09.57-.17.02-.33-.26-.42-.47-.08-.05-.1-.12-.09-.21-.03-.09.22-.15.02-.25-.05-.07-.09-.14-.11-.23-.04-.11-.09-.21-.22-.23-.08.02-.15.03-.23.05-.12.05-.23.11-.33.19-.33.22-.21.62-.39.9-.04.31-.19.54-.51.36-.28-.16-.5-.44-.78-.7-.52.5-.68,1.05-.35,1.77-.69-.5-1.24-.47-2.02-.14-.69.29-1.5.29-2.05.92-.02.03-.15,0-.2-.04-.11-.07-.12-.2-.03-.28.42-.31.24-.65.06-.99-.07-.09-.09-.19-.06-.3.46-.9,1.12-1.67,1.71-2.49.14-.2.28-.46.62-.37.2.16.39.36.62.47.49.22.78-.07.74-.7Z"/>
  <path class="st18" d="M68.32,56.1c-1.12-.26-2.27-.23-3.41-.38-1.02-.14-2.04.24-3.05.46-.18.04-.36.1-.54.15-.87-1.13-.57-2.4-.41-3.65.1-.17.24-.31.43-.14.21.19.22.46.25.72.21,1.65.2,1.62,1.91,1.32,1.45-.26,2.91-.01,4.36.07.35.03.7,0,1.05.02.12,0,.24,0,.36.02.28.08.64.05.63.5-.25.02-.52-.01-.75.08-.35.14-.64.38-.38.83-.15,0-.3,0-.45,0Z"/>
  <path class="st83" d="M68.33,67.83c-.08.08-.15.15-.23.23-1.09-.29-1.38-.72-.9-1.35.16.27.51.14.69.29.36.31.61.37.82-.13.08-.18.19-.32.42-.2.31.16.16.37.06.56-.14.27-.35.48-.63.6-.08-.08-.15-.08-.23,0Z"/>
  <path class="st48" d="M65.39,60.38c-.04-.33.07-.62.23-.9.25-.07.49-.15.74-.19.22-.04.46-.04.55.23.1.27.02.49-.23.66-.4.27-.85.2-1.29.2Z"/>
  <path class="st21" d="M65.84,61.51c-.28-.02-.7.1-.45-.45.22.09.37.24.45.45Z"/>
  <polygon class="st86" points="78.48 64.9 78.43 64.99 78.39 64.95 78.48 64.9"/>
  <path class="st76" d="M82.31,59.47c-.13-.07-.26-.12-.38-.2-.37-.25-.41-.48.04-.7.12-.06.23-.15.35-.22.39.09.98-.29,1.12.44-.08.07-.15.15-.22.23h0c-.12.13-.33.09-.45.23h0c-.12.13-.33.08-.45.22h0Z"/>
  <path class="st52" d="M84.57,61.5c-.32.08-.64.21-.96.22-.44.01-.59-.25-.39-.66h0c.08-.07.15-.15.23-.22.18-.2.5-.01.68-.23h0c.26-.15.32.11.45.23.12.15.13.3,0,.45,0,.07,0,.14-.01.22Z"/>
  <path class="st72" d="M82.77,53.61c.21-.28.51-.41.85-.43.55-.04.7.24.5.89-.51,0-1.03.06-1.35-.46Z"/>
  <path class="st79" d="M84.12,54.29q.63.09.45.91c-.26,0-.53,0-.79,0-.23,0-.48-.01-.51-.31-.03-.3.23-.33.44-.41.14-.05.27-.12.41-.19Z"/>
  <path class="st73" d="M86.61,61.74c.04.1.09.2.13.3.06.16.02.29-.16.33-.06.02-.16.02-.2-.02-.17-.12-.04-.26.02-.38.04-.09.14-.16.21-.24h0Z"/>
  <path class="st61" d="M84.12,60.61c-.16.26-.43.22-.68.23.16-.27.43-.22.68-.23Z"/>
  <path class="st61" d="M84.57,60.83c-.15-.08-.3-.15-.45-.23.36-.34.41-.06.45.23Z"/>
  <path class="st61" d="M84.58,61.28c0-.15,0-.3,0-.45.23.15.23.3,0,.45Z"/>
  <path class="st61" d="M80.34,56.69s-.06.02-.1.03c0-.03-.03-.08-.02-.08.09-.06.13-.04.12.05Z"/>
  <path class="st61" d="M82.77,59.25c.1-.18.26-.22.45-.23-.1.18-.26.22-.45.23Z"/>
  <path class="st61" d="M82.31,59.47c.1-.18.27-.22.45-.22-.1.18-.27.22-.45.22Z"/>
  <path class="st61" d="M83.45,60.83c-.08.07-.15.15-.23.22.08-.07.15-.15.23-.22Z"/>
  <path class="st61" d="M83.22,59.03c.07-.08.15-.15.22-.23-.07.08-.15.15-.22.23Z"/>
  <path class="st61" d="M80.03,62.46c-.42.3-.7.52-.99.11-.09-.13-.15-.35-.02-.4.33-.13.62.04,1.01.28Z"/>
  <path class="st10" d="M78.32,70.82c-.02-.11.03-.21.17-.21.09,0,.11.08.08.17-.03.07-.05.14-.08.21-.05-.05-.1-.11-.16-.17Z"/>
  <path class="st27" d="M68.33,74.6c-.1.11-.2.22-.32.31-.19.16-.43.19-.62.05-.26-.19-.02-.4.05-.59.05-.13.23-.2.21-.38-1.27-.25-2.56-.19-3.83-.3-.11-.1-.14-.24-.18-.38-.01-.09-.01-.18,0-.27.03-.12.08-.24.14-.35.05-.17-.05-.31-.09-.47-.02-.14,0-.27.07-.4.23-.26.45-.53.71-.76.67-.46.9-1.06.55-1.82-.2-.43-.1-.8.35-.85.68-.07,1.36-.44,2.06-.12-.04.26-.12.52-.1.78.03.31.16.53.56.56.89.08,1.34.95.9,1.68-.33.56-.29,1.3.14,1.8.19.23.38.43-.03.58-.45.16-.34.64-.57.91Z"/>
  <path class="st57" d="M64.04,72.79c-.08.08-.15.15-.23.23-.06.05-.08.1-.06.15.02.05.04.08.06.08v.45c-.08,0-.15,0-.23,0-.14-.28-.31-.5-.67-.34-.19.08-.34.07-.46-.11.29-.22.39-.54.47-.87.12-.5-.06-1.17.75-1.27.05,0,.13-.25.1-.28-.62-.58-.15-1.45-.55-2.09-.09-.15-.27-.3-.02-.46.14-.08.25-.04.4.03,1.04.49,1.42.28,1.57-.77.11-.8.4-1.58.24-2.42-.06-.3.19-.46.6-.54-.2.46.05.7.32,1.02.3.35.87.52.86,1.11-.19.13-.22.3-.08.46.3.32.57.68.98.89-.05.59-.39.35-.68.23-.66.1-1.29.4-1.99.3-.34-.05-.43.17-.24.5.56.98.32,1.67-.7,2.13-.26.19-.55.36-.68.68v.45c.03.17.39.18.23.45Z"/>
  <path class="st45" d="M68.33,67.83c.08-.15.15-.15.23,0h-.23Z"/>
  <path class="st73" d="M87.28,58.46c-.03.06-.05.18-.08.18-.09,0-.12-.07-.07-.15.04-.05.12-.14.15-.13.14.06,0-.05,0,.1Z"/>
  <path class="st90" d="M34.02,66.48c.52-.26,1.06-.49.54-1.24-.21-.3,0-.59.28-.74.48-.25.68-.67.75-1.18.03-.03.07-.06.1-.09.09-.02.17-.02.26,0,.11.08.21.16.09.31.18.16-.97.64.15.6.23,0,.37.39.14.51-.97.51-.44,1.34-.44,2.02,0,.24.19.46.08.79-.1.33.17.62.49.8.45.25.79.59.81,1.13.01.4.4.41.57.62.27.33.55.66-.03.99-.48.27-.58.65-.2,1.1-.08.17-.22.42-.38.36-.9-.32-1.77.1-2.65.09-.19,0-.38,0-.56,0-.11,0-.23-.02-.27-.14-.06-.16.04-.3.14-.4.26-.24.57-.06.86-.07.25-.31-.43-.54-.06-.89.18-.17.41-.56.34-.67-.4-.63.28-1.3-.12-1.89.17-.49-.08-.92-.23-1.35-.01-.19-.06-.35-.3-.3-.3.06-.34-.15-.37-.37Z"/>
  <path class="st69" d="M34.7,67.15c.75.72.76.79.23,1.35-.31-.41-.54-.84-.23-1.35Z"/>
  <path class="st84" d="M61.33,70.31c.13-.06.26-.13.4-.17.35-.1.66-.05.79.34.13.42-.22.45-.48.54-.09.03-.17.13-.25.19-.29-.23-1-.25-.45-.9Z"/>
  <path class="st62" d="M36.05,63.54c-.08-.08-.15-.15-.23-.23-.06-.06-.13-.1-.22-.12-.09-.02-.16-.05-.23-.11v-.45c.1-.12.22-.17.37-.18.52-.06.04-.55.31-.73.43.02.66.25.68.68-.21.21-.02.32.12.4.21.12.32.27.33.5-.4-.02-.78.01-1.13.23Z"/>
  <path class="st12" d="M52.53,67.38c-.08-.17-.22-.41-.38-.31-.65.4-1.45.18-2.1.54-.28-.35-.39-.85-.89-1.01-.86-.96.29-.8.61-1.1.04-.18-.02-.33-.12-.47-.13-.59-.17-1.21-.68-1.63-.16-.44-.84-.87-.31-1.33.56-.47,1.32-.79,2.02-.17.3.26.6.22.93.22.41.29.86.49,1.32.69.07.08.11.17.12.28-.06.26-.24.45-.39.66-.39.53.05.49.37.54.66.45,1.03.86.06,1.43-.6.34.02.96-.15,1.42-.04.1-.1.18-.17.26-.08,0-.15,0-.23,0Z"/>
  <path class="st58" d="M52.75,67.38c0-.07,0-.15,0-.22.4-.68.99-1.19,1.51-1.77.07-.07.14-.14.21-.21.22-.2.43-.4.63-.61.1-.11.21-.22.32-.33.39-.37.72-.8,1.27-.95.88-.11.87.32.57.93,0,.07,0,.15,0,.22-.99.89-2,1.76-2.98,2.66-.72.67-.71.69-1.53.28Z"/>
  <path class="st67" d="M63.81,62.19c.07,0,.15,0,.22,0,.34.1.28.46.45.67.05.05.07.1.05.15-.02.05-.03.08-.05.08,0,.08,0,.15,0,.23-.43.18-.83.61-1.35.23-.31-.82-.3-.83.45-1.14.08-.07.15-.14.23-.22Z"/>
  <path class="st15" d="M61.74,67.51c0,.38-.5.79-.94.75-.23-.02-.45-.1-.46-.38-.02-.38.37-.72.83-.73.26,0,.54-.02.58.35Z"/>
  <path class="st47" d="M49.14,63.32c.78.39.62,1.14.68,1.81,0,0-.02.09-.02.09s-.09.02-.09.02c0,0,.09.02.09.02l.02.09c.08.08.14.17.23.23.17.12.26.3.15.47-.13.21-.31.11-.46,0-.03-.02-.06-.05-.09-.07q-.56-.25-.51.5c-.19.53-.75.6-1.13.9-.68.3-1.35.4-2.03,0,.04-.13.15-.29.01-.4-.11-.09-.29-.08-.4-.17-.84-.62-.84-.62-1.64-.11-.05-.05-.1-.08-.16-.09,0,0-.07-.01-.07-.01,0,0,.07.02.08.02.05.02.1.05.15.09-.05.54.61.36.73.73-1.33.13-2.04-.76-1.54-1.98-.78.18-1.29-.15-1.63-.82-.09-.19-.17-.29.07-.43.33-.19-.05-.27-.11-.39-.07-.14-.25-.26-.36-.11-.46.66-.55,0-.7-.21-.09-.12.08-.4-.11-.51-.76-.44-.79-1.2-.88-1.93.33.04.61-.31.95-.14.17.4-.26.4-.36.61-.13.25-.22.52,0,.73.28.28.59.06.79-.13.3-.29.38-.72.43-1.13.04-.32-.06-.66.19-1.05.47.51.89.92.2,1.62.76-.02,1.28-.18,1.83-.43.71-.32.23-.5.04-.76,1.34-.26,2.57.29,3.23,1.46.12.21.28.36.51.39.79.1,1.3.66,1.9,1.08Z"/>
  <path class="st75" d="M48.02,67.37c.11-.64.74-.61,1.13-.9q.89.07.9,1.13c-.21.07-.44.1-.64.2-.61.31-1.06.16-1.39-.43Z"/>
  <path class="st62" d="M37.41,61.51s-.07,0-.11,0c-.18-.03-.46-.12-.4-.26.13-.31.33.03.51.04v.23Z"/>
  <path class="st47" d="M45.89,67.53s-.1.08-.18.14c-.03-.04-.06-.09-.09-.13.09-.05.17-.11.26-.15.12-.05.14-.02.01.15Z"/>
  <path class="st30" d="M52.98,62.86c-.59.05-1.15.04-1.35-.68-.78-.07-.77-.75-.98-1.26-.01-.05-.02-.09-.04-.14,0-.05,0-.09-.01-.14,0-.09,0-.19-.01-.28-.03-.29-.21-.53-.27-.81.04-1.19-.48-2.24-.91-3.3-.12-.31-.84-.14-.77-.49.22-1.01-.7-1.87-.32-2.83.33-.82.14-1.38-.56-1.83-.04-.1-.05-.2-.04-.31,1.23-.75,1.25-.76.31-1.92-.38-.46-.51-.99-.24-1.46.36-.61.43-1.3.68-1.93.7-.32.6-1.1.55-1.55-.08-.8.34-.61.73-.62.03,0,.07.02.1.04.52.45.64-.09.87-.36.05.05.11.11.13.18q.38.98,1.21.5c.17.08.35.16.33.39-.1,1.08-.1,1.09.85,1.2.1.01.2.07.27.1.23.4-.54.82.01,1.11.46.24.51-.44.85-.56.34-.12.79-.57.77.33,0,.31.29.64.71.3.19-.15.42-.14.63-.21.34-.11.27-.35.07-.49-.29-.21-.63-.35-1.01-.55.45-.5,1.16-.83,1.03-1.64,1.09.77,1.19,2.08,1.76,3.14.09.16.09.36.26.47.35.22.45.6.6.94.06.17.11.35.18.53.04.09.07.18.1.27.06.19.13.37.2.56.04.1.07.2.1.31.74,2.83.97,5.66.08,8.51-.48,1.53-1.31,2.84-2.34,4.04-.78.31-.96-.33-1.25-.8-.07-.08-.13-.15-.2-.23-.43-.53-.42-.94-.03-1.08-.47.24-1.07.93-2.08.96-.63.02-.61.94-.89,1.46-.04.04-.08.07-.12.1Z"/>
  <path class="st49" d="M48.47,45.49c0,.07,0,.15,0,.22.08.7.08.73-.32,1.51-.36.71-.32,1.12.25,1.61.24.21.39.45.51.71.35.74.1,1.11-.75,1.15-.16,0-.28.07-.37.21.24.14.33.51.73.42.56-.13.75.1.41.57-.28.39-.23.85-.41,1.26-.11.27-.08.58.07.87.45.88.45.88.19,1.74.54.06,1.06.19.95.92.93.84.78,1.95.77,3.03-.2.22-.46.18-.71.18-.38,0-.65.13-.57.59.07.2.12.39.2.58.08-.11.09-.28.24-.35.2-.1.41-.13.63-.1.17.03.31.12.44.23.18.08.42.22.37.37-.16.53.26.71.53.98-.4.27-.77.65-1.11-.12-.17-.39-.62-.32-.98-.18-.28.1-.55.24-.85.38.15.34.3.7.46,1.05-.18.02-.5.11-.53.06-.47-.99-1.57-.65-2.28-1.11-.09-.19.03-.36.06-.53.08-.4-.07-.63-.48-.72-.81-.2-1.62-.42-2.42-.63.38-.49.13-.91-.16-1.27.09-.37.39-.4.6-.53.26-.17.55-.32.31-.69-.18-.28-.41-.43-.73-.15-.11.09-.27.12-.41.17-.65.22-1.1.1-1.48-.38q-.29-.37.14-1.17c-.17-.08-.33-.18-.5-.24-.17-.06-.37-.07-.56-.3.14-.31.24-.73.49-1.01.31-.35.49-.64.25-1.08-.16-.3.14-.37.29-.51.29-.26.58-.56.28-.96-.47-.61-.31-1.46-.84-2.05-.19-.21-.04-.42.11-.6.13-.16.16-.32.06-.51-.12-.24-.64-.45-.32-.71.37-.3.41-.93.98-.99.29-.03.71.03.65-.38-.06-.41.11-.94-.38-1.23-.19-.12-.67-.1-.44-.46.23-.36.07-.97.64-1.08.23-.04.52-.03.57-.26.25-1.13,1.25-.83,1.96-1.06.44-.14.49.2.53.51.92.28,1.3,1.12,1.86,1.78.12.28-.1.66.25.9.47-.09.29-.61.55-.84.09-.07.18-.08.28-.04,0,.08,0,.15,0,.23Z"/>
  <path class="st30" d="M47.34,45.26c-.83-.38-1.13-1.28-1.81-1.81.87-.42.85-.4,1.55.21.25.22.36.59.86.58.48-.01.22.51.3.79-.03.03-.06.07-.09.1-.21.12-.44.15-.67.14-.05,0-.09-.01-.14-.02Z"/>
  <path class="st7" d="M52.07,43.68c-.16.12-.22.29-.23.48-.03.33-.23.43-.53.41-.29-.03-.51-.18-.54-.46-.05-.36-.03-.73-.04-1.1.38,0,.75,0,1.13,0,.07.08.15.16.22.23,0,.15,0,.3,0,.45Z"/>
  <path class="st2" d="M36.06,61.74c.07.2.17.4.21.61.07.39-.13.43-.44.29-.12-.24-.33-.43-.45-.68,0-.15,0-.3,0-.45.15,0,.3,0,.45,0,.08.08.15.15.23.23Z"/>
  <path class="st47" d="M42.86,60.31c.09,0,.13.04.11.13,0,.03-.03.07-.06.09-.08.05-.16.03-.17-.05,0-.05.08-.11.12-.16Z"/>
  <path class="st30" d="M48.47,45.26c-.08,0-.15,0-.23,0-.03-.04-.06-.08-.09-.11.03-.04.06-.08.09-.11.08.08.15.15.23.23Z"/>
  <path class="st30" d="M52.08,43.23c-.07-.08-.15-.15-.22-.23.07.08.15.15.22.23Z"/>
  <path class="st90" d="M35.38,61.96c.44.03.7.18.45.68-.15,0-.3,0-.45,0-.19-.23-.57-.45,0-.68Z"/>
  <path class="st90" d="M35.38,63.09c.08,0,.15,0,.23,0,.05.05.07.1.05.15-.02.05-.03.07-.05.07h0c-.08-.07-.15-.15-.23-.22Z"/>
  <path class="st69" d="M31.33,44.12c-.34,0-.6-.13-.65-.49-.03-.22.12-.4.33-.29.28.15.77-.05.86.37.07.32-.27.39-.54.42Z"/>
  <path class="st17" d="M25.67,47.52c-.89-.16-1.2-.74-1.13-1.58h0q1.04.23,1.13,1.58Z"/>
  <path class="st54" d="M24.54,45.94c-.31-.18-.6-.38-.97-.82.64.09,1.07.15,1.51.22.07.48-.46.33-.54.61h0Z"/>
  <path class="st37" d="M59.07,48.42c-.16-.37-.43-.7-.46-1.12-.02-.26,0-.53-.06-.78-.08-.29-.02-.59.17-.72.58-.39.96-1.06,1.7-1.21.07-.07.15-.15.22-.22.07-.07.15-.07.22,0h.23c.44.68-.19.91-.59,1.33.35-.11.64-.13.92-.24,1.37-.5,1.68-.35,2.01,1.01.05.19.06.36-.04.54-.36.6-.1,1.08.62,1.19.07.01.15.01.22.02,1.61.24,1.68.38.98,1.89-.08.17-.1.36-.2.53-.51.55-1.24.23-1.83.47-.52.1-1.05.13-1.57.26-.18.03-.35.05-.53.05-1.25,0-1.12-1.18-1.58-1.85h0c-.2-.18-.01-.5-.23-.67h0c-.13-.12-.08-.34-.22-.45Z"/>
  <path class="st44" d="M64.49,43.23c.07,0,.15,0,.22,0,.12-.14.34-.08.45-.22h0c.62.09,1.18-.32,1.81-.23-.25.38-.21.77.2.94.56.22,1.15.58,1.8.2.54-.32,1-.34,1.47.24.25.32.75.46,1.16.62.25.1.52.1.54.45.02.39-.29.64-.54.6-.98-.19-.79.46-.79.99,0,.22-.03.46.03.67.2.64.15,1.22-.41,1.72q1.27.24,1.28,1.68c-.22.26-.53.28-.84.26-.24-.03-.45-.11-.62-.29-.27-.6-.74-1.03-1.25-1.41-1.12-.83-1.12-.82-.53-2.11-.02-.06-.06-.05-.16-.02-.55.18-1.03.13-1.32-.47-.1.59-.42.83-1.02.64-.27-.08-.66.04-.78-.3-.11-.3.21-.44.38-.62.18-.2.24-.46.35-.72-.43-.01-.91.23-1.22-.2-.24-.34.13-.52.29-.77-.17-.2-.32-.01-.47.02-.17.04-.35.2-.51.01-.17-.19-.16-.45,0-.61.3-.32.4-.7.47-1.1Z"/>
  <path class="st44" d="M69.68,42.55c.15-.2.37-.22.59-.22.96,0,1.92,0,2.88,0,.23,0,.44.02.59.22-.47-.08-.81.26-1.21.36-.37.1-.69-.45-1.19-.38-.54.08-1.1.02-1.66.02Z"/>
  <path class="st35" d="M76.44,49.54c-.07.86-.69,1.11-1.39,1.26-.28.06-.58.06-.87.09.74-.47,1.58-.78,2.26-1.35Z"/>
  <path class="st35" d="M70.81,50.91c.3,0,.6-.01.9-.02.32,0,.61.07.89.22.01.06.02.12.03.18-.72.39-1.35.37-1.83-.38Z"/>
  <path class="st44" d="M67.42,42.78c.48-.42,1.05-.14,1.58-.22-.49.31-1.02.36-1.58.22Z"/>
  <path class="st44" d="M70.32,42.85c.09,0,.13.05.1.13-.01.03-.04.06-.07.08-.08.06-.16.04-.16-.06,0-.05.08-.1.12-.15Z"/>
  <path class="st35" d="M73.74,50.92c-.11.17-.27.21-.46.2.1-.18.27-.21.46-.2Z"/>
  <path class="st35" d="M72.6,51.11c.16-.2.32-.21.47,0-.03.03-.06.06-.09.1-.14.05-.26.04-.36-.08l-.02-.03Z"/>
  <path class="st35" d="M73.29,51.12c0,.08,0,.15,0,.23-.19.05-.27-.02-.23-.21,0,0,.02-.02.02-.02.07,0,.14,0,.21,0Z"/>
  <path class="st35" d="M76.67,49.32c-.08.07-.15.15-.23.22.08-.07.15-.15.23-.22Z"/>
  <path class="st1" d="M69.91,55.19c-.17-.26-.43-.21-.68-.22-.11-.2-.02-.42-.09-.64-.45-1.39-.2-1.76,1.24-1.93.61.03,1.25-.15,1.78.31,1.31.16,2.48-.25,3.72-.95v2.64c.35.18.69.09,1.02.11-1.28.52-2.62.67-3.98.68-1,0-2.01,0-3.02,0Z"/>
  <path class="st19" d="M72.16,52.71c-.68,0-1.35,0-2.03,0-.16-.16-.44-.09-.59-.28-1.17-1.4-2.68-1.62-4.38-1.34-.69.11-1.41.31-2.05-.19.26-.28.6-.19.91-.22.31-.03.66.08.91-.21.32-.3.73-.36,1.14-.35,1.44.04,2.9-.01,4.27.57.11.17.27.21.45.23.59.17,1.15.6,1.81.23.15,0,.29,0,.44,0,.08.07.16.14.23.21.54.08,1.07-.12,1.63-.12-.95.46-1.97.75-2.76,1.47Z"/>
  <path class="st34" d="M70.35,50.69c-1.81.06-3.6-.4-5.41-.22.06-.27-.17-.62.21-.79.42-.2.18-.59.34-.95-.83-.08-1.58-.54-2.36-.14-.33-.29-.12-.52-.05-.76.05-.19.06-.36-.19-.44-.13-.04-.3.39-.38-.02-.03-.16.13-.25.29-.28.62-.1.73-.35.21-.76-.15-.12-.24-.26-.27-.46-.11-.65-.25-.77-.64-.44-.58.5-1.23.4-2.01.5.27-.36.42-.68.74-.87.28-.16.27-.43.27-.69,1.08-.51,2.17-1.01,3.38-1.13q.31.57-.41,1.57c.47-.27.94-.46,1.45-.22.04.51-.46.6-.78.94.53.33.94.18,1.34-.12.1-.07.23-.09.3,0,.06.08.11.24.07.3-.21.3-.63.46-.38,1.01.08.19-.66,0-.78.5.44.14.94-.19,1.27.22.27-.35.07-.62.16-.96.63.54,1.26,1.21,2.08.23.12.66-.23,1.02-.43,1.45-.15.33-.23.58.33.81.74.3,1.4.86,1.64,1.73Z"/>
  <path class="st33" d="M60.69,39.04c.09.02.15.1.16.21,0,.1-.03.23-.15.19-.08-.02-.17-.13-.2-.21-.03-.1.04-.19.19-.19Z"/>
  <path class="st34" d="M65.17,43.01c-.1.18-.27.22-.45.22.1-.18.27-.22.45-.22Z"/>
  <path class="st25" d="M60.88,44.36c-.07,0-.15,0-.22,0,.07-.15.15-.16.22,0Z"/>
  <polygon class="st89" points="28.61 69.63 28.51 69.58 28.56 69.54 28.61 69.63"/>
  <path class="st14" d="M26.45,52.78c.05.06.18.2.17.21-.25.3-.17.79-.52,1.01-.23.15-.46.12-.48-.26-.02-.44.41-.99.83-.96Z"/>
  <path class="st14" d="M27.4,56.63c-.06.03-.12.08-.17.07-.08-.01-.1-.09-.04-.16.04-.04.11-.06.17-.09.02.06.03.12.05.17Z"/>
  <polygon class="st14" points="25.45 52.48 25.5 52.39 25.54 52.43 25.45 52.48"/>
  <polygon class="st14" points="25.45 52.48 25.4 52.58 25.35 52.53 25.45 52.48"/>
  <path class="st71" d="M81.11,59c-.1.37-.46.46-.84.46-.53,0-1.07-.63-.97-1.18.09-.5.5-.61.95-.59.53.02.89.52.87,1.31Z"/>
  <path class="st70" d="M59.53,49.55c.42.19.56.59.66.98.13.52.48.61.92.6.33.45.39.9,0,1.35,0,1.28-.09,2.57.23,3.84-.26,1.49-.95,2.84-1.36,4.28-.08.07-.15.15-.22.23h0c-.14.12-.1.33-.23.45h0c-.6.83-1.21,1.65-1.8,2.48-.13.18-.25.36-.46.45q-.02-.75-.68-.68c-.07-.07-.1-.16-.08-.26.18-.35.37-.69.75-.87,1.64-1.94,2.65-4.17,2.89-6.69.1-.98-.17-1.99-.12-2.98.06-1.12-.5-2.11-.52-3.2Z"/>
  <path class="st6" d="M60.36,61.2c.03-.43.23-.63.66-.66-.01.45-.21.65-.66.66Z"/>
  <path class="st6" d="M59.53,61.28c0-.19.04-.35.23-.45,0,.19-.04.35-.23.45Z"/>
  <path class="st6" d="M59.75,60.83c.07-.08.15-.15.22-.23-.07.08-.15.15-.22.23Z"/>
  <path class="st83" d="M64.49,62.86c-.25-.16-.31-.44-.45-.67.46-.27.63-.19.46.36-.03.1,0,.21-.01.31Z"/>
  <path class="st83" d="M64.49,63.09c0-.08,0-.15,0-.23.15.07.16.15,0,.23Z"/>
  <path class="st83" d="M63.81,62.19c-.08.07-.15.14-.23.22.08-.07.15-.14.23-.22Z"/>
  <path class="st65" d="M61.11,52.48c0-.45,0-.9,0-1.35.15,0,.3,0,.45,0,.56.71,1.26.95,2.17.85,1.75-.19,3.49.23,5.25.23.27,0,.52.07.71.28.19,0,.35.04.45.23-.31.05-.83-.13-.83.31,0,.37-.58.85.2,1.22.5.24-.19.47-.27.73h-.11s-.11,0-.11,0c-.38-.49-.75-.25-1.13,0-1.16-.21-2.34-.14-3.51-.21-.76-.05-1.45.29-2.16.48-.78.21-.84.18-.87-.58-.02-.48,0-.97,0-1.45,0-.26.02-.53-.22-.71Z"/>
  <path class="st1" d="M67.87,54.96c.11-.15.2-.32.34-.43.49-.39.62-.31.79.43-.38,0-.75,0-1.13,0Z"/>
  <path class="st55" d="M63.81,71.89c-.18-.13-.22-.29-.02-.42.21-.14.43-.26.7-.25-.16.29-.23.67-.68.68Z"/>
  <path class="st55" d="M64.04,72.79c.03-.2-.46-.15-.23-.45.29.04.57.09.23.45Z"/>
  <path class="st55" d="M63.81,73.25c-.15-.08-.16-.15,0-.23v.23Z"/>
  <path class="st2" d="M35.6,63.31c0-.07,0-.15,0-.22.08.08.15.15.23.23-.07,0-.15,0-.22,0Z"/>
  <path class="st83" d="M56.59,63.32c0,.07,0,.15,0,.22-.38.3-.75.61-1.13.91-.16-.1-.33-.02-.49,0,.03.14.2.12.27.23-.15.3-.38.53-.68.68-.53.67-1.03,1.37-1.8,1.81.02-.54-.38-1.04-.15-1.63.07-.18.01-.33.28-.32.62.03.66-.02.43-.49-.06-.12-.22-.19-.33-.28-.13-.45.25-.9,0-1.35v-.23c.73-.72,1.3-.09,1.91.21.04.1-.15.16-.08.2.09.05.13-.12.23-.15.53-.06,1.11-.51,1.55.19Z"/>
  <path class="st88" d="M52.98,63.09c.47.05.51.37.4.71-.08.23-.26.43-.4.64-.26.02-.51.04-.87.07.03-.66.32-1.11.87-1.42Z"/>
  <path class="st47" d="M49.82,65.12c.15.08.15.15,0,.23h0c-.06-.08-.06-.15,0-.23h0Z"/>
  <path class="st12" d="M55.24,64.67c-.17-.03-.52-.06-.47-.12.18-.22.16-.66.49-.66.28,0,.17.35.21.55-.07.07-.15.15-.22.22Z"/>
  <path class="st80" d="M45.21,63.8c.64.14,1.1.52,1.53.92.15.13.06.35-.1.48-.45.35-1.56.29-1.92-.09-.23-.24-.51-.51-.36-.86.15-.36.62-.19.85-.43Z"/>
  <path class="st4" d="M43.35,66.35c-.04-.09-.02-.15.07-.16.02,0,.05.05.06.08.01.07.02.14.02.21-.05-.04-.11-.09-.16-.13Z"/>
  <path class="st4" d="M43.5,66.47c.19,0,.35.04.45.23-.19,0-.35-.04-.45-.23Z"/>
  <path class="st12" d="M49.82,65.12v.23c-.15-.08-.15-.15,0-.23Z"/>
  <path class="st12" d="M54.79,63.32c-.06-.3-.14-.53-.47-.2-.13.14-.31.28-.46.1-.07-.08.04-.31.08-.49-.33.05-.64.1-.96.14-.03-.79.18-1.46.88-1.91.12-.08.27-.26.37-.17.57.54.77-.02,1.15-.29.48-.35,1.08-.55,1.64-.82.14.36-.08.4-.22.48q-.85.5-.43,1.35h0c.15.01.37.04.36.19-.05.45.23.58.55.71-.18.33-.27.74-.67.9-.6-.35-1.21.15-1.81,0Z"/>
  <path class="st43" d="M50.27,60.83c-.22,0-.45,0-.67,0-.3.14-.46-.12-.68-.23-.09-.86.13-1.11.92-1,.22.03.44.07.66.1.25.16.32.44.45.67-.08.07-.15.15-.22.23h0c-.11.15-.34.08-.45.23Z"/>
  <path class="st82" d="M53.97,53.88c0,.25-.7.63-1.1.6-.35-.03-.55-.22-.53-.58.02-.34.63-.76,1.02-.71.41.05.52.37.61.69Z"/>
  <path class="st85" d="M52.92,49.1c.32,0,.55-.02.69.21.1.16.2.33-.02.48-.41.28-.91.28-1.37.35-.25.03-.39-.39-.2-.59.27-.27.62-.4.9-.44Z"/>
  <path class="st12" d="M51.46,61.6c-.07-.32-.01-.49.17-.59.07-.04.15,0,.15.09-.01.19-.09.36-.32.51Z"/>
  <path class="st70" d="M59.3,48.87c.27.16.22.43.23.67-.27-.16-.22-.43-.23-.67Z"/>
  <path class="st12" d="M50.27,60.83c.1-.18.27-.22.45-.23,0,.08,0,.15,0,.23-.15,0-.3,0-.45,0Z"/>
  <path class="st70" d="M59.07,48.42c.18.1.22.26.22.45-.18-.1-.22-.27-.22-.45Z"/>
  <path class="st12" d="M50.72,60.61c.07-.08.15-.15.22-.23-.07.08-.15.15-.22.23Z"/>
  <path class="st26" d="M47.01,50.22c-.51.02-.83-.07-.77-.53.05-.37.16-.75.64-.78.31-.02.64.45.64.91,0,.46-.35.4-.51.41Z"/>
  <path class="st7" d="M48.24,45.26c0,.26,0,.51-.02.77-.03.33-.22.56-.57.54-.41-.02-.56-.33-.52-.69.02-.21.13-.41.21-.62h0c.3-.16.6-.17.9,0h0Z"/>
  <path class="st12" d="M48.92,60.61c.23.08.45.15.68.23-.01.26.04.53-.3.8-.04-.4-.17-.74-.38-1.02Z"/>
  <path class="st30" d="M47.79,50.93c-.17.16-.3.2-.44.15-.11-.04-.17-.14-.11-.24.1-.17.24-.08.36-.02.07.03.14.08.19.11Z"/>
  <path class="st49" d="M48.24,45.26c-.3,0-.6,0-.9,0,.24-.33.59-.19.9-.23v.23Z"/>
  <path class="st50" d="M69.68,52.48c-1.86.15-3.69-.35-5.55-.23-.33.02-.67,0-1,.05-.25.03-.63.29-.71.07-.18-.48-.79-.4-.94-.83-.04-.12.05-.28.08-.42.49-.32,1.03-.23,1.56-.23.81,0,1.61.01,2.42-.18.95-.22,1.9.11,2.86.21.1.01.26.08.27.15.12.57.61.67,1.02.91.2.12.04.33-.01.5Z"/>
  <polygon class="st12" points="54.79 63.32 54.73 63.41 54.69 63.37 54.79 63.32"/>
  <path class="st12" d="M54.56,65.35s-.09-.04-.09-.05c.02-.08.05-.06.09.05Z"/>
  <path class="st30" d="M56.36,61.51s-.04.09-.05.09c-.08-.02-.06-.05.05-.09h0Z"/>
</svg>