<?xml version="1.0" encoding="UTF-8"?>
<svg id="DESIGNED_BY_FREEPIK" xmlns="http://www.w3.org/2000/svg" version="1.1" viewBox="0 0 100 100">
  <!-- Generator: Adobe Illustrator 30.3.0, SVG Export Plug-In . SVG Version: 2.1.3 Build 182)  -->
  <defs>
    <style>
      .st0 {
        fill: #c12000;
      }

      .st0, .st1 {
        opacity: .1;
      }

      .st2 {
        fill: #fff;
        opacity: .2;
      }

      .st3 {
        fill: #dbb3a9;
      }

      .st4 {
        fill: #efc6bd;
        opacity: .5;
      }

      .st1, .st5 {
        fill: #d80766;
      }

      .st5 {
        opacity: .07;
      }

      .st6 {
        fill: #f4e5eb;
      }
    </style>
  </defs>
  <path class="st3" d="M39.75,35.97s5.71-6.73,12.46-5.45c6.75,1.28,9.33,5.28,5.87,10.48-3.47,5.2-11.23,3.29-14.42,1.28-3.19-2.01-3.9-4.53-3.9-4.53v-1.78Z"/>
  <path class="st6" d="M5,25.57s10.81-2.05,19.56,2.6c8.76,4.65,15.18,9.58,15.18,9.58,0,0,2.61,5.65,11.35,5.34,7.52-.27,8.62-4.65,7.66-7.66-1.03-3.25-5-5-9.03-4.47-.82.11-1.63.31-2.43.61-.33.13-.66.27-.99.43-4.31,2.16-6.1,3.58-6.49,3.9-.02.02-.04.03-.05.04,0,0-.01.01-.02.02h-.01c-.55-6.15,5.88-18.73,21.34-17.77,15.46.96,23.12,15.32,21.75,26.67-.71,5.91-3.38,13.92-8.48,20.41-4.7,5.98-11.47,10.66-20.65,11.19-15.44.88-28.93-3.93-37.09-12.71-1.96-2.11-3.61-4.44-4.91-6.99-4.39-8.61-5.91-19.33-6.43-25.7-.27-3.35-.27-5.49-.27-5.49Z"/>
  <path class="st5" d="M5,25.57s10.81-2.05,19.56,2.6c8.76,4.65,15.18,9.58,15.18,9.58,0,0,2.61,5.65,11.35,5.34,7.52-.27,8.62-4.65,7.66-7.66-1.33-4.18-7.52-5.88-12.45-3.42-4.31,2.16-6.1,3.58-6.49,3.9.84-.72,8.17-6.85,15-5.65,7.25,1.28,12.26,16.32-3.52,17.38-15.78,1.07-27.41-20.37-37.01-15.25-9.43,5.03-4.06,17.79,2.32,31.36-1.96-2.11-3.61-4.44-4.91-6.99-6.7-13.13-6.7-31.19-6.7-31.19Z"/>
  <path class="st4" d="M42.48,37.21c0-.59.24-1.15.66-1.56,1.36-1.31,4.65-3.97,8.38-3.26,4.89.93,6.77,3.83,4.25,7.6-2.51,3.77-8.15,2.38-10.46.93-1.54-.97-2.28-2.1-2.61-2.75-.15-.3-.22-.63-.22-.96h0Z"/>
  <path class="st5" d="M61.09,18.18c15.46.96,23.12,15.32,21.75,26.67-.71,5.91-3.38,13.92-8.48,20.41,6.39-10.14,11.92-27.95,1.48-37.9-13.44-12.8-27.62-5.87-30.5-1.17-2.88,4.69,1.17,5.33,2.45,5.01l-.48.36c-.33.13-.66.27-.99.43-4.31,2.16-6.1,3.58-6.49,3.9-.02.02-.04.03-.05.04,0,0-.01.01-.02.02h-.01c-.55-6.15,5.88-18.73,21.34-17.77Z"/>
  <path class="st2" d="M70.71,53.5c-5.12,11.19-28.26,14.72-37.22-1.39-8.96-16.1-22.08-8.64-18.24,3.73,3.84,12.37,12.01,16.46,25.31,19.37,14.43,3.16,29.18-2.31,34.09-14.89s-.53-14.29-3.95-6.83Z"/>
  <path class="st2" d="M77.33,44.11c-1.57,3.7-5.23,2.99-5.97-.11s-.53-6.93-3.09-11.2c-2.56-4.27,3.09-5.97,6.61-1.17,3.52,4.8,3.63,9.7,2.45,12.48Z"/>
  <path class="st2" d="M63.75,45.86c-2.18,4.73-13.22,8.32-21.9,2.56-8.67-5.76-4.19,17.7,16.35,10.17,20.55-7.54,8.96-20.12,5.55-12.73Z"/>
  <path class="st1" d="M5,25.57s10.81-2.05,19.56,2.6c8.76,4.65,15.18,9.58,15.18,9.58,0,0,2.61,5.65,11.35,5.34,7.52-.27,8.62-4.65,7.66-7.66-1.03-3.25-5-5-9.03-4.47,1.49-.31,3.29-.4,4.88-.06,3.06.64,6.58,4.16,4.98,8.64-1.6,4.48-4.59,6.33-12.12,5.26-7.54-1.07-14.5-9.38-23.67-14.29-7.74-4.14-15.18-3.57-18.51.56-.27-3.35-.27-5.49-.27-5.49Z"/>
  <path class="st0" d="M58.1,37.5c-.42,3.48-2.96,4.87-7.58,4.83s-8.28-1.67-10.06-4.37c0,0,1.48-2.36,5.51.57,4.37,3.18,7.29,1.99,8.96-.04s-3.45-.75-4.44-2.74c-1-1.99.5-4.26,3.51-3.54,3.64.87,4.25,4.11,4.11,5.28Z"/>
</svg>