<?xml version="1.0" encoding="UTF-8"?>
<svg id="DESIGNED_BY_FREEPIK" xmlns="http://www.w3.org/2000/svg" version="1.1" viewBox="0 0 100 100">
  <!-- Generator: Adobe Illustrator 30.3.0, SVG Export Plug-In . SVG Version: 2.1.3 Build 182)  -->
  <defs>
    <style>
      .st0 {
        fill: #f42a35;
      }

      .st1 {
        fill: #fff;
      }

      .st1, .st2 {
        opacity: .15;
      }

      .st3 {
        fill: #fcf0e8;
      }

      .st4 {
        fill: #f96985;
      }

      .st5 {
        fill: #f1d3c1;
      }

      .st6 {
        fill: #f94e67;
      }

      .st7 {
        fill: #f1dfd4;
      }

      .st8 {
        fill: #fcf6f2;
      }

      .st9 {
        fill: #ff99b6;
      }

      .st10 {
        fill: #f93d4f;
      }

      .st2 {
        fill: #e51a2e;
      }

      .st11 {
        fill: #fc7e9c;
      }

      .st12 {
        fill: #a80020;
        opacity: .1;
      }

      .st13 {
        fill: #f7e8df;
      }

      .st14 {
        fill: #f1d9ca;
      }

      .st15 {
        fill: #6d0010;
        opacity: .05;
      }
    </style>
  </defs>
  <g>
    <path class="st8" d="M18.77,78.92c.99-1.74,2.67-3.54,4.85-2.8.4.14.94.37,1.25.67.36.36.34.3.17.86-.34,1.09-.9,2.12-1.54,3.06-.77,1.13-2.33,3.57-3.96,3.35-2.37-.32-1.48-3.9-.77-5.14Z"/>
    <g>
      <path class="st9" d="M18.43,83.43c.07,0,.12,0,.16-.01,1.03-.19,2-.69,2.86-1.27.89-.6,1.7-1.32,2.42-2.12.07-.08.14-.16.21-.24-.49.84-1.07,1.66-1.68,2.35,0,0,0,0,0,0-.99.86-2.1,1.54-3.25,1.87-.03,0-.05-.02-.08-.04-.26-.14-.47-.32-.64-.53Z"/>
      <path class="st9" d="M24.15,76.34c-.19.29-.39.69-.48.82-.36.51-.76.99-1.19,1.45-.77.82-1.64,1.55-2.6,2.14-.61.38-1.28.72-1.99.92,0,.31.02.61.09.88,2.75-.84,5.25-3.68,6.33-6.11l-.18-.1Z"/>
      <path class="st9" d="M18.77,78.92c.87-.57,1.67-1.26,2.38-2.01.27-.29.53-.59.78-.9.14-.04.28-.05.42-.06-.98,1.61-2.47,3.22-4.15,4.2.14-.4.33-.81.56-1.23Z"/>
    </g>
    <path class="st3" d="M23.97,69.42c1.15-.3,2.54.25,3.61.65,1.06.39,2.09.87,3.11,1.37.34.17,1.31.5,1.39.84.06.28-.37.99-.48,1.25-.22.51-.46,1.01-.75,1.49-.96,1.62-2.4,2.96-4.27,3.22-.22.03-.45.05-.68.05-1.27,0-2.55-.31-3.81-.43-.69-.07-2.41.19-2.33-.72.02-.23.08-.47.16-.72.16-.51.41-1.02.58-1.46.3-.8.62-1.6.98-2.37.49-1.03,1.24-2.85,2.49-3.17Z"/>
    <g>
      <path class="st11" d="M23.9,78.11c.66-.17,1.37-.41,1.99-.69,2.26-1.05,4.03-3.19,5.1-5.4.3.2.6.41.89.61-1.66,1.79-3.3,3.54-5.28,4.98-.32.24-.65.46-.99.67h0c-.18,0-.4-.01-.59-.03-.4-.05-.77-.1-1.12-.14Z"/>
      <path class="st11" d="M28.32,70.81c.3.2.59.41.89.61-1.5,1.53-2.87,3.16-4.59,4.46-1.07.81-2.32,1.51-3.55,1.98-.44,0-.67-.04-.92-.11-.25-.07-.5-.26-.43-.49h0c3.77-.14,7.05-3.16,8.59-6.44Z"/>
      <path class="st11" d="M21.05,73.55s.05-.02.07-.03c1.71-.88,3.12-2.43,4.14-4.1.23.04.47.09.72.15-1.32,1.43-2.68,2.78-4.24,3.98-.32.25-.64.48-.97.69.09-.23.18-.46.28-.69Z"/>
    </g>
    <path class="st13" d="M26.03,62.4c1.59-1.58,4.19-1.07,6.1-.48,2.59.8,4.93,2.11,7.35,3.29,1.02.5,1.82.67,1.57,1.93-.26,1.28-.65,2.52-1.26,3.67-.11.2-.22.39-.34.58-.11.17-.23.34-.35.51-.78,1.06-1.83,2-3.13,2.29-.98.22-1.97,0-2.92-.32-.41-.14-.82-.29-1.21-.43-1.76-.63-3.5-1.33-5.25-1.99-1.26-.47-2.77-1.07-4.12-.64,0-.19.01-.38.03-.56.07-.97.25-1.95.55-2.88.16-.51.36-1.01.58-1.49.6-1.29,1.41-2.47,2.41-3.46Z"/>
    <g>
      <path class="st4" d="M32.89,73.79c.63-.16,1.24-.4,1.81-.67,2.09-.99,3.75-2.67,4.93-4.64.18-.31.77-.98.51-1.36-.27-.39-.58-.19-.78.1-.33.47-.43,1.24-.73,1.77-.29.52-.65,1-1.04,1.44-1.52,1.68-3.95,2.85-6.25,2.37-.16-.03-.55.03-.82.12l2.37.85Z"/>
      <path class="st4" d="M27.51,71.79c.16-.02.36-.03.62-.02,1.09.05,2.68-.75,3.52-1.24,1.13-.66,2.19-1.51,3.01-2.53.41-.51.76-1.06,1-1.66.18-.45.12-1.36.37-1.71.31-.42.74-.17.81.26.06.39-.32,1.04-.48,1.39-1.13,2.36-3.44,4.25-5.68,5.53-.4.23-.85.49-1.33.69-.62-.24-1.23-.48-1.83-.69,0,0,0,0-.01,0Z"/>
      <path class="st4" d="M24.31,70.82c.13-.03.27-.07.44-.1.93-.19,3-1.91,3.36-2.22,1.11-.95,2.15-2.01,3.03-3.19.48-.65.96-1.36,1.24-2.12.08-.22.09-.73.22-1.08.25.08.49.16.74.25-.16.74-.75,1.87-.86,2.03-1.55,2.34-3.73,4.39-5.86,6.19-.23.19-.49.43-.77.64-.55-.17-1.06-.31-1.53-.4Z"/>
      <path class="st4" d="M22.54,69.8c1.75-1.57,3.31-3.58,4.12-5.75.23-.61.41-1.27.41-1.93,0-.1-.02-.23-.03-.37.27-.11.56-.19.86-.24.08.75-.48,2.1-.61,2.42-.83,2.01-2.17,3.79-3.48,5.5-.33.42-.63.88-.97,1.3-.14.02-.26.04-.38.08,0,0,0-.38.08-1h0Z"/>
    </g>
    <path class="st7" d="M27.48,52.98c.57-.92,1.24-1.83,2.09-2.5.71-.55,1.21-.56,2.08-.37,2.07.44,4.08,1.38,6,2.24,2.17.96,4.31,1.99,6.43,3.05,1.36.68,2.99,1.27,4.22,2.16,1.02.74.56,3,.29,4.06-.49,1.91-1.51,3.77-2.98,5.1-.93.84-1.89,1.25-2.86,1.36-2.42.27-4.87-1.33-7.04-2.76-2.94-1.95-8.06-4.05-11.12-1.19-.05-.81-.04-1.62.03-2.43.24-3.08,1.23-6.1,2.86-8.71Z"/>
    <g>
      <path class="st6" d="M37.92,66.65c2.58-.85,4.98-3.17,5.94-5.69.49-1.29.68-2.72.39-4.07-.27-1.29,1.01-1.36,1.04-.13.07,2.91-1.3,5.57-3.04,7.83-.85,1.11-1.88,2.12-3.13,2.78-.01,0-.02.01-.03.02-.52-.22-.94-.44-1.32-.66.04-.03.09-.06.14-.08Z"/>
      <path class="st6" d="M38.9,52.91c.52.24,1.05.48,1.56.73.85,2.79-.76,6.34-2.08,8.7-.61,1.08-1.37,2.4-2.44,3.13-.31-.21-.64-.43-1.03-.66,1.21.06,2.6-2.35,3.06-3.14.78-1.35,1.38-2.84,1.68-4.36.14-.75.22-1.52.14-2.28-.09-.8-.44-1.2-.79-1.85-.04-.08-.08-.18-.1-.27Z"/>
      <path class="st6" d="M32.64,50.38c.55.17,1.16.38,1.81.63,1.1,2.36.31,5.35-.5,7.68-.54,1.53-1.23,3.03-2.05,4.43-.04.07-.09.16-.14.25-.34-.12-.68-.22-1-.3,2.04-1.9,3.38-5.32,3.47-7.97.05-1.46-.25-3-1.14-4.19-.12-.17-.32-.34-.45-.53Z"/>
      <path class="st6" d="M27.48,52.98c.19-.3.38-.6.58-.87.63,1.91.3,4.5.16,6.06-.14,1.54-.35,3.09-.77,4.59,0,.03-.02.06-.03.1-.55.08-1.02.23-1.41.38.8-2.57,1.94-5.12,1.89-7.85-.01-.78-.14-1.64-.44-2.41Z"/>
    </g>
    <path class="st14" d="M29.84,38.59c.88-1.49,1.87-3.01,3.15-4.18,1.22-1.12,2.82-1.46,4.43-1.63,3.31-.36,6.78.05,9.96,1.02,3.45,1.05,6.25,3.2,9.2,5.21,1.56,1.06,3.11,2.12,4.67,3.18.48.33,1.06.63,1.5,1.02.46.4.34.79.32,1.44-.13,4.88-2.31,11.95-7.17,14.14-.95.43-2.01.67-3.17.67-3.55,0-7.21-2.07-10.26-3.7-3.29-1.75-6.82-4.23-10.63-4.59-.91-.08-1.83-.01-2.7.28-.45.15-.58.29-.99.21-.77-.14-1.31-.87-1.6-1.6-.1-.24-.17-.48-.21-.7-.35-1.78.27-3.65.9-5.3.71-1.89,1.6-3.71,2.63-5.45Z"/>
    <g>
      <path class="st10" d="M57.23,50.31c1.46-2.95,2.42-6.55,1.39-9.78.04-.01.09-.02.13-.03.42-.11.84-.21,1.26-.32.08.43.14.87.18,1.3.36,4.17-1.33,8.4-3.6,11.83-1.4,2.12-3.41,4.75-5.91,5.9-.14-.03-.29-.07-.43-.11-.5-.14-.99-.3-1.48-.47,0,0,0,0,0,0,0-.17.12-.3.28-.32,1.68-.14,3.27-1.57,4.38-2.67,1.55-1.54,2.82-3.37,3.79-5.33Z"/>
      <path class="st10" d="M52.39,37.34c.34-.16.67-.32,1.01-.49.09-.05.19-.09.28-.14.06.14.11.29.16.43h0c1.44,4.37-.82,9.69-2.77,13.53-1.27,2.5-2.78,4.93-4.64,7.03h0c-.44-.19-.87-.39-1.29-.59,2.85-2.31,4.89-5.78,6.29-9.1,1.29-3.06,2.74-7.53.96-10.68Z"/>
      <path class="st10" d="M44,33.92c.45-.17.9-.34,1.34-.51,2.76,7.59-1.49,14.7-4.18,21.64-.34-.19-.68-.37-1.01-.55,3.86-5.86,6.54-13.81,3.85-20.58Z"/>
      <path class="st10" d="M36.29,33.42c.38-.21.75-.42,1.13-.64.04-.02.08-.04.12-.07,0,.02.02.03.02.05,1.68,3.86,1.34,8.06.65,12.11-.36,2.13-.8,4.27-1.63,6.28-.09.21-.29.75-.53,1.25-.48-.21-.95-.41-1.41-.57,2.86-5.4,4.92-12.9,1.65-18.42Z"/>
      <path class="st10" d="M29.84,38.59c.14-.24.29-.48.43-.71,1.45,4.24,1.29,8.77.44,13.25-.49.03-.97.11-1.45.25,1.11-4.18,2.25-8.89.58-12.79Z"/>
    </g>
    <path class="st5" d="M31.55,20.21c.85-1.2,1.87-2.28,2.97-3.24.55-.48,1.03-.51,1.74-.67,2.73-.6,5.47-1.18,8.21-1.75,6.13-1.26,12.28-2.5,18.47-3.36,2.83-.39,5.74-.81,8.58-.22,2.85.59,5.49,2,7.75,3.8,1.56,1.24,2.58,2.32,3.45,4.07,1.39,2.78,2.33,5.87,2.36,8.99.03,2.31-.52,4.44-1.52,6.37-.93,1.8-2.24,3.41-3.83,4.81-2.94,2.58-6.61,4.22-10.42,5.03-1.15.25-2.32.42-3.5.5-.67.05-.97-.04-1.39-.27h0c-.18-.1-.38-.23-.64-.38-5.1-3.05-10.46-5.83-16.07-7.84-2.87-1.03-5.85-1.85-8.91-2.05-2.15-.14-4.73-.05-6.49,1.39-.53.43-1,1.02-1.17,1.69-.51-.81-.93-1.67-1.27-2.55-1.08-2.78-1.33-5.85-.73-8.75.41-1.98,1.2-3.87,2.4-5.55Z"/>
    <g>
      <path class="st0" d="M72.21,11.13c.86.22,1.68.51,2.44.84.44,1.02.84,2.1,1.18,3.22,1.06,3.43,2.07,8.69.9,14.31-1.68,8.05-7.64,13.08-11.96,14.98-.29-.18-1-.62-2.04-1.22,3.74-1.1,11.33-5.74,13.04-13.94,1.4-6.67-1.32-13.78-3.56-18.18Z"/>
      <path class="st0" d="M63.61,11.1c.68-.09,1.33-.17,1.94-.23.53,1.17,1.01,2.44,1.41,3.74,1.06,3.43,2.07,8.69.9,14.31-1.21,5.81-4.65,10.04-8.1,12.67-.58-.31-1.19-.64-1.83-.98,3.33-2.33,7.62-6.2,8.81-11.88,1.34-6.4-1.01-13.22-3.13-17.63Z"/>
      <path class="st0" d="M55.22,12.46c.62-.11,1.25-.22,1.86-.33.2.55.39,1.1.57,1.67,1.06,3.43,2.07,8.69.9,14.31-.89,4.24-2.96,7.64-5.35,10.19-.6-.28-1.21-.55-1.83-.81,2.37-2.38,5.22-5.48,6.08-9.59,1.13-5.42-.6-11.17-2.22-15.43Z"/>
      <path class="st0" d="M46.67,14.1c.6-.12,1.22-.25,1.84-.37.14.4.27.8.4,1.2,1.06,3.43,2.07,8.69.9,14.31-.52,2.49-1.45,4.7-2.62,6.61-.62-.21-1.23-.41-1.84-.6,1.18-1.83,2.4-2.43,3.46-5.97,1.52-5.1-.63-10.99-2.14-15.18Z"/>
      <path class="st0" d="M39.32,15.64c.57-.12,1.17-.25,1.82-.39.93,3.4,1.66,8.19.6,13.27-.43,2.05-1.13,3.9-2.01,5.55-.76-.08-1.45-.12-2.09-.12,1.01-1.7,2.01-2.3,2.91-5.54,1.47-5.32-.18-9-1.22-12.77Z"/>
      <path class="st0" d="M31.55,20.21c.43-.61.93-1.22,1.5-1.82.84,3.35,1.41,7.84.42,12.58-.38,1.81-.97,3.46-1.71,4.97-.44.54-.57,1.01-.59,1.11v.02c-.05-.07-.53-.82-1.04-2.06.76-1.1,1.86-2.91,2.19-4.51.74-3.53.54-7.17-.76-10.28Z"/>
    </g>
    <path class="st2" d="M25.86,56.25c.74-.28,1.53-.46,2.31-.56,4.14-.53,8.48.78,12.22,2.47,2.17.99,4.27,2.18,6.15,3.64.41.32,1.05.75,1.58,1.22-.2.5-.44.99-.72,1.45-3.27-2.18-7.19-3.71-10.85-4.97-3.43-1.17-7.81-2.51-11.39-1.17.04-.14.08-.28.12-.42.16-.55.35-1.11.57-1.68Z"/>
    <path class="st2" d="M23.62,65.86c3.41.14,7.18,1.22,10.57,2.49,1.9.71,3.79,1.52,5.58,2.46-.11.2-.22.39-.34.58-.11.17-.23.34-.35.51-2.68-1.11-5.5-2.02-8.16-2.83-2.43-.74-5.33-1.56-7.89-1.72.16-.51.36-1.01.58-1.49Z"/>
    <path class="st2" d="M28.79,40.51c.58-.13,1.16-.23,1.75-.31,6.74-.87,13.82,1.26,19.9,4.03,3.53,1.61,6.95,3.56,10.02,5.93.37.29.86.63,1.37,1.02-.25.72-.55,1.43-.88,2.11-.08.16-.16.32-.25.48-5.08-3.16-10.97-5.45-16.5-7.34-5.09-1.74-11.49-3.71-16.99-2.38h0s1.57-3.53,1.57-3.53h0Z"/>
    <path class="st15" d="M31.55,20.21c.85-1.2,1.87-2.28,2.97-3.24.55-.48,1.03-.51,1.74-.67,2.73-.6,5.47-1.18,8.21-1.75,6.13-1.26,12.28-2.5,18.47-3.36,2.83-.39,5.74-.81,8.58-.22,2.85.59,5.49,2,7.75,3.8,1.56,1.24,2.58,2.32,3.45,4.07,1.39,2.78,2.33,5.87,2.36,8.99.03,2.31-.52,4.44-1.52,6.37,1.9-8.22-3.29-18.46-14.08-19.84-11.48-1.47-36.58,3.46-40.35,11.42.41-1.98,1.2-3.87,2.4-5.55Z"/>
    <path class="st15" d="M29.88,34.52c2.52-2.24,7.05-3.59,14.39-1.97,8.56,1.89,17.89,7.56,20.15,11.71-.18-.1-.38-.23-.64-.38-5.1-3.05-10.46-5.83-16.07-7.84-2.87-1.03-5.85-1.85-8.91-2.05-2.15-.14-4.73-.05-6.49,1.39-.53.43-1,1.02-1.17,1.69-.51-.81-.93-1.67-1.27-2.55Z"/>
    <path class="st15" d="M26.53,50.04c3.25-2.73,11.42-.41,16.34,3.66,5.02,4.15,9.32,5.5,13.02,5.08-.95.43-2.01.67-3.17.67-3.55,0-7.21-2.07-10.26-3.7-3.29-1.75-6.82-4.23-10.63-4.59-.91-.08-1.83-.01-2.7.28-.45.15-.58.29-.99.21-.77-.14-1.31-.87-1.6-1.6Z"/>
    <path class="st15" d="M24.62,61.7c2.13-1.33,6.04-1.27,9.28,1.28,4.74,3.72,6.32,4.56,8.86,5.1-2.42.27-4.87-1.33-7.04-2.76-2.94-1.95-8.06-4.05-11.12-1.19-.05-.81-.04-1.62.03-2.43Z"/>
    <path class="st15" d="M22.48,70.23c2.53-.65,8.11,1.76,10.55,3.62-.41-.14-.82-.29-1.21-.43-1.76-.63-3.5-1.33-5.25-1.99-1.26-.47-2.77-1.07-4.12-.64,0-.19.01-.38.03-.56Z"/>
    <path class="st15" d="M19.92,76.42c.72,1.05,4.47,1.75,6.65,1.82-.22.03-.45.05-.68.05-1.27,0-2.55-.31-3.81-.43-.69-.07-2.41.19-2.33-.72.02-.23.08-.47.16-.72Z"/>
  </g>
  <path class="st12" d="M32.61,18.88c.95-1.08,1.91-2.19,3.36-2.52,1.66-.37,3.32-.73,4.99-1.08l.18-.04c-11.3,8.5-7.56,19.26-7.56,19.26-1.77,2.25-4.92,8.27-4.42,12.42.49,4.07,2.36,4.17,2.43,4.17-.1.05-3.81,1.91-4.98,6.27-1.19,4.41,1.7,5.33,1.7,5.33,0,0-2.28.54-3.2,4.12-.92,3.58.74,4.39.74,4.39-4.43,1.03-5.7,6.52-5.7,6.52-2.21,2.82-2.39,4.43-1.1,6.12-.66-.27-1.13-.92-1.14-1.88,0-.99.33-2.09.79-2.93.25-.45.59-.84.84-1.28.21-.37.18-.46.25-.86.16-.94.66-1.87,1.01-2.74.38-.95.78-1.9,1.27-2.8.65-1.19.54-2.69.96-4.01.37-1.15.9-2.25,1.58-3.25.04-.04-.05-1.36-.04-1.54.02-.6.07-1.21.14-1.81.13-1.02.33-2.03.63-3,.65-2.16,1.63-4.32,3.06-6.09-1.62.1-2.18-2.24-2.18-3.43,0-1.45.49-2.85.99-4.19.56-1.48,1.22-2.91,1.98-4.3.41-.75.84-1.49,1.3-2.21.17-.26.46-.57.44-.84,0,0-.44-.78-.57-1.07-2.66-5.49-1.76-12.16,2.25-16.75Z"/>
  <g>
    <path class="st1" d="M74.2,41.13c-7.53,3.27-11.6-4.76-21.32-8.73-9.72-3.98-16.35-2.16-16.69-5.87s7.07-9.34,17.44-8.31c10.38,1.04,24.15-2.13,26.99,8.28,2.68,9.81-4.38,13.75-6.42,14.63Z"/>
    <path class="st1" d="M72.22,37.01c-5.34,1.74-9.24-3.64-16.99-6.69-7.75-3.05-12.56-2.2-13.2-4.61-.64-2.41,4.35-5.68,12.28-4.5,7.93,1.18,17.98-.18,21.22,6.68,3.05,6.46-1.87,8.65-3.32,9.12Z"/>
    <path class="st1" d="M69.01,33.5c-3.63.57-6.7-2.94-12.32-5.4-5.62-2.46-8.94-2.37-9.54-3.85s2.7-2.99,8.33-1.62c5.63,1.37,12.59,1.42,15.28,5.76,2.54,4.08-.77,4.96-1.76,5.12Z"/>
  </g>
  <g>
    <path class="st1" d="M54.46,56.17c-4.97,1.78-7.23-3.54-13.29-6.49s-10.39-2.07-10.45-4.47,4.92-5.69,11.53-4.59c6.61,1.1,15.56-.35,16.95,6.44,1.31,6.4-3.38,8.63-4.73,9.11Z"/>
    <path class="st1" d="M53.36,53.45c-3.5.89-5.77-2.72-10.6-5-4.84-2.28-7.95-1.94-8.27-3.51-.31-1.57,3.03-3.46,8.06-2.37,5.03,1.09,11.53.64,13.32,5.17,1.68,4.27-1.56,5.47-2.51,5.71Z"/>
    <path class="st1" d="M51.45,51.06c-2.35.21-4.17-2.17-7.67-3.98-3.5-1.81-5.63-1.9-5.95-2.87-.32-.97,1.85-1.8,5.41-.68,3.55,1.12,8.01,1.44,9.55,4.33,1.45,2.72-.7,3.15-1.34,3.2Z"/>
  </g>
  <g>
    <path class="st1" d="M43.01,66.97c-3.47,1.01-4.81-2.72-8.84-5s-7.03-1.85-6.97-3.49,3.61-3.69,8.08-2.67c4.48,1.03,10.67.4,11.34,5.11.63,4.44-2.67,5.77-3.62,6.04Z"/>
    <path class="st1" d="M42.38,65.06c-2.43.46-3.84-2.1-7.06-3.86-3.22-1.76-5.37-1.66-5.52-2.75-.15-1.09,2.22-2.24,5.62-1.29,3.4.96,7.87.91,8.91,4.09.97,2.99-1.29,3.68-1.95,3.8Z"/>
    <path class="st1" d="M41.16,63.35c-1.62.05-2.77-1.66-5.09-3.04-2.32-1.39-3.78-1.53-3.96-2.21-.18-.68,1.34-1.16,3.73-.25,2.39.91,5.43,1.32,6.36,3.36.88,1.92-.61,2.13-1.05,2.14Z"/>
  </g>
  <g>
    <path class="st1" d="M36.29,73.52c-2.44.71-3.38-1.91-6.21-3.51-2.83-1.6-4.94-1.3-4.9-2.45.04-1.15,2.53-2.6,5.68-1.87,3.15.72,7.5.28,7.97,3.59.44,3.12-1.88,4.05-2.54,4.25Z"/>
    <path class="st1" d="M35.84,72.18c-1.71.33-2.7-1.48-4.96-2.71s-3.77-1.16-3.88-1.93c-.1-.77,1.56-1.58,3.95-.9,2.39.67,5.53.64,6.26,2.88.69,2.1-.91,2.59-1.37,2.67Z"/>
    <path class="st1" d="M34.99,70.98c-1.14.03-1.94-1.16-3.58-2.14s-2.65-1.08-2.78-1.55.94-.81,2.62-.17,3.81.93,4.47,2.36c.62,1.35-.43,1.49-.74,1.5Z"/>
  </g>
  <g>
    <path class="st1" d="M28.97,76.6c-1.21.99-2.37-.26-4.37-.48-1.99-.22-3.11.46-3.37-.2-.26-.66.81-2.08,2.76-2.44,1.96-.35,4.31-1.65,5.38.1,1.01,1.66-.08,2.75-.41,3.02Z"/>
    <path class="st1" d="M28.39,75.95c-.89.6-1.88-.18-3.46-.34-1.58-.15-2.42.25-2.66-.15s.5-1.27,2.02-1.47c1.52-.2,3.29-.97,4.24.11.9,1.02.11,1.68-.13,1.85Z"/>
    <path class="st1" d="M27.62,75.47c-.64.3-1.38-.19-2.54-.35-1.16-.16-1.76.03-1.95-.21-.19-.24.34-.69,1.44-.73,1.1-.04,2.38-.4,3.1.25.68.62.12.95-.05,1.03Z"/>
  </g>
</svg>