<?xml version="1.0" encoding="UTF-8"?>
<svg id="DESIGNED_BY_FREEPIK" xmlns="http://www.w3.org/2000/svg" version="1.1" viewBox="0 0 100 100">
  <!-- Generator: Adobe Illustrator 30.3.0, SVG Export Plug-In . SVG Version: 2.1.3 Build 182)  -->
  <defs>
    <style>
      .st0, .st1, .st2 {
        fill: #2a76d1;
      }

      .st3 {
        fill: #fff;
      }

      .st3, .st2 {
        opacity: .25;
      }

      .st1 {
        opacity: .15;
      }

      .st4 {
        fill: #89b5f7;
      }

      .st5 {
        fill: #d2e4ff;
      }
    </style>
  </defs>
  <path class="st0" d="M46.73,35.72c-.17,2.83,2.05,1.44,2.05,1.44,0,0,11.2-.44,15.69,1.77s9.65,10.92,4.44,16.58-16.85,6.92-22.46,1.22c-5.6-5.7.28-21.01.28-21.01Z"/>
  <path class="st5" d="M83.58,56.97c-1.05,9.07-6.29,18.25-14.81,22.16-4.52,2.08-9.61,2.37-14.5,1.81-5.1-.59-10.07-2.11-14.59-4.55-7.94-4.27-14.48-11.28-17.95-19.63-3.78-9.1-3.31-19.42.15-28.55.86-2.26,1.89-4.46,3.13-6.54.59-.99,1.23-1.96,1.94-2.87.66-.84,1.39-1.91,2.3-2.5.78-.51,2.01.28,2.79.59,1.15.47,2.27,1,3.37,1.57,2.11,1.11,4.13,2.4,6.04,3.82,1.83,1.37,3.59,2.86,5.13,4.55.78.85,1.5,1.75,2.14,2.71.24.36.78.97.83,1.41.05.46-.45.99-.67,1.39-2.19,3.91-3.86,8.41-3.85,12.94,0,4.56,2.04,8.37,5.62,11.15,3.59,2.79,8.29,3.98,12.62,2.23,2.02-.82,3.77-2.17,4.72-4.17.89-1.89,1.25-4.13,1.1-6.21-.3-4.25-3.26-7.49-7.52-8.01-1.98-.24-3.85.19-5.4,1.15-.01,0-.02.01-.03.02-1.5.93-2.69,2.36-3.38,4.15-.74,1.92-1,4.39.05,6.25.97,1.71,2.98,2.54,4.84,2.83,2.01.32,4.61.01,5.89-1.75.55-.76.76-1.68.73-2.6-.02-.69-.17-1.39-.39-2.02-.59-1.68-1.94-3.21-3.83-3.26-1.52-.04-3.54.78-3.97,2.39-.42,1.59,1.27,3.41,2.89,3.14-1.64-.23-3.09-2.41-2.19-3.96.62-1.05,2.12-1.34,3.22-1.05,1.22.31,2.23,1.23,2.87,2.28.63,1.02,1.14,2.42.8,3.62-.34,1.22-1.46,2-2.59,2.43-2.15.81-4.95.65-6.75-.9-1.85-1.59-1.71-4.23-1.14-6.38.69-2.61,2.47-4.83,5.16-5.53,2.22-.58,4.88-.36,6.82.95,2.11,1.43,3.17,4.08,3.43,6.53.27,2.56-.37,5.32-2.16,7.23-1.74,1.86-4.35,2.72-6.85,2.87-5.48.34-10.42-3.04-12.34-8.13-1.97-5.24-1.05-11.67,2.73-15.87,3.74-4.16,9.52-5.34,14.89-4.71,4.96.59,10.02,2.55,13.41,6.35,3.9,4.36,4.93,10.38,5.37,16.02.12,1.55.11,3.08-.08,4.63Z"/>
  <path class="st4" d="M29.85,68.67c0,.12.02.23.05.34.09.1.19.19.29.29.11.11.22.22.33.32.11.11.22.21.33.32.11.11.22.21.33.32.05.05.09.09.14.13,0,0,0,0,0,0,.18.05.37.09.58.12l-2.05-1.84ZM28.33,67.3s.03.03.04.05c0,0,0,0,0,0l-.05-.05ZM43.79,44.59c0,.09.01.18.03.3,0-.1-.02-.2-.03-.3ZM43.79,44.59c0,.09.01.18.03.3,0-.1-.02-.2-.03-.3ZM43.79,44.59c0,.09.01.18.03.3,0-.1-.02-.2-.03-.3ZM60,58.51c-.07.06-.12.12-.16.16.45-.04.9-.1,1.34-.19-.76-1.08-1.36-2.39-1.71-3.7,0,0,0,0,0,0-.12,0-.24.01-.36.01,0,0,0,0,0,0,.19,1.46-2.08.65-3.05.61-.56-.03-.58-.53-.5-1.3-.02,0-.04-.02-.05-.02-.32-.13-.63-.28-.94-.45-.64,1.15-1.77,2.21-2.85,2.83-.01,0-.02.01-.03.02.16.11.32.22.48.33.01,0,.02-.01.04-.02.55-.25,1.18-.48,1.87-.67,3.74-1.05,7.45,1.09,5.93,2.39ZM43.79,44.59c0,.09.01.18.03.3,0-.1-.02-.2-.03-.3ZM43.79,44.59c0,.09.01.18.03.3,0-.1-.02-.2-.03-.3ZM60,58.51c-.07.06-.12.12-.16.16.45-.04.9-.1,1.34-.19-.76-1.08-1.36-2.39-1.71-3.7,0,0,0,0,0,0-.12,0-.24.01-.36.01,0,0,0,0,0,0,.19,1.46-2.08.65-3.05.61-.56-.03-.58-.53-.5-1.3-.02,0-.04-.02-.05-.02-.32-.13-.63-.28-.94-.45-.64,1.15-1.77,2.21-2.85,2.83-.01,0-.02.01-.03.02.16.11.32.22.48.33.01,0,.02-.01.04-.02.55-.25,1.18-.48,1.87-.67,3.74-1.05,7.45,1.09,5.93,2.39ZM43.79,44.59c0,.09.01.18.03.3,0-.1-.02-.2-.03-.3ZM43.79,44.59c0,.09.01.18.03.3,0-.1-.02-.2-.03-.3ZM60,58.51c-.07.06-.12.12-.16.16.45-.04.9-.1,1.34-.19-.76-1.08-1.36-2.39-1.71-3.7,0,0,0,0,0,0-.12,0-.24.01-.36.01,0,0,0,0,0,0,.19,1.46-2.08.65-3.05.61-.56-.03-.58-.53-.5-1.3-.02,0-.04-.02-.05-.02-.32-.13-.63-.28-.94-.45-.64,1.15-1.77,2.21-2.85,2.83-.01,0-.02.01-.03.02.16.11.32.22.48.33.01,0,.02-.01.04-.02.55-.25,1.18-.48,1.87-.67,3.74-1.05,7.45,1.09,5.93,2.39ZM43.79,44.59c0,.09.01.18.03.3,0-.1-.02-.2-.03-.3ZM43.79,44.59c0,.09.01.18.03.3,0-.1-.02-.2-.03-.3ZM60,58.51c-.07.06-.12.12-.16.16.45-.04.9-.1,1.34-.19-.76-1.08-1.36-2.39-1.71-3.7,0,0,0,0,0,0-.12,0-.24.01-.36.01,0,0,0,0,0,0,.19,1.46-2.08.65-3.05.61-.56-.03-.58-.53-.5-1.3-.02,0-.04-.02-.05-.02-.32-.13-.63-.28-.94-.45-.64,1.15-1.77,2.21-2.85,2.83-.01,0-.02.01-.03.02.16.11.32.22.48.33.01,0,.02-.01.04-.02.55-.25,1.18-.48,1.87-.67,3.74-1.05,7.45,1.09,5.93,2.39ZM43.79,44.59c0,.09.01.18.03.3,0-.1-.02-.2-.03-.3ZM43.79,44.59c0,.09.01.18.03.3,0-.1-.02-.2-.03-.3ZM60,58.51c-.07.06-.12.12-.16.16.45-.04.9-.1,1.34-.19-.76-1.08-1.36-2.39-1.71-3.7,0,0,0,0,0,0-.12,0-.24.01-.36.01,0,0,0,0,0,0,.19,1.46-2.08.65-3.05.61-.56-.03-.58-.53-.5-1.3-.02,0-.04-.02-.05-.02-.32-.13-.63-.28-.94-.45-.64,1.15-1.77,2.21-2.85,2.83-.01,0-.02.01-.03.02.16.11.32.22.48.33.01,0,.02-.01.04-.02.55-.25,1.18-.48,1.87-.67,3.74-1.05,7.45,1.09,5.93,2.39ZM43.79,44.59c0,.09.01.18.03.3,0-.1-.02-.2-.03-.3ZM43.79,44.59c0,.09.01.18.03.3,0-.1-.02-.2-.03-.3ZM60,58.51c-.07.06-.12.12-.16.16.45-.04.9-.1,1.34-.19-.76-1.08-1.36-2.39-1.71-3.7,0,0,0,0,0,0-.12,0-.24.01-.36.01,0,0,0,0,0,0,.19,1.46-2.08.65-3.05.61-.56-.03-.58-.53-.5-1.3-.02,0-.04-.02-.05-.02-.32-.13-.63-.28-.94-.45-.64,1.15-1.77,2.21-2.85,2.83-.01,0-.02.01-.03.02.16.11.32.22.48.33.01,0,.02-.01.04-.02.55-.25,1.18-.48,1.87-.67,3.74-1.05,7.45,1.09,5.93,2.39ZM43.79,44.59c0,.09.01.18.03.3,0-.1-.02-.2-.03-.3ZM43.79,44.59c0,.09.01.18.03.3,0-.1-.02-.2-.03-.3ZM60,58.51c-.07.06-.12.12-.16.16.45-.04.9-.1,1.34-.19-.76-1.08-1.36-2.39-1.71-3.7,0,0,0,0,0,0-.12,0-.24.01-.36.01,0,0,0,0,0,0,.19,1.46-2.08.65-3.05.61-.56-.03-.58-.53-.5-1.3-.02,0-.04-.02-.05-.02-.32-.13-.63-.28-.94-.45-.64,1.15-1.77,2.21-2.85,2.83-.01,0-.02.01-.03.02.16.11.32.22.48.33.01,0,.02-.01.04-.02.55-.25,1.18-.48,1.87-.67,3.74-1.05,7.45,1.09,5.93,2.39ZM43.79,44.59c0,.09.01.18.03.3,0-.1-.02-.2-.03-.3ZM43.79,44.59c0,.09.01.18.03.3,0-.1-.02-.2-.03-.3ZM60,58.51c-.07.06-.12.12-.16.16.45-.04.9-.1,1.34-.19-.76-1.08-1.36-2.39-1.71-3.7,0,0,0,0,0,0-.12,0-.24.01-.36.01,0,0,0,0,0,0,.19,1.46-2.08.65-3.05.61-.56-.03-.58-.53-.5-1.3-.02,0-.04-.02-.05-.02-.32-.13-.63-.28-.94-.45-.64,1.15-1.77,2.21-2.85,2.83-.01,0-.02.01-.03.02.16.11.32.22.48.33.01,0,.02-.01.04-.02.55-.25,1.18-.48,1.87-.67,3.74-1.05,7.45,1.09,5.93,2.39ZM43.79,44.59c0,.09.01.18.03.3,0-.1-.02-.2-.03-.3ZM80.45,67.31c-.38.42-1.84.18-5.18-1.28-2.52-1.1-3.44-1.14-2.34-3.02,1.1-1.88,1.15-3.79-1.25-4.34-1.64-.37-3.55-1.32-4.5-2.77-.07.09-.15.19-.23.28.5,1.07,1.39,1.89,2.82,2.11,4.47.68,2.59,4.13,1.43,5.26-1.74,1.69-1.05-.67-1.64-1.47-.99-1.34-3.84-.5-6.02-1.46-.64-.29-1.26-.8-1.83-1.45-.1.03-.2.05-.31.07h0c-.09.02-.19.04-.28.06-.01,0-.02,0-.03,0,.94.28,1.61.91-1.2,3.37-1.52,1.33.9,4.64-.89,5.15-1.79.52-3.07-1.64-4.65-1.03-1.58.61-3.69.72-3.64-.71.04-1.43-.44-3.9-1.68-4.65-1.01-.61-.39-2.77,2.55-4.33,0,0,0,0,0,0-.15-.11-.31-.21-.46-.33,0,0,0,0,0,0-.84.36-1.58.39-1.93-.07-1.76-2.35-5.08-.28-3.47-3.08.29-.51.64-1.18.83-1.82-.36-.65-.64-1.32-.87-2-.14-.02-.3-.02-.48,0-3.07.21-.94-2.2-1.37-4.9.05.62,0,1.38-.16,2.26-.44,2.53-2.68,3.99-4.02,4.09-1.33.11-2.77.03-3.27-2.62-.56-3.04,1.37-5.49,5.04-5.86,1.42-.14,2.18.49,2.37,1.82-.02-.42.04-.62-.52-1.87-.45-1.01,1.44-2.96,2.74-3.72,0,0,0,0,0,0,.02-.06.04-.13.06-.19.03-.09.06-.19.09-.28.05-.16.1-.31.15-.46h0c-1.76-1.2-3.26-2.5-3.21-2.95.36-3.04-.68-4.82.13-5.23.7-.36,4.58,1.25,6.21.86-.07-.12-.17-.28-.29-.47-1.79.59-4.03-.6-5.63-2.05-.62-.56-.07-2.38.25-4.06-.15-.13-.3-.26-.45-.39-.25.87-1.28,1.54-2.4,1.83-1.46.37-4.4.66-4.3-.87.13-1.94,4.48-2.23,3.27-3.29-.26-.23-.47-.46-.62-.69-.38-.25-.75-.48-1.11-.71-.12.39-.23.7-.33.9-.87,1.78-3.73,7.93-4.31,9.03-.58,1.1-1.23,3.38-3.19,2.5-.82-.37-5.63-3.43-7.94-5.49-.15.38-.3.76-.45,1.15,1.96.26,7.76,4.31,9.38,5.76,2.21,1.99.32,2.45-.24,6.01-.53,3.35-5.11,2.09-7.32.1-2.21-1.99-.11-7-2.01-10.28-.09-.15-.16-.29-.22-.42-.08.22-.15.44-.22.67,1.37,2.26.67,10.65.48,12-.23,1.58-1.21,3.08-2.66,2.6.07,2.33.36,4.68.92,7,.04.15.08.31.12.46,1.54-.09,3.78.82,7.12,4.28.73.75,6.06,5.44,4.01,8.12-1.16,1.52-2.05,2.48-2.89,2.91l1.47,1.32c-.15-2,2-4.98,2.8-5.74,1.74-1.68,1.43.49,1.63,1.48.2.99,3.65,1.23,5.82,2.2,2.97,1.34,5.66,6.87,4,9.55-.4.64-1,1.17-1.69,1.57,0,0,0,0,0,0,1.55.69,3.15,1.29,4.82,1.78h0c.49-.6,1.26-1.22,2.33-1.91,1.12-.72,4.77,1.06,5.73,2.34.22.29.38.68.48,1.14.12,0,.23.02.35.03-.13-.89-.47-1.83-1.9-2.52-1.05-.51-4.44-2.1-3.41-3.06,1.03-.97,4.86-.14,5.71-1.1.86-.95,2.25-1.77,2.72-.83.47.94,1.66,2.36,2.77,2.41,1.1.05,1.36,2.46-1.47,5.14,0,0,0,0-.01.01.27-.02.54-.04.81-.06,0,0,0,0,0-.01.04-.06.07-.12.09-.18.69-1.55,2.01-1.86,2.52-1.63.27.12,1.03.52,1.53,1.07h0c.48-.13.94-.27,1.4-.43.02,0,.03-.01.05-.02-.22-.16-.46-.22-.73-.11-1.07.41-3.91-2.17-2.42-3.47,1.49-1.3,1.91-3.19,2.65-4.39.74-1.2,3.17-5.79,3.89-6.53,1.06-1.08,3.85.68,5.17,1.12,1,.34,4.23,1.47,3.6,3.26.5-.8.95-1.62,1.36-2.45ZM60.19,63.8c.54-1.25,2.84-2.01,3.82-1.62.98.39.25,1.63-.53,2.49-.91,1.02-1.07,3.97-2.04,3.59-.98-.39-1.78-3.2-1.25-4.46ZM45.72,55.52c1.86-.12,3.67,1.19,3.7,2.26.04,1.07-1.66,3.07-2.94,3.52-2.18.76-2.29-2.25-2.33-3.32-.04-1.07.23-2.36,1.56-2.45ZM36.62,50.06c.75,1.77,2.78,1.7,4.23.97,2.49-1.25,5.43-1.2,5.35.65-.08,1.85-3.33,3.36-2.06,8.18.42,1.6-1.14,1.73-2.53,1-1.23-.65-2.24-.26-4.51.03-1.48.19-4.55-1.73-4.3-6.94.18-3.86,3.07-5.65,3.83-3.88ZM43.49,36.15c.77.7,2.96,2.07.67,4.27-2.19,2.1-4.88,2.81-5.65,2.11-.77-.7-1.79-2.01.02-3.73,3.98-3.77,4.19-3.36,4.96-2.65ZM34.71,28.67c2.3-2.56,5.5-3.38,6.51-.55,1.04,2.88,2.94,4.42.64,6.98-2.3,2.56-4.37,5.04-6.58,3.06-2.21-1.99-2.87-6.92-.57-9.48ZM31.49,42.12c.96-1.95,3-4.03,4.51-3.33,1.52.7,1.59,3.79.86,6.06-.66,2.06-3.26,7.79-7.87,7.63-.89-.03,1.53-8.41,2.5-10.36ZM21.28,50.81c-2.21-1.99-2.65-2.92-.35-5.48,2.3-2.56,9.98-4.58,9.31-.99-.12.63-1.1,6.14-3.08,8.34-2.3,2.56-3.67.12-5.88-1.87ZM33.54,61.71c-1.31.4-2.21-1.07-3.22-2.37-.85-1.1-1.18-1.6-1.48-1.94-2.37-2.64-3.64-2.81-2.77-3.52.87-.71,6-1.9,6.22-.79.27,1.41.06,4.53,1.28,5.94,1.22,1.41,1.87,2.09-.03,2.68ZM38.32,65.5c-2.11-.71-3.04-.24-3.68-1.35-1.6-2.77,6.26-3.65,7.57-2.73,1.31.91,1.17,3.84.39,4.93-.78,1.09-2.98-.4-4.28-.84ZM51.48,74.56c-1.1-.05-2.55,3.61-3.55,3.78-2.79.48-4.06-1.25-3.07-2.53.98-1.28-.08-1.08.59-2.37.67-1.3.11-4.53-1.62-4.8-1.73-.27-.59-3.26.67-5.57,1.26-2.31,4.66-1.26,5.36-.09.56.95.26,2.96,1,4.14.51.81,3.76-.63,4.7.09,1.04.79-1.93,1.19-2.66,4.15-.37,1.51-.32,3.25-1.42,3.2ZM57.85,72.51c-.91,1.02-3.04,2.57-4.28,1.6-1.23-.97-.37-3.31.54-4.33.91-1.02,4.11-1.67,4.89-.97s-.23,2.69-1.15,3.7ZM66.85,70.33c-.83,1.17-1.64,4.85-3.5,5.45-2.29.74-5.05-2.78-4.19-4.56.86-1.78,2.6-2,3.18-3.1.58-1.1,2.45-5.81,3.59-6.25,1.14-.44,2.47-.18,3.33,1.55.64,1.28.2,3.22-2.41,6.92ZM60.8,42.24c-.24-.36-.51-.85-.73-1.39-.27.01-.53.03-.79.07.64.76,1.11,2.11,1.18,3.68,0,.15,0,.31,0,.47.18.03.35.06.52.12.05.02.1.03.15.05.24-1.08.38-1.95-.33-2.99ZM79.73,56.73c-1.29.99-4.8,1-4.73-.84.07-1.85,2.54-2.6,2.45-4.26s.47-3.73,1.83-3.36c1.01.27,2.69.42,3.92.03-.04-.26-.08-.51-.12-.76-1.28.4-2.74.58-3.57.26-4.47-1.73-1.85-7.83-.32-10.33,0,0,0,0,0,0-.08-.11-.17-.23-.26-.34-.04-.06-.09-.11-.13-.16-.06-.07-.12-.15-.18-.22-.03-.03-.06-.07-.08-.1-.05-.06-.09-.11-.14-.16-.04-.05-.08-.09-.12-.14-.04-.04-.08-.08-.11-.13-.06-.06-.11-.12-.17-.18-.05-.06-.11-.12-.17-.18-.05-.05-.1-.1-.15-.16-.05-.06-.11-.11-.16-.16h0c-.66.22-.69-.52-1.48.37-.97,1.09-.56.96,1.05,1.59,1.94.77-.47,2.96-.27,9.45.08,2.58-4.49-3.5-4.58-4.62-.09-1.12,1.37-2.1.97-3.45-.28-.93-3.13-.63-3.93-1.5-1.18-1.28,1.71-1.29,1.97-2.81.19-1.11.9-1.98,1.66-2.24-.14-.07-.29-.14-.44-.21-.32.16-.63.33-.9.54-.6.46-1.81-.76-3.05-1.94-.33-.09-.67-.17-1.02-.25,1.73,1.37,3.87,3.71,3.14,4.39-1.04.96-2.29.98-3.2,2.47-.67,1.09-4.26.47-6.43-1.19-1.59-1.22-1.4-3.38-3.32-3.51-.56-.04-.62-.98-.17-2.28h0s-.03,0-.05,0c0,0,0,0,0,0-.2.96-.61,2.05-1.16,2.24-1.86.62-1.98,1.8-2.39,3.5-.33,1.35-1.29,3.14-2.37,4.17-.5.47-2.3-.33-4.12-1.45,0,0,0,0,0,0-.03.06-.05.12-.07.18,0,0,0,0,0,0,2.67,1.93,4.38,1.16,3.31,2.97-1.11,1.87-1.5,3.9-.05,4.88.53.36,1.08.7,1.59,1.03,0,0,0,0,0,0,.02-.18.05-.35.08-.53,0,0,0,0-.01,0-.14-.07-.29-.14-.45-.2-2.29-.96-.9-.76.93-1.52,0,0,0,0,0,0,.02-.07.05-.13.08-.2,0,0,0,0,0,0-1.4.63-2.72.48-2.9-.57-.24-1.43,2.89-6.29,3.86-7.35.96-1.06.24-3.91,2.1-4.5,2.29-.73,4.76,1.76,3.89,3.53-.87,1.78-3.49,3.76-4.07,4.85-.06.12-.12.25-.17.37.4-.31.83-.58,1.3-.81.58-.67,1.18-.82,1.72-.58.41-.08.83-.14,1.27-.15-.37-1.23-.39-2.5.71-2.81,1.79-.51,3.06,1.66,4.64,1.05,1.58-.6,7.53-.64,7.48.79-.05,1.43-2.04,4.06-.74,4.72,1.27.66-.09,2.36-2.89,3.78.01.12.03.24.03.36,2.09-2.02,4.82-2.23,5.63-1.51,1.27,1.14,3.58,4.37,1.75,6.04-2.12,1.95-2.44,4.35-1.43,4.81,1.02.45,2.58,2.09.78,4.26-1.07,1.29,1.43-2.25,4.56,4.63.14.31.21.58.17.78.14-.28.27-.57.4-.86-2.03-4.22-3.98-4.59-4.02-5.66-.04-1.07.33-2.95,3.71-3.09,1.05-.05,1.99.13,2.81.43.03-.22.06-.43.09-.64.01-.11.03-.22.04-.33-.92-1.21-2.7-1.13-3.84-.25ZM55.19,42.89s-.01.04-.02.06c-.16.54-.35,1.04-.82,1.46-.15.14-.31.27-.48.38,0,0-.01.01-.02.02-.05.1-.1.21-.14.31,0,0,0,0,.01,0,.86-.52,1.7-1.31,2.21-2.57.06-.14.11-.27.17-.4,0-.02.02-.03.02-.05-.33.23-.65.49-.94.79ZM52.99,47.69c-.03.2-.06.41-.08.63,1.42,1,2.46,2.1,2.16,3.97-.05.34-.17.68-.32,1.01.27.18.56.34.86.47.2-1.66.53-4.26-2.61-6.09ZM60,58.51c-.07.06-.12.12-.16.16.45-.04.9-.1,1.34-.19-.76-1.08-1.36-2.39-1.71-3.7,0,0,0,0,0,0-.12,0-.24.01-.36.01,0,0,0,0,0,0,.19,1.46-2.08.65-3.05.61-.56-.03-.58-.53-.5-1.3-.02,0-.04-.02-.05-.02-.32-.13-.63-.28-.94-.45-.64,1.15-1.77,2.21-2.85,2.83-.01,0-.02.01-.03.02.16.11.32.22.48.33.01,0,.02-.01.04-.02.55-.25,1.18-.48,1.87-.67,3.74-1.05,7.45,1.09,5.93,2.39ZM60.83,46.64c.04-.24.08-.47.13-.68,0,0,0-.02,0-.03-.19-.1-.38-.18-.57-.24h0c-.19,1.44-.76,3.2-1.16,4.82,0,.03-.01.05-.02.08-.36,1.46-.57,2.81-.24,3.7,0,.02.01.03.02.05.12,0,.24-.02.36-.03-.31-1.43-.28-2.8.24-3.77.03-.05.06-.1.09-.15.02-.03.04-.06.06-.09.58-.87,1.43-1.18,2.29-1.13-1.55-.49-1.4-1.28-1.2-2.53ZM66.6,53.54c.25-2.18,1.02-3.79,2-4.93,0,0,0-.01,0-.02-.02-.2-.05-.39-.08-.59-.92.43-1.96.82-3.1,1.13-.44.12-.85.2-1.25.23,0,.02,0,.05.01.07,0,.03,0,.05.01.08,1.47.01,3.27-.23,2.88.64-.63,1.42-.93,3.62-.39,5.38t0,0c.06-.07.12-.14.17-.21,0,0,0,0,0,0-.23-.54-.34-1.13-.26-1.79ZM63.56,49.39c-.22,0-.44-.01-.64-.04.19.07.42.11.67.13h0s-.02-.06-.03-.09h0ZM43.79,44.59c0,.09.01.18.03.3,0-.1-.02-.2-.03-.3ZM43.79,44.59c0,.09.01.18.03.3,0-.1-.02-.2-.03-.3ZM60,58.51c-.07.06-.12.12-.16.16.45-.04.9-.1,1.34-.19-.76-1.08-1.36-2.39-1.71-3.7,0,0,0,0,0,0-.12,0-.24.01-.36.01,0,0,0,0,0,0,.19,1.46-2.08.65-3.05.61-.56-.03-.58-.53-.5-1.3-.02,0-.04-.02-.05-.02-.32-.13-.63-.28-.94-.45-.64,1.15-1.77,2.21-2.85,2.83-.01,0-.02.01-.03.02.16.11.32.22.48.33.01,0,.02-.01.04-.02.55-.25,1.18-.48,1.87-.67,3.74-1.05,7.45,1.09,5.93,2.39ZM43.79,44.59c0,.09.01.18.03.3,0-.1-.02-.2-.03-.3ZM43.79,44.59c0,.09.01.18.03.3,0-.1-.02-.2-.03-.3ZM60,58.51c-.07.06-.12.12-.16.16.45-.04.9-.1,1.34-.19-.76-1.08-1.36-2.39-1.71-3.7,0,0,0,0,0,0-.12,0-.24.01-.36.01,0,0,0,0,0,0,.19,1.46-2.08.65-3.05.61-.56-.03-.58-.53-.5-1.3-.02,0-.04-.02-.05-.02-.32-.13-.63-.28-.94-.45-.64,1.15-1.77,2.21-2.85,2.83-.01,0-.02.01-.03.02.16.11.32.22.48.33.01,0,.02-.01.04-.02.55-.25,1.18-.48,1.87-.67,3.74-1.05,7.45,1.09,5.93,2.39ZM43.79,44.59c0,.09.01.18.03.3,0-.1-.02-.2-.03-.3ZM43.79,44.59c0,.09.01.18.03.3,0-.1-.02-.2-.03-.3ZM60,58.51c-.07.06-.12.12-.16.16.45-.04.9-.1,1.34-.19-.76-1.08-1.36-2.39-1.71-3.7,0,0,0,0,0,0-.12,0-.24.01-.36.01,0,0,0,0,0,0,.19,1.46-2.08.65-3.05.61-.56-.03-.58-.53-.5-1.3-.02,0-.04-.02-.05-.02-.32-.13-.63-.28-.94-.45-.64,1.15-1.77,2.21-2.85,2.83-.01,0-.02.01-.03.02.16.11.32.22.48.33.01,0,.02-.01.04-.02.55-.25,1.18-.48,1.87-.67,3.74-1.05,7.45,1.09,5.93,2.39ZM43.79,44.59c0,.09.01.18.03.3,0-.1-.02-.2-.03-.3ZM43.79,44.59c0,.09.01.18.03.3,0-.1-.02-.2-.03-.3ZM60,58.51c-.07.06-.12.12-.16.16.45-.04.9-.1,1.34-.19-.76-1.08-1.36-2.39-1.71-3.7,0,0,0,0,0,0-.12,0-.24.01-.36.01,0,0,0,0,0,0,.19,1.46-2.08.65-3.05.61-.56-.03-.58-.53-.5-1.3-.02,0-.04-.02-.05-.02-.32-.13-.63-.28-.94-.45-.64,1.15-1.77,2.21-2.85,2.83-.01,0-.02.01-.03.02.16.11.32.22.48.33.01,0,.02-.01.04-.02.55-.25,1.18-.48,1.87-.67,3.74-1.05,7.45,1.09,5.93,2.39ZM43.79,44.59c0,.09.01.18.03.3,0-.1-.02-.2-.03-.3ZM43.79,44.59c0,.09.01.18.03.3,0-.1-.02-.2-.03-.3ZM60,58.51c-.07.06-.12.12-.16.16.45-.04.9-.1,1.34-.19-.76-1.08-1.36-2.39-1.71-3.7,0,0,0,0,0,0-.12,0-.24.01-.36.01,0,0,0,0,0,0,.19,1.46-2.08.65-3.05.61-.56-.03-.58-.53-.5-1.3-.02,0-.04-.02-.05-.02-.32-.13-.63-.28-.94-.45-.64,1.15-1.77,2.21-2.85,2.83-.01,0-.02.01-.03.02.16.11.32.22.48.33.01,0,.02-.01.04-.02.55-.25,1.18-.48,1.87-.67,3.74-1.05,7.45,1.09,5.93,2.39ZM43.79,44.59c0,.09.01.18.03.3,0-.1-.02-.2-.03-.3ZM43.79,44.59c0,.09.01.18.03.3,0-.1-.02-.2-.03-.3ZM60,58.51c-.07.06-.12.12-.16.16.45-.04.9-.1,1.34-.19-.76-1.08-1.36-2.39-1.71-3.7,0,0,0,0,0,0-.12,0-.24.01-.36.01,0,0,0,0,0,0,.19,1.46-2.08.65-3.05.61-.56-.03-.58-.53-.5-1.3-.02,0-.04-.02-.05-.02-.32-.13-.63-.28-.94-.45-.64,1.15-1.77,2.21-2.85,2.83-.01,0-.02.01-.03.02.16.11.32.22.48.33.01,0,.02-.01.04-.02.55-.25,1.18-.48,1.87-.67,3.74-1.05,7.45,1.09,5.93,2.39ZM43.79,44.59c0,.09.01.18.03.3,0-.1-.02-.2-.03-.3ZM43.79,44.59c0,.09.01.18.03.3,0-.1-.02-.2-.03-.3ZM60,58.51c-.07.06-.12.12-.16.16.45-.04.9-.1,1.34-.19-.76-1.08-1.36-2.39-1.71-3.7,0,0,0,0,0,0-.12,0-.24.01-.36.01,0,0,0,0,0,0,.19,1.46-2.08.65-3.05.61-.56-.03-.58-.53-.5-1.3-.02,0-.04-.02-.05-.02-.32-.13-.63-.28-.94-.45-.64,1.15-1.77,2.21-2.85,2.83-.01,0-.02.01-.03.02.16.11.32.22.48.33.01,0,.02-.01.04-.02.55-.25,1.18-.48,1.87-.67,3.74-1.05,7.45,1.09,5.93,2.39ZM43.79,44.59c0,.09.01.18.03.3,0-.1-.02-.2-.03-.3ZM43.79,44.59c0,.09.01.18.03.3,0-.1-.02-.2-.03-.3ZM60,58.51c-.07.06-.12.12-.16.16.45-.04.9-.1,1.34-.19-.76-1.08-1.36-2.39-1.71-3.7,0,0,0,0,0,0-.12,0-.24.01-.36.01,0,0,0,0,0,0,.19,1.46-2.08.65-3.05.61-.56-.03-.58-.53-.5-1.3-.02,0-.04-.02-.05-.02-.32-.13-.63-.28-.94-.45-.64,1.15-1.77,2.21-2.85,2.83-.01,0-.02.01-.03.02.16.11.32.22.48.33.01,0,.02-.01.04-.02.55-.25,1.18-.48,1.87-.67,3.74-1.05,7.45,1.09,5.93,2.39ZM78.26,70.86c-.32.28-2.27,2.54-4.32,4.95-.02.02-.04.05-.06.07,1.35-1.14,2.54-2.42,3.58-3.77.04-.06.09-.11.13-.17.35-.46.67-.92.99-1.39-.09.1-.2.21-.33.32ZM43.79,44.59c0,.09.01.18.03.3,0-.1-.02-.2-.03-.3ZM31.9,70.51l3.83,3.44.02.02c.39.27.78.53,1.18.79.12.08.24.16.37.23.14.09.28.18.42.26-.52-2.06-2.49-4.29-5.82-4.75Z"/>
  <path class="st1" d="M83.58,56.97c-.76,6.56-3.65,13.03-8.38,17.68-5.15,5.06-11.96,6.94-19.06,6.46-13.72-.93-26.45-9.01-32.92-21.19-3.7-6.96-4.87-14.84-3.72-22.61.33,6.05,2.07,12.12,4.57,17.61,3.1,6.81,7.76,13.09,14.17,17.1,7.1,4.45,17.09,6.37,25.11,3.75,7.29-2.37,12.43-8.3,15.96-15.08,1.62-3.12,2.69-6.58,2.84-10.1.18-4.12-1.22-7.85-2.81-11.6-.44-1.03-.9-2.04-1.4-3.04,2.47,2.47,3.89,5.9,4.68,9.25.9,3.77,1.41,7.91.95,11.76Z"/>
  <path class="st1" d="M83.58,56.97c-.68,5.91-3.1,11.73-7.02,16.23-4.13,4.75-9.76,7.51-16.04,7.92-12.71.84-25.42-5.3-33.3-15.15-4.11-5.13-6.95-11.31-7.83-17.85,2.21,5.76,4.78,11.46,8.5,16.42,3.98,5.31,9.26,9.46,15.51,11.75,7.02,2.57,14.98,3.73,22.02,1.16,5.55-2.03,10.57-6.68,13.94-11.6,2.09-3.05,3.07-6.75,3.51-10.38.5-4.13.23-8.41-.85-12.44.72,2.21,1.13,4.5,1.4,6.81.27,2.37.44,4.74.16,7.12Z"/>
  <path class="st1" d="M56.66,61c-3.18-.5-6.32-1.7-8.69-3.94-1.92-1.82-3.19-4.22-3.79-6.79-.61-2.59-.58-5.32-.12-7.93.59-3.36,1.66-6.66,1.67-10.11.02-3.72-1.6-6.86-3.9-9.7,2.55,2.13,5.08,4.25,6.92,7.06.24.36.78.98.81,1.43.03.48-.61,1.17-.84,1.59-.67,1.23-1.27,2.49-1.79,3.79-.91,2.28-1.6,4.68-1.83,7.13-.22,2.31-.03,4.69.8,6.87.89,2.36,2.56,4.3,4.51,5.86,3.99,3.2,9.44,4.39,14.07,1.83,2.44-1.35,3.76-3.49,4.33-6.18.56-2.65.41-5.64-1.09-7.98,4.1,5.49,2.53,14.03-4.2,16.55-2.19.82-4.59.89-6.88.53Z"/>
  <path class="st1" d="M64.97,60.89c-5.87,3.55-14.27,1.53-18.79-3.32-5.2-5.58-3.04-14.09-1.59-20.75.43-1.96.89-3.9,1.27-5.87.28-1.41.59-2.89.52-4.34.79.84,1.52,1.74,2.17,2.69.3.44.7.94.89,1.44.2.55-.14.82-.43,1.32-1.22,2.13-2.22,4.39-2.95,6.74-1.19,3.87-1.61,8.23.02,12.04,1.74,4.08,5.96,7.39,10.26,8.37,3.97.9,9.12-.36,11.29-4.08,2.29-3.92,2.19-10.27-1.71-13.15,2.46.98,3.74,3.67,4.19,6.12.55,2.97.09,6.2-1.39,8.84-.9,1.61-2.18,2.98-3.76,3.93Z"/>
  <path class="st2" d="M59.21,55.6c-3.22.42-7.18-1.89-7.35-6.24-.16-4.14,1.86-6.5,4.28-7.91-1.5.93-2.69,2.36-3.38,4.15-.74,1.92-1,4.39.05,6.25.97,1.71,2.98,2.54,4.84,2.83,2.01.32,4.61.01,5.89-1.75.55-.76.76-1.68.73-2.6,0-.19,0-.3,0-.3.5,2.77-1.86,5.16-5.07,5.57Z"/>
  <path class="st3" d="M23.85,31.69c.68-9.46,3.62-12.23,8.23-11.35,4.62.87,10.48,4.62,7.49,13.97-2.99,9.36-.87,21.21,8.86,28.94,9.73,7.73,2.99,14.22-11.48,4.74-14.47-9.48-13.47-31.06-13.1-36.3Z"/>
  <path class="st3" d="M23.1,33.03c.39-7.32,2.11-9.46,4.79-8.78,2.69.68,6.1,3.57,4.36,10.81-1.74,7.24-2.33,16.63,1.95,23.67,4.12,6.77,6.65,12.82-1.77,5.49s-9.54-27.13-9.32-31.18Z"/>
  <path class="st3" d="M50.04,43.5c2.39-3.31,15.34-10.81,21.71,3.62,6.36,14.43,15.63-5.07,1.25-13.35-14.8-8.52-23.93,2.9-24.91,5.24-1.62,3.87-.33,7.65,1.95,4.49Z"/>
  <path class="st3" d="M50.98,39.61c2.26-2.21,14.48-7.22,20.49,2.41,6.01,9.63,14.75-3.38,1.18-8.91-13.97-5.69-22.59,1.94-23.51,3.5-1.53,2.58-.31,5.11,1.84,3Z"/>
</svg>