<?xml version="1.0" encoding="UTF-8"?>
<svg id="DESIGNED_BY_FREEPIK" xmlns="http://www.w3.org/2000/svg" version="1.1" viewBox="0 0 100 100">
  <!-- Generator: Adobe Illustrator 30.3.0, SVG Export Plug-In . SVG Version: 2.1.3 Build 182)  -->
  <defs>
    <style>
      .st0 {
        fill: #dac2ff;
      }

      .st1 {
        fill: #fff;
      }

      .st1, .st2 {
        opacity: .15;
      }

      .st3 {
        fill: #7646d3;
      }

      .st4 {
        fill: #ddd7ff;
      }

      .st5 {
        fill: #aa78ea;
      }

      .st6, .st2 {
        fill: #221faa;
      }

      .st7 {
        fill: #9262dd;
      }

      .st8 {
        fill: #a6fffa;
      }

      .st9 {
        fill: #c08ff7;
      }

      .st10 {
        fill: #cba4fc;
      }
    </style>
  </defs>
  <path class="st9" d="M51.03,53.69c-.11.12-.23.07-.23.07.08-.02.15-.04.23-.07Z"/>
  <path class="st9" d="M77.28,52.04c-1.37,1.56-2.84,2.5-4.42,3.02-.17.06-.34.11-.52.15-1.38.37-2.85.44-4.4.33,0,0,0,0,0,0-.11,0-.21-.01-.32-.02-.13-.01-.27-.02-.39-.02-.02,0-.04,0-.06,0,0,0,0,0,0,0-.19,0-.38,0-.57,0-.1,0-.19,0-.28.01-2.86.15-3.93,1.67-3.98,1.73.49-1.6-.34-2.71-1.84-3.38-.26-.11-.53-.22-.82-.3-1.49-.45-3.41-.58-5.33-.43-.27.02-.54.05-.82.08-.85.1-1.69.26-2.48.48.11-.12.2-.45.1-1.23-.03-.27.55-1.28,1.54-2.76h0c.16-.24.33-.49.51-.75.99-1.43,2.27-3.19,3.71-5.08.09-.12.18-.24.28-.36,1.18-1.55,2.45-3.18,3.73-4.78.14-.18.28-.35.42-.53,4.91-6.1,9.93-11.69,10.76-11.05.5.38,1.28.7,2.18.93.25.06.51.12.77.17.26.05.53.1.8.13,1.46.2,2.95.2,3.85-.05.18-.05.33-.1.46-.17.05-.03.1-.05.14-.08,1.27-.88.97-1.68.97-1.68.61,0,1.11.34,1.5.76.6.65.93,1.48.93,1.48.36,0,.72.01,1.07.03,1.36.07,2.61.24,3.7.44.23.04.45.09.67.13,2.2.46,3.58,1.01,3.58,1.01-.21,1.13-1.04,2.59-1.88,3.84-.12.18-.24.35-.36.53-.89,1.27-1.7,2.24-1.7,2.24l.83,1.42-2.12.24c-.07,0-.15.02-.23.03-.02,0-.04,0-.06,0-2.29.3-2.05,2.99-2.05,2.99,1.79,1.36.98,3.39.98,3.39,0,0-.64-.41-1.62-.64-.14-.04-.29-.07-.45-.09-.66-.11-1.43-.13-2.25.09-.36.1-.66.29-.91.55h0c-.17.18-.31.38-.44.61h0c-.85,1.54-.71,3.98-.71,3.98,1.93.43,1.89,1.99,1.89,1.99-1.48-.81-3.83,0-3.83,0-.06.08-.12.15-.18.22-.12.14-.23.28-.35.42h0Z"/>
  <path class="st2" d="M67.13,55.42c-3.5-.14-4.78,1.67-4.82,1.74,1.27-4.16-6.3-4.89-11.5-3.4,0,0,.51.16.31-1.37-.19-1.52,19.24-26.64,20.96-25.31.5.38.61.49,1.41.77-.7,5.77-2.47,6.11-.2,9.14,2.4,3.19,5.5,6.9,5.43,9.9-.07,3-3.85-.63-7.1.6-3.25,1.23-3.41,4.28-3.85,5.42-.43,1.15-2.39-3.23-4.77-1.88-2.27,1.28,1.1,4.08,4.13,4.39Z"/>
  <path class="st8" d="M54.33,53.12c-.27.02-.54.05-.82.08-.1-.45-.2-.9-.3-1.35-.17-.72-.34-1.45-.53-2.17h0c.16-.24.33-.49.51-.75.48,1.36.89,2.76,1.14,4.18Z"/>
  <g>
    <path class="st8" d="M80.46,45.42c-.09-.81-.2-1.62-.33-2.42-.45-2.74-1-5.51-1.88-8.14-.77-2.31-1.8-4.62-3.21-6.62.26.05.53.1.8.13,1.22,2.39,2.27,4.87,3.22,7.37.97,2.55,1.78,5.23,1.85,7.99,0,.36,0,.72-.01,1.08h0c-.17.18-.31.38-.44.61Z"/>
    <path class="st8" d="M77.28,52.04c-.27-.76-.2-1.92-.34-2.68-.18-1.02-.4-2.02-.63-3.03-.45-1.91-.93-3.82-1.58-5.67-1.02-2.91-2.42-5.82-4.39-8.21.24-.17.48-.34.72-.5,2.02,3.59,3.76,7.4,5.16,11.27.59,1.62,1.06,3.3,1.31,5.01.12.82.18,1.64.16,2.46,0,.13-.01.55-.05.94-.12.14-.23.28-.35.42Z"/>
    <path class="st8" d="M72.86,55.06c-.17.06-.34.11-.52.15-.11-.69-.1-1.51-.2-2.1-.18-1.02-.4-2.02-.63-3.03-.45-1.91-.93-3.82-1.58-5.67-1.02-2.91-2.42-5.82-4.39-8.21.24-.17.48-.34.72-.5,2.02,3.59,3.76,7.4,5.16,11.27.59,1.62,1.06,3.3,1.31,5.01.12.82.18,1.64.16,2.46,0,.09,0,.34-.03.62Z"/>
    <path class="st8" d="M67.22,55.49s-.04,0-.06,0c0,0,0,0,0,0-.19,0-.38,0-.57,0-.03-.44-.05-.88-.11-1.23-.18-1.02-.4-2.02-.63-3.03-.45-1.91-.93-3.82-1.58-5.67-.83-2.37-1.91-4.74-3.35-6.83.14-.18.28-.35.42-.53,1.71,3.19,3.2,6.53,4.42,9.92.59,1.62,1.06,3.3,1.31,5.01.11.79.18,1.58.16,2.37Z"/>
    <path class="st8" d="M60.49,53.85c-.26-.11-.53-.22-.82-.3-.14-.7-.29-1.4-.46-2.1-.45-1.91-.93-3.82-1.58-5.67-.22-.64-.47-1.28-.73-1.91.09-.12.18-.24.28-.36.7,1.59,1.36,3.21,1.94,4.84.59,1.62,1.06,3.3,1.31,5.01.02.17.05.34.06.51Z"/>
    <path class="st8" d="M87.49,38.5c-.07,0-.15.02-.23.03-.02,0-.04,0-.06,0-.29-1.48-.7-2.94-1.21-4.35-.69-1.9-1.62-3.74-2.49-5.57-.23-.49-.47-.98-.72-1.47.6.65.93,1.48.93,1.48.36,0,.72.01,1.07.03.62,1.44,1.11,2.95,1.49,4.47.45,1.78.91,3.56,1.22,5.37Z"/>
    <path class="st8" d="M90.49,34.61c-.12-.39-.25-.78-.37-1.16-.5-1.48-1.01-2.94-1.64-4.35.23.04.45.09.67.13.43,1.05.89,2.09,1.22,3.18.17.55.33,1.11.49,1.68-.12.18-.24.35-.36.53Z"/>
    <path class="st8" d="M84.51,44.27l-.45-.09c-.4-.91-1.07-1.82-1.33-2.76-.19-.69,0-1.69,0-2.42-.07-3.79-1.03-7.5-3.02-10.68.18-.05.33-.1.46-.17,1.1,2.14,2.39,5.22,2.92,8.21.45,2.56.4,4.83.4,4.83,0,0,0,.03,0,0,.42.96.81,1.97,1.02,3,0,.02.01.05.02.08Z"/>
  </g>
  <path class="st10" d="M41.09,43.09s.07,0,.14.02c-.08,0-.13-.01-.14-.02Z"/>
  <path class="st10" d="M60.64,52.4c.07-.36.36-2.67-3.26-2.94-3.92-.29-4.46,4-7.31,4.63-2.85.63-8.4,1.49-19.36,6.78-10.97,5.29-23.81,13.74-25.86,9.55-.7-1.42,1.41-3.3,4.64-5.23,6.41-3.83,17.22-7.89,19.23-9.09,3.02-1.8,3.17-3.11,4.14-4.66.97-1.55,2.05-.12,3.62-.47,1.58-.34,1.84-1.14,1.95-3.48.12-2.34,3.28-1.23,4.47-2.7,1.03-1.27-1.09-1.62-1.68-1.69.37.01,1.38-.11,2.46-1.63,1.36-1.91-6.17-5.31-6.29-5.69-.11-.38,1.33-1.16,3.35.16,2.02,1.31,4.64.56,5.62-2.61.98-3.16-2.02-9.54-2.02-9.54,0,0,1.53,1.47,3.81,3.78,2.28,2.31,4.8.36,6.3-1.8,1.5-2.16,1.71-11.66,2.53-11.23.82.43.05,9.01,1.53,11.31,1.48,2.3,6.57,2.9,9.23,1.95,2.66-.96,3.71-5.2,3.71-5.2,1.89,2.67,1.02,6.14.25,9.09-.67,2.58-.23,5.68-.11,6.41.02.11.03.16.03.16,3.45,2.15,4.34,3.7,5.03,4.82,1.49,2.42.96,4.97.96,4.97,0,0-2.7-3.04-8.47-1.36-3.35.97-2.21,4.96-2.21,4.96,0,0-1.28-.82-3.23-2.58-1.84-1.66-2.96,2.81-3.08,3.33Z"/>
  <path class="st3" d="M60.24,47.04c2.87-3.34,6.52-4.39,10.11-3.84.01-.14.02-.28,0-.43.19,2.62-3.48,3.79-10.12,4.27Z"/>
  <path class="st7" d="M60.24,47.04c-.13,0-.26.02-.4.03-.13,0-.27.02-.4.03-.27.02-.55.03-.83.05-.56.03-1.14.06-1.74.08-8.76.33-13.55,4.32-24.93,9.79,0,0,8.55-5.52,10.51-7.39,1.96-1.87,3.77-6.98,7.5-12.96,3.73-5.97,9.41-6.9,14.45-4.89,5.03,2.01,5.74,7.96,5.96,10.99,0,.15,0,.29,0,.43-3.59-.55-7.24.5-10.11,3.84Z"/>
  <path class="st5" d="M50.58,48.21c.56-1.01,1.18-2.07,1.86-3.16,3.73-5.98,9.41-6.9,14.45-4.89,1.52.61,2.64,1.57,3.48,2.71,0-.03,0-.07,0-.1-.22-3.03-.93-8.98-5.96-10.99-5.03-2.01-10.72-1.09-14.45,4.89-3.73,5.98-5.54,11.08-7.5,12.96-1.96,1.87-10.51,7.39-10.51,7.39,8.38-4.03,13.19-7.26,18.64-8.81Z"/>
  <g>
    <path class="st4" d="M41.23,43.11c-.09-.01-.15-.02-.15-.02,0,0,.05.01.15.02Z"/>
    <path class="st1" d="M63.72,49.07c1.95,1.76,3.23,2.58,3.23,2.58,0,0-1.14-3.98,2.21-4.96,5.76-1.67,8.47,1.36,8.47,1.36,0,0,.53-2.56-.96-4.97-.5-.81-1.1-1.84-2.7-3.16.71.64,1.06,1.19,1.36,1.65,1.21,1.85.57,3.94.57,3.94,0,0-1.23-2.03-6.62-.31-3.14,1-3.4,3.89-3.4,3.89,0,0-.49.14-2.16-1.15-1.63-1.26-3.61,1.98-3.68,2.19,0,0,0,.01,0,.01,0,0,0,0,0-.01.05-.15.65-2.2-2.79-2.18-3.58.02-4.34,3.5-7,4.19-2.65.69-7.79,1.73-18.19,6.69-10.39,4.96-22.7,12.57-24.32,9.34-.59-1.17,1.78-2.96,5.2-4.85-5,2.55-9.01,5.23-8.08,7.12,2.05,4.18,14.89-4.26,25.86-9.55,10.97-5.29,16.51-6.15,19.36-6.78,2.85-.63,3.39-4.91,7.31-4.63,3.78.28,3.29,2.78,3.25,2.97.06-.27,1.19-5.07,3.09-3.36Z"/>
    <path class="st4" d="M60.64,52.44s0,.01,0,.01c0,0,0,0,0-.01Z"/>
  </g>
  <path class="st0" d="M67.93,55.54c-.11,0-.21-.01-.32-.02.13,0,.23,0,.32.02Z"/>
  <path class="st2" d="M77.81,51.4c-2.81,3.62-6.09,4.4-9.87,4.14,0,0,0,0,0,0-.11,0-.21-.01-.32-.02-.16-.01-.31-.02-.46-.03,0,0,0,0,0,0-.3-.01-.58,0-.85,0,1.85-.37,5.74-1.19,7.23-1.74,1.97-.73,5.13-3.63,5.91-7.43.78-3.8,3.43-7.3,5.57-8.62,2.14-1.32,1.42-4.21,1.42-4.21,0,0,3.03.65,6.29-3.25-.48,2.5-3.94,6.61-3.94,6.61l.83,1.42-2.36.26c-2.36.26-2.11,2.99-2.11,2.99,1.79,1.36.98,3.39.98,3.39,0,0-1.99-1.26-4.31-.65-2.32.62-2.07,5.14-2.07,5.14,1.93.43,1.89,1.99,1.89,1.99-1.48-.81-3.83,0-3.83,0Z"/>
  <path class="st6" d="M41.09,43.09s.07,0,.14.02c-.08,0-.13-.01-.14-.02Z"/>
  <path class="st1" d="M8.78,66.17s.25-.34.71-.97c6.41-3.83,17.22-7.89,19.23-9.09,3.02-1.8,3.17-3.11,4.14-4.66.97-1.55,2.05-.12,3.62-.47,1.58-.34,1.84-1.14,1.95-3.48.12-2.34,3.28-1.23,4.47-2.7,1.03-1.27-1.09-1.62-1.68-1.69.37.01,1.38-.11,2.46-1.63,1.36-1.91-6.17-5.31-6.29-5.69-.11-.38,1.33-1.16,3.35.16,2.02,1.31,4.64.56,5.62-2.61.98-3.16-2.02-9.54-2.02-9.54,0,0,1.53,1.47,3.81,3.78,2.28,2.31,4.8.36,6.3-1.8,1.5-2.16,1.71-11.66,2.53-11.23.82.43.05,9.01,1.53,11.31,1.48,2.3,6.57,2.9,9.23,1.95,2.66-.96,3.71-5.2,3.71-5.2,1.89,2.67,1.02,6.14.25,9.09-.67,2.58-.23,5.68-.11,6.41-.55-.56-1.08-1.39-1.28-2.64-.47-2.96-.16-5.95-2.41-5.33-2.25.62-8.05-.8-10.48-2.31-2.43-1.52-2.31.49-3.79,1.95-1.48,1.46-2.59.22-4.92,1.91-2.33,1.69-2.1,4.99-4.25,6.2-2.15,1.21.38,1.89.12,5.34-.26,3.45-3.04,3.27-4.61,4.7s-1.46,3.59-3.62,4.09-3.76,1.15-5.9,3.94c-2.14,2.79-16.59,6.95-21.69,10.21Z"/>
</svg>