<?xml version="1.0" encoding="UTF-8"?>
<svg id="DESIGNED_BY_FREEPIK" xmlns="http://www.w3.org/2000/svg" version="1.1" viewBox="0 0 100 100">
  <!-- Generator: Adobe Illustrator 30.3.0, SVG Export Plug-In . SVG Version: 2.1.3 Build 182)  -->
  <defs>
    <style>
      .st0 {
        fill: #f5eeff;
      }

      .st0, .st1, .st2, .st3 {
        opacity: .15;
      }

      .st1 {
        fill: #0010d3;
      }

      .st2 {
        fill: #fff;
      }

      .st4 {
        fill: #935fd6;
      }

      .st5 {
        fill: #2e0087;
      }

      .st6 {
        fill: #c08ff7;
      }
    </style>
  </defs>
  <path class="st4" d="M62.7,86.68s-1.08-.1-2.61.17c-.73.13-1.57.34-2.44.68-.73.29-1.48.67-2.22,1.18l-9.54-36.3s1.3-30.32,3.85-32.16c.78-.56,1.54-.8,2.22-.87.13-.01.25-.02.37-.02,1.36-.01,2.33.62,2.33.62l8.05,66.7Z"/>
  <path class="st1" d="M57.93,85.19c0,.12,0,.24,0,.36-.02.69-.1,1.36-.28,1.98-.73.29-1.48.67-2.22,1.18l-9.54-36.3s1.3-30.32,3.85-32.16c.78-.56,1.54-.8,2.22-.87.13-.01.25-.02.37-.02-.05.62-.58,1.23-.27,2.2.02.06.04.12.07.18.6,1.44-.5,2.97-1,4.11-.03.06-.05.12-.07.18-.17.44-.2.84-.12,1.25.13.69.55,1.44,1.11,2.5.89,1.7-.54,2.42-1.07,3.58-.54,1.16.45,2.33.81,3.58.36,1.25-.81,2.5-.72,3.76.09,1.25,1.79,2.24,1.07,3.49-.72,1.25-.72,3.22-.54,4.83.18,1.61,1.43,1.43.89,3.31-.54,1.88-1.97,4.03-.8,5.9,1.16,1.88,1.25,1.88.72,3.4-.54,1.52-1.43,2.15.45,4.65,1.88,2.5-1.7,3.76.27,5.46,1.97,1.7-.09,2.59,1.88,4.38,1.97,1.79-1.43,2.68.89,3.4.99.3,2.01,3.03,2.04,5.66Z"/>
  <path class="st1" d="M62.7,86.68s-1.08-.1-2.61.17c-1.89-1.76-2.82-6.19-3.11-9.08-.1-.95-.13-1.73-.1-2.19.12-2.03-3.1-2.98-2.03-3.94,1.07-.95-.12-1.55-.83-3.1-.72-1.55.12-1.79,0-2.98-.12-1.19-1.55-2.03-.83-3.34.72-1.31.95-2.15.36-3.34-.6-1.19-.48-1.55,0-2.74.48-1.19.24-3.1.12-4.53-.12-1.43-1.19-3.22-.12-4.06,1.07-.83,1.31-1.55.36-2.74-.95-1.19-1.19-2.03-.83-2.86.36-.83.6-2.27.12-3.1-.48-.83.36-1.19.95-2.27.6-1.07-.12-2.98-.6-3.34-.48-.36-.24-1.67,0-2.5.24-.83-1.55-1.67-1.31-3.94.24-2.27,1.19-2.98.6-4.17-.2-.39-.5-.73-.76-1.06-.3-.37-.55-.72-.58-1.11-.02-.32.1-.67.48-1.07.13-.01.25-.02.37-.02,1.36-.01,2.33.62,2.33.62l8.05,66.7Z"/>
  <path class="st6" d="M77.01,62.29c-1.3,13.11-6.35,20.38-10.5,23.33-1.15.81-2.22,1.3-3.13,1.5h0c-.79.17-1.45.11-1.93-.14-2.35-1.24-3.45-6.36-3.78-9.56-.1-.95-.13-1.73-.1-2.19.12-2.03-3.1-2.98-2.03-3.94,1.07-.95-.12-1.55-.83-3.1-.72-1.55.12-1.79,0-2.98-.12-1.19-1.55-2.03-.83-3.34.72-1.31.95-2.15.36-3.34-.6-1.19-.48-1.55,0-2.74.48-1.19.24-3.1.12-4.53-.12-1.43-1.19-3.22-.12-4.06,1.07-.83,1.31-1.55.36-2.74-.95-1.19-1.19-2.03-.83-2.86.36-.83.6-2.27.12-3.1-.48-.83.36-1.19.95-2.27.6-1.07-.12-2.98-.6-3.34-.48-.36-.24-1.67,0-2.5.24-.83-1.55-1.67-1.31-3.94.24-2.27,1.19-2.98.6-4.17-.41-.83-1.29-1.43-1.34-2.18-.02-.33.11-.68.51-1.1.58-.61,1.26-1.11,2.01-1.48.56-.28,1.16-.47,1.79-.59,1.01-.18,2.08-.14,3.17.18,1.9.55,3.85,1.93,5.56,4.39,4.11,5.9,13.78,20.93,11.81,40.79Z"/>
  <path class="st6" d="M57.14,85.13c0,.12,0,.24,0,.36-.05,2.03-.72,3.95-2.5,4.55,0,0,0,0,0,0-.29.1-.61.17-.96.19-.55.04-1.18-.02-1.9-.2-.71-.18-1.51-.47-2.4-.9-10.55-5.1-16.37-18.96-16.91-33.63-.54-14.67,3.31-23.7,7.6-30.95,1.91-3.23,3.84-5.39,5.62-6.53.73-.47,1.44-.76,2.11-.89.72-.13,1.4-.06,2.01.21.53.23,1.01.61,1.44,1.13.87,1.05-.54,1.7.09,3.22.6,1.44-.5,2.97-1,4.11-.03.06-.05.12-.07.18-.17.44-.2.84-.12,1.25.13.69.55,1.44,1.11,2.5.89,1.7-.54,2.42-1.07,3.58-.54,1.16.45,2.33.81,3.58.36,1.25-.81,2.5-.72,3.76.09,1.25,1.79,2.24,1.07,3.49-.72,1.25-.72,3.22-.54,4.83.18,1.61,1.43,1.43.89,3.31-.54,1.88-1.97,4.03-.8,5.9,1.16,1.88,1.25,1.88.72,3.4-.54,1.52-1.43,2.15.45,4.65,1.88,2.5-1.7,3.76.27,5.46,1.97,1.7-.09,2.59,1.88,4.38,1.97,1.79-1.43,2.68.89,3.4.99.3,2.01,3.03,2.04,5.66Z"/>
  <path class="st0" d="M63.38,87.12c-.79.17-1.45.11-1.93-.14-3.04-1.61-4-9.72-3.88-11.75.12-2.03-3.1-2.98-2.03-3.94,1.07-.95-.12-1.55-.83-3.1-.72-1.55.12-1.79,0-2.98-.12-1.19-1.55-2.03-.83-3.34.72-1.31.95-2.15.36-3.34-.6-1.19-.48-1.55,0-2.74.48-1.19.24-3.1.12-4.53-.12-1.43-1.19-3.22-.12-4.06,1.07-.83,1.31-1.55.36-2.74-.95-1.19-1.19-2.03-.83-2.86.36-.83.6-2.27.12-3.1-.48-.83.36-1.19.95-2.27.6-1.07-.12-2.98-.6-3.34-.48-.36-.24-1.67,0-2.5.24-.83-1.55-1.67-1.31-3.94.24-2.27,1.19-2.98.6-4.17-.6-1.19-2.15-1.91-.83-3.28,1.02-1.07,2.34-1.8,3.8-2.06-5.12,7.06,3.97,17.61,4.99,37.1.88,16.88-3.36,30.5,1.91,33.08Z"/>
  <path class="st0" d="M53.67,90.23c3.93-2.16-2.65-6.3-6.92-28.43-5.03-26.05,5.24-34.62,1.05-44.67,1.34-.25,2.53.21,3.46,1.33.87,1.05-.54,1.7.09,3.22.63,1.52-.63,3.13-1.07,4.29-.45,1.16.09,2.06.98,3.76.89,1.7-.54,2.42-1.07,3.58-.54,1.16.45,2.33.81,3.58.36,1.25-.81,2.5-.72,3.76.09,1.25,1.79,2.24,1.07,3.49-.72,1.25-.72,3.22-.54,4.83.18,1.61,1.43,1.43.89,3.31-.54,1.88-1.97,4.03-.8,5.9,1.16,1.88,1.25,1.88.72,3.4-.54,1.52-1.43,2.15.45,4.65,1.88,2.5-1.7,3.76.27,5.46,1.97,1.7-.09,2.59,1.88,4.38,1.97,1.79-1.43,2.68.89,3.4,1.93.6,3.99,10.39-1.43,10.76Z"/>
  <path class="st0" d="M57.67,77.42c-.1-.95-.13-1.73-.1-2.19.12-2.03-3.1-2.98-2.03-3.94,1.07-.95-.12-1.55-.83-3.1-.72-1.55.12-1.79,0-2.98-.12-1.19-1.55-2.03-.83-3.34.72-1.31.95-2.15.36-3.34-.6-1.19-.48-1.55,0-2.74.48-1.19.24-3.1.12-4.53-.12-1.43-1.19-3.22-.12-4.06,1.07-.83,1.31-1.55.36-2.74-.95-1.19-1.19-2.03-.83-2.86.36-.83.6-2.27.12-3.1-.48-.83.36-1.19.95-2.27.6-1.07-.12-2.98-.6-3.34-.48-.36-.24-1.67,0-2.5.24-.83-1.55-1.67-1.31-3.94.24-2.27,1.19-2.98.6-4.17-.41-.83-1.29-1.43-1.34-2.18,0-.04,0-.08,0-.12,0-.29.1-.61.33-.98.66-1.07,1.5-1.8,2.44-2.06-.09.19-.17.39-.25.59-2.73,7.05,2.83,17.55,3.46,36.52.31,9.17-.36,17.38-.48,23.38Z"/>
  <path class="st0" d="M49.81,17.33c.53.23,1.01.61,1.44,1.13.87,1.05-.54,1.7.09,3.22.6,1.44-.5,2.97-1,4.11.36-2.99.35-5.67-.53-8.46Z"/>
  <path class="st0" d="M57.14,85.13c0,.12,0,.24,0,.36-.04,2.37-.76,4.57-2.75,4.74.09-.06.17-.12.25-.19,2.57-2.22-2.44-6.74-5.72-28.24-2.67-17.49.11-27.1,1.23-34.57.13.69.55,1.44,1.11,2.5.89,1.7-.54,2.42-1.07,3.58-.54,1.16.45,2.33.81,3.58.36,1.25-.81,2.5-.72,3.76.09,1.25,1.79,2.24,1.07,3.49-.72,1.25-.72,3.22-.54,4.83.18,1.61,1.43,1.43.89,3.31-.54,1.88-1.97,4.03-.8,5.9,1.16,1.88,1.25,1.88.72,3.4-.54,1.52-1.43,2.15.45,4.65,1.88,2.5-1.7,3.76.27,5.46,1.97,1.7-.09,2.59,1.88,4.38,1.97,1.79-1.43,2.68.89,3.4.99.3,2.01,3.03,2.04,5.66Z"/>
  <g class="st3">
    <path class="st5" d="M44.22,21.96c-1.75,2.78-5.29,4.57-5.29,8.43s5.75,4.44,5.82-.26c.07-4.7,3.07-7.51,1.96-8.82-1.11-1.31-1.7-.59-2.48.65Z"/>
    <path class="st5" d="M36.48,34.95c1.09-.88,1.86-1.32,2.84-.49.98.83.28,2.27-1.22,2.37s-2.46.85-2.4-.04c.07-.89.32-1.47.77-1.84Z"/>
    <path class="st5" d="M45.6,32.9c.91.26.59,1.05.49,1.62-.1.58-1.02,2.04-1.63,1.31-.61-.73-.16-1.74.12-2.35.28-.61.64-.69,1.02-.58Z"/>
    <path class="st5" d="M41.46,36.38c1.69-.13,2.79.85,3.25,2.46.46,1.61-1.07,4.03-3.11,2.77-2.05-1.26-.17-2.57-.65-3.94-.48-1.37-.07-1.24.52-1.29Z"/>
    <path class="st5" d="M37.56,39.99c-3.25-.15-4.25,3.59-3.79,9.28.46,5.68,9.41,5.23,9.93,2.03s-2.29-4.25-4.77-6.8c-2.48-2.55,1.5-4.38-1.37-4.51Z"/>
    <path class="st5" d="M40.24,56.29c.82-2.35,3.27-1.8,4.12-.29s.2,3.4,1.18,6.99c.98,3.59-2.94,3.92-4.12.59-1.18-3.33-1.76-5.6-1.18-7.29Z"/>
    <path class="st5" d="M34.55,55.71c1.01-.99,2.29-.39,2.78.59.49.98.29,4.21-1.7,3.99-1.99-.23-2.42-3.27-1.08-4.57Z"/>
    <path class="st5" d="M34.52,63.09c.96-1.18,1.99,1.5,2.65,2.39s-1.73,2.81-2.35,1.11c-.62-1.7-.72-2.97-.29-3.5Z"/>
    <path class="st5" d="M38.57,62.01c1.63,0,1.24,3.07,2.48,3.92,1.24.85-1.5,2.35-1.99,1.21s-1.31-5.13-.49-5.13Z"/>
    <path class="st5" d="M44.44,67.94c2.31,0,3.27,2.31,2.4,3.22-.87.91-3.01-.13-3.14-1.13-.13-1,.17-2.09.74-2.09Z"/>
    <path class="st5" d="M38.25,72.42c1.73-2,4.44,2.79,6.84,3.92,2.4,1.13.61-2.4,2.31-2.66s2.83,1.87,2.92,4.18c.09,2.31-4.92,4.18-8.63,1.61-3.7-2.57-4.53-5.79-3.44-7.06Z"/>
    <path class="st5" d="M44.4,83.31c-.14-1.4,1.87-1.57,2.4-.7s.22,2.7-.83,2.57-1.44-.52-1.57-1.87Z"/>
    <path class="st5" d="M49.86,81.08c1.53-.45,2.86,1.89,2.73,3.68s-1.39,2.27-1.96.83-1.74-2-2.05-2.96c-.3-.96.23-1.24,1.28-1.54Z"/>
    <path class="st5" d="M51.31,88.28c.34-1,2.48-.1,2.03.85s-1.34.83-1.85.47c-.51-.37-.29-.96-.17-1.32Z"/>
  </g>
  <g class="st3">
    <path class="st5" d="M59.64,20.5c2.03,2.58,5.73,4.01,6.12,7.85.39,3.84-5.27,5-5.81.33-.54-4.67-3.82-7.16-2.84-8.58s1.63-.76,2.54.4Z"/>
    <path class="st5" d="M68.66,32.64c-1.17-.77-1.99-1.12-2.88-.2-.89.92-.05,2.28,1.45,2.24,1.51-.04,2.53.6,2.38-.29s-.46-1.43-.96-1.75Z"/>
    <path class="st5" d="M59.45,31.98c-.88.35-.48,1.1-.32,1.66.16.56,1.22,1.92,1.76,1.13.53-.79-.01-1.75-.36-2.33s-.71-.62-1.08-.47Z"/>
    <path class="st5" d="M63.98,36.13c-1.69.05-2.69,1.13-2.98,2.78-.29,1.65,1.47,3.9,3.38,2.44,1.91-1.46-.09-2.57.25-3.99.34-1.41-.06-1.24-.65-1.23Z"/>
    <path class="st5" d="M68.1,37.77c3.21-.48,4.59,3.15,4.71,8.85.12,5.7-8.83,6.15-9.68,3.02-.84-3.13,1.84-4.46,4.06-7.24s-1.94-4.2.91-4.62Z"/>
    <path class="st5" d="M67.74,54c-1.05-2.26-3.43-1.46-4.13.12s.15,3.4-.46,7.08c-.61,3.67,3.32,3.6,4.16.17s1.18-5.75.43-7.37Z"/>
    <path class="st5" d="M74.25,51.85c-1.1-.88-2.32-.16-2.7.87s.13,4.22,2.09,3.79c1.96-.43,2.07-3.5.61-4.66Z"/>
    <path class="st5" d="M74.96,59.92c-1.08-1.08-1.83,1.7-2.39,2.64-.56.94,2.01,2.62,2.45.87s.41-3.03-.06-3.51Z"/>
    <path class="st5" d="M70.63,59.51c-1.62.16-.92,3.18-2.07,4.15-1.15.97,1.73,2.19,2.11,1,.37-1.19.78-5.24-.03-5.15Z"/>
    <path class="st5" d="M64.8,65.48c-2.3.23-3.02,2.63-2.06,3.45s2.98-.43,3.01-1.44c.03-1.01-.39-2.06-.95-2.01Z"/>
    <path class="st5" d="M73.11,69.12c-1.92-1.82-4.14,3.22-6.41,4.59-2.27,1.37-.85-2.32-2.57-2.41-1.72-.09-2.63,2.15-2.48,4.46.15,2.31,5.32,3.66,8.74.73,3.42-2.93,3.92-6.22,2.71-7.37Z"/>
    <path class="st5" d="M69.67,80.25c0-1.4-2.02-1.37-2.45-.45-.43.92.06,2.71,1.08,2.47,1.03-.24,1.38-.67,1.37-2.02Z"/>
    <path class="st5" d="M64.46,79.56c-1.57-.29-2.65,2.17-2.34,3.93.31,1.76,1.62,2.11,2.03.62s1.53-2.17,1.74-3.15c.21-.98-.36-1.21-1.43-1.4Z"/>
    <path class="st5" d="M69.11,67.73c-.44-.96-2.48.15-1.93,1.05.55.9,1.42.69,1.89.28s.2-.98.04-1.33Z"/>
  </g>
  <path class="st1" d="M54.64,90.04s0,0,0,0c-.09.01-1.18.15-2.86-.01-.71-.18-1.51-.47-2.4-.9-10.55-5.1-16.37-18.96-16.91-33.63-.54-14.67,3.31-23.7,7.6-30.95,1.91-3.23,3.84-5.39,5.62-6.53-7.88,6.85-14.66,25.11-11.4,43.48,3.66,20.65,11.69,28.34,20.35,28.55Z"/>
  <path class="st1" d="M77.01,62.29c-1.3,13.11-6.35,20.38-10.5,23.33,7.05-6.18,11.45-20.07,9.86-34.2-1.65-14.59-9.46-29.06-16.73-34.31,1.9.55,3.85,1.93,5.56,4.39,4.11,5.9,13.78,20.93,11.81,40.79Z"/>
  <path class="st2" d="M42.55,24.29c4.74-4.27,4.9,2.35,1.05,14.7-3.83,12.26-2.64,14.92-.41,17.4s-.78,11.2-6.27,3.49c-5.49-7.71.41-30.89,5.64-35.59Z"/>
  <path class="st2" d="M38.08,63.48c3.05,2.69,4.77.69,6.34.82,1.57.13,2.22,2.55,2.29,6.08.07,3.53-6.86,4.97-9.02.72s-1.83-9.57.39-7.61Z"/>
  <path class="st2" d="M42.7,76.87c1.43-3.33,5.05-1.92,6.1-.04,1.05,1.87,6.75,10.5,3.96,11.46-2.79.96-6.67-2.57-8.36-4.97-1.7-2.4-2.48-4.62-1.7-6.45Z"/>
  <path class="st2" d="M62.34,23.28c-5.05-3.89-4.71,2.72.08,14.74,4.75,11.93,3.77,14.68,1.74,17.32-2.03,2.65,1.64,11.1,6.52,3,4.88-8.11-2.77-30.76-8.34-35.06Z"/>
  <path class="st2" d="M71.29,62.34c-3.05,2.69-4.77.69-6.34.82-1.57.13-2.22,2.55-2.29,6.08-.07,3.53,6.86,4.97,9.02.72s1.83-9.57-.39-7.61Z"/>
  <path class="st2" d="M70.27,75.12c-1.65-2.64-4.87-1.05-5.65.64-.78,1.69-5.2,9.54-2.52,10.04,2.67.5,5.91-2.89,7.24-5.08,1.33-2.2,1.84-4.14.93-5.59Z"/>
</svg>