<?xml version="1.0" encoding="UTF-8"?>
<svg id="DESIGNED_BY_FREEPIK" xmlns="http://www.w3.org/2000/svg" version="1.1" viewBox="0 0 100 150.56">
  <!-- Generator: Adobe Illustrator 30.3.0, SVG Export Plug-In . SVG Version: 2.1.3 Build 182)  -->
  <defs>
    <style>
      .st0 {
        fill: #7c76ba;
      }

      .st1 {
        fill: #565382;
      }

      .st2 {
        fill: #6b66a1;
      }

      .st3 {
        fill: #918ada;
      }

      .st4 {
        fill: #588f6d;
      }
    </style>
  </defs>
  <g>
    <path class="st1" d="M66.7,51.28c1.19-1.56,2.8-4.4,2.98-6.44.23-2.61-1.65.06-2.44.99-1.13,1.32-3.83,3.8-4.21,5.58.29-1.38.58-2.79.38-4.19-.2-1.4-1.03-2.79-2.28-3.15-.25-.07-.52-.1-.75.02-.46.24-.52.92-.52,1.47,0,2.25,0,4.5,0,6.75-.89-2.75-2.26-8.09-3.86-8.35-.99.17-.63,4.02.15,5.41-.29-1.57-2.91-3.95-3.47-3.37-.76,1.21.79,2.71,1.61,3.88.89,1.27,1.81,2.5,2.77,3.71.67.85,2.12,3.29,3.17,3.46,1.8.29,5.44-4.39,6.49-5.76Z"/>
    <path class="st1" d="M48.64,87.43c.02-.29.05-.6.2-.84.15-.24.45-.39.69-.26.22.12.3.41.36.67.39,1.71.77,3.42,1.16,5.12.48-2.27,1.44-4.41,2.78-6.21.33.47.24,1.13.15,1.71-.3,1.95-.45,3.93-.45,5.9,1.85-2.49,3.92-5.12,6.77-5.83.2-.05.43-.08.6.05.32.26.12.81-.1,1.17-.68,1.12-1.36,2.24-2.05,3.36.92-.96,1.92-1.83,2.99-2.58.43-.3,1.09-.54,1.37-.07.17.27.08.64-.03.95-.59,1.64-1.8,2.92-3.13,3.9-1.33.98-2.8,1.69-4.19,2.56-1.22.76-2.43,1.66-3.82,1.84-2.23.28-2.05-2.29-2.47-4.03-.58-2.41-1.01-4.9-.83-7.39Z"/>
    <path class="st4" d="M61.1,49.17c.37-7.66.26-15.32-.27-22.97-.04-.56-.83-.47-.79.09,2.07,27.3-2.01,55.09-11.56,80.33-2.7,7.13-5.89,14-9.26,20.78-.12.25.23.41.35.18,6.57-11.54,11.42-24.36,14.99-37.37,3.66-13.33,5.87-27.13,6.54-41.04Z"/>
    <path class="st1" d="M48.43,74.84c-.21-1.27,0-3.7.8-3.51,1.31-.3,2.21,5.7,2.96,8.68.19-2.25-.12-8.98,1.78-8.6.94.15.41,4.73.57,7.1,1.92-2.4,6.14-5.45,7.54-4.47-.87,2.03-2.03,3.9-3.42,5.54,2.03-1.57,5.62-3.96,6.8-2.8.93,1.43-4.35,6.72-7,9.62-.91,1-1.91,1.99-3.16,2.35-2.96.86-3.53-2.35-4.38-4.62-1.13-2.99-1.96-6.11-2.49-9.28Z"/>
    <path class="st2" d="M55.91,26.46c-.74-.99-1.24-2.26-1.06-3.52.02-.12.04-.24.12-.32.1-.09.24-.09.37-.07,1.05.16,1.83,1.15,2.32,2.18s.79,2.17,1.44,3.09c-1.09-3.1-1.14-6.62-.15-9.75.07-.23.19-.5.41-.55.22-.04.42.15.54.35.35.58.39,1.31.41,2.01.07,2.34.09,4.67.07,7.01.21-1.71.9-3.35,1.96-4.62.33-.39.85-.77,1.25-.48.44.31.28,1.05.07,1.57-.52,1.29-1.9,6.69-3.13,7.06-1.12.33-3.98-3.1-4.63-3.96Z"/>
    <path class="st1" d="M56.49,29.73c-.04-.54-.03-1.19.38-1.5.34-.25.82-.14,1.14.14s.51.7.67,1.11c.49,1.24.82,2.54.99,3.87-.05-1.32.09-2.65.42-3.93.18-.7.72-1.54,1.32-1.23.39.2.46.76.49,1.23.06,1.27.12,2.54.18,3.81.24-2.54,1.5-7.5,3.07-6.71,1.01.34.23,4.54-.52,6.63.35-.53.71-1.06,1.06-1.58.45-.68,1.13-1.44,1.86-1.17.49.18.76.81.73,1.38-.02.57-.27,1.09-.52,1.59-1.15,2.27-4.65,8.62-7.74,7.09-2.75-1.36-3.3-7.96-3.52-10.73Z"/>
    <path class="st2" d="M55.7,59.7c-.33-1.21-.39-2.48-.44-3.74-.06-1.44-.13-2.87-.19-4.31-.03-.76.21-1.84.91-1.73.19.03.35.15.5.29,1.81,1.71.98,5.13,2.41,7.22-.14-2.15.23-4.33,1.06-6.27.14-.32.3-.65.58-.83.28-.18.7-.15.86.16.09.17.08.37.07.56-.09,2.03-.17,4.06-.26,6.1.7-1.88,1.61-3.66,2.7-5.3.19-.28.42-.58.74-.6.35-.02.65.35.71.72.06.38-.04.77-.15,1.13-.4,1.31-.86,2.59-1.4,3.84.65-1.13,1.56-2.08,2.63-2.74.26-.16.58-.31.86-.18.49.23.4,1.01.2,1.55-1.16,3.16-3.15,5.94-5.65,7.98-1.22.99-2.3,1.99-3.61.74-1.14-1.09-2.1-3.02-2.53-4.59Z"/>
    <path class="st2" d="M48.48,84.19c-.79-1.84-1.7-5.05-1.41-7.08.37-2.59,1.58.53,2.14,1.65.79,1.59,2.84,4.76,2.8,6.59.03-1.41.07-2.87.59-4.16.52-1.29,1.63-2.4,2.92-2.4.26,0,.53.05.72.23.39.36.29,1.03.17,1.57-.51,2.18-1.02,4.35-1.53,6.53,1.49-2.41,4.03-7.18,5.64-6.99.92.44-.31,4.07-1.38,5.19.63-1.43,3.71-3,4.13-2.28.46,1.38-1.39,2.4-2.45,3.3-1.15.98-2.32,1.91-3.52,2.8-.84.63-2.8,2.58-3.86,2.45-1.81-.23-4.26-5.79-4.96-7.41Z"/>
    <path class="st2" d="M47.82,88.93c1.27-.03,2.52,5.86,2.71,7.02-.14-.86.93-2.49,1.4-3.13.33-.45,2.76-2.68,2.87-1.11.09,1.32-.24,2.67-.92,3.77,1.17-2.23,3.56-5.55,5.47-4.5.47.65-1.41,3.96-2.67,5.57,1.43-1.7,3.24-3.02,5.23-3.8.42-.16.88-.3,1.3-.13.75.31.9,1.48.49,2.22-.41.75-1.17,1.16-1.89,1.52-2.09,1.06-4.2,2.06-6.33,3-1.52.67-3.82,2.29-5.41,1.13-1.4-1.01-2.3-3.83-2.75-5.49-.27-.98-1.23-5.75.44-6.07.02,0,.05,0,.07,0Z"/>
    <path class="st2" d="M55.15,38.01c.01-.68.34-1.6.95-1.44.23.06.39.27.52.48,1.07,1.72.94,4.18,2.26,5.67-.15-2.6.27-5.24,1.22-7.63.09-.22.2-.46.41-.52.46-.14.67.6.66,1.11-.07,2.28-.13,4.56-.2,6.84.81-2.08,1.64-4.21,3.04-5.87.27-.32.66-.64,1.03-.48.49.21.43.98.29,1.53l-1.35,5.14c.66-1.75,1.82-3.27,3.28-4.29.55-.39,1.4-.65,1.77-.05.26.41.09.97-.09,1.43-1,2.55-2.11,5.12-3.92,7.05-1.85,1.98-5.3,4-7.04,1.03-1.74-2.98-2.9-6.44-2.84-10Z"/>
    <path class="st1" d="M55.06,61.4c.05-.45.15-.95.51-1.17.37-.23.87-.01,1.14.36s.35.85.43,1.31c.54,3.14.98,6.3,1.33,9.46,1.32-2.38,3.03-4.51,5.01-6.26.98-.86,2.69-2.5,3.42-1.35.46.83-.99,2.96-1.68,4.35-.72,1.43-1.46,2.9-2.65,3.9-1.94,1.63-5.28,3.5-6.53.29-1.27-3.26-1.36-7.43-.97-10.88Z"/>
    <path class="st2" d="M52.79,63.66c1.68.11,2.8,2.03,3.15,3.83.35,1.81.25,3.73.92,5.42.87-2.1,2.01-4.06,3.36-5.83.24-.32.51-.64.86-.8.35-.16.81-.12,1.04.21.27.38.13.93-.01,1.38-.59,1.82-1.19,3.63-1.78,5.45.91-1.25,1.84-2.52,3.03-3.47,1.19-.94,2.68-1.54,4.13-1.26.34.98-.43,1.97-1.15,2.66-2.02,1.89-7.57,7.4-10.36,5.18-3.12-2.49-3.79-9.01-3.18-12.77Z"/>
  </g>
  <g>
    <path class="st0" d="M52.4,49.08c1.06-1.9,2.33-5.22,2.08-7.37-.31-2.74-1.94.47-2.67,1.62-1.04,1.63-3.69,4.85-3.74,6.78.04-1.49.06-3.02-.49-4.41-.56-1.39-1.85-2.62-3.41-2.69-.31-.01-.64.02-.89.21-.49.36-.41,1.07-.29,1.64.5,2.32,1,4.64,1.51,6.96-1.68-2.62-4.5-7.78-6.46-7.67-1.14.41.15,4.3,1.4,5.54-.69-1.54-4.33-3.36-4.88-2.63-.63,1.43,1.55,2.6,2.78,3.61,1.34,1.09,2.71,2.14,4.12,3.14.99.71,3.25,2.88,4.54,2.8,2.21-.14,5.47-5.85,6.4-7.52Z"/>
    <path class="st0" d="M39.11,90.75c-.04-.31-.07-.63.05-.91.12-.28.45-.51.76-.44.28.07.44.35.57.6.84,1.67,1.68,3.33,2.52,5,.06-2.46.72-4.9,1.9-7.08.49.4.54,1.1.57,1.72.09,2.08.35,4.15.79,6.19,1.64-3.02,3.5-6.24,6.71-7.66.23-.1.49-.19.72-.1.44.19.33.81.15,1.23-.56,1.32-1.12,2.64-1.67,3.96.88-1.21,1.87-2.35,2.97-3.39.44-.42,1.17-.83,1.61-.41.26.24.24.64.18.98-.33,1.83-1.48,3.45-2.84,4.78-1.36,1.33-2.94,2.43-4.39,3.66-1.27,1.08-2.5,2.3-4.11,2.83-2.58.84-2.95-1.86-3.83-3.55-1.23-2.34-2.3-4.8-2.65-7.42Z"/>
    <path class="st4" d="M45.29,48.28c-1.28-7.98-3.14-15.86-5.49-23.61-.17-.56-1.09-.28-.92.28,8.59,27.62,10,57.26,4.34,85.61-1.6,8.01-3.84,15.87-6.31,23.68-.09.28.36.36.46.1,5.2-13.49,8.06-27.89,9.38-42.17,1.35-14.62.86-29.39-1.47-43.89Z"/>
    <path class="st0" d="M36.04,77.82c-.54-1.26-.84-3.81.16-3.81,1.49-.62,3.91,5.33,5.46,8.22-.28-2.36-2.16-9.22.18-9.3,1.15-.08,1.54,4.77,2.27,7.17,1.74-2.94,6.05-7.11,7.94-6.45-.58,2.3-1.53,4.52-2.81,6.55,2.05-2.11,5.78-5.46,7.43-4.55,1.42,1.25-3.64,7.98-6.14,11.62-.86,1.25-1.82,2.51-3.22,3.19-3.32,1.61-4.71-1.56-6.24-3.69-2.01-2.8-3.7-5.81-5.04-8.96Z"/>
    <path class="st3" d="M34.03,26.14c-1.09-.84-1.98-2.03-2.05-3.37,0-.12,0-.26.08-.36.09-.12.26-.15.42-.16,1.28-.09,2.43.74,3.24,1.68.81.94,1.43,2.04,2.4,2.83-1.99-2.93-2.84-6.54-2.36-10.01.04-.26.11-.56.37-.66.25-.1.53.05.72.23.54.51.75,1.26.93,1.97.61,2.39,1.16,4.79,1.66,7.21-.14-1.81.32-3.67,1.29-5.24.3-.48.83-1,1.38-.8.59.21.57,1.01.44,1.6-.33,1.46-.75,7.36-2.12,8.04-1.26.62-5.42-2.22-6.38-2.95Z"/>
    <path class="st0" d="M35.45,29.37c-.17-.55-.3-1.22.12-1.64.34-.34.94-.35,1.38-.14.44.21.76.6,1.04.98.85,1.15,1.55,2.42,2.05,3.75-.35-1.35-.48-2.76-.39-4.15.05-.76.51-1.76,1.29-1.58.51.11.72.67.85,1.15.36,1.29.71,2.59,1.07,3.88-.28-2.68.09-8.1,2.13-7.66,1.27.1,1.3,4.62.87,6.95.3-.63.6-1.26.9-1.89.39-.81,1.02-1.76,1.95-1.66.63.07,1.08.65,1.18,1.24s-.08,1.19-.26,1.76c-.86,2.63-3.58,10.02-7.59,9.2-3.56-.73-5.7-7.4-6.58-10.2Z"/>
    <path class="st3" d="M41.25,60.45c-.66-1.16-1.02-2.46-1.37-3.74-.4-1.46-.8-2.93-1.2-4.39-.21-.78-.16-1.94.69-2,.23-.02.45.07.65.17,2.52,1.32,2.31,5.04,4.47,6.85-.65-2.18-.7-4.52-.15-6.72.09-.36.21-.75.5-1,.29-.26.8-.32,1.06-.04.14.15.18.36.21.56.36,2.11.71,4.23,1.07,6.34.4-2.11,1.08-4.17,2.01-6.12.16-.34.37-.7.75-.8.41-.11.84.2,1,.57.16.38.12.8.07,1.2-.18,1.44-.44,2.88-.79,4.29.52-1.33,1.39-2.53,2.5-3.46.28-.23.62-.46.98-.39.63.12.7.95.59,1.55-.67,3.54-2.4,6.9-4.91,9.6-1.22,1.32-2.28,2.61-4.12,1.64-1.6-.85-3.17-2.6-4.03-4.11Z"/>
    <path class="st3" d="M38.2,87.44c-1.36-1.71-3.15-4.79-3.26-6.95-.14-2.76,1.99.16,2.9,1.18,1.3,1.45,4.44,4.21,4.8,6.11-.28-1.46-.56-2.97-.24-4.43s1.39-2.88,2.93-3.19c.3-.06.64-.08.91.06.54.28.58.99.55,1.58-.12,2.37-.23,4.73-.35,7.1,1.23-2.85,3.17-8.39,5.12-8.58,1.19.23.55,4.27-.47,5.68.43-1.63,3.73-4,4.38-3.36.86,1.31-1.1,2.81-2.16,4-1.14,1.28-2.32,2.53-3.55,3.75-.86.85-2.74,3.35-4.02,3.47-2.2.21-6.35-4.92-7.55-6.42Z"/>
    <path class="st3" d="M38.48,92.49c1.5-.34,4.3,5.43,4.79,6.57-.36-.85.54-2.8.95-3.56.29-.54,2.68-3.43,3.15-1.85.4,1.34.31,2.81-.25,4.11.88-2.58,2.97-6.59,5.48-5.97.7.56-.79,4.43-1.91,6.39,1.31-2.1,3.16-3.9,5.34-5.19.46-.27.98-.53,1.51-.46.95.13,1.4,1.3,1.09,2.17s-1.12,1.48-1.89,2.03c-2.24,1.6-4.51,3.15-6.83,4.64-1.65,1.07-4.01,3.29-6.17,2.49-1.89-.7-3.58-3.39-4.49-4.99-.54-.95-2.75-5.63-.85-6.36.03-.01.05-.02.08-.02Z"/>
    <path class="st3" d="M35.73,38.23c-.14-.71.04-1.74.8-1.71.28,0,.52.19.73.37,1.65,1.52,2.05,4.07,3.96,5.29-.76-2.65-.85-5.47-.27-8.16.05-.25.14-.52.37-.64.51-.25.93.45,1.03.99.44,2.37.87,4.73,1.31,7.1.49-2.34,1-4.74,2.29-6.79.25-.4.64-.82,1.12-.75.63.1.74.9.69,1.5-.15,1.88-.3,3.75-.45,5.63.39-1.97,1.43-3.81,2.92-5.23.57-.54,1.52-1.01,2.09-.48.4.36.32.98.21,1.5-.61,2.87-1.35,5.79-3.06,8.22-1.74,2.49-5.38,5.42-8.11,2.77-2.74-2.65-4.89-5.93-5.61-9.61Z"/>
    <path class="st0" d="M40.88,62.36c-.04-.47-.04-1.02.34-1.33.39-.33,1.03-.22,1.43.09.4.32.61.79.81,1.25,1.34,3.1,2.58,6.25,3.71,9.43,1.03-2.78,2.57-5.39,4.53-7.68.96-1.13,2.63-3.23,3.75-2.23.73.75-.51,3.3-1.02,4.89-.53,1.65-1.08,3.35-2.26,4.66-1.93,2.15-5.47,4.9-7.68,1.89-2.24-3.05-3.29-7.32-3.6-10.98Z"/>
    <path class="st3" d="M38.68,65.23c2.02-.3,3.77,1.41,4.59,3.18.82,1.78,1.13,3.78,2.31,5.36.57-2.37,1.47-4.68,2.67-6.83.22-.39.46-.78.83-1.04.38-.25.93-.32,1.29-.04.41.33.37.92.29,1.42-.3,2.02-.59,4.03-.89,6.05.8-1.51,1.62-3.05,2.81-4.31,1.19-1.26,2.83-2.24,4.61-2.31.63.93-.06,2.14-.77,3.02-1.97,2.44-7.31,9.47-11.12,7.87-4.26-1.8-6.52-8.36-6.64-12.38Z"/>
  </g>
</svg>