<?xml version="1.0" encoding="UTF-8"?>
<svg id="DESIGNED_BY_FREEPIK" xmlns="http://www.w3.org/2000/svg" xmlns:xlink="http://www.w3.org/1999/xlink" version="1.1" viewBox="0 0 100 100">
  <!-- Generator: Adobe Illustrator 30.3.0, SVG Export Plug-In . SVG Version: 2.1.3 Build 182)  -->
  <defs>
    <style>
      .st0 {
        fill: #a9e6ca;
      }

      .st1 {
        fill: #eafadf;
      }

      .st2 {
        fill: #67b4ad;
      }

      .st3 {
        fill: #b3e9d6;
      }

      .st4 {
        fill: #b9ebca;
      }

      .st5 {
        fill: #c5f1c7;
      }

      .st6 {
        fill: #b6eabb;
      }

      .st7 {
        fill: #89c6a9;
      }

      .st8 {
        fill: url(#Degradado_sin_nombre_8);
      }

      .st9 {
        fill: #6cb4a6;
      }

      .st10 {
        fill: url(#Degradado_sin_nombre_37);
      }

      .st11 {
        fill: url(#Degradado_sin_nombre_35);
      }

      .st12 {
        fill: url(#Degradado_sin_nombre_34);
      }

      .st13 {
        fill: url(#Degradado_sin_nombre_36);
      }

      .st14 {
        fill: url(#Degradado_sin_nombre_38);
      }

      .st15 {
        fill: url(#Degradado_sin_nombre_30);
      }

      .st16 {
        fill: url(#Degradado_sin_nombre_33);
      }

      .st17 {
        fill: url(#Degradado_sin_nombre_32);
      }

      .st18 {
        fill: url(#Degradado_sin_nombre_31);
      }

      .st19 {
        fill: url(#Degradado_sin_nombre_40);
      }

      .st20 {
        fill: url(#Degradado_sin_nombre_41);
      }

      .st21 {
        fill: url(#Degradado_sin_nombre_29);
      }

      .st22 {
        fill: url(#Degradado_sin_nombre_39);
      }

      .st23 {
        fill: #95ddcc;
      }

      .st24 {
        fill: #558a6b;
      }

      .st25 {
        fill: #c0e786;
      }

      .st26 {
        fill: #fafcf7;
      }
    </style>
    <linearGradient id="Degradado_sin_nombre_41" data-name="Degradado sin nombre 41" x1="1634.8" y1="888.13" x2="1628.5" y2="884.12" gradientTransform="translate(-742.81 505.05) scale(.5 -.5)" gradientUnits="userSpaceOnUse">
      <stop offset="0" stop-color="#78ba9d"/>
      <stop offset="1" stop-color="#64b4b7"/>
    </linearGradient>
    <linearGradient id="Degradado_sin_nombre_40" data-name="Degradado sin nombre 40" x1="1590.46" y1="863.39" x2="1586.47" y2="897.28" gradientTransform="translate(-742.81 505.05) scale(.5 -.5)" gradientUnits="userSpaceOnUse">
      <stop offset="0" stop-color="#d1f3b4"/>
      <stop offset="1" stop-color="#a9e9e6"/>
    </linearGradient>
    <linearGradient id="Degradado_sin_nombre_39" data-name="Degradado sin nombre 39" x1="1579.38" y1="872.51" x2="1555.84" y2="841.71" gradientTransform="translate(-742.81 505.05) scale(.5 -.5)" gradientUnits="userSpaceOnUse">
      <stop offset="0" stop-color="#98dbb7"/>
      <stop offset="1" stop-color="#c2efe6"/>
    </linearGradient>
    <linearGradient id="Degradado_sin_nombre_38" data-name="Degradado sin nombre 38" x1="1624.67" y1="946.96" x2="1603.81" y2="925.79" gradientTransform="translate(-742.81 505.05) scale(.5 -.5)" gradientUnits="userSpaceOnUse">
      <stop offset="0" stop-color="#c9f18b"/>
      <stop offset="1" stop-color="#aceadc"/>
    </linearGradient>
    <linearGradient id="Degradado_sin_nombre_37" data-name="Degradado sin nombre 37" x1="1629.32" y1="926.7" x2="1595.63" y2="936.57" gradientTransform="translate(-742.81 505.05) scale(.5 -.5)" gradientUnits="userSpaceOnUse">
      <stop offset="0" stop-color="#81c096"/>
      <stop offset="1" stop-color="#58a8aa"/>
    </linearGradient>
    <linearGradient id="Degradado_sin_nombre_36" data-name="Degradado sin nombre 36" x1="1634.87" y1="922.64" x2="1672.43" y2="910.06" gradientTransform="translate(-742.81 505.05) scale(.5 -.5)" gradientUnits="userSpaceOnUse">
      <stop offset="0" stop-color="#98deb8"/>
      <stop offset="1" stop-color="#cdf6f1"/>
    </linearGradient>
    <linearGradient id="Degradado_sin_nombre_35" data-name="Degradado sin nombre 35" x1="1634.71" y1="913.76" x2="1607.4" y2="922.83" gradientTransform="translate(-742.81 505.05) scale(.5 -.5)" gradientUnits="userSpaceOnUse">
      <stop offset="0" stop-color="#a5e4b0"/>
      <stop offset="1" stop-color="#84d6d8"/>
    </linearGradient>
    <linearGradient id="Degradado_sin_nombre_8" data-name="Degradado sin nombre 8" x1="1634.83" y1="903.7" x2="1627.11" y2="897.28" gradientTransform="translate(-742.81 505.05) scale(.5 -.5)" gradientUnits="userSpaceOnUse">
      <stop offset="0" stop-color="#b5e9af"/>
      <stop offset="1" stop-color="#8ed9c9"/>
    </linearGradient>
    <linearGradient id="Degradado_sin_nombre_34" data-name="Degradado sin nombre 34" x1="1522.15" y1="902.33" x2="1563.28" y2="935.36" gradientTransform="translate(-742.81 505.05) scale(.5 -.5)" gradientUnits="userSpaceOnUse">
      <stop offset="0" stop-color="#70b5a1"/>
      <stop offset="1" stop-color="#5fafaf"/>
    </linearGradient>
    <linearGradient id="Degradado_sin_nombre_33" data-name="Degradado sin nombre 33" x1="1557.79" y1="968.62" x2="1578.68" y2="926.79" gradientTransform="translate(-742.81 505.05) scale(.5 -.5)" gradientUnits="userSpaceOnUse">
      <stop offset="0" stop-color="#c7f3a3"/>
      <stop offset="1" stop-color="#96dfe8"/>
    </linearGradient>
    <linearGradient id="Degradado_sin_nombre_32" data-name="Degradado sin nombre 32" x1="1567.59" y1="946.37" x2="1584.18" y2="990.03" gradientTransform="translate(-742.81 505.05) scale(.5 -.5)" gradientUnits="userSpaceOnUse">
      <stop offset="0" stop-color="#87d4c0"/>
      <stop offset="1" stop-color="#d2fbf4"/>
    </linearGradient>
    <linearGradient id="Degradado_sin_nombre_31" data-name="Degradado sin nombre 31" x1="1563.32" y1="961.12" x2="1577.96" y2="926.68" gradientTransform="translate(-742.81 505.05) scale(.5 -.5)" gradientUnits="userSpaceOnUse">
      <stop offset="0" stop-color="#ccf2b0"/>
      <stop offset="1" stop-color="#a2e7eb"/>
    </linearGradient>
    <linearGradient id="Degradado_sin_nombre_30" data-name="Degradado sin nombre 30" x1="1608.38" y1="963.43" x2="1631.08" y2="962.4" gradientTransform="translate(-742.81 505.05) scale(.5 -.5)" gradientUnits="userSpaceOnUse">
      <stop offset="0" stop-color="#93dec3"/>
      <stop offset="1" stop-color="#dbf9ef"/>
    </linearGradient>
    <linearGradient id="Degradado_sin_nombre_29" data-name="Degradado sin nombre 29" x1="1646.49" y1="892.09" x2="1657.28" y2="865.02" gradientTransform="translate(-742.81 505.05) scale(.5 -.5)" gradientUnits="userSpaceOnUse">
      <stop offset="0" stop-color="#a7e3a8"/>
      <stop offset="1" stop-color="#c1f2f3"/>
    </linearGradient>
  </defs>
  <path class="st0" d="M52.62,26.21c.36-1.23.51-2.94.64-4.24.32-3.15.29-6.24-.52-9.32-.33-1.24-.78-2.46-1.17-3.68-.27-.84-.49-1.7-.71-2.56-.29-1.12-.58-3,.07-4.04.19-.3.46-.53.82-.59.42-.08.85.1,1.17.36,1.68,1.31,3.76,7.23,4.31,9.38.28,1.11.46,2.28.59,3.42.29,1,.39,5.38.64,5.82.54-1.55,1.23-2.91,1.73-4.45.27-.89.44-1.8.63-2.71.48-2.33,1.09-4.49,2.29-6.57.57-.98,1.35-2.2,2.74-1.76.14.05.37.19.41.34.54,2.07-.4,4.28-.76,6.33-.14.8-.26,1.59-.37,2.4-.19,1.33-.14,2.65-.19,3.99-.23,2.76-.7,5.98-1.67,8.57-.02.03-.03.07-.05.1l.09.07c-.1.46-.76,2.48-1,2.78-.96,1.23-.75,1.96-1.2,3.26-.07.47-.29,1.35-.41,1.79,1.52-1.52,2.6-2.18,4.33-3.4l.44-.32c.1.19.12.22.36.2.45-.28,1.36-1.05,1.78-1.4.13-.21.08-.32.04-.56.02-.04.11-.14.15-.18,1.07.05,3.82-3.53,4.39-4.44.32-.56.66-1.13.92-1.72.86-1.9,3.37-8.84,5.37-9.36.26-.07.49-.02.71.12.39.26.55.72.62,1.16.51,3.16-2.89,12.79-4.76,15.3-.01.02-.02.03-.04.05l-.23.34c-.1.18-.38.56-.37.72-.26.2-.72.92-1.02,1.26-.64.73-1.25,1.35-1.94,2.03.64-.16,1.2-.21,1.86-.06l.04.04c.22.22.4.3.41.67.02.64-.63,1.32-1.07,1.75-.59.57-1.3,1.11-1.96,1.58-.3.22-1.31.82-1.48,1-.26.16-.37.26-.67.31l.09.14c.87-.51,2.75-.92,3.75-1.2.67-.19,1.25-.39,1.91-.63l.25.31c1.11-.53,2.09-.64,3.19-1.34,2.75-1.75,5.24-4.18,8.36-5.24.82-.28,1.14-.28,1.7.33-.02.24-.11,1.29-.19,1.45-.78,1.56-2.76,3.4-4.09,4.5-1.89,1.57-3.57,2.97-5.74,4.11-.99.52-2.52.96-3.35,1.41l.22.12c.63.01,1.27-.12,1.89-.19,2.93-.34,5.71-1.57,8.26-3.01,1.45-.82,2.74-1.9,4.18-2.73.74-.43,4.95-3.17,4.99-1.03-.08,1.23-1.07,2.26-1.94,3.04-1.88,1.68-3.94,3.12-6.16,4.31-.55.3-1.15.71-1.7.96-.44.25-.92.49-1.35.72-.32.17-1.95.75-2.01.91,2.53-.3,4.98-.46,7.38-1.45,1.61-.67,3.06-1.68,4.82-1.95,1.83-.39,3.09.67,1.64,2.34-.48.53-1.1.88-1.68,1.26-2.92,1.93-6.5,2.79-9.81,3.79-.39.12-1.58.47-1.94.47l.04.07.43.07c.23,0,.4,0,.63.06,1.29.06,2.4.17,3.72.15,2.15-.04,4.07-.73,6.16-.89.91-.07,2.86.09,2.68,1.38-.24,1.78-2.8,2.43-4.2,2.98-1.67.65-3.34,1.17-5.1,1.4-1.31.17-2.66.61-3.97.68-1.82.1-3.68-.44-5.49-.61-.33-.01-.66-.07-.98-.14l-.14.17c-1.27-.27-2.51-.63-3.73-1.08-.74-.2-2.56-1.24-3.19-1.71-.03-.04-.17-.22-.21-.23-.62-.14-1.29-.16-1.93-.27l.02.1c1.16.47,2.37,1.6,3.35,2.4.4.33.88.59,1.25.96.75.82,1.51,1.63,2.25,2.45.45.5.85,1.07,1.35,1.51.15.14.4.14.57.25l-.04.06h-.18c0,.15.77,1.12.93,1.32,1.46,1.83,2.69,3.85,3.7,5.96.08.17.5.96.53,1.06.11.49.3.83.43,1.28l.03.1c.09.3.25.64.37.95.52,1.29.92,2.55,1.29,3.91.28,1.03.98,2.39.75,3.47-.05.18-.47.34-.65.42-3.01-1.08-4.14-4.8-5.63-7.38-.11-.09-.36-.54-.46-.7-.69-1.07-1.55-1.99-2.45-2.89l-.3-.26-.08.02-.11-.13c-.27-.35-.42-.53-.74-.84-.53-.8-2.54-2.5-3.27-3.12.05.36.08.6.09.96.09.19.06.6.06.83-.22.28-.31.33-.58.54-.05.2-.07.27-.23.42-.34.29-.15.36-.08.7.55,1.02,1.45,2.81,2.14,3.65l-.1.13c.6,1.12,1.21,2.64,1.67,3.86.48,1.28,1.19,2.94,1.46,4.34.45,2.41,1.36,6.09.12,8.34-.27.48-.63.59-1.1.68-1.89-.87-2.36-2.31-2.85-4.23-.65-2.52-1.06-5.04-2.27-7.39-1.04-2.01-2.52-3.81-3.89-5.61-.87-1.14-1.68-2.32-2.44-3.54-.01.64.67,1.3.81,1.72.52.66.98,1.33,1.33,2.1.29.46.52,1.01.74,1.52.32.68.9,2.28.69,3.05-.15.54-.7.48-1.15.44-.29-.08-1.62-1.08-1.97-1.33l-.14.21c-.42.11-.63-.57-1.02-.65-.82-.77-1.6-1.86-2.36-2.57h-.12c-.11-.32-.44-.88-.62-1.21-.17-.23-.15-.25-.41-.29.28,1.51.72,3.57.7,5.11-.09,3.29-.48,6.6-1.59,9.71-.26.73-.82,1.67-1.6,1.78-1.87.27-1.69-3.98-1.71-5.03-.07-3.2-1.15-6.01-1.64-9.13-.09-.55-.17-1.16-.18-1.71-.07-.59.15-1.56-.29-1.96-.01.03-.02.06-.03.09-.14,2.54-.51,5.09-.45,7.64.01,2.12.35,4.24.52,6.35.14,1.77.68,3.68.61,5.43-.14,3.3-2.77,2.83-3.92.36-1.08-2.31-1.68-4.75-2.12-7.25-.33-1.77-.77-3.57-.81-5.4-.08-.26,0-.46-.13-.61l-.14.11c-.44,1.77-3.86,10.59-6.13,9.85-.21-.07-.38-.22-.48-.43-.84-1.79,1.76-5.44,2.19-7.19.02-.1.25-.92.28-.98.08-.58.29-1.51.42-2.1l-.18-.11c.51-1.56,1.42-2.84,1.91-4.28.66-1.94,1.11-4.17,1.65-6.15-.18.17-.37.42-.53.61-1.3,1.8-3.69,4.89-6.09,4.91-.12-.15-.35-.45-.49-.55.07-.19.06-.2.07-.4.44-1.43.79-1.81,1.55-3.08.17-.29.48-1.21.59-1.53.25-.71.4-1.39.57-2.12.16.05.27.1.44.12.79-2.65,1.59-5.64,2.91-8.05.49-.9,2.24-3.09,3.09-3.73.76-.9,2.02-1.35,2.87-2.36-.65.24-1.56.72-2.25,1-2.3.96-4.79,1.36-7.27,1.19-.48.04-4.03-.46-4.61-.6-1.86-.45-4.78-1.02-6.45-1.85,0-.02,0-.11-.01-.12-.46-.51-2.68-1.61-1.95-2.62.25-.1.29-.15.45-.37,2.25.34,4.91,1.03,7.14.92,3.97-.2,6.53-1.11,10.54-.05.69.15,1.28.37,1.94.62.17-.01.31.06.48.13l.06-.03c-.09-.16-.13-.16-.11-.3l.13-.02c.09.07.21.15.31.21l.11-.04c-.11-.2-.8-.91-1.05-1.29-1.43-1.64-3.84-5.16-4.42-7.19.42.45.91,2.39,1.39,2.47.19-.34.06-.63-.2-.87l.14-.15c.27.34.2.76.26,1.19.23.17.34.25.55.45.17-.19.1-.17.29-.19.11.05.29.17.4.08.5-.38.27-1,1.16-1,.2,0,.42-.06.61.06.05.22-.06.4-.13.67l.07.04c.09.18.11.23.27.36.41.03.63-.43,1.12-.62.32,1.77.91,3.5,2,4.96-.15-.92-1-2.31-1.28-3.39-.47-1.83-.59-3.59-.93-5.43-.71-2.36.02-6.46.56-8.86.01-.28.18-1.46.13-1.63l-.08.04c-.12.18-.1.41-.11.63l-.11-.1c.6-3.17.29-7,.05-10.23-.08-1.12-.92-4.28-.12-5.12.15-.16.36-.24.58-.24,1.33.04,1.99,2.28,2.36,3.29.37,1.02.75,2.06.96,3.13.5,2.61,1.09,5.48,1.04,8.15h.08Z"/>
  <path class="st9" d="M51.43,51.24c.51,1.28.82,1.95,1.83,2.96,2.11,2.1,4.77,3.34,6.97,5.35,2.21,2.02,3.94,4.66,6.39,6.36.39.27,1.17.42,1.64.29.59-.17.35-1.54.2-1.97-.82-2.34-2.33-4.55-3.86-6.48-.55-.73-1.38-1.25-2.01-1.88-1.14-1.14-2.28-2.1-3.56-3.08-1.22-.93-2.39-1.92-3.7-2.73-.71-.44-1.47-.72-2.22-1.09-.15-.08-.31-.17-.35-.32,1.12-.37,4.12,1.98,5.31,2.47l-.07.13c.12.05.18.09.28.18,1.68.84,3.23,1.11,5.04,1.49.67.14,1.59.19,2.05.7.1-.19.09-.18.28-.28.24,0,.13-.02.35.11l.02.1c1.16.47,2.37,1.6,3.35,2.4.4.33.88.59,1.25.96.75.82,1.51,1.63,2.25,2.45.45.5.85,1.07,1.35,1.51.15.14.4.14.57.25l-.04.06h-.18c0,.15.77,1.12.93,1.32,1.46,1.83,2.69,3.85,3.7,5.96.08.17.5.96.53,1.06.11.49.3.83.43,1.28l.03.1c.09.3.25.64.37.95.52,1.29.92,2.55,1.29,3.91.28,1.03.98,2.39.75,3.47-.05.18-.47.34-.65.42-3.01-1.08-4.14-4.8-5.63-7.38-.11-.09-.36-.54-.46-.7-.69-1.07-1.55-1.99-2.45-2.89l-.3-.26-.08.02-.11-.13c-.27-.35-.42-.53-.74-.84-.53-.8-2.54-2.5-3.27-3.12.05.36.08.6.09.96.09.19.06.6.06.83-.22.28-.31.33-.58.54-.05.2-.07.27-.23.42-.34.29-.15.36-.08.7.55,1.02,1.45,2.81,2.14,3.65l-.1.13c.6,1.12,1.21,2.64,1.67,3.86.48,1.28,1.19,2.94,1.46,4.34.45,2.41,1.36,6.09.12,8.34-.27.48-.63.59-1.1.68-1.89-.87-2.36-2.31-2.85-4.23-.65-2.52-1.06-5.04-2.27-7.39-1.04-2.01-2.52-3.81-3.89-5.61-.87-1.14-1.68-2.32-2.44-3.54-.01.64.67,1.3.81,1.72.52.66.98,1.33,1.33,2.1.29.46.52,1.01.74,1.52.32.68.9,2.28.69,3.05-.15.54-.7.48-1.15.44-.29-.08-1.62-1.08-1.97-1.33l-.14.21c-.42.11-.63-.57-1.02-.65-.82-.77-1.6-1.86-2.36-2.57h-.12c-.11-.32-.44-.88-.62-1.21-.17-.23-.15-.25-.41-.29.28,1.51.72,3.57.7,5.11-.09,3.29-.48,6.6-1.59,9.71-.26.73-.82,1.67-1.6,1.78-1.87.27-1.69-3.98-1.71-5.03-.07-3.2-1.15-6.01-1.64-9.13-.09-.55-.17-1.16-.18-1.71-.07-.59.15-1.56-.29-1.96-.01.03-.02.06-.03.09-.14,2.54-.51,5.09-.45,7.64.01,2.12.35,4.24.52,6.35.14,1.77.68,3.68.61,5.43-.14,3.3-2.77,2.83-3.92.36-1.08-2.31-1.68-4.75-2.12-7.25-.33-1.77-.77-3.57-.81-5.4-.08-.26,0-.46-.13-.61l-.14.11c-.44,1.77-3.86,10.59-6.13,9.85-.21-.07-.38-.22-.48-.43-.84-1.79,1.76-5.44,2.19-7.19.02-.1.25-.92.28-.98.08-.58.29-1.51.42-2.1l-.18-.11c.51-1.56,1.42-2.84,1.91-4.28.66-1.94,1.11-4.17,1.65-6.15-.18.17-.37.42-.53.61-.17-.11-.17-.11-.31-.26.37-.49,1.03-1.35,1.34-1.87.36-.62.74-1.41,1.09-2.05,1.05-1.66,1.43-4.9,1.94-6.79.41-1.52,1.38-3.94,2.22-5.24,0,.49-.05.79-.18,1.26-.7,1.31-1.1,3.36-1.14,4.84-.07.27-.1,1.19-.12,1.51-.18,2.79.08,5.6,1.06,8.23.15-.25.18-.71.15-.99-.21-1.6-.8-3.31-.73-4.94v-.1c.02-.33.2-.38.34-.67.09-.19.04-.35.17-.52.68-.12,1.22,1.34,2.5.51l.07-.05c0-.35-.16-1.22-.06-1.38l.24.03.24-.02c.12-.21.07-.5,0-.72-.13-.06-.14-.04-.29-.06.34-.1.43,0,.62-.31.07-.1.12-.12.22-.16.3.45-.38.59.34,1.34.09.48.12,1.34.57,1.62-.24-2.29-.88-4.76-1.94-6.81-.18-.53-.76-.91-.35-1.55.25.16.23.51.45.7Z"/>
  <path class="st4" d="M43.84,73.29c.15-.44-.03-.88.05-1.2.25-1.06.13-2.11.18-3.2.07-1.69.15-3.42.38-5.1.09-.67.72-1.36.99-1.97.22-.49.49-1.08.67-1.59.57-1.66.8-3.41,1.28-5.09.08-.26.13-.99.34-1.09.06.17.03.14-.03.32-.23.66-.15,1.48-.19,2.18-.17,2.73-.1,5.42.92,8.01.13.32.26.98.37,1.35.7,1.53.67,2.18,1.61,3.78l-.04.06s-.02.06-.03.09c-.14,2.54-.51,5.09-.45,7.64.01,2.12.35,4.24.52,6.35.14,1.77.68,3.68.61,5.43-.14,3.3-2.77,2.83-3.92.36-1.08-2.31-1.68-4.75-2.12-7.25-.33-1.77-.77-3.57-.81-5.4-.08-.26,0-.46-.13-.61l-.14.11-.12-1.34c.18-.08.2-.12.35-.25.02-.42.08-1.06-.04-1.46-.03-.1-.1-.09-.24-.15Z"/>
  <path class="st3" d="M43.84,73.29c.15-.44-.03-.88.05-1.2.25-1.06.13-2.11.18-3.2.07-1.69.15-3.42.38-5.1.09-.67.72-1.36.99-1.97.22-.49.49-1.08.67-1.59.57-1.66.8-3.41,1.28-5.09.08-.26.13-.99.34-1.09.06.17.03.14-.03.32-.23.66-.15,1.48-.19,2.18-.17,2.73-.1,5.42.92,8.01.13.32.26.98.37,1.35-.43-.44-.63-2.29-.93-2.76-.5-.77-.54-6.28-.54-6.28-.06,0-.22,0-.24.05-.33,1.15-.49,2.3-.9,3.44-.22.6-.49,1.19-.79,1.75-.16.29-.79,1.34-.83,1.66-.17,1.54-.35,3.06-.35,4.62,0,.25.95,2.88,1.33,3.03.69.28.61.26,1.04.85l-.09-.13v.07c-.15-.15-.29-.3-.44-.46-1.31-.36-1.54-2.12-1.91-3.25-.03,1.03-.06,2.07-.04,3.1.02,1.17.12,2.46.04,3.62v-.35c0-.42.07-1.06-.04-1.46-.03-.1-.1-.09-.24-.15Z"/>
  <path class="st7" d="M43.76,75.14c.18-.08.2-.12.35-.25v.35c0,.57.04,1.19.03,1.74-.08-.26,0-.46-.13-.61l-.14.11-.12-1.34Z"/>
  <path class="st5" d="M46.41,78.34c1.31-.05,1.08,1.1.44,1.26-.13,1.38-1.43.58-1.19-.36.14-.53.32-.62.76-.89Z"/>
  <path class="st25" d="M46.41,78.34c1.31-.05,1.08,1.1.44,1.26-.13-.49-.24-.79-.44-1.26Z"/>
  <path class="st3" d="M44.9,63.8c1,.05.96,1,1.39,1.56.21.13.39.09.63.07.57-.03.48.38.81.66l-.06.05c-.17-.06-.23-.08-.33-.24-.45-.71-.69-.06-1.2-.35-.13-.15-.13-.25-.17-.45v-.08c-.2-.02-.25,0-.4-.11-.08-.14-.07-.16-.06-.32v-.08c.01-.24.02-.26-.1-.4-.19-.03-.2-.03-.39-.01l-.02.11c-.06.23-.58,1.05-.02,1.18.08-.1.12-.14.22-.23.04.29.01.23.26.36l-.13.02-.05.08c.07.31.08.4-.26.54-.75.29-.16.63-.15,1.09l-.1.03c-.42-.35-.23-1.7-.25-2.25,0-.29.42-.99.4-1.26Z"/>
  <path class="st25" d="M48.2,81.03c.07,0,.14-.02.22-.02.73-.05,1.04,1.22.44,1.85-.8.17-1-1.36-.66-1.83Z"/>
  <path class="st3" d="M45.89,65.61c.45-.08.74.56.75.95-.1.21-.02.13-.22.25v.12c-.15,0-.08.01-.2-.1-.07-.19-.04-.38-.03-.59l-.05-.02c-.11.2-.12.32-.36.29l.1.07c.03.18.03.15.16.31l-.02.09-.08.03v.14s-.04.03-.04.03c0-.32-.02-.44-.28-.65h-.12c-.11.15-.14.22-.3.28-.16-.03-.15-.06-.26-.19.28-.05.6-.1.63-.49.02-.34.1-.33.34-.52Z"/>
  <path class="st23" d="M46.31,66.04c.14.16.29.44.25.66l-.24-.04c-.12-.17-.04-.37,0-.62Z"/>
  <path class="st23" d="M47.09,66.69c.06.06.1.16.15.23.14.09.43-.02.69-.05.19.09.13.02.21.2-.09.22-.6.49-.84.65,0,.3-.07,1.18.1,1.37l.09-.16h.06s.03.08.03.08c-.1.16-.03.1-.22.18-.21-.2-.11-.82-.19-1.17-.05-.68.78-.7.86-.98-.65-.5-.99,1.26-1.74.4l.17-.03v-.09c-.12.03-.06.03-.18,0l.05-.07c.15-.04.17-.04.31-.1l.08-.29c.12-.14.2-.14.38-.18Z"/>
  <path class="st26" d="M47.13,82.94c.58.1.72.67.36,1.1-.13-.02-.28-.04-.39-.12-.12-.09-.2-.22-.21-.37-.02-.25.1-.41.24-.6Z"/>
  <path class="st26" d="M48.71,85.08c.68.09.66.6.55,1.15-.77.04-.68-.61-.55-1.15Z"/>
  <path class="st26" d="M48.16,76.65c.21.03.21.02.37.17.19.38-.01.62-.27.88-.6-.14-.44-.71-.1-1.05Z"/>
  <path class="st0" d="M46.25,68.48c.21.02.51.31.58.49l-.13-.03c-.06.23-.13.29-.28.48-.27-.2-.7-.38-.61-.72.15-.12.26-.15.43-.23Z"/>
  <path class="st26" d="M45.71,74.59c.38.08.59.3.52.7-.26.07-.34.13-.54-.06-.07-.23-.01-.4.02-.64Z"/>
  <path class="st4" d="M56.81,57.53c1.91,1.35,3.27,2.52,4.92,4.16.56.56,3.34,3.78,3.82,4.01.45.11,1.33.77,1.82,1.04,0-.14-.02-.08.06-.2h.06s.1.03.1.03c1.66.28,1.14-.89,1.4-1.29.09.19.06.6.06.83-.22.28-.31.33-.58.54-.05.2-.07.27-.23.42-.34.29-.15.36-.08.7.55,1.02,1.45,2.81,2.14,3.65l-.1.13c.6,1.12,1.21,2.64,1.67,3.86.48,1.28,1.19,2.94,1.46,4.34.45,2.41,1.36,6.09.12,8.34-.27.48-.63.59-1.1.68-1.89-.87-2.36-2.31-2.85-4.23-.65-2.52-1.06-5.04-2.27-7.39-1.04-2.01-2.52-3.81-3.89-5.61-.87-1.14-1.68-2.32-2.44-3.54,0,0-.29-.57-.33-.65-.29-.63-.55-1.24-.79-1.89-.56-1.49-.78-3.06-1.33-4.54-.32-.83-.68-1.65-1.08-2.44-.17-.34-.39-.63-.56-.97Z"/>
  <path class="st7" d="M65.55,65.7c.45.11,1.33.77,1.82,1.04,0-.14-.02-.08.06-.2h.06s.1.03.1.03c1.66.28,1.14-.89,1.4-1.29.09.19.06.6.06.83-.22.28-.31.33-.58.54-.05.2-.07.27-.23.42-.34.29-.15.36-.08.7.55,1.02,1.45,2.81,2.14,3.65l-.1.13c-.97-.75-2.67-3.79-3.18-4.94-.4-.23-1.13-.63-1.46-.92Z"/>
  <path class="st6" d="M67.41,66.64c.42.08.64.1,1.06.02-.05.2-.07.27-.23.42-.34.29-.15.36-.08.7-.23-.31-.52-.8-.74-1.14Z"/>
  <path class="st26" d="M71.78,82.31c.8.02,1.03.88.63,1.48-.85-.12-.91-.79-.63-1.48Z"/>
  <path class="st26" d="M69.72,79.73c.67.1.9.74.53,1.31-.2.06-.2.08-.4.02-.42-.31-.29-.92-.13-1.33Z"/>
  <path class="st26" d="M71.67,78.66c.69-.02.95.57.56,1.11-.8.08-.98-.53-.56-1.11Z"/>
  <path class="st26" d="M68.57,75.75c.61.05.74.42.5.93-.56-.07-.87-.4-.5-.93Z"/>
  <path class="st6" d="M58.27,51.43c1.68.84,3.23,1.11,5.04,1.49.67.14,1.59.19,2.05.7.1-.19.09-.18.28-.28.24,0,.13-.02.35.11l.02.1c1.16.47,2.37,1.6,3.35,2.4.4.33.88.59,1.25.96.75.82,1.51,1.63,2.25,2.45.45.5.85,1.07,1.35,1.51.15.14.4.14.57.25l-.04.06h-.18c0,.15.77,1.12.93,1.32,1.46,1.83,2.69,3.85,3.7,5.96.08.17.5.96.53,1.06.11.49.3.83.43,1.28l.03.1c.09.3.25.64.37.95.52,1.29.92,2.55,1.29,3.91.28,1.03.98,2.39.75,3.47-.05.18-.47.34-.65.42-3.01-1.08-4.14-4.8-5.63-7.38-.11-.09-.36-.54-.46-.7-.69-1.07-1.55-1.99-2.45-2.89.08-.05.04-.02.13-.09-1.45-2.08-2.87-3.39-4.76-5.03-.21-.18-.73-1.42-.92-1.77-.8-1.45-1.74-2.97-2.86-4.19-2.07-2.25-4.28-4.23-6.74-6.05l.03-.11Z"/>
  <path class="st20" d="M65.36,53.62c.1-.19.09-.18.28-.28.24,0,.13-.02.35.11l.02.1c1.16.47,2.37,1.6,3.35,2.4.4.33.88.59,1.25.96.75.82,1.51,1.63,2.25,2.45.45.5.85,1.07,1.35,1.51.15.14.4.14.57.25l-.04.06h-.18c0,.15.77,1.12.93,1.32,1.46,1.83,2.69,3.85,3.7,5.96.08.17.5.96.53,1.06.11.49.3.83.43,1.28-.31-.2-.52-.74-.77-1.1l-.03-.05c-.37-1.06-2.22-4.19-2.88-5.09-2.6-3.49-5.48-7.06-9.05-9.6-.48-.34-1.75-.98-2.06-1.35Z"/>
  <path class="st1" d="M79.35,69.66l.03.05c.24.36.46.9.77,1.1l.03.1c.09.3.25.64.37.95.52,1.29.92,2.55,1.29,3.91.28,1.03.98,2.39.75,3.47-.05.18-.47.34-.65.42-3.01-1.08-4.14-4.8-5.63-7.38h.07c.27.24,1.1,2.03,1.33,2.48.85,1.74,2.09,3.93,3.97,4.7.17.07.47.08.63-.03.16-.11.22-.26.25-.44.03-.18-.07-.81-.13-.96-.29-.84-1.65-5.73-2.04-6.23-.42.34-.29,1.05-.42,1.43l-.11.02c-.3-.2-.45-.51-.6-.83.03-.21.43-.92.55-1.26.2-.55-.21-.74-.51-1.4l.05-.08Z"/>
  <path class="st26" d="M79.51,72.08l.21.05c.3.25.24.53.13.85-.36-.27-.63-.49-.33-.91Z"/>
  <path class="st1" d="M76.7,70.39c.02-.23.08-.26.31-.32.28.13.29.54.34.84.59.19.03.42.95.26.13.05.2.05.26.14-.29.02-.41.02-.69.11-.17.16-.11.18-.15.48-.19.13-.86.12-1.06-.02-.08-.18.05-1.12.05-1.5Z"/>
  <path class="st5" d="M76.7,70.39c.02-.23.08-.26.31-.32.28.13.29.54.34.84-.21.01-.33.04-.53-.03-.13-.14-.1-.3-.12-.49Z"/>
  <path class="st26" d="M76.88,67.59c.8-.04,1.43.96.96,1.35-.74.01-1.41-.67-.96-1.35Z"/>
  <path class="st26" d="M74.49,66.41c.79-.04,1.36.54.65,1.23-.66.03-1.21-.66-.65-1.23Z"/>
  <path class="st26" d="M75.48,64.7c.57.13.83.64.27,1.02-.33-.15-.59-.38-.58-.77.1-.19.07-.13.31-.25Z"/>
  <path class="st6" d="M55.2,59.42l-.04-.24.08-.05c.24.05.47.08.71.15.68.18.8-.62,1.22.05.34.55,1.05,3.21,1.31,3.38.54,2.01,1.59,5.32,2.87,6.97.27.12.5.48.62.73-.06-.42-.24-.32-.26-.68.52.66.98,1.33,1.33,2.1.29.46.52,1.01.74,1.52.32.68.9,2.28.69,3.05-.15.54-.7.48-1.15.44-.29-.08-1.62-1.08-1.97-1.33l-.14.21c-.42.11-.63-.57-1.02-.65-.82-.77-1.6-1.86-2.36-2.57h-.12c-.11-.32-.44-.88-.62-1.21-.17-.23-.15-.25-.41-.29-.41-.39-1.73-2.76-2-3.33-.13-.26-.63-1.61-.78-2-.23-.25-.1-.47.11-.66-.29-.87-.18-1.5-.15-2.39,0-.74.03-1.38-.03-2.12v-.24s.06-.02.06-.02l.04.25c.23.1.43.11.7.24.08-.09,0-.4.02-.63.38.65-.22.6.7,1.22.1-.06.17-.19.2-.3.13-.66-1.11-1.07-1.32-1.46l.07-.24.02.24c.1.13.51.32.69.41.06-.18.13-.37.19-.55Z"/>
  <path class="st2" d="M54.01,65c.51,1.22,1.07,2.6,1.71,3.75.41.73,1.02,1.54,1.47,2.26l-.11.27c-.17-.23-.15-.25-.41-.29-.41-.39-1.73-2.76-2-3.33-.13-.26-.63-1.61-.78-2-.23-.25-.1-.47.11-.66Z"/>
  <path class="st23" d="M53.83,60.48v-.24s.06-.02.06-.02l.04.25c.23.1.43.11.7.24.08-.09,0-.4.02-.63.38.65-.22.6.7,1.22.1-.06.17-.19.2-.3.13-.66-1.11-1.07-1.32-1.46l.07-.24.02.24c.1.13.51.32.69.41.06-.18.13-.37.19-.55.3-.05.57-.04.65.31-.13.33-.36.29-.45.57.07.15.2.19.35.27.08.22-.04.32-.16.51v.13c.26.16.46.15.64-.11,0-.41-.48-.63-.32-.97.33-.1.57,0,.92-.09l.06.09-.04.09c-.25.11-.53-.1-.77,0,.42.93.37.86-.21,1.5-.17.18,0,.58-.23.79-.76-.07-.3-.79-.43-1.12-.12-.08-.15-.07-.29-.09-.2-.26-.47-.72-.81-.48-.3.64.01,1.52-.16,1.8l-.08-.02c0-.74.03-1.38-.03-2.12Z"/>
  <path class="st9" d="M57.2,71.01c1.3,1.63,2.53,3.14,4.15,4.49l-.14.21c-.42.11-.63-.57-1.02-.65-.82-.77-1.6-1.86-2.36-2.57h-.12c-.11-.32-.44-.88-.62-1.21l.11-.27Z"/>
  <path class="st7" d="M61.34,69.68c.27.12.5.48.62.73-.06-.42-.24-.32-.26-.68.52.66.98,1.33,1.33,2.1l-.25-.12-.03.07-.07.05c-.16-.39-1.06-1.71-1.34-2.14Z"/>
  <path class="st25" d="M61.12,71.25c.17.19.54.56.59.78.14.61-.36,1.15-.98.87l-.22-.48c.07-.26.1-.47.14-.73l.47-.45Z"/>
  <path class="st25" d="M62.54,73.88c.83-.02,1.16.98.48,1.44-.72-.19-1.3-.89-.48-1.44Z"/>
  <path class="st26" d="M60.74,72.9c-.77.85-1.38-.2-1.22-.84.36-.45.75.08,1,.37l.22.48Z"/>
  <path class="st1" d="M62.92,72.72c-.58.37-1.15.17-.98-.52.26-.32.52-.13.8.07.06.15.11.32.18.45Z"/>
  <path class="st26" d="M59.46,69.54c.33,0,.5.03.59.37-.07.28-.06.2-.28.44-.33,0-.49,0-.57-.33.06-.25.09-.27.26-.48Z"/>
  <path class="st4" d="M53.9,65.66c.15.38.65,1.73.78,2,.28.57,1.6,2.94,2,3.33.28,1.51.72,3.57.7,5.11-.09,3.29-.48,6.6-1.59,9.71-.26.73-.82,1.67-1.6,1.78-1.87.27-1.69-3.98-1.71-5.03-.07-3.2-1.15-6.01-1.64-9.13-.09-.55-.17-1.16-.18-1.71.04-.44.02-1.15.02-1.61.67,1.17,1.7,2.97,2.9,3.59.26-.08.36-.13.6-.25.97-1.48.28-4.05.01-5.69-.1-.62-.37-1.46-.29-2.1Z"/>
  <path class="st25" d="M53.86,79.93c.97-.07.56,1.07.26,1.54-.12-.04-.34-.11-.39-.23-.23-.47-.43-1.05.14-1.31Z"/>
  <path class="st26" d="M55.75,75.7c.56,0,.73.72.14,1.07-.72-.11-.61-.68-.14-1.07Z"/>
  <path class="st26" d="M54.93,83.09c.69.09.53.65.18,1.03-.71,0-.59-.7-.18-1.03Z"/>
  <path class="st26" d="M55.49,79.33c.43.08.65.64.22.97-.75-.03-.61-.56-.22-.97Z"/>
  <path class="st0" d="M55.74,71.02l.15.07c.11.14.08.27.08.46v.09c.14.24.35.14.72.35v.09c-.22.03-.24-.02-.47-.11-.07,0-.15-.05-.23-.07-.3-.39-.72-.51-.86-.77.19-.09.4-.08.61-.1Z"/>
  <path class="st19" d="M51.58,57.21l.24-.02c.12-.21.07-.5,0-.72-.13-.06-.14-.04-.29-.06.34-.1.43,0,.62-.31.07-.1.12-.12.22-.16.3.45-.38.59.34,1.34.09.48.12,1.34.57,1.62.04.32.08.63.12.94.3,2.09-.13,4.18.07,6.31.11,1.18,1.64,6.78.19,7.22-.54-.06-2-2-2.29-2.55-.41-.78-.87-1.57-1.28-2.36-.46-1-.78-2.1-1.2-3.13.15-.25.18-.71.15-.99-.21-1.6-.8-3.31-.73-4.94v-.1c.02-.33.2-.38.34-.67.09-.19.04-.35.17-.52.68-.12,1.22,1.34,2.5.51l.07-.05c0-.35-.16-1.22-.06-1.38l.24.03Z"/>
  <path class="st25" d="M51.07,66.7c1.01-.07,1.07.69.65,1.41-.77.12-1.07-.87-.65-1.41Z"/>
  <path class="st26" d="M52.25,65.17c.71.23.88.84.4,1.41-.88-.09-.85-.88-.4-1.41Z"/>
  <path class="st25" d="M50.06,64.57c.74,0,.64.66.35,1.13-.61-.1-.63-.7-.35-1.13Z"/>
  <path class="st26" d="M52.68,69.78c.25-.02.31-.04.52.08.24.34.06.51-.18.78-.19.03-.2.04-.38-.04-.26-.31-.19-.52.04-.82Z"/>
  <path class="st26" d="M49.72,61.76c.61.12.51.71.1,1.07l-.21-.03c-.39-.34-.17-.72.11-1.03Z"/>
  <path class="st5" d="M51.4,59.65c.53.05.6.39.37.81-.32-.05-.45-.04-.58-.35.02-.23.06-.26.2-.46Z"/>
  <path class="st26" d="M51.79,62.87h.3c.19.14.12.05.2.27-.03.26-.04.27-.18.48l-.27-.05c-.31-.26-.29-.4-.05-.71Z"/>
  <path class="st22" d="M40.93,74.35c.02-.06.36-.75.43-.9.37-.84.78-1.7,1.09-2.56.6-1.63.88-3.53,1.36-5.13,0,.3-.04.64-.07.95-.21,2.15-.06,4.25-.06,6.41l.09.22.05-.04c.15.06.21.05.24.15.11.39.05,1.04.04,1.46-.15.12-.18.16-.35.25l.12,1.34c-.44,1.77-3.86,10.59-6.13,9.85-.21-.07-.38-.22-.48-.43-.84-1.79,1.76-5.44,2.19-7.19.02-.1.25-.92.28-.98.08-.58.29-1.51.42-2.1.24-.28.51-.89.77-1.28Z"/>
  <path class="st9" d="M43.7,73.1l.09.22.05-.04c.15.06.21.05.24.15.11.39.05,1.04.04,1.46-.15.12-.18.16-.35.25-.04-.68-.06-1.36-.06-2.03Z"/>
  <path class="st4" d="M40.93,74.35c-.02.43-.22.46-.28.76-.03.16.14.48.04.77l-.09.08c-.13,0-.21-.02-.34-.04-.32.36-.15,1.37-.52,1.8.08-.58.29-1.51.42-2.1.24-.28.51-.89.77-1.28Z"/>
  <path class="st3" d="M40.67,77.76c.71.28.43.93,1.27,1.04-.66.21-.88-.48-1.16-.82l-.05.03c.04.15.62,1.22.73,1.42.04.07.16.05.27.06l.06-.09.06.03c-.03.24.02.13-.13.32l-.21-.03c-.57-.16-.16-.69-.58-1.02-.1-.08-.21-.23-.28-.34l-.03-.05c-.12.33-.32.8-.26,1.14.26.09.72.19.68.52-.17.14-.38.08-.65.07-.47-.4.22-1.41.12-2.07v-.06c.07-.04.03-.02.11-.08l.06-.05Z"/>
  <path class="st4" d="M42.53,76.18c0,.2-.3.37-.45.49v.08c.37.26.93-.27,1.26-.11v.09c-.47-.11-.55.2-1.19.24-.25.26-.46.55-.68.83.06.13.58-.07.75-.02.16.04.28.11.43.18,0,.24-.18.42-.12.64l-.15-.1c.05-.26.11-.39-.03-.6-.18-.02-.11-.05-.24.03l-.02.39-.07.05s-.84-.35-.83-.34v-.12c.1-.24.51-.61.72-.83,0-.62.18-.56.63-.9Z"/>
  <path class="st3" d="M39.94,81.34c.32,0,.62,0,.83.26-.02.25-.04.21-.22.46-.2.14-.27.14-.5.13-.37-.24-.25-.5-.11-.84Z"/>
  <path class="st4" d="M41.25,76.21s.23.11.27.13c.06.2.11.51.01.71-.25.1-.3-.08-.62-.05l-.07.1-.03-.08c-.19-.15-.62-.31-.68-.4l.02-.09c.32-.1.34.22.69.3.2-.65.28-.25.41-.62Z"/>
  <path class="st3" d="M52.62,54.03c.7.86,1.27,1.35,2.15,2.02.37.28.92.69,1.22,1,.09.4.54.86.73,1.19.5.87,1.63,3.55,1.75,4.47-.25-.17-.96-2.83-1.31-3.38-.42-.67-.54.13-1.22-.05-.25-.07-.47-.1-.71-.15l-.08.05.04.24c-.07.18-.13.37-.19.55-.17-.09-.58-.28-.69-.41l-.02-.24-.07.24c.21.39,1.45.8,1.32,1.46-.02.11-.09.24-.2.3-.92-.62-.32-.57-.7-1.22-.02.23.06.54-.02.63-.27-.13-.48-.14-.7-.24l-.04-.25-.05.02v.24c-.36-2.74-.37-3.75-1.22-6.45Z"/>
  <path class="st4" d="M52.62,26.21c.36-1.23.51-2.94.64-4.24.32-3.15.29-6.24-.52-9.32-.33-1.24-.78-2.46-1.17-3.68-.27-.84-.49-1.7-.71-2.56-.29-1.12-.58-3,.07-4.04.19-.3.46-.53.82-.59.42-.08.85.1,1.17.36,1.68,1.31,3.76,7.23,4.31,9.38.28,1.11.46,2.28.59,3.42l-.07.06c-.11-.12-.14-.22-.21-.37h-.08c-.09.31.47,3.82.49,4.58.05,3.04.19,6.2-.14,9.24-.09.82-.99,2.17-1.26,2.97-.66,1.38-1.23,2.8-1.94,4.14-.91,1.73-2.11,3.44-3.03,5.13.63-3.12,1.24-5.86,1.2-9.09-.02-1.67-.28-3.8-.15-5.4Z"/>
  <path class="st26" d="M53.61,7.9c.3.13.37.28.54.55.05.5.15.87-.42,1.04-.37-.03-.57-.23-.65-.58-.13-.56,0-.87.53-1.01Z"/>
  <path class="st26" d="M52.98,5.26c.67.14.6.54.24.98-.51-.18-.75-.6-.24-.98Z"/>
  <path class="st5" d="M54.58,14.89c.32.03.46.12.51.43-.06.24-.1.26-.3.43-.58-.06-.65-.54-.21-.87Z"/>
  <path class="st26" d="M55.64,12.04c.58.03.72.38.46.85-.34-.05-.51-.06-.63-.4.03-.25.03-.24.16-.45Z"/>
  <path class="st5" d="M72.2,24.81c.32-.56.66-1.13.92-1.72.86-1.9,3.37-8.84,5.37-9.36.26-.07.49-.02.71.12.39.26.55.72.62,1.16.51,3.16-2.89,12.79-4.76,15.3-.01.02-.02.03-.04.05l-.23.34c-.44.1-.9.76-1.2,1.12-.9,1.07-1.82,2.12-2.91,3-.32.26-1.73.65-2.21.83-.33.13-.96.42-1.27.53.15-.32,1.8-.75,1.95-.91l-.04-.34c-.13-.1-.17-.07-.37-.08l-.02-.04c.27-.17.54-.18.72-.34v-.16c-.08-.16-.09-.26-.24-.35-1.1.34-1.28.39-2.4.18-.41.27-.76.29-1.26.24-.29-.17-.3-.34-.31-.65v-.06s0,.02,0,.02c-.22-.34-.41-.63-.64-.96.37.04-.06-.03.44-.15l.06-.15-.04-.08c-.38-.03-.56.28-.96.36.45-.35.89-.62,1.37-1l.39-.33c.45-.28,1.36-1.05,1.78-1.4.13-.21.08-.32.04-.56.02-.04.11-.14.15-.18,1.07.05,3.82-3.53,4.39-4.44Z"/>
  <path class="st6" d="M69.37,33.82l.07-.04v-.14c-.25-.27-.42-.13-.73-.33l.02-.11c.33-.32,1.02-.49,1.47-.54v-.13c-.27-.32-.55-.3-.9-.16l-.02-.05c.16-.1.22-.11.32-.27l-.12-.23.05-.04c.11.11.15.16.29.22.39-.42.1-1.26.53-1.69.3-.3.87-.57,1.16-.12.07.88-.55,1.13-1.23,1.3-.21.05-.3.56-.19.77.28.08.36-.12.71-.1l.07.1c.01.28-.11.47-.22.73.25.29.46.69.66,1.03.44-.05,2.5-2.66,2.91-3.13.34-.39.31-.49.81-.53l-.23.34c-.44.1-.9.76-1.2,1.12-.9,1.07-1.82,2.12-2.91,3-.32.26-1.73.65-2.21.83-.33.13-.96.42-1.27.53.15-.32,1.8-.75,1.95-.91l-.04-.34c-.13-.1-.17-.07-.37-.08l-.02-.04c.27-.17.54-.18.72-.34v-.16s-.08-.49-.08-.49Z"/>
  <path class="st1" d="M71,30.04c.23.01.26.03.4.19.11.49-.38.94-.77,1.14-.26,0-.3,0-.46-.2-.12-.53.43-.92.83-1.13Z"/>
  <path class="st6" d="M65.84,31.39c.45-.28,1.36-1.05,1.78-1.4l.02.09-.06.06c-.42.42-1.81,1.34-1.9,1.64.11.33.16.38.37.66.1.26.04.21.22.37.19.04.18.04.38.02.34-.03.61.04.71.4-.05.21-.08.23-.21.39-.15.06-.07.05-.23,0-.13-.16-.22-.26-.37-.41-.42.04-.1.73-.46.73-.13.06-.13.05-.22.16.31.34.54.07.8-.12.1-.07.61.11.78.1.5-.03,1.01-.13,1.51-.21-.23-.28-.92-.36-.6-1.16l.07-.02.03.18c.12,0,.08,0,.18,0h.06c-.1.24-.12.34-.03.57.17.19.23.2.47.28l-.04.02.04.05.25.02.07.49c-.06-.16-.08-.26-.23-.35-1.1.34-1.28.39-2.4.18-.41.27-.76.29-1.26.24-.29-.17-.3-.34-.31-.65v-.06s0,.02,0,.02c-.22-.34-.41-.63-.64-.96.37.04-.06-.03.44-.15l.06-.15-.04-.08c-.38-.03-.56.28-.96.36.45-.35.89-.62,1.37-1l.39-.33Z"/>
  <path class="st6" d="M67.8,29.24c1.07.05,3.82-3.53,4.39-4.44-.29,1.08-2.52,3.22-3.3,4.06-.26.28-.37.81-.66.93-.36.15-.19-.09-.59.28l-.02-.09c.13-.21.08-.32.04-.56.02-.04.11-.14.15-.18Z"/>
  <path class="st6" d="M66.05,32.44c.26-.1.16-.1.42-.06.15.16.17.19.18.45-.19.02-.18.02-.38-.02-.19-.16-.13-.11-.22-.37Z"/>
  <path class="st26" d="M74.36,26.35c1.16-.07.48,1.05-.1,1.44-.18.05-.33.02-.48-.09-.23-.44.28-1.06.58-1.35Z"/>
  <path class="st26" d="M76.17,24.12c.2.03.25.03.41.15.27.42-.06.78-.41,1.01-.84-.06-.57-.84,0-1.16Z"/>
  <path class="st26" d="M75.86,19.53c.22.01.28,0,.44.14.19.41.05.54-.29.75-.21,0-.29.03-.46-.09-.18-.36.04-.57.3-.8Z"/>
  <path class="st26" d="M73.78,29.12c.24.02.27,0,.46.14.18.36-.09.56-.35.78-.29,0-.16.03-.41-.1-.19-.38.03-.57.29-.82Z"/>
  <path class="st26" d="M71.75,27.35l.16.03c.33.37-.04.71-.36.91-.51-.41-.18-.62.19-.95Z"/>
  <path class="st6" d="M68.3,31.46c.78.22.37.99-.06,1.15.1-.14.13-.2.21-.36l-.04-.1c-.15-.09-.25-.13-.34-.28.03-.21.09-.25.23-.41Z"/>
  <path class="st4" d="M74.59,38.63c1.11-.53,2.09-.64,3.19-1.34,2.75-1.75,5.24-4.18,8.36-5.24.82-.28,1.14-.28,1.7.33-.02.24-.11,1.29-.19,1.45-.78,1.56-2.76,3.4-4.09,4.5-1.89,1.57-3.57,2.97-5.74,4.11-.99.52-2.52.96-3.35,1.41l.22.12c-.44.1-1.23.3-1.64.36-.7-.05-1.48.02-2.18.03-.77.02-1.47,0-2.24-.04-2.09.15-4.46.16-6.49.92-.48.18-1.28.8-2.11,1.14l-.06-.06c-.27.11-.26.08-.42-.12.59-.32,1.5-.79,1.99-1.21,1.9-1.19,3.15-2.56,4.77-3.66.25-.07,2.03-1.01,2.38-1.19.87-.51,2.75-.92,3.75-1.2.67-.19,1.25-.39,1.91-.63l.25.31Z"/>
  <path class="st9" d="M68.68,40.14c.87-.51,2.75-.92,3.75-1.2.67-.19,1.25-.39,1.91-.63l.25.31c-.77.39-1.99.72-2.87.94-1.5.37-2.9.87-4.33,1.43-.29.11-.92.7-1.21.91-.99.74-2.31,2-3.32,2.62,1.63-.28,3.78-.73,5.38-.62l.44.05c-.14.09-.59-.16-.86.1v.21c.24,0,.66-.06.8.05-2.09.15-4.46.16-6.49.92-.48.18-1.28.8-2.11,1.14l-.06-.06c-.27.11-.26.08-.42-.12.59-.32,1.5-.79,1.99-1.21,1.9-1.19,3.15-2.56,4.77-3.66.25-.07,2.03-1.01,2.38-1.19Z"/>
  <path class="st9" d="M74.47,43.85l.22.12c-.44.1-1.23.3-1.64.36-.7-.05-1.48.02-2.18.03-.77.02-1.47,0-2.24-.04-.14-.12-.56-.05-.8-.05v-.21c.27-.26.71,0,.85-.1l-.44-.05c.36-.08.79-.03,1.14-.05,1.4-.09,3.85.38,5.09,0Z"/>
  <path class="st26" d="M78.26,39.52c.94,0,.81.86.02,1.21-1-.02-.78-.81-.02-1.21Z"/>
  <path class="st26" d="M82.33,35.7c.17.02.19.05.35.14.28.44-.4.81-.71,1.01h-.17c-.63-.36-.03-1.01.53-1.15Z"/>
  <path class="st25" d="M80.56,37.81c.23-.02.22-.03.42.08.24.43-.2.8-.53,1.01-.23,0-.3.02-.5-.1-.3-.46.26-.79.6-1Z"/>
  <path class="st26" d="M75.17,40.83c.76.19.63.73.02,1.05-.31-.04-.4-.06-.49-.35.07-.36.18-.46.47-.69Z"/>
  <path class="st14" d="M67.21,36.19c.31-.11.94-.4,1.27-.53.48-.19,1.89-.58,2.21-.83,1.09-.89,2-1.94,2.91-3,.3-.36.76-1.02,1.2-1.12-.1.18-.38.56-.37.72-.26.2-.72.92-1.02,1.26-.64.73-1.25,1.35-1.94,2.03.64-.16,1.2-.21,1.86-.06l.04.04c.22.22.4.3.41.67.02.64-.63,1.32-1.07,1.75-.59.57-1.3,1.11-1.96,1.58-.3.22-1.31.82-1.48,1-.26.16-.37.26-.67.31l.09.14c-.36.18-2.13,1.13-2.38,1.19-1.63,1.1-2.87,2.47-4.77,3.66l.04-.11c.13-.11.13-.07.18-.21-.18-.24-.29-.33-.32-.63l-.08-.05c-.09.14-.03.1-.16.16l-.04-.06c.57-.74-.14-1.43-.74-1.83-.32.13-.61.32-.94.34-.3-.16-.45-.6-.72-.81-.37-.29-1.61,1.42-2.05,1.46-.56.31-1.12,1.29-1.58,1.79-.91,1.01-2,1.88-3.11,2.66-.06,0-.12,0-.19,0-.05-.14.19-.26.36-.38,1.32-.97,2.04-1.68,3.04-2.96,2.6-3.3,4.52-7.08,5.64-11.13.37-.35.15-1.58.52-2.11.16.18-.26,1.61-.28,1.97l.05.05c-.07.47-.29,1.35-.41,1.79,1.52-1.52,2.6-2.18,4.33-3.4l.44-.32c.1.19.12.22.36.2l-.39.33c-.48.38-.92.65-1.37,1,.41-.09.58-.4.96-.36l.04.08-.06.15c-.49.12-.07.19-.44.15.24.33.43.61.64.96v-.02s0,.06,0,.06c.01.31.02.48.31.65.49.05.85.03,1.26-.24,1.13.21,1.31.16,2.4-.18.15.08.16.19.23.35v.16c-.17.16-.44.17-.71.34l.02.04c.2.01.23-.02.37.08l.04.34c-.14.16-1.79.59-1.95.91Z"/>
  <path class="st23" d="M64.08,32.72c.41-.09.58-.4.96-.36l.04.08-.06.15c-.49.12-.07.19-.44.15.24.33.43.61.64.96v-.02s0,.06,0,.06c.01.31.02.48.31.65.49.05.85.03,1.26-.24,1.13.21,1.31.16,2.4-.18.15.08.16.19.23.35v.16c-.17.16-.44.17-.71.34l.02.04c.2.01.23-.02.37.08l.04.34c-.14.16-1.79.59-1.95.91-1.44.7-3.53,1.69-4.91,2.48-1.77,1.03-3.45,2.2-5.03,3.5.57-1,1.19-1.91,1.73-2.97.56-.98.99-2.71,1.62-3.59.6-.84,2.6-2.45,3.46-2.88Z"/>
  <path class="st7" d="M66.11,34.65c.22-.02.36-.03.52.12.09.24-.07.57-.16.82-.22-.22-.54-.49-.57-.8.1-.14.03-.08.21-.14Z"/>
  <path class="st10" d="M67.21,36.19c.31-.11.94-.4,1.27-.53.48-.19,1.89-.58,2.21-.83,1.09-.89,2-1.94,2.91-3,.3-.36.76-1.02,1.2-1.12-.1.18-.38.56-.37.72-.26.2-.72.92-1.02,1.26-.64.73-1.25,1.35-1.94,2.03.64-.16,1.2-.21,1.86-.06l.04.04c.22.22.4.3.41.67.02.64-.63,1.32-1.07,1.75-.59.57-1.3,1.11-1.96,1.58-.3.22-1.31.82-1.48,1-.26.16-.37.26-.67.31-.17.01-.12.02-.27-.01.11-.11.14-.14.22-.28l.06-.09c1.59-1.32,3.99-2.05,4.79-4.21.03-.09,0-.19-.04-.27-.22-.22-.51-.24-.81-.24-2.17.06-4.01,1.06-5.93,1.96-3.45,1.62-6.83,3.51-9.67,6.08-.09.08-.19.2-.25.31-.56.31-1.12,1.29-1.58,1.79-.91,1.01-2,1.88-3.11,2.66-.06,0-.12,0-.19,0-.05-.14.19-.26.36-.38,1.32-.97,2.04-1.68,3.04-2.96,2.6-3.3,4.52-7.08,5.64-11.13.37-.35.15-1.58.52-2.11.16.18-.26,1.61-.28,1.97l.05.05c-.07.47-.29,1.35-.41,1.79,1.52-1.52,2.6-2.18,4.33-3.4l.44-.32c.1.19.12.22.36.2l-.39.33c-.48.38-.92.65-1.37,1-.86.43-2.87,2.05-3.46,2.88-.62.88-1.05,2.61-1.62,3.59-.53,1.06-1.16,1.96-1.73,2.97,1.58-1.3,3.26-2.47,5.03-3.5,1.38-.78,3.46-1.78,4.91-2.48Z"/>
  <path class="st7" d="M68.59,39.62l-.06.09c-.08.13-.12.17-.22.28.15.04.11.03.27.01l.09.14c-.36.18-2.13,1.13-2.38,1.19.29-.29,1.89-1.42,2.29-1.71Z"/>
  <path class="st1" d="M64.08,38.84c.94.07.72.86.04,1.26-.29.03-.35.03-.57-.17-.2-.49.1-.88.53-1.1Z"/>
  <path class="st26" d="M66.41,38.67c.98,0,.91.66.15,1.12-.29.03-.39.07-.63-.1-.25-.47.1-.79.48-1.02Z"/>
  <path class="st26" d="M69.21,37.63c.2.04.25.04.41.15.16.38-.19.54-.48.71-.1,0-.21,0-.31,0-.15-.12-.1-.04-.14-.23.1-.33.24-.44.52-.62Z"/>
  <path class="st5" d="M64.98,40.55c.24-.02.28-.04.49.05.27.32.02.47-.24.68-.64.05-.78-.36-.26-.74Z"/>
  <path class="st1" d="M67.33,36.96c.31-.03.62-.05.67.33-.1.21-.1.2-.3.34-.3,0-.55-.01-.6-.35.07-.2.08-.19.23-.32Z"/>
  <path class="st26" d="M62.31,41.9c.25.14.36.16.36.47-.09.18-.22.22-.39.33-.06,0-.18-.04-.24-.06-.14-.15-.11-.06-.11-.28.12-.26.16-.27.39-.46Z"/>
  <path class="st5" d="M58.46,20.76c.54-1.55,1.23-2.91,1.73-4.45.27-.89.44-1.8.63-2.71.48-2.33,1.09-4.49,2.29-6.57.57-.98,1.35-2.2,2.74-1.76.14.05.37.19.41.34.54,2.07-.4,4.28-.76,6.33-.14.8-.26,1.59-.37,2.4-.19,1.33-.14,2.65-.19,3.99-.23,2.76-.7,5.98-1.67,8.57-.02.03-.03.07-.05.1-.77,1.19-.85,1.82-1.43,3.07.28-1.49.65-3.17.41-4.7-.09-.42-.46-.95-.84-1.16-.8-.44-1.61.62-1.99,1.2-.49.75-.83,1.55-1.24,2.34.23-1.33.24-2.2.28-3.52.02-.78-.18-2.84.03-3.46Z"/>
  <path class="st25" d="M63.37,15.04c1.06-.03.81.87.42,1.49-.24-.01-.44-.03-.59-.23-.13-.17-.2-.38-.18-.59.03-.36.09-.46.35-.67Z"/>
  <path class="st26" d="M61.95,14.75c.79.31.6,1.02.04,1.47-.57-.09-.69-.6-.51-1.08.09-.25.25-.29.48-.39Z"/>
  <path class="st26" d="M63.51,18.67c.72.11.67.78.1,1.13-.73-.09-.64-.77-.1-1.13Z"/>
  <path class="st26" d="M61.08,19.64c.62.22.63.77.31,1.26-.19-.02-.19-.01-.37-.09-.33-.37-.32-.85.06-1.17Z"/>
  <path class="st6" d="M63.05,21.12l.1.03c.19.22.18.48-.01.68-.25-.11-.3-.12-.33-.39.09-.2.09-.19.25-.32Z"/>
  <path class="st5" d="M82.38,51.63c1.29.06,2.4.17,3.72.15,2.15-.04,4.07-.73,6.16-.89.91-.07,2.86.09,2.68,1.38-.24,1.78-2.8,2.43-4.2,2.98-1.67.65-3.34,1.17-5.1,1.4-1.31.17-2.66.61-3.97.68-1.82.1-3.68-.44-5.49-.61-.45-.62.13-.95-.06-1.5-.23-.68-.67-.47-.66-1.34-.14,0-.15.02-.26-.06-.04-.37.97-.43,1.33-1.22l-.09-.04c.1-.68,0-.81-.36-1.38.76.2,1.44.26,2.21.38.84.14,1.2.31,2.06.22.06-.05.11-.1.17-.15l-.03-.07c-.17-.03-.34-.06-.51-.1.45-.04.82.03,1.29-.04l.04.07.43.07c.23,0,.4,0,.63.06Z"/>
  <path class="st6" d="M76.07,51.18c.76.2,1.44.26,2.21.38.84.14,1.2.31,2.06.22.06-.05.11-.1.17-.15l-.03-.07c-.17-.03-.34-.06-.51-.1.45-.04.82.03,1.29-.04l.04.07.43.07c.23,0,.4,0,.63.06-.28.09-.35.09-.65.12.23.09.5.12.67.24-.28.3-1.83-.16-2.19-.07-.66.18-1.14,1.33-1.82.52-.27-.09-1.44.13-1.87.15l-.09-.04c.1-.68,0-.81-.36-1.38Z"/>
  <path class="st7" d="M79.97,51.46c.45-.04.82.03,1.29-.04l.04.07.43.07-.42.03-.1.11-.09-.05.15-.06-.15.03c.11.2.3.07.26.24-.24.04-.83-.02-1.05-.1.06-.05.11-.1.17-.15l-.03-.07c-.17-.03-.34-.06-.51-.1Z"/>
  <path class="st1" d="M78.92,53.37c.77-.07,1.01.02,1.56.56-.11.3-.14.36-.32.63-.61-.16-1.67-.24-1.56-1.03.12-.14.1-.1.32-.16Z"/>
  <path class="st25" d="M83.08,54.16c1.02-.09,1.05.82.38,1.4-.25-.04-.59-.16-.79-.32-.26-.49.22-.68.41-1.08Z"/>
  <path class="st26" d="M86.73,53.51h.05c.43,0,.91.06.89.6-.1.21-.18.24-.38.38-.88.22-1.39-.47-.55-.98Z"/>
  <path class="st26" d="M83.13,53.46c.36-.01.76-.01.78.46-.16.19-.07.12-.32.19-.28,0-.77.04-.81-.32.1-.19.18-.21.35-.33Z"/>
  <path class="st26" d="M81.02,55.93c.34-.03.51-.09.77.14.04.2.03.2-.04.39-.32.03-.52.1-.77-.12-.05-.2-.02-.22.04-.41Z"/>
  <path class="st26" d="M84.33,55.28l.29.02c.19.14.13.05.22.25-.07.23,0,.14-.16.29-.26-.03-.41-.02-.57-.24.05-.2.04-.15.21-.32Z"/>
  <path class="st5" d="M74.69,43.98c.63.01,1.27-.12,1.89-.19,2.93-.34,5.71-1.57,8.26-3.01,1.45-.82,2.74-1.9,4.18-2.73.74-.43,4.95-3.17,4.99-1.03-.08,1.23-1.07,2.26-1.94,3.04-1.88,1.68-3.94,3.12-6.16,4.31-.55.3-1.15.71-1.7.96-.61-.08-3.19,1.16-3.96,1.41-1.11.36-2.33.91-3.44,1.3-.67.23-1.35.42-2.04.58l-.04-.06c-.51-.04-.78-.46-1.06-.82-.03-.17-.05-.35-.07-.52-.23-.2-.33-.27-.49-.54-.34-.57-.31-.52-.3-1.11-.12-.12-.22-.08-.44-.1-.16-.08-.57-.86-.7-1.07.46-.03.88,0,1.36-.07.41-.06,1.2-.26,1.64-.36Z"/>
  <path class="st26" d="M89.73,38.88c.39,0,.72.25.49.66-.23.42-.52.54-.95.68-.29.01-.36.04-.54-.21-.04-.56.57-.93,1.01-1.13Z"/>
  <path class="st26" d="M86.49,41.8c.24.02.38.04.53.26.07.44-.25.62-.59.8-.86-.02-.59-.74.06-1.06Z"/>
  <path class="st1" d="M84.4,41.75c.67.39.47.94-.23,1.09-.28-.12-.39-.14-.44-.45.13-.35.35-.44.67-.64Z"/>
  <path class="st1" d="M81.44,43.45c.38-.02.67.19.68.57-.13.18-.1.12-.34.22-.28.08-.38.11-.64-.05-.21-.37.02-.53.3-.74Z"/>
  <path class="st13" d="M80.86,46.96c2.53-.3,4.98-.46,7.38-1.45,1.61-.67,3.06-1.68,4.82-1.95,1.83-.39,3.09.67,1.64,2.34-.48.53-1.1.88-1.68,1.26-2.92,1.93-6.5,2.79-9.81,3.79-.39.12-1.58.47-1.94.47-.47.07-.85,0-1.29.04-1.61,0-4.67-.8-6.28-1.24-.31-.09-1-.44-1.3-.61,2.95-.37,5.75-1.52,8.47-2.65Z"/>
  <path class="st11" d="M68.62,44.33c.77.04,1.47.06,2.24.04.71-.02,1.49-.08,2.18-.03-.48.06-.9.03-1.36.07.13.22.54,1,.7,1.07.22.02.32-.02.44.1-.01.59-.04.55.3,1.11.16.27.26.34.49.54.02.17.04.35.07.52.28.36.55.78,1.06.82l.04.06c-.15.09-.9.24-1.12.31-1.48.44-2.39.24-3.81-.22-1.17-.38-2.75-.97-3.97-1.09-.09-.04-.95-.22-1.09-.26-1.65-.43-3.4-.46-5.06-.78v-.05s.27-.15.27-.15c.83-.34,1.64-.96,2.11-1.14,2.03-.77,4.4-.78,6.49-.92Z"/>
  <path class="st6" d="M71.31,46.94c.29-.05.27-.1.46.01l.07-.04-.09-.03h.14c-.3.19-.36.16-.48.5l-.03.1-.15.34-.05-.03c.19-.81-.11-.38-.05-.79l.19-.06Z"/>
  <path class="st9" d="M51.57,40.7c.92-1.69,2.12-3.4,3.03-5.13.71-1.35,1.28-2.76,1.94-4.14.27-.8,1.17-2.15,1.26-2.97.33-3.04.19-6.2.14-9.24-.01-.76-.58-4.27-.49-4.57h.08c.07.13.1.24.21.36l.07-.06c.29,1,.39,5.38.64,5.82-.22.62-.01,2.68-.03,3.46-.03,1.33-.05,2.2-.28,3.52.4-.79.75-1.59,1.24-2.34.38-.58,1.19-1.64,1.99-1.2.38.21.74.74.84,1.16.24,1.54-.13,3.22-.41,4.7.58-1.25.66-1.88,1.43-3.07l.09.07c-.1.46-.76,2.48-1,2.78-.96,1.23-.75,1.96-1.2,3.26l-.05-.05c.02-.35.45-1.78.28-1.97-.37.53-.15,1.77-.52,2.11v-.08c.13-.4.17-1.03.26-1.47.27-1.45.55-2.93.75-4.4.16-1.2.14-2.04-.88-2.79-.7.46-.93.71-1.36,1.44-.89,1.52-1.43,3.2-2.25,4.75-.32.66-.71,1.61-.98,2.3-.12.39-.45,1.08-.63,1.5-.21.37-.39.83-.6,1.2-.49.84-.99,1.69-1.48,2.54-1.03,1.77-2.53,3.75-3.2,5.66-.31.88-.58,2.46-.77,3.39-.04.18-.09.37-.24.46-.17-.26.5-3.37.63-3.85.17-.6.69-1.54.82-2.1.66-3.06,1.33-6.1,1.47-9.24.08-1.69.03-3.31,0-4.99.07-.59-.09-.64.18-1.33h.08c-.13,1.62.13,3.74.15,5.41.04,3.23-.57,5.97-1.2,9.09Z"/>
  <path class="st8" d="M76.43,52.56l.09.04c-.37.79-1.37.85-1.33,1.22.12.08.12.06.26.06,0,.87.43.65.66,1.34.19.55-.39.88.06,1.5-.33-.01-.66-.07-.98-.14l-.14.17c-1.27-.27-2.51-.63-3.73-1.08-.74-.2-2.56-1.24-3.19-1.71.06-.14.06-.19.17-.31l.12.04c.38.01.93.06,1.28.06.95.22,4.42-.06,5.51-.34.72-.18.86-.26,1.22-.85Z"/>
  <path class="st9" d="M71.32,55.66l-.02-.1-.46-.23c.13-.02.25-.04.38-.07.18.08.24.11.45.1.79.3,3.03.93,3.53,1.21l-.14.17c-1.27-.27-2.51-.63-3.73-1.08Z"/>
  <path class="st9" d="M68.13,53.95c.06-.14.06-.19.17-.31l.12.04c.83.66,2.32,1.17,3.24,1.68-.21.01-.26-.02-.45-.1-.12.03-.25.05-.38.07l.46.23.02.1c-.74-.2-2.56-1.24-3.19-1.71Z"/>
  <path class="st9" d="M74.79,48.62c.69-.16,1.37-.35,2.04-.58,1.12-.39,2.34-.94,3.44-1.3.77-.25,3.35-1.49,3.96-1.41-.44.25-.92.49-1.35.72-.32.17-1.95.75-2.01.91-2.73,1.13-5.53,2.27-8.47,2.65.3.17.99.52,1.3.61,1.62.44,4.68,1.25,6.28,1.24.17.03.34.07.51.1l.03.07c-.06.06-.1.1-.17.15-.87.09-1.22-.08-2.06-.22-.77-.12-1.45-.18-2.21-.38.35.57.46.71.36,1.38-.36.59-.5.67-1.22.85-1.09.27-4.56.56-5.51.34l-.13-.09.03-.02c.21.01.23,0,.43-.04h.05c.4-.06.88-.03,1.29-.06,1.25-.14,2.8-.1,3.97-.56,1.97-.77.01-1.8-.91-2.17-2.26-.93-4.44-1.76-6.8-2.38-.49-.13-.99-.24-1.46-.39l-.06-.02.02-.04c-.16-.13-1.32-.38-1.59-.44v-.07c.18-.03.84.2,1.26.22l.09-.05c1.22.12,2.8.72,3.97,1.09,1.42.46,2.33.66,3.81.22.21-.06.96-.21,1.12-.31Z"/>
  <path class="st9" d="M39.21,62.93c.16.05.27.1.44.12-.22.74-.62,2.13-.94,2.8-.7,1.47-3.93,6.5.45,3.4,1.57-1.1,2.38-2.4,3.53-3.83.14.15.14.15.31.26-1.3,1.8-3.69,4.89-6.09,4.91-.12-.15-.35-.45-.49-.55.07-.19.06-.2.07-.4.44-1.43.79-1.81,1.55-3.08.17-.29.48-1.21.59-1.53.25-.71.4-1.39.57-2.12Z"/>
  <path class="st4" d="M60.96,24.48c1.02.74,1.04,1.59.88,2.79-.2,1.47-.47,2.95-.75,4.4-.09.44-.13,1.07-.27,1.47-.39-.82,2.26-8.09.1-8.46-1.12.37-3.25,5.05-3.16,6.18.25.23.86-.05.89.66.01.26-.14.76-.29.97-.43.28-.8.17-.99-.32-.58.58-.54,1.05-.96,1.66-.12.17-.31.29-.41.5-.08.05-.17.09-.25.14.18-.42.51-1.1.63-1.5.26-.69.65-1.64.98-2.3.82-1.55,1.36-3.23,2.25-4.75.43-.73.66-.98,1.36-1.44Z"/>
  <path class="st6" d="M56.38,32.97c.26-.69.65-1.64.98-2.3.16.54-.25,2.12-.87,2.28-.04,0-.07.02-.11.03Z"/>
  <path class="st26" d="M57.87,31.09c1.08-.11.74.99.25,1.45-1.08.08-.61-.96-.25-1.45Z"/>
  <path class="st3" d="M47.84,28.27c.11-.13.12-.19.17-.35l.06-.02c.16.84-.21,1.72-.21,2.44-.04.46.11,1.41.69,1.43-.18.23-.11,1.03-.11,1.35-.28.32-.59.69-.88.99.02.51.17,1.14.15,1.51h-.04c-.16-.33.04-1.43-.62-1.13,0,.77,0,1.44.18,2.19.04.17.07.27.04.44-.71-2.36.02-6.46.56-8.86Z"/>
  <path class="st2" d="M59.54,46.2c.17.2.15.22.42.12l.06.06-.26.15v.05c1.64.32,3.4.34,5.05.78.14.04,1.01.21,1.09.26l-.09.05c-.42-.02-1.07-.25-1.24-.22v.07c.26.07,1.42.32,1.58.44l-.02.04c-3.13-.74-6.97-1.29-10.18-.92-.52.06-2.44.7-2.66.57.41-.79,3.03-1.01,3.86-1.07.97-.07,1.45.08,2.39-.38Z"/>
  <path class="st23" d="M48.9,65.32c-.98-2.64-1.23-5.44-1.06-8.23.02-.32.05-1.24.12-1.51l.09.1c-.12.39-.08.88-.12,1.3-.17,1.74,0,3.54.23,5.27.05.37.53,2.38.69,2.61.27-.69-.23-1.77-.28-2.73l-.07-.05c0,.17,0,.57-.04.71l-.06-.07c.01-.88-.1-1.8-.16-2.68-.04-.6.17-.39-.23-.99l.2-.04c-.11-.24-.19-.2-.24-.37.11-.14.04-.08.26-.14l.08.02-.18.17c.08.13.03.07.21.14.17-.22.24-.91.45-.91.47,0,1.08.25,1.22-.4.01-.07.12-.2.16-.26-.24-.67-1.19-.04-1.44-.18l-.02-.1h.06c.43-.1.87-.39,1.19-.21.42.23.26.71.71.57.29-.09.38-.3.64-.31l.27.16-.24-.03c-.1.16.05,1.03.06,1.38l-.07.05c-1.29.84-1.82-.62-2.5-.51-.13.17-.08.33-.17.52-.14.29-.32.34-.34.67v.1c-.07,1.63.52,3.33.73,4.94.04.28,0,.74-.15.99Z"/>
  <path class="st23" d="M42.53,49.1c.01-.32,0-.41-.1-.71l.15-.33-.04-.02c-.16.15-.18.23-.34.24-.15-.25-.07-.31-.14-.55l-.17.02-.05.09.12.22-.02.04-.2-.03-.07-.1c.16-.52.51-.38-.03-.72l.03-.07c.24-.04.34.18.47.36.17-.49-.22-.95.05-1.27h.15s.02.05.02.05l-.16.18c.28.57-.03.94.09,1.49l.14-.18c.16,0,.16,0,.31.07.01.13.01.1-.04.22-.2.47.19,1.24.61,1.45.3-.02-.01-.12.35-.08.17.17.43.55.54.76l-.09.24.05.05c.61-.09,1.38-.43,1.97-.63.57-.19,1.61-.89,2.15-.86l.09.07c-.05.4-.89.84-1.21,1.02-.49.29-1.03.96-1.54,1.17.76-.9,2.02-1.35,2.87-2.36-.65.24-1.56.72-2.25,1-2.3.96-4.79,1.36-7.27,1.19.63-.22,2.65.05,3.35-.2-.08-.43-.13-.89-.26-1.29.08-.28.2-.34.45-.52Z"/>
  <path class="st7" d="M47.67,27.21c.6-3.17.29-7,.05-10.23-.08-1.12-.92-4.28-.12-5.12.15-.16.36-.24.58-.24,1.33.04,1.99,2.28,2.36,3.29.37,1.02.75,2.06.96,3.13.5,2.61,1.09,5.48,1.04,8.15-.26.69-.11.74-.18,1.33l-.07-.1c-.05-.6-.15-1.15-.14-1.75.01-.88.16-1.88.09-2.75-.17-2.36-1.56-9.39-3.31-10.91-.25-.22-.55-.3-.88-.26-.17.02-.4.1-.49.26-.12.22-.27,1.17-.26,1.43.03.69.24,1.47.34,2.16.21,1.4.37,2.89.39,4.3,0,.48-.08,3.68.02,3.97.11.29.21.42.19.75-.02.48-.05.97-.03,1.45.02.47.08.94.07,1.41-.02.69-.12,1.37-.24,2.05-.04.25-.05.55-.12.79h-.05c0-.71.37-1.6.21-2.44l-.06.02c-.05.16-.05.21-.17.35.01-.28.18-1.46.13-1.63l-.08.04c-.12.18-.1.41-.11.63l-.11-.1Z"/>
  <path class="st2" d="M58.07,51.13c3.8,1.27,7.99,2.3,12.02,2.45h-.05c-.21.06-.23.07-.43.06l-.03.02.13.09c-.35,0-.9-.05-1.28-.06l-.12-.04c-.11.11-.11.16-.17.31-.03-.04-.17-.22-.21-.23-.62-.14-1.29-.16-1.93-.27-.22-.13-.11-.1-.35-.11-.19.1-.18.09-.28.28-.46-.51-1.38-.56-2.05-.7-1.81-.38-3.36-.66-5.04-1.49-.1-.08-.16-.12-.28-.18l.07-.13Z"/>
  <path class="st23" d="M41.56,38.48c.42.45.91,2.39,1.39,2.47.19-.34.06-.63-.2-.87l.14-.15c.27.34.2.76.26,1.19.23.17.34.25.55.45.17-.19.1-.17.29-.19.11.05.29.17.4.08.5-.38.27-1,1.16-1,.2,0,.42-.06.61.06.05.22-.06.4-.13.67l-.2.02c0,.22.01.49-.12.65-.31.15-.82-.15-1.11-.28.08.27.76.32.65.59-.36-.2-.7-.55-1.08-.51-.12.17-.04.28.04.47-.32-.13-.4-.33-.16-.58l-.03-.06h-.1c-.11.16-.07.25-.09.49l-.17-.04-.1.06c-.03.33,2.11,3.11,2.44,3.5l.07.08-.08.05c-1.43-1.64-3.84-5.16-4.42-7.19Z"/>
  <path class="st3" d="M45.33,40.56c.22.04.44.03.62.13.05.17-.06.37-.13.55,0,.22.01.49-.12.65-.31.15-.82-.15-1.11-.28.03-.56.32-.75.74-1.05Z"/>
  <path class="st3" d="M45.12,61.5c-.06-1.04.66-2.11.83-3.09.1-.62.98-2.78.87-3.22l.05-.09-.14-.25c-.16-.08-.16-.11-.3-.08-.01.16,0,.17-.08.29l-.16.03-.04-.05c.09-.17.13-.24.18-.42l-.06-.09c-.33-.07-.48.08-.77.07-.26-.01-.06-.43-.25-.65-.28.08-.46-.1-.59-.33l.05-.06c.27.13.42.23.75.29.05,0,.08.44.11.57.23-.03.44-.04.68-.06-.01-.19-.21-.26-.26-.44-.09-.36-.54-.27-.62-.64l.08-.13c-.1-.15-.28-.16-.43-.07l-.04.3h-.05c-.1-.38.12-.67.44-.55.1.11.16.27.17.42-.03.13.33.14.39.23.28.47.53.82.88,1.23l.09.1c.37-.58,1.6-5.31,2.43-5.18.13.24-.03.91-.22,1.1.13-.47.17-.77.18-1.26-.84,1.29-1.81,3.72-2.22,5.24-.52,1.89-.89,5.14-1.94,6.79Z"/>
  <path class="st3" d="M47.86,30.34h.05c0,.27.14.99.33,1.11.48.3.5.23.92.68.28,0,.86-.59,1.12-.76.14,0,.26-.01.36-.02l.05-.06c-.08-.1-.17-.2-.26-.29l.03-.1c.21.15.23.21.39.42,0,.29-.34.57-.36.76-.06.55-.12,1.01-.24,1.55-.45-.81-.82-1.39-1.71-1.85-.58-.02-.73-.97-.69-1.43Z"/>
  <path class="st2" d="M46.05,45.63c.4.49.85,1.04,1.33,1.46.21.18.83.32,1.03.57.12.15.1.27.09.47l-.11.06c-.45-.13-1.25-.44-1.64-.69-.45-.3-2.44-.82-2.66-1.08.69.15,1.28.37,1.94.62.17-.01.31.06.48.13l.06-.03c-.09-.16-.13-.16-.11-.3l.13-.02c.09.07.21.15.31.21l.11-.04c-.11-.2-.8-.91-1.05-1.29l.08-.05Z"/>
  <path class="st2" d="M51.34,52.09c-.34-.23-1.29-2-1-2.4l.15-.02c.38.19.95,1.16.94,1.57-.22-.19-.2-.54-.45-.7-.41.63.17,1.01.35,1.55Z"/>
  <path class="st23" d="M55.74,52.16c.3.05.74.05.96.13.32.33.14.8-.09,1.16-.13.2-.21.42-.39.54l-.03-.05c.15-.3.61-1.13.46-1.44-.05,0-.1.01-.14.04-.77.6-.66.79-.8,1.56,0,.23.05.69.06.97.2.2.58.45.62.66-.11.21-.21.33-.45.36l-.04-.1c.19-.11.14-.03.23-.2-.1-.26-.29-.31-.36-.41-.47-.7.01-2.27-.02-3.24Z"/>
  <path class="st25" d="M58.82,33.51c.93.08.92,1.06.24,1.58-1.07.02-.73-1.07-.24-1.58Z"/>
  <path class="st26" d="M69.05,51.53c.73-.05,1.81.21,1.06,1.11-.75.18-1.66-.41-1.06-1.11Z"/>
  <path class="st26" d="M41.02,62.3c1.06.09.75.93.22,1.47-1.05.28-.72-1-.22-1.47Z"/>
  <path class="st26" d="M31.3,47.18c.45-.01,1.12.12,1.01.71-.14.21-.2.21-.44.32h-.08c-.48.03-.73.04-1.02-.41-.05-.4.19-.49.52-.62Z"/>
  <path class="st26" d="M50.12,16.79c.55.17.72.74.53,1.24-.07.18-.2.18-.37.24-.5-.15-.68-.75-.51-1.22.06-.17.2-.19.35-.26Z"/>
  <path class="st25" d="M33.82,47.23c.4,0,1.07.05,1.06.58-.11.17-.1.16-.26.29-.41.02-1.14.09-1.16-.48.1-.23.14-.24.35-.39Z"/>
  <path class="st1" d="M50.16,20.28c.8-.05,1.25.32.65,1.03-.09.05-.2.09-.3.13-.55-.08-.41-.74-.35-1.16Z"/>
  <path class="st25" d="M64.84,60.1c.32.05.64.28.74.6.1.33,0,.44-.16.73-.52-.08-.72-.48-.79-.97-.02-.17.1-.25.21-.36Z"/>
  <path class="st26" d="M67.29,49c.75.24.76.66.08,1.05-.72-.16-.84-.75-.08-1.05Z"/>
  <path class="st5" d="M42.22,63.66c.25-.09.53.03.63.28.1.25-.02.53-.27.64-.16.07-.35.04-.5-.07-.14-.11-.21-.29-.18-.46.03-.18.15-.33.32-.39Z"/>
  <path class="st26" d="M40.18,65.83c.73-.03.67.62.21,1-.29-.01-.35,0-.57-.19-.16-.41.07-.57.36-.8Z"/>
  <path class="st25" d="M49.06,22.4c.71.13.66.56.26,1.02-.7-.18-1.04-.85-.26-1.02Z"/>
  <path class="st26" d="M66.32,62.52c.73.03.91.47.8,1.14-.73-.11-.95-.43-.8-1.14Z"/>
  <path class="st26" d="M65.77,51c.39.06.63.15.64.59-.09.21-.13.21-.33.32-.36-.07-.76-.19-.68-.64.13-.18.15-.18.37-.28Z"/>
  <path class="st26" d="M62.58,59.31c.33.09.65.24.75.59-.02.22-.08.26-.22.43-.65-.06-.95-.45-.52-1.02Z"/>
  <path class="st26" d="M49,18.78c.68,0,.79.65.27,1.08-.6-.16-.53-.65-.27-1.08Z"/>
  <path class="st26" d="M37,47.05c.51-.04,1,.24.67.79-.75.25-.84-.18-.67-.79Z"/>
  <path class="st26" d="M41.82,59.76c.66.18.5.65.12,1.01-.69-.15-.66-.74-.12-1.01Z"/>
  <path class="st26" d="M59.76,31c.16.04.15.05.3.12.23.36.05.54-.22.79-.29-.01-.32.01-.5-.18-.09-.39.12-.54.42-.73Z"/>
  <path class="st23" d="M51.89,54.53c.1.18.09.96.02,1.14-.27.1-.55.2-.73.42-.09.11-.12.15-.25.17-.2-.11-.13-.06-.26-.28-.09-.21-.13-.21-.1-.4.21.38.68.22,1.04.13.24-.06.15-.85.28-1.18Z"/>
  <path class="st26" d="M56.22,35.33c.18-.12.43-.06.55.12.12.18.08.42-.1.55-.12.09-.28.1-.41.04-.13-.06-.22-.19-.23-.34,0-.15.06-.29.19-.37Z"/>
  <path class="st26" d="M51.07,23.85c.56.27.54.51.29,1.03-.66-.12-.6-.58-.29-1.03Z"/>
  <path class="st26" d="M64.13,61.75c.5.05.81.48.52.95-.49-.19-.85-.41-.52-.95Z"/>
  <path class="st26" d="M43.23,61.53c.12-.07.27-.06.39.01.12.07.19.21.18.35,0,.14-.09.27-.21.33-.19.1-.42.02-.52-.17-.1-.19-.03-.42.16-.52Z"/>
  <path class="st26" d="M59.44,28.96c.1.03.2.07.3.1.15.18.11.08.14.3-.07.24-.12.26-.31.43-.17,0-.16,0-.31-.07-.23-.34-.09-.52.18-.77Z"/>
  <path class="st26" d="M71.84,51.27c.32,0,.5,0,.68.29.01.22.01.2-.09.39-.28,0-.46,0-.64-.25-.05-.21-.03-.24.04-.44Z"/>
  <path class="st25" d="M68.88,50.08c.31-.01.58-.04.78.23-.03.22,0,.14-.18.33-.3-.02-.67-.07-.74-.4l.14-.17Z"/>
  <path class="st26" d="M35.66,49.32c.17.02.2.05.36.13.12.17.1.08.08.28-.1.17-.18.19-.35.28-.27-.06-.38-.09-.41-.37.08-.18.16-.21.33-.32Z"/>
  <path class="st23" d="M53.69,53.09c.2.05.42.18.57.33h.03s.05.08.05.08l-.12.13c-.2.09-.32.16-.53.11-.19-.14-.13-.05-.2-.26.03-.23.05-.23.2-.39Z"/>
  <path class="st1" d="M61.01,55.89c.28.08.35.08.4.37-.07.22-.12.24-.29.38-.23-.11-.36-.16-.45-.42.11-.23.09-.17.34-.34Z"/>
  <path class="st26" d="M32.61,49.12c.27-.02.52-.03.73.17.05.2.06.1-.03.31-.29.08-.43.14-.68-.04-.09-.19-.07-.23-.02-.43Z"/>
  <path class="st5" d="M62.99,48.76c.24.02.43.02.57.25,0,.23,0,.15-.14.37-.16.03-.18.02-.34,0-.18-.12-.12-.04-.21-.23,0-.23.01-.22.12-.4Z"/>
  <path class="st26" d="M42.44,57.78c.15-.09.35-.04.44.11.09.15.06.34-.09.45-.1.07-.23.08-.34.03-.11-.05-.18-.16-.18-.28,0-.12.06-.23.16-.3Z"/>
  <path class="st12" d="M17.33,43.63c-.25-.07-1.87-.98-2.24-1.2-3.41-2.07-7.47-4.12-9.8-7.46-.52-.75-.88-2.02.25-2.34,3.2-.87,6.29,2.4,8.93,3.73,1.12.56,3.07,1.65,4.16,2.04.09.28.28.42.53.56,1.8.93,3.66,1.95,5.52,2.74,1.36.45,2.62.85,4.03,1.15,1.35.3,2.87.47,4.21.79.46.2,1.77,1.09,2.05,1.12-.04-.12-1.64-1.01-1.89-1.17v-.09c.3-.24,1.6,1.17,2.17,1.11,2.23,1.04,2.01,1.11,4.46.88,2.01-.19,4.79.43,6.66,1.25-.65-.61-1.27-1.37-1.85-2.06l.04-.07c.06.05,2.08,2.29,2.05,2.22l-.13.02c-.02.15.02.14.11.3l-.06.03c-.16-.06-.31-.14-.48-.13-.66-.25-1.25-.47-1.94-.62-4.01-1.06-6.56-.15-10.54.05-2.23.11-4.9-.58-7.14-.92-.16.22-.2.27-.45.37-.73,1.01,1.49,2.12,1.95,2.62,0,.01.01.09.01.12,1.67.83,4.59,1.4,6.45,1.85.58.14,4.13.64,4.61.6,2.48.17,4.97-.23,7.27-1.19.69-.29,1.6-.76,2.25-1-.84,1.01-2.11,1.46-2.87,2.36-.85.64-2.6,2.83-3.09,3.73-1.32,2.4-2.12,5.4-2.91,8.05-.17-.02-.28-.07-.44-.12-.17.73-.32,1.41-.57,2.12-.11.32-.42,1.24-.59,1.53-.76,1.27-1.11,1.65-1.55,3.08-.48.77-1.84,2.39-2.54,2.98-.13.18-.75.75-.94.92-2.21,2.02-4.65,3.77-7.28,5.21-.6.33-1.32.75-1.99.91-.58.2-1.84-.22-1.83-.98.03-2.19,2.7-3.7,4.15-5.02.63-.57,1.01-.88,1.51-1.5.16-.29.22-.62.31-.94.02-.29.29-1.36.38-1.65.02-.28.82-2.65.96-3.13.06-.26.11-.42.12-.69-.63,1.01-.99,2.03-1.74,3.04-.75,1.02-1.49,1.84-2.37,2.79-2.32,2.51-4.74,5.14-7.87,6.67-.5.21-1.22.4-1.72.18-.79-.33-.45-1.62-.02-2.15.97-1.19,2.29-2.19,3.39-3.28.63-.62,1.29-1.25,1.91-1.88,1.85-2.02,3.03-4.2,4.27-6.6l-.04-.22c.05-.3.12-.41.26-.68.26-.5.51-1.36.78-1.76.04-.14.34-.65.42-.79,1.11-1.95,2.52-3.71,4.06-5.33.17-.08.11-.02.21-.18-.05-.21,0-.12-.2-.25-1.27.54-2.52,1.15-3.73,1.83-.29.16-.71.51-.96.63-.77.49-3.45,2.1-3.65,2.83-2.1,1.78-4.57,4.97-6.39,7.06-1.32,1.63-2.7,3.38-4.53,4.49-1.05.63-2.34.83-3-.43.1-1.13.48-1.44,1.07-2.31.77-1.15,1.8-2.29,2.49-3.48,1.27-2.21,2.53-4.41,4.01-6.5.57-.81,2.64-2.99,3.43-3.52l.13-.4c-.18.07-.37.12-.56.15-3.6.58-11.27-1.71-14.31-3.85-.97-.68-1.15-1.1-1.33-2.2.72-1.24,2.29-.86,3.47-.57,1.63.4,3.27.99,4.97,1.14,3.25.3,6.55-.3,9.81-.4l.25-.1c-2.69-1.13-4.48-2.03-7.49-2.04-1.04,0-2.45-.36-3.47-.49-.84-.17-2.38-.52-2.89-1.29-.77-1.15.02-1.96,1.11-2.22,2.65-.63,5.52-.32,8.17.11l.05-.14Z"/>
  <path class="st4" d="M41.47,51.79c.67-.3,1.21-.35,1.91-.51.77-.17,1.55-.37,2.27-.69-2.23,2.13-3.81,3.91-4.74,6.92-.23.76-.41,1.55-1.01,2.1l.18.18c.03.33-.73,2.68-.88,3.14-.17.73-.32,1.41-.57,2.12-.11.32-.42,1.24-.59,1.53-.76,1.27-1.11,1.65-1.55,3.08-.48.77-1.84,2.39-2.54,2.98-.13.18-.75.75-.94.92-2.21,2.02-4.65,3.77-7.28,5.21-.6.33-1.32.75-1.99.91-.58.2-1.84-.22-1.83-.98.03-2.19,2.7-3.7,4.15-5.02.63-.57,1.01-.88,1.51-1.5.16-.29.22-.62.31-.94.02-.29.29-1.36.38-1.65.02-.28.82-2.65.96-3.13.06-.26.11-.42.12-.69.05-.22.62-1.27.74-1.62,1.39-3.85,4.21-8.23,7.66-10.57l.07.03c.3-.08,2.24-1.47,2.78-1.69.44-.18.37-.3.87-.15Z"/>
  <path class="st3" d="M33,69.57c.37.18.64.24.74.64.05.19.11.19.06.36-.63-.01-.62-.54-.72.75l.04.03c.08-.23.13-.52.32-.65.51-.05.96.63,1.2,1.02-.2.4-.57.45-.68.92-.13.18-.75.75-.94.92-2.21,2.02-4.65,3.77-7.28,5.21-.6.33-1.32.75-1.99.91-.58.2-1.84-.22-1.83-.98.03-2.19,2.7-3.7,4.15-5.02.63-.57,1.01-.88,1.51-1.5.16-.29.22-.62.31-.94.42.74-.5,3.76,1.66,2.93.13-.05.35-.21.47-.29l.03.14c.12.07.13.08.26.13,1.05-.91,1.27-1.66,1.84-2.93l.08-.08c.09-.1.11-.11.23-.17l.1.03c.04.23.07.42.09.65.08-.07.07-.83.04-.99-.12.04-.06,0-.18.08.05-.22.38-.92.5-1.17Z"/>
  <path class="st7" d="M27.58,72.19c.16-.29.22-.62.31-.94.42.74-.5,3.76,1.66,2.93.13-.05.35-.21.47-.29l.03.14c.12.07.13.08.26.13-.54.5-1.24.81-1.95.42-.91-.5-.55-1.68-.78-2.38Z"/>
  <path class="st0" d="M36.65,63.68c.18.18.29.33.52.46.36.21,1.81.02,1.46.74l.02.17c-.11.32-.42,1.24-.59,1.53-.76,1.27-1.11,1.65-1.55,3.08-.48.77-1.84,2.39-2.54,2.98.11-.47.47-.52.68-.92-.23-.4-.69-1.07-1.2-1.02-.19.13-.24.42-.32.65l-.04-.03c.11-1.28.09-.76.72-.75.05-.16-.01-.17-.06-.36-.1-.41-.37-.46-.74-.64-.11.25-.45.95-.5,1.17.12-.07.06-.04.18-.08.04.16.04.92-.04.99-.03-.23-.05-.43-.09-.65l-.1-.03c-.12.06-.14.07-.23.17l-.08.08c.1-.36.53-1.17.7-1.55,1.09-2.43,2.08-3.98,3.8-5.99Z"/>
  <path class="st9" d="M39.91,59.61l.18.18c.03.33-.73,2.68-.88,3.14-.17.73-.32,1.41-.57,2.12l-.02-.17c.35-.72-1.09-.53-1.46-.74-.23-.13-.34-.27-.52-.46-1.72,2.01-2.72,3.56-3.8,5.99-.17.38-.6,1.2-.7,1.55-.56,1.27-.79,2.01-1.84,2.93-.13-.04-.15-.06-.26-.13l-.03-.14c1.3-1.26,2.54-4.79,3.47-6.52,1.32-2.47,2.6-3.79,4.51-5.78.72-.75,1.04-1.25,1.91-1.98Z"/>
  <path class="st23" d="M40.09,59.79c.03.33-.73,2.68-.88,3.14-.17.73-.32,1.41-.57,2.12l-.02-.17c.35-.72-1.09-.53-1.46-.74-.23-.13-.34-.27-.52-.46,1.35-1.47,2.19-2.31,3.44-3.89Z"/>
  <path class="st9" d="M37.76,53.6l.07.03c.3-.08,2.24-1.47,2.78-1.69.44-.18.37-.3.87-.15-.31.19-.64.39-.96.57-5.83,3.2-8.66,8.2-10.95,14.28-.03.03-.14.16-.18.2-.05-.3.01-.2-.16-.37.06-.26.11-.42.12-.69.05-.22.62-1.27.74-1.62,1.39-3.85,4.21-8.23,7.66-10.57Z"/>
  <path class="st6" d="M29.23,66.47c.17.17.1.08.16.37.05-.04.15-.17.18-.2,0,.21-1.15,2.77-1.3,2.96.02-.28.82-2.65.96-3.13Z"/>
  <path class="st26" d="M32.64,62.07c1.16,0,.64,1.34-.15,1.68-1.23-.33-.6-1.23.15-1.68Z"/>
  <path class="st5" d="M36.5,60.14c.25-.03.39-.05.6.11.22.47-.26.87-.61,1.12-.25.02-.23.02-.46-.07-.35-.43.16-.88.47-1.16Z"/>
  <path class="st26" d="M30.27,68.39c.85.02.49.75.15,1.14-.27-.06-.46-.1-.56-.39,0-.37.15-.47.41-.75Z"/>
  <path class="st26" d="M33.17,65.19c.21.03.26.13.31.31-.05.35-.26.53-.51.76l-.23-.09c-.34-.43.09-.75.43-.98Z"/>
  <path class="st26" d="M34.07,59.54c.24.15.22.12.31.34-.01.33-.19.46-.42.69-.64-.32-.27-.74.11-1.03Z"/>
  <path class="st26" d="M31.15,66.11c.11.01.18.03.29.06.27.3.1.49-.15.73l-.21-.05c-.31-.28-.15-.46.07-.74Z"/>
  <path class="st4" d="M30.73,49.95c1.59.54,3.22.75,4.85,1.12.21.05,1.81.32,1.86.35l-.04.07c-1.03.6-2.36,1.08-3.42,1.72-1.19.72-2.01,1.6-3.3,2.14-1.27.54-2.52,1.15-3.73,1.83-.29.16-.71.51-.96.63-.77.49-3.45,2.1-3.65,2.83-2.1,1.78-4.57,4.97-6.39,7.06-1.32,1.63-2.7,3.38-4.53,4.49-1.05.63-2.34.83-3-.43.1-1.13.48-1.44,1.07-2.31.77-1.15,1.8-2.29,2.49-3.48,1.27-2.21,2.53-4.41,4.01-6.5.57-.81,2.64-2.99,3.43-3.52.82-.27,2.85-2.08,3.77-2.69,2.56-1.7,4.66-2.35,7.55-3.29Z"/>
  <path class="st0" d="M24.64,54.11c1.13,1.09.19,1.12.3,1.57.1-.12.15-.2.24-.32l.11-.02.12.09c-.15.12-.38.27-.36.47.19.08.22.02.48-.07l.09.06c-.09.06-.15.11-.24.18v.12c.16.18.25.13.43.22.31.15.16-.81.67-1.01.07-.03.26-.15.32-.19l.06.04c-.09.32-.66.46-.68.83.25.19.64.06.87-.11.21-.43-.21-.68.23-1.18l.06.03c-.15.33-.28.78.08,1.02v.07c-.42.5-.8.19-1.2.46-.37.25-.14.87.36.93.75-.49,1.8-1.02,2.59-1.41,1.14-.51,2.2-.9,3.2-1.68,1.14-.89,2.43-1.6,3.74-2.21.36-.17.9-.45,1.28-.52-1.03.6-2.36,1.08-3.42,1.72-1.19.72-2.01,1.6-3.3,2.14-1.27.54-2.52,1.15-3.73,1.83-.29.16-.71.51-.96.63v-.1c.09-.08.16-.12.25-.21l-.1-.2c-.46-.89-.52-.46-.84-.81.03-.13.04-.18.05-.31-.27-.34-.51-.01-.83-.17,0-.01.42-.88.53-1.26-.14-.14-.29-.3-.43-.43-.4-.38.4-.66.37-1.1-.02-.24-.14-.35-.3-.53l-.05-.05v-.06c.13.07,1,.39,1.17.42.07,0,.19-.19.47-.16l.04.14c-.08.19-.1.21-.1.42.23.53.77.42.75,1l-.07.06-.07-.06c0-.15.01-.21-.05-.34-.72-.15-.56-.63-1.09-.71-.46.09-.72.45-1.06.8Z"/>
  <path class="st25" d="M18.68,59.5c.61.1.68.26.93.8-.22.73-.43,1.17-1.22,1.38-.8-.09-1.29-.43-.87-1.36.2-.44.68-.71,1.15-.83Z"/>
  <path class="st26" d="M13.32,65.43c1.04.44.21,1.59-.64,1.86-.07-.07-.2-.18-.25-.26-.42-.58.49-1.34.89-1.59Z"/>
  <path class="st25" d="M15.63,61.51c1.2-.1.64.89.06,1.34-.25.03-.33.02-.54-.1-.29-.46.17-.92.48-1.25Z"/>
  <path class="st25" d="M15.59,64.57c.33-.03.46.03.57.33-.05.45-.22.61-.49.96-.99-.09-.5-.85-.08-1.29Z"/>
  <path class="st26" d="M19.46,57.28c.32.03.39,0,.56.29.03.44-.32.6-.66.74-.3.02-.49-.07-.52-.38.15-.39.26-.43.63-.65Z"/>
  <path class="st26" d="M22.81,57.17c.28-.03.36-.05.55.19.06.43-.14.5-.5.61l-.32.03c-.19-.08-.13-.01-.2-.17.04-.32.23-.45.47-.66Z"/>
  <path class="st26" d="M12.95,68.61c.28.1.32.24.3.5-.1.17-.13.17-.3.26l-.21-.06c-.16-.17-.11-.07-.13-.3.09-.24.13-.24.34-.41Z"/>
  <path class="st4" d="M26.55,62.17c2.1-4.21,6.04-8.3,10.42-10.06.21-.08,1.23-.57,1.41-.58.88-.04,1.79.04,2.68.04-1,.58-2.42,1.32-3.31,2.03-3.45,2.34-6.27,6.72-7.66,10.57-.12.34-.69,1.39-.74,1.62-.63,1.01-.99,2.03-1.74,3.04-.75,1.02-1.49,1.84-2.37,2.79-2.32,2.51-4.74,5.14-7.87,6.67-.5.21-1.22.4-1.72.18-.79-.33-.45-1.62-.02-2.15.97-1.19,2.29-2.19,3.39-3.28.63-.62,1.29-1.25,1.91-1.88,1.85-2.02,3.03-4.2,4.27-6.6l-.04-.22c.05-.3.12-.41.26-.68.26-.5.51-1.36.78-1.76v.05c-.06.28-.18.54-.19.77l.03-.07.03.05c.24-.2.28-.37.48-.53Z"/>
  <path class="st7" d="M25.42,63.65c.26-.5.51-1.36.78-1.76v.05c-.06.28-.18.54-.19.77l.03-.07.03.05c.24-.2.28-.37.48-.53-.18.51-.63,1.22-.74,1.55-.15.11-.09.1-.26.14l-.14-.21Z"/>
  <path class="st7" d="M25.42,63.65l.14.21c.17-.04.11-.02.26-.14-.21.3-.39.54-.61.83l-.04-.22c.05-.3.12-.41.26-.68Z"/>
  <path class="st4" d="M17.33,43.63c-.25-.07-1.87-.98-2.24-1.2-3.41-2.07-7.47-4.12-9.8-7.46-.52-.75-.88-2.02.25-2.34,3.2-.87,6.29,2.4,8.93,3.73,1.12.56,3.07,1.65,4.16,2.04.09.28.28.42.53.56,1.8.93,3.66,1.95,5.52,2.74.68.59,2.58.73,3.32,1.12-.24.2-1.14.57-1.44.66-.06.32.15.34.06.52-.19-.05-.19-.05-.36-.15-.2.01-.48.25-.67.35-.53.25-1.62,1.08-1.62,1.71.17.43.38.29.22.84v.04c.15.2,1.1.52,1.38.53l.18.18c-.41.09-2.11-.74-2.27-.61-2.27-.7-4.11-1.99-6.14-3.07l-.06-.03.05-.14Z"/>
  <path class="st9" d="M17.33,43.63c1.23.46,2.16,1.12,3.33,1.61,1.15.49,2.37,1.07,3.53,1.49v.04c.15.2,1.1.52,1.38.53l.18.18c-.41.09-2.11-.74-2.27-.61-2.27-.7-4.11-1.99-6.14-3.07l-.06-.03.05-.14Z"/>
  <path class="st26" d="M12.75,38.95c.74.05,1.84.64.98,1.41-.48.01-1.17-.49-1.27-1,.07-.26.07-.2.29-.42Z"/>
  <path class="st25" d="M16.15,39.48c.73-.03,1.4.57.7,1.22-.43-.13-.99-.33-1.01-.84.07-.2.14-.24.3-.38Z"/>
  <path class="st26" d="M9.57,36.25c.52.01,1.03.21.96.82-.04,0-.08,0-.12.01-.64.04-.87-.2-.84-.83Z"/>
  <path class="st26" d="M12.38,36.78c.13-.03.26,0,.36.1s.13.23.09.36-.14.22-.27.25c-.19.05-.39-.07-.44-.27-.05-.19.07-.39.26-.44Z"/>
  <path class="st6" d="M22.03,44.23c.22,0,.22,0,.41.12.12.23.09.14.07.42-.28,0-.38.02-.57-.16-.03-.19,0-.2.1-.38Z"/>
  <path class="st4" d="M3.35,49.63c.72-1.24,2.29-.86,3.47-.57,1.63.4,3.27.99,4.97,1.14,3.25.3,6.55-.3,9.81-.4,2.59.05,4.62-.09,7.25.21-2.79,1-4.61,1.85-7.01,3.65-.68.51-1.69,1.46-2.28,1.87-.18.07-.37.12-.56.15-3.6.58-11.27-1.71-14.31-3.85-.97-.68-1.15-1.1-1.33-2.2Z"/>
  <path class="st6" d="M19.54,51.03c.13-.05.16-.04.3-.06l-.03.07.07-.04c-.49.23-.97.17-1.16.31.1.22.49.31.49.44,0,.4-.4,1.14-.29,1.48.16-.02.14-.03.28-.1.06.12.04.39.01.33.14.28.27.82.29,1.09.02.34-.4.65-.53.56-.4-.29-.79-.17-1.36-.26-.37.01-.88.12-1.06-.26.07-.49.89-.88,1.09-1.38.26-.65-.17-.58-.22-.73.27,0,.37.39.91.31.09-.14.04-.17.02-.4.13-.18.56-.36.79-.59-.2-.13-.52-.34-.62-.55l.04-.11c.22-.12.7-.12.97-.13Z"/>
  <path class="st26" d="M16.27,51.36c.34.03.57.04.76.35.07.47-.29.56-.64.7-.87.11-1.22-.82-.12-1.05Z"/>
  <path class="st25" d="M13.73,52.78c.48-.04.62-.06.95.31.11.4-.11.5-.46.6-.39.01-1.08-.04-.97-.59.14-.19.26-.22.48-.32Z"/>
  <path class="st26" d="M9.15,50.8c.65,0,1.18.15.92.93-.6.07-1.3-.21-.92-.93Z"/>
  <path class="st26" d="M13.14,51.35c.45-.03.69.1.55.6-.15.18-.15.16-.38.24-.38-.04-.49,0-.73-.34-.07-.42.22-.43.56-.5Z"/>
  <path class="st26" d="M11.54,53.15c.22,0,.33.06.48.21.1.38-.09.49-.39.68-.23-.02-.3-.04-.46-.18-.16-.41.03-.54.37-.7Z"/>
  <path class="st3" d="M21.84,49.7c-2.69-1.13-4.48-2.03-7.49-2.04-1.04,0-2.45-.36-3.47-.49-.84-.17-2.38-.52-2.89-1.29-.77-1.15.02-1.96,1.11-2.22,2.65-.63,5.52-.32,8.17.11l.06.03c2.03,1.08,3.87,2.37,6.14,3.07.81.41,1.67.55,2.48.88.35.14.93.8,1.31,1.04.87.55,1.85.65,2.71,1-.67-.07-1.76-.33-2.31-.38-1-.1-5.04-.08-5.78.31l-.05-.02Z"/>
  <path class="st3" d="M24.69,41.67c1.36.45,2.62.85,4.03,1.15,1.35.3,2.87.47,4.21.79.46.2,1.77,1.09,2.05,1.12.81.53,1.3.66,2.23.96-1.28.15-2.78.38-4.05.33-1.93-.08-3.98-.4-5.88-.77-1.57-.31-3.09.57-1.66,2.02-.32-.11-1.16-.44-1.41-.5v-.04c.18-.55-.04-.41-.21-.84,0-.63,1.09-1.46,1.62-1.71.2-.1.48-.34.67-.35.17.09.17.09.36.15.09-.18-.12-.19-.06-.52.3-.09,1.2-.45,1.44-.66-.74-.39-2.64-.54-3.32-1.12Z"/>
  <path class="st23" d="M27.94,48.65c-.73-.32-2.59-1.5-2.56-2.47.02-.52.56-.69,1.05-.64-.16.22-.2.27-.45.37-.73,1.01,1.49,2.12,1.95,2.62,0,.01.01.09.01.12Z"/>
  <path class="st16" d="M35.22,23.36c-1.79-4.87-2.23-8.56-1.33-13.72.2-1.13.37-2.31.75-3.4.25-.73.82-1.97,1.56-2.3.19-.09.41-.1.6,0,1.67.78,1.73,9.22,2.04,11.11.33,1.97.92,3.88,1.63,5.74.13.31.38.94.6,1.18-.17-2.53.07-4.65.56-7.14.25-1.25.85-6.65,2.53-6.74.23-.01.45.07.62.23,1.29,1.22.13,7.02.31,9.01.3,3.33,1.31,6.16,2.27,9.34.1.35.09.61.15.91.11-.15.09-.17.15-.35l.11.1c.01-.22,0-.45.11-.63l.08-.04c.05.17-.12,1.34-.13,1.63-.54,2.41-1.27,6.5-.56,8.86.34,1.84.46,3.6.93,5.43.28,1.08,1.13,2.47,1.28,3.39-1.09-1.46-1.67-3.18-2-4.96-.49.18-.71.64-1.12.62-.17-.13-.18-.18-.27-.36l-.07-.04c.07-.27.18-.45.13-.67-.2-.12-.41-.06-.61-.06-.89,0-.66.62-1.16,1-.12.09-.29-.03-.4-.08-.19.01-.12,0-.29.19-.21-.2-.31-.28-.55-.45-.06-.43,0-.85-.26-1.19l-.14.15c.26.23.39.53.2.87-.48-.09-.97-2.03-1.39-2.47.58,2.03,2.99,5.55,4.42,7.19.25.38.94,1.09,1.05,1.29l-.11.04c-.1-.05-.21-.14-.31-.21.03.07-1.99-2.17-2.05-2.22l-.04.07c-.72-.73-1.77-1.47-2.5-2.07-1.31-1.08-9.5-4.91-10.06-6.11l.26.04c-.75-1.02-2.65-4.18-3.2-5.35-.16-.17-.32-.34-.48-.5-.98-.65-1.96-1.35-2.95-2-1.78-1.18-1.47-2.65.71-2.82.14-.02.27-.05.41-.07.09.11,2.06.27,2.45.44.46.05,1.16.34,1.63.5-.37-.86-.64-1.56-.94-2.44-.25-.74-.56-2.64-.92-3.12.11-.25-.04-.73-.11-1.02-.45-1.82-1.81-6.5-.84-8.1.1-.17.23-.32.43-.36.23-.04.43.07.59.22,1.42,1.2,3.03,7.06,3.95,9.06.67,1.44,2,3.52,2.98,4.77l.1-.02.03-.08c-.09-.24-.12-.33-.13-.58-.27-.53-.48-1.1-.69-1.66Z"/>
  <path class="st4" d="M35.22,23.36c-1.79-4.87-2.23-8.56-1.33-13.72.2-1.13.37-2.31.75-3.4.25-.73.82-1.97,1.56-2.3.19-.09.41-.1.6,0,1.67.78,1.73,9.22,2.04,11.11.33,1.97.92,3.88,1.63,5.74-.02.06-.05.13-.07.19.13.71.72,2.12,1,2.72.14.29.29.58.45.86-1.16-1.16-2.43-1.89-2.51.5-.02.54-.04,1.22,0,1.74-.14.74.09,3.21.21,3.98-.7-1.12-1.86-2.94-2.44-4.03-.37-.7-.73-1.41-1.08-2.12-.16-.33-.44-.96-.63-1.25l-.2-.03Z"/>
  <path class="st26" d="M35.54,11.64c.12.03.28.05.34.18.18.4.09.98-.02,1.39-.09.33-.13.31-.38.46-.7-.32-.44-1.59.07-2.03Z"/>
  <path class="st26" d="M35.37,16.23l.24.05c.56.43.53,1.01.14,1.54-.59-.26-1.04-1.18-.37-1.59Z"/>
  <path class="st26" d="M37.77,17.61c.76.08.98.87.46,1.39-.64-.19-1.06-.88-.46-1.39Z"/>
  <path class="st26" d="M37.13,13.2c.63.24.5.7.01,1.02-.51-.23-.49-.74-.01-1.02Z"/>
  <path class="st17" d="M41.07,21.96c-.17-2.53.07-4.65.56-7.14.25-1.25.85-6.65,2.53-6.74.23-.01.45.07.62.23,1.29,1.22.13,7.02.31,9.01.3,3.33,1.31,6.16,2.27,9.34.1.35.09.61.15.91,0,0,.06.11.06.12-.21,1.36-.6,3.26-.79,4.57-.15,1.06-.17,1.52-.17,2.3-.6-1.81-1.14-3.54-1.99-5.28-.7-1.44-1.81-3.1-2.31-4.63-.15-.46-1.23-2.59-1.24-2.68Z"/>
  <path class="st26" d="M43.09,17.72c.83.03.9.68.26,1.1-.59-.18-.98-.69-.26-1.1Z"/>
  <path class="st3" d="M42.85,23.96l-.03.14c-.29-.12-.61-.58-.7-.88.05-.2,0-.12.15-.24.12.07.1.1.16.27.19-.07.23-.1.43-.05.23.23.15.48,0,.75Z"/>
  <path class="st0" d="M42.42,23.26c.19-.07.23-.1.43-.05.23.23.15.48,0,.75-.16-.31-.21-.42-.43-.7Z"/>
  <path class="st1" d="M43.71,14.38c.26.21.17.64-.03.88-.39-.25-.25-.61.03-.88Z"/>
  <path class="st3" d="M42.91,19.06l.17.08c.14.23.11.11.11.36-.12.22-.04.13-.28.25l-.23-.24c0-.22.06-.21.23-.44Z"/>
  <path class="st18" d="M39.53,25.81c0-.43-.07-1.48.24-1.78.55-.53,1.51.5,1.82.94,1.02,1.48,2.33,3.57,2.95,5.24-.03.42-.02.33.08.68.23.85.54,1.63.84,2.46.13.35.21.91.37,1.24.11.54.56,2.06.91,2.44.28.84.55,2.96.75,3.96-.49.18-.71.64-1.12.62-.17-.13-.18-.18-.27-.36l-.07-.04c.07-.27.18-.45.13-.67-.2-.12-.41-.06-.61-.06-.89,0-.66.62-1.16,1-.12.09-.29-.03-.4-.08-.19.01-.12,0-.29.19-.21-.2-.31-.28-.55-.45-.06-.43,0-.85-.26-1.19l-.14.15c.26.23.39.53.2.87-.48-.09-.97-2.03-1.39-2.47-.98-1.84-1.69-7.98-1.93-10.32-.05-.44-.07-1.82-.1-2.35Z"/>
  <path class="st3" d="M42.89,39.94c-.1-.21-.12-.25-.18-.47l.03-.03c.09.14.16.28.24.42.22-.04.41-.08.62-.14,0,.09-.1.25-.11.24.3.54.74.85-.34,1.17-.06-.43,0-.85-.26-1.19Z"/>
  <path class="st25" d="M42.38,27.64c.77.03.86,1.06.6,1.62-.04.09-.13.08-.24.1-.3,0-.52.03-.76-.13-.21-.48,0-1.24.39-1.6Z"/>
  <path class="st26" d="M40.79,29.14c.95.01,1.13,1.04.47,1.64-.93.12-1.08-1.18-.47-1.64Z"/>
  <path class="st25" d="M42.9,30.43c.53.08.84.94.25,1.22-.04,0-.09,0-.13-.01-.57-.07-.69-.84-.12-1.21Z"/>
  <path class="st26" d="M43.86,32.67c.72,0,.96.61.39,1.09-.62.04-.88-.62-.39-1.09Z"/>
  <path class="st1" d="M41.01,26.59c.41.15.56.29.44.73-.27,0-.39.02-.54-.22-.02-.23.02-.28.1-.51Z"/>
  <path class="st26" d="M41.81,33.44l.18.04c.15.14.1.06.16.26-.07.3-.02.19-.23.42-.22-.05-.26-.16-.33-.34.06-.27.01-.17.22-.38Z"/>
  <path class="st4" d="M28.79,20.13c-.45-1.82-1.81-6.5-.84-8.1.1-.17.23-.32.43-.36.23-.04.43.07.59.22,1.42,1.2,3.03,7.06,3.95,9.06.67,1.44,2,3.52,2.98,4.77.18.28.28.43.51.69.97,1.6,2.12,3.58,3.13,5.17.22.35.44,2.64.52,3.22-1.5-2.48-3.71-4.73-6.11-6.35-.28-.19-1-.66-1.29-.75-.15.02-.71-.23-.83-.32-.45-.33-2.45-.92-2.72-1.15.46.05,1.16.34,1.63.5-.37-.86-.64-1.56-.94-2.44-.25-.74-.56-2.64-.92-3.12.11-.25-.04-.73-.11-1.02Z"/>
  <path class="st7" d="M28.79,20.13c.43.56,1.35,3.83,1.68,4.72.28.75.48,1.3.87,2.12.39.2,1,.48,1.34.72-.15.02-.71-.23-.83-.32-.45-.33-2.45-.92-2.72-1.15.46.05,1.16.34,1.63.5-.37-.86-.64-1.56-.94-2.44-.25-.74-.56-2.64-.92-3.12.11-.25-.04-.73-.11-1.02Z"/>
  <path class="st4" d="M31.67,20.95h.13c.26.24.12.44-.07.68-.09-.04-.18-.09-.27-.13l-.03-.11c.13-.17.14-.19.21-.39l.02-.05Z"/>
  <path class="st9" d="M40.47,20.79c.13.31.38.94.6,1.18,0,.09,1.08,2.22,1.24,2.68.5,1.52,1.61,3.19,2.31,4.63.85,1.75,1.39,3.47,1.99,5.28,0-.78.02-1.25.17-2.3.19-1.31.59-3.21.79-4.57,0-.01-.05-.11-.06-.12.11-.15.09-.17.15-.35l.11.1c.01-.22,0-.45.11-.63l.08-.04c.05.17-.12,1.34-.13,1.63-.54,2.41-1.27,6.5-.56,8.86.34,1.84.46,3.6.93,5.43.28,1.08,1.13,2.47,1.28,3.39-1.09-1.46-1.67-3.18-2-4.96-.2-1-.47-3.11-.75-3.96-.35-.38-.8-1.9-.91-2.44-.16-.33-.24-.89-.37-1.24-.3-.83-.61-1.6-.84-2.46-.1-.35-.11-.26-.08-.68-.61-1.67-1.93-3.76-2.95-5.24-.31-.45-1.27-1.47-1.82-.94-.31.3-.24,1.35-.24,1.78.02.53.05,1.91.1,2.35.24,2.34.95,8.47,1.93,10.32.58,2.03,2.99,5.55,4.42,7.19.25.38.94,1.09,1.05,1.29l-.11.04c-.1-.05-.21-.14-.31-.21.03.07-1.99-2.17-2.05-2.22l-.04.07c-.72-.73-1.77-1.47-2.5-2.07-1.31-1.08-9.5-4.91-10.06-6.11l.26.04c-.75-1.02-2.65-4.18-3.2-5.35-.16-.17-.32-.34-.48-.5,0-.13-.02-.08.06-.16.2.06.8.49,1.04.63,2.53,1.49,4.22,3.78,6.02,6.03.82,1.02,1.8,2.16,2.9,2.87.99.63,2.02,1.22,2.98,1.88.71.49,1.35,1.08,2.1,1.54-.26-.53-.66-1-.94-1.49-.48-.86-.95-1.74-1.35-2.65-.5-1.11-.68-2.44-1.1-3.55-.26-.67-1.1-1.65-1.55-2.24-2.32-3.01-5.27-5.37-8.85-6.69-1.15-.42-2.18-.58-3.37-.77-.11-.02-.13-.13-.17-.22.14-.02.27-.05.41-.07.09.11,2.06.27,2.45.44.27.24,2.27.82,2.72,1.15.12.09.68.34.83.32.29.09,1,.56,1.29.75,2.4,1.62,4.61,3.87,6.11,6.35-.08-.58-.3-2.87-.52-3.22-1.01-1.59-2.16-3.58-3.13-5.17-.23-.26-.32-.4-.51-.69l.1-.02.03-.08c-.09-.24-.12-.33-.13-.58-.27-.53-.48-1.1-.69-1.66l.2.03c.19.29.47.92.63,1.25.35.71.72,1.41,1.08,2.12.58,1.09,1.74,2.91,2.44,4.03-.13-.77-.35-3.24-.21-3.98-.05-.52-.02-1.2,0-1.74.08-2.39,1.35-1.67,2.51-.5-.16-.28-.31-.57-.45-.86-.28-.6-.88-2.01-1-2.72.02-.06.05-.13.07-.19Z"/>
  <path class="st0" d="M29,31.16c.34.08,1.27.86,1.61,1.11,1.42,1.04,2.52,2.43,3.54,3.84.86,1.15,1.85,2.26,2.86,3.29-1.61-.92-3.29-1.84-4.81-2.89-.75-1.02-2.65-4.18-3.2-5.35Z"/>
  <path class="st0" d="M44.54,30.21c.36.78,1.09,2.55,1.29,3.37-.15-.11-.11-.04-.16-.21,0,.42.12.78.15,1.22-.16-.33-.24-.89-.37-1.24-.3-.83-.61-1.6-.84-2.46-.1-.35-.11-.26-.08-.68Z"/>
  <path class="st3" d="M45.82,34.6c-.03-.44-.15-.8-.15-1.22.05.17,0,.1.16.21.26.55.82,2.84.91,3.46-.35-.38-.8-1.9-.91-2.44Z"/>
  <path class="st24" d="M35.91,25.02c.21.39.57.94.51,1.37-.23-.26-.32-.4-.51-.69l.1-.02.03-.08c-.09-.24-.12-.33-.13-.58Z"/>
  <path class="st26" d="M29.22,27.66c.81-.05,1.42.64.6,1.18-.1-.02-.2-.04-.31-.07-.57-.16-1.24-.82-.3-1.11Z"/>
  <path class="st5" d="M32,31.12c.68-.03,1.15.33.8,1.04-.74.03-1.21-.24-.8-1.04Z"/>
  <path class="st26" d="M31.6,29.3c.31.05.49.13.63.42.02.21.02.2-.1.38-.36,0-.56-.01-.7-.37,0-.22.04-.25.17-.42Z"/>
  <path class="st1" d="M29.68,29.53c.29,0,.49.02.67.27.05.24.06.12-.05.36-.32.06-.41.1-.65-.15-.07-.22-.05-.25.02-.48Z"/>
  <path class="st4" d="M24.65,36.86c-1.41-1.17-2.93-3.1-3.95-4.64-.54-.82-1.07-1.67-1.54-2.53-.93-1.7-3.57-7-3.17-8.79.09-.38.3-.72.65-.92.31-.18.66-.18,1-.08,2.17.68,3.86,4.22,4.89,6.07.68,1.22,1.35,2.43,1.99,3.68.15.25.3.5.45.76.4.42.84.74,1.23,1.13.91.93,1.82,1.71,2.86,2.49.48.36.93.88,1.41,1.26.39.34,1.26.83,1.49,1.19.57,1.2,8.75,5.03,10.06,6.11.74.61,1.78,1.34,2.5,2.07.58.69,1.2,1.44,1.85,2.06-1.88-.82-4.66-1.43-6.66-1.25-2.44.23-2.23.16-4.46-.88-.57.06-1.86-1.34-2.16-1.11v.09c.25.16,1.85,1.05,1.89,1.17-.27-.03-1.58-.93-2.05-1.12l.04-.12c-.15-.44-.95-.28-1.35-.53.16-.06.33,0,.51.03l.04-.06c-.51-.33-1-.74-1.48-1.11-.5-.38-.99-.7-1.49-1.06.04-.14.05-.29.07-.43-.45-.32-.73-.56-1.14-.93l-.1.03c-.32-.11-.73-.58-1.05-.77-.28-.16-.21-.02-.46-.25-.2-.12-1.52-1.3-1.85-1.56Z"/>
  <path class="st5" d="M24.65,36.86c-1.41-1.17-2.93-3.1-3.95-4.64-.54-.82-1.07-1.67-1.54-2.53-.93-1.7-3.57-7-3.17-8.79.09-.38.3-.72.65-.92.31-.18.66-.18,1-.08,2.17.68,3.86,4.22,4.89,6.07.68,1.22,1.35,2.43,1.99,3.68-.42.05-1.33-.64-1.81.43-.47,1.07-.19,2.3.24,3.34.81,1.63,2.17,3.72,3.57,4.85.03.11.04.06,0,.16-.2-.12-1.52-1.3-1.85-1.56Z"/>
  <path class="st7" d="M26.5,38.42c.04-.09.03-.04,0-.16-1.4-1.13-2.76-3.22-3.57-4.85-.43-1.04-.71-2.27-.24-3.34.47-1.07,1.39-.38,1.81-.43.15.25.3.5.45.76-.33-.14-.51-.4-.97-.58-.66-.17-1.08.4-1.14.98-.27,2.44,1.71,4.79,3.24,6.47.22.24.48.6.7.8.37.46.9.81,1.33,1.32l-.1.03c-.32-.11-.73-.58-1.05-.77-.28-.16-.21-.02-.46-.25Z"/>
  <path class="st2" d="M29.25,40.33c1.43.93,2.76,2.31,4.27,3.18.22.13,1.66,1.01,1.71,1.07-.57.06-1.86-1.34-2.16-1.11v.09c.25.16,1.85,1.05,1.89,1.17-.27-.03-1.58-.93-2.05-1.12l.04-.12c-.15-.44-.95-.28-1.35-.53.16-.06.33,0,.51.03l.04-.06c-.51-.33-1-.74-1.48-1.11-.5-.38-.99-.7-1.49-1.06.04-.14.05-.29.07-.43Z"/>
  <path class="st5" d="M26.78,38.08c-.22-.2-.48-.56-.7-.8-1.53-1.68-3.51-4.04-3.24-6.47.06-.58.48-1.14,1.14-.98-.31.06-.36.05-.62.21l-.08.05s-.03.02-.05.03c-.28.5-.38.78-.34,1.37.07.91.46,2.12,1.05,2.82l.14-.06c.18.19.68.97.77,1.22l-.08.17c.45.54.92,1,1.39,1.52.31.34.24.42.64.77.01.12.03.07,0,.15Z"/>
  <path class="st25" d="M24.49,31.32l.12-.03c.61.27.67.37,1.14.84.06.37.3.8.27,1.01-.11.16-.18.23-.2.43.05.03.14,0,.22,0l.06-.13c.74.32,1.63,1.64.36,1.76-.78-.21-1.13-.78-.9-1.55-.13-.02-.19.01-.32.04-1.05-.58-2.23-1.41-.74-2.37Z"/>
  <path class="st1" d="M25.76,33.69c.76-.01,1.7.76.95,1.4-.63.12-1.55-.78-.95-1.4Z"/>
  <path class="st23" d="M38.43,41.1c.28,0,.29.33.49.57.27.05.5.09.62.37l-.08.05c-.78-.59-1.62.12-2.05-.73l-.08.11c0,.16,0,.28.08.4.56-.13.37.04.84.32.25.15.59.31.89.25.08-.11.13-.16.22-.26.14.06.08.01.16.18,0,.14-.02.41-.18.47-.05-.22-.04-.16.04-.41h-.06c-.2.38-.67.85-1,1.14-.37.18-.58.58-1.02.72.19-.28.38-.45.62-.69-.16-.08-.26-.12-.36-.28-.28-.43-.44.02-.8-.14-.1-.19-.08-.36-.09-.58.1-.12.12-.13.24-.22.35,0,.64,0,.85-.32-.31-.24-.04.07-.46-.11-.15-.21-.25-.58-.07-.79.57.21.12.6,1.2.42.09.1.04.07.14.1.01-.13,0-.11-.02-.24-.17-.12-.26-.09-.46-.08.12-.12.18-.16.3-.26Z"/>
  <path class="st1" d="M29.92,37.57c.54.17,1.37.64.69,1.22-.66,0-1.28-.61-.69-1.22Z"/>
  <path class="st1" d="M27.47,36.78c.61,0,1.18.47.7,1.06-.59-.02-1.23-.46-.7-1.06Z"/>
  <path class="st1" d="M28.76,35.56c.27,0,.46.05.59.31,0,.27.02.17-.13.42-.32-.02-.45,0-.61-.3.01-.27,0-.18.15-.43Z"/>
  <path class="st15" d="M63.32,27.08c.78-1.11,1.69-2.29,2.34-3.49.8-1.47,1.37-3.13,1.99-4.69.41-.95.59-2.15,1.08-3.06.59-1.07,1.96-4.28,3.54-3.53,1.47.69.99,3,.74,4.28-.7,3.64-1.98,7.15-3.79,10.38-.5.96-.79,1.4-1.43,2.27-.04.04-.13.14-.15.18.05.24.09.35-.04.56-.42.35-1.33,1.12-1.78,1.4-.24.02-.25,0-.36-.2l-.44.32c-1.74,1.22-2.81,1.88-4.33,3.4.13-.44.34-1.33.41-1.79.45-1.3.24-2.03,1.2-3.26.24-.3.89-2.32,1-2.78Z"/>
  <path class="st4" d="M67.21,24.85c-.36-.31-.44-.56-.21-1,.22-.18.52-.24.75-.05.04.3,0,.39.19.62.36.13.55-.21.83-.14-.02.16-.19.37-.25.39-.29.06-.35-.21-.69,0l.05.06c1.72-.05.66,1.68,1.37,2.25-.5.96-.79,1.4-1.43,2.27-.04.04-.13.14-.15.18.05.24.09.35-.04.56-.42.35-1.33,1.12-1.78,1.4-.24.02-.25,0-.36-.2l-.44.32c.14-.21.35-1.74.24-1.95l-.23-.08.07.04h-.07c.1-.17.34.02.42-.13.37-.71.33-1.28,1.05-1.74l.27-.12.39-.31c0-.16-.02-.31-.02-.47-.08-.42-.07-.65-.07-1.08v-.09c-.05-.2.14-.09.02-.6.13-.01.07,0,.18-.05l.08.02c-.12-.06-.06-.03-.18-.12Z"/>
  <path class="st9" d="M65.48,31.2c.37-.42,1.65-1.32,2.17-1.77.05.24.09.35-.04.56-.42.35-1.33,1.12-1.78,1.4-.24.02-.25,0-.36-.2Z"/>
  <path class="st3" d="M67.1,25.6c.22.05.34.1.49.28.28.34.93.16.98.45-.29.07-.75-.29-.93-.15l.09.13-.08.04c-.25.14-.34.16-.48.41-.08-.42-.07-.65-.07-1.08v-.09Z"/>
  <path class="st5" d="M67.19,27.23l.14-.06c.3.14.36.33.24.62-.22.17-.58.21-.8.03-.03-.17-.02-.1.04-.28l.39-.31Z"/>
  <path class="st3" d="M65.57,25.32c.26-.36.72-.99,1.14-1.17.27.18-.11.37.5.7.11.09.05.05.18.12l-.08-.02c-.1.06-.04.04-.18.05.12.52-.07.41-.03.6v.09c0,.43,0,.65.08,1.08,0,.16,0,.31.02.47l-.39.31-.27.12.02-.09h-.11c-.43.24-.58.96-.89.96.04-.45.96-1.1,1.08-1.33.05-.54-.71-1.36-1.06-1.89Z"/>
  <path class="st0" d="M67.1,25.68c-.17-.18-.35-.31-.38-.52.16-.16.14-.11.4-.17.12.52-.07.41-.03.6v.09Z"/>
  <path class="st5" d="M74.42,31.41c1.72-1.09,2.89-1.83,4.31-3.34,2.55-2.71,4.13-6.3,7.41-8.26.64-.38,1.74-.93,2.23-.06.15.27.18.54.08.83-.55,1.63-2.21,2.93-3.14,4.37-.81,1.26-1.34,2.78-2.06,4.08-.51.93-1.42,2.45-2.04,3.25-1.11,1.42-5.1,5.73-6.86,6.03-.66.23-1.24.44-1.91.63-1,.28-2.88.69-3.75,1.2l-.09-.14c.3-.05.42-.15.67-.31.17-.18,1.18-.79,1.48-1,.66-.47,1.38-1.01,1.96-1.58.44-.43,1.09-1.11,1.07-1.75-.01-.37-.18-.44-.41-.67l-.04-.04c-.66-.15-1.22-.1-1.86.06.69-.68,1.3-1.3,1.94-2.03.3-.34.76-1.05,1.02-1.26Z"/>
  <path class="st6" d="M73.33,34.64l.1-.03c.23.15.48.37.73.38.18-.1.13-.03.18-.18-.36-.6-1.13-.35-1.27-.81.13-.17.19-.21.34-.34-.08.22-.11.2-.06.39.46.23.61.26,1.14.56.31-.21.82-.55,1.03-.85.01-.88-.85-.94-.33-1.83.09-.16.07-.14.08-.32.24.26-.2.87-.07,1.08.36.59,1.06,1.31-.12,1.69.03.05,1.06.43,1.2.46.09.26.09.16.04.41-.2.21-.27.17-.53.1l-.06-.04c-.19.2-.42.51-.43.79.2.54.75.35,1,.69-.15.06-.1.04-.28.03-.01.04-.04.07-.03.11-.16-.12-.8-.47-.83-.54.03-.18.06-.36.1-.54-.16-.02-.1-.02-.27.05l-.03-.04c.15-.15.3-.24.36-.41-.12-.16-.24-.12-.39-.31-.34-.12-.69-.14-.97.12.04.08.07.12.14.17.24.17.23.53.44.65h.3s.02.06.02.06c-.19.07-.18.07-.37.01-.24-.17-.24-.34-.43-.61-.12.04-.73,1.05-.9,1.24-.69.8-2.86,2.62-3.88,2.9.17-.18,1.18-.79,1.48-1,.66-.47,1.38-1.01,1.96-1.58.44-.43,1.09-1.11,1.07-1.75-.01-.37-.18-.44-.41-.67l-.04-.04Z"/>
  <path class="st1" d="M79.39,29.29c.21.08.28.12.42.28.11.45-.19.57-.54.76-.14,0-.14,0-.28-.03-.34-.37.11-.78.41-1.01Z"/>
  <path class="st26" d="M81.32,27.23c.26.07.28.06.42.27.09.38-.14.56-.43.75-.12,0-.23-.02-.35-.03-.17-.14-.11-.06-.16-.27.08-.35.25-.49.52-.72Z"/>
  <path class="st26" d="M81.3,30.08c.28.09.33.11.37.41-.11.33-.26.44-.55.62-.16,0-.12,0-.28-.05-.31-.36.17-.79.46-.98Z"/>
  <path class="st26" d="M78.03,32.45c.22.07.22.06.4.2.14.35-.2.51-.46.68-.27,0-.4-.01-.48-.28.1-.36.21-.41.53-.6Z"/>
  <path class="st4" d="M43,65.69c.16-.19.36-.44.53-.61-.54,1.98-.99,4.21-1.65,6.15-.49,1.44-1.4,2.73-1.91,4.28-.96,2.1-5.46,6.72-7.34,8.09-.91.65-1.9,1.18-2.96,1.57-.56.2-1.64.59-2.13.26-1.4-.94.09-2.73.83-3.51.97-1.03,1.97-1.87,2.92-2.85,1.33-1.37,2.3-3.01,3.13-4.7.64-1.25,1.34-3.2,2-4.32.13.11.36.41.49.55,2.41-.03,4.79-3.11,6.09-4.91Z"/>
  <path class="st26" d="M33.72,79.99c.34-.03.51-.04.77.18.25.54-.19.8-.61,1.03-1.22.06-1.12-.78-.17-1.21Z"/>
  <path class="st25" d="M35.66,77.24c.71.06.52,1.04-.11,1.44-1.06-.14-.45-1.06.11-1.44Z"/>
  <path class="st26" d="M30.97,82.49c.23,0,.47-.05.67.06.24.3-.05.51-.27.74-.3.09-.47.17-.74-.04-.17-.41.03-.53.34-.76Z"/>
  <path class="st26" d="M31.12,80.78c.25-.01.26,0,.4.18.05.42-.18.62-.52.78l-.22-.04c-.17-.15-.12-.06-.17-.27.1-.35.21-.44.51-.64Z"/>
  <path class="st5" d="M36.75,75.93c.18.02.22.05.29.19-.05.32-.36.51-.61.7-.17-.07-.21-.17-.29-.34.02-.44.23-.48.61-.55Z"/>
  <path class="st1" d="M32.9,79.07c.22.04.14-.01.28.13.09.34-.07.63-.35.8-.17-.07-.2-.06-.33-.19-.1-.35.1-.56.4-.74Z"/>
  <path class="st4" d="M19.3,38.55c-2.32-2.25-6.69-6.21-7.35-9.65-.05-.47.04-.89.35-1.25,1.01-1.2,2.8.36,3.56,1.07,2.4,2.25,4.45,4.78,6.87,7.02.57.53,1.22.76,1.78,1.23l.15-.11c.33.26,1.65,1.44,1.85,1.56.26.23.19.09.46.25.32.19.73.66,1.05.77l.1-.03c.41.37.69.61,1.14.93-.02.14-.03.29-.07.43.5.36.99.69,1.49,1.06.49.37.98.78,1.48,1.11l-.04.06c-.18-.03-.35-.09-.51-.03.4.25,1.2.09,1.35.53l-.04.12c-1.33-.31-2.85-.49-4.21-.79-1.4-.31-2.67-.7-4.03-1.15-1.86-.78-3.72-1.8-5.52-2.74-.26-.13-.44-.27-.53-.56.15.05.56.21.67.16Z"/>
  <path class="st9" d="M18.63,38.38c.15.05.56.21.67.16.22.15.44.36.63.55,1.35.33,2.32,1.04,3.58,1.63,2.07.97,4.28,1.56,6.52,1.96.41.07,1.19.25,1.58.27.4.25,1.2.09,1.35.53l-.04.12c-1.33-.31-2.85-.49-4.21-.79-1.4-.31-2.67-.7-4.03-1.15-1.86-.78-3.72-1.8-5.52-2.74-.26-.13-.44-.27-.53-.56Z"/>
  <path class="st9" d="M24.65,36.86c.33.26,1.65,1.44,1.85,1.56.26.23.19.09.46.25.32.19.73.66,1.05.77l.1-.03c.41.37.69.61,1.14.93-.02.14-.03.29-.07.43-.86-.24-1.04-.52-1.73-1.05-1.12-.85-2.02-1.71-2.95-2.75l.15-.11Z"/>
  <path class="st4" d="M65.99,53.45c.64.11,1.31.13,1.93.27.05,0,.18.2.21.23.63.47,2.45,1.51,3.19,1.71,1.21.45,2.46.81,3.73,1.08.51.23,1.07.52,1.59.71,2.02.73,4.21.97,6.34.99,2.41.02,4.77-1.5,7.15-.4.73.34,1.01.81,1.21,1.54-1.35,3.46-9.28,2.8-12.37,2.56-.86-.07-3.27-.69-4.18-1.02-.17-.12-.41-.12-.57-.25-.51-.44-.9-1.01-1.35-1.51-.74-.83-1.5-1.63-2.25-2.45-.37-.37-.85-.63-1.25-.96-.98-.8-2.19-1.93-3.35-2.4l-.02-.1Z"/>
  <path class="st6" d="M76.94,57.72c.02.15-.1.36-.05.41.3.12.35.56.37.59.48.59.86.52,1.27,1.28-.42-.41-.44-.67-1-.41-.65-.2-.7.05-1.41.14.13-.18.52-.22.72-.43.02-.58.39-.57-.05-1.2-.04-.06.1-.28.15-.37Z"/>
  <path class="st26" d="M84.42,59.57c.33,0,.7,0,.78.39-.09.18-.14.19-.31.29-.32,0-.68-.03-.79-.39.11-.21.09-.15.32-.29Z"/>
  <path class="st26" d="M86.53,60.39c.28.05.32.08.37.34-.07.21-.09.2-.24.35-.25-.08-.43-.07-.48-.36.08-.19.17-.22.35-.33Z"/>
  <path class="st4" d="M26.69,25.77c-1.56-3-3.87-4.91-5.83-7.63-.89-1.23-2.55-3.43-2.37-5.03.02-.17.21-.59.39-.65,1.75-.57,3.92,1.66,4.93,2.63,1.34,1.29,2.39,2.29,3.43,3.61.61.78,1.16,1.59,1.65,2.44.36.49.67,2.38.92,3.12.3.88.58,1.57.94,2.44-.47-.16-1.17-.45-1.63-.5-.38-.17-2.35-.33-2.45-.44Z"/>
  <path class="st26" d="M23.25,17.66c.45.01.55.15.9.44.13.5.26.69-.21,1.02-.38-.04-.67-.22-.88-.55-.27-.44-.19-.67.19-.92Z"/>
  <path class="st26" d="M26.18,19.75c.36.1.54.19.56.6-.12.23-.07.16-.32.32-.78-.05-.69-.48-.24-.92Z"/>
  <path class="st21" d="M79.72,69.53c-.03-.11-.45-.89-.53-1.06-1.01-2.11-2.24-4.13-3.7-5.96-.16-.2-.94-1.16-.93-1.33h.18c2.95,2.15,6.33,4.4,9.81,5.64,1.58.56,3.37.98,4.98,1.41.98.22,1.52.57,1.94,1.52-.62,1.48-2.13,1.42-3.53,1.47-2.51.1-5-.22-7.32-1.24-.31-.14-.61-.28-.9-.44Z"/>
  <path class="st26" d="M84.64,67.84c.59-.01,1.33.37.71.98-.66,0-1.39-.26-.71-.98Z"/>
  <path class="st3" d="M88.28,69.41c.33,0,.78.12.91.44-.03.2-.08.24-.21.39-.83.45-.92-.14-.7-.83Z"/>
  <path class="st26" d="M81.05,68.06c.36,0,.72.03.88.41-.01.24.02.12-.12.34-.4.02-.77.02-.94-.41.03-.23,0-.15.19-.34Z"/>
  <path class="st3" d="M57.71,72.51h.12c.76.69,1.53,1.78,2.36,2.56.39.08.6.77,1.02.65l.14-.21c.34.25,1.68,1.26,1.97,1.33l-.13.04c-.05.16-.05.17-.06.34.21.68.32,1.68.45,2.4.33,1.92,1.04,3.38,1.66,5.26.5,1.52.58,3.85-1.84,2.56-.2-.11-.59-.46-.74-.64-2.71-3.11-3.79-7.14-4.5-11.11-.18-1.01-.2-2.09-.43-3.08l-.02-.11Z"/>
  <path class="st7" d="M60.19,75.06c.39.08.6.77,1.02.65l.14-.21c.34.25,1.68,1.26,1.97,1.33l-.13.04c-.05.16-.05.17-.06.34l-.06-.26c-.55-.13-2.8-1.35-2.88-1.89Z"/>
  <path class="st0" d="M59.65,77.45s.4.54.64.61c.37.12.51-.2.86-.07.36.39,0,.71-.14,1.05.19.03.2-.04.42-.02.12.15.09.07.11.25-.24-.06-.65-.17-.75.11.11.36.3.29.36.54l-.06-.06c-.28-.14-.84-.38-.89-.7.2-.18.26-.01.43-.13-.1-.17-.13-.18-.17-.37l.1-.02c.14.12.12.18.18.4l.08-.02c.16-.22.22-.35.34-.6-.28-.68-1.22.24-1.51-.97Z"/>
  <path class="st4" d="M26,57.8c.25-.12.67-.47.96-.63,1.21-.68,2.45-1.29,3.73-1.83.2.13.15.04.2.25-.1.17-.03.11-.21.18-1.54,1.62-2.95,3.38-4.06,5.33-.08.15-.38.65-.42.79-.28.4-.53,1.25-.78,1.76-.13.27-.2.38-.26.68-.6.49-1.16,1.03-1.66,1.63-1.24,1.5-2.09,3.14-3.91,3.95-.19-.04-.75-.2-.81-.33-1-2.21,4.05-8.92,5.04-9.88-.34,0-1.14.7-1.48.93.21-.74,2.88-2.35,3.65-2.83Z"/>
  <path class="st9" d="M26,57.8c.25-.12.67-.47.96-.63,1.21-.68,2.45-1.29,3.73-1.83.2.13.15.04.2.25-.1.17-.03.11-.21.18-.76.14-5.23,2.71-6.11,3.28-.16.11-.58.54-.75.64-.34,0-1.14.7-1.48.93.21-.74,2.88-2.35,3.65-2.83Z"/>
  <path class="st4" d="M68.9,64.33c.73.62,2.73,2.32,3.27,3.12.31.31.46.49.74.84l.11.13c.86,1.39,3.46,6.07,2.95,7.64-.92,2.86-4.35-3.41-5.1-3.99-.12-.1-.47-.51-.58-.64-.69-.84-1.59-2.63-2.14-3.65-.07-.34-.26-.41.08-.7.17-.14.18-.21.23-.42.27-.21.36-.27.58-.54,0-.24.04-.64-.06-.83-.01-.36-.04-.6-.09-.96Z"/>
  <path class="st4" d="M72.17,67.45c.31.31.46.49.74.84l-.07.05c-.28-.03-.67-.61-.66-.89Z"/>
</svg>