<?xml version="1.0" encoding="UTF-8"?>
<svg id="DESIGNED_BY_FREEPIK" xmlns="http://www.w3.org/2000/svg" version="1.1" viewBox="0 0 100 100">
  <!-- Generator: Adobe Illustrator 30.3.0, SVG Export Plug-In . SVG Version: 2.1.3 Build 182)  -->
  <defs>
    <style>
      .st0 {
        fill: #e271ce;
      }

      .st1 {
        fill: #f180e0;
      }

      .st2 {
        fill: #ef82d5;
      }

      .st3 {
        fill: #e56ccc;
      }

      .st4 {
        fill: #f587e6;
      }

      .st5 {
        fill: #ffbdf5;
      }

      .st6 {
        fill: #e26dcd;
      }

      .st7 {
        fill: #ff94d2;
      }

      .st8 {
        fill: #ffb6f5;
      }

      .st9 {
        fill: #ed75df;
      }

      .st10 {
        fill: #e167ca;
      }

      .st11 {
        fill: #ffacf2;
      }

      .st12 {
        fill: #fe80d3;
      }

      .st13 {
        fill: #fd8ee9;
      }

      .st14 {
        fill: #ff7cd1;
      }

      .st15 {
        fill: #ff93e2;
      }

      .st16 {
        fill: #ff67c4;
      }

      .st17 {
        fill: #fe8dd4;
      }

      .st18 {
        fill: #ff87e3;
      }

      .st19 {
        fill: #ffa6ee;
      }

      .st20 {
        fill: #ffaaef;
      }

      .st21 {
        fill: #ff8ada;
      }

      .st22 {
        fill: #ff9ce9;
      }

      .st23 {
        fill: #ff91e8;
      }

      .st24 {
        fill: #ffa6f0;
      }

      .st25 {
        fill: #ffb9f2;
      }

      .st26 {
        fill: #fe9ced;
      }

      .st27 {
        fill: #ffb2f4;
      }

      .st28 {
        fill: #fe8bd8;
      }

      .st29 {
        fill: #ff98dd;
      }

      .st30 {
        fill: #e97dd9;
      }

      .st31 {
        fill: #fe83d6;
      }

      .st32 {
        fill: #ff95e3;
      }

      .st33 {
        fill: #f07ce0;
      }

      .st34 {
        fill: #ff9ce1;
      }

      .st35 {
        fill: #ff8bdf;
      }

      .st36 {
        fill: #fe70c8;
      }

      .st37 {
        fill: #eb9adc;
      }

      .st38 {
        fill: #f183e2;
      }

      .st39 {
        fill: #ffb9f5;
      }

      .st40 {
        fill: #ff8be7;
      }

      .st41 {
        fill: #ff8dd1;
      }

      .st42 {
        fill: #e26dcc;
      }

      .st43 {
        fill: #ff93db;
      }

      .st44 {
        fill: #fccbee;
      }

      .st45 {
        fill: #eb7bdc;
      }

      .st46 {
        fill: #ffadf4;
      }

      .st47 {
        fill: #ff9cea;
      }

      .st48 {
        fill: #ff6dc7;
      }

      .st49 {
        fill: #ff9cec;
      }

      .st50 {
        fill: #ff9cee;
      }

      .st51 {
        fill: #ffabef;
      }

      .st52 {
        fill: #ffa6f1;
      }

      .st53 {
        fill: #ed7cde;
      }

      .st54 {
        fill: #fb97d9;
      }

      .st55 {
        fill: #ff81d4;
      }

      .st56 {
        fill: #ff95ed;
      }

      .st57 {
        fill: #ff9fe8;
      }

      .st58 {
        fill: #f794e7;
      }

      .st59 {
        fill: #ff9fec;
      }

      .st60 {
        fill: #ffa4e9;
      }

      .st61 {
        fill: #e569cb;
      }

      .st62 {
        fill: #ff6dd1;
      }

      .st63 {
        fill: #ff93eb;
      }

      .st64 {
        fill: #ff71c7;
      }

      .st65 {
        fill: #e56bcb;
      }

      .st66 {
        fill: #ff75d0;
      }

      .st67 {
        fill: #ff70cc;
      }

      .st68 {
        fill: #ee7fdc;
      }

      .st69 {
        fill: #ffcbf4;
      }

      .st70 {
        fill: #ff7ed2;
      }

      .st71 {
        fill: #ff78d2;
      }

      .st72 {
        fill: #ff9beb;
      }

      .st73 {
        fill: #ee7ad0;
      }

      .st74 {
        fill: #fa98ec;
      }

      .st75 {
        fill: #ffb3f4;
      }

      .st76 {
        fill: #fe9cee;
      }

      .st77 {
        fill: #ffbaf6;
      }

      .st78 {
        fill: #ffa1e9;
      }

      .st79 {
        fill: #f28ce3;
      }

      .st80 {
        fill: #ff7cc9;
      }

      .st81 {
        fill: #f68ee5;
      }

      .st82 {
        fill: #ff86de;
      }

      .st83 {
        fill: #ff6dca;
      }

      .st84 {
        fill: #ff9dea;
      }

      .st85 {
        fill: #ff8bd7;
      }

      .st86 {
        fill: #fca2e4;
      }

      .st87 {
        fill: #ffb4ea;
      }

      .st88 {
        fill: #e67ad3;
      }

      .st89 {
        fill: #fd8fd5;
      }

      .st90 {
        fill: #fe92e1;
      }

      .st91 {
        fill: #ff6ec3;
      }

      .st92 {
        fill: #ff92e4;
      }

      .st93 {
        fill: #ff6dc6;
      }

      .st94 {
        fill: #fe79d3;
      }

      .st95 {
        fill: #ff74ca;
      }

      .st96 {
        fill: #eb72dd;
      }

      .st97 {
        fill: #f07cdc;
      }

      .st98 {
        fill: #ed76dc;
      }

      .st99 {
        fill: #ffb8f6;
      }

      .st100 {
        fill: #ec82d6;
      }

      .st101 {
        fill: #ffa4f0;
      }

      .st102 {
        fill: #ff88df;
      }

      .st103 {
        fill: #ea68cb;
      }

      .st104 {
        fill: #e168ca;
      }

      .st105 {
        fill: #f191e5;
      }

      .st106 {
        fill: #ff81ca;
      }

      .st107 {
        fill: #ff8ad2;
      }

      .st108 {
        fill: #ff9bf1;
      }

      .st109 {
        fill: #ff70d1;
      }

      .st110 {
        fill: #ff82d9;
      }

      .st111 {
        fill: #ff63bc;
      }

      .st112 {
        fill: #ffadf5;
      }

      .st113 {
        fill: #ff89cd;
      }

      .st114 {
        fill: #eb7dde;
      }

      .st115 {
        fill: #ff79d2;
      }

      .st116 {
        fill: #ed70d5;
      }

      .st117 {
        fill: #f8ade1;
      }

      .st118 {
        fill: #ff85e0;
      }

      .st119 {
        fill: #ff6cc1;
      }

      .st120 {
        fill: #e369c9;
      }

      .st121 {
        fill: #ff97d2;
      }

      .st122 {
        fill: #ffa5e0;
      }

      .st123 {
        fill: #ffabf0;
      }

      .st124 {
        fill: #ff93e4;
      }

      .st125 {
        fill: #e56fcd;
      }

      .st126 {
        fill: #ff63bd;
      }

      .st127 {
        fill: #ffa1dd;
      }

      .st128 {
        fill: #f2ade8;
      }

      .st129 {
        fill: #ff8de2;
      }
    </style>
  </defs>
  <path class="st24" d="M37.15,46.53c0-.08,0-.15-.03-.23-.08-.09-.16-.18-.25-.27h0c-.1-.08-.19-.17-.27-.27h0c-.17-.18-.27-.42-.45-.59-.08-.07-.15-.14-.21-.22-.04-.09-.09-.18-.15-.26h0c-.1-.08-.19-.17-.27-.27h0c-.1-.08-.19-.17-.27-.27h0c-.18-.12-.12-.38-.29-.51h0c-.08-.1-.17-.19-.26-.28h0c-.32-.41-.47-.93-.8-1.34h0c-.09-.08-.18-.16-.27-.24-.17,0-.35-.01-.52-.02-.09-.08-.15-.18-.19-.3-.35-1.27-1.01-2.38-1.75-3.45-.16-.27.29-.51.05-.79h0c-.15-.15-.11-.39-.27-.54h0c-.15-.15-.11-.39-.27-.54h0c-.16-.15-.11-.4-.26-.56,0-.09,0-.17-.03-.25-.14-.15-.09-.39-.25-.53h0c-.25-.21-.02-.59-.27-.8h0c-.24-.22-.02-.59-.27-.81h0c-.1-.12-.15-.26-.13-.43.1-1.29-.29-2.63.41-3.85h0c.08-.1.18-.19.3-.26.08,0,.15,0,.23-.01.45-.19.89-.21,1.34.01h0c.1.08.18.17.28.26h0c.08.09.13.2.16.32.16.62.61,1.12.43,1.88-.13.54.31.99.9,1.13.12.04.2.12.26.22.24.43.23,1,.68,1.32.09.06.17.13.24.21h0c.1.09.13.24.21.35.07.06.12.12.16.19.16.15.1-.11.19-.1.11-.03.2-.01.3.04.08.09.13.19.18.3.32,1.53,1.04,2.9,1.66,4.31.08.09.17.17.26.26h0c.08.1.18.18.26.29h0c.17.13.13.38.28.53h0c.1.08.19.17.27.27h0c.17.13.12.38.28.53h0c.1.08.19.17.27.27h0c.18.12.12.38.29.52h0c.09.1.18.18.26.28h0c.18.12.12.38.29.51h0c.08.11.18.18.25.29h0c.4.29.64.71.96,1.06.16.27.25.56.33.86.06.35.14.79-.23.96-.42.19-.53-.36-.82-.52-.72-.39-.95-1.51-2.02-1.38-.04.06-.1.1-.18.1.02.09.03.07.11-.03.1-.14-.04.06.09-.07.52.45.48,1.76-.08,2.32-.22.22-.5.37-.78.52-.13.04-.23,0-.3-.11Z"/>
  <path class="st77" d="M58.84,25.94c-.01.08-.02.17-.01.25-.09.09-.16.2-.26.29-.01.08-.02.16-.01.25-.08.1-.16.2-.25.29-.01.08-.02.16-.01.25-.08.1-.16.2-.26.29-.01.08-.02.16-.01.24-.08.1-.17.2-.26.3h0c-.17.14-.12.39-.27.54h0c-.17.14-.11.39-.27.53-.01.08-.02.16-.01.25-.08.1-.16.2-.25.29-.01.09-.02.17-.01.26-.16.15-.11.4-.26.55h0c-.25.21-.03.58-.27.8,0,.17,0,.34-.01.51-.15.15-.09.4-.25.55,0,.26-.01.53-.02.79-.09.09-.19.17-.3.22-1.29.12-1.83-1.02-2.75-1.7-.57,1.25-.71,2.53-.94,3.76-.16.83-.97,1.42-.73,2.35-.05,1.03.21,2.08-.23,3.07-.11.14-.24.17-.39.07,0-1.69,0-3.37,0-5.06.34-.5-.07-1.12.27-1.62h0c.21-.23.1-.52.14-.78,0-.11.05-.21.13-.29h0c.22-.23.11-.52.14-.78,0-.11.05-.21.13-.29,0-.08,0-.17,0-.25.16-.15.1-.4.25-.55.01-.09.02-.17.01-.26.24-.22.03-.59.27-.82h0c.25-.21.03-.59.27-.8h0c.16-.14.1-.39.26-.53.01-.08.02-.17.01-.25.16-.15.1-.4.25-.55,0-.09,0-.18,0-.27-.08-.1-.11-.21-.08-.34.51-1.2,1.57-2.19,1.39-3.66.03-.6-.23-1.28.48-1.68.17.05.22.16.13.31,0,.36,0,.72-.01,1.08.08.09.17.1.26,0h0c.08-.09.18-.17.26-.27h0c.17-.14.12-.39.28-.53h0c.08-.09.18-.18.26-.27h0c.09-.09.18-.17.26-.27h0c.17-.14.11-.39.28-.53h0c.08-.09.18-.18.27-.27h0c.09-.09.18-.18.27-.27h0c.09-.09.18-.18.27-.27h0c.09-.09.18-.18.27-.27h0c.09-.09.18-.18.27-.27h0c.22-.14.4-.31.53-.54h0c.09-.09.18-.18.27-.27h0c.23-.13.4-.33.56-.53.08,0,.16,0,.24-.02.09-.09.18-.17.27-.26h0c.09-.09.19-.18.29-.26.08,0,.16,0,.25,0,.62-.2,1.25-.19,1.87,0,.08.01.17.02.26.01.08.07.17.11.28.13.1.02.2.06.27.14h0c.22.13.41.31.53.54h0c.16.17.16.35,0,.53h0c-.16.14-.1.39-.25.54-.01.08-.02.16-.02.25-.08.1-.17.2-.26.29h0c-.09.09-.18.17-.26.27h0c-.26.37-.56.7-.82,1.06h0c-.08.09-.17.18-.27.27h0c-.08.09-.18.18-.27.27h0c-.09.09-.18.18-.27.27h0c-.09.09-.18.17-.26.27h0c-.17.14-.12.39-.28.53h0c-.08.09-.18.18-.26.27h0c-.17.14-.11.39-.28.53h0c-.08.09-.18.18-.27.27h0c-.09.09-.18.18-.26.27-.01.08-.02.16-.02.24-.08.1-.17.2-.26.29h0c-.09.09-.17.18-.26.27Z"/>
  <path class="st49" d="M77.31,35.05c.02-.08.02-.16,0-.24.31-.41-.06-.95.26-1.36h0c.29-.3-.02-.76.27-1.07h0c.25-.21.02-.59.28-.8h-.01c.08-.09.17-.19.28-.26h0c.28-.24.61-.28.97-.22.31.15.61.3.89.5h0c.11.07.2.16.27.27h-.01c.18.13.13.38.27.53h0c.32.29-.01.76.28,1.06h0c.24,1.24.2,2.49.02,3.74,0,.18-.01.35-.02.53-.25.32-.08.69-.14,1.04,0,.12-.05.23-.13.32-.02.08-.02.16,0,.24-.27.32.03.78-.26,1.1h0c-.29.3.03.77-.28,1.07h0c-.14.16-.13.35-.13.55-.02.1-.07.18-.14.25h0c-.14.15-.1.4-.27.54h0c-.15.15-.1.4-.27.54h0c-.15.15-.1.4-.27.54h0c-.14.15-.1.4-.27.54h0c-.15.15-.1.4-.28.53h.01c-.07.1-.17.18-.25.28h0c-.21.25-.34.55-.54.8h0c-.16.14-.11.4-.29.53h.01c-.08.1-.17.19-.27.27h0c-.1.14-.18.29-.31.42-.3.35-.63.68-.97.99-.08.08-.16.16-.23.24-.07.08-.15.16-.23.23-.04.03-.08.07-.12.1-.1.04-.19.1-.27.17h0c-.09.09-.18.18-.28.26h0c-.17.15-.35.17-.55.05-.24-1.33.02-2.76-.82-3.97-.07-.13-.05-.25.06-.36h0c.09-.09.17-.18.26-.27h0c.17-.14.11-.4.29-.53h-.01c.07-.1.17-.18.26-.27h0c.09-.11.14-.25.24-.36.07-.07.13-.14.2-.21.04-.03.07-.07.11-.1.11-.11.13-.26.13-.41.01-.1.06-.19.13-.26h0c.16-.14.11-.39.27-.54h0c.16-.14.11-.39.27-.54h0c.17-.14.11-.39.27-.54.02-.08.03-.15.02-.23.14-.17.09-.42.26-.57h0c.24-.22.02-.59.27-.81h0c.25-.31.09-.68.14-1.02,0-.12.05-.23.13-.32h0c.29-.31-.02-.76.25-1.07,0-.17.01-.34.02-.51.3-.42-.06-.96.26-1.37Z"/>
  <path class="st23" d="M55.89,58.07c.01-.09,0-.17-.01-.26-.27-.32.03-.77-.25-1.09.01-.09,0-.17-.02-.25-.22-.23-.01-.59-.25-.81h0c-.17-.15-.13-.4-.26-.57,0-.08,0-.15-.02-.22-.23-.22-.01-.59-.26-.8h0c-.24-.21-.02-.59-.27-.8h0c-.15-.17-.12-.41-.25-.58.01-.08,0-.15-.02-.23-.24-.22,0-.59-.27-.8h0c-.15-.16-.11-.4-.25-.55h0c-.26-.21-.04-.58-.27-.81h0c-.27-.2-.05-.58-.28-.8h0c-.18-.14-.14-.39-.27-.57.01-.07,0-.14-.01-.21-.17-.16-.12-.41-.26-.58,0-.08,0-.15-.03-.23-.17-.23-.12-.49-.08-.75.96.1,1.32.88,1.67,1.59.25.51.42,1.07.51,1.65.05.37.16.75.64.67.46-.08.67-.42.64-.88-.03-.48-.08-.99-.2-1.44-.4-1.56.38-2.91.66-4.35.1-.19.25-.31.48-.28.13.19.13.38,0,.57,0,.18,0,.37,0,.55.29.41-.06.94.25,1.34h0c.25.21.03.58.28.8h0c.23.23.03.6.26.83,0,.08,0,.16.03.24.32.2.38-.12.53-.26h0c.05-.03.11-.06.16-.09.12.05.21.13.27.24-.3,1.66.19,3.17.85,4.66-.35.7-.17,1.37.05,2.06.69,2.21,1.06,4.49,1.03,6.8-.01.99-.05,2.02-.48,2.96-.47-.42-.32-.99-.34-1.5-.04-.76-.45-1.1-1.14-.85-.67.24-1.62-.17-1.98.91-.11.34-.62.32-.7-.25-.3-1.68.09-3.38-.13-5.06Z"/>
  <path class="st63" d="M70.61,45.5c-.02.08-.02.15-.01.23-.29.42.04.95-.23,1.37,0,.27,0,.54,0,.81.12.12.31.17.36.36.01.12,0,.23-.04.34-.26.45-.27.99-.47,1.46-.42.44-.07,1-.21,1.48-.04.12-.1.22-.19.31-.66.57-1.5.57-2.28.55-1.1-.02-1.29-1-1.54-1.8-.11-.36-.02-.79-.28-1.13.03-.44.34-.8.24-1.29-.16-.77.12-1.25.99-1.03-.18-1.04-1-2.07.35-2.86.11-.07.24-.24.19-.33-.76-1.44.77-1.93,1.19-2.87.2-.46.51-.73-.22-.99-.4-.15-.2-.73-.29-1.11-.06-.17-.11-.35-.22-.5h0c-.09-.08-.14-.19-.14-.31.01-.13.08-.23.18-.3,1.01-.12,1.32-1.03,1.88-1.66.23-.29.41-.63.77-.8.39-.07.79.23,1.1-.46.28-.63,1.09-1.1,1.92-.68.83.42,1.3,1.07.87,2.05-.15.34-.04.7-.05,1.05-.04.17-.09.43-.22.47-1.47.46-1.84,1.59-1.85,2.95-.06.11-.13.21-.2.3-.88.48-.61,1.45-.93,2.16,0,.11-.02.23-.05.34-.08.14-.18.28-.21.45-.03.21.04.45-.15.63h0c-.24.22-.02.59-.26.81Z"/>
  <path class="st72" d="M65.81,49.51c.34.29.37.7.36,1.08-.01.34.08.49.41.53.4.05.51.15.29.59-.22.44.28.52.54.45.8-.19,1.67-.03,2.41-.51.65.27.74.82.73,1.43-.01,1.05.53,1.96.76,2.95.1.43.49.61.81.84.18.09.26.27.36.44,0,.08,0,.16.03.24.15.16.1.4.24.56,0,.08,0,.16.02.23.16.16.11.4.25.57,0,.08,0,.16.02.24.23.23.02.6.26.82-.01.08,0,.17.01.25.23.23.02.6.25.82,0,.08,0,.17.02.25.22.24.02.59.25.83-.01.08,0,.16.02.24.3.41-.05.95.25,1.36-.01.08,0,.16,0,.24.08.08.11.17.08.28-.14.33.08.64.05.96-.01.22.05.45-.15.63h0c-.34.58.1,1.29-.27,1.88h0c-.13.03-.24.02-.35-.07-.4-.83-1.76-1.19-1.17-2.55.08-.19-.75-.78-1.26-.79-.62-.02-.28.6-.37.93-.13.49.26,1.2-.57,1.4.07-2.27-.24-4.48-.84-6.67-.14-.16-.09-.41-.26-.56h0c-.08-1.45-.95-2.49-1.89-3.48-1.13-1.9-1.41-3.98-1.33-6.14-.07-.07-.09-.14-.06-.21.03-.06.06-.09.08-.09Z"/>
  <path class="st27" d="M71.97,19.79c.17,0,.33,0,.5,0,.09.06.18.11.27.14.04.03.08.06.12.09.08.07.15.14.23.21.04.04.07.08.11.11.07.08.14.16.19.25.02.1.03.21.03.31.02.25-.06.53.13.75,0,.08,0,.17,0,.25.06.06.09.12.06.18-.02.06-.04.09-.07.09h0c-.24.22-.02.59-.27.81h0c-.16.14-.11.39-.27.54h0c-.16.14-.11.39-.27.54h0c-.17.16-.12.41-.25.59-.22.2-.08.54-.3.74h0c-.15.15-.1.4-.27.54h0c-.16.17-.11.44-.26.63-.26.28,0,.7-.27.98-.01.08-.01.17,0,.25-.24.34-.08.73-.13,1.09,0,.19.02.38-.14.53h0c-.33.49.06,1.1-.25,1.61-.01.08-.02.17-.02.25-.06.1-.16.13-.27.1-.24-.14-.5-.21-.76-.29-1.27.06-1.9,1.02-2.64,1.84-.12.07-.23.05-.33-.05,0-.26,0-.52,0-.79-.14-.39-.16-.8-.14-1.22,0-1.42,0-2.84,0-4.26-.01-.16.03-.3.13-.42h0c.32-.4-.05-.94.27-1.34h0c.16-.14.11-.39.27-.53h0c.16-.14.1-.39.26-.54.01-.08.02-.16.02-.24.15-.16.1-.41.27-.56h0c.08-.09.18-.18.26-.27h0c.16-.14.11-.39.27-.54h0c.16-.14.11-.39.28-.53h0c.08-.09.17-.19.27-.27h0c.08-.1.17-.19.27-.27h0c.08-.1.17-.19.27-.27h0c.24-.21.55-.34.8-.54h0c.15-.16.4-.11.55-.27.09,0,.17,0,.26-.02.23-.22.59-.01.81-.25Z"/>
  <path class="st19" d="M23.47,29.15c.08.02.15.03.23.02.12.07.22.16.3.27h0c.1.07.19.16.27.27h0c.1.07.2.16.27.27h0c.08.06.13.15.15.25.02.1.07.19.14.26h0c.08.1.17.19.26.27h0c.08.1.17.19.26.28h0c.09.09.19.18.26.28h0c.18.13.12.38.28.52h0c.09.09.19.18.26.28h0c.18.13.13.38.27.53h0c.08.06.13.15.15.26.02.1.06.2.13.28h0c.17.13.12.38.28.53h0c.1.08.19.17.27.28h0c.08.06.13.15.15.25.02.1.06.19.13.27h0c.09.09.19.18.27.28h0c.17.12.11.38.29.51h0c.08.11.16.2.25.28h0c.08.1.17.19.26.27h0c.08.09.17.18.27.26h0c.07.1.16.18.25.25.08.03.16.04.24.04.11.07.22.16.3.26h0c.09.09.14.2.15.33-.04.87.56,1.53.77,2.32.14.53.49,1.04.24,1.63-.11.1-.22.1-.34,0-.08-.02-.16-.03-.24-.03-.11-.06-.22-.13-.35-.14-.09-.02-.16-.07-.21-.14h0c-.16-.14-.4-.09-.55-.26h0c-.08-.06-.17-.11-.27-.15-.04-.03-.08-.07-.12-.1-.12-.12-.26-.15-.42-.15-.11-.01-.2-.06-.27-.14h0c-.08-.06-.18-.1-.28-.12-.1-.02-.19-.07-.27-.14h0c-.15-.15-.4-.1-.54-.27h0c-.1-.07-.19-.17-.28-.26h0c-.14-.16-.4-.11-.54-.28h0c-.1-.07-.19-.17-.27-.27h0c-.1-.07-.19-.17-.28-.26h0c-.08-.07-.17-.11-.27-.13-.1-.02-.19-.07-.26-.15h0c-.11-.07-.2-.16-.28-.26h0c-.11-.07-.2-.16-.28-.27h0c-.1-.07-.2-.16-.27-.27h0c-.1-.07-.2-.16-.28-.27h0c-.1-.07-.19-.16-.28-.27h0c-.12-.12-.16-.28-.27-.41-.11-.12-.18-.26-.27-.39h0c-.14-.15-.23-.35-.37-.5-.07-.08-.14-.15-.22-.21-.07-.07-.14-.14-.21-.22-.07-.08-.11-.16-.13-.26,0-.15-.04-.29-.14-.41h0c-.11-.09-.13-.24-.22-.35-.07-.07-.13-.14-.19-.21-.03-.09-.08-.17-.13-.25h0c-.08-.07-.13-.16-.14-.27.02-.23-.12-.4-.23-.58-.09-.24.03-.54-.17-.76h0c-.11-.1-.15-.23-.14-.39.06-.49-.14-1.01.13-1.48h0c.09-.09.18-.18.27-.27h0c.09-.09.18-.18.27-.27h0c.09-.09.18-.18.28-.26h0c.53-.23,1.06-.19,1.6-.02Z"/>
  <path class="st52" d="M44.64,42.28c-.02.08-.02.16-.01.24-.32.51.05,1.12-.24,1.63,0,.45,0,.91,0,1.36.15.27.14.54.02.81-.6.03-.6-.46-.62-.82-.15-2.43-.77-4.88.35-7.26-.52.89-.39,2-1.11,2.8q-1.14.03-1.92-.93c.17.82.19,1.55.12,2.26-.04.39.08.93-.57.99-.3-2.32-.22-4.65-.03-6.98h0c.35-.49-.07-1.11.27-1.61h0c.2-.79.2-1.64.54-2.41h0c.12-.14.17-.32.27-.48.51-.81,1.47-1.08,2.13-1.75.6-.6,1.27.04,1.17.57-.26,1.37.67,2.64.16,3.98-.01.12-.04.24-.08.36-.05.16-.14.32-.17.67.55-.39.89-.88,1.39-1.15,1.34-.43,1.8-.13,2.24,1.44-.02.14-.08.26-.18.36h.01c-.13.17-.39.11-.52.28h0c-.1.08-.18.18-.28.26h0c-.37.24-.7.55-1.06.81h0c-.22.25-.34.55-.55.8h0c-.15.14-.11.39-.28.54h0c-.15.15-.11.39-.26.54h0c-.25.21-.03.59-.27.8h0c-.25.21-.03.58-.26.8-.01.09-.02.17,0,.26-.25.22-.02.59-.26.81Z"/>
  <path class="st39" d="M56.43,17.64c-.01.08-.02.17-.01.25-.15.15-.1.4-.27.55h0c-.16.14-.11.39-.27.54h0c-.16.14-.1.39-.26.54-.01.08-.01.17-.01.25-.16.15-.1.41-.26.55-.01.08-.01.17,0,.25-.11.15-.17.33-.3.46-1.04.89-2.01,1.83-2.41,3.2-.11.39-.46.63-.7.94-.12.07-.23.05-.32-.05,0-.08,0-.17-.01-.25-.33-.5.08-1.11-.26-1.61h0c-.08-.09-.13-.2-.13-.32-.05-.34.11-.71-.14-1.03,0-.09,0-.17,0-.26-.17-.21-.12-.46-.13-.69.07-1.2-.15-2.4.13-3.59.01-.08.01-.17.01-.25.24-.22.03-.59.26-.82h0c.25-.21.03-.59.27-.8h0c.16-.14.11-.39.27-.54h0c.16-.14.11-.39.27-.54h0c.16-.14.11-.39.28-.53h0c.08-.09.17-.18.27-.27h0c.14-.16.39-.11.53-.27.15-.15.39-.11.54-.26h0c.07-.07.16-.11.26-.13.19-.01.4.02.55-.14.18,0,.35,0,.53,0,.27-.18.53-.18.8,0,.17,0,.35,0,.52.01.15.15.4.1.55.27h0c.1.08.19.17.27.27h0c.25.21.03.59.27.81,0,.17,0,.34,0,.51-.24.23-.02.59-.26.82,0,.17,0,.34-.01.52-.15.16-.1.4-.26.56h0c-.17.14-.11.39-.26.53-.01.08-.02.17-.01.25-.09.09-.16.2-.26.28Z"/>
  <path class="st66" d="M43.84,67.21l-.1-.04h-.11c-.13-.05-.23-.15-.34-.24h0c-.13-.18-.38-.13-.52-.27h0c-.13-.17-.38-.11-.53-.26l-.1-.04h-.1c-.12-.01-.17-.08-.16-.2-.4-.8-1.5-.83-1.88-1.65-.07-.52.42-.98.12-1.54-.17-.32.13-.48.41-.51.4-.05.78-.14,1.12-.38.11-.05.23-.06.35-.02.22.19.42.41.73.46.12,0,.22.06.31.14h0c.1.08.18.17.28.26h0c.14.16.4.11.53.29h-.01c.11.06.2.16.29.25h0c.25.21.57.32.79.57v-.02c.11.07.2.16.27.28h-.02c.16.19.35.37.55.54v-.02c.1.07.2.17.27.28h-.02c.16.14.26.43.46.42.27-.01.21-.32.24-.52.2-1.36-.3-2.67-.26-4.02.19-.53-.17-1.05-.05-1.58.11-.45.31-.88.76-1.02.4-.13.56.38.84.51,2.18,1.06,1.41,3.17,1.77,4.87.09.43,0,.88.44,1.19.27.2.42.59.3.84-.6,1.23.08,2.55-.34,3.78-.1.17-.24.29-.43.35-.42-1.53-1.96-1.65-3-2.39-.38-.27-.75-.44-1.26-.31.11.47.16.93-.19,1.33-.78.05-.73-.76-1.12-1.1h0c-.1-.06-.19-.14-.29-.23Z"/>
  <path class="st8" d="M40.88,20.61c0,.17,0,.35.01.52.27,1.39.06,2.8.13,4.19,0,.15,0,.31,0,.46.01.16-.03.3-.13.43,0,.08-.01.17,0,.25-.31.41.05.94-.25,1.35-.01.08-.01.17-.01.26-.21.24-.1.52-.14.79,0,.11-.05.21-.13.29h0c-.29.3.02.76-.27,1.07h0c-.16.14-.11.39-.27.54h0c-.1.09-.21.1-.34.05-.74-.71-1.5-1.04-2.35-.15-.15.16-.37.22-.59.09-.07-.19-.08-.37.07-.53.01-.08.01-.17,0-.25.16-.15.1-.4.25-.55.01-.09.02-.17.01-.26.29-.31-.02-.77.26-1.08,0-.17,0-.34,0-.52.35-.78-.09-1.65.26-2.43.01-.08.01-.17,0-.25.21-.72.22-1.45,0-2.17v-.52c-.08-.07-.12-.16-.13-.26,0-.19.01-.4-.14-.56,0-.08,0-.17,0-.25-.24-.22-.01-.59-.26-.81h0c-.16-.15-.11-.4-.27-.55,0-.09,0-.17-.01-.26-.18-.36-.2-.71.01-1.07h0c.14-.16.4-.1.54-.27.09,0,.18,0,.26-.01.63-.26,1.25-.29,1.87.02h0c.08.06.17.11.27.16.04.03.08.07.12.1.1.12.21.23.32.33.08.07.15.14.22.21.04.09.09.18.16.26h0c.16.14.11.39.27.54h0c.25.22.03.59.27.82Z"/>
  <path class="st101" d="M80,54.05c0-.08,0-.17,0-.25-.24-.23-.03-.6-.26-.83,0-.17,0-.34-.01-.51-.15-1.09-.41-2.19.29-3.21h0c.11-.1.24-.15.39-.14.49.07,1.01-.15,1.47.15h-.01c.1.07.2.16.28.26h0c.17.13.12.38.28.52h0c.1.09.19.19.26.31,0,.08,0,.15.02.23.16.16.11.4.25.57,0,.08,0,.16.02.24.28.31-.03.77.26,1.07h0c.16.15.12.4.26.57,0,.08,0,.16.02.23.24.23.02.59.26.82,0,.08,0,.17.01.25.23.23.03.6.25.83,0,.17.02.34.02.51.21.24.02.59.24.83,0,.08,0,.16.02.24.28.32-.02.77.25,1.09,0,.17.01.34.02.51.21.29.09.63.11.94-.05.14-.22.24-.28.16-.85-1.07-2.18-.82-3.27-1.2-.12-.03-.23-.09-.31-.19,0-.09,0-.17-.02-.26-.15-.15-.1-.39-.25-.54h0c-.08-.07-.13-.17-.14-.28-.03-.27.07-.55-.13-.79h0c-.22-.22-.12-.51-.14-.77-.06-.46.13-.94-.13-1.38Z"/>
  <path class="st32" d="M38.72,56.79c-.3-.54-.59-1.08-.9-1.61-.95-1.62-2.17-2.96-3.9-3.79-.75-.28-1.23-.83-1.53-1.55.22-.44.13-.73-.4-.8-.07-.1-.12-.21-.15-.33.26-.85-.16-1.46-.72-2.02.03-.31-.11-.64.15-.92h-.01c.07-.1.17-.19.28-.26h0c.08-.11.19-.2.31-.26.08,0,.15-.01.23-.04.45-.14.89-.19,1.33.03h0c.09.08.18.18.27.26h0c.09.09.17.18.27.27h0c.09.1.18.18.26.29h0c.11.07.2.16.27.27h-.01c.18.12.12.38.29.51h0c.09.1.18.18.26.28h0c.12.12.17.3.28.43.1.11.17.25.26.38h0c.17.13.12.38.28.52h0c.1.09.19.19.26.31,0,.08,0,.15.04.23.08.09.16.18.24.27h0c.09.08.19.17.26.28h-.01c.08.06.13.15.15.25.02.1.06.19.14.27h0c.09.09.18.17.27.25h.01c.08.11.16.2.25.28h0c.09.09.18.18.26.28h0c.1.08.19.17.27.28h0c.11.07.2.16.27.27h-.01c.18.11.12.38.3.5h0c.08.11.17.19.25.29h0c.1.09.2.19.26.32,0,.08,0,.15.03.22.08.09.16.19.24.28h-.01c.08.06.13.15.15.25.02.1.06.2.12.28h0c.17.15.16.32.03.49-.43.24-.69-.37-1.11-.22-.39,1.04,1.12,1.9.28,2.97Z"/>
  <path class="st102" d="M44.12,55.34c0-.07,0-.14-.04-.21-.08-.09-.16-.19-.24-.28h0c-.1-.07-.2-.16-.27-.28h.01c-.21-.21-.36-.47-.52-.72-.32-.56-.41-1.28-1.09-1.6-1.05-1.57-.1-3.06.19-4.57.05-.27.29-.42.58-.46.97.23,1.09,1.37,1.9,1.78.09.08.17.17.25.26h0c.1.08.2.16.27.28h-.01c.19.11.13.37.3.51h0c.08.1.18.18.26.29h-.01c.11.07.2.16.27.27h-.01c.16.11.15.29.15.47-.05.38-.3.9.49.71.12.02.22.07.31.14.16.18.27.39.36.61.19.59.42,1.15.87,1.6.12.13.18.3.27.46h0c.15.15.1.4.26.54h0c.15.15.1.4.26.54h0c.16.16.13.41.25.59-.02.07-.01.14.01.21.25.22.02.59.27.81h0c.3.3-.02.76.27,1.07h0c.16.15.15.33.08.52-.15.11-.36.18-.5.08-.9-.62-1.7-1.37-2.64-1.95-.58-.36-.78-1.14-.49-1.92.19-.51.11-1.05-.25-1.49-1.01.22-1.2,1.08-1.5,1.85-.13.07-.23.04-.29-.1Z"/>
  <path class="st15" d="M79.17,63.22c-.02.07-.02.13,0,.2,0,.05,0,.1,0,.15,0,.21.01.41.08.61.04.1.06.21.06.32,0,.35.29.62.28.97-.06.73-.21,1.47.19,2.16.04.12.04.24,0,.36-.1.16-.26.25-.42.33-.51.48-.61,1.11-.61,1.77,0,.12-.05.23-.15.31h0c-.14.17-.1.42-.23.6-.22.2-.08.55-.3.75h0c-.15.15-.11.38-.22.56-.14.15-.18.37-.33.51h.01c-.08.1-.17.19-.28.27h0c-.08.1-.17.19-.28.26h0c-.08.11-.19.2-.32.26-.07,0-.14,0-.21.03-.11.09-.22.09-.32-.01-.16-.74-.07-1.35.55-1.92.55-.5.69-1.32,1.07-1.97.32-.55.07-1.04-.39-1.4-.59-.47-.83.06-1.17.4-.25.26-.38.9-.98.44-.13-.34-.08-.67.02-1.01.05-.84.01-1.69.02-2.53.2-1.27.34-2.53.19-3.82-.06-.51-.05-1.14.53-1.39.63-.27,1.1.16,1.51.57.57.56.82,1.36,1.4,1.93.08.1.16.2.23.3Z"/>
  <path class="st56" d="M65.27,42.55c-.57.93-.71,2.05-1.35,2.95-.39-.28-.7-.65-1.1-.92-.45-.3-.89-.54-1.4-.06-.41.39-.86.35-1.28-.02-.07-.12-.06-.23.04-.33h0c.16-.14.11-.39.28-.53h0c.15-.14.11-.39.26-.54h0c.25-.21.03-.59.27-.8h0c.16-.14.11-.38.25-.53.03-.08.04-.16.04-.24.14-.17.09-.42.25-.57.02-.08.03-.15.02-.23.22-.24.01-.61.27-.83h0c.28-.31-.03-.76.26-1.08.02-.07.03-.15.01-.22.17-.37.2-.82.56-1.1.08,0,.15,0,.23-.02.3-.21.65-.08.97-.12.14,0,.26.04.36.13.08.02.16.02.24,0,.45.15.89.32,1.09.81h0c.34.39-.04.94.28,1.34,0,.34,0,.69,0,1.03-.28.32.03.78-.27,1.09h0c-.23.22-.03.57-.25.8Z"/>
  <path class="st48" d="M44.64,78.98c-.04.07-.05.14-.03.21-.17.26-.08.58-.16.86-.16.33-.23.68-.29,1.03-.09.16-.22.29-.35.42-.89-.24-1.91.75-2.72-.27-.07-.11-.12-.23-.17-.35-.18-1.26.1-2.48.27-3.71.17-.46.7-.83.3-1.44-.17-.26-.03-.61.19-.86.8-.88.81-1.95.78-3.04.09-.1.19-.18.3-.25.26-.11.51-.1.77-.02.18.05.4.03.53.21l-.02-.02c.19.13.14.39.29.54h0c.17.13.13.38.26.55v-.02c.27.21.04.59.28.81h0c.3,1.79.23,3.57-.25,5.34Z"/>
  <path class="st110" d="M44.37,55.4q0-1.32,1.72-2.51c.24.89.91,1.7.24,2.68-.17.24-.05.53.15.73.33.31.53.69.68,1.12.44-.02.05-.6.46-.63.42-.03.52.3.65.57.31.68.55,1.41,1.45,1.54.16.03.17.18.26.28h0c.12.43-.02.93.27,1.34h0c.7,2.52.71,5.12.7,7.71.04.13.09.26.15.38.12.35,0,.61-.31.79-.11.09-.19-.12-.21-.07-.07.13.13.16.15.28.03.54.12,1.15-.77.8-.06-.08-.1-.18-.11-.28,0-.15.14-.23.17-.37,0-.04-.01-.09-.02-.13-.16-.97.05-1.98-.25-2.94-.06-.18.05-.19.12-.29.46-.66.43-1-.21-1.33-.3-.15-.34-.27-.32-.59.1-1.52-.17-3.02-.32-4.53-.01-.11-.19-.32-.2-.31-1.22.64-.92-1.1-1.56-1.02-.55.07-.76.8-.61,1.47.05.24.22.52-.13.69-.1-.08-.18-.17-.24-.28h0c-.09-.07-.14-.17-.14-.29-.03-.33.08-.69-.17-.99-.12-.2-.1-.44-.22-.64,0-.08,0-.15-.04-.22-.14-.15-.08-.39-.25-.52h0c-.14-.16-.1-.4-.25-.55h0c-.17-.14-.12-.39-.27-.54h0c-.17-.13-.12-.38-.28-.53h0c-.16-.14-.11-.39-.28-.52h0c-.07-.07-.09-.13-.06-.19.02-.06.05-.09.07-.09Z"/>
  <path class="st22" d="M42.77,47.37c-.21.09-.47.25-.39.45.17.41-.15.75-.06,1.15.14.63-.91.73-.71,1.41.14.48.66.84.49,1.43-.04.13-.09.25-.13.37-.04.04-.07.07-.11.11-.05,0-.1,0-.15,0-.04-.03-.08-.06-.12-.1-.04-.09-.1-.17-.18-.25h0c-.08-.11-.16-.2-.25-.29h0c-.09-.09-.19-.18-.27-.28h0c-.1-.08-.2-.17-.27-.27h.01c-.18-.11-.12-.38-.3-.5h0c-.08-.11-.16-.2-.25-.29h0c-.1-.09-.19-.19-.26-.3,0-.08,0-.16-.03-.23-.08-.09-.16-.18-.24-.27h0c-.11-.08-.2-.18-.26-.31,0-.08,0-.15-.03-.22-.08-.09-.16-.18-.24-.28h0c-.17-.13-.12-.38-.28-.52h0c-.09-.09-.19-.18-.27-.28h0c-.1-.07-.19-.17-.27-.27h0c-.1-.07-.2-.16-.28-.27h0c-.1-.07-.19-.17-.28-.27h0c-.1-.08-.19-.17-.27-.27h.01c-.08-.05-.11-.11-.09-.18.02-.06.05-.1.07-.1,0-.04.01-.09.02-.13.06-.51.79-.28.84-.69.07-.58.03-1.17.29-1.72-.12-.04-.23-.08-.35-.13h0c.13-.63.62-.74.93-.33.56.75,1.46,1.12,2.02,2.24v-1.1c.06-.02.12-.03.19-.05.73.77,1.4,1.58,1.43,2.72Z"/>
  <path class="st93" d="M59.92,72.29c1.22-1.38,1.48-3.13,1.9-4.83.23-.37.27-.89.79-1.03,1.44-.04,1.3-.04,1.25,1.31-.06,1.31.13,2.64.07,3.96,0,.12-.01.25-.04.37-.03.12-.07.23-.13.33-.22.33-.45.65-.61,1.01-.05.1-.11.19-.17.28-.06.09-.14.17-.21.25-.04.04-.08.08-.11.12-.07.08-.15.16-.23.24-.04.04-.08.08-.11.12-.15.15-.31.3-.46.46-.07.08-.15.15-.23.22-.08.07-.16.13-.25.18-.05.02-.09.04-.14.07-.1.04-.19.08-.27.14v-.02c-.12.2-.38.15-.54.28h.01c-.13.18-.39.13-.54.28h0c-.14.16-.39.12-.54.27h0c-.15.16-.39.13-.56.25h.01c-.08.09-.19.15-.33.15-.19,0-.38.03-.52-.16.55-.9,1.08-1.8,1.55-2.74.23-.47.52-.94.39-1.51Z"/>
  <path class="st46" d="M51.08,37.47c.02-.26-.06-.7.06-.77.98-.55.64-1.66.92-2.45.29-.8.51-1.75.61-2.66.01-.13.06-.25.12-.44.5-.04.72.23,1,.63.49.72,1.1,1.38,2.1,1.39.19.36.18.71,0,1.07,0,.18,0,.35-.01.53-.3,1.08-.05,2.17-.13,3.26-.02.36.27.4.49.52.26.47.07.89-.12,1.32-.19.35-.37.71-.77.88-.34,0-.44-.25-.48-.53-.04-.26,0-.53,0-.8-.02-1.69-.34-1.93-2.53-1.79-.44.03-.87.2-1.25-.16Z"/>
  <path class="st75" d="M44.92,34.81c.02-.33-.28-.65.02-1.01.31-.37.33-.71-.21-.92-.3-.12-.12-.37-.11-.57.04-.48.03-.96.19-1.44.11-.34-.17-.58-.46-.71-.27-.13-.4.12-.49.31-.43.94-1.58.91-2.16,1.64-.16-.16-.13-.33-.06-.51.27-.49.53-.97.47-1.56,0-.13.05-.24.14-.33h0c.15-.15.1-.39.27-.54h0c.16-.14.11-.39.27-.54h0c.15-.14.11-.39.27-.53h0c.08-.09.18-.18.26-.27h0c.2-.33.48-.59.8-.81h0c.1-.09.19-.17.28-.26.09,0,.18,0,.26-.02.09-.08.19-.16.29-.24.17,0,.34-.01.52-.02.37-.22.77-.09,1.16-.1.33.11.51.39.71.65h0c.15.16.1.4.26.55,0,.08,0,.17,0,.25.16.18.15.36,0,.53h0c-.24.21-.03.59-.27.8h0c-.24.42-.3.91-.54,1.34h0c-.15.14-.11.39-.26.54h0c-.25.21-.03.59-.27.8h0c-.15.15-.13.35-.14.55-.02.1-.06.18-.14.25h0c-.15.15-.1.39-.26.54h0c-.18.18-.12.41-.14.62,0,.11-.02.22-.04.34-.14.29-.11.72-.61.67Z"/>
  <path class="st84" d="M81.04,58.09c.35-.12.67-.45,1.07-.04.58.6,1.23.59,1.84,0,.34.47.15,1.06.6,1.36.15.04.17.19.25.3-.01.08,0,.16.01.24.27.63.08,1.29.12,1.94-.38.68-.24,1.49-.51,2.19-.39.45-.61,1.01-.97,1.48h.01c-.08.1-.17.19-.27.27h0c-.28.15-.5.49-.89.26-.95-1.18-.84-2.63-1.01-4.01-.03-.13-.05-.25-.08-.38-.08-.49.13-1.02-.14-1.49h0c-.15-.12-.15-.28-.12-.46-.05-.11.34-.15.05-.31-.05-.1-.08-.21-.07-.33.04-.34-.1-.7.11-1.03Z"/>
  <path class="st18" d="M62.58,66.66c-.33.19-.37.67-.77.8-.03-1.73.25-3.44.43-5.15.09-.87-.16-1.79.33-2.61.19-.24.62-.6.71-.3.43,1.37,1.38.41,2.07.56,1.26,1.79.93,3.71.47,5.64-.38.65-.92.25-1.41.2-.78-.07-1.57-.17-1.83.86Z"/>
  <path class="st112" d="M62.33,35.05c-.02.08-.03.17-.02.25-.12.06-.23.05-.35-.01-.45-.38-.9-.59-1.34-.01-.51.66-1.21.61-1.91.54-.56.07-.77.99-1.52.62-.07-.12-.05-.22.05-.31h0c.09-.08.17-.18.26-.27h0c.16-.14.11-.4.28-.53h0c.08-.1.17-.18.27-.27h0c.09-.09.18-.17.26-.27h0c.17-.14.11-.39.28-.53h0c.08-.09.18-.18.26-.27h0c.17-.14.12-.39.27-.53h0c.16-.14.11-.38.25-.53.02-.08.03-.16.02-.25.15-.16.1-.41.27-.56h0c.15-.14.11-.39.27-.54h0c.25-.21.03-.59.27-.8h0c.09-.08.17-.18.26-.27.11-.14.2-.29.24-.47.11-.49-.08-1.13.65-1.29.69-.15,1.21.14,1.61.67.29.38.65.73.83,1.19-.02.33.11.67-.13.97h0c-.24.22-.03.58-.26.81h0c-.26.21-.03.59-.27.8-.01.08-.02.16-.01.24-.14.16-.1.41-.26.57h0c-.16.14-.11.39-.26.53-.01.08-.02.16-.01.25-.08.1-.16.19-.24.29Z"/>
  <path class="st82" d="M55.07,59.2c-.02.06-.02.13,0,.19-.29.76-.02,1.56-.16,2.33-.07.11-.18.18-.31.19-.31-.14-.46-.42-.63-.69-.07-.1-.12-.21-.18-.32-.48-.65-.75-1.4-1.09-2.23-.34,1-.46,1.95-.54,2.91-.05.71-.13.72-.69.52-.06-1.17.14-2.35-.12-3.51.02-.08.02-.15,0-.23-.14-1.34-.96-2.68.01-4.01l-.02.02c.2-.28.59-.04.8-.29h0c.54-.21,1.07-.23,1.6.02h-.02c.11.06.2.16.28.27h-.01c.32.27.36.71.55,1.06h0c.25.21.03.58.27.8h0c.38.96-.09,2,.27,2.97Z"/>
  <path class="st13" d="M60.2,44.43c.43.01.96.39,1.2-.31.1-.28.33-.22.54-.23.82-.04,1.73.7,1.98,1.6-.91,1.74-1.82,3.49-2.93,5.12-.11-.08-.18-.19-.2-.32-.09-.69.11-1.49-.36-2.03-.49-.57-1.23.29-1.85-.08l-.05-.04c-.12-.27-.17-.53.06-.77h0c.14-.15.09-.4.27-.53h0c.14-.15.09-.4.28-.53h0c.14-.15.09-.4.27-.54h0c.14-.15.1-.4.27-.54h0c.15-.14.1-.39.27-.54h0c.09-.1.11-.26.29-.27Z"/>
  <path class="st92" d="M70.1,66.65c.41-.4.21-.91.24-1.38.03-.52,0-1.05,0-1.58,1,.03,1.56.82,2.37,1.13.29.11.24.56.08.66-.87.55-.19.95.19,1.08.66.23.56.69.58,1.16-.02.06-.03.12-.05.17-.46.6-.45,1.33-.53,2.03-.1.77-.89,1.21-.94,2.01-.09.24-.11.5-.35.66-.13.03-.25.01-.36-.06-.41-.75-.19-1.41.17-2.13.52-1.05.26-1.39-.92-1.45-.41-.02-.8-.09-1.06-.45.19-.62.38-1.25.57-1.87Z"/>
  <path class="st129" d="M49.7,48.5c0,.16.02.32.02.48.2.98.21,1.96,0,2.94h0c-.31.18.12.81-.48.83-.79-.73-1.18-1.76-1.96-2.5-.14-.18-.21-.4-.28-.61-.07-.15-.12-.3-.2-.44.01-.08,0-.16-.02-.23-.16-.15-.1-.4-.26-.54h0c-.16-.14-.12-.39-.26-.55h0c-.27-.2-.05-.58-.28-.8h0c-.22-.7.34-.84.79-1.05h0c.35-.21.71-.19,1.07-.01.07.02.15.03.22.02.12.07.22.16.31.26h0c.09.09.18.18.27.26h0c.09.09.17.18.27.27h0c.09.1.18.18.26.29h-.01c.19.13.14.39.28.56,0,.08,0,.15.02.23.16.16.12.41.24.59Z"/>
  <path class="st109" d="M41.15,81.12c.3.05.51.57.8.33.65-.56,1.26-.18,1.89-.06.14.14.12.32.12.49,0,.12-.06.22-.15.3h0c-.19.22-.08.51-.17.76-.17.21-.24.46-.24.73-.1.23-.3.43-.25.71,0,.1-.03.2-.06.3-.06.14-.12.29-.2.42-.06.08-.13.16-.21.23-.19.18-.29.43-.48.61h.02c-.07.1-.17.2-.28.27h.01c-.07.1-.17.2-.28.26v-.02c-.07.13-.23.16-.34.25-.07.07-.14.13-.23.19-.09.03-.18.07-.28.1-.07-.01-.14,0-.21.04-.86.29-1.21-.07-1.18-.92.42-.53.66-1.16.93-1.77h0c.37-.57.31-1.27.55-1.87h0c.29-.4-.06-.93.25-1.34Z"/>
  <path class="st120" d="M32.04,73.85c.06.05.13.07.2.06.13.05.24.14.34.23h0c.14.12.34.13.48.25.34.29.66.59.85,1.01.26,1.03.99,1.97.53,3.12-.28.14-.55.1-.79-.09h0c-.22-.24-.59-.02-.81-.26h0c-.59-.29-1.3-.32-1.81-.8-.65-1.08-.97-2.29-1.32-3.48-.13-.42-.18-.89.32-1.18.15-.04.28,0,.4.1h0c.14.17.4.11.52.3l-.02-.02c.11.06.19.17.3.23h.02c.12.2.38.13.51.31h-.01c.09.07.18.14.28.21Z"/>
  <path class="st118" d="M56.18,63.45c.18-.02.31-.13.46-.21.54-.29-.41-.83.16-.99.34-.1.76.1,1.14.09.25,0,.5-.16.76-.22.88-.19,1.45.25,1.47,1.12,0,.53.01,1.06.02,1.59-.04.92-.18,1.82-.53,2.68-1.5.12-1.56,0-.99-2.22-1.03-.35-2.03-.61-2.59.74-.08.19-.35.24-.56.04-.02-.26-.09-.52.12-.74h0c.28-.3-.03-.76.27-1.07h0c.06-.06.12-.13.17-.19.07-.13.03-.26,0-.39-.01-.1.03-.17.12-.21Z"/>
  <path class="st119" d="M30.16,72.82c-.43.38-.22.78-.07,1.2.39,1.11.77,2.22,1.15,3.33-.06.18-.22.14-.36.15-.1-.01-.19-.04-.28-.08-.13-.05-.27-.11-.39-.18-.08-.05-.15-.12-.22-.19-.11-.1-.26-.12-.36-.22h0c-.08-.08-.15-.17-.21-.27-.12-.51-.73-.24-.94-.6-.08-.83-.35-1.48-1.14-1.96-.7-.43-1.29-1.08-1.79-1.77-.03-.06-.05-.12-.08-.18-.03-.13-.04-.25-.02-.38.04-.12.11-.22.21-.3.04-.34.57.46.53-.26-.04-.83.35-.9.96-.37.37.31.7.7,1.18.85.17.02.36.01.48.17h-.02c.08.05.14.14.16.24.13.27.41.29.63.39.1.02.2.05.29.1.06.05.13.07.21.07.09.04.13.09.12.15-.01.07-.03.1-.06.1Z"/>
  <path class="st115" d="M55.63,66.12c.25-.13.44-.31.49-.59.06-.35.03-.85.43-.88.45-.03,1.02-.34,1.38.07.41.47.72-.02,1.1.02.17.66-.27,1.19-.38,1.78-.1.49-.28,1.12.64.56.24-.15.31.21.36.42-.29,1-.51,2.03-1.05,2.94-.05-.04-.1-.08-.15-.11-.36-.51-.06-1.13-.25-1.72-.77.25-1.49.36-1.89-.58-.14-.34-.35-.32-.61-.08-.2.18-.37.59-.73.2-.08-.64.27-1.17.41-1.76h0c.08-.09.1-.25.27-.27Z"/>
  <path class="st104" d="M67.39,68.54c.29.61.68,1.17.84,1.84.57.41.28.93.19,1.43-.27.63-.15,1.45-.88,1.87-.36-.24-.53-.68-.92-.89v.02c-.1-.07-.19-.17-.27-.27h0c-.1-.07-.19-.17-.28-.26h0c-.09-.09-.19-.18-.26-.29h.01c-.11-.06-.21-.16-.28-.27h.01c-.12-.06-.21-.15-.28-.27l.02.02c-.17-.11-.16-.29-.19-.46-.08-.22-.23-.41-.31-.64-.05-.11-.08-.23-.11-.35-.16-.84-.03-1.62.46-2.33.37-.26.78-.53,1.09.03.26.48.77.55,1.15.81Z"/>
  <path class="st78" d="M78.92,63.18c-.5-.3-.91-.67-1.1-1.26-.2-.63-.7-.99-1.28-1.26-.42-.19-.68-.08-.7.42-.01.34-.07.67-.04,1.03.08,1.08.39,2.22-.37,3.21-.18-.09-.35-.19-.42-.4-.05-.2.03-.4.03-.6-.05-.6.15-1.23-.23-1.78-.06-.56-.06-1.12,0-1.67.32-.33.12-.82.37-1.17h0c.15-.14.1-.4.28-.53h-.01c.13-.17.39-.12.54-.27h0c.22-.24.59-.03.81-.26h0c.09-.09.21-.14.34-.14.25.02.51-.07.73.14h0c.1.08.19.17.27.27h0c.11.08.2.18.27.3,0,.08,0,.15.02.22.24.22.01.59.26.81h0c.24.23.04.6.26.83,0,.17.02.34.03.51.17.53.19,1.07-.01,1.6Z"/>
  <path class="st98" d="M67.39,68.54c-.64.26-1.27,0-1.37-.54-.15-.75-.54-.12-.75-.27-.45-.7-.17-1.3.26-1.88.32-1.69.46-3.37.02-5.06-.09-.36-.19-.67-.55-.84-.54-.26-.34-.54-.03-.82h0c.99-.69,1.32.18,1.63.78.71,1.39.63,2.87.29,4.35-.17,1.46.11,2.88.5,4.27Z"/>
  <path class="st33" d="M58.58,48.19c.33-.25.75-.23,1.12-.35,1-.31,1.18-.22,1.26.82.05.65.02,1.3.02,1.95-.38.84-.85,1.63-1.4,2.38-.37-.02-.55-.29-.63-.59-.21-.81-.4-1.62-.79-2.36-.11-.22-.07-.43.09-.61.34-.36.29-.81.32-1.25Z"/>
  <path class="st38" d="M70.08,31.03c.44-.42.48-.04.55.27.19.98.21,1.97-.02,2.95-.03.09-.03.17,0,.26.18.21.25.46.22.73-.05.13-.11.24-.2.34-.16.28-.24.62-.54.81-.45-.77-.82-.68-1.22.06-.26.48-.31,1.1-.86,1.39-.13.02-.24-.03-.31-.14h0c-.09-.06-.13-.16-.14-.27-.03-.27.07-.55-.13-.79h0c-.25-.27-.1-.62-.15-.94-.11-.82.11-1.55.61-2.2.07-.11.15-.2.24-.3.62-.75,1.49-1.29,1.96-2.17Z"/>
  <path class="st76" d="M47.06,42.24c0-.08,0-.15-.01-.22-.14-.87-.48-1.79.53-2.41h0c.16-.15.4-.11.57-.25.16,0,.31,0,.47,0,.17.14.41.1.57.25h0c.08.09.17.18.27.27h0c.08.1.18.19.26.28h0c.17.12.11.38.29.51v.02c.08.1.11.22.09.34-.32,1.12-.11,2.18.38,3.21.16.34.55.62.31,1.08-.19.06-.37.07-.52-.09h0c-.1-.07-.19-.16-.28-.25h0c-.14-.16-.4-.11-.53-.28h0c-.39-.23-.71-.54-1.08-.81h0c-.11-.06-.2-.16-.28-.26h0c-.11-.07-.2-.16-.28-.26h0c-.1-.07-.19-.17-.28-.27h0c-.1-.07-.2-.16-.27-.27h.01c-.18-.14-.14-.39-.27-.56Z"/>
  <path class="st91" d="M68.2,71.75c-.08-.45.28-.9.02-1.36.23.02.41-.05.54-.24.22-.16.43-.32.5-.6.1-.38.27-.69.73-.58.37.09.7.38.67.74-.09,1.31.58,2.51.52,3.8,0,.19-.04.38-.1.56-.06.18-.14.35-.24.51-.04.05-.08.1-.12.15-.05.04-.09.08-.14.12-.35.77-.35,1.68-.94,2.36-.13.01-.25-.02-.36-.09-.54-.66-.27-1.42-.3-2.16-.05-1.12.05-2.3-.79-3.23Z"/>
  <path class="st103" d="M59.92,72.29c.29.04.63.21.46.49-.79,1.25-.98,2.87-2.35,3.75-.15.22-.34.38-.58.49-.26.08-.52.07-.78.01-.32-.1-.65-.19-.89-.45-.33-1,.36-1.69.75-2.47.21-.2.42-.39.74-.24,1.02-.29,1.72-1.12,2.64-1.57Z"/>
  <path class="st95" d="M36.3,69.86c.67-1.3,1.69-1.99,3.19-1.81,0,0,.01-.04.01-.04.2.14.16.4.28.58-.02.07-.02.14.01.2.38.62.14,1.13-.29,1.6h.01c-.3.42-.45.94-.81,1.34h.01c-.44.67-.75,1.41-1.08,2.14v-.02c-.11.09-.22.1-.33,0,.18-1.46-.65-2.67-1.01-4Z"/>
  <path class="st11" d="M36.6,30.77c.31-.12.42-.45.64-.64.83-.72,1.78-.44,2.31.66.17.27.19.53-.02.78h0c-.06.07-.1.17-.12.27-.02.1-.07.19-.15.26h0c-.15.15-.1.4-.27.54h0c-.15.14-.11.39-.27.54h0c-.38.36-.34.9-.54,1.34h0c-.15.15-.1.39-.26.54h0c-.05.03-.11.06-.16.1-.12-.04-.22-.12-.28-.23-.33-.84-.46-1.77-1.27-2.35-.11-.05-.19-.13-.26-.23-.04-.17-.05-.34.08-.49.02-.09.02-.17.02-.26.15-.16.13-.36.14-.56.02-.1.07-.18.14-.25h0c.08-.13.16-.14.26,0Z"/>
  <path class="st59" d="M65.81,49.51c0,.1-.02.2-.02.3-.31-1.01,0-2,.17-2.97.22-1.27.6-2.5.92-3.75.3-.3-.03-.77.28-1.07h0c.2-.23.1-.52.13-.78,0-.11.06-.21.14-.29h0c.23-.22.02-.59.26-.81h0c.16-.14.11-.39.27-.54h0c.26-.21,0-.6.28-.81.3.22.24.55.26.85.03.32.2.48.53.44.21-.03.6-.14.55.06-.07.29-.4.52-.16.89-.7.17-.81.74-.98,1.33-.1.33-.7.04-.94.49.12.42.88.81.27,1.41-.07.07-.02.29-.1.34-.3.2-.98-.02-.86.58.12.63.05,1.34.55,1.87.03.03.07.05.1.09.18.17.28.37.08.57-.17.17-.29-.05-.45-.11-.83-.36-1.03-.25-.93.66.06.51-.21.84-.34,1.25Z"/>
  <path class="st30" d="M30.72,40.92c-.34-.98-.49-2.04-1.17-2.89-.31-.39-.08-.74.08-1.1.09-.08.18-.08.27,0l-.02.06c.11.04.19.11.25.22l.03.03c.09.05.18.08.28.1.1.01.19.05.27.12.07.03.14.05.21.04.14.04.3.07.32.26.87.62,1.26,1.57,1.58,2.51.13.38.89.69.28,1.24-.35.13-.71.2-1.05-.04h.01c-.31-.28-.78.05-1.08-.28h.02c-.11-.07-.28-.09-.28-.27Z"/>
  <path class="st29" d="M31.78,51.65c-1.24-.25-2.26-.84-2.96-1.92-.16-.25-.24-.57-.51-.75-.2-.27-.2-.53,0-.8h0c.08-.09.17-.17.25-.27h0c.09-.09.18-.17.27-.27h0c.09-.09.18-.18.27-.27h0c.09-.1.2-.19.32-.25.15,0,.29,0,.44,0,.11.06.21.15.3.23.07.03.15.04.23.04.12.07.22.16.31.27h0c.1.07.2.16.27.27h-.01c.09.07.18.15.27.22.25.27.47.55.33.96-.66.91.45,1.66.23,2.53Z"/>
  <path class="st105" d="M51.85,25.15c.52-1.58,1.33-2.99,2.62-4.08.18-.15.38-.21.6-.21.16.17.16.35.02.53-.02.08-.03.17-.02.25-.17.15-.07.42-.27.55-.5.57-.16,1.26-.27,1.88-.87.82-1.24,1.95-1.8,2.97-.12.07-.23.06-.34-.03h0c-.16-.15-.12-.39-.26-.55h0c-.26-.2-.04-.58-.28-.8h0c-.15-.16-.17-.34-.02-.52Z"/>
  <path class="st99" d="M63.66,30.5c-.6-.04-.71-.6-1-.95-.26-.33-.54-.61-.97-.57-.37.03-.78.05-.73.66.03.43.23,1.03-.54,1.12-.15-.27-.17-.53.02-.79,0-.09.01-.17,0-.26.35-.59-.08-1.29.26-1.89,0-.09,0-.17,0-.26.16-.14.11-.41.29-.54.08,0,.16,0,.25-.01.54-.19,1.07-.21,1.6.01h0c.09.08.18.17.27.27h0c.09.09.18.18.27.27h0c.16.14.11.39.27.54h0c.07.07.12.15.13.25.01.19-.02.4.14.56,0,.52,0,1.05,0,1.57-.07.14-.16.15-.26.02Z"/>
  <path class="st47" d="M66.88,64.27c0-1.4,0-2.8-.55-4.12-.25-.59-.47-1.27-1.37-1.01.25-.77.95-.86,1.58-1.02.32-.08.65.08.76.41.31.91.81,1.77.42,2.82-.35.94-.4,1.99-.85,2.91Z"/>
  <path class="st12" d="M70.89,73.63c-.06-.85-.1-1.71-.55-2.47-.24-.41-.01-.78.09-1.14.12-.46-.13-.69-.46-.81-.39-.15-.37.25-.47.47-.14.31-.39.46-.73.48.19-.45.37-.9.56-1.35.07-.09.14-.19.21-.28,0,0,0,0,0,0,.54-.1,1.04.39,1.65-.03.41-.28.94.2.87.76-.07.56.1,1.15-.47,1.67-.42.38-.11,1.09-.16,1.66.26.57.14.95-.54,1.06Z"/>
  <path class="st20" d="M70.62,35.59l.04-.32c.12-.21.28-.38.51-.47h0c.08-.1.17-.19.27-.28h0c.08-.09.17-.19.28-.27h0c.13-.16.39-.11.53-.28h0c.23-.23.59-.03.82-.26h1.56c.28.18.57.33.82.54h0c.17.14.12.39.27.55,0,.08,0,.17.02.25.14.17.14.35,0,.53,0,.09-.01.18-.02.27-.2.35-.25.77-.53,1.08h0c-.09.08-.17.17-.25.27v.02c-.19.12-.13.38-.3.51h0c-.09.1-.19.11-.31.05-.06-.12-.05-.22.04-.32-.15-.42-.57-.76-.07-1.29.48-.5.05-.99-.34-1.37-.37-.36-.81-.56-1.31-.22-.26.17-.66.31-.73.55-.25.79-.82.43-1.29.46Z"/>
  <path class="st74" d="M70.08,31.03c0,.58.06,1.15-.71,1.38-.51.15-.62.85-1.16,1.04-.3.71-.83,1.33-.81,2.16-.1.1-.19.09-.25-.05,0-.17,0-.34,0-.5-.1-.11-.15-.25-.13-.4.05-.57-.13-1.16.12-1.72.14-.68.37-1.24,1.17-1.45.52-.13.76-.7,1.13-1.07.39.04.35.51.66.62Z"/>
  <path class="st70" d="M27.25,67.12c0-.07-.01-.14-.05-.2-.07-.09-.15-.17-.24-.24h-.01c-.08-.11-.16-.19-.26-.27h-.01c-.07-.11-.11-.22-.11-.34.25-.74-1.04-1.25-.31-2.07.1-.07.21-.11.34-.09.78.53,1.08,1.44,1.69,2.12.17.18.03.41-.22.49-.12.05-.16-.14-.27-.09.05.11.2.03.25.13,1.14.9,1.96,2.08,2.76,3.26.18.26.16.59-.03.87-.12.09-.23.08-.33-.02h0c-.16-.19-.26-.42-.45-.6-.08-.07-.15-.14-.21-.22-.04-.09-.09-.18-.15-.26h0c-.09-.08-.19-.17-.27-.28h.01c-.11-.06-.2-.16-.28-.27h.01c-.11-.06-.21-.15-.28-.27h.01c-.12-.06-.21-.15-.28-.27h.01c-.12-.06-.21-.15-.28-.27h.02c-.17-.19-.35-.37-.55-.54v.02c-.1-.07-.2-.16-.27-.28h.01c-.13-.07-.22-.18-.27-.32Z"/>
  <path class="st51" d="M72.2,57.02c-1.09-.13-1.14-.15-1.3-1.08-.16-.9-.83-1.71-.68-2.61.11-.69-.18-1.14-.4-1.67.08-.12.2-.17.34-.16.09.02.17.05.25.09.07.06.13.13.18.21,0,.04.02.09.02.13,0,.18.02.36.03.54.2.23,0,.58.24.8h0c.16.15.12.39.26.54h0c.08.07.12.16.14.26.02.1.06.2.13.28h0c.07.06.12.15.14.25,0,.19,0,.39.14.55h0c.07.05.11.13.13.21,0,.13.07.24.13.35,0,.08,0,.16.03.24.15.15.1.4.25.56,0,.08,0,.16.02.24.08.07.1.13.06.19-.03.05-.06.08-.09.08Z"/>
  <path class="st5" d="M48.38,36.11c0-.65-.57-.97-.91-1.4-.35-.45-.8.12-1.22.09-.03-.04-.06-.08-.09-.12,0-.05,0-.1,0-.15.03-.04.06-.08.09-.12.09-.04.18-.09.25-.16h0c.09-.09.19-.17.28-.26.09,0,.17,0,.26-.02.22-.11.43-.26.63-.4.37-.15.75-.15,1.12,0,.18.09.27.27.39.42h0c.19.45.21.89,0,1.34h0c-.2.25-.33.55-.54.8h0c-.09.09-.18.08-.27,0Z"/>
  <path class="st60" d="M16.27,34.26c.08,0,.16,0,.24-.02.22-.19.48-.11.73-.12.13,0,.25.04.34.13.08.02.16.02.24.01.07.11.08.23.02.35-2.24.52-1.47,2.19-1.37,3.6-.03.13-.08.24-.16.34-.12.08-.23.07-.34-.02h0c-.25-.21-.02-.58-.27-.8h0c-.16-.15-.11-.39-.26-.54h0c-.26-.21-.04-.58-.27-.8h0c-.09-.08-.13-.18-.14-.31,0-.23-.03-.47.04-.7.13-.19.22-.4.36-.59h0c.09-.09.18-.19.28-.26h0c.05-.06.12-.11.21-.13.13,0,.24-.07.35-.14Z"/>
  <path class="st115" d="M57.28,73.86c-.2.1-.39.2-.59.3-.04.01-.08.04-.12.04-.37-.03-.62-.52-.51-.57,1.11-.44-.86-2.29,1.06-2.28.1-.04.21-.08.31-.13.39-.25.43-.99,1.12-.83,0,0,.05.05.06.05-.34,1.18-1.05,2.21-1.32,3.42Z"/>
  <path class="st26" d="M64.97,59.14c-.12.28-.17.55.03.82-.28.34-.72.49-.95.98-.33-.33-.7-.58-.75-1.04-.08-.72-.46-.24-.73-.2.05-.61.39-.89.97-.7.47.15.95.16,1.43.14Z"/>
  <path class="st123" d="M67.12,55.95c1.08.31,1.43,1.28,1.98,2.1.35.52-.1.92-.09,1.38-.72-1.11-1.49-2.2-1.89-3.48Z"/>
  <path class="st25" d="M33.66,32.37c-.39.16-.84.5-.95-.28-.04-.25-.23-.44-.33-.68-.14-.33-.69-.56.06-.84.17-.06.01-.32-.1-.44-.27-.28-.31-.62-.29-.98.09-.08.18-.07.26,0h0c.15.15.11.39.27.54h0c.09.09.18.19.26.29,0,.08,0,.17.01.25.09.09.17.19.25.29,0,.08,0,.17.02.25.15.15.09.39.25.53h0c.16.14.11.39.27.54h0c.16.17.16.34.01.52Z"/>
  <path class="st106" d="M62.06,77.88c.01-.08,0-.16-.03-.24-.16-.62-.23-1.24.04-1.85h-.02c.07-.11.17-.2.27-.28h-.01c.17-.16.34-.14.53-.02.03.86-.05,1.72.38,2.54.21.41.06.88-.28,1.23-.12.08-.24.07-.35-.03h0c-.17-.13-.13-.38-.27-.54h0c-.28-.2-.05-.58-.28-.81Z"/>
  <path class="st19" d="M71.17,43.36c-.26-.53.17-1.02.07-1.59-.07-.45.44-.8,1-.8.26.45-.12.72-.29,1.05h0c-.16.14-.11.38-.24.53-.02.08-.03.16-.04.25-.06.11-.13.21-.14.35-.02.09-.06.16-.13.21h0c-.07.13-.16.13-.25,0Z"/>
  <path class="st4" d="M57.49,42.55c-.03.07-.03.14-.02.21-.19.25-.01.62-.25.86h0c-.14.09-.27.07-.38-.06-.35-.64-.15-1.32-.07-1.97.07-.53.33-.95,1-.65.23.59-.22,1.07-.28,1.61Z"/>
  <path class="st22" d="M41.97,52.18c.61,0,1.03.19,1.07.9.01.26.15.51.23.76-.18.12-.36.12-.5-.06h0c-.12-.07-.2-.17-.27-.3,0-.08-.02-.15-.05-.23-.07-.09-.14-.18-.23-.26h0c-.09-.1-.18-.18-.26-.28h0c-.15-.14-.17-.3-.06-.48l.06-.06Z"/>
  <path class="st11" d="M35.53,33.44c.01-.08.02-.16,0-.24.15-.16.09-.41.25-.56.01-.08.02-.16.01-.25.06-.13.14-.14.24-.04l.04.03c.46.76.23,1.38-.4,1.92-.3-.03-.28-.26-.29-.47-.01-.15.03-.28.13-.39Z"/>
  <path class="st11" d="M37.42,36.39c0,.36-.01.71-.02,1.07-.12.1-.24.1-.35,0-.29-.52-.3-1.03.03-1.54.11-.1.23-.12.37-.08.1.19.12.38-.02.56Z"/>
  <path class="st82" d="M54.6,61.88c.07.25.13.51.2.76-.02.08-.02.16,0,.23-.12.06-.24.06-.36-.02-.23-.36-.64-.74.09-1.02l.07.05Z"/>
  <path class="st7" d="M29.68,72.51c-.41.04-.82.07-.84-.52.08-.07.16-.08.24-.02.07.04.15.05.23.06.12.06.21.16.32.25h0c.08.07.09.15.04.24Z"/>
  <path class="st122" d="M42.76,62.64c-.4.01-.66-.17-.79-.55.07-.09.15-.1.24-.01.17.1.34.21.52.31.07.05.1.1.09.16-.01.06-.03.09-.05.09Z"/>
  <path class="st84" d="M81.07,61.86c.08-.02.15-.03.23-.06l.05.07c.08.31.31.67-.26.77-.02-.18-.03-.36-.05-.54.02-.08.03-.16.02-.24Z"/>
  <path class="st11" d="M37.68,35.59c-.02.08-.02.16-.02.24-.06.14-.14.14-.24.05l-.04-.03c-.21-.37-.28-.69.28-.8l.05.04c.11.17.11.34-.03.5Z"/>
  <path class="st24" d="M37.4,38.02c.02.27.03.54.05.81-.06.01-.13.03-.19.04-.35-.22-.29-.54-.19-.86.11-.09.23-.09.34,0Z"/>
  <path class="st123" d="M69,59.43c.23.12.27.33.26.56-.21-.13-.26-.33-.26-.56Z"/>
  <path class="st69" d="M75.17,42.82c0,.22-.05.42-.27.53-.07-.05-.09-.11-.08-.17.02-.06.04-.09.06-.09.01-.09.02-.18.02-.26.08-.09.17-.09.26-.01Z"/>
  <path class="st19" d="M30.44,37.46c-.1-.07-.19-.15-.29-.22.08-.02.17-.03.25-.03.07.05.1.1.09.16-.01.06-.03.09-.05.09Z"/>
  <path class="st19" d="M30.13,37.21c-.08-.07-.16-.15-.25-.22.14,0,.22.08.25.22Z"/>
  <path class="st92" d="M69.54,68.52c-.07.09-.14.18-.21.28.01-.14.09-.23.21-.28Z"/>
  <path class="st64" d="M30.98,71.21c-.08-.09-.17-.19-.25-.28,0-.08-.01-.17-.02-.25.12-.65-.28-1.17-.66-1.5-.93-.81-1.44-1.93-2.28-2.79h0c.16-.02.46-.13.32-.25-.71-.61-1.03-1.51-1.66-2.17-.51-.99.46-1.34.84-1.95.12-.05.24-.06.37-.04.3.08.27.64.73.49.12.02.23.06.33.13.68.6.95,1.48,1.5,2.16.75,1.47,1.99,2.59,2.92,3.93.45.65,1.01,1.22,1.36,1.95.17.58.57,1.1.41,1.75-1.36-.14-.94,1.17-1.41,1.75-.11.09-.22.09-.34,0-.06-.2-.11-.4-.3-.52-.07-.1-.15-.2-.22-.31-.03-.21-.1-.4-.31-.5-.04-.14-.12-.24-.26-.28-.08-.1-.16-.2-.24-.29-.11-.49-.42-.81-.84-1.04Z"/>
  <path class="st55" d="M41.93,61.87c.01.08.03.16.03.24q-.64.73-1.62.61c-.24.44.74.46.33.92-.24.27-.43.55-.58.87-.55.14-1.08.23-1.33-.48.17-.02.34-.05.63-.09-.4-.56-1.09-.56-1.45-1.02-.38-.4-.48-1.19-1.33-.97-.08.02-.23-.05-.23-.1-.01-1.47-1.61-1.49-2.21-2.42h0c-.04-.39-.04-.78-.05-1.17,0-.6.2-1.16.81-1.39.6-.23.84.32,1.15.67.69.65,1.38,1.31,2.08,1.95.38.35.77.71,1.35.68.54.27.77.93,1.39,1.12.08,0,.17.01.25.02.09.09.18.17.28.26.1.21.29.27.51.3Z"/>
  <path class="st28" d="M27.76,62.11c-.09,0-.18,0-.27,0-.36-.39-.6-.81-.27-1.34.21-.13.31-.33.29-.56-.13-1.43.26-2.82.25-4.24,0-.73.19-1.41.39-2.08.2-.68.66-1.11,1.4-1.28.58-.13.97.05,1.22.53.24.47.49,1,.41,1.52-.35,2.49-.48,5.01-.99,7.47-.64-.61-.17-1.5-.56-2.18-.06-.11-.11-.23-.15-.35-.11-.69-.93-1.02-.87-1.82-.59.85-.44,1.77-.39,2.66.03.57.22,1.13-.14,1.66-.12.08-.23.07-.34-.01Z"/>
  <path class="st31" d="M40.35,55.41c.08.1.15.2.23.3.03.29.02.59.28.79,0,.38-.06.78.25,1.08.02.97.03,1.95.05,2.92-.03.07-.05.15-.04.23-.07.02-.14.03-.21.05-.32-.23-.33-.59-.36-.93-.09-.77-.56-1.12-1.28-1.22-.28-.59-.48-1.2-.55-1.85.21-.95-.58-1.62-.69-2.49-.04-.32-.39-.63.13-.87.38-.17.66-.18.9.21.11.18.32.29.48.43h0c.17.14.1.4.27.53.07.01.15.02.22.04.03.28.01.59.3.77Z"/>
  <path class="st14" d="M39.57,66.15c-.02.07-.04.14-.05.21-.83.02-1.65.06-2.48.06-.43,0-.88.05-1.24-.27-.63-.2-1.12-.66-1.68-.99-.48-.28-.8-.78-.47-1.33.29-.48.37-1.43,1.37-.94h-.01c.11.2.38.12.51.3.91.26,1.81.52,2.72.78-.67.86-.61,1.18.3,1.66.34.18.78.16,1.03.53Z"/>
  <path class="st3" d="M37.4,73.85c0,.27,0,.54-.01.81-.42.58-.19,1.28-.32,1.91-.13.06-.25.03-.36-.06-.66-1.08-1.01-2.28-1.39-3.48-.12-.47.14-.78.45-1.07.04-.74.16-1.45.54-2.1.39.46.6,1.03,1,1.5.35.4.5.93.23,1.47-.16.33-.12.68-.14,1.03Z"/>
  <path class="st65" d="M39.57,66.15c-.72,0-1.39-.14-1.89-.71-.26-.29-.55-.63-.43-1.04.13-.47.61-.4.99-.45.17.02.34.05.52.07.37.35.94.18,1.33.48.77.35,1.46.85,2.12,1.37.25.2-.12.19-.23.25-.8,0-1.6.01-2.4.02Z"/>
  <path class="st85" d="M35.02,62.89c-.89-.07-.86.83-1.22,1.27-.12.14.17.73.78.87.47.11.82.73,1.22,1.12-1.09-.07-2.05-.53-2.94-1.11-1.11-.73-1.09-2.03-.03-2.73.63-.42,1.29-.25,2.19.59Z"/>
  <path class="st70" d="M27.22,60.77c.03.46.35.86.27,1.34-.17.73-1.12,1.01-1.07,1.87h0c-.2.11-.34,0-.48-.13-.08-.09-.16-.19-.23-.29-.03-.05-.06-.11-.09-.16-.16-.95-.78-1.79-.66-2.79.09-.75.16-1.59,1.31-1.35.11.05.19.13.25.24.04.3.27.5.43.74.21.12.25.32.27.54Z"/>
  <path class="st42" d="M30.2,64.75c-.48.25-.46-.27-.59-.44-.4-.52-.7-1.11-1.05-1.67-.13-.14-.27-.26-.35-.43-.03-.12-.04-.25-.04-.37-.04-.44.1-.89,0-1.33-.1-.41-.19-.86.2-1.08.43-.24.95-.27,1.28.27h0c.24,1.24.35,2.5.53,3.75,0,.09,0,.18,0,.27-.07.06-.1.12-.07.18.03.06.05.09.08.09,0,.26.01.52.02.77Z"/>
  <path class="st100" d="M31.54,48.96c.07.01.14.03.22.04.38.15.62.44.82.78.45.54.89,1.08,1.34,1.61-.65.65-1.41.35-2.15.26-.22-.37-.46-.73-.65-1.11-.32-.64-.18-1.14.42-1.58Z"/>
  <path class="st34" d="M26.42,59.69c0-.09,0-.18,0-.26-1.14-1.49-1.25-3.27-1.13-4.99.08-1.1.51-2.21.69-3.35.07-.47.07-1.13.84-1.14.05.04.11.08.16.11-.18,1.94-.84,3.81-.83,5.79,0,1.31.49,2.53.59,3.81-.1.14-.2.15-.31.02Z"/>
  <path class="st43" d="M36.08,57.55s-.08-.03-.12-.05c-.33-.16-.64-.68-1.01-.38-.41.33-.84.84-.5,1.46.25.46-.1.61-.29.87-.79-.87-.54-1.92-.46-2.91.04-.45.43-.77.92-.84.43-.06.66.24.8.57.18.45.61.77.66,1.29Z"/>
  <path class="st43" d="M34.17,59.44c.69.43,1.52.6,2.16,1.17.39.35.42.69.19,1.09.17.12.29.01.41-.01,1.04-.19,1.05-.17.9.87-.02.12.07.25.11.38-1.73-.65-2.93-1.87-3.76-3.49Z"/>
  <path class="st0" d="M39.26,58.64c.61-.52,1.02-.28,1.38.32.35.58.19,1.21.26,1.82,0,.17,0,.34,0,.52-.15.2-.33.28-.54.11-.4-.33-.8-.65-.85-1.22-.08-.52-.16-1.03-.24-1.54Z"/>
  <path class="st34" d="M24.81,47.64c0-.08.01-.16.02-.24.21-.03.39-.11.51-.3.21-.02.41-.06.54-.26.09,0,.18-.01.27-.02.18,0,.35.02.53.03,0,0,0,0,0,0,.09.09.18.18.28.26h0c0,.22.06.42.27.54,0,.62,0,1.25-.01,1.87-.03.21-.05.42-.24.55,0,0-.05-.03-.05-.03-.23-.16-.67-.16-.54-.6.22-.79-.31-.88-.85-.98-.1-.06-.18-.13-.25-.22-.08-.19-.21-.35-.38-.47-.03-.04-.06-.08-.09-.12Z"/>
  <path class="st73" d="M30.18,63.44c-.3-.21-.29-.53-.27-.84.05-.64-.08-1.28-.43-1.76-.39-.53-.02-.79.16-1.15.46.05.53.36.53.75,0,.57.02,1.13.03,1.7,0,.43-.01.87-.02,1.3Z"/>
  <path class="st89" d="M35.77,71.96c-.11.37-.29.72-.23,1.13.19.49.09.74-.42.4-.29-.19-.42-.55-.38-.93.03-.65-.43-1.24-.24-1.92.37.2.5.59.69.92.14.25.28.43.59.41Z"/>
  <path class="st21" d="M26.42,59.69c.1,0,.21-.01.31-.02.19.14.22.34.22.56-.26-.1-.44-.28-.53-.54Z"/>
  <path class="st85" d="M35.52,63.18c-.22,0-.42-.06-.51-.3.21.03.4.1.51.3Z"/>
  <path class="st73" d="M30.19,63.98c-.19-.08-.2-.17,0-.27,0,.09,0,.18,0,.27Z"/>
  <path class="st79" d="M37.17,37.5c0,.16,0,.31,0,.47-.03.29-.1.59.19.81.03.19.05.37.08.56-.77-.32-.71-1.16-1.01-1.75-.48-.96-1.01-1.95-.92-3.09,0-.08.01-.16.02-.24.45-.54.53-1.19.56-1.86.2-.09.45-.27.59-.03.46.84,1.1,1.63.99,2.68-.29.2-.25.51-.28.8-.44.5-.21,1.09-.22,1.65Z"/>
  <path class="st58" d="M40.88,43.89c0-.18,0-.35,0-.53,0-1.14,0-2.28,0-3.61.65.7,1.32,1.1,2.14,1.18.49.59.08,1.18-.03,1.75-.14.69-.23,1.38-.24,2.09,0,.27-.04.58-.3.68-.3.12-.45-.19-.61-.38-.18-.21-.25-.62-.68-.39h0c-.31-.19-.25-.51-.27-.8Z"/>
  <path class="st25" d="M34.18,32.92c.01.22.06.42.27.53,0,.17.02.35.02.52-.19.03-.48.26-.52-.08-.05-.52-.38-.98-.3-1.52.09,0,.17,0,.26,0,0,.22.05.42.26.54Z"/>
  <path class="st22" d="M38.21,43.89c-.19.36-.42.65-.96.75.14-.62.54-.7.96-.75h0Z"/>
  <path class="st50" d="M50.82,42.24c.42-.37.17-.85.23-1.28,0-1.16.02-2.33.03-3.49.26,0,.58.08.78-.03.62-.37,1.17-.32,1.64.19.32-.3-.1-.57.15-.8.07,0,.18-.03.23,0,1.06.79,1.66,1.77,1.27,3.15-.08.28-.07.52.19.7.41.15.52.46.4.85-.05.18-.18.31-.39.31-.44,0-.57-.36-.73-.68-.14-.28-.06-.62-.25-.88-.15.17-.24.47-.44.49-1.45.11-.89,1.18-.9,1.92,0,.45.47.95-.16,1.29-.58.32-1.01-.06-1.42-.41-.29-.4-.89-.65-.65-1.31Z"/>
  <path class="st114" d="M52.95,27.54c-.1-.16-.2-.32-.3-.48.02-.86.48-1.55.87-2.26.21-.39.51-.71,1.01-.72.04.13.15.28.11.37-.45,1.09-.8,2.25-1.7,3.09Z"/>
  <path class="st81" d="M71.17,47.66c.09-.08.19-.17.28-.25.32-.04.5-.22.55-.53.08-.09.16-.19.25-.28.08-.09.17-.19.25-.28.09-.09.18-.18.26-.27.09-.09.18-.18.26-.27.21-.1.28-.28.31-.49.08-.01.16-.02.24-.04.33.02.7.15.7.47-.03,1.2.75,2.37.1,3.58-.09.17-.18.33-.26.5h-.01c-.1.09-.19.17-.27.26h0c-.08.1-.18.18-.28.26h0c-.22.01-.41.06-.54.26-.22,0-.41.06-.54.26-.22.01-.41.08-.53.28-.22,0-.42.05-.55.25-.09,0-.17-.02-.26-.03-.49-1.76-.4-2.02.77-2.26.18,0-.12-.18-.02-.03-.61.2-1.02-.01-1.28-.59,0-.08,0-.15,0-.23.09-.1.18-.2.27-.31.09-.08.19-.17.28-.25Z"/>
  <path class="st69" d="M74.63,43.36c.09,0,.18,0,.26,0-.08.09-.16.19-.24.28,0-.09-.01-.19-.02-.28Z"/>
  <path class="st40" d="M51.6,43.36c.11.07.24.13.34.21.28.24.6.46.94.18.45-.37-.11-.59-.19-.89-.07-.25-.37-.52-.15-.73.63-.63.09-1.08-.25-1.55.36-.18.57.09.83.1.49.03.89-.06,1.03-.6.05-.2,0-.49.34-.41.27.05.31.28.32.51.02.56-.04,1.15.58,1.49.4-.38.07-.67-.03-.98.16-.28.24-.62.53-.81.67.92.35,2.01.54,3.02.09.51.09,1.04.27,1.54,0,.75.14,1.53-.57,2.09-.12.09-.24.38-.18.46.63.91-.06,1.99.45,2.95.39.72-.52,1.77-1.33,1.64-.37-.06-.7-.33-.68-.71.04-1.3-.36-2.38-1.37-3.23-.14-.12-.14-.41-.37-.51-.08,0-.15,0-.22-.01-.07-.1-.15-.2-.22-.3-.11-.25-.22-.49-.33-.74,0-.91-.83-1.74-.25-2.7Z"/>
  <path class="st9" d="M56.68,44.42c-.87-.42-.67-1.38-.69-1.98-.02-.86-.25-1.72-.12-2.58.03-.46.37-.86.26-1.34.01-.09.02-.17.01-.26.2-.12.26-.31.27-.53.21-.12.26-.31.27-.53.08-.01.16-.02.23-.03.19-.06.4,0,.42.17.13,1.21.67,2.38.44,3.63,0,0,0,.01,0,.01-.38-.02-.81.1-.73.51.13.74-.26,1.44-.08,2.17-.02.17-.03.33-.05.5-.08.09-.16.18-.25.26Z"/>
  <path class="st96" d="M67.95,38c0-.09-.01-.18-.02-.27.37-.73.55-1.56,1.19-2.15.18-.17.25-.53.6-.39.28.11.36.38.36.66,0,.18,0,.36,0,.53-.33.47-.66.93-1,1.39-.31.42-.68.53-1.14.22Z"/>
  <path class="st53" d="M70.62,48.45c.6.07.9.87,1.66.57-1.13.38-1.16.38-1.03,1.42.04.33-.08.59-.1.89-.09.1-.18.21-.28.31-.09,0-.17.03-.25.07-.08.05-.16.05-.24,0l-.02-.06c-.36-.48-.72-.97-.28-1.59.05-.58-.21-1.26.54-1.61Z"/>
  <path class="st19" d="M72.74,40.66c-.08.1-.16.19-.25.29-.08,0-.17.01-.26.02.03-.17.14-.4.07-.51-.63-.97.34-1.55.55-2.31.08-.27.35-.43.64-.29.48.24.59-.23.86-.39,0,.09,0,.19,0,.28,0,.09,0,.17.01.26-.02.08-.04.16-.05.24-.09.09-.17.18-.26.27-.08.09-.17.19-.25.29l-.26.27c-.2.12-.27.31-.28.52-.21.12-.25.32-.26.54-.21.11-.27.31-.28.52Z"/>
  <path class="st72" d="M70.08,50.05c-.08.56.16,1.07.28,1.59-.18,0-.36.01-.54.02,0-.31-.04-.6-.16-.89-.17-.41-.04-.67.43-.72Z"/>
  <path class="st72" d="M69.01,49.31c-.37-.55-.33-.89.18-1.39-.07.54-.11.88-.18,1.39Z"/>
  <path class="st19" d="M71.13,43.62c0,.09.02.18.02.27-.08,0-.17.02-.25.05.07-.1.15-.21.22-.31Z"/>
  <path class="st45" d="M41.15,44.69c.05-.27.14-.62.47-.36.3.23.47.61.88,1.17-.32-1.75.34-3.12.51-4.57.22-1.37.57-2.7,1.25-4,.49.4.32.73.24,1.06-.34,1.36-.89,2.72-.66,4.15.22,1.38.06,2.8.49,4.15.02.52.04,1.04.06,1.56.19.25,0,.58.2.83.02.18.05.36.07.54-.64-.1-.93-.6-1.23-1.08-.19-.3-.3-.64-.66-.78-.54-.89-1.07-1.79-1.61-2.68Z"/>
  <path class="st5" d="M45.73,34.8c.08,0,.17-.01.25-.03.08-.08.17-.08.25,0l.02.02c-.29.5-.75.83-1.14,1.24-.15.16-.35.35-.56.22-.27-.17-.17-.46-.03-.69.11-.18.25-.34.38-.51.3,0,.55-.16.83-.25Z"/>
  <path class="st83" d="M50.26,86.48c-.02.08-.03.17-.02.26-.19.12-.25.31-.29.51-.53.28-1.06-.35-1.6-.01-.26-.16-.51-.32-.77-.48-.08-.45.12-.95-.26-1.34.01-.76-.2-1.47-.52-2.15-.1-.72.1-1.48-.27-2.17.03-.06.03-.11,0-.17.09-.12.09-.25,0-.37,0-2.57.09-5.15-.01-7.71-.06-1.34-.34-2.71-1.31-3.78-.01-.16-.03-.33-.04-.49.1-.55.17-1.1-.43-1.48,1.01-.4,1.8-.44,2.44.48.24.34.8.32,1.19.48.89.35.93.27,1.07,1.14.04.26.02.54.29.7.04.06.08.12.12.18.49,1.6-.13,3.12-.36,4.67.21,2.05-.01,4.09-.04,6.13-.06.06-.08.12-.06.18.02.05.05.08.07.08h0c.91,1.02.88,2.31,1.05,3.54.07.52.21,1.04.04,1.57h0c-.1.07-.18.18-.29.25Z"/>
  <path class="st83" d="M49.72,69.87c.09-.09.18-.18.27-.27h0c.05.06.07.12.05.17-.02.06-.03.09-.05.09h0c-.09.12-.18.13-.27,0h0Z"/>
  <path class="st87" d="M31.24,47.37c0-.18,0-.36-.01-.53,1.15.37,1.18.46.8,1.88-.48-.32-.4-.98-.79-1.35Z"/>
  <path class="st44" d="M32.58,49.78c-.38-.15-.63-.44-.82-.78.1,0,.21-.01.31-.02.8-.14.56.39.51.8Z"/>
  <path class="st97" d="M48.92,53.27c-.19.27-.38.54-.57.81-.07.1-.14.19-.23.27,0,0,0,0,0,0-.85-.35-1.01-1.09-1.08-1.89.27-.78.08-1.62.27-2.41.98.66,1.56,1.6,1.9,2.71h0c-.21.1-.11.38-.29.52Z"/>
  <path class="st86" d="M47.31,50.05c.09.82.35,1.67-.27,2.41-.21-.11-.27-.29-.28-.51.59-.76.13-1.63.28-2.44.22.11.26.31.27.53Z"/>
  <path class="st86" d="M46.25,51.12c.09.09.17.19.26.28.08.18.17.36.25.55-.41-.27-.36.86-.84.28-.31-.38-.63-.82.11-1.12.07,0,.15,0,.22.01Z"/>
  <path class="st35" d="M74.14,71.25c.08-.09.17-.18.25-.28.44-.24.51-.65.51-1.09.09-.09.18-.18.27-.28.06-.11.15-.2.26-.27.2-.56.91-.8.94-1.48.01-.2.2-.27.4-.24.93.13,1.69,1.23,1.59,2.14-.05.44-.54.26-.65.72-.16.68-.36,1.42-1.15,1.84-.35.18.03.92-.33,1.31,0,.08-.02.16-.03.23-.28.04-.59.02-.77.3-.22,0-.42.05-.55.24-.17,0-.35,0-.52.01-.26-.55-.29-1.18.05-1.61.52-.65-.01-.79-.35-1.07l.08-.49Z"/>
  <path class="st88" d="M80.31,64.02c.08-.1.16-.2.24-.29.47-.22.48-.67.55-1.09.28-.19.23-.49.26-.77.42.33.26.83.33,1.24.18,1.03.42,2.05.74,3.04-.19.25-.38.5-.57.75-.36.04-.63.21-.82.51-.28.04-.58.04-.77.31h0c-.17.14-.34.15-.52.02-.27-.06-.52-.17-.53-.49-.03-.65-.15-1.32.24-1.91.29-.2.52-.44.58-.81.19-.12.24-.32.28-.52Z"/>
  <path class="st78" d="M75.44,69.34c-.09.09-.17.18-.26.27,0-.36,0-.71,0-1.07.01-.09.01-.17,0-.26.08,0,.17-.02.25-.03,0,.37,0,.73.01,1.1Z"/>
  <path class="st6" d="M40.07,78.45c0-.09,0-.18,0-.27-.19-.3-.19-.63-.21-.97.12-.51.19-1.05.5-1.51.29-.36.55-.28.8.04h0c.42.39.55.83.26,1.36-.09,1.34-.18,2.67-.28,4.01-.07,0-.15-.02-.22-.04,0-.08-.01-.15-.05-.23-.18-.15-.1-.41-.25-.57.01-.08,0-.16-.03-.23.03-.31.03-.62-.23-.86.01-.08,0-.15-.04-.22-.14-.14-.07-.39-.25-.52h0Z"/>
  <path class="st107" d="M41.43,77.11c.08-.48-.26-.89-.26-1.36.42-.32.2-.79.26-1.19.07-.41-.12-.87.25-1.22h0c.01-.44.02-.87.03-1.31.09-.09.17-.18.26-.27.26-.01.52-.02.78-.04-.08.25-.25.52-.21.75.21,1.18.11,1.69-.64,2.58-.57.68.15.87.49,1.23-.33.28-.65.56-.97.83Z"/>
  <path class="st107" d="M43.56,71.48c.02.08.03.16.05.23-.29,0-.58,0-.87.01.21-.3.53-.21.82-.25Z"/>
  <path class="st71" d="M53.43,68.5c-.18.13-.24.33-.26.54-.25.38-.49.77-.74,1.15-.67-.69.32-1.65-.38-2.36-.47.2-.44.9-1.01.97-.1,0-.19,0-.29-.01.04-.4.01-.81.13-1.19.54-1.71.75-3.45.72-5.24.18-.15.28-.36.25-.59-.21-1.25.53-2.4.38-3.64-.02-.16.1-.23.24-.26.2-.04.41.07.4.24-.02.62.66,1,.58,1.59-.08.59.92.66.56,1.33h0c.35.15.54.41.52.79-.45.38.09.73.03,1.1,0,0,0-.01,0-.01-.3.41-.1.91-.25,1.35-.03.52-.05,1.04-.08,1.56-.25.22-.25.52-.24.82-.38.56-.52,1.19-.56,1.86Z"/>
  <path class="st61" d="M51.05,68.8c.21-.43.48-.84.59-1.32.04-.17.13-.35.33-.37.27-.03.35.2.46.39.31.53.33,1.1.17,1.66-.1.34-.21.67-.16,1.03-.11.42-.23.83-.34,1.25-.28.21-.47.47-.51.82-.29.18-.46.45-.57.77-.09.09-.17.18-.26.27-.08.1-.15.2-.23.31-.2.1-.27.29-.32.49-.08.09-.17.18-.25.27-.09.02-.18.03-.28.05-.07.09-.14.19-.21.28h.01c-.3-.21-.23-.48-.18-.81.21-1.34.52-2.66.43-4.03.09,0,.18,0,.27,0,.03.16.04.37.23.4.19.03.28-.14.29-.32,0-.21,0-.42.01-.63h0c.27-.08.43-.27.53-.53Z"/>
  <path class="st66" d="M50,69.87c0-.09,0-.17,0-.26.1.03.15.1.11.18-.02.03-.07.05-.1.07Z"/>
  <path class="st94" d="M65.53,65.85c.12.66-.31,1.23-.26,1.88-.16.8-.55,1.57-.28,2.41-.33.55-.77,1.02-1.05,1.6-.04.06-.05.13-.04.2-.06.14-.15.15-.25.05.04-.63-.32-1.26.08-1.92.14-.23,0-.7-.13-1.01-.33-.79-.26-1.52.22-2.2-.44-.3-.85-.16-1.23-.2-.06-.98.6-1.49,1.7-1.27.43.09.83.3,1.25.46Z"/>
  <path class="st108" d="M61.23,36.92c-.09.09-.17.18-.26.28-.09.09-.18.18-.27.27-.35.14-.52.42-.56.78-.09.09-.17.18-.26.28-.09.09-.17.19-.26.28l-.27.27c-.09,0-.18,0-.26,0-.45-1.21-1.03-2.41-.54-3.76,1.21.41,1.27.46,1.98-.5.34-.46.69-.27,1.03-.28.5,0,.46.43.48.77h0c-.1.08-.19.17-.26.28h0c-.2.12-.11.4-.27.54-.01.16-.03.33-.04.49-.08.09-.16.19-.25.28Z"/>
  <path class="st4" d="M58.56,35.32c0,.35-.03.71.13,1.04.4.86.46,1.78.42,2.71,0,0,0,0,0,0-.11.08-.19.17-.26.28h0c-.11.06-.2.16-.28.26h0c-.4.24-.34.73-.54,1.07-.08.09-.17.19-.25.28.17-.78-.62-1.23-.68-1.91-.05-.63.5-1.32-.18-1.89.01-.17.03-.33.04-.5.1-.09.19-.18.29-.26.75.02.72-.9,1.3-1.08Z"/>
  <path class="st125" d="M71.71,72.53c.09.02.17.04.26.06.17.1.35.1.52,0,.25-.02.5-.05.75-.07.33-.17.76-.32.84.17.06.37.28.9-.26,1.19-.94.49-1.86,1.11-2.92.28,0-.17,0-.35,0-.52.34-.27.48-.64.54-1.06.09-.01.19-.02.28-.04Z"/>
  <path class="st72" d="M73.56,67.73c-.01.26-.02.52-.03.78-.58.3-.48.85-.51,1.36h-.13s-.13,0-.13,0c.03-.44.03-.87.09-1.31.07-.49.34-.67.72-.82Z"/>
  <path class="st10" d="M65.49,81.16h-.12s-.12-.02-.12-.02c-.34-.23-.76-.28-1.1-.51l.03-.04c-.48-1.68.13-3.21.67-4.75.12-.13.25-.14.39-.02-.01.08,0,.16.05.23.19.23,0,.58.23.8h0c.16.32.55.44.7.78-.47,1.13.02,2.46-.72,3.54Z"/>
  <path class="st16" d="M34.73,72.55c.28.16.31.49.5.71.33.38.24-.05.3-.17.58,1.11,1,2.28,1.34,3.48.23.89.22,1.82-.1,2.65-.43,1.1-.94,1.15-1.83.31-.07,0-.13-.02-.19-.03,0-.29,0-.59-.26-.8,0-.09-.01-.18-.02-.27-.27-1.07-.54-2.13-.81-3.2-.15-.34-.61-.61-.26-1.07-.05-.55.36-1.09.04-1.66-.1-.18-.07-.46.13-.6.21-.14.43,0,.6.13.21.15.38.35.57.53Z"/>
  <path class="st117" d="M33.39,74.16c.09.36.18.72.26,1.07-.36-.17-.65-.42-.8-.8.1-.1.2-.19.3-.29.08,0,.16.01.24.02Z"/>
  <path class="st23" d="M56.12,64.24c.02-.17.03-.35.05-.52.27.2.26.37-.05.52Z"/>
  <path class="st80" d="M27.46,70.7c.09.09.18.18.27.27.1.08.19.16.29.24.09.09.18.17.28.26.01.07.02.14.02.21-.18.29-.34.11-.51-.02-.43-.34-.87-.68-1.35-1.06-.03.42-.05.8-.08,1.18-.31-.08-.47-.34-.76-.3-.05-.88-1.04-.55-1.37-1.07-.07,0-.14-.02-.22-.03,0-.34,0-.69,0-1.03.19-.13.24-.33.25-.55.09-.09.17-.18.26-.27.27,0,.54,0,.8,0,.11.19.28.28.48.33.09.09.18.17.27.26.09.09.17.18.26.27.09.34.28.6.59.76.03.14.12.24.26.28.08.09.17.19.25.28Z"/>
  <path class="st80" d="M27.26,75.45c-.1-.07-.21-.15-.31-.22-.39-.5-.81-.98-1.33-1.35-.07-.1-.15-.2-.22-.31-.02-.15-.05-.31-.07-.46-.22-.45-.11-.82.29-1.11.89.6,1.45,1.54,2.46,2.05.58.29.93,1.12.49,1.92,0,.05-.01.1-.02.15-.1.01-.19,0-.27-.08,0,0-.01,0-.01,0-.11-.21-.29-.28-.51-.28-.11-.2-.3-.27-.5-.3Z"/>
  <path class="st41" d="M25.62,72.01c-.1.37-.19.74-.29,1.11-.08-.02-.16-.03-.23-.05,0-.22-.05-.42-.24-.55-.05-.28-.03-.58-.31-.77.04-.47-.23-.88-.3-1.32.36.33,1.06-.6,1.25.35,1.24.03-.14.52.13.72,0,.09,0,.18,0,.26-.13.09-.22.18,0,.26h0Z"/>
  <path class="st121" d="M29.11,76.55c-.09-.07-.19-.15-.28-.22-.07-.04-.15-.05-.23-.05-.08-.04-.12-.09-.1-.14.02-.06.04-.09.06-.09,0,0,.02-.07.02-.07.16-.02.33-.04.49-.07.67-.11.73-.02.52.71,0,0-.11,0-.11,0,0,0-.11.01-.11.01-.09-.03-.17-.05-.26-.08Z"/>
  <path class="st80" d="M25.62,72.01c-.14.02-.36.23-.42.03-.08-.28.23-.26.41-.29,0,.09,0,.17,0,.26Z"/>
  <path class="st67" d="M53.53,71.53c.19-.14.23-.34.24-.56.52-.62.79-1.33.81-2.14.15-.19.3-.38.45-.57.55-.24.43-1.09,1.08-1.23.31.06.28.33.36.52q.4,1.02,1.59.69c.38-.11.6-.03.57.43-.04.57-.06,1.15-.09,1.72-.31.22-.66.39-.67.86,0,.22-.22.21-.38.23-.24-.28-.14-.6-.11-.9.08-.15.23-.24.28-.4.04-.12,0-.24-.09-.33-.02-.02-.08,0-.08,0,.03.15.16.27.1.44-.31.38-.44.77-.11,1.2-.1.16-.25.24-.44.25-.22,0-.55-.25-.62.2-.05.32.16.38.41.53.53.32.48.65-.13.88-.78.3-.5.54-.03.83-.08.86-.88,1.49-.81,2.4-.45.57-.95,1.11-1.08,1.87-.21.11-.27.3-.3.51-.3.19-.47.47-.51.82h0c-.16.15-.08.42-.28.54h0c-.18.18-.35.36-.53.55-.31,0-.5.54-.88.19-.48-1.65-.7-3.31-.47-5.02.11-.52.23-1.04.34-1.56.69-.87,1.08-1.87,1.36-2.93Z"/>
  <path class="st111" d="M66.37,75.79c.27-.2.24-.51.28-.8.29-.3.46-.67.52-1.08.12-.11.23-.22.35-.33.4-.55.25-1.3.69-1.84.24.09.3.37.63.42.38.06.68.27.45.85-.24.61.06,1.29.04,1.94-.02.72.13,1.43-.04,2.15-.03.05-.07.1-.1.16-.37,1.52-1.23,2.76-2.2,3.96-.66.82-.86.84-1.49-.08v.02c-.05-.78.23-1.54.05-2.32-.14-.59.53-.89.52-1.43.1-.54.2-1.07.3-1.61Z"/>
  <path class="st94" d="M65.24,70.99c-.08-.02-.15-.04-.23-.06,0-.17.01-.34.02-.51.21.14.23.35.21.57Z"/>
  <path class="st1" d="M51.6,43.36c0,.66.28,1.26.42,1.89.07.32.13.59-.17.81h0c-.06-.13-.18-.2-.29-.27-.25-.1-.5-.2-.76-.3,0-.07-.02-.14-.03-.22-.92-1.04-1.12-2.31-1.23-3.63-.03-.39.17-.56.46-.71.08.02.15.03.23.04.03.21.09.4.3.51.1.25.2.51.3.76.1.48.62.67.78,1.11Z"/>
  <path class="st113" d="M68.16,86.16c-.08.01-.15.04-.23.07-.22,0-.41.04-.55.23-.5-.01-1.08.18-1.31-.52.47-.53,1.37-.08,1.76-.78-.91-.79-.93-2.3,0-3.32.15-.17.15-.27.12-.43-.27-1.65.92-2.85,1.31-4.3h0c.1,0,.2.01.3.02-.02.43-.05.86-.07,1.3-.31.31-.24.7-.26,1.08-.38.55-.26,1.18-.26,1.79-.02,1.36-.02,2.72-.02,4.09-.08.1-.16.19-.24.29-.09.09-.18.18-.26.27-.1.08-.2.15-.3.23Z"/>
  <path class="st2" d="M70.89,74.15c.95.33,1.74-.13,2.61-.42.72-.24.2-.6.27-.87.17-.6-.39-.16-.54-.34.03-.08.04-.16.05-.24h0c.11-.07.18-.19.29-.26h0c.08-.1.18-.18.27-.27h0c.08,0,.16,0,.23-.01.63-.34.65.46,1.04.61.17.07-.22.33-.39.51-.4.42-.06,1.07-.35,1.56-.09.09-.18.19-.27.28-.23,0-.43.06-.59.24,0,0-.11,0-.11,0l-.11.02c-.44,0-.88-.01-1.32-.02-.3-.32-.69-.27-1.06-.27,0,0,0,.02,0,.02-.12-.05-.2-.16-.28-.24.09-.09.18-.19.26-.28Z"/>
  <path class="st38" d="M68.02,33.29c-.05-.11-.02-.18.09-.19.02,0,.06.06.07.1.02.08.02.16.03.25-.06-.05-.13-.11-.18-.15Z"/>
  <path class="st127" d="M26.15,63.71c.09.09.18.18.27.27-.2.36-.29.66.11,1,.35.29.58.71.13,1.15-.08,0-.16,0-.24,0-.09-.09-.17-.18-.26-.28-.08-.1-.16-.19-.23-.29,0-.08-.03-.16-.05-.24-.08-.09-.17-.18-.25-.27,0-.38-.2-.64-.54-.8-.08-.09-.17-.19-.25-.28,0-.17-.02-.34-.03-.51.36-.36.72-.25,1.09-.02h0c.09.09.17.19.27.27Z"/>
  <path class="st64" d="M27.76,66.39s-.11-.05-.11-.06c.02-.09.06-.07.11.06h0Z"/>
  <path class="st116" d="M51.84,76.02c.27.16.24.4.25.67.02,1.5.1,2.99.58,4.43.1.63-.3.93-.77,1.19-.09.07-.17.15-.25.23-.37.67-.15,1.45-.41,2.14-.05.12-.12.21-.23.28-.38.13-.57-.11-.75-.37-.27-1.16-.53-2.32-.8-3.48.64-1.08,1.03-2.26,1.37-3.46.26-.21.23-.52.28-.8.18-.14.24-.33.25-.54.16-.1.32-.21.47-.31Z"/>
  <path class="st83" d="M49.47,74.72c.07-.09.14-.19.21-.28-.07.09-.14.19-.21.28Z"/>
  <path class="st116" d="M49.45,81.12c-.04-.06-.08-.12-.11-.18,0,0,.06-.05.09-.07.03.08.04.17.01.26Z"/>
  <path class="st57" d="M19.19,57.55c-.08-.1-.16-.19-.25-.29-.01-.22-.06-.41-.27-.53-.01-.22-.07-.41-.27-.53,0-.22-.08-.41-.28-.53,0-.3.04-.61-.27-.8,0-.22-.06-.43-.25-.57,0-.08,0-.16-.01-.24,0-.3.03-.6-.25-.82-.29-3.69-.29-7.38-.29-11.07,0-.35.04-.72-.26-.99.01-.08,0-.16,0-.25-.02-.38.1-.78-.25-1.08,0-.09,0-.17-.03-.25,0-.22-.04-.42-.25-.54-.01-.17-.03-.34-.04-.5,0,0,.04-.03.04-.03.9-.3.99.45,1.03.95.08.96.58,1.31,1.4,1.31.79-1.4.16-2.78-.05-4.18.4-.22.63.01.82.32.09.09.18.18.27.27.04.37-.08.78.26,1.08,0,.09,0,.17.01.26.05,1.21-.05,2.44.25,3.63.15.6-.53,1.17.01,1.75-.01.07,0,.15,0,.22-.17.16-.23.37-.24.6-.18,2.52-.07,5.03.35,7.52.01.08.1.14.16.21.01.26.02.52.03.78-.88.71-1.33-.18-1.91-.63-.63.78-.16,1.37.1,2.02.39.94,1.3,1.77.7,2.95-.08,0-.17-.02-.25-.03Z"/>
  <path class="st124" d="M18.65,36.66c1.11,1.38.86,2.87.31,4.4-.02,0-.1.05-.18.05-1.2.02-2.01-.31-1.8-1.77.05-.34-.23-.77-.72-.82-.11-.83-.25-1.66-.34-2.5-.09-.91,0-1.04.91-1.21.35-.07.7-.12,1.02-.3h0c.1.08.19.17.29.26h0c.08.65.43,1.23.52,1.88Z"/>
  <path class="st62" d="M34.94,79.53c.39.09.66.56,1.18.25.44-.26.64-.91.6-1.03-.25-.77.27-1.45.15-2.17.07,0,.13,0,.2,0,.11.36,0,.78.3,1.09-.22.91.07,1.82.09,2.73.03.96,0,1.92-.05,2.88h0c-.17.13-.09.4-.27.53h0c-.37.61-.75,1.22-1.12,1.83-.09.09-.17.18-.26.27-.41.21-.83.21-1.24,0-.17-1.14-.02-2.29-.05-3.43.39-.38.29-.86.29-1.33.36-.5.14-1.07.19-1.61Z"/>
  <path class="st126" d="M64.69,75.01c.09.09.18.17.26.26.02.16.04.32.06.48-.28,1.62-.55,3.23-.83,4.85-.16-.02-.31-.05-.47-.07-.13-.4-.39-.68-.8-.81-.03-.15-.05-.3-.08-.45.12-.51.35-1.06-.01-1.53-.6-.78-.55-1.51,0-2.26h0c.15-.15.4-.08.55-.23.19-.08.37-.17.56-.25.25,0,.49,0,.74,0Z"/>
  <path class="st0" d="M22.45,60.44c-.1-.07-.2-.15-.31-.22-.11-.2-.3-.26-.51-.3-.1-.08-.2-.15-.3-.23h0c-.09-.09-.18-.18-.28-.26h0c0-.08-.02-.16-.03-.24-1.31-1.41-1.12-3.16-1.1-4.87,0-.3.05-.71.4-.75.54-.07.14.62.49.76.26.36.51.73.77,1.09,0,.22.08.41.27.53.09.18.18.36.27.53.37.27.91.33,1.09.85.37.87.36,1.83.63,2.73.09.31.07.63-.27.81-.15.04-.27,0-.39-.09h0c-.17-.28-.48-.27-.74-.33Z"/>
  <path class="st34" d="M22.94,57.29c-.2-.34-.7-.38-.8-.81.11-.05.32-.11.32-.15-.18-1.57.29-3.1.22-4.66.39-.39.22-.89.26-1.34.2-.12.26-.31.28-.52.3-.2.25-.51.26-.81.33-.16.49-.44.55-.79.08-.09.16-.19.25-.28.09-.09.18-.18.27-.27.09,0,.17-.01.26-.02l.03.03c.12,1.18.18,2.35-.34,3.47-.23.49-.31,1.01-.26,1.55.02.18.06.37,0,.53-.49,1.23-.65,2.5-.58,3.83.03.49-.27.79-.72.24Z"/>
  <path class="st54" d="M41.17,75.75c-.19,0-.38-.29-.56.02-.96.26-.75-.92-1.36-1.09.02-.07.04-.14.06-.22.55-.13,1.04.13,1.55.27.1.34.21.68.31,1.03Z"/>
  <path class="st68" d="M51.6,82.19c.41-.3.93-.49,1.07-1.07,0-.43.21-.44.52-.28-.16.54-.6.99-.53,1.6-.44.45-.64,1.02-.78,1.62-.34.2-.22.85-.81.8.07-.91-.36-1.93.53-2.68h0Z"/>
  <path class="st128" d="M51.07,84.88c.33-.2.39-.69.81-.8-.01.46-.35.85-.28,1.33-.21.11-.26.31-.28.52-.09,0-.18,0-.27-.01-.31-.35-.24-.69.02-1.03h0Z"/>
  <path class="st91" d="M69.28,77.11c-.1.73-.76,2.68-1.14,3.27-.15.23-.08.4,0,.61.11.28.36.54.3.86-.1.51-.35.62-.8.09.16.82.24,1.51-.4,2.07-.18.16-.11.53.31.49.37-.04.76-.04.72.46-.04.5-.23.97-.87.98-.44,0-.88,0-1.33,0-.09-.09-.17-.19-.26-.28-.09-.62-.18-1.23-.27-1.85.21-.9-.17-1.78-.05-2.67.75.56.77.57,1.17-.14.2-.36.62-.56.58-1.13-.03-.45.46.19.57-.03.3-.61.87-1.37.7-1.86-.34-1.02.24-.82.76-.87Z"/>
  <path class="st37" d="M64.15,80.62c.46-.02.82.15,1.1.51-.18,0-.35,0-.53,0-.08-.03-.16-.05-.24-.05-.1-.08-.2-.15-.3-.23-.01-.08-.02-.16-.03-.24Z"/>
  <path class="st17" d="M40.08,77.11c0,.36,0,.71,0,1.07-.08,0-.16-.01-.24-.02-.02-.21-.07-.41-.26-.54-.03-.21-.1-.39-.31-.48,0,0-.02-.02-.02-.02-.14-.16-.06-.41-.24-.55-.31-.59-.35-1.22-.26-1.87.09,0,.18.01.27.02.88.56,1.08,1.43,1.06,2.39Z"/>
  <path class="st90" d="M20.83,54.32c-.25-.08-.27-.32-.52-.74-.12,2.07-.02,3.87.73,5.6-.25-.1-.51-.21-.76-.31-.09-.09-.18-.18-.27-.26-.08-.09-.17-.19-.25-.28-.09-.09-.17-.18-.26-.27-.02-.16-.04-.32-.05-.47-.03-1.25-.67-2.28-1.28-3.31-.25-.42-.39-.79-.18-1.24.16-.35.1-.89.57-.99.56-.12.56.42.72.76.27.57.81.44,1.29.44.08,0,.16.01.24.02.02.35.03.69.05,1.04Z"/>
  <path class="st108" d="M58.04,40.69c.05-.42-.21-1,.54-1.07,0,.17-.01.35-.02.52-.2.12-.26.31-.28.52-.08,0-.16.02-.24.03Z"/>
  <path class="st102" d="M44.59,48.7c-.28-.23-.22-.53-.2-.83.07.03.14.05.21.07,0,.26-.01.51-.02.77Z"/>
  <path class="st40" d="M51.56,45.78c.15.03.25.12.29.26-.1-.09-.2-.18-.29-.26Z"/>
  <path class="st12" d="M72.48,72.59c-.17.24-.34.25-.52,0,.17,0,.34,0,.52,0Z"/>
  <path class="st129" d="M48.92,53.27c0-.23.05-.43.29-.53-.01.17-.02.34-.03.51-.08,0-.17.01-.25.02Z"/>
  <path class="st82" d="M54.31,64.27c-.18-.5-.14-.96.25-1.35,0,.44-.02.88-.03,1.32-.07.01-.15.02-.22.03Z"/>
  <path class="st102" d="M48.13,54.35c.08-.09.15-.18.23-.27.01.08.02.17.03.25-.08,0-.17.01-.25.02Z"/>
  <path class="st108" d="M58.57,39.62c.09-.09.18-.18.28-.27-.09.09-.18.18-.28.27Z"/>
  <path class="st108" d="M58.84,39.36c.09-.09.17-.19.26-.28-.09.09-.17.19-.26.28Z"/>
  <path class="st21" d="M22.94,57.29c.16.04.48.11.45.02-.22-.58.36-1.17-.13-1.78-.22-.27-.74-1.07.38-1.15.2-.01.34-.4.3-.68-.2-1.25.05-2.41.59-3.54.09-.19.19-.48.11-.64-.36-.68,0-1.25.2-1.85.37-.03.79-.12.51.51h0c.13.04.26.14.37.12,1.04-.17,1.26.05.93,1.09-.12.39.22.42.27.65-.77.27-.68,1.03-.72,1.56-.08,1.01-.22,1.96-.68,2.86-.05.11-.06.25-.04.38.23,1.55.43,3.1.93,4.59-.6-.11-.98.1-1.11.72-.14.64-.23,1.4.19,1.84.45.49.21,1,.39,1.46-.36,0-.72.01-1.09.02h0c-.08-.09-.16-.18-.23-.28-.09-.1-.18-.19-.27-.29,0-.44-.11-.84-.54-1.07-.02-.22-.06-.42-.26-.54,0,0,0,0,0,0-.09-.05-.14-.13-.15-.24,0-.1.03-.19.1-.27.07-.1.23-.24.2-.31-.41-1.03-.42-2.14-.71-3.19Z"/>
  <path class="st112" d="M61.52,36.14c0-.23.03-.44.27-.55,0,.18-.01.35-.02.53-.09,0-.17.01-.25.02Z"/>
  <path class="st112" d="M61.79,35.6c.09-.09.17-.19.26-.28-.09.09-.17.19-.26.28Z"/>
  <path class="st68" d="M51.07,84.88c0,.34-.02.69-.02,1.03-.17.11-.33.21-.49.32-.34-.5-.3-1.06-.29-1.62.27.09.54.18.81.27Z"/>
  <path class="st68" d="M50.26,86.48c.1-.08.19-.17.29-.25,0,.09,0,.17-.02.26-.09,0-.18,0-.27,0Z"/>
  <path class="st60" d="M18.65,36.66c-.44-.56-1.13-1.05-.52-1.89.17.01.34.02.5.03.02.21.08.4.28.52,0,.23.07.41.28.53,0,.22.05.42.26.54,0,.18,0,.35,0,.53-.26-.11-.5-.28-.8-.27Z"/>
  <path class="st127" d="M24.57,63.18c.08.1.15.19.23.29-.08,0-.17-.01-.25-.02,0-.09,0-.18.02-.26Z"/>
  <path class="st32" d="M39.82,54.6c-.23-.11-.27-.31-.27-.54.08,0,.17,0,.25.02,0,.17.02.34.02.52Z"/>
  <path class="st60" d="M18.13,34.78c-.1-.09-.19-.17-.29-.26.09,0,.18,0,.27,0,0,.09.01.18.01.26Z"/>
  <path class="st36" d="M40.08,77.11c-.08-.05-.22-.09-.22-.14,0-.82-.47-1.45-.84-2.12-.02-.03,0-.09,0-.13.07-.03.15-.05.23-.05.58,0,1.06.08.94.87-.02.16.25.2.42.22-.34.38-.09,1-.53,1.34Z"/>
  <path class="st70" d="M27.76,62.11c.09,0,.18,0,.27,0,.09-.13.18-.13.27,0h0c.14.18.16.36,0,.54-.65.3-.52-.2-.54-.53Z"/>
  <path class="st73" d="M28.3,62.64c0-.18,0-.36,0-.54.22.12.26.32.26.54-.09,0-.18,0-.27,0Z"/>
  <path class="st73" d="M28.3,62.1c-.09,0-.18,0-.27,0,.1-1.09-.1-2.18-.16-3.26-.04-.84.35-1.16.79-1.81.17.52.82.66.48,1.29-.2.38.19.28.33.35.5.27.37.63.17,1.01-.41-.24-.84,0-1.34-.06v2.47Z"/>
  <path class="st32" d="M38.74,54.34s-.11-.05-.11-.06c.02-.09.06-.07.1.06h0Z"/>
  <path class="st32" d="M38.74,54.34s.11.05.11.06c-.02.09-.06.07-.11-.06h0Z"/>
  <path class="st21" d="M26.15,63.71c-.09-.09-.18-.18-.27-.27.09.09.18.18.27.27Z"/>
  <path class="st48" d="M41.68,73.34s.07.07.11.11c-.02,0-.05,0-.06-.02-.02-.02-.03-.06-.05-.09,0,0,0,0,0,0Z"/>
  <path class="st82" d="M54.01,61.03s-.05.11-.06.11c-.09-.02-.07-.06.06-.11h0Z"/>
  <path class="st106" d="M63.38,75.25c-.13.21-.33.25-.55.23,0-.08.02-.16.04-.23.17,0,.34,0,.52,0Z"/>
  <path class="st115" d="M57.49,70.41c.07-.54-.45-.23-.67-.5.35-.23.64-.72,1.07-.22.3.36.08.66-.39.72h0Z"/>
  <path class="st115" d="M57.49,70.41c0,.36,0,.71,0,1.07h0c-.69-.36-.38-.71,0-1.07h0Z"/>
  <path class="st116" d="M51.6,82.19s.11.05.11.06c-.02.09-.06.07-.11-.06h0Z"/>
  <path class="st127" d="M25.28,62.93c-.04.1-.11.13-.19.05-.05-.05-.08-.13-.11-.2.07-.02.16-.07.2-.05.05.03.07.12.1.19Z"/>
  <path class="st34" d="M25.35,48.18s-.05.11-.06.11c-.09-.02-.07-.06.06-.11h0Z"/>
</svg>