<?xml version="1.0" encoding="UTF-8"?>
<svg id="DESIGNED_BY_FREEPIK" xmlns="http://www.w3.org/2000/svg" version="1.1" viewBox="0 0 100 100">
  <!-- Generator: Adobe Illustrator 30.3.0, SVG Export Plug-In . SVG Version: 2.1.3 Build 182)  -->
  <defs>
    <style>
      .st0 {
        fill: #ffbb8d;
      }

      .st1 {
        fill: #ff9248;
      }

      .st2 {
        fill: #ffbe71;
      }

      .st3 {
        fill: #f9873a;
      }

      .st4 {
        fill: #f4aa5b;
      }

      .st5 {
        fill: #ff9a55;
      }

      .st6 {
        fill: #ffeddc;
        opacity: .15;
      }
    </style>
  </defs>
  <path class="st2" d="M89.81,52.76c.12,2.92-4.93,4.21-11.1,4.68h0c-9.52.73-21.71-.44-21.71-.44,0,0,4.32,14.63,5.11,24.67.37,4.77-.04,8.5-2.1,9.15-1.96.62-4.33-2.1-6.66-6.17-5.26-9.14-10.38-25.09-10.38-25.09-3,5.03-11.65,11.61-18.61,15-4.39,2.13-8.1,3-9.29,1.39-.66-.89-.17-2.62,1.03-4.77,4.33-7.81,17.85-21.31,17.85-21.31,0,0-12.44-5.65-20.5-11.13-3.87-2.62-6.72-5.22-6.72-7.12,0-1.88,3.6-1.76,8.49-.73,10.36,2.18,26.52,8.48,26.52,8.48,0,0,5.38-15.92,10.55-25.51,0,0,0,0,0-.01,2.37-4.4,4.68-7.46,6.43-7.06,1.97.46,2.13,5.09,1.52,10.87v.02c-1.12,10.5-4.77,24.79-4.77,24.79,0,0,14.45,1.21,24.6,4.1h0c5.43,1.55,9.63,3.59,9.73,6.18Z"/>
  <path class="st3" d="M44.35,54.78c-3.79,6.36-20.3,17.97-22.69,14.74-2.39-3.23,17.03-20.37,17.03-20.37,0,0-23.51-9.46-23.5-14.02.01-4.57,28.25,7.5,28.25,7.5,0,0,7.79-27.76,12.09-26.76,4.3,1-3.29,29.67-3.29,29.67,0,0,27.17.22,27.4,6,.23,5.77-26.26,2.52-26.26,2.52,0,0,8.09,25.46,3.14,27.01s-12.18-26.28-12.18-26.28Z"/>
  <path class="st1" d="M44.36,54.15c-3.47,5.83-18.62,16.48-20.81,13.52-2.19-2.96,15.62-18.68,15.62-18.68,0,0-21.56-8.67-21.55-12.86.01-4.19,25.9,6.87,25.9,6.87,0,0,7.14-25.45,11.09-24.54,3.95.91-3.01,27.2-3.01,27.2,0,0,24.92.21,25.12,5.5.21,5.29-24.08,2.31-24.08,2.31,0,0,7.42,23.34,2.88,24.77-4.53,1.42-11.16-24.1-11.16-24.1Z"/>
  <path class="st5" d="M44.82,53.07c-2.73,4.57-14.6,12.92-16.32,10.6-1.72-2.32,12.25-14.65,12.25-14.65,0,0-16.91-6.8-16.9-10.08.01-3.28,20.32,5.39,20.32,5.39,0,0,5.6-19.96,8.7-19.25,3.1.72-2.36,21.34-2.36,21.34,0,0,19.54.16,19.71,4.31s-18.89,1.81-18.89,1.81c0,0,5.82,18.31,2.26,19.43-3.56,1.12-8.76-18.9-8.76-18.9Z"/>
  <path class="st0" d="M44.88,49.44c-.89,1.5-4.78,4.23-5.34,3.47-.56-.76,4.01-4.79,4.01-4.79,0,0-5.53-2.23-5.53-3.3,0-1.07,6.65,1.76,6.65,1.76,0,0,1.83-6.53,2.85-6.3s-.77,6.98-.77,6.98c0,0,6.39.05,6.45,1.41.05,1.36-6.18.59-6.18.59,0,0,1.9,5.99.74,6.36-1.16.37-2.87-6.18-2.87-6.18Z"/>
  <path class="st0" d="M47.7,55.07c.48,1.43,1.03,2.84,1.56,4.25l1.62,4.23c1.08,2.82,2.17,5.64,3.24,8.46,1.07,2.83,2.13,5.65,3.11,8.51.23.72.48,1.43.68,2.16.11.36.2.73.3,1.09l.28,1.1c.19.73.36,1.47.53,2.2.08.37.16.74.24,1.11.07.37.15.74.2,1.12,0,0,0,.01-.01.02,0,0-.01,0-.02-.01h0c-.13-.74-.32-1.48-.49-2.21-.18-.73-.37-1.46-.56-2.19-.19-.73-.38-1.46-.59-2.18-.2-.73-.45-1.44-.68-2.16-.98-2.86-2.04-5.68-3.11-8.51-1.07-2.82-2.15-5.64-3.24-8.46-.54-1.41-1.08-2.82-1.61-4.23-.53-1.41-1.07-2.83-1.54-4.26,0-.02,0-.05.03-.06.02,0,.05,0,.06.03h0Z"/>
  <path class="st0" d="M39.86,52.81c-1.01.88-1.98,1.82-2.94,2.75-.96.94-1.92,1.88-2.88,2.82l-5.72,5.68c-1.91,1.89-3.82,3.79-5.75,5.65-1.95,1.85-3.91,3.69-5.95,5.45,0,0-.01,0-.02,0,0,0,0-.01,0-.02,1.98-1.81,3.94-3.66,5.87-5.52,1.94-1.86,3.85-3.75,5.75-5.65l5.72-5.68c.96-.95,1.92-1.89,2.89-2.82.97-.93,1.94-1.86,2.96-2.74.02-.02.05-.01.06,0,.02.02.01.05,0,.06h0Z"/>
  <path class="st0" d="M38.91,45.26c-1.25-.62-2.53-1.17-3.81-1.72-1.28-.55-2.57-1.09-3.85-1.63l-7.73-3.22c-2.58-1.07-5.15-2.15-7.71-3.27-2.55-1.13-5.1-2.28-7.59-3.53,0,0,0-.01,0-.02,0,0,.01,0,.02,0,2.53,1.18,5.08,2.32,7.64,3.44,2.56,1.12,5.13,2.19,7.71,3.27l7.73,3.23c1.29.54,2.57,1.09,3.85,1.65,1.28.56,2.56,1.12,3.81,1.75.02.01.03.04.02.06-.01.02-.04.03-.06.02h0Z"/>
  <path class="st0" d="M47.29,40.83c.39-1.37.83-2.72,1.28-4.07.45-1.35.91-2.69,1.37-4.04l2.8-8.05c.93-2.69,1.86-5.37,2.74-8.07.88-2.7,1.77-5.4,2.68-8.1,0,0,.01-.01.02,0,0,0,.01.01,0,.02-.84,2.72-1.71,5.42-2.58,8.13-.87,2.71-1.81,5.39-2.74,8.08l-2.8,8.05-1.38,4.03c-.45,1.35-.9,2.69-1.3,4.06,0,.02-.03.04-.06.03-.02,0-.04-.03-.03-.06Z"/>
  <path class="st0" d="M51.2,48.36c1.53.24,3.07.4,4.61.57l4.62.48,9.25.93,4.63.48c1.54.16,3.08.34,4.62.54.77.1,1.53.23,2.3.35.77.12,1.53.25,2.29.38l2.29.4c.76.14,1.52.28,2.28.44,0,0,.01,0,.01.02,0,0,0,.01-.02.01-.76-.13-1.53-.26-2.29-.38l-2.29-.37c-1.53-.24-3.06-.49-4.59-.7-1.53-.2-3.08-.38-4.62-.54l-4.62-.48-9.25-.93c-1.54-.16-3.08-.32-4.62-.49-1.54-.18-3.08-.35-4.61-.6-.02,0-.04-.03-.04-.05,0-.02.03-.04.05-.04h0Z"/>
  <path class="st4" d="M13.45,38.75c-3.87-2.62-6.72-5.22-6.72-7.12,0-1.88,3.6-1.76,8.49-.73-6.1-.78-6.91,3.55-1.77,7.86Z"/>
  <path class="st4" d="M24.36,74.56c-4.39,2.13-8.1,3-9.29,1.39-.66-.89-.17-2.62,1.03-4.77-.47,3.08,2.37,5.38,8.26,3.38Z"/>
  <path class="st4" d="M60.01,90.82c-1.96.62-4.33-2.1-6.66-6.17,3.04,2.78,9.13,2.19,8.73-3.02,0,0,.01.02.02.04.37,4.77-.04,8.5-2.1,9.15Z"/>
  <path class="st4" d="M89.81,52.76c.12,2.92-4.93,4.21-11.1,4.68,6.94-1.43,6.15-8.15,1.37-10.86,5.43,1.55,9.63,3.59,9.73,6.18Z"/>
  <path class="st4" d="M60.24,17.67c-.02-3.92-4.43-7.55-7.95-3.82,2.37-4.4,4.68-7.46,6.43-7.06,1.97.46,2.13,5.09,1.52,10.87Z"/>
  <path class="st6" d="M25.26,68.84c7.89-6.42,16.39-16.2,17.74-15.13,1.35,1.07-2.77,8.47-9.16,13.32-6.39,4.85-11.29,7.35-11.83,6.07-.53-1.28.96-2.4,3.25-4.26Z"/>
  <path class="st6" d="M36.73,53.8c-7.25,7.14-16.68,18.06-18.12,17.12-1.44-.94,4.21-8.37,10.12-13.8,5.91-5.43,9.63-7.99,10.28-6.77.65,1.22-.18,1.37-2.28,3.44Z"/>
  <path class="st6" d="M36.11,42.51c-9.2-4.34-21.69-7.78-21.31-9.46s8.25-.45,15.38,3.22c7.13,3.67,12.1,6.3,11.18,7.33s-2.58.17-5.25-1.09Z"/>
  <path class="st6" d="M57.26,76.51c-2.97-9.73-8.82-21.29-7.32-22.14s6.8,5.76,8.88,13.51c2.08,7.75,2.55,13.23,1.16,13.24-1.39.01-1.86-1.79-2.72-4.62Z"/>
  <path class="st6" d="M74.03,50.12c-9.99-1.93-22.94-2.19-22.99-3.91s8.28-3.31,16.1-1.51c7.82,1.8,12.89,3.95,12.25,5.18-.64,1.23-2.45.8-5.35.24Z"/>
  <path class="st6" d="M53.45,19.99c-3.37,8.6-5.96,19.53-7.51,19.39-1.55-.14-1.07-7.58,1.82-14.28,2.89-6.7,5.17-10.76,6.17-10.07,1,.69.5,2.46-.48,4.95Z"/>
  <path class="st6" d="M54.33,75.87c-4.19-9.27-6.7-20.53-8.38-20.17s-.85,9,2.7,16.2c3.55,7.19,5.41,11.97,6.46,11.06,1.05-.91.44-4.39-.77-7.08Z"/>
  <path class="st6" d="M74.25,51.99c-10.17-.29-22.87-2.86-23.29-1.2-.42,1.67,7.36,5.03,15.38,4.98,8.02-.05,13.44-1.05,13.08-2.39-.36-1.34-2.22-1.32-5.17-1.4Z"/>
  <path class="st6" d="M55.26,20.55c-2.09,8.99-6.15,19.47-4.79,20.24,1.36.76,5.17-5.64,6.58-12.8,1.41-7.16,1.84-11.79.62-11.79-1.22,0-1.8,1.74-2.41,4.36Z"/>
  <path class="st6" d="M35.19,44.77c-9.56-3.48-20.8-9.92-21.72-8.48s5.48,6.18,13.11,8.66,12.99,4.16,13.08,2.78c.08-1.38-1.69-1.95-4.47-2.96Z"/>
  <path class="st6" d="M45.01,49c-.6,1.01-3.22,2.85-3.6,2.34-.38-.51,2.7-3.23,2.7-3.23,0,0-3.73-1.5-3.73-2.23,0-.72,4.48,1.19,4.48,1.19,0,0,1.24-4.41,1.92-4.25.68.16-.52,4.71-.52,4.71,0,0,4.31.04,4.35.95.04.92-4.17.4-4.17.4,0,0,1.28,4.04.5,4.29-.78.25-1.93-4.17-1.93-4.17Z"/>
</svg>