<?xml version="1.0" encoding="UTF-8"?>
<svg id="DESIGNED_BY_FREEPIK" xmlns="http://www.w3.org/2000/svg" version="1.1" viewBox="0 0 100 150.56">
  <!-- Generator: Adobe Illustrator 30.3.0, SVG Export Plug-In . SVG Version: 2.1.3 Build 182)  -->
  <defs>
    <style>
      .st0 {
        fill: #4b795d;
      }

      .st1 {
        fill: #374b32;
      }

      .st2 {
        fill: #8c5143;
      }

      .st3 {
        fill: #ff9eaf;
      }

      .st4 {
        fill: #fd6f89;
      }

      .st5 {
        fill: #588f6d;
      }
    </style>
  </defs>
  <path class="st2" d="M50.58,92.06c-1.43-6.94-2.48-14-2.34-21.1.15-7.59,2.03-14.4,5.31-21.2.24-.5-.41-.87-.73-.43-7.89,10.79-6.79,26.1-4.65,38.54,1.32,7.68,3.34,15.23,4.71,22.91,1.55,8.69,1.79,17.13.84,25.9-.05.5.73.57.86.12,4.28-14.48-1.06-30.5-4-44.73Z"/>
  <path class="st0" d="M55.3,88.04c1.1.21,2.31-.19,3.06-1.03.75-.83,1.03-2.07.71-3.15,1.64,1.15,4.2,1.06,5.42-.54.93-1.23.88-2.9.99-4.44.2-2.72,1.08-5.38,2.52-7.69-3.55,1.84-7.46,3.52-10.2,6.44s-3.51,6.54-2.49,10.41Z"/>
  <path class="st2" d="M51.95,97.63c-.25-.09-.58-.83-.37-1.61,1.05-3.98,3.3-8.65,5.17-12.31.47-.92.96-1.82,1.54-2.68,1.5-2.23,3.55-4.1,5.92-5.38-2.01,1.75-3.8,3.89-5.31,6.09-.46.67-.9,1.36-1.3,2.08-.4.71-.76,1.43-1.11,2.16-.3.6-.6,1.21-.9,1.81-.47.94-.93,1.88-1.34,2.85-.99,2.34-1.65,4.55-2.29,7.01Z"/>
  <path class="st1" d="M35.59,78.41c2.17,5.15,8.22,8.12,13.78,10.16l-.56-.96c-2.44-4.03-5.19-7.92-8.24-11.63-.85-1.04-1.96-2.17-3.28-2.16-2.09.01-2.49,2.71-1.7,4.59Z"/>
  <path class="st5" d="M64.49,104.19c-.08,5.59-4.58,10.61-8.97,14.58l.16-1.1c.75-4.65,1.85-9.29,3.28-13.87.4-1.28,1-2.74,2.24-3.23,1.94-.77,3.32,1.58,3.29,3.62Z"/>
  <path class="st0" d="M48.22,60.75c0,.13.03.28.15.33.06.03.14.03.21.02.91-.13,1.68-.74,2.33-1.39,1.76-1.75,3.05-3.98,3.68-6.38.03-.09.05-.2.02-.29-.03-.09-.12-.16-.2-.21-1.07-.73-2.19-1.42-3.43-1.8-2.05-.62-4.25-.51-3.87,1.95.41,2.6.92,5.13,1.11,7.76Z"/>
  <g>
    <path class="st3" d="M36.78,22.99c-.22-1.21-.36-2.47.34-3.41.7-.94,2.5-1.42,4.19-.75,1.76.69,2.57,2.18,3.15,3.46,1.36,3.04,2.72,6.08,4.08,9.12.33-2.16,6.8-11.73,9.85-10.19,2.14.71,2.57,8.06-.62,13.46,1.89-1.84,3.81-3.71,6.51-4.98s6.3-1.9,10.14-1.11c2.24.46,4.75,1.62,5.48,3.19.33.7.25,1.39.08,2.02-1.22,4.41-6.59,6.9-11.36,9.42-4.43,2.35-8.53,4.96-12.28,7.8-4.42,3.35-5.52,5.53-9.44-.34-5.22-7.8-8.66-19.85-10.11-27.69Z"/>
    <path class="st4" d="M68.24,28.23c.15-1.49.28-3.32-1.84-4.73-1.85-1.22-3.91-1.08-4.7-.03-3.06,4.07-7.52,9.18-7.52,9.18-2.98-3.9-2.94-10.25-4.55-13.75-.42-.92-1.33-2.44-2.93-2-.68.19-.93.78-1.19,1.23-.58,1-1.07,2.04-1.51,3.1-3.56,8.59-1.72,30.48,6.58,33.06,6.5,2.02,16.76-17.1,17.64-26.07Z"/>
  </g>
</svg>