<?xml version="1.0" encoding="UTF-8"?>
<svg id="DESIGNED_BY_FREEPIK" xmlns="http://www.w3.org/2000/svg" xmlns:xlink="http://www.w3.org/1999/xlink" version="1.1" viewBox="0 0 100 100">
  <!-- Generator: Adobe Illustrator 30.3.0, SVG Export Plug-In . SVG Version: 2.1.3 Build 182)  -->
  <defs>
    <style>
      .st0, .st1, .st2 {
        fill: #75014e;
      }

      .st0, .st3 {
        opacity: .1;
      }

      .st1, .st4 {
        opacity: .07;
      }

      .st2, .st5 {
        opacity: .15;
      }

      .st6 {
        fill: #d182af;
      }

      .st7 {
        fill: #edb2cb;
      }

      .st8 {
        fill: #d88bb4;
      }

      .st9 {
        fill: #c66fa5;
      }

      .st10 {
        fill: #e296ba;
      }

      .st4, .st3, .st5 {
        fill: #ffe6f8;
      }

      .st11 {
        fill: url(#_ÂÁ_Ï_ÌÌ_È_ËÂÌÚ_22);
      }
    </style>
    <linearGradient id="_ÂÁ_Ï_ÌÌ_È_ËÂÌÚ_22" data-name="¡ÂÁ˚ÏˇÌÌ˚È „‡‰ËÂÌÚ 22" x1="83.6" y1="53.41" x2="32.5" y2="31.92" gradientUnits="userSpaceOnUse">
      <stop offset="0" stop-color="#edb2cb"/>
      <stop offset="1" stop-color="#e39fbf"/>
    </linearGradient>
  </defs>
  <path class="st11" d="M84.09,59.15c-2.6,1.04-1.82,5.63-2.17,9.45l-10.02-9.83s-6.47,7.39-11.69,4.44c-2.41-1.36-3.43-9.52-5.48-13.22-.45-.82-.96-1.42-1.53-1.67-3.16-1.41-6.2-2.5-8.64-2.87-2.97-.44-5.39-1.84-7.31-3.53h0c-1.52-1.34-2.72-2.87-3.63-4.26-1.53-2.33-2.24-4.26-2.24-4.26,0,0,1.02-.62,2.55-1.49,2.22-1.27,5.51-3.08,8.29-4.32,4.68-2.08.78-4.85,4.16-5.2,3.38-.35,6.68,4.16,7.8,5.81,1.13,1.65,4.51,2.08,6.94-.17,2.43-2.25,6.59-2.25,6.76.17.17,2.43.61,6.68,3.9,8.5,3.29,1.82,7.11-.43,9.62,1.65,2.51,2.08-.69,6.15-1.47,9.19-.78,3.03,4.25,4.33,6.33,6.07,2.08,1.73.43,4.51-2.17,5.55Z"/>
  <path class="st0" d="M73.95,53.53l-19.22-3.54c-.45-.82-.96-1.42-1.53-1.67-3.16-1.41-6.2-2.5-8.64-2.87-2.97-.44-5.39-1.84-7.31-3.53h0s-3.63-4.26-3.63-4.26c-1.53-2.33-2.24-4.26-2.24-4.26,0,0,1.02-.62,2.55-1.49,2.8,5.04,8.45,6.22,12.35,6.62,4.01.42,8.23-5.13,18.87-.58,10.65,4.55,8.81,15.58,8.81,15.58Z"/>
  <path class="st10" d="M44.73,46.61l-.72,3.76-.84,4.36s-20.72-4.33-20.63-10.4c.06-4.45,2.46-11,3.73-14.18.28-.69.92-1.11,1.6-1.15.35-.02.72.06,1.05.26,1.58.96,3.78,2.66,5.06,5.18,2.03,3.97,7.26,7.54,10.77,10.97.44.43.1.58-.02,1.19Z"/>
  <path class="st0" d="M44.73,46.61l-.72,3.76-1.29,3.49-4.63-3.22c1.94.63,3.63-.24,4.06-2.95.44-2.71-2.58-5.72-6.39-8.56-4.4-3.29-4.84-7.72-7.9-10.11.35-.02.72.06,1.05.26,1.58.96,3.78,2.66,5.06,5.18,2.03,3.97,7.26,7.54,10.77,10.97.44.43.1.58-.02,1.19Z"/>
  <path class="st8" d="M43.6,58.98s-.52,1.73-7.11,2.43c-6.59.69-21.93-5.98-23.41-8.06-.93-1.32-1.24-4.27-1.34-6.26-.05-1.06.74-1.96,1.8-2.05,1.09-.09,2.65-.29,4.66-.7.49-.1.92-.23,1.29-.38.9-.36,1.48-.84,1.84-1.32.62-.82,1.79-1,2.65-.42,4.44,2.99,14.74,8.62,17.75,10.24.53.29.9.8,1,1.4l.42,2.47.45,2.65Z"/>
  <path class="st9" d="M44.59,65.25c-.5,1.77-2.26,4.36-5.57,6.49-2.97,1.91-7.18,3.43-12.85,3.63-9.03.32-14.27-1.72-16.4-2.82-.56-.29-.67-1.03-.23-1.47.88-.87,2.15-2.33,2.64-3.83.11-.33.18-.65.2-.98.17-2.69,31.56-6.42,31.56-6.42l.67,5.02c.02.13,0,.26-.03.38Z"/>
  <path class="st0" d="M43.15,56.33l-.02,2.53-2.71.24s1.45-.73.82-3.82c-.63-3.1-5.9-5.71-9.63-7.4-3.48-1.58-9.52-4.17-12.12-3.92.9-.36,1.48-.84,1.84-1.32.62-.82,1.79-1,2.65-.42,4.44,2.99,14.74,8.62,17.75,10.24.53.29.9.8,1,1.4l.42,2.47Z"/>
  <path class="st10" d="M71.9,58.77c-1.26-.35-.24-4.24-.24-4.24,0,0,.13-10.71-6.48-11.58-6.61-.87-16.1,6.29-9.61,13.32,6.48,7.03,14.97,4.97,14.97,4.97l1.37-2.47Z"/>
  <path class="st0" d="M44.59,65.25c-.5,1.77-2.26,4.36-5.57,6.49,3.28-2.51,3.97-5.5,3.54-6.2-.52-.84-2.9-.39-10.71,2.32-7.08,2.46-14.9.78-19.66-.62.11-.33.18-.65.2-.98.17-2.69,31.56-6.42,31.56-6.42l.67,5.02c.02.13,0,.26-.03.38Z"/>
  <path class="st6" d="M43.08,60.71c-1.17,1.24-2.6,2.25-4.22,3.07-8.1,4.12-20.69,3.42-26.47,2.48-4.12-.67-6.01-2.29-6.86-3.49-.44-.62-.18-1.49.53-1.75,2.81-1.02,5.72-4.12,5.72-4.12l-1.42-1.49c-.42-.44-.4-1.04-.11-1.46.23-.33.62-.54,1.09-.49,3.29.41,9,1.36,16.22,3.51,11.62,3.47,15,1.47,15,1.47l.52,2.25Z"/>
  <path class="st0" d="M43.08,60.71c-1.17,1.24-2.6,2.25-4.22,3.07.69-.83,1.65-2.44-.5-3.28-2.97-1.16-5.35-1.06-13.68-3.39-7.28-2.03-11.51-3.7-14.43-3.16.23-.33.62-.54,1.09-.49,3.29.41,9,1.36,16.22,3.51,11.62,3.47,15,1.47,15,1.47l.52,2.25Z"/>
  <path class="st7" d="M81.92,68.6c-.52,2.25-5.84,10.97-21.62,8.4-10.1-1.64-14.36-7.97-17.22-16.29-2.05-5.95-.06-13.06,3.08-17.67,1.25-1.84,2.68-3.28,4.11-4.09,5.03-2.86,12.22-3.12,18.2,1.91,5.98,5.03,6.42,10.58,4.94,14.91-1.47,4.33-6.76,5.98-12.22,1.56-4.69-3.8-3.44-9.19-1.06-11.52,0,0,0,0,.01-.01.36-.35.75-.64,1.14-.83.02,0,.03-.02.04-.02,0,0,.02,0,.03-.01,0,0,0,0,0,0,0,0,0,0,0,0h0c.22-.1.44-.17.66-.22,2.93-.65,6.41,2.69,5.93,5.42-.29,1.65-1.43,2.13-2.46,1.89,0,0,0,0,0,0,.49.31,1,.48,1.41.25,3.28-1.85.23-6.01-1.72-7.25-1.18-.75-2.87-.85-4.44.17,0,0,0,0,0,0-1.03.67-2.01,1.82-2.77,3.6-1.92,4.49,2.47,9.1,6.66,10.99,4.19,1.89,7.25-1.01,7.25-1.01l.39.38,9.63,9.45Z"/>
  <path class="st2" d="M81.92,68.6c-.52,2.25-5.84,10.97-21.62,8.4-10.1-1.64-14.36-7.97-17.22-16.29-2.05-5.95-.06-13.06,3.08-17.67-1.99,4.08-3.12,10.13-1.34,17.84,2.03,8.81,12,15.58,19.36,15.77,7.35.19,16.04-2.77,17.74-8.06Z"/>
  <path class="st0" d="M60.15,45.8c.36-.35.75-.64,1.14-.83-.16.08-.54.31-1.14.83Z"/>
  <path class="st1" d="M72.29,59.15c-.74,1.74-2.58,4.02-7.08,3.86-7.23-.26-9.65-6.74-9.16-10.52.45-3.55,1.59-5.9,4.71-7.31-1.03.67-2.01,1.82-2.77,3.6-1.92,4.49,2.47,9.1,6.66,10.99,4.19,1.89,7.25-1.01,7.25-1.01l.39.38Z"/>
  <path class="st1" d="M67.96,50.14c-.29,1.65-1.43,2.13-2.46,1.89.78.12,2.38-1.23,1.85-3.63-.52-2.35-3.25-3.65-5.32-3.68,2.93-.65,6.41,2.69,5.93,5.42Z"/>
  <path class="st4" d="M7.21,61.92c-.26,1.55,5.29,2.84,15.23,3.1,9.94.26,15.8-2.16,13.1-3-2.7-.84-13.23.16-18.39-1.77-5.16-1.94-9.94,1.68-9.94,1.68Z"/>
  <path class="st4" d="M13.32,46.32c-1.38,1.86.34,5.27,4.4,6.63s18.58,5.18,20.03,4.21c1.45-.97-2.32-4.5-10.02-6.53-7.69-2.03-13.02-6.19-14.42-4.31Z"/>
  <path class="st4" d="M11.09,71.97c2.46,1.56,9.39,3.58,16.89,2.61,7.5-.97,10.06-3.18,10.89-4.6.99-1.69-3.19,4.79-14.08,3-10.89-1.79-8.42-3.24-12-3.44-1.53-.08-2.76,1.74-1.69,2.42Z"/>
  <path class="st4" d="M25.37,39.74c-.89-2.66.63-8.42,2.08-8.08,1.45.34,2.52,5.76,6.19,8.71,3.68,2.95,6.44,4.89,4.84,6.92-1.6,2.03-12.15-4.65-13.11-7.55Z"/>
  <path class="st3" d="M38.96,31.62c6.27-1.44,6.19-6.05,8.71-6.34,2.52-.29,3.15,4.35,7.21,5.27s7.65-2.81,9.63-1.6c1.98,1.21.44,6.29,6.29,8.47,5.85,2.18,9.44,1.06,9.34,3.44s-1.16,6.82-3.58,4.55-3.24-5.42-7.55-7.35-9.24-4.31-18.63-3.1-16.26-2.23-11.42-3.34Z"/>
  <path class="st5" d="M77.98,52.4c3,.62,5.48,3.16,4.97,4.39-.52,1.23-2.97,3.29-3.35,7.87-.39,4.58-8.13,13.94-17.16,9.03-9.03-4.9-6.26-11.23-1.29-10.13,4.97,1.1,9.8,1.56,12.06-2.64,2.26-4.19,1.36-9.23,4.78-8.52Z"/>
  <path class="st5" d="M48.63,64.92c-4.13-6.55-4.58-20.52,2.97-24.65,7.55-4.13,14.9-1.06,14.06,1.45-.84,2.52-5.81.35-9.48,2.87-3.68,2.52-3.48,10.58-.58,15.16,2.9,4.58-3.23,11.1-6.97,5.16Z"/>
  <path class="st5" d="M59.88,48.53c.99-1.99,4.42-1.26,4.68.61.26,1.87-.94,3.74,1.35,4.23,2.29.48,4.94-.94,4.03-3.71-.9-2.77.65-3.55,1.77-2.74s3.52,8.68-1.13,10.87c-4.65,2.19-8.81-.16-10.16-2.84-1.35-2.68-1.13-5.26-.55-6.42Z"/>
</svg>